G04 #@! TF.FileFunction,Copper,L1,Top,Signal*
%FSLAX46Y46*%
G04 Gerber Fmt 4.6, Leading zero omitted, Abs format (unit mm)*
G04 Created by KiCad (PCBNEW 4.0.4+e1-6308~48~ubuntu14.04.1-stable) date Mon Nov 27 12:18:25 2017*
%MOMM*%
%LPD*%
G01*
G04 APERTURE LIST*
%ADD10C,0.100000*%
%ADD11R,2.000000X1.800000*%
%ADD12R,1.800000X2.000000*%
%ADD13R,0.650000X0.700000*%
%ADD14C,0.600000*%
%ADD15C,0.250000*%
%ADD16C,0.254000*%
G04 APERTURE END LIST*
D10*
D11*
X112690000Y-111760000D03*
D12*
X108290000Y-111760000D03*
D13*
X242725000Y-112650000D03*
X242725000Y-110750000D03*
X245675000Y-112650000D03*
X245675000Y-110750000D03*
X225143000Y-112650000D03*
X225143000Y-110750000D03*
X228093000Y-112650000D03*
X228093000Y-110750000D03*
X207561000Y-112650000D03*
X207561000Y-110750000D03*
X210511000Y-112650000D03*
X210511000Y-110750000D03*
X189980000Y-112650000D03*
X189980000Y-110750000D03*
X192930000Y-112650000D03*
X192930000Y-110750000D03*
X172398000Y-112650000D03*
X172398000Y-110750000D03*
X175348000Y-112650000D03*
X175348000Y-110750000D03*
X154816000Y-112650000D03*
X154816000Y-110750000D03*
X157766000Y-112650000D03*
X157766000Y-110750000D03*
X137234000Y-112650000D03*
X137234000Y-110750000D03*
X140184000Y-112650000D03*
X140184000Y-110750000D03*
X119652000Y-112650000D03*
X119652000Y-110750000D03*
X122602000Y-112650000D03*
X122602000Y-110750000D03*
X102070000Y-112650000D03*
X102070000Y-110750000D03*
X105020000Y-112650000D03*
X105020000Y-110750000D03*
X84489000Y-112650000D03*
X84489000Y-110750000D03*
X87439000Y-112650000D03*
X87439000Y-110750000D03*
X66907000Y-112650000D03*
X66907000Y-110750000D03*
X69857000Y-112650000D03*
X69857000Y-110750000D03*
X49325000Y-112650000D03*
X49325000Y-110750000D03*
X52275000Y-112650000D03*
X52275000Y-110750000D03*
D11*
X59350000Y-111760000D03*
D12*
X54950000Y-111760000D03*
D11*
X77130000Y-111760000D03*
D12*
X72730000Y-111760000D03*
D11*
X94910000Y-111760000D03*
D12*
X90510000Y-111760000D03*
D11*
X130470000Y-111760000D03*
D12*
X126070000Y-111760000D03*
D11*
X148250000Y-111760000D03*
D12*
X143850000Y-111760000D03*
D11*
X164760000Y-111760000D03*
D12*
X160360000Y-111760000D03*
D11*
X182540000Y-111760000D03*
D12*
X178140000Y-111760000D03*
D11*
X200320000Y-111760000D03*
D12*
X195920000Y-111760000D03*
D11*
X218100000Y-111760000D03*
D12*
X213700000Y-111760000D03*
D11*
X235880000Y-111760000D03*
D12*
X231480000Y-111760000D03*
D11*
X253660000Y-111760000D03*
D12*
X249260000Y-111760000D03*
D14*
X65532000Y-110236000D03*
X82931000Y-113919000D03*
X168910000Y-111760000D03*
X244602000Y-100838000D03*
X60452000Y-103124000D03*
X241554000Y-100584000D03*
X58166000Y-103124000D03*
X237744000Y-100584000D03*
X227838000Y-102616000D03*
X236474000Y-100584000D03*
X228600000Y-102108000D03*
X44196000Y-105664000D03*
X68707000Y-105410000D03*
X182540000Y-111760000D03*
X182626000Y-103886000D03*
X80264000Y-112522000D03*
X250952000Y-109728000D03*
X65913000Y-114046000D03*
X200320000Y-111760000D03*
X200406000Y-104648000D03*
X107696000Y-104648000D03*
X109728000Y-104648000D03*
X248412000Y-109728000D03*
X63119000Y-113030000D03*
X108966000Y-105410000D03*
X62738000Y-111760000D03*
X105918000Y-105410000D03*
X218100000Y-111760000D03*
X218186000Y-105410000D03*
X247142000Y-110236000D03*
X108204000Y-106172000D03*
X104140000Y-106172000D03*
X244348000Y-109982000D03*
X94910000Y-111760000D03*
X94869000Y-106934000D03*
X60706000Y-110236000D03*
X112690000Y-111760000D03*
X112776000Y-106934000D03*
X253492000Y-109982000D03*
X107442000Y-106934000D03*
X102870000Y-106172000D03*
X222504000Y-108204000D03*
X57912000Y-110236000D03*
X130470000Y-111760000D03*
X130302000Y-107696000D03*
X55626000Y-109982000D03*
X101092000Y-105410000D03*
X106680000Y-107696000D03*
X221742000Y-108712000D03*
X148250000Y-111760000D03*
X148336000Y-108458000D03*
X105918000Y-108458000D03*
X53594000Y-109728000D03*
X99314000Y-104648000D03*
X220980000Y-109220000D03*
X220472000Y-109982000D03*
X164760000Y-111760000D03*
X164846000Y-109220000D03*
X50546000Y-110236000D03*
X97536000Y-103886000D03*
X105156000Y-109220000D03*
X245872000Y-100838000D03*
X68072000Y-103632000D03*
X229362000Y-114554000D03*
X45339000Y-114046000D03*
X233680000Y-100584000D03*
X229616000Y-101600000D03*
X230632000Y-101092000D03*
X232410000Y-100584000D03*
D15*
X157766000Y-112650000D02*
X157766000Y-112667800D01*
X157766000Y-112667800D02*
X156260800Y-114173000D01*
X151714200Y-114173000D02*
X156260800Y-114173000D01*
X140184000Y-112650000D02*
X140184000Y-114116000D01*
X140150000Y-114150000D02*
X140150000Y-114173000D01*
X140184000Y-114116000D02*
X140150000Y-114150000D01*
X122602000Y-112650000D02*
X122602000Y-114148000D01*
X122600000Y-114150000D02*
X122600000Y-114173000D01*
X122602000Y-114148000D02*
X122600000Y-114150000D01*
X105020000Y-112650000D02*
X105020000Y-114130000D01*
X105000000Y-114150000D02*
X105000000Y-114173000D01*
X105020000Y-114130000D02*
X105000000Y-114150000D01*
X87439000Y-112650000D02*
X87439000Y-114111000D01*
X87400000Y-114150000D02*
X87400000Y-114173000D01*
X87439000Y-114111000D02*
X87400000Y-114150000D01*
X69857000Y-112650000D02*
X69050000Y-112650000D01*
X65500000Y-111650000D02*
X65532000Y-111650000D01*
X68050000Y-111650000D02*
X65500000Y-111650000D01*
X69050000Y-112650000D02*
X68050000Y-111650000D01*
X53340000Y-113700000D02*
X53300000Y-113700000D01*
X53300000Y-113700000D02*
X52350000Y-112750000D01*
X52350000Y-112750000D02*
X52350000Y-112650000D01*
X52350000Y-112650000D02*
X52275000Y-112650000D01*
X65532000Y-110236000D02*
X65532000Y-111650000D01*
X82931000Y-113919000D02*
X83185000Y-114173000D01*
X83185000Y-114173000D02*
X87400000Y-114173000D01*
X87400000Y-114173000D02*
X97155000Y-114173000D01*
X97155000Y-114173000D02*
X98077000Y-114173000D01*
X98077000Y-114173000D02*
X98933000Y-114173000D01*
X98933000Y-114173000D02*
X105000000Y-114173000D01*
X105000000Y-114173000D02*
X116332000Y-114173000D01*
X116332000Y-114173000D02*
X122600000Y-114173000D01*
X122600000Y-114173000D02*
X133577000Y-114173000D01*
X133577000Y-114173000D02*
X133858000Y-114173000D01*
X133858000Y-114173000D02*
X140150000Y-114173000D01*
X140150000Y-114173000D02*
X151714200Y-114173000D01*
X65532000Y-111650000D02*
X65532000Y-111633000D01*
X53340000Y-113665000D02*
X53340000Y-113700000D01*
X63436500Y-113728500D02*
X53340000Y-113728500D01*
X53340000Y-113728500D02*
X53340000Y-113665000D01*
X65465000Y-111700000D02*
X63436500Y-113728500D01*
X87439000Y-112650000D02*
X87631000Y-112650000D01*
X87439000Y-112650000D02*
X87758000Y-112650000D01*
X157766000Y-112650000D02*
X157989000Y-112650000D01*
X239522000Y-114300000D02*
X244144800Y-114300000D01*
X244144800Y-114300000D02*
X245719600Y-112725200D01*
X245719600Y-112725200D02*
X245675000Y-112650000D01*
X228093000Y-112650000D02*
X228093000Y-114229998D01*
X228093000Y-114229998D02*
X228092000Y-114230998D01*
X210511000Y-112650000D02*
X210511000Y-114219600D01*
X210515200Y-114223800D02*
X210515200Y-114230998D01*
X210511000Y-114219600D02*
X210515200Y-114223800D01*
X192930000Y-112650000D02*
X192930000Y-114213998D01*
X192930000Y-114213998D02*
X192913000Y-114230998D01*
X175348000Y-112650000D02*
X175348000Y-114219198D01*
X175348000Y-114219198D02*
X175336200Y-114230998D01*
X168910000Y-111760000D02*
X168910000Y-111944998D01*
X171196000Y-114230998D02*
X175336200Y-114230998D01*
X168910000Y-111944998D02*
X171196000Y-114230998D01*
X175336200Y-114230998D02*
X186251002Y-114230998D01*
X186759002Y-114230998D02*
X192913000Y-114230998D01*
X186251002Y-114230998D02*
X186759002Y-114230998D01*
X192913000Y-114230998D02*
X204216000Y-114230998D01*
X204285002Y-114230998D02*
X210515200Y-114230998D01*
X204216000Y-114230998D02*
X204285002Y-114230998D01*
X210515200Y-114230998D02*
X221557002Y-114230998D01*
X222012002Y-114230998D02*
X228092000Y-114230998D01*
X228092000Y-114230998D02*
X228669002Y-114230998D01*
X228669002Y-114230998D02*
X229108000Y-113792000D01*
X221557002Y-114230998D02*
X222012002Y-114230998D01*
X229108000Y-113792000D02*
X229870000Y-113792000D01*
X229870000Y-113792000D02*
X230378000Y-114300000D01*
X230378000Y-114300000D02*
X239522000Y-114300000D01*
X226314000Y-103886000D02*
X226117998Y-103886000D01*
X233934000Y-103886000D02*
X226314000Y-103886000D01*
X234188000Y-103632000D02*
X233934000Y-103886000D01*
X236728000Y-103632000D02*
X234188000Y-103632000D01*
X238252000Y-102108000D02*
X236728000Y-103632000D01*
X241300000Y-102108000D02*
X238252000Y-102108000D01*
X241808000Y-101600000D02*
X241300000Y-102108000D01*
X243840000Y-101600000D02*
X241808000Y-101600000D01*
X244602000Y-100838000D02*
X243840000Y-101600000D01*
X62738000Y-100838000D02*
X60452000Y-103124000D01*
X223069998Y-100838000D02*
X62738000Y-100838000D01*
X226117998Y-103886000D02*
X223069998Y-100838000D01*
X226822000Y-103124000D02*
X224028000Y-100330000D01*
X227076000Y-103378000D02*
X226822000Y-103124000D01*
X233426000Y-103378000D02*
X227076000Y-103378000D01*
X233934000Y-102870000D02*
X233426000Y-103378000D01*
X236474000Y-102870000D02*
X233934000Y-102870000D01*
X237998000Y-101346000D02*
X236474000Y-102870000D01*
X240792000Y-101346000D02*
X237998000Y-101346000D01*
X241554000Y-100584000D02*
X240792000Y-101346000D01*
X60960000Y-100330000D02*
X58166000Y-103124000D01*
X224028000Y-100330000D02*
X60960000Y-100330000D01*
X237744000Y-100584000D02*
X236220000Y-102108000D01*
X236220000Y-102108000D02*
X233934000Y-102108000D01*
X233934000Y-102108000D02*
X233172000Y-102870000D01*
X233172000Y-102870000D02*
X228092000Y-102870000D01*
X228092000Y-102870000D02*
X227838000Y-102616000D01*
X236474000Y-100584000D02*
X235712000Y-101346000D01*
X235712000Y-101346000D02*
X233680000Y-101346000D01*
X233680000Y-101346000D02*
X232664000Y-102362000D01*
X232664000Y-102362000D02*
X228854000Y-102362000D01*
X228854000Y-102362000D02*
X228600000Y-102108000D01*
X44196000Y-105664000D02*
X44450000Y-105410000D01*
X44450000Y-105410000D02*
X68707000Y-105410000D01*
X121158000Y-103886000D02*
X182626000Y-103886000D01*
X182626000Y-103886000D02*
X221488000Y-103886000D01*
X95758000Y-109220000D02*
X104140000Y-109220000D01*
X83566000Y-109220000D02*
X95758000Y-109220000D01*
X80264000Y-112522000D02*
X83566000Y-109220000D01*
X104140000Y-109220000D02*
X109474000Y-103886000D01*
X121158000Y-103886000D02*
X109474000Y-103886000D01*
X248920000Y-107696000D02*
X250952000Y-109728000D01*
X225298000Y-107696000D02*
X248920000Y-107696000D01*
X221488000Y-103886000D02*
X225298000Y-107696000D01*
X65786000Y-114046000D02*
X71882000Y-114046000D01*
X120904000Y-104648000D02*
X200406000Y-104648000D01*
X200406000Y-104648000D02*
X221488000Y-104648000D01*
X109728000Y-104648000D02*
X120904000Y-104648000D01*
X95758000Y-108458000D02*
X103886000Y-108458000D01*
X80264000Y-111760000D02*
X83566000Y-108458000D01*
X79883000Y-111760000D02*
X80264000Y-111760000D01*
X83566000Y-108458000D02*
X95758000Y-108458000D01*
X103886000Y-108458000D02*
X107696000Y-104648000D01*
X246888000Y-108204000D02*
X248412000Y-109728000D01*
X225044000Y-108204000D02*
X246888000Y-108204000D01*
X221488000Y-104648000D02*
X225044000Y-108204000D01*
X59350000Y-111760000D02*
X59436000Y-111760000D01*
X59436000Y-111760000D02*
X60706000Y-113030000D01*
X60706000Y-113030000D02*
X63119000Y-113030000D01*
X71882000Y-114046000D02*
X77597000Y-114046000D01*
X77597000Y-114046000D02*
X79883000Y-111760000D01*
X71882000Y-114046000D02*
X72136000Y-114046000D01*
X77130000Y-111760000D02*
X77130000Y-109474000D01*
X77130000Y-109474000D02*
X76962000Y-109474000D01*
X120650000Y-105410000D02*
X108966000Y-105410000D01*
X95758000Y-107696000D02*
X103632000Y-107696000D01*
X62738000Y-111760000D02*
X65024000Y-109474000D01*
X65024000Y-109474000D02*
X76962000Y-109474000D01*
X76962000Y-109474000D02*
X81913602Y-109474000D01*
X81913602Y-109474000D02*
X83691602Y-107696000D01*
X83691602Y-107696000D02*
X95758000Y-107696000D01*
X103632000Y-107696000D02*
X105918000Y-105410000D01*
X120650000Y-105410000D02*
X218186000Y-105410000D01*
X218186000Y-105410000D02*
X221362398Y-105410000D01*
X247142000Y-109728000D02*
X247142000Y-110236000D01*
X246126000Y-108712000D02*
X247142000Y-109728000D01*
X224664398Y-108712000D02*
X246126000Y-108712000D01*
X221362398Y-105410000D02*
X224664398Y-108712000D01*
X120650000Y-105410000D02*
X120904000Y-105410000D01*
X235880000Y-111760000D02*
X235880000Y-109220000D01*
X235880000Y-109220000D02*
X235712000Y-109220000D01*
X120904000Y-106172000D02*
X221488000Y-106172000D01*
X103378000Y-106934000D02*
X104140000Y-106172000D01*
X94869000Y-106934000D02*
X103378000Y-106934000D01*
X108204000Y-106172000D02*
X120904000Y-106172000D01*
X244348000Y-109474000D02*
X244348000Y-109982000D01*
X244094000Y-109220000D02*
X244348000Y-109474000D01*
X224536000Y-109220000D02*
X235712000Y-109220000D01*
X235712000Y-109220000D02*
X244094000Y-109220000D01*
X221488000Y-106172000D02*
X224536000Y-109220000D01*
X83566000Y-106934000D02*
X94869000Y-106934000D01*
X81534000Y-108966000D02*
X83566000Y-106934000D01*
X64770000Y-108966000D02*
X81534000Y-108966000D01*
X64008000Y-109728000D02*
X64770000Y-108966000D01*
X61214000Y-109728000D02*
X64008000Y-109728000D01*
X60706000Y-110236000D02*
X61214000Y-109728000D01*
X253660000Y-110150000D02*
X253660000Y-111760000D01*
X253492000Y-109982000D02*
X253660000Y-110150000D01*
X120904000Y-106934000D02*
X221234000Y-106934000D01*
X98044000Y-106172000D02*
X102870000Y-106172000D01*
X107442000Y-106934000D02*
X112776000Y-106934000D01*
X112776000Y-106934000D02*
X120904000Y-106934000D01*
X221234000Y-106934000D02*
X222504000Y-108204000D01*
X83566000Y-106172000D02*
X95758000Y-106172000D01*
X81280000Y-108458000D02*
X83566000Y-106172000D01*
X64516000Y-108458000D02*
X81280000Y-108458000D01*
X63754000Y-109220000D02*
X64516000Y-108458000D01*
X58928000Y-109220000D02*
X63754000Y-109220000D01*
X57912000Y-110236000D02*
X58928000Y-109220000D01*
X95758000Y-106172000D02*
X98044000Y-106172000D01*
X98044000Y-106172000D02*
X98298000Y-106172000D01*
X120904000Y-107696000D02*
X130302000Y-107696000D01*
X130302000Y-107696000D02*
X220726000Y-107696000D01*
X95758000Y-105410000D02*
X101092000Y-105410000D01*
X55626000Y-109982000D02*
X56134000Y-109474000D01*
X56134000Y-109474000D02*
X57912000Y-109474000D01*
X57912000Y-109474000D02*
X58674000Y-108712000D01*
X58674000Y-108712000D02*
X63500000Y-108712000D01*
X63500000Y-108712000D02*
X64262000Y-107950000D01*
X64262000Y-107950000D02*
X81026000Y-107950000D01*
X81026000Y-107950000D02*
X83566000Y-105410000D01*
X83566000Y-105410000D02*
X95758000Y-105410000D01*
X106680000Y-107696000D02*
X120904000Y-107696000D01*
X220726000Y-107696000D02*
X221742000Y-108712000D01*
X120904000Y-108458000D02*
X148336000Y-108458000D01*
X148336000Y-108458000D02*
X218440000Y-108458000D01*
X95758000Y-104648000D02*
X99314000Y-104648000D01*
X83566000Y-104648000D02*
X95758000Y-104648000D01*
X80772000Y-107442000D02*
X83566000Y-104648000D01*
X64133602Y-107442000D02*
X80772000Y-107442000D01*
X63371602Y-108204000D02*
X64133602Y-107442000D01*
X58420000Y-108204000D02*
X63371602Y-108204000D01*
X57658000Y-108966000D02*
X58420000Y-108204000D01*
X55626000Y-108966000D02*
X57658000Y-108966000D01*
X55118000Y-109474000D02*
X55626000Y-108966000D01*
X53848000Y-109474000D02*
X55118000Y-109474000D01*
X53594000Y-109728000D02*
X53848000Y-109474000D01*
X105918000Y-108458000D02*
X120904000Y-108458000D01*
X218440000Y-108458000D02*
X220218000Y-108458000D01*
X220980000Y-109220000D02*
X220218000Y-108458000D01*
X164846000Y-109220000D02*
X218440000Y-109220000D01*
X219202000Y-109982000D02*
X220472000Y-109982000D01*
X218440000Y-109220000D02*
X219202000Y-109982000D01*
X124968000Y-109220000D02*
X164846000Y-109220000D01*
X124968000Y-109220000D02*
X111760000Y-109220000D01*
X105156000Y-109220000D02*
X111760000Y-109220000D01*
X95758000Y-103886000D02*
X97536000Y-103886000D01*
X50546000Y-110236000D02*
X51562000Y-109220000D01*
X51562000Y-109220000D02*
X51816000Y-108966000D01*
X51816000Y-108966000D02*
X54610000Y-108966000D01*
X54610000Y-108966000D02*
X55118000Y-108458000D01*
X55118000Y-108458000D02*
X57404000Y-108458000D01*
X57404000Y-108458000D02*
X58166000Y-107696000D01*
X58166000Y-107696000D02*
X63243204Y-107696000D01*
X63243204Y-107696000D02*
X64005204Y-106934000D01*
X64005204Y-106934000D02*
X80518000Y-106934000D01*
X80518000Y-106934000D02*
X83566000Y-103886000D01*
X83566000Y-103886000D02*
X95758000Y-103886000D01*
X227330000Y-104394000D02*
X225806000Y-104394000D01*
X236728000Y-104394000D02*
X227330000Y-104394000D01*
X238252000Y-102870000D02*
X236728000Y-104394000D01*
X241554000Y-102870000D02*
X238252000Y-102870000D01*
X242316000Y-102108000D02*
X241554000Y-102870000D01*
X244602000Y-102108000D02*
X242316000Y-102108000D01*
X245872000Y-100838000D02*
X244602000Y-102108000D01*
X68072000Y-102362000D02*
X68072000Y-103632000D01*
X69088000Y-101346000D02*
X68072000Y-102362000D01*
X222758000Y-101346000D02*
X69088000Y-101346000D01*
X225806000Y-104394000D02*
X222758000Y-101346000D01*
X52275000Y-110750000D02*
X53940000Y-110750000D01*
X53940000Y-110750000D02*
X54950000Y-111760000D01*
X54890000Y-111700000D02*
X54950000Y-111760000D01*
X69857000Y-110750000D02*
X71720000Y-110750000D01*
X71720000Y-110750000D02*
X72730000Y-111760000D01*
X72670000Y-111700000D02*
X72730000Y-111760000D01*
X87439000Y-110750000D02*
X89500000Y-110750000D01*
X89500000Y-110750000D02*
X90510000Y-111760000D01*
X90450000Y-111700000D02*
X90510000Y-111760000D01*
X105020000Y-110750000D02*
X107280000Y-110750000D01*
X107280000Y-110750000D02*
X108290000Y-111760000D01*
X108230000Y-111700000D02*
X108290000Y-111760000D01*
X122602000Y-110750000D02*
X125060000Y-110750000D01*
X125060000Y-110750000D02*
X126070000Y-111760000D01*
X126010000Y-111700000D02*
X126070000Y-111760000D01*
X140184000Y-110750000D02*
X142840000Y-110750000D01*
X142840000Y-110750000D02*
X143850000Y-111760000D01*
X143790000Y-111700000D02*
X143850000Y-111760000D01*
X157766000Y-110750000D02*
X159350000Y-110750000D01*
X159350000Y-110750000D02*
X160360000Y-111760000D01*
X160300000Y-111700000D02*
X160360000Y-111760000D01*
X175348000Y-110750000D02*
X177130000Y-110750000D01*
X177130000Y-110750000D02*
X178140000Y-111760000D01*
X178080000Y-111700000D02*
X178140000Y-111760000D01*
X192930000Y-110750000D02*
X194910000Y-110750000D01*
X194910000Y-110750000D02*
X195920000Y-111760000D01*
X195860000Y-111700000D02*
X195920000Y-111760000D01*
X210511000Y-110750000D02*
X212690000Y-110750000D01*
X212690000Y-110750000D02*
X213700000Y-111760000D01*
X213640000Y-111700000D02*
X213700000Y-111760000D01*
X228093000Y-110750000D02*
X230470000Y-110750000D01*
X230470000Y-110750000D02*
X231480000Y-111760000D01*
X231420000Y-111700000D02*
X231480000Y-111760000D01*
X231420000Y-111700000D02*
X231480000Y-111760000D01*
X245675000Y-110750000D02*
X245878000Y-110750000D01*
X245878000Y-110750000D02*
X246888000Y-111760000D01*
X246888000Y-111760000D02*
X249260000Y-111760000D01*
X249200000Y-111700000D02*
X249260000Y-111760000D01*
X228981000Y-114681000D02*
X229362000Y-114554000D01*
X45974000Y-114681000D02*
X228981000Y-114681000D01*
X45339000Y-114046000D02*
X45974000Y-114681000D01*
X233680000Y-100584000D02*
X232410000Y-101854000D01*
X232410000Y-101854000D02*
X229870000Y-101854000D01*
X229870000Y-101854000D02*
X229616000Y-101600000D01*
X231902000Y-101092000D02*
X230632000Y-101092000D01*
X232410000Y-100584000D02*
X231902000Y-101092000D01*
D16*
G36*
X58026320Y-102188878D02*
X57980833Y-102188838D01*
X57637057Y-102330883D01*
X57373808Y-102593673D01*
X57231162Y-102937201D01*
X57230838Y-103309167D01*
X57372883Y-103652943D01*
X57635673Y-103916192D01*
X57979201Y-104058838D01*
X58351167Y-104059162D01*
X58694943Y-103917117D01*
X58958192Y-103654327D01*
X59100838Y-103310799D01*
X59100879Y-103263923D01*
X59580759Y-102784043D01*
X59517162Y-102937201D01*
X59516838Y-103309167D01*
X59658883Y-103652943D01*
X59921673Y-103916192D01*
X60265201Y-104058838D01*
X60637167Y-104059162D01*
X60980943Y-103917117D01*
X61244192Y-103654327D01*
X61386838Y-103310799D01*
X61386879Y-103263923D01*
X63052802Y-101598000D01*
X67761198Y-101598000D01*
X67534599Y-101824599D01*
X67369852Y-102071161D01*
X67312000Y-102362000D01*
X67312000Y-103069537D01*
X67279808Y-103101673D01*
X67137162Y-103445201D01*
X67136838Y-103817167D01*
X67278883Y-104160943D01*
X67541673Y-104424192D01*
X67885201Y-104566838D01*
X68257167Y-104567162D01*
X68600943Y-104425117D01*
X68864192Y-104162327D01*
X69006838Y-103818799D01*
X69007162Y-103446833D01*
X68865117Y-103103057D01*
X68832000Y-103069882D01*
X68832000Y-102676802D01*
X69402802Y-102106000D01*
X222443198Y-102106000D01*
X225268599Y-104931401D01*
X225515161Y-105096148D01*
X225806000Y-105154000D01*
X236728000Y-105154000D01*
X237018839Y-105096148D01*
X237265401Y-104931401D01*
X238566802Y-103630000D01*
X241554000Y-103630000D01*
X241844839Y-103572148D01*
X242091401Y-103407401D01*
X242630802Y-102868000D01*
X244602000Y-102868000D01*
X244892839Y-102810148D01*
X245139401Y-102645401D01*
X246011680Y-101773122D01*
X246057167Y-101773162D01*
X246400943Y-101631117D01*
X246664192Y-101368327D01*
X246806838Y-101024799D01*
X246807112Y-100710000D01*
X254290000Y-100710000D01*
X254290000Y-109464875D01*
X254285117Y-109453057D01*
X254022327Y-109189808D01*
X253678799Y-109047162D01*
X253306833Y-109046838D01*
X252963057Y-109188883D01*
X252699808Y-109451673D01*
X252557162Y-109795201D01*
X252556838Y-110167167D01*
X252581683Y-110227296D01*
X252424683Y-110256838D01*
X252208559Y-110395910D01*
X252063569Y-110608110D01*
X252012560Y-110860000D01*
X252012560Y-112660000D01*
X252056838Y-112895317D01*
X252195910Y-113111441D01*
X252408110Y-113256431D01*
X252660000Y-113307440D01*
X254290000Y-113307440D01*
X254290000Y-114290000D01*
X245229602Y-114290000D01*
X245872162Y-113647440D01*
X246000000Y-113647440D01*
X246235317Y-113603162D01*
X246451441Y-113464090D01*
X246596431Y-113251890D01*
X246647440Y-113000000D01*
X246647440Y-112472149D01*
X246888000Y-112520000D01*
X247712560Y-112520000D01*
X247712560Y-112760000D01*
X247756838Y-112995317D01*
X247895910Y-113211441D01*
X248108110Y-113356431D01*
X248360000Y-113407440D01*
X250160000Y-113407440D01*
X250395317Y-113363162D01*
X250611441Y-113224090D01*
X250756431Y-113011890D01*
X250807440Y-112760000D01*
X250807440Y-110760000D01*
X250789162Y-110662859D01*
X251137167Y-110663162D01*
X251480943Y-110521117D01*
X251744192Y-110258327D01*
X251886838Y-109914799D01*
X251887162Y-109542833D01*
X251745117Y-109199057D01*
X251482327Y-108935808D01*
X251138799Y-108793162D01*
X251091923Y-108793121D01*
X249457401Y-107158599D01*
X249210839Y-106993852D01*
X248920000Y-106936000D01*
X225612802Y-106936000D01*
X222025401Y-103348599D01*
X221778839Y-103183852D01*
X221488000Y-103126000D01*
X183188463Y-103126000D01*
X183156327Y-103093808D01*
X182812799Y-102951162D01*
X182440833Y-102950838D01*
X182097057Y-103092883D01*
X182063882Y-103126000D01*
X109474000Y-103126000D01*
X109183161Y-103183852D01*
X108936599Y-103348599D01*
X108327770Y-103957428D01*
X108226327Y-103855808D01*
X107882799Y-103713162D01*
X107510833Y-103712838D01*
X107167057Y-103854883D01*
X106903808Y-104117673D01*
X106761162Y-104461201D01*
X106761121Y-104508077D01*
X106549770Y-104719428D01*
X106448327Y-104617808D01*
X106104799Y-104475162D01*
X105732833Y-104474838D01*
X105389057Y-104616883D01*
X105125808Y-104879673D01*
X104983162Y-105223201D01*
X104983121Y-105270077D01*
X104771770Y-105481428D01*
X104670327Y-105379808D01*
X104326799Y-105237162D01*
X103954833Y-105236838D01*
X103611057Y-105378883D01*
X103505046Y-105484710D01*
X103400327Y-105379808D01*
X103056799Y-105237162D01*
X102684833Y-105236838D01*
X102341057Y-105378883D01*
X102307882Y-105412000D01*
X102026999Y-105412000D01*
X102027162Y-105224833D01*
X101885117Y-104881057D01*
X101622327Y-104617808D01*
X101278799Y-104475162D01*
X100906833Y-104474838D01*
X100563057Y-104616883D01*
X100529882Y-104650000D01*
X100248999Y-104650000D01*
X100249162Y-104462833D01*
X100107117Y-104119057D01*
X99844327Y-103855808D01*
X99500799Y-103713162D01*
X99128833Y-103712838D01*
X98785057Y-103854883D01*
X98751882Y-103888000D01*
X98470999Y-103888000D01*
X98471162Y-103700833D01*
X98329117Y-103357057D01*
X98066327Y-103093808D01*
X97722799Y-102951162D01*
X97350833Y-102950838D01*
X97007057Y-103092883D01*
X96973882Y-103126000D01*
X83566000Y-103126000D01*
X83275161Y-103183852D01*
X83028599Y-103348599D01*
X80203198Y-106174000D01*
X64005204Y-106174000D01*
X63714365Y-106231852D01*
X63467803Y-106396599D01*
X62928402Y-106936000D01*
X58166000Y-106936000D01*
X57875161Y-106993852D01*
X57628599Y-107158599D01*
X57089198Y-107698000D01*
X55118000Y-107698000D01*
X54827161Y-107755852D01*
X54658065Y-107868838D01*
X54580599Y-107920599D01*
X54295198Y-108206000D01*
X51816000Y-108206000D01*
X51525160Y-108263852D01*
X51278599Y-108428599D01*
X50406320Y-109300878D01*
X50360833Y-109300838D01*
X50017057Y-109442883D01*
X49753808Y-109705673D01*
X49727797Y-109768314D01*
X49650000Y-109752560D01*
X49000000Y-109752560D01*
X48764683Y-109796838D01*
X48548559Y-109935910D01*
X48403569Y-110148110D01*
X48352560Y-110400000D01*
X48352560Y-111100000D01*
X48396838Y-111335317D01*
X48535910Y-111551441D01*
X48748110Y-111696431D01*
X48761197Y-111699081D01*
X48548559Y-111835910D01*
X48403569Y-112048110D01*
X48352560Y-112300000D01*
X48352560Y-113000000D01*
X48396838Y-113235317D01*
X48535910Y-113451441D01*
X48748110Y-113596431D01*
X49000000Y-113647440D01*
X49650000Y-113647440D01*
X49885317Y-113603162D01*
X50101441Y-113464090D01*
X50246431Y-113251890D01*
X50297440Y-113000000D01*
X50297440Y-112300000D01*
X50253162Y-112064683D01*
X50114090Y-111848559D01*
X49901890Y-111703569D01*
X49888803Y-111700919D01*
X50101441Y-111564090D01*
X50246431Y-111351890D01*
X50288998Y-111141687D01*
X50359201Y-111170838D01*
X50731167Y-111171162D01*
X51074943Y-111029117D01*
X51302560Y-110801897D01*
X51302560Y-111100000D01*
X51346838Y-111335317D01*
X51485910Y-111551441D01*
X51698110Y-111696431D01*
X51711197Y-111699081D01*
X51498559Y-111835910D01*
X51353569Y-112048110D01*
X51302560Y-112300000D01*
X51302560Y-113000000D01*
X51346838Y-113235317D01*
X51485910Y-113451441D01*
X51698110Y-113596431D01*
X51950000Y-113647440D01*
X52172638Y-113647440D01*
X52446198Y-113921000D01*
X46288802Y-113921000D01*
X46274122Y-113906320D01*
X46274162Y-113860833D01*
X46132117Y-113517057D01*
X45869327Y-113253808D01*
X45525799Y-113111162D01*
X45153833Y-113110838D01*
X44810057Y-113252883D01*
X44546808Y-113515673D01*
X44404162Y-113859201D01*
X44403838Y-114231167D01*
X44428147Y-114290000D01*
X40710000Y-114290000D01*
X40710000Y-100710000D01*
X59505198Y-100710000D01*
X58026320Y-102188878D01*
X58026320Y-102188878D01*
G37*
X58026320Y-102188878D02*
X57980833Y-102188838D01*
X57637057Y-102330883D01*
X57373808Y-102593673D01*
X57231162Y-102937201D01*
X57230838Y-103309167D01*
X57372883Y-103652943D01*
X57635673Y-103916192D01*
X57979201Y-104058838D01*
X58351167Y-104059162D01*
X58694943Y-103917117D01*
X58958192Y-103654327D01*
X59100838Y-103310799D01*
X59100879Y-103263923D01*
X59580759Y-102784043D01*
X59517162Y-102937201D01*
X59516838Y-103309167D01*
X59658883Y-103652943D01*
X59921673Y-103916192D01*
X60265201Y-104058838D01*
X60637167Y-104059162D01*
X60980943Y-103917117D01*
X61244192Y-103654327D01*
X61386838Y-103310799D01*
X61386879Y-103263923D01*
X63052802Y-101598000D01*
X67761198Y-101598000D01*
X67534599Y-101824599D01*
X67369852Y-102071161D01*
X67312000Y-102362000D01*
X67312000Y-103069537D01*
X67279808Y-103101673D01*
X67137162Y-103445201D01*
X67136838Y-103817167D01*
X67278883Y-104160943D01*
X67541673Y-104424192D01*
X67885201Y-104566838D01*
X68257167Y-104567162D01*
X68600943Y-104425117D01*
X68864192Y-104162327D01*
X69006838Y-103818799D01*
X69007162Y-103446833D01*
X68865117Y-103103057D01*
X68832000Y-103069882D01*
X68832000Y-102676802D01*
X69402802Y-102106000D01*
X222443198Y-102106000D01*
X225268599Y-104931401D01*
X225515161Y-105096148D01*
X225806000Y-105154000D01*
X236728000Y-105154000D01*
X237018839Y-105096148D01*
X237265401Y-104931401D01*
X238566802Y-103630000D01*
X241554000Y-103630000D01*
X241844839Y-103572148D01*
X242091401Y-103407401D01*
X242630802Y-102868000D01*
X244602000Y-102868000D01*
X244892839Y-102810148D01*
X245139401Y-102645401D01*
X246011680Y-101773122D01*
X246057167Y-101773162D01*
X246400943Y-101631117D01*
X246664192Y-101368327D01*
X246806838Y-101024799D01*
X246807112Y-100710000D01*
X254290000Y-100710000D01*
X254290000Y-109464875D01*
X254285117Y-109453057D01*
X254022327Y-109189808D01*
X253678799Y-109047162D01*
X253306833Y-109046838D01*
X252963057Y-109188883D01*
X252699808Y-109451673D01*
X252557162Y-109795201D01*
X252556838Y-110167167D01*
X252581683Y-110227296D01*
X252424683Y-110256838D01*
X252208559Y-110395910D01*
X252063569Y-110608110D01*
X252012560Y-110860000D01*
X252012560Y-112660000D01*
X252056838Y-112895317D01*
X252195910Y-113111441D01*
X252408110Y-113256431D01*
X252660000Y-113307440D01*
X254290000Y-113307440D01*
X254290000Y-114290000D01*
X245229602Y-114290000D01*
X245872162Y-113647440D01*
X246000000Y-113647440D01*
X246235317Y-113603162D01*
X246451441Y-113464090D01*
X246596431Y-113251890D01*
X246647440Y-113000000D01*
X246647440Y-112472149D01*
X246888000Y-112520000D01*
X247712560Y-112520000D01*
X247712560Y-112760000D01*
X247756838Y-112995317D01*
X247895910Y-113211441D01*
X248108110Y-113356431D01*
X248360000Y-113407440D01*
X250160000Y-113407440D01*
X250395317Y-113363162D01*
X250611441Y-113224090D01*
X250756431Y-113011890D01*
X250807440Y-112760000D01*
X250807440Y-110760000D01*
X250789162Y-110662859D01*
X251137167Y-110663162D01*
X251480943Y-110521117D01*
X251744192Y-110258327D01*
X251886838Y-109914799D01*
X251887162Y-109542833D01*
X251745117Y-109199057D01*
X251482327Y-108935808D01*
X251138799Y-108793162D01*
X251091923Y-108793121D01*
X249457401Y-107158599D01*
X249210839Y-106993852D01*
X248920000Y-106936000D01*
X225612802Y-106936000D01*
X222025401Y-103348599D01*
X221778839Y-103183852D01*
X221488000Y-103126000D01*
X183188463Y-103126000D01*
X183156327Y-103093808D01*
X182812799Y-102951162D01*
X182440833Y-102950838D01*
X182097057Y-103092883D01*
X182063882Y-103126000D01*
X109474000Y-103126000D01*
X109183161Y-103183852D01*
X108936599Y-103348599D01*
X108327770Y-103957428D01*
X108226327Y-103855808D01*
X107882799Y-103713162D01*
X107510833Y-103712838D01*
X107167057Y-103854883D01*
X106903808Y-104117673D01*
X106761162Y-104461201D01*
X106761121Y-104508077D01*
X106549770Y-104719428D01*
X106448327Y-104617808D01*
X106104799Y-104475162D01*
X105732833Y-104474838D01*
X105389057Y-104616883D01*
X105125808Y-104879673D01*
X104983162Y-105223201D01*
X104983121Y-105270077D01*
X104771770Y-105481428D01*
X104670327Y-105379808D01*
X104326799Y-105237162D01*
X103954833Y-105236838D01*
X103611057Y-105378883D01*
X103505046Y-105484710D01*
X103400327Y-105379808D01*
X103056799Y-105237162D01*
X102684833Y-105236838D01*
X102341057Y-105378883D01*
X102307882Y-105412000D01*
X102026999Y-105412000D01*
X102027162Y-105224833D01*
X101885117Y-104881057D01*
X101622327Y-104617808D01*
X101278799Y-104475162D01*
X100906833Y-104474838D01*
X100563057Y-104616883D01*
X100529882Y-104650000D01*
X100248999Y-104650000D01*
X100249162Y-104462833D01*
X100107117Y-104119057D01*
X99844327Y-103855808D01*
X99500799Y-103713162D01*
X99128833Y-103712838D01*
X98785057Y-103854883D01*
X98751882Y-103888000D01*
X98470999Y-103888000D01*
X98471162Y-103700833D01*
X98329117Y-103357057D01*
X98066327Y-103093808D01*
X97722799Y-102951162D01*
X97350833Y-102950838D01*
X97007057Y-103092883D01*
X96973882Y-103126000D01*
X83566000Y-103126000D01*
X83275161Y-103183852D01*
X83028599Y-103348599D01*
X80203198Y-106174000D01*
X64005204Y-106174000D01*
X63714365Y-106231852D01*
X63467803Y-106396599D01*
X62928402Y-106936000D01*
X58166000Y-106936000D01*
X57875161Y-106993852D01*
X57628599Y-107158599D01*
X57089198Y-107698000D01*
X55118000Y-107698000D01*
X54827161Y-107755852D01*
X54658065Y-107868838D01*
X54580599Y-107920599D01*
X54295198Y-108206000D01*
X51816000Y-108206000D01*
X51525160Y-108263852D01*
X51278599Y-108428599D01*
X50406320Y-109300878D01*
X50360833Y-109300838D01*
X50017057Y-109442883D01*
X49753808Y-109705673D01*
X49727797Y-109768314D01*
X49650000Y-109752560D01*
X49000000Y-109752560D01*
X48764683Y-109796838D01*
X48548559Y-109935910D01*
X48403569Y-110148110D01*
X48352560Y-110400000D01*
X48352560Y-111100000D01*
X48396838Y-111335317D01*
X48535910Y-111551441D01*
X48748110Y-111696431D01*
X48761197Y-111699081D01*
X48548559Y-111835910D01*
X48403569Y-112048110D01*
X48352560Y-112300000D01*
X48352560Y-113000000D01*
X48396838Y-113235317D01*
X48535910Y-113451441D01*
X48748110Y-113596431D01*
X49000000Y-113647440D01*
X49650000Y-113647440D01*
X49885317Y-113603162D01*
X50101441Y-113464090D01*
X50246431Y-113251890D01*
X50297440Y-113000000D01*
X50297440Y-112300000D01*
X50253162Y-112064683D01*
X50114090Y-111848559D01*
X49901890Y-111703569D01*
X49888803Y-111700919D01*
X50101441Y-111564090D01*
X50246431Y-111351890D01*
X50288998Y-111141687D01*
X50359201Y-111170838D01*
X50731167Y-111171162D01*
X51074943Y-111029117D01*
X51302560Y-110801897D01*
X51302560Y-111100000D01*
X51346838Y-111335317D01*
X51485910Y-111551441D01*
X51698110Y-111696431D01*
X51711197Y-111699081D01*
X51498559Y-111835910D01*
X51353569Y-112048110D01*
X51302560Y-112300000D01*
X51302560Y-113000000D01*
X51346838Y-113235317D01*
X51485910Y-113451441D01*
X51698110Y-113596431D01*
X51950000Y-113647440D01*
X52172638Y-113647440D01*
X52446198Y-113921000D01*
X46288802Y-113921000D01*
X46274122Y-113906320D01*
X46274162Y-113860833D01*
X46132117Y-113517057D01*
X45869327Y-113253808D01*
X45525799Y-113111162D01*
X45153833Y-113110838D01*
X44810057Y-113252883D01*
X44546808Y-113515673D01*
X44404162Y-113859201D01*
X44403838Y-114231167D01*
X44428147Y-114290000D01*
X40710000Y-114290000D01*
X40710000Y-100710000D01*
X59505198Y-100710000D01*
X58026320Y-102188878D01*
M02*
