G04 #@! TF.FileFunction,Legend,Top*
%FSLAX46Y46*%
G04 Gerber Fmt 4.6, Leading zero omitted, Abs format (unit mm)*
G04 Created by KiCad (PCBNEW 4.0.4+e1-6308~48~ubuntu14.04.1-stable) date Mon Nov 27 12:18:25 2017*
%MOMM*%
%LPD*%
G01*
G04 APERTURE LIST*
%ADD10C,0.100000*%
%ADD11C,0.150000*%
G04 APERTURE END LIST*
D10*
D11*
X56515000Y-111252000D02*
X56515000Y-112268000D01*
X56769000Y-111760000D02*
X57404000Y-111252000D01*
X57404000Y-111252000D02*
X57404000Y-112268000D01*
X57404000Y-112268000D02*
X56769000Y-111760000D01*
D10*
X54650000Y-113010000D02*
X59650000Y-113010000D01*
X54650000Y-110510000D02*
X59650000Y-110510000D01*
D11*
X74295000Y-111252000D02*
X74295000Y-112268000D01*
X74549000Y-111760000D02*
X75184000Y-111252000D01*
X75184000Y-111252000D02*
X75184000Y-112268000D01*
X75184000Y-112268000D02*
X74549000Y-111760000D01*
D10*
X72430000Y-113010000D02*
X77430000Y-113010000D01*
X72430000Y-110510000D02*
X77430000Y-110510000D01*
D11*
X92075000Y-111252000D02*
X92075000Y-112268000D01*
X92329000Y-111760000D02*
X92964000Y-111252000D01*
X92964000Y-111252000D02*
X92964000Y-112268000D01*
X92964000Y-112268000D02*
X92329000Y-111760000D01*
D10*
X90210000Y-113010000D02*
X95210000Y-113010000D01*
X90210000Y-110510000D02*
X95210000Y-110510000D01*
D11*
X127635000Y-111252000D02*
X127635000Y-112268000D01*
X127889000Y-111760000D02*
X128524000Y-111252000D01*
X128524000Y-111252000D02*
X128524000Y-112268000D01*
X128524000Y-112268000D02*
X127889000Y-111760000D01*
D10*
X125770000Y-113010000D02*
X130770000Y-113010000D01*
X125770000Y-110510000D02*
X130770000Y-110510000D01*
D11*
X145415000Y-111252000D02*
X145415000Y-112268000D01*
X145669000Y-111760000D02*
X146304000Y-111252000D01*
X146304000Y-111252000D02*
X146304000Y-112268000D01*
X146304000Y-112268000D02*
X145669000Y-111760000D01*
D10*
X143550000Y-113010000D02*
X148550000Y-113010000D01*
X143550000Y-110510000D02*
X148550000Y-110510000D01*
D11*
X161925000Y-111252000D02*
X161925000Y-112268000D01*
X162179000Y-111760000D02*
X162814000Y-111252000D01*
X162814000Y-111252000D02*
X162814000Y-112268000D01*
X162814000Y-112268000D02*
X162179000Y-111760000D01*
D10*
X160060000Y-113010000D02*
X165060000Y-113010000D01*
X160060000Y-110510000D02*
X165060000Y-110510000D01*
D11*
X179705000Y-111252000D02*
X179705000Y-112268000D01*
X179959000Y-111760000D02*
X180594000Y-111252000D01*
X180594000Y-111252000D02*
X180594000Y-112268000D01*
X180594000Y-112268000D02*
X179959000Y-111760000D01*
D10*
X177840000Y-113010000D02*
X182840000Y-113010000D01*
X177840000Y-110510000D02*
X182840000Y-110510000D01*
D11*
X197485000Y-111252000D02*
X197485000Y-112268000D01*
X197739000Y-111760000D02*
X198374000Y-111252000D01*
X198374000Y-111252000D02*
X198374000Y-112268000D01*
X198374000Y-112268000D02*
X197739000Y-111760000D01*
D10*
X195620000Y-113010000D02*
X200620000Y-113010000D01*
X195620000Y-110510000D02*
X200620000Y-110510000D01*
D11*
X215265000Y-111252000D02*
X215265000Y-112268000D01*
X215519000Y-111760000D02*
X216154000Y-111252000D01*
X216154000Y-111252000D02*
X216154000Y-112268000D01*
X216154000Y-112268000D02*
X215519000Y-111760000D01*
D10*
X213400000Y-113010000D02*
X218400000Y-113010000D01*
X213400000Y-110510000D02*
X218400000Y-110510000D01*
D11*
X233045000Y-111252000D02*
X233045000Y-112268000D01*
X233299000Y-111760000D02*
X233934000Y-111252000D01*
X233934000Y-111252000D02*
X233934000Y-112268000D01*
X233934000Y-112268000D02*
X233299000Y-111760000D01*
D10*
X231180000Y-113010000D02*
X236180000Y-113010000D01*
X231180000Y-110510000D02*
X236180000Y-110510000D01*
D11*
X250825000Y-111252000D02*
X250825000Y-112268000D01*
X251079000Y-111760000D02*
X251714000Y-111252000D01*
X251714000Y-111252000D02*
X251714000Y-112268000D01*
X251714000Y-112268000D02*
X251079000Y-111760000D01*
D10*
X248960000Y-113010000D02*
X253960000Y-113010000D01*
X248960000Y-110510000D02*
X253960000Y-110510000D01*
D11*
X109751905Y-114752381D02*
X109751905Y-113752381D01*
X109990000Y-113752381D01*
X110132858Y-113800000D01*
X110228096Y-113895238D01*
X110275715Y-113990476D01*
X110323334Y-114180952D01*
X110323334Y-114323810D01*
X110275715Y-114514286D01*
X110228096Y-114609524D01*
X110132858Y-114704762D01*
X109990000Y-114752381D01*
X109751905Y-114752381D01*
X111180477Y-114085714D02*
X111180477Y-114752381D01*
X110942381Y-113704762D02*
X110704286Y-114419048D01*
X111323334Y-114419048D01*
X56331905Y-114196381D02*
X56331905Y-113196381D01*
X56570000Y-113196381D01*
X56712858Y-113244000D01*
X56808096Y-113339238D01*
X56855715Y-113434476D01*
X56903334Y-113624952D01*
X56903334Y-113767810D01*
X56855715Y-113958286D01*
X56808096Y-114053524D01*
X56712858Y-114148762D01*
X56570000Y-114196381D01*
X56331905Y-114196381D01*
X57855715Y-114196381D02*
X57284286Y-114196381D01*
X57570000Y-114196381D02*
X57570000Y-113196381D01*
X57474762Y-113339238D01*
X57379524Y-113434476D01*
X57284286Y-113482095D01*
X74111905Y-114196381D02*
X74111905Y-113196381D01*
X74350000Y-113196381D01*
X74492858Y-113244000D01*
X74588096Y-113339238D01*
X74635715Y-113434476D01*
X74683334Y-113624952D01*
X74683334Y-113767810D01*
X74635715Y-113958286D01*
X74588096Y-114053524D01*
X74492858Y-114148762D01*
X74350000Y-114196381D01*
X74111905Y-114196381D01*
X75064286Y-113291619D02*
X75111905Y-113244000D01*
X75207143Y-113196381D01*
X75445239Y-113196381D01*
X75540477Y-113244000D01*
X75588096Y-113291619D01*
X75635715Y-113386857D01*
X75635715Y-113482095D01*
X75588096Y-113624952D01*
X75016667Y-114196381D01*
X75635715Y-114196381D01*
X91891905Y-114196381D02*
X91891905Y-113196381D01*
X92130000Y-113196381D01*
X92272858Y-113244000D01*
X92368096Y-113339238D01*
X92415715Y-113434476D01*
X92463334Y-113624952D01*
X92463334Y-113767810D01*
X92415715Y-113958286D01*
X92368096Y-114053524D01*
X92272858Y-114148762D01*
X92130000Y-114196381D01*
X91891905Y-114196381D01*
X92796667Y-113196381D02*
X93415715Y-113196381D01*
X93082381Y-113577333D01*
X93225239Y-113577333D01*
X93320477Y-113624952D01*
X93368096Y-113672571D01*
X93415715Y-113767810D01*
X93415715Y-114005905D01*
X93368096Y-114101143D01*
X93320477Y-114148762D01*
X93225239Y-114196381D01*
X92939524Y-114196381D01*
X92844286Y-114148762D01*
X92796667Y-114101143D01*
X127451905Y-114196381D02*
X127451905Y-113196381D01*
X127690000Y-113196381D01*
X127832858Y-113244000D01*
X127928096Y-113339238D01*
X127975715Y-113434476D01*
X128023334Y-113624952D01*
X128023334Y-113767810D01*
X127975715Y-113958286D01*
X127928096Y-114053524D01*
X127832858Y-114148762D01*
X127690000Y-114196381D01*
X127451905Y-114196381D01*
X128928096Y-113196381D02*
X128451905Y-113196381D01*
X128404286Y-113672571D01*
X128451905Y-113624952D01*
X128547143Y-113577333D01*
X128785239Y-113577333D01*
X128880477Y-113624952D01*
X128928096Y-113672571D01*
X128975715Y-113767810D01*
X128975715Y-114005905D01*
X128928096Y-114101143D01*
X128880477Y-114148762D01*
X128785239Y-114196381D01*
X128547143Y-114196381D01*
X128451905Y-114148762D01*
X128404286Y-114101143D01*
X145231905Y-114196381D02*
X145231905Y-113196381D01*
X145470000Y-113196381D01*
X145612858Y-113244000D01*
X145708096Y-113339238D01*
X145755715Y-113434476D01*
X145803334Y-113624952D01*
X145803334Y-113767810D01*
X145755715Y-113958286D01*
X145708096Y-114053524D01*
X145612858Y-114148762D01*
X145470000Y-114196381D01*
X145231905Y-114196381D01*
X146660477Y-113196381D02*
X146470000Y-113196381D01*
X146374762Y-113244000D01*
X146327143Y-113291619D01*
X146231905Y-113434476D01*
X146184286Y-113624952D01*
X146184286Y-114005905D01*
X146231905Y-114101143D01*
X146279524Y-114148762D01*
X146374762Y-114196381D01*
X146565239Y-114196381D01*
X146660477Y-114148762D01*
X146708096Y-114101143D01*
X146755715Y-114005905D01*
X146755715Y-113767810D01*
X146708096Y-113672571D01*
X146660477Y-113624952D01*
X146565239Y-113577333D01*
X146374762Y-113577333D01*
X146279524Y-113624952D01*
X146231905Y-113672571D01*
X146184286Y-113767810D01*
X161741905Y-114196381D02*
X161741905Y-113196381D01*
X161980000Y-113196381D01*
X162122858Y-113244000D01*
X162218096Y-113339238D01*
X162265715Y-113434476D01*
X162313334Y-113624952D01*
X162313334Y-113767810D01*
X162265715Y-113958286D01*
X162218096Y-114053524D01*
X162122858Y-114148762D01*
X161980000Y-114196381D01*
X161741905Y-114196381D01*
X162646667Y-113196381D02*
X163313334Y-113196381D01*
X162884762Y-114196381D01*
X179521905Y-114196381D02*
X179521905Y-113196381D01*
X179760000Y-113196381D01*
X179902858Y-113244000D01*
X179998096Y-113339238D01*
X180045715Y-113434476D01*
X180093334Y-113624952D01*
X180093334Y-113767810D01*
X180045715Y-113958286D01*
X179998096Y-114053524D01*
X179902858Y-114148762D01*
X179760000Y-114196381D01*
X179521905Y-114196381D01*
X180664762Y-113624952D02*
X180569524Y-113577333D01*
X180521905Y-113529714D01*
X180474286Y-113434476D01*
X180474286Y-113386857D01*
X180521905Y-113291619D01*
X180569524Y-113244000D01*
X180664762Y-113196381D01*
X180855239Y-113196381D01*
X180950477Y-113244000D01*
X180998096Y-113291619D01*
X181045715Y-113386857D01*
X181045715Y-113434476D01*
X180998096Y-113529714D01*
X180950477Y-113577333D01*
X180855239Y-113624952D01*
X180664762Y-113624952D01*
X180569524Y-113672571D01*
X180521905Y-113720190D01*
X180474286Y-113815429D01*
X180474286Y-114005905D01*
X180521905Y-114101143D01*
X180569524Y-114148762D01*
X180664762Y-114196381D01*
X180855239Y-114196381D01*
X180950477Y-114148762D01*
X180998096Y-114101143D01*
X181045715Y-114005905D01*
X181045715Y-113815429D01*
X180998096Y-113720190D01*
X180950477Y-113672571D01*
X180855239Y-113624952D01*
X197301905Y-114196381D02*
X197301905Y-113196381D01*
X197540000Y-113196381D01*
X197682858Y-113244000D01*
X197778096Y-113339238D01*
X197825715Y-113434476D01*
X197873334Y-113624952D01*
X197873334Y-113767810D01*
X197825715Y-113958286D01*
X197778096Y-114053524D01*
X197682858Y-114148762D01*
X197540000Y-114196381D01*
X197301905Y-114196381D01*
X198349524Y-114196381D02*
X198540000Y-114196381D01*
X198635239Y-114148762D01*
X198682858Y-114101143D01*
X198778096Y-113958286D01*
X198825715Y-113767810D01*
X198825715Y-113386857D01*
X198778096Y-113291619D01*
X198730477Y-113244000D01*
X198635239Y-113196381D01*
X198444762Y-113196381D01*
X198349524Y-113244000D01*
X198301905Y-113291619D01*
X198254286Y-113386857D01*
X198254286Y-113624952D01*
X198301905Y-113720190D01*
X198349524Y-113767810D01*
X198444762Y-113815429D01*
X198635239Y-113815429D01*
X198730477Y-113767810D01*
X198778096Y-113720190D01*
X198825715Y-113624952D01*
X214605714Y-114196381D02*
X214605714Y-113196381D01*
X214843809Y-113196381D01*
X214986667Y-113244000D01*
X215081905Y-113339238D01*
X215129524Y-113434476D01*
X215177143Y-113624952D01*
X215177143Y-113767810D01*
X215129524Y-113958286D01*
X215081905Y-114053524D01*
X214986667Y-114148762D01*
X214843809Y-114196381D01*
X214605714Y-114196381D01*
X216129524Y-114196381D02*
X215558095Y-114196381D01*
X215843809Y-114196381D02*
X215843809Y-113196381D01*
X215748571Y-113339238D01*
X215653333Y-113434476D01*
X215558095Y-113482095D01*
X216748571Y-113196381D02*
X216843810Y-113196381D01*
X216939048Y-113244000D01*
X216986667Y-113291619D01*
X217034286Y-113386857D01*
X217081905Y-113577333D01*
X217081905Y-113815429D01*
X217034286Y-114005905D01*
X216986667Y-114101143D01*
X216939048Y-114148762D01*
X216843810Y-114196381D01*
X216748571Y-114196381D01*
X216653333Y-114148762D01*
X216605714Y-114101143D01*
X216558095Y-114005905D01*
X216510476Y-113815429D01*
X216510476Y-113577333D01*
X216558095Y-113386857D01*
X216605714Y-113291619D01*
X216653333Y-113244000D01*
X216748571Y-113196381D01*
X232385714Y-114196381D02*
X232385714Y-113196381D01*
X232623809Y-113196381D01*
X232766667Y-113244000D01*
X232861905Y-113339238D01*
X232909524Y-113434476D01*
X232957143Y-113624952D01*
X232957143Y-113767810D01*
X232909524Y-113958286D01*
X232861905Y-114053524D01*
X232766667Y-114148762D01*
X232623809Y-114196381D01*
X232385714Y-114196381D01*
X233909524Y-114196381D02*
X233338095Y-114196381D01*
X233623809Y-114196381D02*
X233623809Y-113196381D01*
X233528571Y-113339238D01*
X233433333Y-113434476D01*
X233338095Y-113482095D01*
X234861905Y-114196381D02*
X234290476Y-114196381D01*
X234576190Y-114196381D02*
X234576190Y-113196381D01*
X234480952Y-113339238D01*
X234385714Y-113434476D01*
X234290476Y-113482095D01*
X250165714Y-114196381D02*
X250165714Y-113196381D01*
X250403809Y-113196381D01*
X250546667Y-113244000D01*
X250641905Y-113339238D01*
X250689524Y-113434476D01*
X250737143Y-113624952D01*
X250737143Y-113767810D01*
X250689524Y-113958286D01*
X250641905Y-114053524D01*
X250546667Y-114148762D01*
X250403809Y-114196381D01*
X250165714Y-114196381D01*
X251689524Y-114196381D02*
X251118095Y-114196381D01*
X251403809Y-114196381D02*
X251403809Y-113196381D01*
X251308571Y-113339238D01*
X251213333Y-113434476D01*
X251118095Y-113482095D01*
X252070476Y-113291619D02*
X252118095Y-113244000D01*
X252213333Y-113196381D01*
X252451429Y-113196381D01*
X252546667Y-113244000D01*
X252594286Y-113291619D01*
X252641905Y-113386857D01*
X252641905Y-113482095D01*
X252594286Y-113624952D01*
X252022857Y-114196381D01*
X252641905Y-114196381D01*
M02*
