M48
;DRILL file {KiCad 4.0.4+e1-6308~48~ubuntu14.04.1-stable} date Mon Nov 27 12:18:28 2017
;FORMAT={-:-/ absolute / inch / decimal}
FMAT,2
INCH,TZ
T1C0.016
%
G90
G05
M72
T1
X1.74Y-4.16
X1.785Y-4.49
X1.99Y-4.34
X2.11Y-4.32
X2.19Y-4.33
X2.28Y-4.34
X2.29Y-4.06
X2.38Y-4.06
X2.39Y-4.34
X2.47Y-4.4
X2.485Y-4.45
X2.58Y-4.34
X2.595Y-4.49
X2.68Y-4.08
X2.705Y-4.15
X3.16Y-4.43
X3.265Y-4.485
X3.735Y-4.21
X3.7366Y-4.4
X3.84Y-4.09
X3.91Y-4.12
X3.98Y-4.15
X4.05Y-4.18
X4.1Y-4.18
X4.14Y-4.3
X4.17Y-4.15
X4.17Y-4.27
X4.2Y-4.24
X4.23Y-4.21
X4.24Y-4.12
X4.26Y-4.18
X4.29Y-4.15
X4.32Y-4.12
X4.4366Y-4.4
X4.44Y-4.21
X5.13Y-4.24
X5.1366Y-4.4
X5.8366Y-4.4
X5.84Y-4.27
X6.4866Y-4.4
X6.49Y-4.3
X6.65Y-4.4
X7.1866Y-4.4
X7.19Y-4.09
X7.8866Y-4.4
X7.89Y-4.12
X8.5866Y-4.4
X8.59Y-4.15
X8.68Y-4.33
X8.7Y-4.3
X8.73Y-4.28
X8.76Y-4.26
X8.97Y-4.04
X9.Y-4.02
X9.03Y-4.51
X9.04Y-4.
X9.08Y-3.98
X9.15Y-3.96
X9.2Y-3.96
X9.31Y-3.96
X9.36Y-3.96
X9.51Y-3.96
X9.62Y-4.33
X9.63Y-3.97
X9.68Y-3.97
X9.73Y-4.34
X9.78Y-4.32
X9.88Y-4.32
X9.98Y-4.33
T0
M30
