G04 #@! TF.FileFunction,Legend,Bot*
%FSLAX46Y46*%
G04 Gerber Fmt 4.6, Leading zero omitted, Abs format (unit mm)*
G04 Created by KiCad (PCBNEW 4.0.4+e1-6308~48~ubuntu14.04.1-stable) date Mon Nov 27 12:18:25 2017*
%MOMM*%
%LPD*%
G01*
G04 APERTURE LIST*
%ADD10C,0.100000*%
%ADD11C,0.300000*%
%ADD12C,0.150000*%
G04 APERTURE END LIST*
D10*
D11*
X43676143Y-100977000D02*
X43819000Y-100905571D01*
X44033286Y-100905571D01*
X44247571Y-100977000D01*
X44390429Y-101119857D01*
X44461857Y-101262714D01*
X44533286Y-101548429D01*
X44533286Y-101762714D01*
X44461857Y-102048429D01*
X44390429Y-102191286D01*
X44247571Y-102334143D01*
X44033286Y-102405571D01*
X43890429Y-102405571D01*
X43676143Y-102334143D01*
X43604714Y-102262714D01*
X43604714Y-101762714D01*
X43890429Y-101762714D01*
X230366143Y-101358000D02*
X230509000Y-101286571D01*
X230723286Y-101286571D01*
X230937571Y-101358000D01*
X231080429Y-101500857D01*
X231151857Y-101643714D01*
X231223286Y-101929429D01*
X231223286Y-102143714D01*
X231151857Y-102429429D01*
X231080429Y-102572286D01*
X230937571Y-102715143D01*
X230723286Y-102786571D01*
X230580429Y-102786571D01*
X230366143Y-102715143D01*
X230294714Y-102643714D01*
X230294714Y-102143714D01*
X230580429Y-102143714D01*
D12*
X243332000Y-113593000D02*
X243332000Y-114173000D01*
X243332000Y-114173000D02*
X238252000Y-114173000D01*
X238252000Y-114173000D02*
X238252000Y-113593000D01*
X254882000Y-113593000D02*
X226702000Y-113593000D01*
X226702000Y-113593000D02*
X226702000Y-104593000D01*
X226702000Y-104593000D02*
X254882000Y-104593000D01*
X254882000Y-104593000D02*
X254882000Y-113593000D01*
X58039000Y-113593000D02*
X58039000Y-114173000D01*
X58039000Y-114173000D02*
X52959000Y-114173000D01*
X52959000Y-114173000D02*
X52959000Y-113593000D01*
X70859000Y-113593000D02*
X40139000Y-113593000D01*
X40139000Y-113593000D02*
X40139000Y-104593000D01*
X40139000Y-104593000D02*
X70859000Y-104593000D01*
X70859000Y-104593000D02*
X70859000Y-113593000D01*
X241530095Y-110045381D02*
X241530095Y-109045381D01*
X241149142Y-109045381D01*
X241053904Y-109093000D01*
X241006285Y-109140619D01*
X240958666Y-109235857D01*
X240958666Y-109378714D01*
X241006285Y-109473952D01*
X241053904Y-109521571D01*
X241149142Y-109569190D01*
X241530095Y-109569190D01*
X240577714Y-109140619D02*
X240530095Y-109093000D01*
X240434857Y-109045381D01*
X240196761Y-109045381D01*
X240101523Y-109093000D01*
X240053904Y-109140619D01*
X240006285Y-109235857D01*
X240006285Y-109331095D01*
X240053904Y-109473952D01*
X240625333Y-110045381D01*
X240006285Y-110045381D01*
X56237095Y-110045381D02*
X56237095Y-109045381D01*
X55856142Y-109045381D01*
X55760904Y-109093000D01*
X55713285Y-109140619D01*
X55665666Y-109235857D01*
X55665666Y-109378714D01*
X55713285Y-109473952D01*
X55760904Y-109521571D01*
X55856142Y-109569190D01*
X56237095Y-109569190D01*
X54713285Y-110045381D02*
X55284714Y-110045381D01*
X54999000Y-110045381D02*
X54999000Y-109045381D01*
X55094238Y-109188238D01*
X55189476Y-109283476D01*
X55284714Y-109331095D01*
M02*
