G04 #@! TF.FileFunction,Copper,L2,Bot,Signal*
%FSLAX46Y46*%
G04 Gerber Fmt 4.6, Leading zero omitted, Abs format (unit mm)*
G04 Created by KiCad (PCBNEW 4.0.4+e1-6308~48~ubuntu14.04.1-stable) date Mon Nov 27 12:18:25 2017*
%MOMM*%
%LPD*%
G01*
G04 APERTURE LIST*
%ADD10C,0.100000*%
%ADD11R,0.890000X4.380000*%
%ADD12C,0.600000*%
%ADD13C,0.250000*%
%ADD14C,0.254000*%
G04 APERTURE END LIST*
D10*
D11*
X230632000Y-112553000D03*
X233172000Y-112553000D03*
X235712000Y-112553000D03*
X238252000Y-112553000D03*
X240792000Y-112553000D03*
X243332000Y-112553000D03*
X245872000Y-112553000D03*
X248412000Y-112553000D03*
X250952000Y-112553000D03*
X250952000Y-105633000D03*
X248412000Y-105633000D03*
X245872000Y-105633000D03*
X243332000Y-105633000D03*
X230632000Y-105633000D03*
X233172000Y-105633000D03*
X235712000Y-105633000D03*
X238252000Y-105633000D03*
X240792000Y-105633000D03*
X44069000Y-112553000D03*
X46609000Y-112553000D03*
X49149000Y-112553000D03*
X51689000Y-112553000D03*
X54229000Y-112553000D03*
X56769000Y-112553000D03*
X59309000Y-112553000D03*
X61849000Y-112553000D03*
X64389000Y-112553000D03*
X66929000Y-112553000D03*
X66929000Y-105633000D03*
X64389000Y-105633000D03*
X61849000Y-105633000D03*
X59309000Y-105633000D03*
X44069000Y-105633000D03*
X46609000Y-105633000D03*
X49149000Y-105633000D03*
X51689000Y-105633000D03*
X54229000Y-105633000D03*
X56769000Y-105633000D03*
D12*
X65532000Y-110236000D03*
X82931000Y-113919000D03*
X168910000Y-111760000D03*
X244602000Y-100838000D03*
X60452000Y-103124000D03*
X241554000Y-100584000D03*
X58166000Y-103124000D03*
X237744000Y-100584000D03*
X227838000Y-102616000D03*
X236474000Y-100584000D03*
X228600000Y-102108000D03*
X44196000Y-105664000D03*
X68707000Y-105410000D03*
X182540000Y-111760000D03*
X182626000Y-103886000D03*
X80264000Y-112522000D03*
X250952000Y-109728000D03*
X65913000Y-114046000D03*
X200320000Y-111760000D03*
X200406000Y-104648000D03*
X107696000Y-104648000D03*
X109728000Y-104648000D03*
X248412000Y-109728000D03*
X63119000Y-113030000D03*
X108966000Y-105410000D03*
X62738000Y-111760000D03*
X105918000Y-105410000D03*
X218100000Y-111760000D03*
X218186000Y-105410000D03*
X247142000Y-110236000D03*
X108204000Y-106172000D03*
X104140000Y-106172000D03*
X244348000Y-109982000D03*
X94910000Y-111760000D03*
X94869000Y-106934000D03*
X60706000Y-110236000D03*
X112690000Y-111760000D03*
X112776000Y-106934000D03*
X253492000Y-109982000D03*
X107442000Y-106934000D03*
X102870000Y-106172000D03*
X222504000Y-108204000D03*
X57912000Y-110236000D03*
X130470000Y-111760000D03*
X130302000Y-107696000D03*
X55626000Y-109982000D03*
X101092000Y-105410000D03*
X106680000Y-107696000D03*
X221742000Y-108712000D03*
X148250000Y-111760000D03*
X148336000Y-108458000D03*
X105918000Y-108458000D03*
X53594000Y-109728000D03*
X99314000Y-104648000D03*
X220980000Y-109220000D03*
X220472000Y-109982000D03*
X164760000Y-111760000D03*
X164846000Y-109220000D03*
X50546000Y-110236000D03*
X97536000Y-103886000D03*
X105156000Y-109220000D03*
X245872000Y-100838000D03*
X68072000Y-103632000D03*
X229362000Y-114554000D03*
X45339000Y-114046000D03*
X233680000Y-100584000D03*
X229616000Y-101600000D03*
X230632000Y-101092000D03*
X232410000Y-100584000D03*
D13*
X64389000Y-105633000D02*
X64389000Y-107950000D01*
X64389000Y-107950000D02*
X65786000Y-109347000D01*
X65786000Y-109347000D02*
X65786000Y-109982000D01*
X65786000Y-109982000D02*
X65532000Y-110236000D01*
X65786000Y-109347000D02*
X78232000Y-109347000D01*
X78232000Y-109347000D02*
X82804000Y-113919000D01*
X82804000Y-113919000D02*
X82931000Y-113919000D01*
X63119000Y-102870000D02*
X166243000Y-102870000D01*
X61849000Y-104140000D02*
X63119000Y-102870000D01*
X166243000Y-102870000D02*
X168783000Y-105410000D01*
X61849000Y-105633000D02*
X61849000Y-104140000D01*
X168783000Y-105410000D02*
X168783000Y-111633000D01*
X168783000Y-111633000D02*
X168910000Y-111760000D01*
X248412000Y-104648000D02*
X244602000Y-100838000D01*
X60452000Y-103124000D02*
X59309000Y-104267000D01*
X59309000Y-104267000D02*
X59309000Y-105633000D01*
X248412000Y-105633000D02*
X248412000Y-104648000D01*
X59309000Y-104013000D02*
X59309000Y-105633000D01*
X243332000Y-100584000D02*
X241554000Y-100584000D01*
X245872000Y-103124000D02*
X243332000Y-100584000D01*
X245872000Y-105633000D02*
X245872000Y-103124000D01*
X58166000Y-103124000D02*
X56769000Y-104521000D01*
X56769000Y-104521000D02*
X56769000Y-105633000D01*
X56769000Y-105633000D02*
X56769000Y-103505000D01*
X188214000Y-102362000D02*
X55626000Y-102362000D01*
X55626000Y-102362000D02*
X54229000Y-103759000D01*
X54229000Y-103759000D02*
X54229000Y-105633000D01*
X243332000Y-105633000D02*
X243332000Y-103632000D01*
X243332000Y-103632000D02*
X240284000Y-100584000D01*
X240284000Y-100584000D02*
X237744000Y-100584000D01*
X227838000Y-102616000D02*
X227584000Y-102362000D01*
X227584000Y-102362000D02*
X188214000Y-102362000D01*
X188214000Y-102362000D02*
X187960000Y-102362000D01*
X51689000Y-105633000D02*
X51689000Y-102997000D01*
X52832000Y-101854000D02*
X189484000Y-101854000D01*
X51689000Y-102997000D02*
X52832000Y-101854000D01*
X240792000Y-105633000D02*
X240792000Y-104902000D01*
X240792000Y-104902000D02*
X236474000Y-100584000D01*
X228600000Y-102108000D02*
X228346000Y-101854000D01*
X228346000Y-101854000D02*
X189484000Y-101854000D01*
X189484000Y-101854000D02*
X187960000Y-101854000D01*
X44069000Y-105633000D02*
X44165000Y-105633000D01*
X44165000Y-105633000D02*
X44196000Y-105664000D01*
X230474000Y-105791000D02*
X230632000Y-105633000D01*
X182626000Y-103886000D02*
X182626000Y-111674000D01*
X182626000Y-111674000D02*
X182540000Y-111760000D01*
X66929000Y-112553000D02*
X80233000Y-112553000D01*
X80233000Y-112553000D02*
X80264000Y-112522000D01*
X250952000Y-109728000D02*
X250952000Y-112553000D01*
X66929000Y-112553000D02*
X66929000Y-110871000D01*
X64389000Y-112553000D02*
X65055000Y-112553000D01*
X65055000Y-112553000D02*
X65913000Y-114046000D01*
X200406000Y-104648000D02*
X200406000Y-111674000D01*
X200406000Y-111674000D02*
X200320000Y-111760000D01*
X107696000Y-104648000D02*
X109728000Y-104648000D01*
X248412000Y-109728000D02*
X248412000Y-112553000D01*
X63119000Y-113030000D02*
X63596000Y-112553000D01*
X63596000Y-112553000D02*
X64389000Y-112553000D01*
X62738000Y-111760000D02*
X62642000Y-111760000D01*
X105918000Y-105410000D02*
X108712000Y-105410000D01*
X108712000Y-105410000D02*
X108966000Y-105410000D01*
X62642000Y-111760000D02*
X61849000Y-112553000D01*
X218186000Y-105410000D02*
X218186000Y-111674000D01*
X218186000Y-111674000D02*
X218100000Y-111760000D01*
X247142000Y-110236000D02*
X245872000Y-111506000D01*
X245872000Y-111506000D02*
X245872000Y-112553000D01*
X61849000Y-112553000D02*
X61945000Y-112553000D01*
X61849000Y-112553000D02*
X61849000Y-110871000D01*
X104140000Y-106172000D02*
X108204000Y-106172000D01*
X244348000Y-109982000D02*
X243332000Y-110998000D01*
X243332000Y-110998000D02*
X243332000Y-112553000D01*
X94869000Y-106934000D02*
X94869000Y-111719000D01*
X94869000Y-111719000D02*
X94910000Y-111760000D01*
X59309000Y-112553000D02*
X59309000Y-111633000D01*
X59309000Y-111633000D02*
X60706000Y-110236000D01*
X59309000Y-112553000D02*
X59309000Y-111125000D01*
X222758000Y-108458000D02*
X238760000Y-108458000D01*
X112776000Y-106934000D02*
X112776000Y-111674000D01*
X112776000Y-111674000D02*
X112690000Y-111760000D01*
X238760000Y-108458000D02*
X251968000Y-108458000D01*
X251968000Y-108458000D02*
X253492000Y-109982000D01*
X103632000Y-106934000D02*
X107442000Y-106934000D01*
X102870000Y-106172000D02*
X103632000Y-106934000D01*
X238760000Y-108458000D02*
X240792000Y-110490000D01*
X222504000Y-108204000D02*
X222758000Y-108458000D01*
X240792000Y-110490000D02*
X240792000Y-112553000D01*
X56769000Y-111379000D02*
X57912000Y-110236000D01*
X56769000Y-112553000D02*
X56769000Y-111379000D01*
X56769000Y-112553000D02*
X56769000Y-110871000D01*
X221996000Y-108966000D02*
X236728000Y-108966000D01*
X221742000Y-108712000D02*
X221996000Y-108966000D01*
X130302000Y-107696000D02*
X130302000Y-111592000D01*
X130302000Y-111592000D02*
X130470000Y-111760000D01*
X106426000Y-107696000D02*
X106680000Y-107696000D01*
X54229000Y-111379000D02*
X55626000Y-109982000D01*
X103378000Y-107696000D02*
X103886000Y-107696000D01*
X101092000Y-105410000D02*
X103378000Y-107696000D01*
X106426000Y-107696000D02*
X103886000Y-107696000D01*
X236728000Y-108966000D02*
X238252000Y-110490000D01*
X238252000Y-110490000D02*
X238252000Y-112553000D01*
X54229000Y-112553000D02*
X54229000Y-111379000D01*
X54229000Y-112553000D02*
X54229000Y-110617000D01*
X221234000Y-109474000D02*
X220980000Y-109220000D01*
X221234000Y-109474000D02*
X233934000Y-109474000D01*
X148336000Y-108458000D02*
X148336000Y-111674000D01*
X148336000Y-111674000D02*
X148250000Y-111760000D01*
X235712000Y-111252000D02*
X233934000Y-109474000D01*
X53594000Y-109728000D02*
X51689000Y-111633000D01*
X103124000Y-108458000D02*
X103378000Y-108458000D01*
X99314000Y-104648000D02*
X103124000Y-108458000D01*
X105918000Y-108458000D02*
X103378000Y-108458000D01*
X235712000Y-111252000D02*
X235712000Y-112553000D01*
X51689000Y-112553000D02*
X51689000Y-111633000D01*
X51689000Y-112553000D02*
X51689000Y-110871000D01*
X220472000Y-109982000D02*
X231902000Y-109982000D01*
X231902000Y-109982000D02*
X233172000Y-111252000D01*
X164846000Y-109220000D02*
X164846000Y-111674000D01*
X164846000Y-111674000D02*
X164760000Y-111760000D01*
X49149000Y-111633000D02*
X50546000Y-110236000D01*
X97536000Y-103886000D02*
X102870000Y-109220000D01*
X105156000Y-109220000D02*
X102870000Y-109220000D01*
X233172000Y-111252000D02*
X233172000Y-112553000D01*
X49149000Y-112553000D02*
X49149000Y-111633000D01*
X49149000Y-112553000D02*
X49149000Y-111125000D01*
X247650000Y-100838000D02*
X245872000Y-100838000D01*
X250952000Y-104140000D02*
X247650000Y-100838000D01*
X68072000Y-103632000D02*
X66929000Y-104775000D01*
X66929000Y-104775000D02*
X66929000Y-105633000D01*
X250952000Y-105633000D02*
X250952000Y-104140000D01*
X66929000Y-104521000D02*
X66929000Y-105633000D01*
X44069000Y-112553000D02*
X44069000Y-112776000D01*
X44069000Y-112776000D02*
X45339000Y-114046000D01*
X229362000Y-114554000D02*
X230632000Y-113030000D01*
X230632000Y-113030000D02*
X230632000Y-112553000D01*
X44069000Y-112553000D02*
X44069000Y-112649000D01*
X230632000Y-113030000D02*
X230632000Y-112553000D01*
X44069000Y-112553000D02*
X43973000Y-112553000D01*
X188214000Y-101288002D02*
X51365998Y-101288002D01*
X48006000Y-108966000D02*
X46609000Y-110363000D01*
X50038000Y-108966000D02*
X48006000Y-108966000D01*
X50546000Y-108458000D02*
X50038000Y-108966000D01*
X50546000Y-102108000D02*
X50546000Y-108458000D01*
X51365998Y-101288002D02*
X50546000Y-102108000D01*
X46609000Y-110363000D02*
X46609000Y-112553000D01*
X238252000Y-105633000D02*
X238252000Y-103632000D01*
X238252000Y-103632000D02*
X235204000Y-100584000D01*
X235204000Y-100584000D02*
X233680000Y-100584000D01*
X229616000Y-101600000D02*
X229304002Y-101288002D01*
X229304002Y-101288002D02*
X188214000Y-101288002D01*
X188214000Y-101288002D02*
X187960000Y-101288002D01*
X188214000Y-100330000D02*
X47752000Y-100330000D01*
X46609000Y-101473000D02*
X46609000Y-105633000D01*
X47752000Y-100330000D02*
X46609000Y-101473000D01*
X233172000Y-105633000D02*
X233172000Y-102362000D01*
X231140000Y-100330000D02*
X188214000Y-100330000D01*
X188214000Y-100330000D02*
X187960000Y-100330000D01*
X233172000Y-102362000D02*
X231140000Y-100330000D01*
X233172000Y-105633000D02*
X233141000Y-105633000D01*
X188214000Y-100838000D02*
X50038000Y-100838000D01*
X49149000Y-101727000D02*
X49149000Y-105633000D01*
X50038000Y-100838000D02*
X49149000Y-101727000D01*
X235712000Y-105633000D02*
X235712000Y-103886000D01*
X235712000Y-103886000D02*
X232410000Y-100584000D01*
X230378000Y-100838000D02*
X188214000Y-100838000D01*
X188214000Y-100838000D02*
X187960000Y-100838000D01*
X230632000Y-101092000D02*
X230378000Y-100838000D01*
X235712000Y-105633000D02*
X235712000Y-104902000D01*
D14*
G36*
X46071599Y-100935599D02*
X45906852Y-101182161D01*
X45849000Y-101473000D01*
X45849000Y-102891113D01*
X45712559Y-102978910D01*
X45567569Y-103191110D01*
X45516560Y-103443000D01*
X45516560Y-107823000D01*
X45560838Y-108058317D01*
X45699910Y-108274441D01*
X45912110Y-108419431D01*
X46164000Y-108470440D01*
X47054000Y-108470440D01*
X47289317Y-108426162D01*
X47505441Y-108287090D01*
X47650431Y-108074890D01*
X47701440Y-107823000D01*
X47701440Y-103443000D01*
X47657162Y-103207683D01*
X47518090Y-102991559D01*
X47369000Y-102889690D01*
X47369000Y-101787802D01*
X48066802Y-101090000D01*
X48711198Y-101090000D01*
X48611599Y-101189599D01*
X48446852Y-101436161D01*
X48389000Y-101727000D01*
X48389000Y-102891113D01*
X48252559Y-102978910D01*
X48107569Y-103191110D01*
X48056560Y-103443000D01*
X48056560Y-107823000D01*
X48100838Y-108058317D01*
X48195869Y-108206000D01*
X48006000Y-108206000D01*
X47715160Y-108263852D01*
X47468599Y-108428599D01*
X46181638Y-109715560D01*
X46164000Y-109715560D01*
X45928683Y-109759838D01*
X45712559Y-109898910D01*
X45567569Y-110111110D01*
X45516560Y-110363000D01*
X45516560Y-113111154D01*
X45478923Y-113111121D01*
X45161440Y-112793638D01*
X45161440Y-110363000D01*
X45117162Y-110127683D01*
X44978090Y-109911559D01*
X44765890Y-109766569D01*
X44514000Y-109715560D01*
X43624000Y-109715560D01*
X43388683Y-109759838D01*
X43172559Y-109898910D01*
X43027569Y-110111110D01*
X42976560Y-110363000D01*
X42976560Y-114290000D01*
X40710000Y-114290000D01*
X40710000Y-105918750D01*
X42989000Y-105918750D01*
X42989000Y-107949310D01*
X43085673Y-108182699D01*
X43264302Y-108361327D01*
X43497691Y-108458000D01*
X43783250Y-108458000D01*
X43942000Y-108299250D01*
X43942000Y-105760000D01*
X44196000Y-105760000D01*
X44196000Y-108299250D01*
X44354750Y-108458000D01*
X44640309Y-108458000D01*
X44873698Y-108361327D01*
X45052327Y-108182699D01*
X45149000Y-107949310D01*
X45149000Y-105918750D01*
X44990250Y-105760000D01*
X44196000Y-105760000D01*
X43942000Y-105760000D01*
X43147750Y-105760000D01*
X42989000Y-105918750D01*
X40710000Y-105918750D01*
X40710000Y-103316690D01*
X42989000Y-103316690D01*
X42989000Y-105347250D01*
X43147750Y-105506000D01*
X43942000Y-105506000D01*
X43942000Y-102966750D01*
X44196000Y-102966750D01*
X44196000Y-105506000D01*
X44990250Y-105506000D01*
X45149000Y-105347250D01*
X45149000Y-103316690D01*
X45052327Y-103083301D01*
X44873698Y-102904673D01*
X44640309Y-102808000D01*
X44354750Y-102808000D01*
X44196000Y-102966750D01*
X43942000Y-102966750D01*
X43783250Y-102808000D01*
X43497691Y-102808000D01*
X43264302Y-102904673D01*
X43085673Y-103083301D01*
X42989000Y-103316690D01*
X40710000Y-103316690D01*
X40710000Y-100710000D01*
X46297198Y-100710000D01*
X46071599Y-100935599D01*
X46071599Y-100935599D01*
G37*
X46071599Y-100935599D02*
X45906852Y-101182161D01*
X45849000Y-101473000D01*
X45849000Y-102891113D01*
X45712559Y-102978910D01*
X45567569Y-103191110D01*
X45516560Y-103443000D01*
X45516560Y-107823000D01*
X45560838Y-108058317D01*
X45699910Y-108274441D01*
X45912110Y-108419431D01*
X46164000Y-108470440D01*
X47054000Y-108470440D01*
X47289317Y-108426162D01*
X47505441Y-108287090D01*
X47650431Y-108074890D01*
X47701440Y-107823000D01*
X47701440Y-103443000D01*
X47657162Y-103207683D01*
X47518090Y-102991559D01*
X47369000Y-102889690D01*
X47369000Y-101787802D01*
X48066802Y-101090000D01*
X48711198Y-101090000D01*
X48611599Y-101189599D01*
X48446852Y-101436161D01*
X48389000Y-101727000D01*
X48389000Y-102891113D01*
X48252559Y-102978910D01*
X48107569Y-103191110D01*
X48056560Y-103443000D01*
X48056560Y-107823000D01*
X48100838Y-108058317D01*
X48195869Y-108206000D01*
X48006000Y-108206000D01*
X47715160Y-108263852D01*
X47468599Y-108428599D01*
X46181638Y-109715560D01*
X46164000Y-109715560D01*
X45928683Y-109759838D01*
X45712559Y-109898910D01*
X45567569Y-110111110D01*
X45516560Y-110363000D01*
X45516560Y-113111154D01*
X45478923Y-113111121D01*
X45161440Y-112793638D01*
X45161440Y-110363000D01*
X45117162Y-110127683D01*
X44978090Y-109911559D01*
X44765890Y-109766569D01*
X44514000Y-109715560D01*
X43624000Y-109715560D01*
X43388683Y-109759838D01*
X43172559Y-109898910D01*
X43027569Y-110111110D01*
X42976560Y-110363000D01*
X42976560Y-114290000D01*
X40710000Y-114290000D01*
X40710000Y-105918750D01*
X42989000Y-105918750D01*
X42989000Y-107949310D01*
X43085673Y-108182699D01*
X43264302Y-108361327D01*
X43497691Y-108458000D01*
X43783250Y-108458000D01*
X43942000Y-108299250D01*
X43942000Y-105760000D01*
X44196000Y-105760000D01*
X44196000Y-108299250D01*
X44354750Y-108458000D01*
X44640309Y-108458000D01*
X44873698Y-108361327D01*
X45052327Y-108182699D01*
X45149000Y-107949310D01*
X45149000Y-105918750D01*
X44990250Y-105760000D01*
X44196000Y-105760000D01*
X43942000Y-105760000D01*
X43147750Y-105760000D01*
X42989000Y-105918750D01*
X40710000Y-105918750D01*
X40710000Y-103316690D01*
X42989000Y-103316690D01*
X42989000Y-105347250D01*
X43147750Y-105506000D01*
X43942000Y-105506000D01*
X43942000Y-102966750D01*
X44196000Y-102966750D01*
X44196000Y-105506000D01*
X44990250Y-105506000D01*
X45149000Y-105347250D01*
X45149000Y-103316690D01*
X45052327Y-103083301D01*
X44873698Y-102904673D01*
X44640309Y-102808000D01*
X44354750Y-102808000D01*
X44196000Y-102966750D01*
X43942000Y-102966750D01*
X43783250Y-102808000D01*
X43497691Y-102808000D01*
X43264302Y-102904673D01*
X43085673Y-103083301D01*
X42989000Y-103316690D01*
X40710000Y-103316690D01*
X40710000Y-100710000D01*
X46297198Y-100710000D01*
X46071599Y-100935599D01*
G36*
X232412000Y-102676802D02*
X232412000Y-102891113D01*
X232275559Y-102978910D01*
X232130569Y-103191110D01*
X232079560Y-103443000D01*
X232079560Y-107698000D01*
X231712000Y-107698000D01*
X231712000Y-105918750D01*
X231553250Y-105760000D01*
X230759000Y-105760000D01*
X230759000Y-105780000D01*
X230505000Y-105780000D01*
X230505000Y-105760000D01*
X229710750Y-105760000D01*
X229552000Y-105918750D01*
X229552000Y-107698000D01*
X223306597Y-107698000D01*
X223297117Y-107675057D01*
X223034327Y-107411808D01*
X222690799Y-107269162D01*
X222318833Y-107268838D01*
X221975057Y-107410883D01*
X221711808Y-107673673D01*
X221668929Y-107776936D01*
X221556833Y-107776838D01*
X221213057Y-107918883D01*
X220949808Y-108181673D01*
X220906929Y-108284936D01*
X220794833Y-108284838D01*
X220451057Y-108426883D01*
X220187808Y-108689673D01*
X220045162Y-109033201D01*
X220045063Y-109146735D01*
X219943057Y-109188883D01*
X219679808Y-109451673D01*
X219537162Y-109795201D01*
X219536838Y-110167167D01*
X219678883Y-110510943D01*
X219941673Y-110774192D01*
X220285201Y-110916838D01*
X220657167Y-110917162D01*
X221000943Y-110775117D01*
X221034118Y-110742000D01*
X229539560Y-110742000D01*
X229539560Y-113153770D01*
X229138965Y-113634485D01*
X228833057Y-113760883D01*
X228569808Y-114023673D01*
X228459219Y-114290000D01*
X83789351Y-114290000D01*
X83865838Y-114105799D01*
X83866162Y-113733833D01*
X83724117Y-113390057D01*
X83461327Y-113126808D01*
X83117799Y-112984162D01*
X82943812Y-112984010D01*
X78769401Y-108809599D01*
X78522839Y-108644852D01*
X78232000Y-108587000D01*
X66100802Y-108587000D01*
X65457083Y-107943281D01*
X65481440Y-107823000D01*
X65481440Y-103630000D01*
X65836560Y-103630000D01*
X65836560Y-107823000D01*
X65880838Y-108058317D01*
X66019910Y-108274441D01*
X66232110Y-108419431D01*
X66484000Y-108470440D01*
X67374000Y-108470440D01*
X67609317Y-108426162D01*
X67825441Y-108287090D01*
X67970431Y-108074890D01*
X68021440Y-107823000D01*
X68021440Y-107119167D01*
X93933838Y-107119167D01*
X94075883Y-107462943D01*
X94109000Y-107496118D01*
X94109000Y-111250885D01*
X93975162Y-111573201D01*
X93974838Y-111945167D01*
X94116883Y-112288943D01*
X94379673Y-112552192D01*
X94723201Y-112694838D01*
X95095167Y-112695162D01*
X95438943Y-112553117D01*
X95702192Y-112290327D01*
X95844838Y-111946799D01*
X95844839Y-111945167D01*
X111754838Y-111945167D01*
X111896883Y-112288943D01*
X112159673Y-112552192D01*
X112503201Y-112694838D01*
X112875167Y-112695162D01*
X113218943Y-112553117D01*
X113482192Y-112290327D01*
X113624838Y-111946799D01*
X113625162Y-111574833D01*
X113536000Y-111359044D01*
X113536000Y-107881167D01*
X129366838Y-107881167D01*
X129508883Y-108224943D01*
X129542000Y-108258118D01*
X129542000Y-111556733D01*
X129535162Y-111573201D01*
X129534838Y-111945167D01*
X129676883Y-112288943D01*
X129939673Y-112552192D01*
X130283201Y-112694838D01*
X130655167Y-112695162D01*
X130998943Y-112553117D01*
X131262192Y-112290327D01*
X131404838Y-111946799D01*
X131404839Y-111945167D01*
X147314838Y-111945167D01*
X147456883Y-112288943D01*
X147719673Y-112552192D01*
X148063201Y-112694838D01*
X148435167Y-112695162D01*
X148778943Y-112553117D01*
X149042192Y-112290327D01*
X149184838Y-111946799D01*
X149184839Y-111945167D01*
X163824838Y-111945167D01*
X163966883Y-112288943D01*
X164229673Y-112552192D01*
X164573201Y-112694838D01*
X164945167Y-112695162D01*
X165288943Y-112553117D01*
X165552192Y-112290327D01*
X165694838Y-111946799D01*
X165695162Y-111574833D01*
X165606000Y-111359044D01*
X165606000Y-109782463D01*
X165638192Y-109750327D01*
X165780838Y-109406799D01*
X165781162Y-109034833D01*
X165639117Y-108691057D01*
X165376327Y-108427808D01*
X165032799Y-108285162D01*
X164660833Y-108284838D01*
X164317057Y-108426883D01*
X164053808Y-108689673D01*
X163911162Y-109033201D01*
X163910838Y-109405167D01*
X164052883Y-109748943D01*
X164086000Y-109782118D01*
X164086000Y-111111687D01*
X163967808Y-111229673D01*
X163825162Y-111573201D01*
X163824838Y-111945167D01*
X149184839Y-111945167D01*
X149185162Y-111574833D01*
X149096000Y-111359044D01*
X149096000Y-109020463D01*
X149128192Y-108988327D01*
X149270838Y-108644799D01*
X149271162Y-108272833D01*
X149129117Y-107929057D01*
X148866327Y-107665808D01*
X148522799Y-107523162D01*
X148150833Y-107522838D01*
X147807057Y-107664883D01*
X147543808Y-107927673D01*
X147401162Y-108271201D01*
X147400838Y-108643167D01*
X147542883Y-108986943D01*
X147576000Y-109020118D01*
X147576000Y-111111687D01*
X147457808Y-111229673D01*
X147315162Y-111573201D01*
X147314838Y-111945167D01*
X131404839Y-111945167D01*
X131405162Y-111574833D01*
X131263117Y-111231057D01*
X131062000Y-111029589D01*
X131062000Y-108258463D01*
X131094192Y-108226327D01*
X131236838Y-107882799D01*
X131237162Y-107510833D01*
X131095117Y-107167057D01*
X130832327Y-106903808D01*
X130488799Y-106761162D01*
X130116833Y-106760838D01*
X129773057Y-106902883D01*
X129509808Y-107165673D01*
X129367162Y-107509201D01*
X129366838Y-107881167D01*
X113536000Y-107881167D01*
X113536000Y-107496463D01*
X113568192Y-107464327D01*
X113710838Y-107120799D01*
X113711162Y-106748833D01*
X113569117Y-106405057D01*
X113306327Y-106141808D01*
X112962799Y-105999162D01*
X112590833Y-105998838D01*
X112247057Y-106140883D01*
X111983808Y-106403673D01*
X111841162Y-106747201D01*
X111840838Y-107119167D01*
X111982883Y-107462943D01*
X112016000Y-107496118D01*
X112016000Y-111111687D01*
X111897808Y-111229673D01*
X111755162Y-111573201D01*
X111754838Y-111945167D01*
X95844839Y-111945167D01*
X95845162Y-111574833D01*
X95703117Y-111231057D01*
X95629000Y-111156811D01*
X95629000Y-107496463D01*
X95661192Y-107464327D01*
X95803838Y-107120799D01*
X95804162Y-106748833D01*
X95662117Y-106405057D01*
X95399327Y-106141808D01*
X95055799Y-105999162D01*
X94683833Y-105998838D01*
X94340057Y-106140883D01*
X94076808Y-106403673D01*
X93934162Y-106747201D01*
X93933838Y-107119167D01*
X68021440Y-107119167D01*
X68021440Y-104757362D01*
X68211680Y-104567122D01*
X68257167Y-104567162D01*
X68600943Y-104425117D01*
X68864192Y-104162327D01*
X69006838Y-103818799D01*
X69007002Y-103630000D01*
X96629897Y-103630000D01*
X96601162Y-103699201D01*
X96600838Y-104071167D01*
X96742883Y-104414943D01*
X97005673Y-104678192D01*
X97349201Y-104820838D01*
X97396077Y-104820879D01*
X102332599Y-109757401D01*
X102579161Y-109922148D01*
X102870000Y-109980000D01*
X104593537Y-109980000D01*
X104625673Y-110012192D01*
X104969201Y-110154838D01*
X105341167Y-110155162D01*
X105684943Y-110013117D01*
X105948192Y-109750327D01*
X106090838Y-109406799D01*
X106090850Y-109393151D01*
X106103167Y-109393162D01*
X106446943Y-109251117D01*
X106710192Y-108988327D01*
X106852838Y-108644799D01*
X106852850Y-108631151D01*
X106865167Y-108631162D01*
X107208943Y-108489117D01*
X107472192Y-108226327D01*
X107614838Y-107882799D01*
X107614850Y-107869151D01*
X107627167Y-107869162D01*
X107970943Y-107727117D01*
X108234192Y-107464327D01*
X108376838Y-107120799D01*
X108376850Y-107107151D01*
X108389167Y-107107162D01*
X108732943Y-106965117D01*
X108996192Y-106702327D01*
X109138838Y-106358799D01*
X109138850Y-106345151D01*
X109151167Y-106345162D01*
X109494943Y-106203117D01*
X109758192Y-105940327D01*
X109900838Y-105596799D01*
X109900850Y-105583151D01*
X109913167Y-105583162D01*
X110256943Y-105441117D01*
X110520192Y-105178327D01*
X110662838Y-104834799D01*
X110663162Y-104462833D01*
X110521117Y-104119057D01*
X110258327Y-103855808D01*
X109914799Y-103713162D01*
X109542833Y-103712838D01*
X109199057Y-103854883D01*
X109165882Y-103888000D01*
X108258463Y-103888000D01*
X108226327Y-103855808D01*
X107882799Y-103713162D01*
X107510833Y-103712838D01*
X107167057Y-103854883D01*
X106903808Y-104117673D01*
X106761162Y-104461201D01*
X106760998Y-104650000D01*
X106480463Y-104650000D01*
X106448327Y-104617808D01*
X106104799Y-104475162D01*
X105732833Y-104474838D01*
X105389057Y-104616883D01*
X105125808Y-104879673D01*
X104983162Y-105223201D01*
X104982998Y-105412000D01*
X104702463Y-105412000D01*
X104670327Y-105379808D01*
X104326799Y-105237162D01*
X103954833Y-105236838D01*
X103611057Y-105378883D01*
X103505046Y-105484710D01*
X103400327Y-105379808D01*
X103056799Y-105237162D01*
X102684833Y-105236838D01*
X102341057Y-105378883D01*
X102238281Y-105481479D01*
X102027122Y-105270320D01*
X102027162Y-105224833D01*
X101885117Y-104881057D01*
X101622327Y-104617808D01*
X101278799Y-104475162D01*
X100906833Y-104474838D01*
X100563057Y-104616883D01*
X100460281Y-104719479D01*
X100249122Y-104508320D01*
X100249162Y-104462833D01*
X100107117Y-104119057D01*
X99844327Y-103855808D01*
X99500799Y-103713162D01*
X99128833Y-103712838D01*
X98785057Y-103854883D01*
X98682281Y-103957479D01*
X98471122Y-103746320D01*
X98471162Y-103700833D01*
X98441894Y-103630000D01*
X165928198Y-103630000D01*
X168023000Y-105724802D01*
X168023000Y-111457995D01*
X167975162Y-111573201D01*
X167974838Y-111945167D01*
X168116883Y-112288943D01*
X168379673Y-112552192D01*
X168723201Y-112694838D01*
X169095167Y-112695162D01*
X169438943Y-112553117D01*
X169702192Y-112290327D01*
X169844838Y-111946799D01*
X169845162Y-111574833D01*
X169703117Y-111231057D01*
X169543000Y-111070660D01*
X169543000Y-105410000D01*
X169485148Y-105119161D01*
X169485148Y-105119160D01*
X169320401Y-104872599D01*
X167569802Y-103122000D01*
X182067889Y-103122000D01*
X181833808Y-103355673D01*
X181691162Y-103699201D01*
X181690838Y-104071167D01*
X181832883Y-104414943D01*
X181866000Y-104448118D01*
X181866000Y-111111687D01*
X181747808Y-111229673D01*
X181605162Y-111573201D01*
X181604838Y-111945167D01*
X181746883Y-112288943D01*
X182009673Y-112552192D01*
X182353201Y-112694838D01*
X182725167Y-112695162D01*
X183068943Y-112553117D01*
X183332192Y-112290327D01*
X183474838Y-111946799D01*
X183474839Y-111945167D01*
X199384838Y-111945167D01*
X199526883Y-112288943D01*
X199789673Y-112552192D01*
X200133201Y-112694838D01*
X200505167Y-112695162D01*
X200848943Y-112553117D01*
X201112192Y-112290327D01*
X201254838Y-111946799D01*
X201254839Y-111945167D01*
X217164838Y-111945167D01*
X217306883Y-112288943D01*
X217569673Y-112552192D01*
X217913201Y-112694838D01*
X218285167Y-112695162D01*
X218628943Y-112553117D01*
X218892192Y-112290327D01*
X219034838Y-111946799D01*
X219035162Y-111574833D01*
X218946000Y-111359044D01*
X218946000Y-105972463D01*
X218978192Y-105940327D01*
X219120838Y-105596799D01*
X219121162Y-105224833D01*
X218979117Y-104881057D01*
X218716327Y-104617808D01*
X218372799Y-104475162D01*
X218000833Y-104474838D01*
X217657057Y-104616883D01*
X217393808Y-104879673D01*
X217251162Y-105223201D01*
X217250838Y-105595167D01*
X217392883Y-105938943D01*
X217426000Y-105972118D01*
X217426000Y-111111687D01*
X217307808Y-111229673D01*
X217165162Y-111573201D01*
X217164838Y-111945167D01*
X201254839Y-111945167D01*
X201255162Y-111574833D01*
X201166000Y-111359044D01*
X201166000Y-105210463D01*
X201198192Y-105178327D01*
X201340838Y-104834799D01*
X201341162Y-104462833D01*
X201199117Y-104119057D01*
X200936327Y-103855808D01*
X200592799Y-103713162D01*
X200220833Y-103712838D01*
X199877057Y-103854883D01*
X199613808Y-104117673D01*
X199471162Y-104461201D01*
X199470838Y-104833167D01*
X199612883Y-105176943D01*
X199646000Y-105210118D01*
X199646000Y-111111687D01*
X199527808Y-111229673D01*
X199385162Y-111573201D01*
X199384838Y-111945167D01*
X183474839Y-111945167D01*
X183475162Y-111574833D01*
X183386000Y-111359044D01*
X183386000Y-104448463D01*
X183418192Y-104416327D01*
X183560838Y-104072799D01*
X183561162Y-103700833D01*
X183419117Y-103357057D01*
X183184470Y-103122000D01*
X227035403Y-103122000D01*
X227044883Y-103144943D01*
X227307673Y-103408192D01*
X227651201Y-103550838D01*
X228023167Y-103551162D01*
X228366943Y-103409117D01*
X228459531Y-103316690D01*
X229552000Y-103316690D01*
X229552000Y-105347250D01*
X229710750Y-105506000D01*
X230505000Y-105506000D01*
X230505000Y-102966750D01*
X230759000Y-102966750D01*
X230759000Y-105506000D01*
X231553250Y-105506000D01*
X231712000Y-105347250D01*
X231712000Y-103316690D01*
X231615327Y-103083301D01*
X231436698Y-102904673D01*
X231203309Y-102808000D01*
X230917750Y-102808000D01*
X230759000Y-102966750D01*
X230505000Y-102966750D01*
X230346250Y-102808000D01*
X230060691Y-102808000D01*
X229827302Y-102904673D01*
X229648673Y-103083301D01*
X229552000Y-103316690D01*
X228459531Y-103316690D01*
X228630192Y-103146327D01*
X228673071Y-103043064D01*
X228785167Y-103043162D01*
X229128943Y-102901117D01*
X229392192Y-102638327D01*
X229435162Y-102534843D01*
X229801167Y-102535162D01*
X230144943Y-102393117D01*
X230408192Y-102130327D01*
X230451162Y-102026843D01*
X230817167Y-102027162D01*
X231160943Y-101885117D01*
X231390829Y-101655631D01*
X232412000Y-102676802D01*
X232412000Y-102676802D01*
G37*
X232412000Y-102676802D02*
X232412000Y-102891113D01*
X232275559Y-102978910D01*
X232130569Y-103191110D01*
X232079560Y-103443000D01*
X232079560Y-107698000D01*
X231712000Y-107698000D01*
X231712000Y-105918750D01*
X231553250Y-105760000D01*
X230759000Y-105760000D01*
X230759000Y-105780000D01*
X230505000Y-105780000D01*
X230505000Y-105760000D01*
X229710750Y-105760000D01*
X229552000Y-105918750D01*
X229552000Y-107698000D01*
X223306597Y-107698000D01*
X223297117Y-107675057D01*
X223034327Y-107411808D01*
X222690799Y-107269162D01*
X222318833Y-107268838D01*
X221975057Y-107410883D01*
X221711808Y-107673673D01*
X221668929Y-107776936D01*
X221556833Y-107776838D01*
X221213057Y-107918883D01*
X220949808Y-108181673D01*
X220906929Y-108284936D01*
X220794833Y-108284838D01*
X220451057Y-108426883D01*
X220187808Y-108689673D01*
X220045162Y-109033201D01*
X220045063Y-109146735D01*
X219943057Y-109188883D01*
X219679808Y-109451673D01*
X219537162Y-109795201D01*
X219536838Y-110167167D01*
X219678883Y-110510943D01*
X219941673Y-110774192D01*
X220285201Y-110916838D01*
X220657167Y-110917162D01*
X221000943Y-110775117D01*
X221034118Y-110742000D01*
X229539560Y-110742000D01*
X229539560Y-113153770D01*
X229138965Y-113634485D01*
X228833057Y-113760883D01*
X228569808Y-114023673D01*
X228459219Y-114290000D01*
X83789351Y-114290000D01*
X83865838Y-114105799D01*
X83866162Y-113733833D01*
X83724117Y-113390057D01*
X83461327Y-113126808D01*
X83117799Y-112984162D01*
X82943812Y-112984010D01*
X78769401Y-108809599D01*
X78522839Y-108644852D01*
X78232000Y-108587000D01*
X66100802Y-108587000D01*
X65457083Y-107943281D01*
X65481440Y-107823000D01*
X65481440Y-103630000D01*
X65836560Y-103630000D01*
X65836560Y-107823000D01*
X65880838Y-108058317D01*
X66019910Y-108274441D01*
X66232110Y-108419431D01*
X66484000Y-108470440D01*
X67374000Y-108470440D01*
X67609317Y-108426162D01*
X67825441Y-108287090D01*
X67970431Y-108074890D01*
X68021440Y-107823000D01*
X68021440Y-107119167D01*
X93933838Y-107119167D01*
X94075883Y-107462943D01*
X94109000Y-107496118D01*
X94109000Y-111250885D01*
X93975162Y-111573201D01*
X93974838Y-111945167D01*
X94116883Y-112288943D01*
X94379673Y-112552192D01*
X94723201Y-112694838D01*
X95095167Y-112695162D01*
X95438943Y-112553117D01*
X95702192Y-112290327D01*
X95844838Y-111946799D01*
X95844839Y-111945167D01*
X111754838Y-111945167D01*
X111896883Y-112288943D01*
X112159673Y-112552192D01*
X112503201Y-112694838D01*
X112875167Y-112695162D01*
X113218943Y-112553117D01*
X113482192Y-112290327D01*
X113624838Y-111946799D01*
X113625162Y-111574833D01*
X113536000Y-111359044D01*
X113536000Y-107881167D01*
X129366838Y-107881167D01*
X129508883Y-108224943D01*
X129542000Y-108258118D01*
X129542000Y-111556733D01*
X129535162Y-111573201D01*
X129534838Y-111945167D01*
X129676883Y-112288943D01*
X129939673Y-112552192D01*
X130283201Y-112694838D01*
X130655167Y-112695162D01*
X130998943Y-112553117D01*
X131262192Y-112290327D01*
X131404838Y-111946799D01*
X131404839Y-111945167D01*
X147314838Y-111945167D01*
X147456883Y-112288943D01*
X147719673Y-112552192D01*
X148063201Y-112694838D01*
X148435167Y-112695162D01*
X148778943Y-112553117D01*
X149042192Y-112290327D01*
X149184838Y-111946799D01*
X149184839Y-111945167D01*
X163824838Y-111945167D01*
X163966883Y-112288943D01*
X164229673Y-112552192D01*
X164573201Y-112694838D01*
X164945167Y-112695162D01*
X165288943Y-112553117D01*
X165552192Y-112290327D01*
X165694838Y-111946799D01*
X165695162Y-111574833D01*
X165606000Y-111359044D01*
X165606000Y-109782463D01*
X165638192Y-109750327D01*
X165780838Y-109406799D01*
X165781162Y-109034833D01*
X165639117Y-108691057D01*
X165376327Y-108427808D01*
X165032799Y-108285162D01*
X164660833Y-108284838D01*
X164317057Y-108426883D01*
X164053808Y-108689673D01*
X163911162Y-109033201D01*
X163910838Y-109405167D01*
X164052883Y-109748943D01*
X164086000Y-109782118D01*
X164086000Y-111111687D01*
X163967808Y-111229673D01*
X163825162Y-111573201D01*
X163824838Y-111945167D01*
X149184839Y-111945167D01*
X149185162Y-111574833D01*
X149096000Y-111359044D01*
X149096000Y-109020463D01*
X149128192Y-108988327D01*
X149270838Y-108644799D01*
X149271162Y-108272833D01*
X149129117Y-107929057D01*
X148866327Y-107665808D01*
X148522799Y-107523162D01*
X148150833Y-107522838D01*
X147807057Y-107664883D01*
X147543808Y-107927673D01*
X147401162Y-108271201D01*
X147400838Y-108643167D01*
X147542883Y-108986943D01*
X147576000Y-109020118D01*
X147576000Y-111111687D01*
X147457808Y-111229673D01*
X147315162Y-111573201D01*
X147314838Y-111945167D01*
X131404839Y-111945167D01*
X131405162Y-111574833D01*
X131263117Y-111231057D01*
X131062000Y-111029589D01*
X131062000Y-108258463D01*
X131094192Y-108226327D01*
X131236838Y-107882799D01*
X131237162Y-107510833D01*
X131095117Y-107167057D01*
X130832327Y-106903808D01*
X130488799Y-106761162D01*
X130116833Y-106760838D01*
X129773057Y-106902883D01*
X129509808Y-107165673D01*
X129367162Y-107509201D01*
X129366838Y-107881167D01*
X113536000Y-107881167D01*
X113536000Y-107496463D01*
X113568192Y-107464327D01*
X113710838Y-107120799D01*
X113711162Y-106748833D01*
X113569117Y-106405057D01*
X113306327Y-106141808D01*
X112962799Y-105999162D01*
X112590833Y-105998838D01*
X112247057Y-106140883D01*
X111983808Y-106403673D01*
X111841162Y-106747201D01*
X111840838Y-107119167D01*
X111982883Y-107462943D01*
X112016000Y-107496118D01*
X112016000Y-111111687D01*
X111897808Y-111229673D01*
X111755162Y-111573201D01*
X111754838Y-111945167D01*
X95844839Y-111945167D01*
X95845162Y-111574833D01*
X95703117Y-111231057D01*
X95629000Y-111156811D01*
X95629000Y-107496463D01*
X95661192Y-107464327D01*
X95803838Y-107120799D01*
X95804162Y-106748833D01*
X95662117Y-106405057D01*
X95399327Y-106141808D01*
X95055799Y-105999162D01*
X94683833Y-105998838D01*
X94340057Y-106140883D01*
X94076808Y-106403673D01*
X93934162Y-106747201D01*
X93933838Y-107119167D01*
X68021440Y-107119167D01*
X68021440Y-104757362D01*
X68211680Y-104567122D01*
X68257167Y-104567162D01*
X68600943Y-104425117D01*
X68864192Y-104162327D01*
X69006838Y-103818799D01*
X69007002Y-103630000D01*
X96629897Y-103630000D01*
X96601162Y-103699201D01*
X96600838Y-104071167D01*
X96742883Y-104414943D01*
X97005673Y-104678192D01*
X97349201Y-104820838D01*
X97396077Y-104820879D01*
X102332599Y-109757401D01*
X102579161Y-109922148D01*
X102870000Y-109980000D01*
X104593537Y-109980000D01*
X104625673Y-110012192D01*
X104969201Y-110154838D01*
X105341167Y-110155162D01*
X105684943Y-110013117D01*
X105948192Y-109750327D01*
X106090838Y-109406799D01*
X106090850Y-109393151D01*
X106103167Y-109393162D01*
X106446943Y-109251117D01*
X106710192Y-108988327D01*
X106852838Y-108644799D01*
X106852850Y-108631151D01*
X106865167Y-108631162D01*
X107208943Y-108489117D01*
X107472192Y-108226327D01*
X107614838Y-107882799D01*
X107614850Y-107869151D01*
X107627167Y-107869162D01*
X107970943Y-107727117D01*
X108234192Y-107464327D01*
X108376838Y-107120799D01*
X108376850Y-107107151D01*
X108389167Y-107107162D01*
X108732943Y-106965117D01*
X108996192Y-106702327D01*
X109138838Y-106358799D01*
X109138850Y-106345151D01*
X109151167Y-106345162D01*
X109494943Y-106203117D01*
X109758192Y-105940327D01*
X109900838Y-105596799D01*
X109900850Y-105583151D01*
X109913167Y-105583162D01*
X110256943Y-105441117D01*
X110520192Y-105178327D01*
X110662838Y-104834799D01*
X110663162Y-104462833D01*
X110521117Y-104119057D01*
X110258327Y-103855808D01*
X109914799Y-103713162D01*
X109542833Y-103712838D01*
X109199057Y-103854883D01*
X109165882Y-103888000D01*
X108258463Y-103888000D01*
X108226327Y-103855808D01*
X107882799Y-103713162D01*
X107510833Y-103712838D01*
X107167057Y-103854883D01*
X106903808Y-104117673D01*
X106761162Y-104461201D01*
X106760998Y-104650000D01*
X106480463Y-104650000D01*
X106448327Y-104617808D01*
X106104799Y-104475162D01*
X105732833Y-104474838D01*
X105389057Y-104616883D01*
X105125808Y-104879673D01*
X104983162Y-105223201D01*
X104982998Y-105412000D01*
X104702463Y-105412000D01*
X104670327Y-105379808D01*
X104326799Y-105237162D01*
X103954833Y-105236838D01*
X103611057Y-105378883D01*
X103505046Y-105484710D01*
X103400327Y-105379808D01*
X103056799Y-105237162D01*
X102684833Y-105236838D01*
X102341057Y-105378883D01*
X102238281Y-105481479D01*
X102027122Y-105270320D01*
X102027162Y-105224833D01*
X101885117Y-104881057D01*
X101622327Y-104617808D01*
X101278799Y-104475162D01*
X100906833Y-104474838D01*
X100563057Y-104616883D01*
X100460281Y-104719479D01*
X100249122Y-104508320D01*
X100249162Y-104462833D01*
X100107117Y-104119057D01*
X99844327Y-103855808D01*
X99500799Y-103713162D01*
X99128833Y-103712838D01*
X98785057Y-103854883D01*
X98682281Y-103957479D01*
X98471122Y-103746320D01*
X98471162Y-103700833D01*
X98441894Y-103630000D01*
X165928198Y-103630000D01*
X168023000Y-105724802D01*
X168023000Y-111457995D01*
X167975162Y-111573201D01*
X167974838Y-111945167D01*
X168116883Y-112288943D01*
X168379673Y-112552192D01*
X168723201Y-112694838D01*
X169095167Y-112695162D01*
X169438943Y-112553117D01*
X169702192Y-112290327D01*
X169844838Y-111946799D01*
X169845162Y-111574833D01*
X169703117Y-111231057D01*
X169543000Y-111070660D01*
X169543000Y-105410000D01*
X169485148Y-105119161D01*
X169485148Y-105119160D01*
X169320401Y-104872599D01*
X167569802Y-103122000D01*
X182067889Y-103122000D01*
X181833808Y-103355673D01*
X181691162Y-103699201D01*
X181690838Y-104071167D01*
X181832883Y-104414943D01*
X181866000Y-104448118D01*
X181866000Y-111111687D01*
X181747808Y-111229673D01*
X181605162Y-111573201D01*
X181604838Y-111945167D01*
X181746883Y-112288943D01*
X182009673Y-112552192D01*
X182353201Y-112694838D01*
X182725167Y-112695162D01*
X183068943Y-112553117D01*
X183332192Y-112290327D01*
X183474838Y-111946799D01*
X183474839Y-111945167D01*
X199384838Y-111945167D01*
X199526883Y-112288943D01*
X199789673Y-112552192D01*
X200133201Y-112694838D01*
X200505167Y-112695162D01*
X200848943Y-112553117D01*
X201112192Y-112290327D01*
X201254838Y-111946799D01*
X201254839Y-111945167D01*
X217164838Y-111945167D01*
X217306883Y-112288943D01*
X217569673Y-112552192D01*
X217913201Y-112694838D01*
X218285167Y-112695162D01*
X218628943Y-112553117D01*
X218892192Y-112290327D01*
X219034838Y-111946799D01*
X219035162Y-111574833D01*
X218946000Y-111359044D01*
X218946000Y-105972463D01*
X218978192Y-105940327D01*
X219120838Y-105596799D01*
X219121162Y-105224833D01*
X218979117Y-104881057D01*
X218716327Y-104617808D01*
X218372799Y-104475162D01*
X218000833Y-104474838D01*
X217657057Y-104616883D01*
X217393808Y-104879673D01*
X217251162Y-105223201D01*
X217250838Y-105595167D01*
X217392883Y-105938943D01*
X217426000Y-105972118D01*
X217426000Y-111111687D01*
X217307808Y-111229673D01*
X217165162Y-111573201D01*
X217164838Y-111945167D01*
X201254839Y-111945167D01*
X201255162Y-111574833D01*
X201166000Y-111359044D01*
X201166000Y-105210463D01*
X201198192Y-105178327D01*
X201340838Y-104834799D01*
X201341162Y-104462833D01*
X201199117Y-104119057D01*
X200936327Y-103855808D01*
X200592799Y-103713162D01*
X200220833Y-103712838D01*
X199877057Y-103854883D01*
X199613808Y-104117673D01*
X199471162Y-104461201D01*
X199470838Y-104833167D01*
X199612883Y-105176943D01*
X199646000Y-105210118D01*
X199646000Y-111111687D01*
X199527808Y-111229673D01*
X199385162Y-111573201D01*
X199384838Y-111945167D01*
X183474839Y-111945167D01*
X183475162Y-111574833D01*
X183386000Y-111359044D01*
X183386000Y-104448463D01*
X183418192Y-104416327D01*
X183560838Y-104072799D01*
X183561162Y-103700833D01*
X183419117Y-103357057D01*
X183184470Y-103122000D01*
X227035403Y-103122000D01*
X227044883Y-103144943D01*
X227307673Y-103408192D01*
X227651201Y-103550838D01*
X228023167Y-103551162D01*
X228366943Y-103409117D01*
X228459531Y-103316690D01*
X229552000Y-103316690D01*
X229552000Y-105347250D01*
X229710750Y-105506000D01*
X230505000Y-105506000D01*
X230505000Y-102966750D01*
X230759000Y-102966750D01*
X230759000Y-105506000D01*
X231553250Y-105506000D01*
X231712000Y-105347250D01*
X231712000Y-103316690D01*
X231615327Y-103083301D01*
X231436698Y-102904673D01*
X231203309Y-102808000D01*
X230917750Y-102808000D01*
X230759000Y-102966750D01*
X230505000Y-102966750D01*
X230346250Y-102808000D01*
X230060691Y-102808000D01*
X229827302Y-102904673D01*
X229648673Y-103083301D01*
X229552000Y-103316690D01*
X228459531Y-103316690D01*
X228630192Y-103146327D01*
X228673071Y-103043064D01*
X228785167Y-103043162D01*
X229128943Y-102901117D01*
X229392192Y-102638327D01*
X229435162Y-102534843D01*
X229801167Y-102535162D01*
X230144943Y-102393117D01*
X230408192Y-102130327D01*
X230451162Y-102026843D01*
X230817167Y-102027162D01*
X231160943Y-101885117D01*
X231390829Y-101655631D01*
X232412000Y-102676802D01*
M02*
