G04 #@! TF.FileFunction,Copper,L1,Top,Signal*
%FSLAX46Y46*%
G04 Gerber Fmt 4.6, Leading zero omitted, Abs format (unit mm)*
G04 Created by KiCad (PCBNEW 4.0.0-1rc2.201511291916+6190~38~ubuntu14.04.1-stable) date Mon 14 Mar 2016 12:19:52 PM PDT*
%MOMM*%
G01*
G04 APERTURE LIST*
%ADD10C,0.100000*%
%ADD11R,2.032000X1.727200*%
%ADD12O,2.032000X1.727200*%
%ADD13C,1.500000*%
%ADD14R,1.500000X1.500000*%
%ADD15C,1.300000*%
%ADD16R,1.150000X0.750000*%
%ADD17R,0.950000X1.400000*%
%ADD18C,7.000000*%
%ADD19C,0.600000*%
%ADD20C,0.250000*%
%ADD21C,0.254000*%
G04 APERTURE END LIST*
D10*
D11*
X101600000Y-189484000D03*
D12*
X101600000Y-186944000D03*
X101600000Y-184404000D03*
X101600000Y-181864000D03*
X101600000Y-179324000D03*
X101600000Y-176784000D03*
X101600000Y-174244000D03*
X101600000Y-171704000D03*
D13*
X114000000Y-7920000D03*
X114000000Y-10460000D03*
X114000000Y-13000000D03*
X114000000Y-15540000D03*
X114000000Y-18080000D03*
X127080000Y-182350000D03*
X124540000Y-182350000D03*
X122000000Y-182350000D03*
X119460000Y-182350000D03*
X116920000Y-182350000D03*
D14*
X127080000Y-168650000D03*
D13*
X124540000Y-168650000D03*
X116920000Y-168650000D03*
X119460000Y-168650000D03*
X122000000Y-168650000D03*
X116920000Y-35400000D03*
X119460000Y-35400000D03*
X122000000Y-35400000D03*
X124540000Y-35400000D03*
X127080000Y-35400000D03*
D14*
X116920000Y-49100000D03*
D13*
X119460000Y-49100000D03*
X127080000Y-49100000D03*
X124540000Y-49100000D03*
X122000000Y-49100000D03*
X116920000Y-69400000D03*
X119460000Y-69400000D03*
X122000000Y-69400000D03*
X124540000Y-69400000D03*
X127080000Y-69400000D03*
D14*
X116920000Y-83100000D03*
D13*
X119460000Y-83100000D03*
X127080000Y-83100000D03*
X124540000Y-83100000D03*
X122000000Y-83100000D03*
D15*
X130890000Y-124990000D03*
X128350000Y-124990000D03*
X125810000Y-124990000D03*
X123270000Y-124990000D03*
X120730000Y-124990000D03*
X118190000Y-124990000D03*
X115650000Y-124990000D03*
X113110000Y-124990000D03*
D16*
X112425000Y-21975000D03*
X115575000Y-21975000D03*
X112425000Y-25025000D03*
D17*
X116075000Y-23500000D03*
X111925000Y-23500000D03*
D16*
X115575000Y-25025000D03*
X108425000Y-132975000D03*
X111575000Y-132975000D03*
X108425000Y-136025000D03*
D17*
X112075000Y-134500000D03*
X107925000Y-134500000D03*
D16*
X111575000Y-136025000D03*
X108425000Y-144225000D03*
X111575000Y-144225000D03*
X108425000Y-147275000D03*
D17*
X112075000Y-145750000D03*
X107925000Y-145750000D03*
D16*
X111575000Y-147275000D03*
X108425000Y-155475000D03*
X111575000Y-155475000D03*
X108425000Y-158525000D03*
D17*
X112075000Y-157000000D03*
X107925000Y-157000000D03*
D16*
X111575000Y-158525000D03*
X130575000Y-136025000D03*
X127425000Y-136025000D03*
X130575000Y-132975000D03*
D17*
X126925000Y-134500000D03*
X131075000Y-134500000D03*
D16*
X127425000Y-132975000D03*
X130575000Y-147275000D03*
X127425000Y-147275000D03*
X130575000Y-144225000D03*
D17*
X126925000Y-145750000D03*
X131075000Y-145750000D03*
D16*
X127425000Y-144225000D03*
X130575000Y-158525000D03*
X127425000Y-158525000D03*
X130575000Y-155475000D03*
D17*
X126925000Y-157000000D03*
X131075000Y-157000000D03*
D16*
X127425000Y-155475000D03*
D18*
X134620000Y-10668000D03*
X103886000Y-5588000D03*
X134620000Y-179832000D03*
D19*
X109982000Y-131318000D03*
X109982000Y-126746000D03*
X107442000Y-171704000D03*
X108204000Y-162560000D03*
X115062000Y-184404000D03*
X106934000Y-175768000D03*
X125476000Y-134366000D03*
X117348000Y-134620000D03*
X117348000Y-156972000D03*
X117348000Y-145796000D03*
X136906000Y-124968000D03*
X136906000Y-51562000D03*
X136906000Y-67564000D03*
X136906000Y-84582000D03*
X137668000Y-25146000D03*
X117348000Y-23622000D03*
X137668000Y-33782000D03*
X137668000Y-50546000D03*
X134366000Y-151638000D03*
X120904000Y-151638000D03*
X105918000Y-36068000D03*
X105156000Y-34544000D03*
X105156000Y-129032000D03*
X106680000Y-129032000D03*
X105156000Y-160528000D03*
X106680000Y-160528000D03*
X106934000Y-186182000D03*
X103124000Y-186182000D03*
X104394000Y-52324000D03*
X104394000Y-84582000D03*
X104394000Y-156972000D03*
X106680000Y-156972000D03*
X104394000Y-164592000D03*
X107188000Y-164592000D03*
X103632000Y-49530000D03*
X103632000Y-69596000D03*
X103632000Y-142240000D03*
X106680000Y-142240000D03*
X103632000Y-165354000D03*
X120142000Y-165354000D03*
X106680000Y-165354000D03*
X102870000Y-24384000D03*
X110744000Y-23622000D03*
X102870000Y-67564000D03*
X102870000Y-145796000D03*
X106680000Y-145796000D03*
X102870000Y-163830000D03*
X106680000Y-163830000D03*
X102108000Y-85344000D03*
X102108000Y-138684000D03*
X106680000Y-138684000D03*
X101346000Y-83058000D03*
X101346000Y-134366000D03*
X106680000Y-134366000D03*
X100584000Y-50546000D03*
X106680000Y-130048000D03*
X100584000Y-130048000D03*
D20*
X111575000Y-132975000D02*
X111575000Y-132911000D01*
X111575000Y-132911000D02*
X109982000Y-131318000D01*
X118110000Y-165862000D02*
X118618000Y-165862000D01*
X119460000Y-166704000D02*
X119460000Y-168650000D01*
X118618000Y-165862000D02*
X119460000Y-166704000D01*
X122000000Y-168650000D02*
X119460000Y-168650000D01*
X111252000Y-175768000D02*
X113284000Y-173736000D01*
X116586000Y-165862000D02*
X118110000Y-165862000D01*
X113284000Y-169164000D02*
X116586000Y-165862000D01*
X113284000Y-173736000D02*
X113284000Y-169164000D01*
X113284000Y-182626000D02*
X115062000Y-184404000D01*
X113284000Y-177800000D02*
X113284000Y-182626000D01*
X111252000Y-175768000D02*
X113284000Y-177800000D01*
X106934000Y-175768000D02*
X111252000Y-175768000D01*
X125476000Y-134366000D02*
X125476000Y-134500000D01*
X125476000Y-134500000D02*
X125476000Y-134366000D01*
X118618000Y-134500000D02*
X125610000Y-134500000D01*
X117348000Y-134620000D02*
X117348000Y-134500000D01*
X117348000Y-134500000D02*
X117348000Y-134620000D01*
X117348000Y-134620000D02*
X117348000Y-134500000D01*
X118618000Y-134500000D02*
X117348000Y-134500000D01*
X117348000Y-134500000D02*
X112075000Y-134500000D01*
X112075000Y-145750000D02*
X117302000Y-145750000D01*
X117302000Y-145750000D02*
X117348000Y-145796000D01*
X117348000Y-156972000D02*
X126897000Y-156972000D01*
X126897000Y-156972000D02*
X126925000Y-157000000D01*
X112075000Y-157000000D02*
X117320000Y-157000000D01*
X117320000Y-157000000D02*
X117348000Y-156972000D01*
X126925000Y-145750000D02*
X117394000Y-145750000D01*
X117394000Y-145750000D02*
X117348000Y-145796000D01*
X118484000Y-134500000D02*
X118618000Y-134500000D01*
X125342000Y-134500000D02*
X125730000Y-134500000D01*
X125730000Y-134500000D02*
X126925000Y-134500000D01*
X130890000Y-124990000D02*
X136884000Y-124990000D01*
X136884000Y-124990000D02*
X136906000Y-124968000D01*
X122000000Y-49100000D02*
X122252000Y-49100000D01*
X122252000Y-49100000D02*
X124714000Y-51562000D01*
X124714000Y-51562000D02*
X136906000Y-51562000D01*
X134874000Y-67564000D02*
X136906000Y-67564000D01*
X119460000Y-69400000D02*
X119460000Y-68754000D01*
X119460000Y-68754000D02*
X120650000Y-67564000D01*
X120650000Y-67564000D02*
X134874000Y-67564000D01*
X134874000Y-67564000D02*
X135128000Y-67564000D01*
X122000000Y-83100000D02*
X124540000Y-83100000D01*
X124540000Y-83100000D02*
X126022000Y-84582000D01*
X126022000Y-84582000D02*
X136906000Y-84582000D01*
X117348000Y-23622000D02*
X136144000Y-23622000D01*
X136144000Y-23622000D02*
X137668000Y-25146000D01*
X117226000Y-23500000D02*
X116075000Y-23500000D01*
X117348000Y-23622000D02*
X117226000Y-23500000D01*
X119460000Y-35400000D02*
X119460000Y-34718000D01*
X119460000Y-34718000D02*
X120396000Y-33782000D01*
X120396000Y-33782000D02*
X137668000Y-33782000D01*
X124540000Y-49100000D02*
X124540000Y-49102000D01*
X124540000Y-49102000D02*
X125984000Y-50546000D01*
X125984000Y-50546000D02*
X137668000Y-50546000D01*
X120904000Y-151638000D02*
X134366000Y-151638000D01*
X105918000Y-127000000D02*
X105918000Y-128270000D01*
X105918000Y-36068000D02*
X105918000Y-127000000D01*
X120730000Y-124990000D02*
X120730000Y-127682000D01*
X120142000Y-128270000D02*
X105918000Y-128270000D01*
X120730000Y-127682000D02*
X120142000Y-128270000D01*
X103886000Y-186944000D02*
X125222000Y-186944000D01*
X127080000Y-185086000D02*
X127080000Y-182350000D01*
X125222000Y-186944000D02*
X127080000Y-185086000D01*
X105918000Y-169286806D02*
X105918000Y-128270000D01*
X106680000Y-170048806D02*
X105918000Y-169286806D01*
X106680000Y-173990000D02*
X106680000Y-170048806D01*
X106172000Y-174498000D02*
X106680000Y-173990000D01*
X106172000Y-176022000D02*
X106172000Y-174498000D01*
X105664000Y-176530000D02*
X106172000Y-176022000D01*
X105664000Y-178308000D02*
X105664000Y-176530000D01*
X104902000Y-179070000D02*
X105664000Y-178308000D01*
X104902000Y-180594000D02*
X104902000Y-179070000D01*
X104394000Y-181102000D02*
X104902000Y-180594000D01*
X104394000Y-182880000D02*
X104394000Y-181102000D01*
X103886000Y-183388000D02*
X104394000Y-182880000D01*
X103886000Y-186944000D02*
X103886000Y-183388000D01*
X103886000Y-186944000D02*
X101600000Y-189230000D01*
X101600000Y-189484000D02*
X101600000Y-189230000D01*
X105156000Y-34544000D02*
X105156000Y-36068000D01*
X123270000Y-124990000D02*
X123270000Y-126920000D01*
X121158000Y-129032000D02*
X106680000Y-129032000D01*
X123270000Y-126920000D02*
X121158000Y-129032000D01*
X131075000Y-157000000D02*
X131600000Y-157000000D01*
X131318000Y-160528000D02*
X106680000Y-160528000D01*
X132588000Y-159258000D02*
X131318000Y-160528000D01*
X132588000Y-157988000D02*
X132588000Y-159258000D01*
X131600000Y-157000000D02*
X132588000Y-157988000D01*
X105156000Y-36068000D02*
X105156000Y-45720000D01*
X103124000Y-185166000D02*
X102616000Y-185674000D01*
X103124000Y-185166000D02*
X103124000Y-183388000D01*
X103124000Y-183388000D02*
X103886000Y-182626000D01*
X103886000Y-182626000D02*
X103886000Y-180848000D01*
X103886000Y-180848000D02*
X104394000Y-180340000D01*
X104394000Y-180340000D02*
X104394000Y-178816000D01*
X104394000Y-178816000D02*
X105156000Y-178054000D01*
X105156000Y-178054000D02*
X105156000Y-176276000D01*
X105156000Y-176276000D02*
X105664000Y-175768000D01*
X105664000Y-175768000D02*
X105664000Y-174244000D01*
X105664000Y-174244000D02*
X106172000Y-173736000D01*
X106172000Y-173736000D02*
X106172000Y-170177204D01*
X106172000Y-170177204D02*
X105156000Y-169161204D01*
X105156000Y-169161204D02*
X105156000Y-160528000D01*
X105156000Y-160528000D02*
X105156000Y-129032000D01*
X105156000Y-129032000D02*
X105156000Y-126746000D01*
X105156000Y-45720000D02*
X105156000Y-126746000D01*
X102616000Y-185674000D02*
X103124000Y-186182000D01*
X116920000Y-184578000D02*
X116920000Y-182350000D01*
X115316000Y-186182000D02*
X116920000Y-184578000D01*
X106934000Y-186182000D02*
X115316000Y-186182000D01*
X101600000Y-186944000D02*
X101600000Y-186690000D01*
X101600000Y-186690000D02*
X102616000Y-185674000D01*
X107925000Y-157000000D02*
X106708000Y-157000000D01*
X106708000Y-157000000D02*
X106680000Y-156972000D01*
X124540000Y-168650000D02*
X124540000Y-167466000D01*
X121666000Y-164592000D02*
X124540000Y-167466000D01*
X107188000Y-164592000D02*
X121666000Y-164592000D01*
X101600000Y-184404000D02*
X101600000Y-184150000D01*
X101600000Y-184150000D02*
X103378000Y-182372000D01*
X103378000Y-182372000D02*
X103378000Y-180594000D01*
X103378000Y-180594000D02*
X103886000Y-180086000D01*
X103886000Y-180086000D02*
X103886000Y-178562000D01*
X103886000Y-178562000D02*
X104648000Y-177800000D01*
X104648000Y-177800000D02*
X104648000Y-176022000D01*
X104648000Y-176022000D02*
X105156000Y-175514000D01*
X105156000Y-175514000D02*
X105156000Y-173990000D01*
X105156000Y-173990000D02*
X105664000Y-173482000D01*
X105664000Y-173482000D02*
X105664000Y-170305602D01*
X105664000Y-170305602D02*
X104394000Y-169035602D01*
X104394000Y-169035602D02*
X104394000Y-164592000D01*
X104394000Y-164592000D02*
X104394000Y-156972000D01*
X104394000Y-156972000D02*
X104394000Y-84582000D01*
X104394000Y-84582000D02*
X104394000Y-52324000D01*
X103632000Y-49530000D02*
X103632000Y-69596000D01*
X131075000Y-145750000D02*
X131618000Y-145750000D01*
X131318000Y-142240000D02*
X106680000Y-142240000D01*
X132588000Y-143510000D02*
X131318000Y-142240000D01*
X132588000Y-144780000D02*
X132588000Y-143510000D01*
X131618000Y-145750000D02*
X132588000Y-144780000D01*
X106680000Y-165354000D02*
X120142000Y-165354000D01*
X103632000Y-69596000D02*
X103632000Y-142240000D01*
X103632000Y-142240000D02*
X103632000Y-165354000D01*
X103632000Y-165354000D02*
X103632000Y-168910000D01*
X105156000Y-170434000D02*
X103632000Y-168910000D01*
X105156000Y-173228000D02*
X105156000Y-170434000D01*
X104648000Y-173736000D02*
X105156000Y-173228000D01*
X104648000Y-175260000D02*
X104648000Y-173736000D01*
X104140000Y-175768000D02*
X104648000Y-175260000D01*
X104140000Y-177546000D02*
X104140000Y-175768000D01*
X103378000Y-178308000D02*
X104140000Y-177546000D01*
X103378000Y-179832000D02*
X103378000Y-178308000D01*
X103378000Y-179832000D02*
X101600000Y-181610000D01*
X101600000Y-181864000D02*
X101600000Y-181610000D01*
X111925000Y-23500000D02*
X110866000Y-23500000D01*
X110866000Y-23500000D02*
X110744000Y-23622000D01*
X107925000Y-145750000D02*
X106726000Y-145750000D01*
X106726000Y-145750000D02*
X106680000Y-145796000D01*
X127080000Y-167974000D02*
X122936000Y-163830000D01*
X106680000Y-163830000D02*
X122936000Y-163830000D01*
X127080000Y-167974000D02*
X127080000Y-168650000D01*
X103124000Y-169164000D02*
X102870000Y-168910000D01*
X102870000Y-168910000D02*
X102870000Y-163830000D01*
X101600000Y-179070000D02*
X103378000Y-177292000D01*
X103378000Y-177292000D02*
X103378000Y-175768000D01*
X103378000Y-175768000D02*
X104140000Y-175006000D01*
X104140000Y-175006000D02*
X104140000Y-173482000D01*
X104140000Y-173482000D02*
X104648000Y-172974000D01*
X104648000Y-172974000D02*
X104648000Y-170688000D01*
X104648000Y-170688000D02*
X103124000Y-169164000D01*
X102870000Y-163830000D02*
X102870000Y-145796000D01*
X102870000Y-145796000D02*
X102870000Y-67564000D01*
X102870000Y-67564000D02*
X102870000Y-24384000D01*
X101600000Y-179324000D02*
X101600000Y-179070000D01*
X102108000Y-19558000D02*
X102108000Y-19304000D01*
X102108000Y-85344000D02*
X102108000Y-19558000D01*
X103332000Y-18080000D02*
X114000000Y-18080000D01*
X102108000Y-19304000D02*
X103332000Y-18080000D01*
X131075000Y-134500000D02*
X131706000Y-134500000D01*
X131064000Y-138684000D02*
X106680000Y-138684000D01*
X132588000Y-137160000D02*
X131064000Y-138684000D01*
X132588000Y-135382000D02*
X132588000Y-137160000D01*
X131706000Y-134500000D02*
X132588000Y-135382000D01*
X102362000Y-169164000D02*
X102108000Y-168910000D01*
X104140000Y-170942000D02*
X102362000Y-169164000D01*
X104140000Y-172466000D02*
X104140000Y-170942000D01*
X103378000Y-173228000D02*
X104140000Y-172466000D01*
X103378000Y-174752000D02*
X103378000Y-173228000D01*
X101600000Y-176530000D02*
X103378000Y-174752000D01*
X102108000Y-168910000D02*
X102108000Y-138684000D01*
X102108000Y-138684000D02*
X102108000Y-85344000D01*
X101600000Y-176784000D02*
X101600000Y-176530000D01*
X101346000Y-18796000D02*
X101346000Y-18288000D01*
X101346000Y-83058000D02*
X101346000Y-18796000D01*
X104094000Y-15540000D02*
X114000000Y-15540000D01*
X101346000Y-18288000D02*
X104094000Y-15540000D01*
X107925000Y-134500000D02*
X106814000Y-134500000D01*
X106814000Y-134500000D02*
X106680000Y-134366000D01*
X101346000Y-83058000D02*
X101346000Y-134366000D01*
X101346000Y-134366000D02*
X101346000Y-165608000D01*
X101346000Y-169164000D02*
X101346000Y-165608000D01*
X103378000Y-171196000D02*
X101346000Y-169164000D01*
X103378000Y-172212000D02*
X103378000Y-171196000D01*
X103378000Y-172212000D02*
X101600000Y-173990000D01*
X101600000Y-174244000D02*
X101600000Y-173990000D01*
X100584000Y-14986000D02*
X104902000Y-10668000D01*
X100584000Y-50546000D02*
X100584000Y-14986000D01*
X104902000Y-10668000D02*
X113792000Y-10668000D01*
X113792000Y-10668000D02*
X114000000Y-10460000D01*
X125810000Y-124990000D02*
X125810000Y-125142000D01*
X125810000Y-125142000D02*
X120904000Y-130048000D01*
X120904000Y-130048000D02*
X106680000Y-130048000D01*
X101600000Y-171704000D02*
X101600000Y-170688000D01*
X100584000Y-169672000D02*
X100584000Y-130048000D01*
X100584000Y-130048000D02*
X100584000Y-50546000D01*
X101600000Y-170688000D02*
X100584000Y-169672000D01*
D21*
G36*
X137790000Y-177154655D02*
X136965347Y-176328562D01*
X135446111Y-175697720D01*
X133801106Y-175696284D01*
X132280771Y-176324474D01*
X131116562Y-177486653D01*
X130485720Y-179005889D01*
X130484284Y-180650894D01*
X131112474Y-182171229D01*
X132274653Y-183335438D01*
X133793889Y-183966280D01*
X135438894Y-183967716D01*
X136959229Y-183339526D01*
X137790000Y-182510204D01*
X137790000Y-185917318D01*
X136639411Y-186146184D01*
X136408450Y-186241852D01*
X136383470Y-186252199D01*
X134923564Y-187227675D01*
X134759092Y-187392148D01*
X134727675Y-187423565D01*
X133752198Y-188883470D01*
X133690097Y-189033397D01*
X133646184Y-189139411D01*
X133417318Y-190290000D01*
X103263440Y-190290000D01*
X103263440Y-188641362D01*
X104200802Y-187704000D01*
X125222000Y-187704000D01*
X125512839Y-187646148D01*
X125759401Y-187481401D01*
X127617401Y-185623401D01*
X127782148Y-185376839D01*
X127840000Y-185086000D01*
X127840000Y-183534547D01*
X127863515Y-183524831D01*
X128253461Y-183135564D01*
X128464759Y-182626702D01*
X128465240Y-182075715D01*
X128440236Y-182015200D01*
X128752600Y-182015200D01*
X129024305Y-181961154D01*
X129254646Y-181807246D01*
X129408554Y-181576905D01*
X129462600Y-181305200D01*
X129462600Y-169697400D01*
X129408554Y-169425695D01*
X129254646Y-169195354D01*
X129024305Y-169041446D01*
X128752600Y-168987400D01*
X128477440Y-168987400D01*
X128477440Y-167900000D01*
X128433162Y-167664683D01*
X128294090Y-167448559D01*
X128081890Y-167303569D01*
X127830000Y-167252560D01*
X127433362Y-167252560D01*
X123473401Y-163292599D01*
X123226839Y-163127852D01*
X122936000Y-163070000D01*
X107242463Y-163070000D01*
X107210327Y-163037808D01*
X106866799Y-162895162D01*
X106678000Y-162894998D01*
X106678000Y-161462999D01*
X106865167Y-161463162D01*
X107208943Y-161321117D01*
X107242118Y-161288000D01*
X131318000Y-161288000D01*
X131608839Y-161230148D01*
X131855401Y-161065401D01*
X133125401Y-159795401D01*
X133290148Y-159548840D01*
X133348000Y-159258000D01*
X133348000Y-157988000D01*
X133290148Y-157697161D01*
X133125401Y-157450599D01*
X132197440Y-156522638D01*
X132197440Y-156300000D01*
X132153162Y-156064683D01*
X132014090Y-155848559D01*
X131801890Y-155703569D01*
X131709010Y-155684760D01*
X131626250Y-155602000D01*
X130702000Y-155602000D01*
X130702000Y-155622000D01*
X130448000Y-155622000D01*
X130448000Y-155602000D01*
X129523750Y-155602000D01*
X129365000Y-155760750D01*
X129365000Y-155976310D01*
X129461673Y-156209699D01*
X129640302Y-156388327D01*
X129873691Y-156485000D01*
X129952560Y-156485000D01*
X129952560Y-157515000D01*
X129873691Y-157515000D01*
X129640302Y-157611673D01*
X129461673Y-157790301D01*
X129365000Y-158023690D01*
X129365000Y-158239250D01*
X129523750Y-158398000D01*
X130448000Y-158398000D01*
X130448000Y-158378000D01*
X130702000Y-158378000D01*
X130702000Y-158398000D01*
X131626250Y-158398000D01*
X131706201Y-158318049D01*
X131785317Y-158303162D01*
X131811507Y-158286309D01*
X131828000Y-158302802D01*
X131828000Y-158943198D01*
X131785000Y-158986198D01*
X131785000Y-158810750D01*
X131626250Y-158652000D01*
X130702000Y-158652000D01*
X130702000Y-159376250D01*
X130860750Y-159535000D01*
X131236198Y-159535000D01*
X131003198Y-159768000D01*
X107242463Y-159768000D01*
X107210327Y-159735808D01*
X106866799Y-159593162D01*
X106678000Y-159592998D01*
X106678000Y-158810750D01*
X107215000Y-158810750D01*
X107215000Y-159026310D01*
X107311673Y-159259699D01*
X107490302Y-159438327D01*
X107723691Y-159535000D01*
X108139250Y-159535000D01*
X108298000Y-159376250D01*
X108298000Y-158652000D01*
X108552000Y-158652000D01*
X108552000Y-159376250D01*
X108710750Y-159535000D01*
X109126309Y-159535000D01*
X109359698Y-159438327D01*
X109538327Y-159259699D01*
X109635000Y-159026310D01*
X109635000Y-158810750D01*
X110365000Y-158810750D01*
X110365000Y-159026310D01*
X110461673Y-159259699D01*
X110640302Y-159438327D01*
X110873691Y-159535000D01*
X111289250Y-159535000D01*
X111448000Y-159376250D01*
X111448000Y-158652000D01*
X111702000Y-158652000D01*
X111702000Y-159376250D01*
X111860750Y-159535000D01*
X112276309Y-159535000D01*
X112509698Y-159438327D01*
X112688327Y-159259699D01*
X112785000Y-159026310D01*
X112785000Y-158810750D01*
X126215000Y-158810750D01*
X126215000Y-159026310D01*
X126311673Y-159259699D01*
X126490302Y-159438327D01*
X126723691Y-159535000D01*
X127139250Y-159535000D01*
X127298000Y-159376250D01*
X127298000Y-158652000D01*
X127552000Y-158652000D01*
X127552000Y-159376250D01*
X127710750Y-159535000D01*
X128126309Y-159535000D01*
X128359698Y-159438327D01*
X128538327Y-159259699D01*
X128635000Y-159026310D01*
X128635000Y-158810750D01*
X129365000Y-158810750D01*
X129365000Y-159026310D01*
X129461673Y-159259699D01*
X129640302Y-159438327D01*
X129873691Y-159535000D01*
X130289250Y-159535000D01*
X130448000Y-159376250D01*
X130448000Y-158652000D01*
X129523750Y-158652000D01*
X129365000Y-158810750D01*
X128635000Y-158810750D01*
X128476250Y-158652000D01*
X127552000Y-158652000D01*
X127298000Y-158652000D01*
X126373750Y-158652000D01*
X126215000Y-158810750D01*
X112785000Y-158810750D01*
X112626250Y-158652000D01*
X111702000Y-158652000D01*
X111448000Y-158652000D01*
X110523750Y-158652000D01*
X110365000Y-158810750D01*
X109635000Y-158810750D01*
X109476250Y-158652000D01*
X108552000Y-158652000D01*
X108298000Y-158652000D01*
X107373750Y-158652000D01*
X107215000Y-158810750D01*
X106678000Y-158810750D01*
X106678000Y-157906999D01*
X106841536Y-157907141D01*
X106846838Y-157935317D01*
X106985910Y-158151441D01*
X107198110Y-158296431D01*
X107290990Y-158315240D01*
X107373750Y-158398000D01*
X108298000Y-158398000D01*
X108298000Y-158378000D01*
X108552000Y-158378000D01*
X108552000Y-158398000D01*
X109476250Y-158398000D01*
X109635000Y-158239250D01*
X109635000Y-158023690D01*
X109538327Y-157790301D01*
X109359698Y-157611673D01*
X109126309Y-157515000D01*
X109047440Y-157515000D01*
X109047440Y-156485000D01*
X109126309Y-156485000D01*
X109359698Y-156388327D01*
X109538327Y-156209699D01*
X109635000Y-155976310D01*
X109635000Y-155760750D01*
X110365000Y-155760750D01*
X110365000Y-155976310D01*
X110461673Y-156209699D01*
X110640302Y-156388327D01*
X110873691Y-156485000D01*
X110952560Y-156485000D01*
X110952560Y-157515000D01*
X110873691Y-157515000D01*
X110640302Y-157611673D01*
X110461673Y-157790301D01*
X110365000Y-158023690D01*
X110365000Y-158239250D01*
X110523750Y-158398000D01*
X111448000Y-158398000D01*
X111448000Y-158378000D01*
X111702000Y-158378000D01*
X111702000Y-158398000D01*
X112626250Y-158398000D01*
X112706201Y-158318049D01*
X112785317Y-158303162D01*
X113001441Y-158164090D01*
X113146431Y-157951890D01*
X113185290Y-157760000D01*
X116813488Y-157760000D01*
X116817673Y-157764192D01*
X117161201Y-157906838D01*
X117533167Y-157907162D01*
X117876943Y-157765117D01*
X117910118Y-157732000D01*
X125808581Y-157732000D01*
X125846838Y-157935317D01*
X125985910Y-158151441D01*
X126198110Y-158296431D01*
X126290990Y-158315240D01*
X126373750Y-158398000D01*
X127298000Y-158398000D01*
X127298000Y-158378000D01*
X127552000Y-158378000D01*
X127552000Y-158398000D01*
X128476250Y-158398000D01*
X128635000Y-158239250D01*
X128635000Y-158023690D01*
X128538327Y-157790301D01*
X128359698Y-157611673D01*
X128126309Y-157515000D01*
X128047440Y-157515000D01*
X128047440Y-156485000D01*
X128126309Y-156485000D01*
X128359698Y-156388327D01*
X128538327Y-156209699D01*
X128635000Y-155976310D01*
X128635000Y-155760750D01*
X128476250Y-155602000D01*
X127552000Y-155602000D01*
X127552000Y-155622000D01*
X127298000Y-155622000D01*
X127298000Y-155602000D01*
X126373750Y-155602000D01*
X126293799Y-155681951D01*
X126214683Y-155696838D01*
X125998559Y-155835910D01*
X125853569Y-156048110D01*
X125820380Y-156212000D01*
X117910463Y-156212000D01*
X117878327Y-156179808D01*
X117534799Y-156037162D01*
X117162833Y-156036838D01*
X116819057Y-156178883D01*
X116757833Y-156240000D01*
X113186150Y-156240000D01*
X113153162Y-156064683D01*
X113014090Y-155848559D01*
X112801890Y-155703569D01*
X112709010Y-155684760D01*
X112626250Y-155602000D01*
X111702000Y-155602000D01*
X111702000Y-155622000D01*
X111448000Y-155622000D01*
X111448000Y-155602000D01*
X110523750Y-155602000D01*
X110365000Y-155760750D01*
X109635000Y-155760750D01*
X109476250Y-155602000D01*
X108552000Y-155602000D01*
X108552000Y-155622000D01*
X108298000Y-155622000D01*
X108298000Y-155602000D01*
X107373750Y-155602000D01*
X107293799Y-155681951D01*
X107214683Y-155696838D01*
X106998559Y-155835910D01*
X106861053Y-156037157D01*
X106678000Y-156036998D01*
X106678000Y-154973690D01*
X107215000Y-154973690D01*
X107215000Y-155189250D01*
X107373750Y-155348000D01*
X108298000Y-155348000D01*
X108298000Y-154623750D01*
X108552000Y-154623750D01*
X108552000Y-155348000D01*
X109476250Y-155348000D01*
X109635000Y-155189250D01*
X109635000Y-154973690D01*
X110365000Y-154973690D01*
X110365000Y-155189250D01*
X110523750Y-155348000D01*
X111448000Y-155348000D01*
X111448000Y-154623750D01*
X111702000Y-154623750D01*
X111702000Y-155348000D01*
X112626250Y-155348000D01*
X112785000Y-155189250D01*
X112785000Y-154973690D01*
X126215000Y-154973690D01*
X126215000Y-155189250D01*
X126373750Y-155348000D01*
X127298000Y-155348000D01*
X127298000Y-154623750D01*
X127552000Y-154623750D01*
X127552000Y-155348000D01*
X128476250Y-155348000D01*
X128635000Y-155189250D01*
X128635000Y-154973690D01*
X129365000Y-154973690D01*
X129365000Y-155189250D01*
X129523750Y-155348000D01*
X130448000Y-155348000D01*
X130448000Y-154623750D01*
X130702000Y-154623750D01*
X130702000Y-155348000D01*
X131626250Y-155348000D01*
X131785000Y-155189250D01*
X131785000Y-154973690D01*
X131688327Y-154740301D01*
X131509698Y-154561673D01*
X131276309Y-154465000D01*
X130860750Y-154465000D01*
X130702000Y-154623750D01*
X130448000Y-154623750D01*
X130289250Y-154465000D01*
X129873691Y-154465000D01*
X129640302Y-154561673D01*
X129461673Y-154740301D01*
X129365000Y-154973690D01*
X128635000Y-154973690D01*
X128538327Y-154740301D01*
X128359698Y-154561673D01*
X128126309Y-154465000D01*
X127710750Y-154465000D01*
X127552000Y-154623750D01*
X127298000Y-154623750D01*
X127139250Y-154465000D01*
X126723691Y-154465000D01*
X126490302Y-154561673D01*
X126311673Y-154740301D01*
X126215000Y-154973690D01*
X112785000Y-154973690D01*
X112688327Y-154740301D01*
X112509698Y-154561673D01*
X112276309Y-154465000D01*
X111860750Y-154465000D01*
X111702000Y-154623750D01*
X111448000Y-154623750D01*
X111289250Y-154465000D01*
X110873691Y-154465000D01*
X110640302Y-154561673D01*
X110461673Y-154740301D01*
X110365000Y-154973690D01*
X109635000Y-154973690D01*
X109538327Y-154740301D01*
X109359698Y-154561673D01*
X109126309Y-154465000D01*
X108710750Y-154465000D01*
X108552000Y-154623750D01*
X108298000Y-154623750D01*
X108139250Y-154465000D01*
X107723691Y-154465000D01*
X107490302Y-154561673D01*
X107311673Y-154740301D01*
X107215000Y-154973690D01*
X106678000Y-154973690D01*
X106678000Y-151823167D01*
X119968838Y-151823167D01*
X120110883Y-152166943D01*
X120373673Y-152430192D01*
X120717201Y-152572838D01*
X121089167Y-152573162D01*
X121432943Y-152431117D01*
X121466118Y-152398000D01*
X133803537Y-152398000D01*
X133835673Y-152430192D01*
X134179201Y-152572838D01*
X134551167Y-152573162D01*
X134894943Y-152431117D01*
X135158192Y-152168327D01*
X135300838Y-151824799D01*
X135301162Y-151452833D01*
X135159117Y-151109057D01*
X134896327Y-150845808D01*
X134552799Y-150703162D01*
X134180833Y-150702838D01*
X133837057Y-150844883D01*
X133803882Y-150878000D01*
X121466463Y-150878000D01*
X121434327Y-150845808D01*
X121090799Y-150703162D01*
X120718833Y-150702838D01*
X120375057Y-150844883D01*
X120111808Y-151107673D01*
X119969162Y-151451201D01*
X119968838Y-151823167D01*
X106678000Y-151823167D01*
X106678000Y-147560750D01*
X107215000Y-147560750D01*
X107215000Y-147776310D01*
X107311673Y-148009699D01*
X107490302Y-148188327D01*
X107723691Y-148285000D01*
X108139250Y-148285000D01*
X108298000Y-148126250D01*
X108298000Y-147402000D01*
X108552000Y-147402000D01*
X108552000Y-148126250D01*
X108710750Y-148285000D01*
X109126309Y-148285000D01*
X109359698Y-148188327D01*
X109538327Y-148009699D01*
X109635000Y-147776310D01*
X109635000Y-147560750D01*
X110365000Y-147560750D01*
X110365000Y-147776310D01*
X110461673Y-148009699D01*
X110640302Y-148188327D01*
X110873691Y-148285000D01*
X111289250Y-148285000D01*
X111448000Y-148126250D01*
X111448000Y-147402000D01*
X111702000Y-147402000D01*
X111702000Y-148126250D01*
X111860750Y-148285000D01*
X112276309Y-148285000D01*
X112509698Y-148188327D01*
X112688327Y-148009699D01*
X112785000Y-147776310D01*
X112785000Y-147560750D01*
X126215000Y-147560750D01*
X126215000Y-147776310D01*
X126311673Y-148009699D01*
X126490302Y-148188327D01*
X126723691Y-148285000D01*
X127139250Y-148285000D01*
X127298000Y-148126250D01*
X127298000Y-147402000D01*
X127552000Y-147402000D01*
X127552000Y-148126250D01*
X127710750Y-148285000D01*
X128126309Y-148285000D01*
X128359698Y-148188327D01*
X128538327Y-148009699D01*
X128635000Y-147776310D01*
X128635000Y-147560750D01*
X129365000Y-147560750D01*
X129365000Y-147776310D01*
X129461673Y-148009699D01*
X129640302Y-148188327D01*
X129873691Y-148285000D01*
X130289250Y-148285000D01*
X130448000Y-148126250D01*
X130448000Y-147402000D01*
X130702000Y-147402000D01*
X130702000Y-148126250D01*
X130860750Y-148285000D01*
X131276309Y-148285000D01*
X131509698Y-148188327D01*
X131688327Y-148009699D01*
X131785000Y-147776310D01*
X131785000Y-147560750D01*
X131626250Y-147402000D01*
X130702000Y-147402000D01*
X130448000Y-147402000D01*
X129523750Y-147402000D01*
X129365000Y-147560750D01*
X128635000Y-147560750D01*
X128476250Y-147402000D01*
X127552000Y-147402000D01*
X127298000Y-147402000D01*
X126373750Y-147402000D01*
X126215000Y-147560750D01*
X112785000Y-147560750D01*
X112626250Y-147402000D01*
X111702000Y-147402000D01*
X111448000Y-147402000D01*
X110523750Y-147402000D01*
X110365000Y-147560750D01*
X109635000Y-147560750D01*
X109476250Y-147402000D01*
X108552000Y-147402000D01*
X108298000Y-147402000D01*
X107373750Y-147402000D01*
X107215000Y-147560750D01*
X106678000Y-147560750D01*
X106678000Y-146730999D01*
X106865167Y-146731162D01*
X106873992Y-146727516D01*
X106985910Y-146901441D01*
X107198110Y-147046431D01*
X107290990Y-147065240D01*
X107373750Y-147148000D01*
X108298000Y-147148000D01*
X108298000Y-147128000D01*
X108552000Y-147128000D01*
X108552000Y-147148000D01*
X109476250Y-147148000D01*
X109635000Y-146989250D01*
X109635000Y-146773690D01*
X109538327Y-146540301D01*
X109359698Y-146361673D01*
X109126309Y-146265000D01*
X109047440Y-146265000D01*
X109047440Y-145235000D01*
X109126309Y-145235000D01*
X109359698Y-145138327D01*
X109538327Y-144959699D01*
X109635000Y-144726310D01*
X109635000Y-144510750D01*
X110365000Y-144510750D01*
X110365000Y-144726310D01*
X110461673Y-144959699D01*
X110640302Y-145138327D01*
X110873691Y-145235000D01*
X110952560Y-145235000D01*
X110952560Y-146265000D01*
X110873691Y-146265000D01*
X110640302Y-146361673D01*
X110461673Y-146540301D01*
X110365000Y-146773690D01*
X110365000Y-146989250D01*
X110523750Y-147148000D01*
X111448000Y-147148000D01*
X111448000Y-147128000D01*
X111702000Y-147128000D01*
X111702000Y-147148000D01*
X112626250Y-147148000D01*
X112706201Y-147068049D01*
X112785317Y-147053162D01*
X113001441Y-146914090D01*
X113146431Y-146701890D01*
X113185290Y-146510000D01*
X116739617Y-146510000D01*
X116817673Y-146588192D01*
X117161201Y-146730838D01*
X117533167Y-146731162D01*
X117876943Y-146589117D01*
X117956198Y-146510000D01*
X125813850Y-146510000D01*
X125846838Y-146685317D01*
X125985910Y-146901441D01*
X126198110Y-147046431D01*
X126290990Y-147065240D01*
X126373750Y-147148000D01*
X127298000Y-147148000D01*
X127298000Y-147128000D01*
X127552000Y-147128000D01*
X127552000Y-147148000D01*
X128476250Y-147148000D01*
X128635000Y-146989250D01*
X128635000Y-146773690D01*
X128538327Y-146540301D01*
X128359698Y-146361673D01*
X128126309Y-146265000D01*
X128047440Y-146265000D01*
X128047440Y-145235000D01*
X128126309Y-145235000D01*
X128359698Y-145138327D01*
X128538327Y-144959699D01*
X128635000Y-144726310D01*
X128635000Y-144510750D01*
X128476250Y-144352000D01*
X127552000Y-144352000D01*
X127552000Y-144372000D01*
X127298000Y-144372000D01*
X127298000Y-144352000D01*
X126373750Y-144352000D01*
X126293799Y-144431951D01*
X126214683Y-144446838D01*
X125998559Y-144585910D01*
X125853569Y-144798110D01*
X125814710Y-144990000D01*
X117845074Y-144990000D01*
X117534799Y-144861162D01*
X117162833Y-144860838D01*
X116850236Y-144990000D01*
X113186150Y-144990000D01*
X113153162Y-144814683D01*
X113014090Y-144598559D01*
X112801890Y-144453569D01*
X112709010Y-144434760D01*
X112626250Y-144352000D01*
X111702000Y-144352000D01*
X111702000Y-144372000D01*
X111448000Y-144372000D01*
X111448000Y-144352000D01*
X110523750Y-144352000D01*
X110365000Y-144510750D01*
X109635000Y-144510750D01*
X109476250Y-144352000D01*
X108552000Y-144352000D01*
X108552000Y-144372000D01*
X108298000Y-144372000D01*
X108298000Y-144352000D01*
X107373750Y-144352000D01*
X107293799Y-144431951D01*
X107214683Y-144446838D01*
X106998559Y-144585910D01*
X106853569Y-144798110D01*
X106840805Y-144861139D01*
X106678000Y-144860998D01*
X106678000Y-143723690D01*
X107215000Y-143723690D01*
X107215000Y-143939250D01*
X107373750Y-144098000D01*
X108298000Y-144098000D01*
X108298000Y-143373750D01*
X108552000Y-143373750D01*
X108552000Y-144098000D01*
X109476250Y-144098000D01*
X109635000Y-143939250D01*
X109635000Y-143723690D01*
X110365000Y-143723690D01*
X110365000Y-143939250D01*
X110523750Y-144098000D01*
X111448000Y-144098000D01*
X111448000Y-143373750D01*
X111702000Y-143373750D01*
X111702000Y-144098000D01*
X112626250Y-144098000D01*
X112785000Y-143939250D01*
X112785000Y-143723690D01*
X126215000Y-143723690D01*
X126215000Y-143939250D01*
X126373750Y-144098000D01*
X127298000Y-144098000D01*
X127298000Y-143373750D01*
X127552000Y-143373750D01*
X127552000Y-144098000D01*
X128476250Y-144098000D01*
X128635000Y-143939250D01*
X128635000Y-143723690D01*
X129365000Y-143723690D01*
X129365000Y-143939250D01*
X129523750Y-144098000D01*
X130448000Y-144098000D01*
X130448000Y-143373750D01*
X130289250Y-143215000D01*
X129873691Y-143215000D01*
X129640302Y-143311673D01*
X129461673Y-143490301D01*
X129365000Y-143723690D01*
X128635000Y-143723690D01*
X128538327Y-143490301D01*
X128359698Y-143311673D01*
X128126309Y-143215000D01*
X127710750Y-143215000D01*
X127552000Y-143373750D01*
X127298000Y-143373750D01*
X127139250Y-143215000D01*
X126723691Y-143215000D01*
X126490302Y-143311673D01*
X126311673Y-143490301D01*
X126215000Y-143723690D01*
X112785000Y-143723690D01*
X112688327Y-143490301D01*
X112509698Y-143311673D01*
X112276309Y-143215000D01*
X111860750Y-143215000D01*
X111702000Y-143373750D01*
X111448000Y-143373750D01*
X111289250Y-143215000D01*
X110873691Y-143215000D01*
X110640302Y-143311673D01*
X110461673Y-143490301D01*
X110365000Y-143723690D01*
X109635000Y-143723690D01*
X109538327Y-143490301D01*
X109359698Y-143311673D01*
X109126309Y-143215000D01*
X108710750Y-143215000D01*
X108552000Y-143373750D01*
X108298000Y-143373750D01*
X108139250Y-143215000D01*
X107723691Y-143215000D01*
X107490302Y-143311673D01*
X107311673Y-143490301D01*
X107215000Y-143723690D01*
X106678000Y-143723690D01*
X106678000Y-143174999D01*
X106865167Y-143175162D01*
X107208943Y-143033117D01*
X107242118Y-143000000D01*
X131003198Y-143000000D01*
X131218198Y-143215000D01*
X130860750Y-143215000D01*
X130702000Y-143373750D01*
X130702000Y-144098000D01*
X131626250Y-144098000D01*
X131785000Y-143939250D01*
X131785000Y-143781802D01*
X131828000Y-143824802D01*
X131828000Y-144465198D01*
X131824310Y-144468888D01*
X131801890Y-144453569D01*
X131709010Y-144434760D01*
X131626250Y-144352000D01*
X130702000Y-144352000D01*
X130702000Y-144372000D01*
X130448000Y-144372000D01*
X130448000Y-144352000D01*
X129523750Y-144352000D01*
X129365000Y-144510750D01*
X129365000Y-144726310D01*
X129461673Y-144959699D01*
X129640302Y-145138327D01*
X129873691Y-145235000D01*
X129952560Y-145235000D01*
X129952560Y-146265000D01*
X129873691Y-146265000D01*
X129640302Y-146361673D01*
X129461673Y-146540301D01*
X129365000Y-146773690D01*
X129365000Y-146989250D01*
X129523750Y-147148000D01*
X130448000Y-147148000D01*
X130448000Y-147128000D01*
X130702000Y-147128000D01*
X130702000Y-147148000D01*
X131626250Y-147148000D01*
X131706201Y-147068049D01*
X131785317Y-147053162D01*
X132001441Y-146914090D01*
X132146431Y-146701890D01*
X132197440Y-146450000D01*
X132197440Y-146245362D01*
X133125401Y-145317401D01*
X133290148Y-145070839D01*
X133348000Y-144780000D01*
X133348000Y-143510000D01*
X133290148Y-143219161D01*
X133290148Y-143219160D01*
X133125401Y-142972599D01*
X131855401Y-141702599D01*
X131608839Y-141537852D01*
X131318000Y-141480000D01*
X107242463Y-141480000D01*
X107210327Y-141447808D01*
X106866799Y-141305162D01*
X106678000Y-141304998D01*
X106678000Y-139618999D01*
X106865167Y-139619162D01*
X107208943Y-139477117D01*
X107242118Y-139444000D01*
X131064000Y-139444000D01*
X131354839Y-139386148D01*
X131601401Y-139221401D01*
X133125401Y-137697401D01*
X133290148Y-137450840D01*
X133299746Y-137402586D01*
X133348000Y-137160000D01*
X133348000Y-135382000D01*
X133329760Y-135290301D01*
X133290148Y-135091160D01*
X133125401Y-134844599D01*
X132243401Y-133962599D01*
X132197440Y-133931889D01*
X132197440Y-133800000D01*
X132153162Y-133564683D01*
X132014090Y-133348559D01*
X131801890Y-133203569D01*
X131709010Y-133184760D01*
X131626250Y-133102000D01*
X130702000Y-133102000D01*
X130702000Y-133122000D01*
X130448000Y-133122000D01*
X130448000Y-133102000D01*
X129523750Y-133102000D01*
X129365000Y-133260750D01*
X129365000Y-133476310D01*
X129461673Y-133709699D01*
X129640302Y-133888327D01*
X129873691Y-133985000D01*
X129952560Y-133985000D01*
X129952560Y-135015000D01*
X129873691Y-135015000D01*
X129640302Y-135111673D01*
X129461673Y-135290301D01*
X129365000Y-135523690D01*
X129365000Y-135739250D01*
X129523750Y-135898000D01*
X130448000Y-135898000D01*
X130448000Y-135878000D01*
X130702000Y-135878000D01*
X130702000Y-135898000D01*
X131626250Y-135898000D01*
X131706201Y-135818049D01*
X131785317Y-135803162D01*
X131828000Y-135775696D01*
X131828000Y-136845198D01*
X130749198Y-137924000D01*
X107242463Y-137924000D01*
X107210327Y-137891808D01*
X106866799Y-137749162D01*
X106678000Y-137748998D01*
X106678000Y-136310750D01*
X107215000Y-136310750D01*
X107215000Y-136526310D01*
X107311673Y-136759699D01*
X107490302Y-136938327D01*
X107723691Y-137035000D01*
X108139250Y-137035000D01*
X108298000Y-136876250D01*
X108298000Y-136152000D01*
X108552000Y-136152000D01*
X108552000Y-136876250D01*
X108710750Y-137035000D01*
X109126309Y-137035000D01*
X109359698Y-136938327D01*
X109538327Y-136759699D01*
X109635000Y-136526310D01*
X109635000Y-136310750D01*
X110365000Y-136310750D01*
X110365000Y-136526310D01*
X110461673Y-136759699D01*
X110640302Y-136938327D01*
X110873691Y-137035000D01*
X111289250Y-137035000D01*
X111448000Y-136876250D01*
X111448000Y-136152000D01*
X111702000Y-136152000D01*
X111702000Y-136876250D01*
X111860750Y-137035000D01*
X112276309Y-137035000D01*
X112509698Y-136938327D01*
X112688327Y-136759699D01*
X112785000Y-136526310D01*
X112785000Y-136310750D01*
X126215000Y-136310750D01*
X126215000Y-136526310D01*
X126311673Y-136759699D01*
X126490302Y-136938327D01*
X126723691Y-137035000D01*
X127139250Y-137035000D01*
X127298000Y-136876250D01*
X127298000Y-136152000D01*
X127552000Y-136152000D01*
X127552000Y-136876250D01*
X127710750Y-137035000D01*
X128126309Y-137035000D01*
X128359698Y-136938327D01*
X128538327Y-136759699D01*
X128635000Y-136526310D01*
X128635000Y-136310750D01*
X129365000Y-136310750D01*
X129365000Y-136526310D01*
X129461673Y-136759699D01*
X129640302Y-136938327D01*
X129873691Y-137035000D01*
X130289250Y-137035000D01*
X130448000Y-136876250D01*
X130448000Y-136152000D01*
X130702000Y-136152000D01*
X130702000Y-136876250D01*
X130860750Y-137035000D01*
X131276309Y-137035000D01*
X131509698Y-136938327D01*
X131688327Y-136759699D01*
X131785000Y-136526310D01*
X131785000Y-136310750D01*
X131626250Y-136152000D01*
X130702000Y-136152000D01*
X130448000Y-136152000D01*
X129523750Y-136152000D01*
X129365000Y-136310750D01*
X128635000Y-136310750D01*
X128476250Y-136152000D01*
X127552000Y-136152000D01*
X127298000Y-136152000D01*
X126373750Y-136152000D01*
X126215000Y-136310750D01*
X112785000Y-136310750D01*
X112626250Y-136152000D01*
X111702000Y-136152000D01*
X111448000Y-136152000D01*
X110523750Y-136152000D01*
X110365000Y-136310750D01*
X109635000Y-136310750D01*
X109476250Y-136152000D01*
X108552000Y-136152000D01*
X108298000Y-136152000D01*
X107373750Y-136152000D01*
X107215000Y-136310750D01*
X106678000Y-136310750D01*
X106678000Y-135300999D01*
X106821588Y-135301124D01*
X106846838Y-135435317D01*
X106985910Y-135651441D01*
X107198110Y-135796431D01*
X107290990Y-135815240D01*
X107373750Y-135898000D01*
X108298000Y-135898000D01*
X108298000Y-135878000D01*
X108552000Y-135878000D01*
X108552000Y-135898000D01*
X109476250Y-135898000D01*
X109635000Y-135739250D01*
X109635000Y-135523690D01*
X109538327Y-135290301D01*
X109359698Y-135111673D01*
X109126309Y-135015000D01*
X109047440Y-135015000D01*
X109047440Y-133985000D01*
X109126309Y-133985000D01*
X109359698Y-133888327D01*
X109538327Y-133709699D01*
X109635000Y-133476310D01*
X109635000Y-133260750D01*
X110365000Y-133260750D01*
X110365000Y-133476310D01*
X110461673Y-133709699D01*
X110640302Y-133888327D01*
X110873691Y-133985000D01*
X110952560Y-133985000D01*
X110952560Y-135015000D01*
X110873691Y-135015000D01*
X110640302Y-135111673D01*
X110461673Y-135290301D01*
X110365000Y-135523690D01*
X110365000Y-135739250D01*
X110523750Y-135898000D01*
X111448000Y-135898000D01*
X111448000Y-135878000D01*
X111702000Y-135878000D01*
X111702000Y-135898000D01*
X112626250Y-135898000D01*
X112706201Y-135818049D01*
X112785317Y-135803162D01*
X113001441Y-135664090D01*
X113146431Y-135451890D01*
X113185290Y-135260000D01*
X116665746Y-135260000D01*
X116817673Y-135412192D01*
X117161201Y-135554838D01*
X117533167Y-135555162D01*
X117876943Y-135413117D01*
X118030327Y-135260000D01*
X125190853Y-135260000D01*
X125289201Y-135300838D01*
X125661167Y-135301162D01*
X125760787Y-135260000D01*
X125813850Y-135260000D01*
X125846838Y-135435317D01*
X125985910Y-135651441D01*
X126198110Y-135796431D01*
X126290990Y-135815240D01*
X126373750Y-135898000D01*
X127298000Y-135898000D01*
X127298000Y-135878000D01*
X127552000Y-135878000D01*
X127552000Y-135898000D01*
X128476250Y-135898000D01*
X128635000Y-135739250D01*
X128635000Y-135523690D01*
X128538327Y-135290301D01*
X128359698Y-135111673D01*
X128126309Y-135015000D01*
X128047440Y-135015000D01*
X128047440Y-133985000D01*
X128126309Y-133985000D01*
X128359698Y-133888327D01*
X128538327Y-133709699D01*
X128635000Y-133476310D01*
X128635000Y-133260750D01*
X128476250Y-133102000D01*
X127552000Y-133102000D01*
X127552000Y-133122000D01*
X127298000Y-133122000D01*
X127298000Y-133102000D01*
X126373750Y-133102000D01*
X126293799Y-133181951D01*
X126214683Y-133196838D01*
X125998559Y-133335910D01*
X125873653Y-133518717D01*
X125662799Y-133431162D01*
X125290833Y-133430838D01*
X124947057Y-133572883D01*
X124779648Y-133740000D01*
X117666863Y-133740000D01*
X117534799Y-133685162D01*
X117162833Y-133684838D01*
X117029330Y-133740000D01*
X113186150Y-133740000D01*
X113153162Y-133564683D01*
X113014090Y-133348559D01*
X112801890Y-133203569D01*
X112709010Y-133184760D01*
X112626250Y-133102000D01*
X111702000Y-133102000D01*
X111702000Y-133122000D01*
X111448000Y-133122000D01*
X111448000Y-133102000D01*
X110523750Y-133102000D01*
X110365000Y-133260750D01*
X109635000Y-133260750D01*
X109476250Y-133102000D01*
X108552000Y-133102000D01*
X108552000Y-133122000D01*
X108298000Y-133122000D01*
X108298000Y-133102000D01*
X107373750Y-133102000D01*
X107293799Y-133181951D01*
X107214683Y-133196838D01*
X106998559Y-133335910D01*
X106918740Y-133452730D01*
X106866799Y-133431162D01*
X106678000Y-133430998D01*
X106678000Y-132473690D01*
X107215000Y-132473690D01*
X107215000Y-132689250D01*
X107373750Y-132848000D01*
X108298000Y-132848000D01*
X108298000Y-132123750D01*
X108552000Y-132123750D01*
X108552000Y-132848000D01*
X109476250Y-132848000D01*
X109635000Y-132689250D01*
X109635000Y-132473690D01*
X110365000Y-132473690D01*
X110365000Y-132689250D01*
X110523750Y-132848000D01*
X111448000Y-132848000D01*
X111448000Y-132123750D01*
X111702000Y-132123750D01*
X111702000Y-132848000D01*
X112626250Y-132848000D01*
X112785000Y-132689250D01*
X112785000Y-132473690D01*
X126215000Y-132473690D01*
X126215000Y-132689250D01*
X126373750Y-132848000D01*
X127298000Y-132848000D01*
X127298000Y-132123750D01*
X127552000Y-132123750D01*
X127552000Y-132848000D01*
X128476250Y-132848000D01*
X128635000Y-132689250D01*
X128635000Y-132473690D01*
X129365000Y-132473690D01*
X129365000Y-132689250D01*
X129523750Y-132848000D01*
X130448000Y-132848000D01*
X130448000Y-132123750D01*
X130702000Y-132123750D01*
X130702000Y-132848000D01*
X131626250Y-132848000D01*
X131785000Y-132689250D01*
X131785000Y-132473690D01*
X131688327Y-132240301D01*
X131509698Y-132061673D01*
X131276309Y-131965000D01*
X130860750Y-131965000D01*
X130702000Y-132123750D01*
X130448000Y-132123750D01*
X130289250Y-131965000D01*
X129873691Y-131965000D01*
X129640302Y-132061673D01*
X129461673Y-132240301D01*
X129365000Y-132473690D01*
X128635000Y-132473690D01*
X128538327Y-132240301D01*
X128359698Y-132061673D01*
X128126309Y-131965000D01*
X127710750Y-131965000D01*
X127552000Y-132123750D01*
X127298000Y-132123750D01*
X127139250Y-131965000D01*
X126723691Y-131965000D01*
X126490302Y-132061673D01*
X126311673Y-132240301D01*
X126215000Y-132473690D01*
X112785000Y-132473690D01*
X112688327Y-132240301D01*
X112509698Y-132061673D01*
X112276309Y-131965000D01*
X111860750Y-131965000D01*
X111702000Y-132123750D01*
X111448000Y-132123750D01*
X111289250Y-131965000D01*
X110873691Y-131965000D01*
X110640302Y-132061673D01*
X110461673Y-132240301D01*
X110365000Y-132473690D01*
X109635000Y-132473690D01*
X109538327Y-132240301D01*
X109359698Y-132061673D01*
X109126309Y-131965000D01*
X108710750Y-131965000D01*
X108552000Y-132123750D01*
X108298000Y-132123750D01*
X108139250Y-131965000D01*
X107723691Y-131965000D01*
X107490302Y-132061673D01*
X107311673Y-132240301D01*
X107215000Y-132473690D01*
X106678000Y-132473690D01*
X106678000Y-130982999D01*
X106865167Y-130983162D01*
X107208943Y-130841117D01*
X107242118Y-130808000D01*
X120904000Y-130808000D01*
X121194839Y-130750148D01*
X121441401Y-130585401D01*
X125751852Y-126274950D01*
X126064481Y-126275223D01*
X126536943Y-126080005D01*
X126898735Y-125718845D01*
X127080205Y-125281818D01*
X127259995Y-125716943D01*
X127621155Y-126078735D01*
X128093276Y-126274777D01*
X128604481Y-126275223D01*
X129076943Y-126080005D01*
X129438735Y-125718845D01*
X129620205Y-125281818D01*
X129799995Y-125716943D01*
X130161155Y-126078735D01*
X130633276Y-126274777D01*
X131144481Y-126275223D01*
X131616943Y-126080005D01*
X131947525Y-125750000D01*
X136365499Y-125750000D01*
X136375673Y-125760192D01*
X136719201Y-125902838D01*
X137091167Y-125903162D01*
X137434943Y-125761117D01*
X137698192Y-125498327D01*
X137790000Y-125277230D01*
X137790000Y-177154655D01*
X137790000Y-177154655D01*
G37*
X137790000Y-177154655D02*
X136965347Y-176328562D01*
X135446111Y-175697720D01*
X133801106Y-175696284D01*
X132280771Y-176324474D01*
X131116562Y-177486653D01*
X130485720Y-179005889D01*
X130484284Y-180650894D01*
X131112474Y-182171229D01*
X132274653Y-183335438D01*
X133793889Y-183966280D01*
X135438894Y-183967716D01*
X136959229Y-183339526D01*
X137790000Y-182510204D01*
X137790000Y-185917318D01*
X136639411Y-186146184D01*
X136408450Y-186241852D01*
X136383470Y-186252199D01*
X134923564Y-187227675D01*
X134759092Y-187392148D01*
X134727675Y-187423565D01*
X133752198Y-188883470D01*
X133690097Y-189033397D01*
X133646184Y-189139411D01*
X133417318Y-190290000D01*
X103263440Y-190290000D01*
X103263440Y-188641362D01*
X104200802Y-187704000D01*
X125222000Y-187704000D01*
X125512839Y-187646148D01*
X125759401Y-187481401D01*
X127617401Y-185623401D01*
X127782148Y-185376839D01*
X127840000Y-185086000D01*
X127840000Y-183534547D01*
X127863515Y-183524831D01*
X128253461Y-183135564D01*
X128464759Y-182626702D01*
X128465240Y-182075715D01*
X128440236Y-182015200D01*
X128752600Y-182015200D01*
X129024305Y-181961154D01*
X129254646Y-181807246D01*
X129408554Y-181576905D01*
X129462600Y-181305200D01*
X129462600Y-169697400D01*
X129408554Y-169425695D01*
X129254646Y-169195354D01*
X129024305Y-169041446D01*
X128752600Y-168987400D01*
X128477440Y-168987400D01*
X128477440Y-167900000D01*
X128433162Y-167664683D01*
X128294090Y-167448559D01*
X128081890Y-167303569D01*
X127830000Y-167252560D01*
X127433362Y-167252560D01*
X123473401Y-163292599D01*
X123226839Y-163127852D01*
X122936000Y-163070000D01*
X107242463Y-163070000D01*
X107210327Y-163037808D01*
X106866799Y-162895162D01*
X106678000Y-162894998D01*
X106678000Y-161462999D01*
X106865167Y-161463162D01*
X107208943Y-161321117D01*
X107242118Y-161288000D01*
X131318000Y-161288000D01*
X131608839Y-161230148D01*
X131855401Y-161065401D01*
X133125401Y-159795401D01*
X133290148Y-159548840D01*
X133348000Y-159258000D01*
X133348000Y-157988000D01*
X133290148Y-157697161D01*
X133125401Y-157450599D01*
X132197440Y-156522638D01*
X132197440Y-156300000D01*
X132153162Y-156064683D01*
X132014090Y-155848559D01*
X131801890Y-155703569D01*
X131709010Y-155684760D01*
X131626250Y-155602000D01*
X130702000Y-155602000D01*
X130702000Y-155622000D01*
X130448000Y-155622000D01*
X130448000Y-155602000D01*
X129523750Y-155602000D01*
X129365000Y-155760750D01*
X129365000Y-155976310D01*
X129461673Y-156209699D01*
X129640302Y-156388327D01*
X129873691Y-156485000D01*
X129952560Y-156485000D01*
X129952560Y-157515000D01*
X129873691Y-157515000D01*
X129640302Y-157611673D01*
X129461673Y-157790301D01*
X129365000Y-158023690D01*
X129365000Y-158239250D01*
X129523750Y-158398000D01*
X130448000Y-158398000D01*
X130448000Y-158378000D01*
X130702000Y-158378000D01*
X130702000Y-158398000D01*
X131626250Y-158398000D01*
X131706201Y-158318049D01*
X131785317Y-158303162D01*
X131811507Y-158286309D01*
X131828000Y-158302802D01*
X131828000Y-158943198D01*
X131785000Y-158986198D01*
X131785000Y-158810750D01*
X131626250Y-158652000D01*
X130702000Y-158652000D01*
X130702000Y-159376250D01*
X130860750Y-159535000D01*
X131236198Y-159535000D01*
X131003198Y-159768000D01*
X107242463Y-159768000D01*
X107210327Y-159735808D01*
X106866799Y-159593162D01*
X106678000Y-159592998D01*
X106678000Y-158810750D01*
X107215000Y-158810750D01*
X107215000Y-159026310D01*
X107311673Y-159259699D01*
X107490302Y-159438327D01*
X107723691Y-159535000D01*
X108139250Y-159535000D01*
X108298000Y-159376250D01*
X108298000Y-158652000D01*
X108552000Y-158652000D01*
X108552000Y-159376250D01*
X108710750Y-159535000D01*
X109126309Y-159535000D01*
X109359698Y-159438327D01*
X109538327Y-159259699D01*
X109635000Y-159026310D01*
X109635000Y-158810750D01*
X110365000Y-158810750D01*
X110365000Y-159026310D01*
X110461673Y-159259699D01*
X110640302Y-159438327D01*
X110873691Y-159535000D01*
X111289250Y-159535000D01*
X111448000Y-159376250D01*
X111448000Y-158652000D01*
X111702000Y-158652000D01*
X111702000Y-159376250D01*
X111860750Y-159535000D01*
X112276309Y-159535000D01*
X112509698Y-159438327D01*
X112688327Y-159259699D01*
X112785000Y-159026310D01*
X112785000Y-158810750D01*
X126215000Y-158810750D01*
X126215000Y-159026310D01*
X126311673Y-159259699D01*
X126490302Y-159438327D01*
X126723691Y-159535000D01*
X127139250Y-159535000D01*
X127298000Y-159376250D01*
X127298000Y-158652000D01*
X127552000Y-158652000D01*
X127552000Y-159376250D01*
X127710750Y-159535000D01*
X128126309Y-159535000D01*
X128359698Y-159438327D01*
X128538327Y-159259699D01*
X128635000Y-159026310D01*
X128635000Y-158810750D01*
X129365000Y-158810750D01*
X129365000Y-159026310D01*
X129461673Y-159259699D01*
X129640302Y-159438327D01*
X129873691Y-159535000D01*
X130289250Y-159535000D01*
X130448000Y-159376250D01*
X130448000Y-158652000D01*
X129523750Y-158652000D01*
X129365000Y-158810750D01*
X128635000Y-158810750D01*
X128476250Y-158652000D01*
X127552000Y-158652000D01*
X127298000Y-158652000D01*
X126373750Y-158652000D01*
X126215000Y-158810750D01*
X112785000Y-158810750D01*
X112626250Y-158652000D01*
X111702000Y-158652000D01*
X111448000Y-158652000D01*
X110523750Y-158652000D01*
X110365000Y-158810750D01*
X109635000Y-158810750D01*
X109476250Y-158652000D01*
X108552000Y-158652000D01*
X108298000Y-158652000D01*
X107373750Y-158652000D01*
X107215000Y-158810750D01*
X106678000Y-158810750D01*
X106678000Y-157906999D01*
X106841536Y-157907141D01*
X106846838Y-157935317D01*
X106985910Y-158151441D01*
X107198110Y-158296431D01*
X107290990Y-158315240D01*
X107373750Y-158398000D01*
X108298000Y-158398000D01*
X108298000Y-158378000D01*
X108552000Y-158378000D01*
X108552000Y-158398000D01*
X109476250Y-158398000D01*
X109635000Y-158239250D01*
X109635000Y-158023690D01*
X109538327Y-157790301D01*
X109359698Y-157611673D01*
X109126309Y-157515000D01*
X109047440Y-157515000D01*
X109047440Y-156485000D01*
X109126309Y-156485000D01*
X109359698Y-156388327D01*
X109538327Y-156209699D01*
X109635000Y-155976310D01*
X109635000Y-155760750D01*
X110365000Y-155760750D01*
X110365000Y-155976310D01*
X110461673Y-156209699D01*
X110640302Y-156388327D01*
X110873691Y-156485000D01*
X110952560Y-156485000D01*
X110952560Y-157515000D01*
X110873691Y-157515000D01*
X110640302Y-157611673D01*
X110461673Y-157790301D01*
X110365000Y-158023690D01*
X110365000Y-158239250D01*
X110523750Y-158398000D01*
X111448000Y-158398000D01*
X111448000Y-158378000D01*
X111702000Y-158378000D01*
X111702000Y-158398000D01*
X112626250Y-158398000D01*
X112706201Y-158318049D01*
X112785317Y-158303162D01*
X113001441Y-158164090D01*
X113146431Y-157951890D01*
X113185290Y-157760000D01*
X116813488Y-157760000D01*
X116817673Y-157764192D01*
X117161201Y-157906838D01*
X117533167Y-157907162D01*
X117876943Y-157765117D01*
X117910118Y-157732000D01*
X125808581Y-157732000D01*
X125846838Y-157935317D01*
X125985910Y-158151441D01*
X126198110Y-158296431D01*
X126290990Y-158315240D01*
X126373750Y-158398000D01*
X127298000Y-158398000D01*
X127298000Y-158378000D01*
X127552000Y-158378000D01*
X127552000Y-158398000D01*
X128476250Y-158398000D01*
X128635000Y-158239250D01*
X128635000Y-158023690D01*
X128538327Y-157790301D01*
X128359698Y-157611673D01*
X128126309Y-157515000D01*
X128047440Y-157515000D01*
X128047440Y-156485000D01*
X128126309Y-156485000D01*
X128359698Y-156388327D01*
X128538327Y-156209699D01*
X128635000Y-155976310D01*
X128635000Y-155760750D01*
X128476250Y-155602000D01*
X127552000Y-155602000D01*
X127552000Y-155622000D01*
X127298000Y-155622000D01*
X127298000Y-155602000D01*
X126373750Y-155602000D01*
X126293799Y-155681951D01*
X126214683Y-155696838D01*
X125998559Y-155835910D01*
X125853569Y-156048110D01*
X125820380Y-156212000D01*
X117910463Y-156212000D01*
X117878327Y-156179808D01*
X117534799Y-156037162D01*
X117162833Y-156036838D01*
X116819057Y-156178883D01*
X116757833Y-156240000D01*
X113186150Y-156240000D01*
X113153162Y-156064683D01*
X113014090Y-155848559D01*
X112801890Y-155703569D01*
X112709010Y-155684760D01*
X112626250Y-155602000D01*
X111702000Y-155602000D01*
X111702000Y-155622000D01*
X111448000Y-155622000D01*
X111448000Y-155602000D01*
X110523750Y-155602000D01*
X110365000Y-155760750D01*
X109635000Y-155760750D01*
X109476250Y-155602000D01*
X108552000Y-155602000D01*
X108552000Y-155622000D01*
X108298000Y-155622000D01*
X108298000Y-155602000D01*
X107373750Y-155602000D01*
X107293799Y-155681951D01*
X107214683Y-155696838D01*
X106998559Y-155835910D01*
X106861053Y-156037157D01*
X106678000Y-156036998D01*
X106678000Y-154973690D01*
X107215000Y-154973690D01*
X107215000Y-155189250D01*
X107373750Y-155348000D01*
X108298000Y-155348000D01*
X108298000Y-154623750D01*
X108552000Y-154623750D01*
X108552000Y-155348000D01*
X109476250Y-155348000D01*
X109635000Y-155189250D01*
X109635000Y-154973690D01*
X110365000Y-154973690D01*
X110365000Y-155189250D01*
X110523750Y-155348000D01*
X111448000Y-155348000D01*
X111448000Y-154623750D01*
X111702000Y-154623750D01*
X111702000Y-155348000D01*
X112626250Y-155348000D01*
X112785000Y-155189250D01*
X112785000Y-154973690D01*
X126215000Y-154973690D01*
X126215000Y-155189250D01*
X126373750Y-155348000D01*
X127298000Y-155348000D01*
X127298000Y-154623750D01*
X127552000Y-154623750D01*
X127552000Y-155348000D01*
X128476250Y-155348000D01*
X128635000Y-155189250D01*
X128635000Y-154973690D01*
X129365000Y-154973690D01*
X129365000Y-155189250D01*
X129523750Y-155348000D01*
X130448000Y-155348000D01*
X130448000Y-154623750D01*
X130702000Y-154623750D01*
X130702000Y-155348000D01*
X131626250Y-155348000D01*
X131785000Y-155189250D01*
X131785000Y-154973690D01*
X131688327Y-154740301D01*
X131509698Y-154561673D01*
X131276309Y-154465000D01*
X130860750Y-154465000D01*
X130702000Y-154623750D01*
X130448000Y-154623750D01*
X130289250Y-154465000D01*
X129873691Y-154465000D01*
X129640302Y-154561673D01*
X129461673Y-154740301D01*
X129365000Y-154973690D01*
X128635000Y-154973690D01*
X128538327Y-154740301D01*
X128359698Y-154561673D01*
X128126309Y-154465000D01*
X127710750Y-154465000D01*
X127552000Y-154623750D01*
X127298000Y-154623750D01*
X127139250Y-154465000D01*
X126723691Y-154465000D01*
X126490302Y-154561673D01*
X126311673Y-154740301D01*
X126215000Y-154973690D01*
X112785000Y-154973690D01*
X112688327Y-154740301D01*
X112509698Y-154561673D01*
X112276309Y-154465000D01*
X111860750Y-154465000D01*
X111702000Y-154623750D01*
X111448000Y-154623750D01*
X111289250Y-154465000D01*
X110873691Y-154465000D01*
X110640302Y-154561673D01*
X110461673Y-154740301D01*
X110365000Y-154973690D01*
X109635000Y-154973690D01*
X109538327Y-154740301D01*
X109359698Y-154561673D01*
X109126309Y-154465000D01*
X108710750Y-154465000D01*
X108552000Y-154623750D01*
X108298000Y-154623750D01*
X108139250Y-154465000D01*
X107723691Y-154465000D01*
X107490302Y-154561673D01*
X107311673Y-154740301D01*
X107215000Y-154973690D01*
X106678000Y-154973690D01*
X106678000Y-151823167D01*
X119968838Y-151823167D01*
X120110883Y-152166943D01*
X120373673Y-152430192D01*
X120717201Y-152572838D01*
X121089167Y-152573162D01*
X121432943Y-152431117D01*
X121466118Y-152398000D01*
X133803537Y-152398000D01*
X133835673Y-152430192D01*
X134179201Y-152572838D01*
X134551167Y-152573162D01*
X134894943Y-152431117D01*
X135158192Y-152168327D01*
X135300838Y-151824799D01*
X135301162Y-151452833D01*
X135159117Y-151109057D01*
X134896327Y-150845808D01*
X134552799Y-150703162D01*
X134180833Y-150702838D01*
X133837057Y-150844883D01*
X133803882Y-150878000D01*
X121466463Y-150878000D01*
X121434327Y-150845808D01*
X121090799Y-150703162D01*
X120718833Y-150702838D01*
X120375057Y-150844883D01*
X120111808Y-151107673D01*
X119969162Y-151451201D01*
X119968838Y-151823167D01*
X106678000Y-151823167D01*
X106678000Y-147560750D01*
X107215000Y-147560750D01*
X107215000Y-147776310D01*
X107311673Y-148009699D01*
X107490302Y-148188327D01*
X107723691Y-148285000D01*
X108139250Y-148285000D01*
X108298000Y-148126250D01*
X108298000Y-147402000D01*
X108552000Y-147402000D01*
X108552000Y-148126250D01*
X108710750Y-148285000D01*
X109126309Y-148285000D01*
X109359698Y-148188327D01*
X109538327Y-148009699D01*
X109635000Y-147776310D01*
X109635000Y-147560750D01*
X110365000Y-147560750D01*
X110365000Y-147776310D01*
X110461673Y-148009699D01*
X110640302Y-148188327D01*
X110873691Y-148285000D01*
X111289250Y-148285000D01*
X111448000Y-148126250D01*
X111448000Y-147402000D01*
X111702000Y-147402000D01*
X111702000Y-148126250D01*
X111860750Y-148285000D01*
X112276309Y-148285000D01*
X112509698Y-148188327D01*
X112688327Y-148009699D01*
X112785000Y-147776310D01*
X112785000Y-147560750D01*
X126215000Y-147560750D01*
X126215000Y-147776310D01*
X126311673Y-148009699D01*
X126490302Y-148188327D01*
X126723691Y-148285000D01*
X127139250Y-148285000D01*
X127298000Y-148126250D01*
X127298000Y-147402000D01*
X127552000Y-147402000D01*
X127552000Y-148126250D01*
X127710750Y-148285000D01*
X128126309Y-148285000D01*
X128359698Y-148188327D01*
X128538327Y-148009699D01*
X128635000Y-147776310D01*
X128635000Y-147560750D01*
X129365000Y-147560750D01*
X129365000Y-147776310D01*
X129461673Y-148009699D01*
X129640302Y-148188327D01*
X129873691Y-148285000D01*
X130289250Y-148285000D01*
X130448000Y-148126250D01*
X130448000Y-147402000D01*
X130702000Y-147402000D01*
X130702000Y-148126250D01*
X130860750Y-148285000D01*
X131276309Y-148285000D01*
X131509698Y-148188327D01*
X131688327Y-148009699D01*
X131785000Y-147776310D01*
X131785000Y-147560750D01*
X131626250Y-147402000D01*
X130702000Y-147402000D01*
X130448000Y-147402000D01*
X129523750Y-147402000D01*
X129365000Y-147560750D01*
X128635000Y-147560750D01*
X128476250Y-147402000D01*
X127552000Y-147402000D01*
X127298000Y-147402000D01*
X126373750Y-147402000D01*
X126215000Y-147560750D01*
X112785000Y-147560750D01*
X112626250Y-147402000D01*
X111702000Y-147402000D01*
X111448000Y-147402000D01*
X110523750Y-147402000D01*
X110365000Y-147560750D01*
X109635000Y-147560750D01*
X109476250Y-147402000D01*
X108552000Y-147402000D01*
X108298000Y-147402000D01*
X107373750Y-147402000D01*
X107215000Y-147560750D01*
X106678000Y-147560750D01*
X106678000Y-146730999D01*
X106865167Y-146731162D01*
X106873992Y-146727516D01*
X106985910Y-146901441D01*
X107198110Y-147046431D01*
X107290990Y-147065240D01*
X107373750Y-147148000D01*
X108298000Y-147148000D01*
X108298000Y-147128000D01*
X108552000Y-147128000D01*
X108552000Y-147148000D01*
X109476250Y-147148000D01*
X109635000Y-146989250D01*
X109635000Y-146773690D01*
X109538327Y-146540301D01*
X109359698Y-146361673D01*
X109126309Y-146265000D01*
X109047440Y-146265000D01*
X109047440Y-145235000D01*
X109126309Y-145235000D01*
X109359698Y-145138327D01*
X109538327Y-144959699D01*
X109635000Y-144726310D01*
X109635000Y-144510750D01*
X110365000Y-144510750D01*
X110365000Y-144726310D01*
X110461673Y-144959699D01*
X110640302Y-145138327D01*
X110873691Y-145235000D01*
X110952560Y-145235000D01*
X110952560Y-146265000D01*
X110873691Y-146265000D01*
X110640302Y-146361673D01*
X110461673Y-146540301D01*
X110365000Y-146773690D01*
X110365000Y-146989250D01*
X110523750Y-147148000D01*
X111448000Y-147148000D01*
X111448000Y-147128000D01*
X111702000Y-147128000D01*
X111702000Y-147148000D01*
X112626250Y-147148000D01*
X112706201Y-147068049D01*
X112785317Y-147053162D01*
X113001441Y-146914090D01*
X113146431Y-146701890D01*
X113185290Y-146510000D01*
X116739617Y-146510000D01*
X116817673Y-146588192D01*
X117161201Y-146730838D01*
X117533167Y-146731162D01*
X117876943Y-146589117D01*
X117956198Y-146510000D01*
X125813850Y-146510000D01*
X125846838Y-146685317D01*
X125985910Y-146901441D01*
X126198110Y-147046431D01*
X126290990Y-147065240D01*
X126373750Y-147148000D01*
X127298000Y-147148000D01*
X127298000Y-147128000D01*
X127552000Y-147128000D01*
X127552000Y-147148000D01*
X128476250Y-147148000D01*
X128635000Y-146989250D01*
X128635000Y-146773690D01*
X128538327Y-146540301D01*
X128359698Y-146361673D01*
X128126309Y-146265000D01*
X128047440Y-146265000D01*
X128047440Y-145235000D01*
X128126309Y-145235000D01*
X128359698Y-145138327D01*
X128538327Y-144959699D01*
X128635000Y-144726310D01*
X128635000Y-144510750D01*
X128476250Y-144352000D01*
X127552000Y-144352000D01*
X127552000Y-144372000D01*
X127298000Y-144372000D01*
X127298000Y-144352000D01*
X126373750Y-144352000D01*
X126293799Y-144431951D01*
X126214683Y-144446838D01*
X125998559Y-144585910D01*
X125853569Y-144798110D01*
X125814710Y-144990000D01*
X117845074Y-144990000D01*
X117534799Y-144861162D01*
X117162833Y-144860838D01*
X116850236Y-144990000D01*
X113186150Y-144990000D01*
X113153162Y-144814683D01*
X113014090Y-144598559D01*
X112801890Y-144453569D01*
X112709010Y-144434760D01*
X112626250Y-144352000D01*
X111702000Y-144352000D01*
X111702000Y-144372000D01*
X111448000Y-144372000D01*
X111448000Y-144352000D01*
X110523750Y-144352000D01*
X110365000Y-144510750D01*
X109635000Y-144510750D01*
X109476250Y-144352000D01*
X108552000Y-144352000D01*
X108552000Y-144372000D01*
X108298000Y-144372000D01*
X108298000Y-144352000D01*
X107373750Y-144352000D01*
X107293799Y-144431951D01*
X107214683Y-144446838D01*
X106998559Y-144585910D01*
X106853569Y-144798110D01*
X106840805Y-144861139D01*
X106678000Y-144860998D01*
X106678000Y-143723690D01*
X107215000Y-143723690D01*
X107215000Y-143939250D01*
X107373750Y-144098000D01*
X108298000Y-144098000D01*
X108298000Y-143373750D01*
X108552000Y-143373750D01*
X108552000Y-144098000D01*
X109476250Y-144098000D01*
X109635000Y-143939250D01*
X109635000Y-143723690D01*
X110365000Y-143723690D01*
X110365000Y-143939250D01*
X110523750Y-144098000D01*
X111448000Y-144098000D01*
X111448000Y-143373750D01*
X111702000Y-143373750D01*
X111702000Y-144098000D01*
X112626250Y-144098000D01*
X112785000Y-143939250D01*
X112785000Y-143723690D01*
X126215000Y-143723690D01*
X126215000Y-143939250D01*
X126373750Y-144098000D01*
X127298000Y-144098000D01*
X127298000Y-143373750D01*
X127552000Y-143373750D01*
X127552000Y-144098000D01*
X128476250Y-144098000D01*
X128635000Y-143939250D01*
X128635000Y-143723690D01*
X129365000Y-143723690D01*
X129365000Y-143939250D01*
X129523750Y-144098000D01*
X130448000Y-144098000D01*
X130448000Y-143373750D01*
X130289250Y-143215000D01*
X129873691Y-143215000D01*
X129640302Y-143311673D01*
X129461673Y-143490301D01*
X129365000Y-143723690D01*
X128635000Y-143723690D01*
X128538327Y-143490301D01*
X128359698Y-143311673D01*
X128126309Y-143215000D01*
X127710750Y-143215000D01*
X127552000Y-143373750D01*
X127298000Y-143373750D01*
X127139250Y-143215000D01*
X126723691Y-143215000D01*
X126490302Y-143311673D01*
X126311673Y-143490301D01*
X126215000Y-143723690D01*
X112785000Y-143723690D01*
X112688327Y-143490301D01*
X112509698Y-143311673D01*
X112276309Y-143215000D01*
X111860750Y-143215000D01*
X111702000Y-143373750D01*
X111448000Y-143373750D01*
X111289250Y-143215000D01*
X110873691Y-143215000D01*
X110640302Y-143311673D01*
X110461673Y-143490301D01*
X110365000Y-143723690D01*
X109635000Y-143723690D01*
X109538327Y-143490301D01*
X109359698Y-143311673D01*
X109126309Y-143215000D01*
X108710750Y-143215000D01*
X108552000Y-143373750D01*
X108298000Y-143373750D01*
X108139250Y-143215000D01*
X107723691Y-143215000D01*
X107490302Y-143311673D01*
X107311673Y-143490301D01*
X107215000Y-143723690D01*
X106678000Y-143723690D01*
X106678000Y-143174999D01*
X106865167Y-143175162D01*
X107208943Y-143033117D01*
X107242118Y-143000000D01*
X131003198Y-143000000D01*
X131218198Y-143215000D01*
X130860750Y-143215000D01*
X130702000Y-143373750D01*
X130702000Y-144098000D01*
X131626250Y-144098000D01*
X131785000Y-143939250D01*
X131785000Y-143781802D01*
X131828000Y-143824802D01*
X131828000Y-144465198D01*
X131824310Y-144468888D01*
X131801890Y-144453569D01*
X131709010Y-144434760D01*
X131626250Y-144352000D01*
X130702000Y-144352000D01*
X130702000Y-144372000D01*
X130448000Y-144372000D01*
X130448000Y-144352000D01*
X129523750Y-144352000D01*
X129365000Y-144510750D01*
X129365000Y-144726310D01*
X129461673Y-144959699D01*
X129640302Y-145138327D01*
X129873691Y-145235000D01*
X129952560Y-145235000D01*
X129952560Y-146265000D01*
X129873691Y-146265000D01*
X129640302Y-146361673D01*
X129461673Y-146540301D01*
X129365000Y-146773690D01*
X129365000Y-146989250D01*
X129523750Y-147148000D01*
X130448000Y-147148000D01*
X130448000Y-147128000D01*
X130702000Y-147128000D01*
X130702000Y-147148000D01*
X131626250Y-147148000D01*
X131706201Y-147068049D01*
X131785317Y-147053162D01*
X132001441Y-146914090D01*
X132146431Y-146701890D01*
X132197440Y-146450000D01*
X132197440Y-146245362D01*
X133125401Y-145317401D01*
X133290148Y-145070839D01*
X133348000Y-144780000D01*
X133348000Y-143510000D01*
X133290148Y-143219161D01*
X133290148Y-143219160D01*
X133125401Y-142972599D01*
X131855401Y-141702599D01*
X131608839Y-141537852D01*
X131318000Y-141480000D01*
X107242463Y-141480000D01*
X107210327Y-141447808D01*
X106866799Y-141305162D01*
X106678000Y-141304998D01*
X106678000Y-139618999D01*
X106865167Y-139619162D01*
X107208943Y-139477117D01*
X107242118Y-139444000D01*
X131064000Y-139444000D01*
X131354839Y-139386148D01*
X131601401Y-139221401D01*
X133125401Y-137697401D01*
X133290148Y-137450840D01*
X133299746Y-137402586D01*
X133348000Y-137160000D01*
X133348000Y-135382000D01*
X133329760Y-135290301D01*
X133290148Y-135091160D01*
X133125401Y-134844599D01*
X132243401Y-133962599D01*
X132197440Y-133931889D01*
X132197440Y-133800000D01*
X132153162Y-133564683D01*
X132014090Y-133348559D01*
X131801890Y-133203569D01*
X131709010Y-133184760D01*
X131626250Y-133102000D01*
X130702000Y-133102000D01*
X130702000Y-133122000D01*
X130448000Y-133122000D01*
X130448000Y-133102000D01*
X129523750Y-133102000D01*
X129365000Y-133260750D01*
X129365000Y-133476310D01*
X129461673Y-133709699D01*
X129640302Y-133888327D01*
X129873691Y-133985000D01*
X129952560Y-133985000D01*
X129952560Y-135015000D01*
X129873691Y-135015000D01*
X129640302Y-135111673D01*
X129461673Y-135290301D01*
X129365000Y-135523690D01*
X129365000Y-135739250D01*
X129523750Y-135898000D01*
X130448000Y-135898000D01*
X130448000Y-135878000D01*
X130702000Y-135878000D01*
X130702000Y-135898000D01*
X131626250Y-135898000D01*
X131706201Y-135818049D01*
X131785317Y-135803162D01*
X131828000Y-135775696D01*
X131828000Y-136845198D01*
X130749198Y-137924000D01*
X107242463Y-137924000D01*
X107210327Y-137891808D01*
X106866799Y-137749162D01*
X106678000Y-137748998D01*
X106678000Y-136310750D01*
X107215000Y-136310750D01*
X107215000Y-136526310D01*
X107311673Y-136759699D01*
X107490302Y-136938327D01*
X107723691Y-137035000D01*
X108139250Y-137035000D01*
X108298000Y-136876250D01*
X108298000Y-136152000D01*
X108552000Y-136152000D01*
X108552000Y-136876250D01*
X108710750Y-137035000D01*
X109126309Y-137035000D01*
X109359698Y-136938327D01*
X109538327Y-136759699D01*
X109635000Y-136526310D01*
X109635000Y-136310750D01*
X110365000Y-136310750D01*
X110365000Y-136526310D01*
X110461673Y-136759699D01*
X110640302Y-136938327D01*
X110873691Y-137035000D01*
X111289250Y-137035000D01*
X111448000Y-136876250D01*
X111448000Y-136152000D01*
X111702000Y-136152000D01*
X111702000Y-136876250D01*
X111860750Y-137035000D01*
X112276309Y-137035000D01*
X112509698Y-136938327D01*
X112688327Y-136759699D01*
X112785000Y-136526310D01*
X112785000Y-136310750D01*
X126215000Y-136310750D01*
X126215000Y-136526310D01*
X126311673Y-136759699D01*
X126490302Y-136938327D01*
X126723691Y-137035000D01*
X127139250Y-137035000D01*
X127298000Y-136876250D01*
X127298000Y-136152000D01*
X127552000Y-136152000D01*
X127552000Y-136876250D01*
X127710750Y-137035000D01*
X128126309Y-137035000D01*
X128359698Y-136938327D01*
X128538327Y-136759699D01*
X128635000Y-136526310D01*
X128635000Y-136310750D01*
X129365000Y-136310750D01*
X129365000Y-136526310D01*
X129461673Y-136759699D01*
X129640302Y-136938327D01*
X129873691Y-137035000D01*
X130289250Y-137035000D01*
X130448000Y-136876250D01*
X130448000Y-136152000D01*
X130702000Y-136152000D01*
X130702000Y-136876250D01*
X130860750Y-137035000D01*
X131276309Y-137035000D01*
X131509698Y-136938327D01*
X131688327Y-136759699D01*
X131785000Y-136526310D01*
X131785000Y-136310750D01*
X131626250Y-136152000D01*
X130702000Y-136152000D01*
X130448000Y-136152000D01*
X129523750Y-136152000D01*
X129365000Y-136310750D01*
X128635000Y-136310750D01*
X128476250Y-136152000D01*
X127552000Y-136152000D01*
X127298000Y-136152000D01*
X126373750Y-136152000D01*
X126215000Y-136310750D01*
X112785000Y-136310750D01*
X112626250Y-136152000D01*
X111702000Y-136152000D01*
X111448000Y-136152000D01*
X110523750Y-136152000D01*
X110365000Y-136310750D01*
X109635000Y-136310750D01*
X109476250Y-136152000D01*
X108552000Y-136152000D01*
X108298000Y-136152000D01*
X107373750Y-136152000D01*
X107215000Y-136310750D01*
X106678000Y-136310750D01*
X106678000Y-135300999D01*
X106821588Y-135301124D01*
X106846838Y-135435317D01*
X106985910Y-135651441D01*
X107198110Y-135796431D01*
X107290990Y-135815240D01*
X107373750Y-135898000D01*
X108298000Y-135898000D01*
X108298000Y-135878000D01*
X108552000Y-135878000D01*
X108552000Y-135898000D01*
X109476250Y-135898000D01*
X109635000Y-135739250D01*
X109635000Y-135523690D01*
X109538327Y-135290301D01*
X109359698Y-135111673D01*
X109126309Y-135015000D01*
X109047440Y-135015000D01*
X109047440Y-133985000D01*
X109126309Y-133985000D01*
X109359698Y-133888327D01*
X109538327Y-133709699D01*
X109635000Y-133476310D01*
X109635000Y-133260750D01*
X110365000Y-133260750D01*
X110365000Y-133476310D01*
X110461673Y-133709699D01*
X110640302Y-133888327D01*
X110873691Y-133985000D01*
X110952560Y-133985000D01*
X110952560Y-135015000D01*
X110873691Y-135015000D01*
X110640302Y-135111673D01*
X110461673Y-135290301D01*
X110365000Y-135523690D01*
X110365000Y-135739250D01*
X110523750Y-135898000D01*
X111448000Y-135898000D01*
X111448000Y-135878000D01*
X111702000Y-135878000D01*
X111702000Y-135898000D01*
X112626250Y-135898000D01*
X112706201Y-135818049D01*
X112785317Y-135803162D01*
X113001441Y-135664090D01*
X113146431Y-135451890D01*
X113185290Y-135260000D01*
X116665746Y-135260000D01*
X116817673Y-135412192D01*
X117161201Y-135554838D01*
X117533167Y-135555162D01*
X117876943Y-135413117D01*
X118030327Y-135260000D01*
X125190853Y-135260000D01*
X125289201Y-135300838D01*
X125661167Y-135301162D01*
X125760787Y-135260000D01*
X125813850Y-135260000D01*
X125846838Y-135435317D01*
X125985910Y-135651441D01*
X126198110Y-135796431D01*
X126290990Y-135815240D01*
X126373750Y-135898000D01*
X127298000Y-135898000D01*
X127298000Y-135878000D01*
X127552000Y-135878000D01*
X127552000Y-135898000D01*
X128476250Y-135898000D01*
X128635000Y-135739250D01*
X128635000Y-135523690D01*
X128538327Y-135290301D01*
X128359698Y-135111673D01*
X128126309Y-135015000D01*
X128047440Y-135015000D01*
X128047440Y-133985000D01*
X128126309Y-133985000D01*
X128359698Y-133888327D01*
X128538327Y-133709699D01*
X128635000Y-133476310D01*
X128635000Y-133260750D01*
X128476250Y-133102000D01*
X127552000Y-133102000D01*
X127552000Y-133122000D01*
X127298000Y-133122000D01*
X127298000Y-133102000D01*
X126373750Y-133102000D01*
X126293799Y-133181951D01*
X126214683Y-133196838D01*
X125998559Y-133335910D01*
X125873653Y-133518717D01*
X125662799Y-133431162D01*
X125290833Y-133430838D01*
X124947057Y-133572883D01*
X124779648Y-133740000D01*
X117666863Y-133740000D01*
X117534799Y-133685162D01*
X117162833Y-133684838D01*
X117029330Y-133740000D01*
X113186150Y-133740000D01*
X113153162Y-133564683D01*
X113014090Y-133348559D01*
X112801890Y-133203569D01*
X112709010Y-133184760D01*
X112626250Y-133102000D01*
X111702000Y-133102000D01*
X111702000Y-133122000D01*
X111448000Y-133122000D01*
X111448000Y-133102000D01*
X110523750Y-133102000D01*
X110365000Y-133260750D01*
X109635000Y-133260750D01*
X109476250Y-133102000D01*
X108552000Y-133102000D01*
X108552000Y-133122000D01*
X108298000Y-133122000D01*
X108298000Y-133102000D01*
X107373750Y-133102000D01*
X107293799Y-133181951D01*
X107214683Y-133196838D01*
X106998559Y-133335910D01*
X106918740Y-133452730D01*
X106866799Y-133431162D01*
X106678000Y-133430998D01*
X106678000Y-132473690D01*
X107215000Y-132473690D01*
X107215000Y-132689250D01*
X107373750Y-132848000D01*
X108298000Y-132848000D01*
X108298000Y-132123750D01*
X108552000Y-132123750D01*
X108552000Y-132848000D01*
X109476250Y-132848000D01*
X109635000Y-132689250D01*
X109635000Y-132473690D01*
X110365000Y-132473690D01*
X110365000Y-132689250D01*
X110523750Y-132848000D01*
X111448000Y-132848000D01*
X111448000Y-132123750D01*
X111702000Y-132123750D01*
X111702000Y-132848000D01*
X112626250Y-132848000D01*
X112785000Y-132689250D01*
X112785000Y-132473690D01*
X126215000Y-132473690D01*
X126215000Y-132689250D01*
X126373750Y-132848000D01*
X127298000Y-132848000D01*
X127298000Y-132123750D01*
X127552000Y-132123750D01*
X127552000Y-132848000D01*
X128476250Y-132848000D01*
X128635000Y-132689250D01*
X128635000Y-132473690D01*
X129365000Y-132473690D01*
X129365000Y-132689250D01*
X129523750Y-132848000D01*
X130448000Y-132848000D01*
X130448000Y-132123750D01*
X130702000Y-132123750D01*
X130702000Y-132848000D01*
X131626250Y-132848000D01*
X131785000Y-132689250D01*
X131785000Y-132473690D01*
X131688327Y-132240301D01*
X131509698Y-132061673D01*
X131276309Y-131965000D01*
X130860750Y-131965000D01*
X130702000Y-132123750D01*
X130448000Y-132123750D01*
X130289250Y-131965000D01*
X129873691Y-131965000D01*
X129640302Y-132061673D01*
X129461673Y-132240301D01*
X129365000Y-132473690D01*
X128635000Y-132473690D01*
X128538327Y-132240301D01*
X128359698Y-132061673D01*
X128126309Y-131965000D01*
X127710750Y-131965000D01*
X127552000Y-132123750D01*
X127298000Y-132123750D01*
X127139250Y-131965000D01*
X126723691Y-131965000D01*
X126490302Y-132061673D01*
X126311673Y-132240301D01*
X126215000Y-132473690D01*
X112785000Y-132473690D01*
X112688327Y-132240301D01*
X112509698Y-132061673D01*
X112276309Y-131965000D01*
X111860750Y-131965000D01*
X111702000Y-132123750D01*
X111448000Y-132123750D01*
X111289250Y-131965000D01*
X110873691Y-131965000D01*
X110640302Y-132061673D01*
X110461673Y-132240301D01*
X110365000Y-132473690D01*
X109635000Y-132473690D01*
X109538327Y-132240301D01*
X109359698Y-132061673D01*
X109126309Y-131965000D01*
X108710750Y-131965000D01*
X108552000Y-132123750D01*
X108298000Y-132123750D01*
X108139250Y-131965000D01*
X107723691Y-131965000D01*
X107490302Y-132061673D01*
X107311673Y-132240301D01*
X107215000Y-132473690D01*
X106678000Y-132473690D01*
X106678000Y-130982999D01*
X106865167Y-130983162D01*
X107208943Y-130841117D01*
X107242118Y-130808000D01*
X120904000Y-130808000D01*
X121194839Y-130750148D01*
X121441401Y-130585401D01*
X125751852Y-126274950D01*
X126064481Y-126275223D01*
X126536943Y-126080005D01*
X126898735Y-125718845D01*
X127080205Y-125281818D01*
X127259995Y-125716943D01*
X127621155Y-126078735D01*
X128093276Y-126274777D01*
X128604481Y-126275223D01*
X129076943Y-126080005D01*
X129438735Y-125718845D01*
X129620205Y-125281818D01*
X129799995Y-125716943D01*
X130161155Y-126078735D01*
X130633276Y-126274777D01*
X131144481Y-126275223D01*
X131616943Y-126080005D01*
X131947525Y-125750000D01*
X136365499Y-125750000D01*
X136375673Y-125760192D01*
X136719201Y-125902838D01*
X137091167Y-125903162D01*
X137434943Y-125761117D01*
X137698192Y-125498327D01*
X137790000Y-125277230D01*
X137790000Y-177154655D01*
G36*
X112746599Y-168626599D02*
X112581852Y-168873161D01*
X112524000Y-169164000D01*
X112524000Y-173421198D01*
X110937198Y-175008000D01*
X107496463Y-175008000D01*
X107464327Y-174975808D01*
X107120799Y-174833162D01*
X106932000Y-174832998D01*
X106932000Y-174812802D01*
X107217401Y-174527401D01*
X107382147Y-174280840D01*
X107382148Y-174280839D01*
X107440000Y-173990000D01*
X107440000Y-170048806D01*
X107382148Y-169757967D01*
X107217401Y-169511405D01*
X106678000Y-168972004D01*
X106678000Y-166288999D01*
X106865167Y-166289162D01*
X107208943Y-166147117D01*
X107242118Y-166114000D01*
X115259198Y-166114000D01*
X112746599Y-168626599D01*
X112746599Y-168626599D01*
G37*
X112746599Y-168626599D02*
X112581852Y-168873161D01*
X112524000Y-169164000D01*
X112524000Y-173421198D01*
X110937198Y-175008000D01*
X107496463Y-175008000D01*
X107464327Y-174975808D01*
X107120799Y-174833162D01*
X106932000Y-174832998D01*
X106932000Y-174812802D01*
X107217401Y-174527401D01*
X107382147Y-174280840D01*
X107382148Y-174280839D01*
X107440000Y-173990000D01*
X107440000Y-170048806D01*
X107382148Y-169757967D01*
X107217401Y-169511405D01*
X106678000Y-168972004D01*
X106678000Y-166288999D01*
X106865167Y-166289162D01*
X107208943Y-166147117D01*
X107242118Y-166114000D01*
X115259198Y-166114000D01*
X112746599Y-168626599D01*
G36*
X133646184Y-1860589D02*
X133690097Y-1966603D01*
X133752198Y-2116530D01*
X134727675Y-3576435D01*
X134727676Y-3576436D01*
X134923564Y-3772325D01*
X136383470Y-4747801D01*
X136639411Y-4853816D01*
X137790000Y-5082682D01*
X137790000Y-7990655D01*
X136965347Y-7164562D01*
X135446111Y-6533720D01*
X133801106Y-6532284D01*
X132280771Y-7160474D01*
X131116562Y-8322653D01*
X130485720Y-9841889D01*
X130484284Y-11486894D01*
X131112474Y-13007229D01*
X132274653Y-14171438D01*
X133793889Y-14802280D01*
X135438894Y-14803716D01*
X136959229Y-14175526D01*
X137790000Y-13346204D01*
X137790000Y-24193198D01*
X136681401Y-23084599D01*
X136434839Y-22919852D01*
X136144000Y-22862000D01*
X117910463Y-22862000D01*
X117878327Y-22829808D01*
X117534799Y-22687162D01*
X117176149Y-22686850D01*
X117153162Y-22564683D01*
X117014090Y-22348559D01*
X116801890Y-22203569D01*
X116709010Y-22184760D01*
X116626250Y-22102000D01*
X115702000Y-22102000D01*
X115702000Y-22122000D01*
X115448000Y-22122000D01*
X115448000Y-22102000D01*
X114523750Y-22102000D01*
X114365000Y-22260750D01*
X114365000Y-22476310D01*
X114461673Y-22709699D01*
X114640302Y-22888327D01*
X114873691Y-22985000D01*
X114952560Y-22985000D01*
X114952560Y-24015000D01*
X114873691Y-24015000D01*
X114640302Y-24111673D01*
X114461673Y-24290301D01*
X114365000Y-24523690D01*
X114365000Y-24739250D01*
X114523750Y-24898000D01*
X115448000Y-24898000D01*
X115448000Y-24878000D01*
X115702000Y-24878000D01*
X115702000Y-24898000D01*
X116626250Y-24898000D01*
X116706201Y-24818049D01*
X116785317Y-24803162D01*
X117001441Y-24664090D01*
X117093836Y-24528865D01*
X117161201Y-24556838D01*
X117533167Y-24557162D01*
X117876943Y-24415117D01*
X117910118Y-24382000D01*
X135829198Y-24382000D01*
X136732878Y-25285680D01*
X136732838Y-25331167D01*
X136874883Y-25674943D01*
X137137673Y-25938192D01*
X137481201Y-26080838D01*
X137790000Y-26081107D01*
X137790000Y-32847106D01*
X137482833Y-32846838D01*
X137139057Y-32988883D01*
X137105882Y-33022000D01*
X120396000Y-33022000D01*
X120105161Y-33079852D01*
X119858599Y-33244599D01*
X119019942Y-34083256D01*
X118676485Y-34225169D01*
X118286539Y-34614436D01*
X118190024Y-34846870D01*
X118094831Y-34616485D01*
X117705564Y-34226539D01*
X117196702Y-34015241D01*
X116645715Y-34014760D01*
X116136485Y-34225169D01*
X115746539Y-34614436D01*
X115535241Y-35123298D01*
X115534760Y-35674285D01*
X115561500Y-35739000D01*
X115239800Y-35739000D01*
X114968095Y-35793046D01*
X114737754Y-35946954D01*
X114583846Y-36177295D01*
X114529800Y-36449000D01*
X114529800Y-48056800D01*
X114583846Y-48328505D01*
X114737754Y-48558846D01*
X114968095Y-48712754D01*
X115239800Y-48766800D01*
X115522560Y-48766800D01*
X115522560Y-49850000D01*
X115566838Y-50085317D01*
X115705910Y-50301441D01*
X115918110Y-50446431D01*
X116170000Y-50497440D01*
X117670000Y-50497440D01*
X117905317Y-50453162D01*
X118121441Y-50314090D01*
X118266431Y-50101890D01*
X118306355Y-49904738D01*
X118674436Y-50273461D01*
X119183298Y-50484759D01*
X119734285Y-50485240D01*
X120243515Y-50274831D01*
X120633461Y-49885564D01*
X120729976Y-49653130D01*
X120825169Y-49883515D01*
X121214436Y-50273461D01*
X121723298Y-50484759D01*
X122274285Y-50485240D01*
X122478187Y-50400989D01*
X124176599Y-52099401D01*
X124423161Y-52264148D01*
X124714000Y-52322000D01*
X136343537Y-52322000D01*
X136375673Y-52354192D01*
X136719201Y-52496838D01*
X137091167Y-52497162D01*
X137434943Y-52355117D01*
X137698192Y-52092327D01*
X137790000Y-51871230D01*
X137790000Y-67255011D01*
X137699117Y-67035057D01*
X137436327Y-66771808D01*
X137092799Y-66629162D01*
X136720833Y-66628838D01*
X136377057Y-66770883D01*
X136343882Y-66804000D01*
X120650000Y-66804000D01*
X120359161Y-66861852D01*
X120112599Y-67026599D01*
X119081291Y-68057907D01*
X118676485Y-68225169D01*
X118286539Y-68614436D01*
X118190024Y-68846870D01*
X118094831Y-68616485D01*
X117705564Y-68226539D01*
X117196702Y-68015241D01*
X116645715Y-68014760D01*
X116136485Y-68225169D01*
X115746539Y-68614436D01*
X115535241Y-69123298D01*
X115534760Y-69674285D01*
X115555384Y-69724200D01*
X115214400Y-69724200D01*
X114942695Y-69778246D01*
X114712354Y-69932154D01*
X114558446Y-70162495D01*
X114504400Y-70434200D01*
X114529800Y-70561893D01*
X114529800Y-82067400D01*
X114583846Y-82339105D01*
X114737754Y-82569446D01*
X114968095Y-82723354D01*
X115239800Y-82777400D01*
X115522560Y-82777400D01*
X115522560Y-83850000D01*
X115566838Y-84085317D01*
X115705910Y-84301441D01*
X115918110Y-84446431D01*
X116170000Y-84497440D01*
X117670000Y-84497440D01*
X117905317Y-84453162D01*
X118121441Y-84314090D01*
X118266431Y-84101890D01*
X118306355Y-83904738D01*
X118674436Y-84273461D01*
X119183298Y-84484759D01*
X119734285Y-84485240D01*
X120243515Y-84274831D01*
X120633461Y-83885564D01*
X120729976Y-83653130D01*
X120825169Y-83883515D01*
X121214436Y-84273461D01*
X121723298Y-84484759D01*
X122274285Y-84485240D01*
X122783515Y-84274831D01*
X123173461Y-83885564D01*
X123184076Y-83860000D01*
X123355453Y-83860000D01*
X123365169Y-83883515D01*
X123754436Y-84273461D01*
X124263298Y-84484759D01*
X124814285Y-84485240D01*
X124839867Y-84474670D01*
X125484598Y-85119401D01*
X125543613Y-85158833D01*
X125731161Y-85284148D01*
X126022000Y-85342000D01*
X136343537Y-85342000D01*
X136375673Y-85374192D01*
X136719201Y-85516838D01*
X137091167Y-85517162D01*
X137434943Y-85375117D01*
X137698192Y-85112327D01*
X137790000Y-84891230D01*
X137790000Y-124659011D01*
X137699117Y-124439057D01*
X137436327Y-124175808D01*
X137092799Y-124033162D01*
X136720833Y-124032838D01*
X136377057Y-124174883D01*
X136321844Y-124230000D01*
X131947006Y-124230000D01*
X131618845Y-123901265D01*
X131146724Y-123705223D01*
X130635519Y-123704777D01*
X130163057Y-123899995D01*
X129801265Y-124261155D01*
X129619795Y-124698182D01*
X129440005Y-124263057D01*
X129078845Y-123901265D01*
X128606724Y-123705223D01*
X128095519Y-123704777D01*
X127623057Y-123899995D01*
X127261265Y-124261155D01*
X127079795Y-124698182D01*
X126900005Y-124263057D01*
X126538845Y-123901265D01*
X126066724Y-123705223D01*
X125555519Y-123704777D01*
X125083057Y-123899995D01*
X124721265Y-124261155D01*
X124539795Y-124698182D01*
X124360005Y-124263057D01*
X123998845Y-123901265D01*
X123526724Y-123705223D01*
X123015519Y-123704777D01*
X122543057Y-123899995D01*
X122181265Y-124261155D01*
X121999795Y-124698182D01*
X121820005Y-124263057D01*
X121458845Y-123901265D01*
X120986724Y-123705223D01*
X120475519Y-123704777D01*
X120003057Y-123899995D01*
X119641265Y-124261155D01*
X119459795Y-124698182D01*
X119280005Y-124263057D01*
X118918845Y-123901265D01*
X118446724Y-123705223D01*
X117935519Y-123704777D01*
X117463057Y-123899995D01*
X117101265Y-124261155D01*
X116919795Y-124698182D01*
X116740005Y-124263057D01*
X116378845Y-123901265D01*
X115906724Y-123705223D01*
X115395519Y-123704777D01*
X114923057Y-123899995D01*
X114561265Y-124261155D01*
X114379795Y-124698182D01*
X114200005Y-124263057D01*
X113838845Y-123901265D01*
X113366724Y-123705223D01*
X112855519Y-123704777D01*
X112383057Y-123899995D01*
X112021265Y-124261155D01*
X111825223Y-124733276D01*
X111824777Y-125244481D01*
X112019995Y-125716943D01*
X112381155Y-126078735D01*
X112853276Y-126274777D01*
X113364481Y-126275223D01*
X113836943Y-126080005D01*
X114198735Y-125718845D01*
X114380205Y-125281818D01*
X114559995Y-125716943D01*
X114921155Y-126078735D01*
X115393276Y-126274777D01*
X115904481Y-126275223D01*
X116376943Y-126080005D01*
X116738735Y-125718845D01*
X116920205Y-125281818D01*
X117099995Y-125716943D01*
X117461155Y-126078735D01*
X117933276Y-126274777D01*
X118444481Y-126275223D01*
X118916943Y-126080005D01*
X119278735Y-125718845D01*
X119460205Y-125281818D01*
X119639995Y-125716943D01*
X119970000Y-126047525D01*
X119970000Y-127367198D01*
X119827198Y-127510000D01*
X106678000Y-127510000D01*
X106678000Y-109750000D01*
X107955000Y-109750000D01*
X109024112Y-115124789D01*
X112068685Y-119681315D01*
X116625211Y-122725888D01*
X122000000Y-123795000D01*
X127374789Y-122725888D01*
X131931315Y-119681315D01*
X134975888Y-115124789D01*
X136045000Y-109750000D01*
X134975888Y-104375211D01*
X131931315Y-99818685D01*
X127374789Y-96774112D01*
X122000000Y-95705000D01*
X116625211Y-96774112D01*
X112068685Y-99818685D01*
X109024112Y-104375211D01*
X107955000Y-109750000D01*
X106678000Y-109750000D01*
X106678000Y-36630463D01*
X106710192Y-36598327D01*
X106852838Y-36254799D01*
X106853162Y-35882833D01*
X106711117Y-35539057D01*
X106448327Y-35275808D01*
X106104799Y-35133162D01*
X105916000Y-35132998D01*
X105916000Y-35106463D01*
X105948192Y-35074327D01*
X106090838Y-34730799D01*
X106091162Y-34358833D01*
X105949117Y-34015057D01*
X105686327Y-33751808D01*
X105342799Y-33609162D01*
X104970833Y-33608838D01*
X104627057Y-33750883D01*
X104363808Y-34013673D01*
X104221162Y-34357201D01*
X104220838Y-34729167D01*
X104362883Y-35072943D01*
X104396000Y-35106118D01*
X104396000Y-48971889D01*
X104162327Y-48737808D01*
X103818799Y-48595162D01*
X103630000Y-48594998D01*
X103630000Y-25310750D01*
X111215000Y-25310750D01*
X111215000Y-25526310D01*
X111311673Y-25759699D01*
X111490302Y-25938327D01*
X111723691Y-26035000D01*
X112139250Y-26035000D01*
X112298000Y-25876250D01*
X112298000Y-25152000D01*
X112552000Y-25152000D01*
X112552000Y-25876250D01*
X112710750Y-26035000D01*
X113126309Y-26035000D01*
X113359698Y-25938327D01*
X113538327Y-25759699D01*
X113635000Y-25526310D01*
X113635000Y-25310750D01*
X114365000Y-25310750D01*
X114365000Y-25526310D01*
X114461673Y-25759699D01*
X114640302Y-25938327D01*
X114873691Y-26035000D01*
X115289250Y-26035000D01*
X115448000Y-25876250D01*
X115448000Y-25152000D01*
X115702000Y-25152000D01*
X115702000Y-25876250D01*
X115860750Y-26035000D01*
X116276309Y-26035000D01*
X116509698Y-25938327D01*
X116688327Y-25759699D01*
X116785000Y-25526310D01*
X116785000Y-25310750D01*
X116626250Y-25152000D01*
X115702000Y-25152000D01*
X115448000Y-25152000D01*
X114523750Y-25152000D01*
X114365000Y-25310750D01*
X113635000Y-25310750D01*
X113476250Y-25152000D01*
X112552000Y-25152000D01*
X112298000Y-25152000D01*
X111373750Y-25152000D01*
X111215000Y-25310750D01*
X103630000Y-25310750D01*
X103630000Y-24946463D01*
X103662192Y-24914327D01*
X103804838Y-24570799D01*
X103805162Y-24198833D01*
X103663117Y-23855057D01*
X103615311Y-23807167D01*
X109808838Y-23807167D01*
X109950883Y-24150943D01*
X110213673Y-24414192D01*
X110557201Y-24556838D01*
X110925241Y-24557159D01*
X110985910Y-24651441D01*
X111198110Y-24796431D01*
X111290990Y-24815240D01*
X111373750Y-24898000D01*
X112298000Y-24898000D01*
X112298000Y-24878000D01*
X112552000Y-24878000D01*
X112552000Y-24898000D01*
X113476250Y-24898000D01*
X113635000Y-24739250D01*
X113635000Y-24523690D01*
X113538327Y-24290301D01*
X113359698Y-24111673D01*
X113126309Y-24015000D01*
X113047440Y-24015000D01*
X113047440Y-22985000D01*
X113126309Y-22985000D01*
X113359698Y-22888327D01*
X113538327Y-22709699D01*
X113635000Y-22476310D01*
X113635000Y-22260750D01*
X113476250Y-22102000D01*
X112552000Y-22102000D01*
X112552000Y-22122000D01*
X112298000Y-22122000D01*
X112298000Y-22102000D01*
X111373750Y-22102000D01*
X111293799Y-22181951D01*
X111214683Y-22196838D01*
X110998559Y-22335910D01*
X110853569Y-22548110D01*
X110825429Y-22687070D01*
X110558833Y-22686838D01*
X110215057Y-22828883D01*
X109951808Y-23091673D01*
X109809162Y-23435201D01*
X109808838Y-23807167D01*
X103615311Y-23807167D01*
X103400327Y-23591808D01*
X103056799Y-23449162D01*
X102868000Y-23448998D01*
X102868000Y-21473690D01*
X111215000Y-21473690D01*
X111215000Y-21689250D01*
X111373750Y-21848000D01*
X112298000Y-21848000D01*
X112298000Y-21123750D01*
X112552000Y-21123750D01*
X112552000Y-21848000D01*
X113476250Y-21848000D01*
X113635000Y-21689250D01*
X113635000Y-21473690D01*
X114365000Y-21473690D01*
X114365000Y-21689250D01*
X114523750Y-21848000D01*
X115448000Y-21848000D01*
X115448000Y-21123750D01*
X115702000Y-21123750D01*
X115702000Y-21848000D01*
X116626250Y-21848000D01*
X116785000Y-21689250D01*
X116785000Y-21473690D01*
X116688327Y-21240301D01*
X116509698Y-21061673D01*
X116276309Y-20965000D01*
X115860750Y-20965000D01*
X115702000Y-21123750D01*
X115448000Y-21123750D01*
X115289250Y-20965000D01*
X114873691Y-20965000D01*
X114640302Y-21061673D01*
X114461673Y-21240301D01*
X114365000Y-21473690D01*
X113635000Y-21473690D01*
X113538327Y-21240301D01*
X113359698Y-21061673D01*
X113126309Y-20965000D01*
X112710750Y-20965000D01*
X112552000Y-21123750D01*
X112298000Y-21123750D01*
X112139250Y-20965000D01*
X111723691Y-20965000D01*
X111490302Y-21061673D01*
X111311673Y-21240301D01*
X111215000Y-21473690D01*
X102868000Y-21473690D01*
X102868000Y-19618802D01*
X103646802Y-18840000D01*
X112815453Y-18840000D01*
X112825169Y-18863515D01*
X113214436Y-19253461D01*
X113723298Y-19464759D01*
X114274285Y-19465240D01*
X114783515Y-19254831D01*
X115117127Y-18921800D01*
X127355600Y-18921800D01*
X127627305Y-18867754D01*
X127857646Y-18713846D01*
X128011554Y-18483505D01*
X128065600Y-18211800D01*
X128065600Y-7797800D01*
X128011554Y-7526095D01*
X127857646Y-7295754D01*
X127627305Y-7141846D01*
X127355600Y-7087800D01*
X115126231Y-7087800D01*
X114785564Y-6746539D01*
X114276702Y-6535241D01*
X113725715Y-6534760D01*
X113216485Y-6745169D01*
X112826539Y-7134436D01*
X112615241Y-7643298D01*
X112614760Y-8194285D01*
X112825169Y-8703515D01*
X113214436Y-9093461D01*
X113446870Y-9189976D01*
X113216485Y-9285169D01*
X112826539Y-9674436D01*
X112729555Y-9908000D01*
X104902000Y-9908000D01*
X104611161Y-9965852D01*
X104364599Y-10130599D01*
X100710000Y-13785198D01*
X100710000Y-8259334D01*
X101540653Y-9091438D01*
X103059889Y-9722280D01*
X104704894Y-9723716D01*
X106225229Y-9095526D01*
X107389438Y-7933347D01*
X108020280Y-6414111D01*
X108021716Y-4769106D01*
X107393526Y-3248771D01*
X106231347Y-2084562D01*
X104712111Y-1453720D01*
X103067106Y-1452284D01*
X101546771Y-2080474D01*
X100710000Y-2915786D01*
X100710000Y-710000D01*
X133417318Y-710000D01*
X133646184Y-1860589D01*
X133646184Y-1860589D01*
G37*
X133646184Y-1860589D02*
X133690097Y-1966603D01*
X133752198Y-2116530D01*
X134727675Y-3576435D01*
X134727676Y-3576436D01*
X134923564Y-3772325D01*
X136383470Y-4747801D01*
X136639411Y-4853816D01*
X137790000Y-5082682D01*
X137790000Y-7990655D01*
X136965347Y-7164562D01*
X135446111Y-6533720D01*
X133801106Y-6532284D01*
X132280771Y-7160474D01*
X131116562Y-8322653D01*
X130485720Y-9841889D01*
X130484284Y-11486894D01*
X131112474Y-13007229D01*
X132274653Y-14171438D01*
X133793889Y-14802280D01*
X135438894Y-14803716D01*
X136959229Y-14175526D01*
X137790000Y-13346204D01*
X137790000Y-24193198D01*
X136681401Y-23084599D01*
X136434839Y-22919852D01*
X136144000Y-22862000D01*
X117910463Y-22862000D01*
X117878327Y-22829808D01*
X117534799Y-22687162D01*
X117176149Y-22686850D01*
X117153162Y-22564683D01*
X117014090Y-22348559D01*
X116801890Y-22203569D01*
X116709010Y-22184760D01*
X116626250Y-22102000D01*
X115702000Y-22102000D01*
X115702000Y-22122000D01*
X115448000Y-22122000D01*
X115448000Y-22102000D01*
X114523750Y-22102000D01*
X114365000Y-22260750D01*
X114365000Y-22476310D01*
X114461673Y-22709699D01*
X114640302Y-22888327D01*
X114873691Y-22985000D01*
X114952560Y-22985000D01*
X114952560Y-24015000D01*
X114873691Y-24015000D01*
X114640302Y-24111673D01*
X114461673Y-24290301D01*
X114365000Y-24523690D01*
X114365000Y-24739250D01*
X114523750Y-24898000D01*
X115448000Y-24898000D01*
X115448000Y-24878000D01*
X115702000Y-24878000D01*
X115702000Y-24898000D01*
X116626250Y-24898000D01*
X116706201Y-24818049D01*
X116785317Y-24803162D01*
X117001441Y-24664090D01*
X117093836Y-24528865D01*
X117161201Y-24556838D01*
X117533167Y-24557162D01*
X117876943Y-24415117D01*
X117910118Y-24382000D01*
X135829198Y-24382000D01*
X136732878Y-25285680D01*
X136732838Y-25331167D01*
X136874883Y-25674943D01*
X137137673Y-25938192D01*
X137481201Y-26080838D01*
X137790000Y-26081107D01*
X137790000Y-32847106D01*
X137482833Y-32846838D01*
X137139057Y-32988883D01*
X137105882Y-33022000D01*
X120396000Y-33022000D01*
X120105161Y-33079852D01*
X119858599Y-33244599D01*
X119019942Y-34083256D01*
X118676485Y-34225169D01*
X118286539Y-34614436D01*
X118190024Y-34846870D01*
X118094831Y-34616485D01*
X117705564Y-34226539D01*
X117196702Y-34015241D01*
X116645715Y-34014760D01*
X116136485Y-34225169D01*
X115746539Y-34614436D01*
X115535241Y-35123298D01*
X115534760Y-35674285D01*
X115561500Y-35739000D01*
X115239800Y-35739000D01*
X114968095Y-35793046D01*
X114737754Y-35946954D01*
X114583846Y-36177295D01*
X114529800Y-36449000D01*
X114529800Y-48056800D01*
X114583846Y-48328505D01*
X114737754Y-48558846D01*
X114968095Y-48712754D01*
X115239800Y-48766800D01*
X115522560Y-48766800D01*
X115522560Y-49850000D01*
X115566838Y-50085317D01*
X115705910Y-50301441D01*
X115918110Y-50446431D01*
X116170000Y-50497440D01*
X117670000Y-50497440D01*
X117905317Y-50453162D01*
X118121441Y-50314090D01*
X118266431Y-50101890D01*
X118306355Y-49904738D01*
X118674436Y-50273461D01*
X119183298Y-50484759D01*
X119734285Y-50485240D01*
X120243515Y-50274831D01*
X120633461Y-49885564D01*
X120729976Y-49653130D01*
X120825169Y-49883515D01*
X121214436Y-50273461D01*
X121723298Y-50484759D01*
X122274285Y-50485240D01*
X122478187Y-50400989D01*
X124176599Y-52099401D01*
X124423161Y-52264148D01*
X124714000Y-52322000D01*
X136343537Y-52322000D01*
X136375673Y-52354192D01*
X136719201Y-52496838D01*
X137091167Y-52497162D01*
X137434943Y-52355117D01*
X137698192Y-52092327D01*
X137790000Y-51871230D01*
X137790000Y-67255011D01*
X137699117Y-67035057D01*
X137436327Y-66771808D01*
X137092799Y-66629162D01*
X136720833Y-66628838D01*
X136377057Y-66770883D01*
X136343882Y-66804000D01*
X120650000Y-66804000D01*
X120359161Y-66861852D01*
X120112599Y-67026599D01*
X119081291Y-68057907D01*
X118676485Y-68225169D01*
X118286539Y-68614436D01*
X118190024Y-68846870D01*
X118094831Y-68616485D01*
X117705564Y-68226539D01*
X117196702Y-68015241D01*
X116645715Y-68014760D01*
X116136485Y-68225169D01*
X115746539Y-68614436D01*
X115535241Y-69123298D01*
X115534760Y-69674285D01*
X115555384Y-69724200D01*
X115214400Y-69724200D01*
X114942695Y-69778246D01*
X114712354Y-69932154D01*
X114558446Y-70162495D01*
X114504400Y-70434200D01*
X114529800Y-70561893D01*
X114529800Y-82067400D01*
X114583846Y-82339105D01*
X114737754Y-82569446D01*
X114968095Y-82723354D01*
X115239800Y-82777400D01*
X115522560Y-82777400D01*
X115522560Y-83850000D01*
X115566838Y-84085317D01*
X115705910Y-84301441D01*
X115918110Y-84446431D01*
X116170000Y-84497440D01*
X117670000Y-84497440D01*
X117905317Y-84453162D01*
X118121441Y-84314090D01*
X118266431Y-84101890D01*
X118306355Y-83904738D01*
X118674436Y-84273461D01*
X119183298Y-84484759D01*
X119734285Y-84485240D01*
X120243515Y-84274831D01*
X120633461Y-83885564D01*
X120729976Y-83653130D01*
X120825169Y-83883515D01*
X121214436Y-84273461D01*
X121723298Y-84484759D01*
X122274285Y-84485240D01*
X122783515Y-84274831D01*
X123173461Y-83885564D01*
X123184076Y-83860000D01*
X123355453Y-83860000D01*
X123365169Y-83883515D01*
X123754436Y-84273461D01*
X124263298Y-84484759D01*
X124814285Y-84485240D01*
X124839867Y-84474670D01*
X125484598Y-85119401D01*
X125543613Y-85158833D01*
X125731161Y-85284148D01*
X126022000Y-85342000D01*
X136343537Y-85342000D01*
X136375673Y-85374192D01*
X136719201Y-85516838D01*
X137091167Y-85517162D01*
X137434943Y-85375117D01*
X137698192Y-85112327D01*
X137790000Y-84891230D01*
X137790000Y-124659011D01*
X137699117Y-124439057D01*
X137436327Y-124175808D01*
X137092799Y-124033162D01*
X136720833Y-124032838D01*
X136377057Y-124174883D01*
X136321844Y-124230000D01*
X131947006Y-124230000D01*
X131618845Y-123901265D01*
X131146724Y-123705223D01*
X130635519Y-123704777D01*
X130163057Y-123899995D01*
X129801265Y-124261155D01*
X129619795Y-124698182D01*
X129440005Y-124263057D01*
X129078845Y-123901265D01*
X128606724Y-123705223D01*
X128095519Y-123704777D01*
X127623057Y-123899995D01*
X127261265Y-124261155D01*
X127079795Y-124698182D01*
X126900005Y-124263057D01*
X126538845Y-123901265D01*
X126066724Y-123705223D01*
X125555519Y-123704777D01*
X125083057Y-123899995D01*
X124721265Y-124261155D01*
X124539795Y-124698182D01*
X124360005Y-124263057D01*
X123998845Y-123901265D01*
X123526724Y-123705223D01*
X123015519Y-123704777D01*
X122543057Y-123899995D01*
X122181265Y-124261155D01*
X121999795Y-124698182D01*
X121820005Y-124263057D01*
X121458845Y-123901265D01*
X120986724Y-123705223D01*
X120475519Y-123704777D01*
X120003057Y-123899995D01*
X119641265Y-124261155D01*
X119459795Y-124698182D01*
X119280005Y-124263057D01*
X118918845Y-123901265D01*
X118446724Y-123705223D01*
X117935519Y-123704777D01*
X117463057Y-123899995D01*
X117101265Y-124261155D01*
X116919795Y-124698182D01*
X116740005Y-124263057D01*
X116378845Y-123901265D01*
X115906724Y-123705223D01*
X115395519Y-123704777D01*
X114923057Y-123899995D01*
X114561265Y-124261155D01*
X114379795Y-124698182D01*
X114200005Y-124263057D01*
X113838845Y-123901265D01*
X113366724Y-123705223D01*
X112855519Y-123704777D01*
X112383057Y-123899995D01*
X112021265Y-124261155D01*
X111825223Y-124733276D01*
X111824777Y-125244481D01*
X112019995Y-125716943D01*
X112381155Y-126078735D01*
X112853276Y-126274777D01*
X113364481Y-126275223D01*
X113836943Y-126080005D01*
X114198735Y-125718845D01*
X114380205Y-125281818D01*
X114559995Y-125716943D01*
X114921155Y-126078735D01*
X115393276Y-126274777D01*
X115904481Y-126275223D01*
X116376943Y-126080005D01*
X116738735Y-125718845D01*
X116920205Y-125281818D01*
X117099995Y-125716943D01*
X117461155Y-126078735D01*
X117933276Y-126274777D01*
X118444481Y-126275223D01*
X118916943Y-126080005D01*
X119278735Y-125718845D01*
X119460205Y-125281818D01*
X119639995Y-125716943D01*
X119970000Y-126047525D01*
X119970000Y-127367198D01*
X119827198Y-127510000D01*
X106678000Y-127510000D01*
X106678000Y-109750000D01*
X107955000Y-109750000D01*
X109024112Y-115124789D01*
X112068685Y-119681315D01*
X116625211Y-122725888D01*
X122000000Y-123795000D01*
X127374789Y-122725888D01*
X131931315Y-119681315D01*
X134975888Y-115124789D01*
X136045000Y-109750000D01*
X134975888Y-104375211D01*
X131931315Y-99818685D01*
X127374789Y-96774112D01*
X122000000Y-95705000D01*
X116625211Y-96774112D01*
X112068685Y-99818685D01*
X109024112Y-104375211D01*
X107955000Y-109750000D01*
X106678000Y-109750000D01*
X106678000Y-36630463D01*
X106710192Y-36598327D01*
X106852838Y-36254799D01*
X106853162Y-35882833D01*
X106711117Y-35539057D01*
X106448327Y-35275808D01*
X106104799Y-35133162D01*
X105916000Y-35132998D01*
X105916000Y-35106463D01*
X105948192Y-35074327D01*
X106090838Y-34730799D01*
X106091162Y-34358833D01*
X105949117Y-34015057D01*
X105686327Y-33751808D01*
X105342799Y-33609162D01*
X104970833Y-33608838D01*
X104627057Y-33750883D01*
X104363808Y-34013673D01*
X104221162Y-34357201D01*
X104220838Y-34729167D01*
X104362883Y-35072943D01*
X104396000Y-35106118D01*
X104396000Y-48971889D01*
X104162327Y-48737808D01*
X103818799Y-48595162D01*
X103630000Y-48594998D01*
X103630000Y-25310750D01*
X111215000Y-25310750D01*
X111215000Y-25526310D01*
X111311673Y-25759699D01*
X111490302Y-25938327D01*
X111723691Y-26035000D01*
X112139250Y-26035000D01*
X112298000Y-25876250D01*
X112298000Y-25152000D01*
X112552000Y-25152000D01*
X112552000Y-25876250D01*
X112710750Y-26035000D01*
X113126309Y-26035000D01*
X113359698Y-25938327D01*
X113538327Y-25759699D01*
X113635000Y-25526310D01*
X113635000Y-25310750D01*
X114365000Y-25310750D01*
X114365000Y-25526310D01*
X114461673Y-25759699D01*
X114640302Y-25938327D01*
X114873691Y-26035000D01*
X115289250Y-26035000D01*
X115448000Y-25876250D01*
X115448000Y-25152000D01*
X115702000Y-25152000D01*
X115702000Y-25876250D01*
X115860750Y-26035000D01*
X116276309Y-26035000D01*
X116509698Y-25938327D01*
X116688327Y-25759699D01*
X116785000Y-25526310D01*
X116785000Y-25310750D01*
X116626250Y-25152000D01*
X115702000Y-25152000D01*
X115448000Y-25152000D01*
X114523750Y-25152000D01*
X114365000Y-25310750D01*
X113635000Y-25310750D01*
X113476250Y-25152000D01*
X112552000Y-25152000D01*
X112298000Y-25152000D01*
X111373750Y-25152000D01*
X111215000Y-25310750D01*
X103630000Y-25310750D01*
X103630000Y-24946463D01*
X103662192Y-24914327D01*
X103804838Y-24570799D01*
X103805162Y-24198833D01*
X103663117Y-23855057D01*
X103615311Y-23807167D01*
X109808838Y-23807167D01*
X109950883Y-24150943D01*
X110213673Y-24414192D01*
X110557201Y-24556838D01*
X110925241Y-24557159D01*
X110985910Y-24651441D01*
X111198110Y-24796431D01*
X111290990Y-24815240D01*
X111373750Y-24898000D01*
X112298000Y-24898000D01*
X112298000Y-24878000D01*
X112552000Y-24878000D01*
X112552000Y-24898000D01*
X113476250Y-24898000D01*
X113635000Y-24739250D01*
X113635000Y-24523690D01*
X113538327Y-24290301D01*
X113359698Y-24111673D01*
X113126309Y-24015000D01*
X113047440Y-24015000D01*
X113047440Y-22985000D01*
X113126309Y-22985000D01*
X113359698Y-22888327D01*
X113538327Y-22709699D01*
X113635000Y-22476310D01*
X113635000Y-22260750D01*
X113476250Y-22102000D01*
X112552000Y-22102000D01*
X112552000Y-22122000D01*
X112298000Y-22122000D01*
X112298000Y-22102000D01*
X111373750Y-22102000D01*
X111293799Y-22181951D01*
X111214683Y-22196838D01*
X110998559Y-22335910D01*
X110853569Y-22548110D01*
X110825429Y-22687070D01*
X110558833Y-22686838D01*
X110215057Y-22828883D01*
X109951808Y-23091673D01*
X109809162Y-23435201D01*
X109808838Y-23807167D01*
X103615311Y-23807167D01*
X103400327Y-23591808D01*
X103056799Y-23449162D01*
X102868000Y-23448998D01*
X102868000Y-21473690D01*
X111215000Y-21473690D01*
X111215000Y-21689250D01*
X111373750Y-21848000D01*
X112298000Y-21848000D01*
X112298000Y-21123750D01*
X112552000Y-21123750D01*
X112552000Y-21848000D01*
X113476250Y-21848000D01*
X113635000Y-21689250D01*
X113635000Y-21473690D01*
X114365000Y-21473690D01*
X114365000Y-21689250D01*
X114523750Y-21848000D01*
X115448000Y-21848000D01*
X115448000Y-21123750D01*
X115702000Y-21123750D01*
X115702000Y-21848000D01*
X116626250Y-21848000D01*
X116785000Y-21689250D01*
X116785000Y-21473690D01*
X116688327Y-21240301D01*
X116509698Y-21061673D01*
X116276309Y-20965000D01*
X115860750Y-20965000D01*
X115702000Y-21123750D01*
X115448000Y-21123750D01*
X115289250Y-20965000D01*
X114873691Y-20965000D01*
X114640302Y-21061673D01*
X114461673Y-21240301D01*
X114365000Y-21473690D01*
X113635000Y-21473690D01*
X113538327Y-21240301D01*
X113359698Y-21061673D01*
X113126309Y-20965000D01*
X112710750Y-20965000D01*
X112552000Y-21123750D01*
X112298000Y-21123750D01*
X112139250Y-20965000D01*
X111723691Y-20965000D01*
X111490302Y-21061673D01*
X111311673Y-21240301D01*
X111215000Y-21473690D01*
X102868000Y-21473690D01*
X102868000Y-19618802D01*
X103646802Y-18840000D01*
X112815453Y-18840000D01*
X112825169Y-18863515D01*
X113214436Y-19253461D01*
X113723298Y-19464759D01*
X114274285Y-19465240D01*
X114783515Y-19254831D01*
X115117127Y-18921800D01*
X127355600Y-18921800D01*
X127627305Y-18867754D01*
X127857646Y-18713846D01*
X128011554Y-18483505D01*
X128065600Y-18211800D01*
X128065600Y-7797800D01*
X128011554Y-7526095D01*
X127857646Y-7295754D01*
X127627305Y-7141846D01*
X127355600Y-7087800D01*
X115126231Y-7087800D01*
X114785564Y-6746539D01*
X114276702Y-6535241D01*
X113725715Y-6534760D01*
X113216485Y-6745169D01*
X112826539Y-7134436D01*
X112615241Y-7643298D01*
X112614760Y-8194285D01*
X112825169Y-8703515D01*
X113214436Y-9093461D01*
X113446870Y-9189976D01*
X113216485Y-9285169D01*
X112826539Y-9674436D01*
X112729555Y-9908000D01*
X104902000Y-9908000D01*
X104611161Y-9965852D01*
X104364599Y-10130599D01*
X100710000Y-13785198D01*
X100710000Y-8259334D01*
X101540653Y-9091438D01*
X103059889Y-9722280D01*
X104704894Y-9723716D01*
X106225229Y-9095526D01*
X107389438Y-7933347D01*
X108020280Y-6414111D01*
X108021716Y-4769106D01*
X107393526Y-3248771D01*
X106231347Y-2084562D01*
X104712111Y-1453720D01*
X103067106Y-1452284D01*
X101546771Y-2080474D01*
X100710000Y-2915786D01*
X100710000Y-710000D01*
X133417318Y-710000D01*
X133646184Y-1860589D01*
M02*
