M48
;DRILL file {KiCad 4.0.0-1rc2.201511291916+6190~38~ubuntu14.04.1-stable} date Mon 14 Mar 2016 12:19:54 PM PDT
;FORMAT={-:-/ absolute / inch / decimal}
FMAT,2
INCH,TZ
T1C0.016
T2C0.024
T3C0.039
T4C0.146
%
G90
G05
M72
T1
X3.96Y-1.99
X3.96Y-5.12
X3.99Y-3.27
X3.99Y-5.29
X4.02Y-3.36
X4.02Y-5.46
X4.05Y-0.96
X4.05Y-2.66
X4.05Y-5.74
X4.05Y-6.45
X4.06Y-7.33
X4.08Y-1.95
X4.08Y-2.74
X4.08Y-5.6
X4.08Y-6.51
X4.11Y-2.06
X4.11Y-3.33
X4.11Y-6.18
X4.11Y-6.48
X4.14Y-1.36
X4.14Y-5.08
X4.14Y-6.32
X4.17Y-1.42
X4.2Y-5.08
X4.2Y-5.12
X4.2Y-5.29
X4.2Y-5.46
X4.2Y-5.6
X4.2Y-5.74
X4.2Y-6.18
X4.2Y-6.32
X4.2Y-6.45
X4.2Y-6.51
X4.21Y-6.92
X4.21Y-7.33
X4.22Y-6.48
X4.23Y-6.76
X4.26Y-6.4
X4.33Y-4.99
X4.33Y-5.17
X4.36Y-0.93
X4.53Y-7.26
X4.62Y-0.93
X4.62Y-5.3
X4.62Y-5.74
X4.62Y-6.18
X4.73Y-6.51
X4.76Y-5.97
X4.94Y-5.29
X5.29Y-5.97
X5.39Y-2.03
X5.39Y-2.66
X5.39Y-3.33
X5.39Y-4.92
X5.42Y-0.99
X5.42Y-1.33
X5.42Y-1.99
T2
X4.4531Y-4.9209
X4.5531Y-4.9209
X4.6531Y-4.9209
X4.7531Y-4.9209
X4.8531Y-4.9209
X4.9531Y-4.9209
X5.0531Y-4.9209
X5.1531Y-4.9209
T3
X4.4882Y-0.3118
X4.4882Y-0.4118
X4.4882Y-0.5118
X4.4882Y-0.6118
X4.4882Y-0.7118
X4.6031Y-1.3937
X4.6031Y-1.9331
X4.6031Y-2.7323
X4.6031Y-3.2717
X4.6031Y-6.6398
X4.6031Y-7.1791
X4.7031Y-1.3937
X4.7031Y-1.9331
X4.7031Y-2.7323
X4.7031Y-3.2717
X4.7031Y-6.6398
X4.7031Y-7.1791
X4.8031Y-1.3937
X4.8031Y-1.9331
X4.8031Y-2.7323
X4.8031Y-3.2717
X4.8031Y-6.6398
X4.8031Y-7.1791
X4.9031Y-1.3937
X4.9031Y-1.9331
X4.9031Y-2.7323
X4.9031Y-3.2717
X4.9031Y-6.6398
X4.9031Y-7.1791
X5.0031Y-1.3937
X5.0031Y-1.9331
X5.0031Y-2.7323
X5.0031Y-3.2717
X5.0031Y-6.6398
X5.0031Y-7.1791
T4
X4.09Y-0.22
X5.3Y-0.42
X5.3Y-7.08
T0
M30
