G04 #@! TF.FileFunction,Legend,Top*
%FSLAX46Y46*%
G04 Gerber Fmt 4.6, Leading zero omitted, Abs format (unit mm)*
G04 Created by KiCad (PCBNEW 4.0.4+e1-6308~48~ubuntu14.04.1-stable) date Thu Sep  7 12:23:15 2017*
%MOMM*%
%LPD*%
G01*
G04 APERTURE LIST*
%ADD10C,0.100000*%
%ADD11C,0.150000*%
%ADD12C,0.125000*%
G04 APERTURE END LIST*
D10*
D11*
X115000000Y-37250000D02*
G75*
G03X115000000Y-37250000I-1000000J0D01*
G01*
X107250000Y-30250000D02*
X120750000Y-30250000D01*
X120750000Y-30250000D02*
X120750000Y-44250000D01*
X120750000Y-44250000D02*
X107250000Y-44250000D01*
X107250000Y-44250000D02*
X107250000Y-30250000D01*
X115000000Y-71250000D02*
G75*
G03X115000000Y-71250000I-1000000J0D01*
G01*
X120700000Y-77500000D02*
X120700000Y-65000000D01*
X107300000Y-77500000D02*
X107300000Y-65000000D01*
X107300000Y-65000000D02*
X120700000Y-65000000D01*
X107300000Y-77500000D02*
X120700000Y-77500000D01*
X115000000Y-8000000D02*
G75*
G03X115000000Y-8000000I-1000000J0D01*
G01*
X120700000Y-14250000D02*
X120700000Y-1750000D01*
X107300000Y-14250000D02*
X107300000Y-1750000D01*
X107300000Y-1750000D02*
X120700000Y-1750000D01*
X107300000Y-14250000D02*
X120700000Y-14250000D01*
X115000000Y-170500000D02*
G75*
G03X115000000Y-170500000I-1000000J0D01*
G01*
X107250000Y-163500000D02*
X120750000Y-163500000D01*
X120750000Y-163500000D02*
X120750000Y-177500000D01*
X120750000Y-177500000D02*
X107250000Y-177500000D01*
X107250000Y-177500000D02*
X107250000Y-163500000D01*
X106615000Y-88492000D02*
X106615000Y-89508000D01*
X106869000Y-89000000D02*
X107504000Y-88492000D01*
X107504000Y-88492000D02*
X107504000Y-89508000D01*
X107504000Y-89508000D02*
X106869000Y-89000000D01*
D10*
X104750000Y-90250000D02*
X109750000Y-90250000D01*
X104750000Y-87750000D02*
X109750000Y-87750000D01*
D11*
X106615000Y-99492000D02*
X106615000Y-100508000D01*
X106869000Y-100000000D02*
X107504000Y-99492000D01*
X107504000Y-99492000D02*
X107504000Y-100508000D01*
X107504000Y-100508000D02*
X106869000Y-100000000D01*
D10*
X104750000Y-101250000D02*
X109750000Y-101250000D01*
X104750000Y-98750000D02*
X109750000Y-98750000D01*
D11*
X106615000Y-110742000D02*
X106615000Y-111758000D01*
X106869000Y-111250000D02*
X107504000Y-110742000D01*
X107504000Y-110742000D02*
X107504000Y-111758000D01*
X107504000Y-111758000D02*
X106869000Y-111250000D01*
D10*
X104750000Y-112500000D02*
X109750000Y-112500000D01*
X104750000Y-110000000D02*
X109750000Y-110000000D01*
D11*
X106615000Y-122242000D02*
X106615000Y-123258000D01*
X106869000Y-122750000D02*
X107504000Y-122242000D01*
X107504000Y-122242000D02*
X107504000Y-123258000D01*
X107504000Y-123258000D02*
X106869000Y-122750000D01*
D10*
X104750000Y-124000000D02*
X109750000Y-124000000D01*
X104750000Y-121500000D02*
X109750000Y-121500000D01*
D11*
X106865000Y-133242000D02*
X106865000Y-134258000D01*
X107119000Y-133750000D02*
X107754000Y-133242000D01*
X107754000Y-133242000D02*
X107754000Y-134258000D01*
X107754000Y-134258000D02*
X107119000Y-133750000D01*
D10*
X105000000Y-135000000D02*
X110000000Y-135000000D01*
X105000000Y-132500000D02*
X110000000Y-132500000D01*
D11*
X128385000Y-89508000D02*
X128385000Y-88492000D01*
X128131000Y-89000000D02*
X127496000Y-89508000D01*
X127496000Y-89508000D02*
X127496000Y-88492000D01*
X127496000Y-88492000D02*
X128131000Y-89000000D01*
D10*
X130250000Y-87750000D02*
X125250000Y-87750000D01*
X130250000Y-90250000D02*
X125250000Y-90250000D01*
D11*
X128385000Y-100758000D02*
X128385000Y-99742000D01*
X128131000Y-100250000D02*
X127496000Y-100758000D01*
X127496000Y-100758000D02*
X127496000Y-99742000D01*
X127496000Y-99742000D02*
X128131000Y-100250000D01*
D10*
X130250000Y-99000000D02*
X125250000Y-99000000D01*
X130250000Y-101500000D02*
X125250000Y-101500000D01*
D11*
X128385000Y-112008000D02*
X128385000Y-110992000D01*
X128131000Y-111500000D02*
X127496000Y-112008000D01*
X127496000Y-112008000D02*
X127496000Y-110992000D01*
X127496000Y-110992000D02*
X128131000Y-111500000D01*
D10*
X130250000Y-110250000D02*
X125250000Y-110250000D01*
X130250000Y-112750000D02*
X125250000Y-112750000D01*
D11*
X128385000Y-123258000D02*
X128385000Y-122242000D01*
X128131000Y-122750000D02*
X127496000Y-123258000D01*
X127496000Y-123258000D02*
X127496000Y-122242000D01*
X127496000Y-122242000D02*
X128131000Y-122750000D01*
D10*
X130250000Y-121500000D02*
X125250000Y-121500000D01*
X130250000Y-124000000D02*
X125250000Y-124000000D01*
D11*
X128385000Y-134508000D02*
X128385000Y-133492000D01*
X128131000Y-134000000D02*
X127496000Y-134508000D01*
X127496000Y-134508000D02*
X127496000Y-133492000D01*
X127496000Y-133492000D02*
X128131000Y-134000000D01*
D10*
X130250000Y-132750000D02*
X125250000Y-132750000D01*
X130250000Y-135250000D02*
X125250000Y-135250000D01*
D11*
X128135000Y-145758000D02*
X128135000Y-144742000D01*
X127881000Y-145250000D02*
X127246000Y-145758000D01*
X127246000Y-145758000D02*
X127246000Y-144742000D01*
X127246000Y-144742000D02*
X127881000Y-145250000D01*
D10*
X130000000Y-144000000D02*
X125000000Y-144000000D01*
X130000000Y-146500000D02*
X125000000Y-146500000D01*
D11*
X129028000Y-174990000D02*
G75*
G03X128778000Y-174740000I-250000J0D01*
G01*
X128778000Y-174740000D02*
G75*
G03X128528000Y-174990000I0J-250000D01*
G01*
X127628000Y-174990000D02*
X127628000Y-172990000D01*
X127628000Y-172990000D02*
X129928000Y-172990000D01*
X129928000Y-172990000D02*
X129928000Y-174990000D01*
X129928000Y-174990000D02*
X127628000Y-174990000D01*
X125492000Y-169635000D02*
X126508000Y-169635000D01*
X126000000Y-169381000D02*
X125492000Y-168746000D01*
X125492000Y-168746000D02*
X126508000Y-168746000D01*
X126508000Y-168746000D02*
X126000000Y-169381000D01*
D10*
X127250000Y-171500000D02*
X127250000Y-166500000D01*
X124750000Y-171500000D02*
X124750000Y-166500000D01*
D11*
X130992000Y-169385000D02*
X132008000Y-169385000D01*
X131500000Y-169131000D02*
X130992000Y-168496000D01*
X130992000Y-168496000D02*
X132008000Y-168496000D01*
X132008000Y-168496000D02*
X131500000Y-169131000D01*
D10*
X132750000Y-171250000D02*
X132750000Y-166250000D01*
X130250000Y-171250000D02*
X130250000Y-166250000D01*
D11*
X106615000Y-144742000D02*
X106615000Y-145758000D01*
X106869000Y-145250000D02*
X107504000Y-144742000D01*
X107504000Y-144742000D02*
X107504000Y-145758000D01*
X107504000Y-145758000D02*
X106869000Y-145250000D01*
D10*
X104750000Y-146500000D02*
X109750000Y-146500000D01*
X104750000Y-144000000D02*
X109750000Y-144000000D01*
D11*
X107750000Y-19000000D02*
G75*
G03X107750000Y-19000000I-3750000J0D01*
G01*
X132750000Y-4000000D02*
G75*
G03X132750000Y-4000000I-3750000J0D01*
G01*
X132750000Y-180000000D02*
G75*
G03X132750000Y-180000000I-3750000J0D01*
G01*
X108981905Y-25598381D02*
X108981905Y-24598381D01*
X109362858Y-24598381D01*
X109458096Y-24646000D01*
X109505715Y-24693619D01*
X109553334Y-24788857D01*
X109553334Y-24931714D01*
X109505715Y-25026952D01*
X109458096Y-25074571D01*
X109362858Y-25122190D01*
X108981905Y-25122190D01*
X109886667Y-24598381D02*
X110505715Y-24598381D01*
X110172381Y-24979333D01*
X110315239Y-24979333D01*
X110410477Y-25026952D01*
X110458096Y-25074571D01*
X110505715Y-25169810D01*
X110505715Y-25407905D01*
X110458096Y-25503143D01*
X110410477Y-25550762D01*
X110315239Y-25598381D01*
X110029524Y-25598381D01*
X109934286Y-25550762D01*
X109886667Y-25503143D01*
X111165047Y-25598381D02*
X111165047Y-24598381D01*
X111403142Y-24598381D01*
X111546000Y-24646000D01*
X111641238Y-24741238D01*
X111688857Y-24836476D01*
X111736476Y-25026952D01*
X111736476Y-25169810D01*
X111688857Y-25360286D01*
X111641238Y-25455524D01*
X111546000Y-25550762D01*
X111403142Y-25598381D01*
X111165047Y-25598381D01*
X112165047Y-24598381D02*
X112165047Y-25407905D01*
X112212666Y-25503143D01*
X112260285Y-25550762D01*
X112355523Y-25598381D01*
X112546000Y-25598381D01*
X112641238Y-25550762D01*
X112688857Y-25503143D01*
X112736476Y-25407905D01*
X112736476Y-24598381D01*
X113165047Y-25312667D02*
X113641238Y-25312667D01*
X113069809Y-25598381D02*
X113403142Y-24598381D01*
X113736476Y-25598381D01*
X114546000Y-25598381D02*
X114069809Y-25598381D01*
X114069809Y-24598381D01*
X114641238Y-25693619D02*
X115403143Y-25693619D01*
X115641238Y-25598381D02*
X115641238Y-24598381D01*
X116212667Y-25598381D01*
X116212667Y-24598381D01*
X116641238Y-25312667D02*
X117117429Y-25312667D01*
X116546000Y-25598381D02*
X116879333Y-24598381D01*
X117212667Y-25598381D01*
X117403143Y-24598381D02*
X117736476Y-25598381D01*
X118069810Y-24598381D01*
X118802239Y-26256571D02*
X118945096Y-26304190D01*
X118992715Y-26351810D01*
X119040334Y-26447048D01*
X119040334Y-26589905D01*
X118992715Y-26685143D01*
X118945096Y-26732762D01*
X118849858Y-26780381D01*
X118468905Y-26780381D01*
X118468905Y-25780381D01*
X118802239Y-25780381D01*
X118897477Y-25828000D01*
X118945096Y-25875619D01*
X118992715Y-25970857D01*
X118992715Y-26066095D01*
X118945096Y-26161333D01*
X118897477Y-26208952D01*
X118802239Y-26256571D01*
X118468905Y-26256571D01*
X119659381Y-25780381D02*
X119754620Y-25780381D01*
X119849858Y-25828000D01*
X119897477Y-25875619D01*
X119945096Y-25970857D01*
X119992715Y-26161333D01*
X119992715Y-26399429D01*
X119945096Y-26589905D01*
X119897477Y-26685143D01*
X119849858Y-26732762D01*
X119754620Y-26780381D01*
X119659381Y-26780381D01*
X119564143Y-26732762D01*
X119516524Y-26685143D01*
X119468905Y-26589905D01*
X119421286Y-26399429D01*
X119421286Y-26161333D01*
X119468905Y-25970857D01*
X119516524Y-25875619D01*
X119564143Y-25828000D01*
X119659381Y-25780381D01*
X115754286Y-26780381D02*
X115754286Y-25780381D01*
X116325715Y-26780381D01*
X116325715Y-25780381D01*
X117373334Y-26685143D02*
X117325715Y-26732762D01*
X117182858Y-26780381D01*
X117087620Y-26780381D01*
X116944762Y-26732762D01*
X116849524Y-26637524D01*
X116801905Y-26542286D01*
X116754286Y-26351810D01*
X116754286Y-26208952D01*
X116801905Y-26018476D01*
X116849524Y-25923238D01*
X116944762Y-25828000D01*
X117087620Y-25780381D01*
X117182858Y-25780381D01*
X117325715Y-25828000D01*
X117373334Y-25875619D01*
X113214286Y-26780381D02*
X113214286Y-25780381D01*
X113785715Y-26780381D01*
X113785715Y-25780381D01*
X114833334Y-26685143D02*
X114785715Y-26732762D01*
X114642858Y-26780381D01*
X114547620Y-26780381D01*
X114404762Y-26732762D01*
X114309524Y-26637524D01*
X114261905Y-26542286D01*
X114214286Y-26351810D01*
X114214286Y-26208952D01*
X114261905Y-26018476D01*
X114309524Y-25923238D01*
X114404762Y-25828000D01*
X114547620Y-25780381D01*
X114642858Y-25780381D01*
X114785715Y-25828000D01*
X114833334Y-25875619D01*
X108332714Y-26494667D02*
X108808905Y-26494667D01*
X108237476Y-26780381D02*
X108570809Y-25780381D01*
X108904143Y-26780381D01*
X109427952Y-25780381D02*
X109523191Y-25780381D01*
X109618429Y-25828000D01*
X109666048Y-25875619D01*
X109713667Y-25970857D01*
X109761286Y-26161333D01*
X109761286Y-26399429D01*
X109713667Y-26589905D01*
X109666048Y-26685143D01*
X109618429Y-26732762D01*
X109523191Y-26780381D01*
X109427952Y-26780381D01*
X109332714Y-26732762D01*
X109285095Y-26685143D01*
X109237476Y-26589905D01*
X109189857Y-26399429D01*
X109189857Y-26161333D01*
X109237476Y-25970857D01*
X109285095Y-25875619D01*
X109332714Y-25828000D01*
X109427952Y-25780381D01*
X111293334Y-26685143D02*
X111245715Y-26732762D01*
X111102858Y-26780381D01*
X111007620Y-26780381D01*
X110864762Y-26732762D01*
X110769524Y-26637524D01*
X110721905Y-26542286D01*
X110674286Y-26351810D01*
X110674286Y-26208952D01*
X110721905Y-26018476D01*
X110769524Y-25923238D01*
X110864762Y-25828000D01*
X111007620Y-25780381D01*
X111102858Y-25780381D01*
X111245715Y-25828000D01*
X111293334Y-25875619D01*
X111912381Y-25780381D02*
X112007620Y-25780381D01*
X112102858Y-25828000D01*
X112150477Y-25875619D01*
X112198096Y-25970857D01*
X112245715Y-26161333D01*
X112245715Y-26399429D01*
X112198096Y-26589905D01*
X112150477Y-26685143D01*
X112102858Y-26732762D01*
X112007620Y-26780381D01*
X111912381Y-26780381D01*
X111817143Y-26732762D01*
X111769524Y-26685143D01*
X111721905Y-26589905D01*
X111674286Y-26399429D01*
X111674286Y-26161333D01*
X111721905Y-25970857D01*
X111769524Y-25875619D01*
X111817143Y-25828000D01*
X111912381Y-25780381D01*
X119523810Y-48416667D02*
X120000001Y-48416667D01*
X119428572Y-48702381D02*
X119761905Y-47702381D01*
X120095239Y-48702381D01*
X120428572Y-48702381D02*
X120428572Y-48035714D01*
X120428572Y-47702381D02*
X120380953Y-47750000D01*
X120428572Y-47797619D01*
X120476191Y-47750000D01*
X120428572Y-47702381D01*
X120428572Y-47797619D01*
X117571429Y-48607143D02*
X117523810Y-48654762D01*
X117380953Y-48702381D01*
X117285715Y-48702381D01*
X117142857Y-48654762D01*
X117047619Y-48559524D01*
X117000000Y-48464286D01*
X116952381Y-48273810D01*
X116952381Y-48130952D01*
X117000000Y-47940476D01*
X117047619Y-47845238D01*
X117142857Y-47750000D01*
X117285715Y-47702381D01*
X117380953Y-47702381D01*
X117523810Y-47750000D01*
X117571429Y-47797619D01*
X118000000Y-48702381D02*
X118000000Y-48035714D01*
X118000000Y-47702381D02*
X117952381Y-47750000D01*
X118000000Y-47797619D01*
X118047619Y-47750000D01*
X118000000Y-47702381D01*
X118000000Y-47797619D01*
X112530286Y-46204762D02*
X112673143Y-46252381D01*
X112911239Y-46252381D01*
X113006477Y-46204762D01*
X113054096Y-46157143D01*
X113101715Y-46061905D01*
X113101715Y-45966667D01*
X113054096Y-45871429D01*
X113006477Y-45823810D01*
X112911239Y-45776190D01*
X112720762Y-45728571D01*
X112625524Y-45680952D01*
X112577905Y-45633333D01*
X112530286Y-45538095D01*
X112530286Y-45442857D01*
X112577905Y-45347619D01*
X112625524Y-45300000D01*
X112720762Y-45252381D01*
X112958858Y-45252381D01*
X113101715Y-45300000D01*
X109990286Y-46204762D02*
X110133143Y-46252381D01*
X110371239Y-46252381D01*
X110466477Y-46204762D01*
X110514096Y-46157143D01*
X110561715Y-46061905D01*
X110561715Y-45966667D01*
X110514096Y-45871429D01*
X110466477Y-45823810D01*
X110371239Y-45776190D01*
X110180762Y-45728571D01*
X110085524Y-45680952D01*
X110037905Y-45633333D01*
X109990286Y-45538095D01*
X109990286Y-45442857D01*
X110037905Y-45347619D01*
X110085524Y-45300000D01*
X110180762Y-45252381D01*
X110418858Y-45252381D01*
X110561715Y-45300000D01*
X107833334Y-48428571D02*
X107976191Y-48476190D01*
X108023810Y-48523810D01*
X108071429Y-48619048D01*
X108071429Y-48761905D01*
X108023810Y-48857143D01*
X107976191Y-48904762D01*
X107880953Y-48952381D01*
X107500000Y-48952381D01*
X107500000Y-47952381D01*
X107833334Y-47952381D01*
X107928572Y-48000000D01*
X107976191Y-48047619D01*
X108023810Y-48142857D01*
X108023810Y-48238095D01*
X107976191Y-48333333D01*
X107928572Y-48380952D01*
X107833334Y-48428571D01*
X107500000Y-48428571D01*
X108500000Y-48952381D02*
X108500000Y-48285714D01*
X108500000Y-47952381D02*
X108452381Y-48000000D01*
X108500000Y-48047619D01*
X108547619Y-48000000D01*
X108500000Y-47952381D01*
X108500000Y-48047619D01*
X117011905Y-64702381D02*
X117011905Y-63702381D01*
X117392858Y-63702381D01*
X117488096Y-63750000D01*
X117535715Y-63797619D01*
X117583334Y-63892857D01*
X117583334Y-64035714D01*
X117535715Y-64130952D01*
X117488096Y-64178571D01*
X117392858Y-64226190D01*
X117011905Y-64226190D01*
X118440477Y-63702381D02*
X118250000Y-63702381D01*
X118154762Y-63750000D01*
X118107143Y-63797619D01*
X118011905Y-63940476D01*
X117964286Y-64130952D01*
X117964286Y-64511905D01*
X118011905Y-64607143D01*
X118059524Y-64654762D01*
X118154762Y-64702381D01*
X118345239Y-64702381D01*
X118440477Y-64654762D01*
X118488096Y-64607143D01*
X118535715Y-64511905D01*
X118535715Y-64273810D01*
X118488096Y-64178571D01*
X118440477Y-64130952D01*
X118345239Y-64083333D01*
X118154762Y-64083333D01*
X118059524Y-64130952D01*
X118011905Y-64178571D01*
X117964286Y-64273810D01*
X105321429Y-64702381D02*
X105321429Y-63702381D01*
X105321429Y-64178571D02*
X105892858Y-64178571D01*
X105892858Y-64702381D02*
X105892858Y-63702381D01*
X106369048Y-64178571D02*
X106702382Y-64178571D01*
X106845239Y-64702381D02*
X106369048Y-64702381D01*
X106369048Y-63702381D01*
X106845239Y-63702381D01*
X107226191Y-64416667D02*
X107702382Y-64416667D01*
X107130953Y-64702381D02*
X107464286Y-63702381D01*
X107797620Y-64702381D01*
X108130953Y-64702381D02*
X108130953Y-63702381D01*
X108369048Y-63702381D01*
X108511906Y-63750000D01*
X108607144Y-63845238D01*
X108654763Y-63940476D01*
X108702382Y-64130952D01*
X108702382Y-64273810D01*
X108654763Y-64464286D01*
X108607144Y-64559524D01*
X108511906Y-64654762D01*
X108369048Y-64702381D01*
X108130953Y-64702381D01*
X109130953Y-64702381D02*
X109130953Y-63702381D01*
X109607143Y-64702381D02*
X109607143Y-63702381D01*
X110178572Y-64702381D01*
X110178572Y-63702381D01*
X111178572Y-63750000D02*
X111083334Y-63702381D01*
X110940477Y-63702381D01*
X110797619Y-63750000D01*
X110702381Y-63845238D01*
X110654762Y-63940476D01*
X110607143Y-64130952D01*
X110607143Y-64273810D01*
X110654762Y-64464286D01*
X110702381Y-64559524D01*
X110797619Y-64654762D01*
X110940477Y-64702381D01*
X111035715Y-64702381D01*
X111178572Y-64654762D01*
X111226191Y-64607143D01*
X111226191Y-64273810D01*
X111035715Y-64273810D01*
X123183667Y-74028095D02*
X123183667Y-73551904D01*
X123469381Y-74123333D02*
X122469381Y-73790000D01*
X123469381Y-73456666D01*
X123374143Y-70940476D02*
X123421762Y-70988095D01*
X123469381Y-71130952D01*
X123469381Y-71226190D01*
X123421762Y-71369048D01*
X123326524Y-71464286D01*
X123231286Y-71511905D01*
X123040810Y-71559524D01*
X122897952Y-71559524D01*
X122707476Y-71511905D01*
X122612238Y-71464286D01*
X122517000Y-71369048D01*
X122469381Y-71226190D01*
X122469381Y-71130952D01*
X122517000Y-70988095D01*
X122564619Y-70940476D01*
X122945571Y-68638571D02*
X122993190Y-68495714D01*
X123040810Y-68448095D01*
X123136048Y-68400476D01*
X123278905Y-68400476D01*
X123374143Y-68448095D01*
X123421762Y-68495714D01*
X123469381Y-68590952D01*
X123469381Y-68971905D01*
X122469381Y-68971905D01*
X122469381Y-68638571D01*
X122517000Y-68543333D01*
X122564619Y-68495714D01*
X122659857Y-68448095D01*
X122755095Y-68448095D01*
X122850333Y-68495714D01*
X122897952Y-68543333D01*
X122945571Y-68638571D01*
X122945571Y-68971905D01*
X105895762Y-74075714D02*
X105943381Y-73932857D01*
X105943381Y-73694761D01*
X105895762Y-73599523D01*
X105848143Y-73551904D01*
X105752905Y-73504285D01*
X105657667Y-73504285D01*
X105562429Y-73551904D01*
X105514810Y-73599523D01*
X105467190Y-73694761D01*
X105419571Y-73885238D01*
X105371952Y-73980476D01*
X105324333Y-74028095D01*
X105229095Y-74075714D01*
X105133857Y-74075714D01*
X105038619Y-74028095D01*
X104991000Y-73980476D01*
X104943381Y-73885238D01*
X104943381Y-73647142D01*
X104991000Y-73504285D01*
X105895762Y-68995714D02*
X105943381Y-68852857D01*
X105943381Y-68614761D01*
X105895762Y-68519523D01*
X105848143Y-68471904D01*
X105752905Y-68424285D01*
X105657667Y-68424285D01*
X105562429Y-68471904D01*
X105514810Y-68519523D01*
X105467190Y-68614761D01*
X105419571Y-68805238D01*
X105371952Y-68900476D01*
X105324333Y-68948095D01*
X105229095Y-68995714D01*
X105133857Y-68995714D01*
X105038619Y-68948095D01*
X104991000Y-68900476D01*
X104943381Y-68805238D01*
X104943381Y-68567142D01*
X104991000Y-68424285D01*
X116395905Y-1294381D02*
X116395905Y-294381D01*
X116776858Y-294381D01*
X116872096Y-342000D01*
X116919715Y-389619D01*
X116967334Y-484857D01*
X116967334Y-627714D01*
X116919715Y-722952D01*
X116872096Y-770571D01*
X116776858Y-818190D01*
X116395905Y-818190D01*
X117872096Y-294381D02*
X117395905Y-294381D01*
X117348286Y-770571D01*
X117395905Y-722952D01*
X117491143Y-675333D01*
X117729239Y-675333D01*
X117824477Y-722952D01*
X117872096Y-770571D01*
X117919715Y-865810D01*
X117919715Y-1103905D01*
X117872096Y-1199143D01*
X117824477Y-1246762D01*
X117729239Y-1294381D01*
X117491143Y-1294381D01*
X117395905Y-1246762D01*
X117348286Y-1199143D01*
X105871047Y-1294381D02*
X105871047Y-294381D01*
X106442476Y-1294381D01*
X106442476Y-294381D01*
X106871047Y-1008667D02*
X107347238Y-1008667D01*
X106775809Y-1294381D02*
X107109142Y-294381D01*
X107442476Y-1294381D01*
X107632952Y-294381D02*
X107966285Y-1294381D01*
X108299619Y-294381D01*
X108394857Y-1389619D02*
X109156762Y-1389619D01*
X109252000Y-294381D02*
X109585333Y-1294381D01*
X109918667Y-294381D01*
X110442476Y-294381D02*
X110632953Y-294381D01*
X110728191Y-342000D01*
X110823429Y-437238D01*
X110871048Y-627714D01*
X110871048Y-961048D01*
X110823429Y-1151524D01*
X110728191Y-1246762D01*
X110632953Y-1294381D01*
X110442476Y-1294381D01*
X110347238Y-1246762D01*
X110252000Y-1151524D01*
X110204381Y-961048D01*
X110204381Y-627714D01*
X110252000Y-437238D01*
X110347238Y-342000D01*
X110442476Y-294381D01*
X111775810Y-1294381D02*
X111299619Y-1294381D01*
X111299619Y-294381D01*
X123183667Y-10778095D02*
X123183667Y-10301904D01*
X123469381Y-10873333D02*
X122469381Y-10540000D01*
X123469381Y-10206666D01*
X123374143Y-7690476D02*
X123421762Y-7738095D01*
X123469381Y-7880952D01*
X123469381Y-7976190D01*
X123421762Y-8119048D01*
X123326524Y-8214286D01*
X123231286Y-8261905D01*
X123040810Y-8309524D01*
X122897952Y-8309524D01*
X122707476Y-8261905D01*
X122612238Y-8214286D01*
X122517000Y-8119048D01*
X122469381Y-7976190D01*
X122469381Y-7880952D01*
X122517000Y-7738095D01*
X122564619Y-7690476D01*
X122945571Y-5388571D02*
X122993190Y-5245714D01*
X123040810Y-5198095D01*
X123136048Y-5150476D01*
X123278905Y-5150476D01*
X123374143Y-5198095D01*
X123421762Y-5245714D01*
X123469381Y-5340952D01*
X123469381Y-5721905D01*
X122469381Y-5721905D01*
X122469381Y-5388571D01*
X122517000Y-5293333D01*
X122564619Y-5245714D01*
X122659857Y-5198095D01*
X122755095Y-5198095D01*
X122850333Y-5245714D01*
X122897952Y-5293333D01*
X122945571Y-5388571D01*
X122945571Y-5721905D01*
X105895762Y-10825714D02*
X105943381Y-10682857D01*
X105943381Y-10444761D01*
X105895762Y-10349523D01*
X105848143Y-10301904D01*
X105752905Y-10254285D01*
X105657667Y-10254285D01*
X105562429Y-10301904D01*
X105514810Y-10349523D01*
X105467190Y-10444761D01*
X105419571Y-10635238D01*
X105371952Y-10730476D01*
X105324333Y-10778095D01*
X105229095Y-10825714D01*
X105133857Y-10825714D01*
X105038619Y-10778095D01*
X104991000Y-10730476D01*
X104943381Y-10635238D01*
X104943381Y-10397142D01*
X104991000Y-10254285D01*
X105895762Y-5745714D02*
X105943381Y-5602857D01*
X105943381Y-5364761D01*
X105895762Y-5269523D01*
X105848143Y-5221904D01*
X105752905Y-5174285D01*
X105657667Y-5174285D01*
X105562429Y-5221904D01*
X105514810Y-5269523D01*
X105467190Y-5364761D01*
X105419571Y-5555238D01*
X105371952Y-5650476D01*
X105324333Y-5698095D01*
X105229095Y-5745714D01*
X105133857Y-5745714D01*
X105038619Y-5698095D01*
X104991000Y-5650476D01*
X104943381Y-5555238D01*
X104943381Y-5317142D01*
X104991000Y-5174285D01*
X113261905Y-158702381D02*
X113261905Y-157702381D01*
X113642858Y-157702381D01*
X113738096Y-157750000D01*
X113785715Y-157797619D01*
X113833334Y-157892857D01*
X113833334Y-158035714D01*
X113785715Y-158130952D01*
X113738096Y-158178571D01*
X113642858Y-158226190D01*
X113261905Y-158226190D01*
X114690477Y-158035714D02*
X114690477Y-158702381D01*
X114452381Y-157654762D02*
X114214286Y-158369048D01*
X114833334Y-158369048D01*
X110476190Y-158416667D02*
X110952381Y-158416667D01*
X110380952Y-158702381D02*
X110714285Y-157702381D01*
X111047619Y-158702381D01*
X111857143Y-158702381D02*
X111380952Y-158702381D01*
X111380952Y-157702381D01*
X112047619Y-157702381D02*
X112619048Y-157702381D01*
X112333333Y-158702381D02*
X112333333Y-157702381D01*
X118802239Y-159506571D02*
X118945096Y-159554190D01*
X118992715Y-159601810D01*
X119040334Y-159697048D01*
X119040334Y-159839905D01*
X118992715Y-159935143D01*
X118945096Y-159982762D01*
X118849858Y-160030381D01*
X118468905Y-160030381D01*
X118468905Y-159030381D01*
X118802239Y-159030381D01*
X118897477Y-159078000D01*
X118945096Y-159125619D01*
X118992715Y-159220857D01*
X118992715Y-159316095D01*
X118945096Y-159411333D01*
X118897477Y-159458952D01*
X118802239Y-159506571D01*
X118468905Y-159506571D01*
X119659381Y-159030381D02*
X119754620Y-159030381D01*
X119849858Y-159078000D01*
X119897477Y-159125619D01*
X119945096Y-159220857D01*
X119992715Y-159411333D01*
X119992715Y-159649429D01*
X119945096Y-159839905D01*
X119897477Y-159935143D01*
X119849858Y-159982762D01*
X119754620Y-160030381D01*
X119659381Y-160030381D01*
X119564143Y-159982762D01*
X119516524Y-159935143D01*
X119468905Y-159839905D01*
X119421286Y-159649429D01*
X119421286Y-159411333D01*
X119468905Y-159220857D01*
X119516524Y-159125619D01*
X119564143Y-159078000D01*
X119659381Y-159030381D01*
X115754286Y-160030381D02*
X115754286Y-159030381D01*
X116325715Y-160030381D01*
X116325715Y-159030381D01*
X117373334Y-159935143D02*
X117325715Y-159982762D01*
X117182858Y-160030381D01*
X117087620Y-160030381D01*
X116944762Y-159982762D01*
X116849524Y-159887524D01*
X116801905Y-159792286D01*
X116754286Y-159601810D01*
X116754286Y-159458952D01*
X116801905Y-159268476D01*
X116849524Y-159173238D01*
X116944762Y-159078000D01*
X117087620Y-159030381D01*
X117182858Y-159030381D01*
X117325715Y-159078000D01*
X117373334Y-159125619D01*
X113214286Y-160030381D02*
X113214286Y-159030381D01*
X113785715Y-160030381D01*
X113785715Y-159030381D01*
X114833334Y-159935143D02*
X114785715Y-159982762D01*
X114642858Y-160030381D01*
X114547620Y-160030381D01*
X114404762Y-159982762D01*
X114309524Y-159887524D01*
X114261905Y-159792286D01*
X114214286Y-159601810D01*
X114214286Y-159458952D01*
X114261905Y-159268476D01*
X114309524Y-159173238D01*
X114404762Y-159078000D01*
X114547620Y-159030381D01*
X114642858Y-159030381D01*
X114785715Y-159078000D01*
X114833334Y-159125619D01*
X108332714Y-159744667D02*
X108808905Y-159744667D01*
X108237476Y-160030381D02*
X108570809Y-159030381D01*
X108904143Y-160030381D01*
X109427952Y-159030381D02*
X109523191Y-159030381D01*
X109618429Y-159078000D01*
X109666048Y-159125619D01*
X109713667Y-159220857D01*
X109761286Y-159411333D01*
X109761286Y-159649429D01*
X109713667Y-159839905D01*
X109666048Y-159935143D01*
X109618429Y-159982762D01*
X109523191Y-160030381D01*
X109427952Y-160030381D01*
X109332714Y-159982762D01*
X109285095Y-159935143D01*
X109237476Y-159839905D01*
X109189857Y-159649429D01*
X109189857Y-159411333D01*
X109237476Y-159220857D01*
X109285095Y-159125619D01*
X109332714Y-159078000D01*
X109427952Y-159030381D01*
X111293334Y-159935143D02*
X111245715Y-159982762D01*
X111102858Y-160030381D01*
X111007620Y-160030381D01*
X110864762Y-159982762D01*
X110769524Y-159887524D01*
X110721905Y-159792286D01*
X110674286Y-159601810D01*
X110674286Y-159458952D01*
X110721905Y-159268476D01*
X110769524Y-159173238D01*
X110864762Y-159078000D01*
X111007620Y-159030381D01*
X111102858Y-159030381D01*
X111245715Y-159078000D01*
X111293334Y-159125619D01*
X111912381Y-159030381D02*
X112007620Y-159030381D01*
X112102858Y-159078000D01*
X112150477Y-159125619D01*
X112198096Y-159220857D01*
X112245715Y-159411333D01*
X112245715Y-159649429D01*
X112198096Y-159839905D01*
X112150477Y-159935143D01*
X112102858Y-159982762D01*
X112007620Y-160030381D01*
X111912381Y-160030381D01*
X111817143Y-159982762D01*
X111769524Y-159935143D01*
X111721905Y-159839905D01*
X111674286Y-159649429D01*
X111674286Y-159411333D01*
X111721905Y-159220857D01*
X111769524Y-159125619D01*
X111817143Y-159078000D01*
X111912381Y-159030381D01*
X118689810Y-178554667D02*
X119166001Y-178554667D01*
X118594572Y-178840381D02*
X118927905Y-177840381D01*
X119261239Y-178840381D01*
X119594572Y-178840381D02*
X119594572Y-178173714D01*
X119594572Y-177840381D02*
X119546953Y-177888000D01*
X119594572Y-177935619D01*
X119642191Y-177888000D01*
X119594572Y-177840381D01*
X119594572Y-177935619D01*
X116443429Y-178745143D02*
X116395810Y-178792762D01*
X116252953Y-178840381D01*
X116157715Y-178840381D01*
X116014857Y-178792762D01*
X115919619Y-178697524D01*
X115872000Y-178602286D01*
X115824381Y-178411810D01*
X115824381Y-178268952D01*
X115872000Y-178078476D01*
X115919619Y-177983238D01*
X116014857Y-177888000D01*
X116157715Y-177840381D01*
X116252953Y-177840381D01*
X116395810Y-177888000D01*
X116443429Y-177935619D01*
X116872000Y-178840381D02*
X116872000Y-178173714D01*
X116872000Y-177840381D02*
X116824381Y-177888000D01*
X116872000Y-177935619D01*
X116919619Y-177888000D01*
X116872000Y-177840381D01*
X116872000Y-177935619D01*
X113800286Y-178792762D02*
X113943143Y-178840381D01*
X114181239Y-178840381D01*
X114276477Y-178792762D01*
X114324096Y-178745143D01*
X114371715Y-178649905D01*
X114371715Y-178554667D01*
X114324096Y-178459429D01*
X114276477Y-178411810D01*
X114181239Y-178364190D01*
X113990762Y-178316571D01*
X113895524Y-178268952D01*
X113847905Y-178221333D01*
X113800286Y-178126095D01*
X113800286Y-178030857D01*
X113847905Y-177935619D01*
X113895524Y-177888000D01*
X113990762Y-177840381D01*
X114228858Y-177840381D01*
X114371715Y-177888000D01*
X111260286Y-178792762D02*
X111403143Y-178840381D01*
X111641239Y-178840381D01*
X111736477Y-178792762D01*
X111784096Y-178745143D01*
X111831715Y-178649905D01*
X111831715Y-178554667D01*
X111784096Y-178459429D01*
X111736477Y-178411810D01*
X111641239Y-178364190D01*
X111450762Y-178316571D01*
X111355524Y-178268952D01*
X111307905Y-178221333D01*
X111260286Y-178126095D01*
X111260286Y-178030857D01*
X111307905Y-177935619D01*
X111355524Y-177888000D01*
X111450762Y-177840381D01*
X111688858Y-177840381D01*
X111831715Y-177888000D01*
X108839334Y-178316571D02*
X108982191Y-178364190D01*
X109029810Y-178411810D01*
X109077429Y-178507048D01*
X109077429Y-178649905D01*
X109029810Y-178745143D01*
X108982191Y-178792762D01*
X108886953Y-178840381D01*
X108506000Y-178840381D01*
X108506000Y-177840381D01*
X108839334Y-177840381D01*
X108934572Y-177888000D01*
X108982191Y-177935619D01*
X109029810Y-178030857D01*
X109029810Y-178126095D01*
X108982191Y-178221333D01*
X108934572Y-178268952D01*
X108839334Y-178316571D01*
X108506000Y-178316571D01*
X109506000Y-178840381D02*
X109506000Y-178173714D01*
X109506000Y-177840381D02*
X109458381Y-177888000D01*
X109506000Y-177935619D01*
X109553619Y-177888000D01*
X109506000Y-177840381D01*
X109506000Y-177935619D01*
X128016095Y-175442381D02*
X128016095Y-176251905D01*
X128063714Y-176347143D01*
X128111333Y-176394762D01*
X128206571Y-176442381D01*
X128397048Y-176442381D01*
X128492286Y-176394762D01*
X128539905Y-176347143D01*
X128587524Y-176251905D01*
X128587524Y-175442381D01*
X129016095Y-175537619D02*
X129063714Y-175490000D01*
X129158952Y-175442381D01*
X129397048Y-175442381D01*
X129492286Y-175490000D01*
X129539905Y-175537619D01*
X129587524Y-175632857D01*
X129587524Y-175728095D01*
X129539905Y-175870952D01*
X128968476Y-176442381D01*
X129587524Y-176442381D01*
D12*
X129798000Y-172589048D02*
X129774190Y-172636667D01*
X129774190Y-172708095D01*
X129798000Y-172779524D01*
X129845619Y-172827143D01*
X129893238Y-172850952D01*
X129988476Y-172874762D01*
X130059905Y-172874762D01*
X130155143Y-172850952D01*
X130202762Y-172827143D01*
X130250381Y-172779524D01*
X130274190Y-172708095D01*
X130274190Y-172660476D01*
X130250381Y-172589048D01*
X130226571Y-172565238D01*
X130059905Y-172565238D01*
X130059905Y-172660476D01*
D11*
X128436381Y-169818095D02*
X127436381Y-169818095D01*
X127436381Y-169580000D01*
X127484000Y-169437142D01*
X127579238Y-169341904D01*
X127674476Y-169294285D01*
X127864952Y-169246666D01*
X128007810Y-169246666D01*
X128198286Y-169294285D01*
X128293524Y-169341904D01*
X128388762Y-169437142D01*
X128436381Y-169580000D01*
X128436381Y-169818095D01*
X127864952Y-168675238D02*
X127817333Y-168770476D01*
X127769714Y-168818095D01*
X127674476Y-168865714D01*
X127626857Y-168865714D01*
X127531619Y-168818095D01*
X127484000Y-168770476D01*
X127436381Y-168675238D01*
X127436381Y-168484761D01*
X127484000Y-168389523D01*
X127531619Y-168341904D01*
X127626857Y-168294285D01*
X127674476Y-168294285D01*
X127769714Y-168341904D01*
X127817333Y-168389523D01*
X127864952Y-168484761D01*
X127864952Y-168675238D01*
X127912571Y-168770476D01*
X127960190Y-168818095D01*
X128055429Y-168865714D01*
X128245905Y-168865714D01*
X128341143Y-168818095D01*
X128388762Y-168770476D01*
X128436381Y-168675238D01*
X128436381Y-168484761D01*
X128388762Y-168389523D01*
X128341143Y-168341904D01*
X128245905Y-168294285D01*
X128055429Y-168294285D01*
X127960190Y-168341904D01*
X127912571Y-168389523D01*
X127864952Y-168484761D01*
X129952381Y-170214286D02*
X128952381Y-170214286D01*
X128952381Y-169976191D01*
X129000000Y-169833333D01*
X129095238Y-169738095D01*
X129190476Y-169690476D01*
X129380952Y-169642857D01*
X129523810Y-169642857D01*
X129714286Y-169690476D01*
X129809524Y-169738095D01*
X129904762Y-169833333D01*
X129952381Y-169976191D01*
X129952381Y-170214286D01*
X129952381Y-168690476D02*
X129952381Y-169261905D01*
X129952381Y-168976191D02*
X128952381Y-168976191D01*
X129095238Y-169071429D01*
X129190476Y-169166667D01*
X129238095Y-169261905D01*
X129952381Y-168214286D02*
X129952381Y-168023810D01*
X129904762Y-167928571D01*
X129857143Y-167880952D01*
X129714286Y-167785714D01*
X129523810Y-167738095D01*
X129142857Y-167738095D01*
X129047619Y-167785714D01*
X129000000Y-167833333D01*
X128952381Y-167928571D01*
X128952381Y-168119048D01*
X129000000Y-168214286D01*
X129047619Y-168261905D01*
X129142857Y-168309524D01*
X129380952Y-168309524D01*
X129476190Y-168261905D01*
X129523810Y-168214286D01*
X129571429Y-168119048D01*
X129571429Y-167928571D01*
X129523810Y-167833333D01*
X129476190Y-167785714D01*
X129380952Y-167738095D01*
X118130952Y-21654762D02*
X118273809Y-21702381D01*
X118511905Y-21702381D01*
X118607143Y-21654762D01*
X118654762Y-21607143D01*
X118702381Y-21511905D01*
X118702381Y-21416667D01*
X118654762Y-21321429D01*
X118607143Y-21273810D01*
X118511905Y-21226190D01*
X118321428Y-21178571D01*
X118226190Y-21130952D01*
X118178571Y-21083333D01*
X118130952Y-20988095D01*
X118130952Y-20892857D01*
X118178571Y-20797619D01*
X118226190Y-20750000D01*
X118321428Y-20702381D01*
X118559524Y-20702381D01*
X118702381Y-20750000D01*
X119035714Y-20702381D02*
X119273809Y-21702381D01*
X119464286Y-20988095D01*
X119654762Y-21702381D01*
X119892857Y-20702381D01*
X120035714Y-21797619D02*
X120797619Y-21797619D01*
X121035714Y-21702381D02*
X121035714Y-20702381D01*
X121416667Y-20702381D01*
X121511905Y-20750000D01*
X121559524Y-20797619D01*
X121607143Y-20892857D01*
X121607143Y-21035714D01*
X121559524Y-21130952D01*
X121511905Y-21178571D01*
X121416667Y-21226190D01*
X121035714Y-21226190D01*
X122035714Y-20702381D02*
X122035714Y-21511905D01*
X122083333Y-21607143D01*
X122130952Y-21654762D01*
X122226190Y-21702381D01*
X122416667Y-21702381D01*
X122511905Y-21654762D01*
X122559524Y-21607143D01*
X122607143Y-21511905D01*
X122607143Y-20702381D01*
X123035714Y-21654762D02*
X123178571Y-21702381D01*
X123416667Y-21702381D01*
X123511905Y-21654762D01*
X123559524Y-21607143D01*
X123607143Y-21511905D01*
X123607143Y-21416667D01*
X123559524Y-21321429D01*
X123511905Y-21273810D01*
X123416667Y-21226190D01*
X123226190Y-21178571D01*
X123130952Y-21130952D01*
X123083333Y-21083333D01*
X123035714Y-20988095D01*
X123035714Y-20892857D01*
X123083333Y-20797619D01*
X123130952Y-20750000D01*
X123226190Y-20702381D01*
X123464286Y-20702381D01*
X123607143Y-20750000D01*
X124035714Y-21702381D02*
X124035714Y-20702381D01*
X124035714Y-21178571D02*
X124607143Y-21178571D01*
X124607143Y-21702381D02*
X124607143Y-20702381D01*
X124845238Y-21797619D02*
X125607143Y-21797619D01*
X125797619Y-20797619D02*
X125845238Y-20750000D01*
X125940476Y-20702381D01*
X126178572Y-20702381D01*
X126273810Y-20750000D01*
X126321429Y-20797619D01*
X126369048Y-20892857D01*
X126369048Y-20988095D01*
X126321429Y-21130952D01*
X125750000Y-21702381D01*
X126369048Y-21702381D01*
M02*
