G04 #@! TF.FileFunction,Soldermask,Bot*
%FSLAX46Y46*%
G04 Gerber Fmt 4.6, Leading zero omitted, Abs format (unit mm)*
G04 Created by KiCad (PCBNEW 4.0.4+e1-6308~48~ubuntu14.04.1-stable) date Thu Sep  7 12:23:15 2017*
%MOMM*%
%LPD*%
G01*
G04 APERTURE LIST*
%ADD10C,0.100000*%
%ADD11C,1.900000*%
%ADD12R,1.900000X1.900000*%
%ADD13C,4.400000*%
%ADD14R,4.780000X1.290000*%
%ADD15R,4.000000X1.670000*%
%ADD16R,2.200000X2.400000*%
%ADD17R,2.400000X2.200000*%
%ADD18C,7.400000*%
G04 APERTURE END LIST*
D10*
D11*
X108920000Y-27860000D03*
X111460000Y-27860000D03*
X114000000Y-27860000D03*
X116540000Y-27860000D03*
X119080000Y-27860000D03*
D12*
X108920000Y-46640000D03*
D11*
X111460000Y-46640000D03*
X119080000Y-46640000D03*
X116540000Y-46640000D03*
X114000000Y-46640000D03*
D13*
X114000000Y-65550000D03*
D11*
X107000000Y-73790000D03*
X121500000Y-68710000D03*
X121500000Y-71250000D03*
X121500000Y-73790000D03*
X107000000Y-68710000D03*
D13*
X114000000Y-76950000D03*
D14*
X123040000Y-137570000D03*
X123040000Y-140110000D03*
X123040000Y-142650000D03*
X123040000Y-145190000D03*
X123040000Y-147730000D03*
X123040000Y-150270000D03*
X123040000Y-152810000D03*
X123040000Y-155350000D03*
X123040000Y-157890000D03*
X123040000Y-160430000D03*
X129960000Y-160430000D03*
X129960000Y-157890000D03*
X129960000Y-155350000D03*
X129960000Y-152810000D03*
X129960000Y-137570000D03*
X129960000Y-140110000D03*
X129960000Y-142650000D03*
X129960000Y-145190000D03*
X129960000Y-147730000D03*
X129960000Y-150270000D03*
D13*
X114000000Y-2300000D03*
D11*
X107000000Y-10540000D03*
X121500000Y-5460000D03*
X121500000Y-8000000D03*
X121500000Y-10540000D03*
X107000000Y-5460000D03*
D13*
X114000000Y-13700000D03*
D11*
X108920000Y-161110000D03*
X111460000Y-161110000D03*
X114000000Y-161110000D03*
X116540000Y-161110000D03*
X119080000Y-161110000D03*
D12*
X108920000Y-179890000D03*
D11*
X111460000Y-179890000D03*
X119080000Y-179890000D03*
X116540000Y-179890000D03*
X114000000Y-179890000D03*
D15*
X122710000Y-87430000D03*
X122710000Y-92510000D03*
X122710000Y-97590000D03*
X122710000Y-102670000D03*
X126610000Y-89970000D03*
X126610000Y-95050000D03*
X126610000Y-100130000D03*
X126610000Y-105210000D03*
X102390000Y-87430000D03*
X102390000Y-92510000D03*
X102390000Y-97590000D03*
X102390000Y-102670000D03*
X102390000Y-107750000D03*
X102390000Y-112830000D03*
X102390000Y-117910000D03*
X106290000Y-89970000D03*
X106290000Y-95050000D03*
X106290000Y-100130000D03*
X106290000Y-105210000D03*
X106290000Y-110290000D03*
X106290000Y-115370000D03*
X106290000Y-120450000D03*
X126610000Y-110290000D03*
X122710000Y-107750000D03*
X106290000Y-125530000D03*
X102390000Y-122990000D03*
D16*
X122214000Y-174410000D03*
D17*
X122214000Y-178810000D03*
D16*
X122214000Y-171444000D03*
D17*
X122214000Y-167044000D03*
X115016000Y-182198000D03*
D16*
X110616000Y-182198000D03*
X105704000Y-169920000D03*
D17*
X105704000Y-165520000D03*
D16*
X105704000Y-174410000D03*
D17*
X105704000Y-178810000D03*
X114172000Y-72978000D03*
D16*
X118572000Y-72978000D03*
X110022000Y-73400000D03*
D17*
X110022000Y-69000000D03*
X114172000Y-69422000D03*
D16*
X118572000Y-69422000D03*
D17*
X115016000Y-49102000D03*
D16*
X110616000Y-49102000D03*
X122214000Y-40044000D03*
D17*
X122214000Y-44444000D03*
D16*
X105704000Y-40298000D03*
D17*
X105704000Y-44698000D03*
D16*
X122214000Y-34030000D03*
D17*
X122214000Y-29630000D03*
D16*
X105704000Y-34284000D03*
D17*
X105704000Y-29884000D03*
X114680000Y-6176000D03*
D16*
X119080000Y-6176000D03*
D17*
X114680000Y-9986000D03*
D16*
X119080000Y-9986000D03*
X109768000Y-10154000D03*
D17*
X109768000Y-5754000D03*
X113410000Y-18622000D03*
D16*
X117810000Y-18622000D03*
D18*
X104000000Y-19000000D03*
X129000000Y-4000000D03*
X129000000Y-180000000D03*
M02*
