M48
;DRILL file {KiCad 4.0.4+e1-6308~48~ubuntu14.04.1-stable} date Thu Sep  7 12:23:23 2017
;FORMAT={-:-/ absolute / inch / decimal}
FMAT,2
INCH,TZ
T1C0.016
T2C0.039
T3C0.110
T4C0.146
%
G90
G05
M72
T1
X4.0311Y-4.6421
X4.0316Y-1.0031
X4.0316Y-2.9731
X4.0354Y-3.4449
X4.06Y-6.06
X4.0616Y-1.0431
X4.0616Y-2.8531
X4.1437Y-6.1417
X4.1437Y-6.811
X4.1616Y-1.3498
X4.1616Y-1.8931
X4.1929Y-3.7402
X4.1929Y-5.9055
X4.1939Y-5.0177
X4.1939Y-5.4606
X4.2016Y-6.3931
X4.2028Y-4.1929
X4.2028Y-4.6161
X4.23Y-7.02
X4.2421Y-3.8386
X4.2516Y-1.0031
X4.2616Y-1.0431
X4.311Y-5.7185
X4.3316Y-2.8898
X4.3799Y-3.3661
X4.3799Y-3.5433
X4.3799Y-6.2106
X4.4094Y-3.3366
X4.4094Y-3.5925
X4.4094Y-6.2894
X4.439Y-3.7402
X4.439Y-5.6496
X4.439Y-5.7185
X4.439Y-6.0925
X4.4685Y-3.3071
X4.4685Y-3.7992
X4.4685Y-5.6102
X4.4685Y-6.1811
X4.495Y-2.7331
X4.495Y-2.8731
X4.498Y-3.2776
X4.498Y-3.878
X4.498Y-5.7087
X4.5276Y-3.1594
X4.5276Y-3.9862
X4.5276Y-5.8169
X4.5276Y-6.25
X4.5282Y-1.9331
X4.5374Y-6.4075
X4.5571Y-3.189
X4.5571Y-4.1437
X4.5571Y-5.9154
X4.5571Y-6.1319
X4.5866Y-3.2185
X4.5866Y-4.2421
X4.5866Y-6.0138
X4.5866Y-6.0925
X4.5866Y-6.1713
X4.6161Y-3.248
X4.6161Y-4.2815
X4.6161Y-6.1122
X4.6457Y-4.439
X4.6457Y-5.561
X4.65Y-6.07
X4.6752Y-4.6161
X4.6752Y-5.5118
X4.6949Y-3.1299
X4.7047Y-4.8425
X4.7047Y-6.0728
X4.7316Y-0.6131
X4.7343Y-3.5433
X4.7343Y-4.5768
X4.7343Y-4.6457
X4.7343Y-5.876
X4.7451Y-0.6909
X4.7638Y-3.6417
X4.7638Y-5.0197
X4.7638Y-5.9646
X4.7835Y-6.5748
X4.7933Y-3.7402
X4.7933Y-5.3642
X4.81Y-6.27
X4.8116Y-1.5765
X4.813Y-6.4272
X4.813Y-6.6831
X4.8228Y-3.9469
X4.8228Y-5.2067
X4.8228Y-5.7677
X4.85Y-6.83
X4.8524Y-3.1299
X4.8524Y-4.0846
X4.86Y-6.27
X4.8716Y-0.3131
X4.872Y-6.3189
X4.872Y-6.4567
X4.8819Y-4.2421
X4.9Y-7.13
X4.9016Y-6.0728
X4.9116Y-1.1731
X4.92Y-6.98
X4.9311Y-3.7992
X4.9409Y-6.063
X4.9416Y-1.9531
X4.95Y-6.24
X4.95Y-6.81
X4.9705Y-5.4232
X4.9716Y-0.5631
X4.9716Y-0.6131
X4.9716Y-2.6531
X4.9803Y-6.1122
X4.9803Y-6.1713
X5.Y-6.4862
X5.0016Y-1.9231
X5.0016Y-2.8031
X5.0098Y-5.1476
X5.0098Y-5.4724
X5.0197Y-4.3898
X5.0295Y-6.3976
X5.0316Y-1.0331
X5.0316Y-1.8931
X5.0394Y-6.063
X5.0581Y-4.5748
X5.0581Y-5.0177
X5.0591Y-6.4862
X5.07Y-6.37
X5.07Y-6.88
X5.0787Y-4.1142
X5.128Y-5.8661
X5.128Y-6.2205
X5.128Y-6.2697
X5.1673Y-2.9823
X5.1673Y-4.1437
X5.1673Y-5.5118
X5.187Y-6.4862
X5.1969Y-3.4449
X5.1969Y-4.1142
X5.1969Y-4.1929
X5.1969Y-5.8169
X5.1969Y-6.3189
X5.2165Y-5.1476
T2
X4.2126Y-0.215
X4.2126Y-0.415
X4.2126Y-2.7051
X4.2126Y-2.9051
X4.2882Y-1.0969
X4.2882Y-1.8362
X4.2882Y-6.3429
X4.2882Y-7.0823
X4.3882Y-1.0969
X4.3882Y-1.8362
X4.3882Y-6.3429
X4.3882Y-7.0823
X4.4882Y-1.0969
X4.4882Y-1.8362
X4.4882Y-6.3429
X4.4882Y-7.0823
X4.5882Y-1.0969
X4.5882Y-1.8362
X4.5882Y-6.3429
X4.5882Y-7.0823
X4.6882Y-1.0969
X4.6882Y-1.8362
X4.6882Y-6.3429
X4.6882Y-7.0823
X4.7835Y-0.215
X4.7835Y-0.315
X4.7835Y-0.415
X4.7835Y-2.7051
X4.7835Y-2.8051
X4.7835Y-2.9051
T3
X4.4882Y-0.0906
X4.4882Y-0.5394
X4.4882Y-2.5807
X4.4882Y-3.0295
T4
X4.0945Y-0.748
X5.0787Y-0.1575
X5.0787Y-7.0866
T0
M30
