G04 #@! TF.FileFunction,Copper,L1,Top,Signal*
%FSLAX46Y46*%
G04 Gerber Fmt 4.6, Leading zero omitted, Abs format (unit mm)*
G04 Created by KiCad (PCBNEW 4.0.4+e1-6308~48~ubuntu14.04.1-stable) date Thu Sep  7 12:23:15 2017*
%MOMM*%
%LPD*%
G01*
G04 APERTURE LIST*
%ADD10C,0.100000*%
%ADD11C,1.500000*%
%ADD12R,1.500000X1.500000*%
%ADD13C,4.000000*%
%ADD14R,2.000000X1.800000*%
%ADD15R,1.800000X2.000000*%
%ADD16R,0.700000X0.300000*%
%ADD17R,0.650000X0.700000*%
%ADD18C,7.000000*%
%ADD19C,0.600000*%
%ADD20C,0.250000*%
%ADD21C,0.254000*%
G04 APERTURE END LIST*
D10*
D11*
X108920000Y-27860000D03*
X111460000Y-27860000D03*
X114000000Y-27860000D03*
X116540000Y-27860000D03*
X119080000Y-27860000D03*
D12*
X108920000Y-46640000D03*
D11*
X111460000Y-46640000D03*
X119080000Y-46640000D03*
X116540000Y-46640000D03*
X114000000Y-46640000D03*
D13*
X114000000Y-65550000D03*
D11*
X107000000Y-73790000D03*
X121500000Y-68710000D03*
X121500000Y-71250000D03*
X121500000Y-73790000D03*
X107000000Y-68710000D03*
D13*
X114000000Y-76950000D03*
X114000000Y-2300000D03*
D11*
X107000000Y-10540000D03*
X121500000Y-5460000D03*
X121500000Y-8000000D03*
X121500000Y-10540000D03*
X107000000Y-5460000D03*
D13*
X114000000Y-13700000D03*
D11*
X108920000Y-161110000D03*
X111460000Y-161110000D03*
X114000000Y-161110000D03*
X116540000Y-161110000D03*
X119080000Y-161110000D03*
D12*
X108920000Y-179890000D03*
D11*
X111460000Y-179890000D03*
X119080000Y-179890000D03*
X116540000Y-179890000D03*
X114000000Y-179890000D03*
D14*
X109450000Y-89000000D03*
D15*
X105050000Y-89000000D03*
D14*
X109450000Y-100000000D03*
D15*
X105050000Y-100000000D03*
D14*
X109450000Y-111250000D03*
D15*
X105050000Y-111250000D03*
D14*
X109450000Y-122750000D03*
D15*
X105050000Y-122750000D03*
D14*
X109700000Y-133750000D03*
D15*
X105300000Y-133750000D03*
D14*
X125550000Y-89000000D03*
D15*
X129950000Y-89000000D03*
D14*
X125550000Y-100250000D03*
D15*
X129950000Y-100250000D03*
D14*
X125550000Y-111500000D03*
D15*
X129950000Y-111500000D03*
D14*
X125550000Y-122750000D03*
D15*
X129950000Y-122750000D03*
D14*
X125550000Y-134000000D03*
D15*
X129950000Y-134000000D03*
D14*
X125300000Y-145250000D03*
D15*
X129700000Y-145250000D03*
D16*
X127428000Y-173240000D03*
X127428000Y-173740000D03*
X127428000Y-174240000D03*
X127428000Y-174740000D03*
X130128000Y-174740000D03*
X130128000Y-174240000D03*
X130128000Y-173740000D03*
X130128000Y-173240000D03*
D15*
X126000000Y-166800000D03*
D14*
X126000000Y-171200000D03*
D15*
X131500000Y-166550000D03*
D14*
X131500000Y-170950000D03*
X109450000Y-145250000D03*
D15*
X105050000Y-145250000D03*
D17*
X120525000Y-19450000D03*
X120525000Y-17550000D03*
X123475000Y-19450000D03*
X123475000Y-17550000D03*
X106525000Y-93700000D03*
X106525000Y-91800000D03*
X109475000Y-93700000D03*
X109475000Y-91800000D03*
X106525000Y-104950000D03*
X106525000Y-103050000D03*
X109475000Y-104950000D03*
X109475000Y-103050000D03*
X106525000Y-116200000D03*
X106525000Y-114300000D03*
X109475000Y-116200000D03*
X109475000Y-114300000D03*
X106525000Y-127450000D03*
X106525000Y-125550000D03*
X109475000Y-127450000D03*
X109475000Y-125550000D03*
X106525000Y-138700000D03*
X106525000Y-136800000D03*
X109475000Y-138700000D03*
X109475000Y-136800000D03*
X106525000Y-149950000D03*
X106525000Y-148050000D03*
X109475000Y-149950000D03*
X109475000Y-148050000D03*
X128475000Y-91800000D03*
X128475000Y-93700000D03*
X125525000Y-91800000D03*
X125525000Y-93700000D03*
X128475000Y-103050000D03*
X128475000Y-104950000D03*
X125525000Y-103050000D03*
X125525000Y-104950000D03*
X128475000Y-114300000D03*
X128475000Y-116200000D03*
X125525000Y-114300000D03*
X125525000Y-116200000D03*
X128475000Y-125550000D03*
X128475000Y-127450000D03*
X125525000Y-125550000D03*
X125525000Y-127450000D03*
X128475000Y-136800000D03*
X128475000Y-138700000D03*
X125525000Y-136800000D03*
X125525000Y-138700000D03*
X128475000Y-148050000D03*
X128475000Y-149950000D03*
X125525000Y-148050000D03*
X125525000Y-149950000D03*
D18*
X104000000Y-19000000D03*
X129000000Y-4000000D03*
X129000000Y-180000000D03*
D19*
X131250000Y-105250000D03*
X131250000Y-75750000D03*
X126278000Y-14304000D03*
X123738000Y-7954000D03*
X127802000Y-26242000D03*
X127802000Y-48086000D03*
X120525000Y-17550000D03*
X107442000Y-178308000D03*
X124460000Y-181102000D03*
X125730000Y-172974000D03*
X119250000Y-79500000D03*
X123250000Y-79500000D03*
X128000000Y-154000000D03*
X125500000Y-154000000D03*
X127750000Y-162500000D03*
X123250000Y-103750000D03*
X127040000Y-48848000D03*
X127040000Y-71200000D03*
X124968000Y-177292000D03*
X122500000Y-132250000D03*
X106500000Y-150000000D03*
X130250000Y-158000000D03*
X130250000Y-149000000D03*
X122500000Y-100250000D03*
X122500000Y-146500000D03*
X106525000Y-138700000D03*
X126500000Y-155250000D03*
X126250000Y-137750000D03*
X121750000Y-95000000D03*
X121750000Y-136250000D03*
X128475000Y-127450000D03*
X121000000Y-127500000D03*
X106525000Y-127450000D03*
X121000000Y-151500000D03*
X121000000Y-92500000D03*
X128475000Y-116200000D03*
X120250000Y-116250000D03*
X120250000Y-118000000D03*
X106750000Y-117250000D03*
X120250000Y-149250000D03*
X120250000Y-90000000D03*
X129000000Y-104500000D03*
X132000000Y-104500000D03*
X106750000Y-106500000D03*
X132000000Y-147750000D03*
X132000000Y-106500000D03*
X132000000Y-87500000D03*
X125250000Y-96500000D03*
X106500000Y-95000000D03*
X112750000Y-143500000D03*
X112750000Y-95000000D03*
X102500000Y-87500000D03*
X102390000Y-117910000D03*
X128778000Y-161798000D03*
X103124000Y-153924000D03*
X118110000Y-154178000D03*
X123444000Y-159258000D03*
X113500000Y-84000000D03*
X113500000Y-157000000D03*
X113500000Y-142500000D03*
X113500000Y-96500000D03*
X105704000Y-34284000D03*
X124754000Y-29798000D03*
X114250000Y-83250000D03*
X115250000Y-162750000D03*
X122250000Y-163250000D03*
X122250000Y-169750000D03*
X114250000Y-145000000D03*
X114250000Y-98500000D03*
X115000000Y-158750000D03*
X122174000Y-159258000D03*
X123190000Y-173482000D03*
X115000000Y-80250000D03*
X115000000Y-147750000D03*
X115000000Y-101250000D03*
X122214000Y-40044000D03*
X105704000Y-48086000D03*
X115750000Y-81000000D03*
X105250000Y-173000000D03*
X105250000Y-156000000D03*
X115750000Y-155750000D03*
X115750000Y-150250000D03*
X115750000Y-105250000D03*
X116500000Y-81750000D03*
X116500000Y-152750000D03*
X116500000Y-107750000D03*
X108244000Y-26496000D03*
X103164000Y-26496000D03*
X110022000Y-73400000D03*
X103164000Y-72470000D03*
X117250000Y-82500000D03*
X117250000Y-155250000D03*
X117250000Y-108750000D03*
X102402000Y-25480000D03*
X107990000Y-25480000D03*
X114172000Y-72978000D03*
X102402000Y-75518000D03*
X111250000Y-85500000D03*
X111250000Y-157750000D03*
X111250000Y-90000000D03*
X126278000Y-15574000D03*
X120182000Y-15574000D03*
X114172000Y-69422000D03*
X126278000Y-67390000D03*
X112000000Y-84750000D03*
X123750000Y-160500000D03*
X123750000Y-164000000D03*
X112000000Y-159750000D03*
X112000000Y-91250000D03*
X115016000Y-49102000D03*
X125516000Y-49610000D03*
X127500000Y-111500000D03*
X132000000Y-160500000D03*
X132500000Y-130750000D03*
X127250000Y-130750000D03*
X106720000Y-162386000D03*
X121500000Y-167000000D03*
X128778000Y-174752000D03*
X127250000Y-139000000D03*
X127000000Y-164750000D03*
X118750000Y-140000000D03*
X118750000Y-117250000D03*
X128500000Y-164750000D03*
X131750000Y-164750000D03*
X131250000Y-140000000D03*
X118000000Y-141250000D03*
X118000000Y-112750000D03*
X109500000Y-145250000D03*
X112750000Y-145250000D03*
X112750000Y-154750000D03*
X116500000Y-154750000D03*
X116500000Y-156750000D03*
X126500000Y-156750000D03*
X107750000Y-97500000D03*
X130250000Y-159250000D03*
X125730000Y-158496000D03*
X124000000Y-107750000D03*
X119500000Y-123000000D03*
X119500000Y-154250000D03*
X124500000Y-154250000D03*
D20*
X120525000Y-19450000D02*
X120525000Y-26242000D01*
X120500000Y-26250000D02*
X120500000Y-26242000D01*
X120517000Y-26250000D02*
X120500000Y-26250000D01*
X120525000Y-26242000D02*
X120517000Y-26250000D01*
X131250000Y-105250000D02*
X131250000Y-85250000D01*
X131250000Y-75750000D02*
X131250000Y-85250000D01*
X107000000Y-10540000D02*
X107000000Y-10774000D01*
X107000000Y-10774000D02*
X112562000Y-16336000D01*
X112562000Y-16336000D02*
X116372000Y-16336000D01*
X116372000Y-16336000D02*
X118404000Y-14304000D01*
X118404000Y-14304000D02*
X126278000Y-14304000D01*
X121500000Y-8000000D02*
X123692000Y-8000000D01*
X123692000Y-8000000D02*
X123738000Y-7954000D01*
X111460000Y-27860000D02*
X111460000Y-27852000D01*
X111460000Y-27852000D02*
X113070000Y-26242000D01*
X113070000Y-26242000D02*
X120500000Y-26242000D01*
X120500000Y-26242000D02*
X127802000Y-26242000D01*
X116540000Y-46640000D02*
X116704000Y-46640000D01*
X116704000Y-46640000D02*
X118150000Y-48086000D01*
X118150000Y-48086000D02*
X127802000Y-48086000D01*
X109502000Y-163068000D02*
X111460000Y-161110000D01*
X106934000Y-163068000D02*
X109502000Y-163068000D01*
X106426000Y-163576000D02*
X106934000Y-163068000D01*
X106426000Y-177292000D02*
X106426000Y-163576000D01*
X107442000Y-178308000D02*
X106426000Y-177292000D01*
X116540000Y-179890000D02*
X117752000Y-181102000D01*
X124460000Y-181102000D02*
X117752000Y-181102000D01*
X126242000Y-173740000D02*
X127428000Y-173740000D01*
X125984000Y-173482000D02*
X126242000Y-173740000D01*
X125984000Y-173228000D02*
X125984000Y-173482000D01*
X125730000Y-172974000D02*
X125984000Y-173228000D01*
X130128000Y-174240000D02*
X129282000Y-174240000D01*
X128782000Y-173740000D02*
X127428000Y-173740000D01*
X129282000Y-174240000D02*
X128782000Y-173740000D01*
X119250000Y-79500000D02*
X123250000Y-79500000D01*
X123250000Y-79500000D02*
X123250000Y-85750000D01*
X123250000Y-103750000D02*
X123250000Y-85750000D01*
X123250000Y-153500000D02*
X124750000Y-153500000D01*
X128000000Y-154000000D02*
X127989151Y-156999528D01*
X125250000Y-153750000D02*
X125500000Y-154000000D01*
X125000000Y-153750000D02*
X125250000Y-153750000D01*
X124750000Y-153500000D02*
X125000000Y-153750000D01*
X127750000Y-162500000D02*
X127989151Y-156999528D01*
X123250000Y-130250000D02*
X123250000Y-103750000D01*
X123250000Y-153500000D02*
X123250000Y-130250000D01*
X114000000Y-46640000D02*
X114672000Y-46640000D01*
X114672000Y-46640000D02*
X116880000Y-48848000D01*
X116880000Y-48848000D02*
X127040000Y-48848000D01*
X121500000Y-71250000D02*
X126990000Y-71250000D01*
X126990000Y-71250000D02*
X127040000Y-71200000D01*
X115582000Y-178308000D02*
X114000000Y-179890000D01*
X123952000Y-178308000D02*
X115582000Y-178308000D01*
X124968000Y-177292000D02*
X123952000Y-178308000D01*
X128475000Y-149950000D02*
X130250000Y-149950000D01*
X130250000Y-149950000D02*
X130250000Y-150000000D01*
X106500000Y-150000000D02*
X106525000Y-149975000D01*
X106525000Y-149975000D02*
X106525000Y-149950000D01*
X130250000Y-157000000D02*
X130250000Y-158000000D01*
X130250000Y-149000000D02*
X130250000Y-150000000D01*
X130250000Y-150000000D02*
X130250000Y-157000000D01*
X122500000Y-130250000D02*
X122500000Y-132250000D01*
X122500000Y-132250000D02*
X122500000Y-146500000D01*
X122500000Y-100250000D02*
X122500000Y-130250000D01*
X128475000Y-138700000D02*
X128200000Y-138700000D01*
X128200000Y-138700000D02*
X127750000Y-138250000D01*
X127750000Y-138250000D02*
X126500000Y-138250000D01*
X126750000Y-146750000D02*
X126799998Y-146750000D01*
X127049998Y-151200002D02*
X126750000Y-151500000D01*
X127049998Y-147000000D02*
X127049998Y-151200002D01*
X126799998Y-146750000D02*
X127049998Y-147000000D01*
X126750000Y-151500000D02*
X126750000Y-155000000D01*
X126500000Y-138000000D02*
X126500000Y-138250000D01*
X126500000Y-138250000D02*
X126500000Y-139500000D01*
X126500000Y-139500000D02*
X126750000Y-139750000D01*
X126750000Y-139750000D02*
X126750000Y-146750000D01*
X126250000Y-137750000D02*
X126500000Y-138000000D01*
X126750000Y-155000000D02*
X126500000Y-155250000D01*
X121750000Y-130000000D02*
X121750000Y-136250000D01*
X121750000Y-95000000D02*
X121750000Y-130000000D01*
X121000000Y-130250000D02*
X121000000Y-151500000D01*
X121000000Y-127500000D02*
X121000000Y-130250000D01*
X121000000Y-126500000D02*
X121000000Y-127500000D01*
X121000000Y-92500000D02*
X121000000Y-126500000D01*
X106525000Y-116200000D02*
X106525000Y-117025000D01*
X106525000Y-117025000D02*
X106750000Y-117250000D01*
X120250000Y-130250000D02*
X120250000Y-149250000D01*
X120250000Y-115250000D02*
X120250000Y-116250000D01*
X120250000Y-116250000D02*
X120250000Y-118000000D01*
X120250000Y-118000000D02*
X120250000Y-130250000D01*
X120250000Y-90000000D02*
X120250000Y-115250000D01*
X128475000Y-104950000D02*
X128550000Y-104950000D01*
X128550000Y-104950000D02*
X129000000Y-104500000D01*
X106525000Y-104950000D02*
X106525000Y-106275000D01*
X106525000Y-106275000D02*
X106750000Y-106500000D01*
X132000000Y-146500000D02*
X132000000Y-147750000D01*
X131750000Y-130500000D02*
X131750000Y-131250000D01*
X131750000Y-131250000D02*
X132000000Y-131500000D01*
X132000000Y-131500000D02*
X132000000Y-146500000D01*
X132000000Y-106500000D02*
X132000000Y-130250000D01*
X132000000Y-130250000D02*
X131750000Y-130500000D01*
X132000000Y-106000000D02*
X132000000Y-106500000D01*
X132000000Y-87500000D02*
X132000000Y-104500000D01*
X132000000Y-104500000D02*
X132000000Y-106000000D01*
X128475000Y-93700000D02*
X128475000Y-93775000D01*
X128475000Y-93775000D02*
X125750000Y-96500000D01*
X125750000Y-96500000D02*
X125250000Y-96500000D01*
X106525000Y-93700000D02*
X106525000Y-94975000D01*
X106525000Y-94975000D02*
X106500000Y-95000000D01*
X112750000Y-130250000D02*
X112750000Y-143500000D01*
X112750000Y-95000000D02*
X112750000Y-130250000D01*
X112750000Y-95000000D02*
X112750000Y-92750000D01*
X112750000Y-92750000D02*
X112750000Y-85500000D01*
X102500000Y-117800000D02*
X102390000Y-117910000D01*
X102500000Y-117800000D02*
X102500000Y-87500000D01*
X129540000Y-162560000D02*
X128778000Y-161798000D01*
X129540000Y-172212000D02*
X129540000Y-162560000D01*
X130128000Y-172800000D02*
X129540000Y-172212000D01*
X130128000Y-172800000D02*
X130128000Y-173240000D01*
X102390000Y-153190000D02*
X102390000Y-117910000D01*
X103124000Y-153924000D02*
X102390000Y-153190000D01*
X118872000Y-154940000D02*
X118110000Y-154178000D01*
X119126000Y-154940000D02*
X118872000Y-154940000D01*
X123444000Y-159258000D02*
X119126000Y-154940000D01*
X113500000Y-85250000D02*
X113500000Y-96500000D01*
X113500000Y-84000000D02*
X113500000Y-85250000D01*
X113500000Y-156000000D02*
X113500000Y-157000000D01*
X113500000Y-142500000D02*
X113500000Y-156000000D01*
X113500000Y-142500000D02*
X113500000Y-130250000D01*
X113500000Y-130250000D02*
X113500000Y-96500000D01*
X124500000Y-29544000D02*
X124754000Y-29798000D01*
X106720000Y-29544000D02*
X124500000Y-29544000D01*
X105704000Y-30560000D02*
X106720000Y-29544000D01*
X105704000Y-30560000D02*
X105704000Y-34284000D01*
X114250000Y-85000000D02*
X114250000Y-98500000D01*
X114250000Y-83250000D02*
X114250000Y-85000000D01*
X114250000Y-156000000D02*
X114250000Y-145000000D01*
X114250000Y-159000000D02*
X114250000Y-156000000D01*
X114750000Y-159500000D02*
X114250000Y-159000000D01*
X115250000Y-160000000D02*
X114750000Y-159500000D01*
X115250000Y-162750000D02*
X115250000Y-160000000D01*
X122250000Y-169750000D02*
X122250000Y-163250000D01*
X114250000Y-130250000D02*
X114250000Y-145000000D01*
X114250000Y-98500000D02*
X114250000Y-130250000D01*
X115000000Y-158750000D02*
X115000000Y-156000000D01*
X115000000Y-147750000D02*
X115000000Y-156000000D01*
X122936000Y-160020000D02*
X122174000Y-159258000D01*
X122936000Y-173228000D02*
X122936000Y-160020000D01*
X123190000Y-173482000D02*
X122936000Y-173228000D01*
X115000000Y-85500000D02*
X115000000Y-101250000D01*
X115000000Y-80250000D02*
X115000000Y-85500000D01*
X115000000Y-130250000D02*
X115000000Y-147750000D01*
X115000000Y-101250000D02*
X115000000Y-130250000D01*
X121960000Y-40298000D02*
X122214000Y-40044000D01*
X105704000Y-46054000D02*
X105704000Y-48086000D01*
X106720000Y-45038000D02*
X105704000Y-46054000D01*
X120944000Y-45038000D02*
X106720000Y-45038000D01*
X121706000Y-44276000D02*
X120944000Y-45038000D01*
X121706000Y-40552000D02*
X121706000Y-44276000D01*
X122214000Y-40044000D02*
X121706000Y-40552000D01*
X115750000Y-85500000D02*
X115750000Y-105250000D01*
X115750000Y-81000000D02*
X115750000Y-85500000D01*
X105250000Y-173000000D02*
X105250000Y-156000000D01*
X115750000Y-150250000D02*
X115750000Y-155750000D01*
X115750000Y-130250000D02*
X115750000Y-150250000D01*
X115750000Y-105250000D02*
X115750000Y-130250000D01*
X116500000Y-85500000D02*
X116500000Y-107750000D01*
X116500000Y-81750000D02*
X116500000Y-85500000D01*
X116500000Y-130250000D02*
X116500000Y-152750000D01*
X116500000Y-107750000D02*
X116500000Y-130250000D01*
X103164000Y-26496000D02*
X108244000Y-26496000D01*
X103164000Y-72470000D02*
X109092000Y-72470000D01*
X109092000Y-72470000D02*
X110022000Y-73400000D01*
X117250000Y-85500000D02*
X117250000Y-108750000D01*
X117250000Y-82500000D02*
X117250000Y-85500000D01*
X117250000Y-130250000D02*
X117250000Y-155250000D01*
X117250000Y-108750000D02*
X117250000Y-130250000D01*
X107990000Y-25480000D02*
X102402000Y-25480000D01*
X102402000Y-75518000D02*
X111632000Y-75518000D01*
X111632000Y-75518000D02*
X114172000Y-72978000D01*
X111250000Y-85500000D02*
X111250000Y-90000000D01*
X111250000Y-130000000D02*
X111250000Y-157750000D01*
X111250000Y-90000000D02*
X111250000Y-130000000D01*
X111250000Y-130000000D02*
X111250000Y-130250000D01*
X120268000Y-15574000D02*
X126278000Y-15574000D01*
X120182000Y-15574000D02*
X120268000Y-15574000D01*
X116204000Y-67390000D02*
X114172000Y-69422000D01*
X126278000Y-67390000D02*
X116204000Y-67390000D01*
X112000000Y-85750000D02*
X112000000Y-91250000D01*
X112000000Y-84750000D02*
X112000000Y-85750000D01*
X123750000Y-164000000D02*
X123750000Y-160500000D01*
X112000000Y-158750000D02*
X112000000Y-159750000D01*
X112000000Y-130250000D02*
X112000000Y-158750000D01*
X112000000Y-91250000D02*
X112000000Y-130250000D01*
X125516000Y-49610000D02*
X115524000Y-49610000D01*
X115524000Y-49610000D02*
X115016000Y-49102000D01*
X127250000Y-130250000D02*
X127250000Y-130750000D01*
X127250000Y-111750000D02*
X127250000Y-130250000D01*
X127500000Y-111500000D02*
X127250000Y-111750000D01*
X132750000Y-159750000D02*
X132000000Y-160500000D01*
X132750000Y-131000000D02*
X132750000Y-159750000D01*
X132500000Y-130750000D02*
X132750000Y-131000000D01*
X106720000Y-162386000D02*
X107996000Y-161110000D01*
X107996000Y-161110000D02*
X108920000Y-161110000D01*
X119080000Y-161110000D02*
X119080000Y-162580000D01*
X121250000Y-166750000D02*
X121500000Y-167000000D01*
X121250000Y-163250000D02*
X121250000Y-166750000D01*
X121000000Y-163000000D02*
X121250000Y-163250000D01*
X119500000Y-163000000D02*
X121000000Y-163000000D01*
X119080000Y-162580000D02*
X119500000Y-163000000D01*
X130128000Y-174740000D02*
X128790000Y-174740000D01*
X128790000Y-174740000D02*
X128778000Y-174752000D01*
X127250000Y-146500000D02*
X127500000Y-146750000D01*
X127500000Y-152000000D02*
X127250000Y-152000000D01*
X127500000Y-146750000D02*
X127500000Y-152000000D01*
X127000000Y-164750000D02*
X127000000Y-157750000D01*
X127000000Y-157750000D02*
X127250000Y-157500000D01*
X127250000Y-157500000D02*
X127250000Y-152000000D01*
X127250000Y-139250000D02*
X127250000Y-139000000D01*
X127250000Y-146500000D02*
X127250000Y-139250000D01*
X127000000Y-164500000D02*
X127000000Y-164750000D01*
X118750000Y-130250000D02*
X118750000Y-140000000D01*
X118750000Y-117250000D02*
X118750000Y-130250000D01*
X127428000Y-173240000D02*
X127428000Y-165822000D01*
X131750000Y-164750000D02*
X131250000Y-164250000D01*
X131250000Y-164250000D02*
X131250000Y-140000000D01*
X127428000Y-165822000D02*
X128500000Y-164750000D01*
X118000000Y-130250000D02*
X118000000Y-141250000D01*
X118000000Y-112750000D02*
X118000000Y-130250000D01*
X126000000Y-166800000D02*
X126000000Y-160000000D01*
X109500000Y-145250000D02*
X109450000Y-145250000D01*
X112750000Y-154750000D02*
X112750000Y-145250000D01*
X116500000Y-156750000D02*
X116500000Y-154750000D01*
X126500000Y-159500000D02*
X126500000Y-156750000D01*
X126000000Y-160000000D02*
X126500000Y-159500000D01*
X109700000Y-133750000D02*
X107500000Y-133750000D01*
X107500000Y-130000000D02*
X107500000Y-133750000D01*
X107500000Y-133750000D02*
X107500000Y-145250000D01*
X107500000Y-145250000D02*
X109450000Y-145250000D01*
X109450000Y-122750000D02*
X107500000Y-122750000D01*
X109450000Y-111250000D02*
X107500000Y-111250000D01*
X107500000Y-100000000D02*
X109450000Y-100000000D01*
X107750000Y-97500000D02*
X107750000Y-89000000D01*
X107750000Y-89000000D02*
X109450000Y-89000000D01*
X107500000Y-97750000D02*
X107500000Y-100000000D01*
X107500000Y-100000000D02*
X107500000Y-111250000D01*
X107500000Y-111250000D02*
X107500000Y-122750000D01*
X107500000Y-122750000D02*
X107500000Y-130000000D01*
X107500000Y-130000000D02*
X107500000Y-130250000D01*
X107750000Y-97500000D02*
X107500000Y-97750000D01*
X127428000Y-174240000D02*
X125854398Y-174240000D01*
X124968000Y-172232000D02*
X126000000Y-171200000D01*
X124968000Y-173353602D02*
X124968000Y-172232000D01*
X125854398Y-174240000D02*
X124968000Y-173353602D01*
X124000000Y-145250000D02*
X124000000Y-151750000D01*
X130250000Y-165750000D02*
X131050000Y-166550000D01*
X130250000Y-159250000D02*
X130250000Y-165750000D01*
X125750000Y-155000000D02*
X125730000Y-158496000D01*
X126250000Y-154500000D02*
X125750000Y-155000000D01*
X126250000Y-153500000D02*
X126250000Y-154500000D01*
X126000000Y-153250000D02*
X126250000Y-153500000D01*
X125500000Y-153250000D02*
X126000000Y-153250000D01*
X124000000Y-151750000D02*
X125500000Y-153250000D01*
X131050000Y-166550000D02*
X131500000Y-166550000D01*
X125550000Y-134000000D02*
X124000000Y-134000000D01*
X124000000Y-130250000D02*
X124000000Y-134000000D01*
X124000000Y-134000000D02*
X124000000Y-145250000D01*
X124000000Y-122750000D02*
X124000000Y-130250000D01*
X124000000Y-145250000D02*
X125300000Y-145250000D01*
X125550000Y-100250000D02*
X124000000Y-100250000D01*
X124000000Y-107750000D02*
X124000000Y-100250000D01*
X124000000Y-100250000D02*
X124000000Y-89000000D01*
X124000000Y-89000000D02*
X125550000Y-89000000D01*
X124000000Y-111500000D02*
X124000000Y-107750000D01*
X125550000Y-122750000D02*
X124000000Y-122750000D01*
X125550000Y-111500000D02*
X124000000Y-111500000D01*
X124000000Y-122750000D02*
X124000000Y-111500000D01*
X130128000Y-173740000D02*
X130806000Y-173740000D01*
X131500000Y-173046000D02*
X131500000Y-170950000D01*
X130806000Y-173740000D02*
X131500000Y-173046000D01*
X131950000Y-170950000D02*
X131500000Y-170950000D01*
X106525000Y-91800000D02*
X106525000Y-91775000D01*
X106525000Y-91775000D02*
X105050000Y-90300000D01*
X105050000Y-90300000D02*
X105050000Y-89000000D01*
X105050000Y-100000000D02*
X105050000Y-101575000D01*
X105050000Y-101575000D02*
X106525000Y-103050000D01*
X105050000Y-111250000D02*
X105050000Y-112825000D01*
X105050000Y-112825000D02*
X106525000Y-114300000D01*
X105050000Y-122750000D02*
X105050000Y-124075000D01*
X105050000Y-124075000D02*
X106525000Y-125550000D01*
X105300000Y-133750000D02*
X105300000Y-135575000D01*
X105300000Y-135575000D02*
X106525000Y-136800000D01*
X105050000Y-145250000D02*
X105050000Y-146575000D01*
X105050000Y-146575000D02*
X106525000Y-148050000D01*
X129950000Y-89000000D02*
X129950000Y-90325000D01*
X129950000Y-90325000D02*
X128475000Y-91800000D01*
X129950000Y-100250000D02*
X129950000Y-101575000D01*
X129950000Y-101575000D02*
X128475000Y-103050000D01*
X129950000Y-111500000D02*
X129950000Y-112825000D01*
X129950000Y-112825000D02*
X128475000Y-114300000D01*
X129950000Y-122750000D02*
X129950000Y-124075000D01*
X129950000Y-124075000D02*
X128475000Y-125550000D01*
X129950000Y-134000000D02*
X129950000Y-135325000D01*
X129950000Y-135325000D02*
X128475000Y-136800000D01*
X129700000Y-145250000D02*
X129700000Y-146825000D01*
X129700000Y-146825000D02*
X128475000Y-148050000D01*
X129700000Y-145250000D02*
X129700000Y-146200000D01*
X127428000Y-174740000D02*
X125718000Y-174740000D01*
X125718000Y-174740000D02*
X124500000Y-173522000D01*
X119500000Y-123000000D02*
X119500000Y-130250000D01*
X119500000Y-130250000D02*
X119500000Y-154250000D01*
X124500000Y-173522000D02*
X124500000Y-154250000D01*
D21*
G36*
X129490000Y-157437537D02*
X129457808Y-157469673D01*
X129315162Y-157813201D01*
X129314838Y-158185167D01*
X129456883Y-158528943D01*
X129552710Y-158624937D01*
X129457808Y-158719673D01*
X129315162Y-159063201D01*
X129314838Y-159435167D01*
X129456883Y-159778943D01*
X129490000Y-159812118D01*
X129490000Y-165750000D01*
X129547852Y-166040839D01*
X129712599Y-166287401D01*
X129952560Y-166527362D01*
X129952560Y-167550000D01*
X129996838Y-167785317D01*
X130135910Y-168001441D01*
X130348110Y-168146431D01*
X130600000Y-168197440D01*
X132290000Y-168197440D01*
X132290000Y-169402560D01*
X130500000Y-169402560D01*
X130264683Y-169446838D01*
X130048559Y-169585910D01*
X129903569Y-169798110D01*
X129852560Y-170050000D01*
X129852560Y-171850000D01*
X129896838Y-172085317D01*
X130035910Y-172301441D01*
X130248110Y-172446431D01*
X130392982Y-172475768D01*
X130255000Y-172613750D01*
X130255000Y-172942560D01*
X130001000Y-172942560D01*
X130001000Y-172613750D01*
X129842250Y-172455000D01*
X129651690Y-172455000D01*
X129418301Y-172551673D01*
X129239673Y-172730302D01*
X129143000Y-172963691D01*
X129143000Y-173006250D01*
X129249748Y-173112998D01*
X129185303Y-173112998D01*
X129072839Y-173037852D01*
X128782000Y-172980000D01*
X128404742Y-172980000D01*
X128381162Y-172854683D01*
X128242090Y-172638559D01*
X128188000Y-172601601D01*
X128188000Y-166136802D01*
X128639680Y-165685122D01*
X128685167Y-165685162D01*
X129028943Y-165543117D01*
X129292192Y-165280327D01*
X129434838Y-164936799D01*
X129435162Y-164564833D01*
X129293117Y-164221057D01*
X129030327Y-163957808D01*
X128686799Y-163815162D01*
X128314833Y-163814838D01*
X127971057Y-163956883D01*
X127760000Y-164167572D01*
X127760000Y-163435009D01*
X127935167Y-163435162D01*
X128278943Y-163293117D01*
X128542192Y-163030327D01*
X128684838Y-162686799D01*
X128685162Y-162314833D01*
X128543117Y-161971057D01*
X128534108Y-161962032D01*
X128748434Y-157032541D01*
X128746092Y-157017344D01*
X128749146Y-157002277D01*
X128757963Y-154564496D01*
X128792192Y-154530327D01*
X128934838Y-154186799D01*
X128935162Y-153814833D01*
X128793117Y-153471057D01*
X128530327Y-153207808D01*
X128186799Y-153065162D01*
X128010000Y-153065008D01*
X128010000Y-152555710D01*
X128037401Y-152537401D01*
X128202148Y-152290839D01*
X128260000Y-152000000D01*
X128260000Y-150947440D01*
X128800000Y-150947440D01*
X129035317Y-150903162D01*
X129251441Y-150764090D01*
X129288399Y-150710000D01*
X129490000Y-150710000D01*
X129490000Y-157437537D01*
X129490000Y-157437537D01*
G37*
X129490000Y-157437537D02*
X129457808Y-157469673D01*
X129315162Y-157813201D01*
X129314838Y-158185167D01*
X129456883Y-158528943D01*
X129552710Y-158624937D01*
X129457808Y-158719673D01*
X129315162Y-159063201D01*
X129314838Y-159435167D01*
X129456883Y-159778943D01*
X129490000Y-159812118D01*
X129490000Y-165750000D01*
X129547852Y-166040839D01*
X129712599Y-166287401D01*
X129952560Y-166527362D01*
X129952560Y-167550000D01*
X129996838Y-167785317D01*
X130135910Y-168001441D01*
X130348110Y-168146431D01*
X130600000Y-168197440D01*
X132290000Y-168197440D01*
X132290000Y-169402560D01*
X130500000Y-169402560D01*
X130264683Y-169446838D01*
X130048559Y-169585910D01*
X129903569Y-169798110D01*
X129852560Y-170050000D01*
X129852560Y-171850000D01*
X129896838Y-172085317D01*
X130035910Y-172301441D01*
X130248110Y-172446431D01*
X130392982Y-172475768D01*
X130255000Y-172613750D01*
X130255000Y-172942560D01*
X130001000Y-172942560D01*
X130001000Y-172613750D01*
X129842250Y-172455000D01*
X129651690Y-172455000D01*
X129418301Y-172551673D01*
X129239673Y-172730302D01*
X129143000Y-172963691D01*
X129143000Y-173006250D01*
X129249748Y-173112998D01*
X129185303Y-173112998D01*
X129072839Y-173037852D01*
X128782000Y-172980000D01*
X128404742Y-172980000D01*
X128381162Y-172854683D01*
X128242090Y-172638559D01*
X128188000Y-172601601D01*
X128188000Y-166136802D01*
X128639680Y-165685122D01*
X128685167Y-165685162D01*
X129028943Y-165543117D01*
X129292192Y-165280327D01*
X129434838Y-164936799D01*
X129435162Y-164564833D01*
X129293117Y-164221057D01*
X129030327Y-163957808D01*
X128686799Y-163815162D01*
X128314833Y-163814838D01*
X127971057Y-163956883D01*
X127760000Y-164167572D01*
X127760000Y-163435009D01*
X127935167Y-163435162D01*
X128278943Y-163293117D01*
X128542192Y-163030327D01*
X128684838Y-162686799D01*
X128685162Y-162314833D01*
X128543117Y-161971057D01*
X128534108Y-161962032D01*
X128748434Y-157032541D01*
X128746092Y-157017344D01*
X128749146Y-157002277D01*
X128757963Y-154564496D01*
X128792192Y-154530327D01*
X128934838Y-154186799D01*
X128935162Y-153814833D01*
X128793117Y-153471057D01*
X128530327Y-153207808D01*
X128186799Y-153065162D01*
X128010000Y-153065008D01*
X128010000Y-152555710D01*
X128037401Y-152537401D01*
X128202148Y-152290839D01*
X128260000Y-152000000D01*
X128260000Y-150947440D01*
X128800000Y-150947440D01*
X129035317Y-150903162D01*
X129251441Y-150764090D01*
X129288399Y-150710000D01*
X129490000Y-150710000D01*
X129490000Y-157437537D01*
G36*
X111767458Y-805443D02*
X111365458Y-1773567D01*
X111364543Y-2821834D01*
X111764853Y-3790658D01*
X112505443Y-4532542D01*
X113473567Y-4934542D01*
X114521834Y-4935457D01*
X115490658Y-4535147D01*
X116232542Y-3794557D01*
X116634542Y-2826433D01*
X116635457Y-1778166D01*
X116235147Y-809342D01*
X116135978Y-710000D01*
X126442865Y-710000D01*
X125496562Y-1654653D01*
X124865720Y-3173889D01*
X124864284Y-4818894D01*
X125492474Y-6339229D01*
X126654653Y-7503438D01*
X128173889Y-8134280D01*
X129818894Y-8135716D01*
X131339229Y-7507526D01*
X132290000Y-6558413D01*
X132290000Y-86608015D01*
X132186799Y-86565162D01*
X132010000Y-86565008D01*
X132010000Y-76312463D01*
X132042192Y-76280327D01*
X132184838Y-75936799D01*
X132185162Y-75564833D01*
X132043117Y-75221057D01*
X131780327Y-74957808D01*
X131436799Y-74815162D01*
X131064833Y-74814838D01*
X130721057Y-74956883D01*
X130457808Y-75219673D01*
X130315162Y-75563201D01*
X130314838Y-75935167D01*
X130456883Y-76278943D01*
X130490000Y-76312118D01*
X130490000Y-87352560D01*
X129050000Y-87352560D01*
X128814683Y-87396838D01*
X128598559Y-87535910D01*
X128453569Y-87748110D01*
X128402560Y-88000000D01*
X128402560Y-90000000D01*
X128446838Y-90235317D01*
X128585910Y-90451441D01*
X128682654Y-90517544D01*
X128397638Y-90802560D01*
X128150000Y-90802560D01*
X127914683Y-90846838D01*
X127698559Y-90985910D01*
X127553569Y-91198110D01*
X127502560Y-91450000D01*
X127502560Y-92150000D01*
X127546838Y-92385317D01*
X127685910Y-92601441D01*
X127898110Y-92746431D01*
X127911197Y-92749081D01*
X127698559Y-92885910D01*
X127553569Y-93098110D01*
X127502560Y-93350000D01*
X127502560Y-93672638D01*
X125559207Y-95615991D01*
X125436799Y-95565162D01*
X125064833Y-95564838D01*
X124760000Y-95690792D01*
X124760000Y-94517901D01*
X124948110Y-94646431D01*
X125200000Y-94697440D01*
X125850000Y-94697440D01*
X126085317Y-94653162D01*
X126301441Y-94514090D01*
X126446431Y-94301890D01*
X126497440Y-94050000D01*
X126497440Y-93350000D01*
X126453162Y-93114683D01*
X126314090Y-92898559D01*
X126101890Y-92753569D01*
X126088803Y-92750919D01*
X126301441Y-92614090D01*
X126446431Y-92401890D01*
X126497440Y-92150000D01*
X126497440Y-91450000D01*
X126453162Y-91214683D01*
X126314090Y-90998559D01*
X126101890Y-90853569D01*
X125850000Y-90802560D01*
X125200000Y-90802560D01*
X124964683Y-90846838D01*
X124760000Y-90978548D01*
X124760000Y-90547440D01*
X126550000Y-90547440D01*
X126785317Y-90503162D01*
X127001441Y-90364090D01*
X127146431Y-90151890D01*
X127197440Y-89900000D01*
X127197440Y-88100000D01*
X127153162Y-87864683D01*
X127014090Y-87648559D01*
X126801890Y-87503569D01*
X126550000Y-87452560D01*
X124550000Y-87452560D01*
X124314683Y-87496838D01*
X124098559Y-87635910D01*
X124010000Y-87765520D01*
X124010000Y-80062463D01*
X124042192Y-80030327D01*
X124184838Y-79686799D01*
X124185162Y-79314833D01*
X124043117Y-78971057D01*
X123780327Y-78707808D01*
X123436799Y-78565162D01*
X123064833Y-78564838D01*
X122721057Y-78706883D01*
X122687882Y-78740000D01*
X119812463Y-78740000D01*
X119780327Y-78707808D01*
X119436799Y-78565162D01*
X119064833Y-78564838D01*
X118721057Y-78706883D01*
X118457808Y-78969673D01*
X118315162Y-79313201D01*
X118314838Y-79685167D01*
X118456883Y-80028943D01*
X118719673Y-80292192D01*
X119063201Y-80434838D01*
X119435167Y-80435162D01*
X119778943Y-80293117D01*
X119812118Y-80260000D01*
X122490000Y-80260000D01*
X122490000Y-94417847D01*
X122280327Y-94207808D01*
X121936799Y-94065162D01*
X121760000Y-94065008D01*
X121760000Y-93062463D01*
X121792192Y-93030327D01*
X121934838Y-92686799D01*
X121935162Y-92314833D01*
X121793117Y-91971057D01*
X121530327Y-91707808D01*
X121186799Y-91565162D01*
X121010000Y-91565008D01*
X121010000Y-90562463D01*
X121042192Y-90530327D01*
X121184838Y-90186799D01*
X121185162Y-89814833D01*
X121043117Y-89471057D01*
X120780327Y-89207808D01*
X120436799Y-89065162D01*
X120064833Y-89064838D01*
X119721057Y-89206883D01*
X119457808Y-89469673D01*
X119315162Y-89813201D01*
X119314838Y-90185167D01*
X119456883Y-90528943D01*
X119490000Y-90562118D01*
X119490000Y-115687537D01*
X119457808Y-115719673D01*
X119315162Y-116063201D01*
X119314838Y-116435167D01*
X119355173Y-116532784D01*
X119280327Y-116457808D01*
X118936799Y-116315162D01*
X118760000Y-116315008D01*
X118760000Y-113312463D01*
X118792192Y-113280327D01*
X118934838Y-112936799D01*
X118935162Y-112564833D01*
X118793117Y-112221057D01*
X118530327Y-111957808D01*
X118186799Y-111815162D01*
X118010000Y-111815008D01*
X118010000Y-109312463D01*
X118042192Y-109280327D01*
X118184838Y-108936799D01*
X118185162Y-108564833D01*
X118043117Y-108221057D01*
X118010000Y-108187882D01*
X118010000Y-83062463D01*
X118042192Y-83030327D01*
X118184838Y-82686799D01*
X118185162Y-82314833D01*
X118043117Y-81971057D01*
X117780327Y-81707808D01*
X117436799Y-81565162D01*
X117435162Y-81565161D01*
X117435162Y-81564833D01*
X117293117Y-81221057D01*
X117030327Y-80957808D01*
X116686799Y-80815162D01*
X116685162Y-80815161D01*
X116685162Y-80814833D01*
X116543117Y-80471057D01*
X116280327Y-80207808D01*
X115936799Y-80065162D01*
X115935162Y-80065161D01*
X115935162Y-80064833D01*
X115793117Y-79721057D01*
X115530327Y-79457808D01*
X115186799Y-79315162D01*
X115176020Y-79315153D01*
X115490658Y-79185147D01*
X116232542Y-78444557D01*
X116634542Y-77476433D01*
X116635457Y-76428166D01*
X116235147Y-75459342D01*
X115494557Y-74717458D01*
X114526433Y-74315458D01*
X113909882Y-74314920D01*
X114311680Y-73913122D01*
X114357167Y-73913162D01*
X114700943Y-73771117D01*
X114964192Y-73508327D01*
X115106838Y-73164799D01*
X115107162Y-72792833D01*
X114965117Y-72449057D01*
X114702327Y-72185808D01*
X114358799Y-72043162D01*
X113986833Y-72042838D01*
X113643057Y-72184883D01*
X113379808Y-72447673D01*
X113237162Y-72791201D01*
X113237121Y-72838077D01*
X111317198Y-74758000D01*
X107990707Y-74758000D01*
X108173461Y-74575564D01*
X108384759Y-74066702D01*
X108385240Y-73515715D01*
X108267185Y-73230000D01*
X108777198Y-73230000D01*
X109086878Y-73539680D01*
X109086838Y-73585167D01*
X109228883Y-73928943D01*
X109491673Y-74192192D01*
X109835201Y-74334838D01*
X110207167Y-74335162D01*
X110550943Y-74193117D01*
X110814192Y-73930327D01*
X110956838Y-73586799D01*
X110957162Y-73214833D01*
X110815117Y-72871057D01*
X110552327Y-72607808D01*
X110208799Y-72465162D01*
X110161923Y-72465121D01*
X109629401Y-71932599D01*
X109382839Y-71767852D01*
X109092000Y-71710000D01*
X103726463Y-71710000D01*
X103694327Y-71677808D01*
X103350799Y-71535162D01*
X102978833Y-71534838D01*
X102635057Y-71676883D01*
X102371808Y-71939673D01*
X102229162Y-72283201D01*
X102228838Y-72655167D01*
X102370883Y-72998943D01*
X102633673Y-73262192D01*
X102977201Y-73404838D01*
X103349167Y-73405162D01*
X103692943Y-73263117D01*
X103726118Y-73230000D01*
X105732877Y-73230000D01*
X105615241Y-73513298D01*
X105614760Y-74064285D01*
X105825169Y-74573515D01*
X106009333Y-74758000D01*
X102964463Y-74758000D01*
X102932327Y-74725808D01*
X102588799Y-74583162D01*
X102216833Y-74582838D01*
X101873057Y-74724883D01*
X101609808Y-74987673D01*
X101467162Y-75331201D01*
X101466838Y-75703167D01*
X101608883Y-76046943D01*
X101871673Y-76310192D01*
X102215201Y-76452838D01*
X102587167Y-76453162D01*
X102930943Y-76311117D01*
X102964118Y-76278000D01*
X111425903Y-76278000D01*
X111365458Y-76423567D01*
X111364543Y-77471834D01*
X111764853Y-78440658D01*
X112505443Y-79182542D01*
X113473567Y-79584542D01*
X114342415Y-79585300D01*
X114207808Y-79719673D01*
X114065162Y-80063201D01*
X114064838Y-80435167D01*
X114206883Y-80778943D01*
X114240000Y-80812118D01*
X114240000Y-82314991D01*
X114064833Y-82314838D01*
X113721057Y-82456883D01*
X113457808Y-82719673D01*
X113315162Y-83063201D01*
X113315161Y-83064838D01*
X112971057Y-83206883D01*
X112707808Y-83469673D01*
X112565162Y-83813201D01*
X112565006Y-83992547D01*
X112530327Y-83957808D01*
X112186799Y-83815162D01*
X111814833Y-83814838D01*
X111471057Y-83956883D01*
X111207808Y-84219673D01*
X111065162Y-84563201D01*
X111065161Y-84564838D01*
X110721057Y-84706883D01*
X110457808Y-84969673D01*
X110315162Y-85313201D01*
X110314838Y-85685167D01*
X110456883Y-86028943D01*
X110490000Y-86062118D01*
X110490000Y-87460660D01*
X110450000Y-87452560D01*
X108450000Y-87452560D01*
X108214683Y-87496838D01*
X107998559Y-87635910D01*
X107853569Y-87848110D01*
X107802560Y-88100000D01*
X107802560Y-88240000D01*
X107750000Y-88240000D01*
X107459161Y-88297852D01*
X107212599Y-88462599D01*
X107047852Y-88709161D01*
X106990000Y-89000000D01*
X106990000Y-90830911D01*
X106850000Y-90802560D01*
X106627362Y-90802560D01*
X106332959Y-90508157D01*
X106401441Y-90464090D01*
X106546431Y-90251890D01*
X106597440Y-90000000D01*
X106597440Y-88000000D01*
X106553162Y-87764683D01*
X106414090Y-87548559D01*
X106201890Y-87403569D01*
X105950000Y-87352560D01*
X104150000Y-87352560D01*
X103914683Y-87396838D01*
X103698559Y-87535910D01*
X103553569Y-87748110D01*
X103502560Y-88000000D01*
X103502560Y-90000000D01*
X103546838Y-90235317D01*
X103685910Y-90451441D01*
X103898110Y-90596431D01*
X104150000Y-90647440D01*
X104385671Y-90647440D01*
X104512599Y-90837401D01*
X105552560Y-91877362D01*
X105552560Y-92150000D01*
X105596838Y-92385317D01*
X105735910Y-92601441D01*
X105948110Y-92746431D01*
X105961197Y-92749081D01*
X105748559Y-92885910D01*
X105603569Y-93098110D01*
X105552560Y-93350000D01*
X105552560Y-94050000D01*
X105596838Y-94285317D01*
X105712472Y-94465017D01*
X105707808Y-94469673D01*
X105565162Y-94813201D01*
X105564838Y-95185167D01*
X105706883Y-95528943D01*
X105969673Y-95792192D01*
X106313201Y-95934838D01*
X106685167Y-95935162D01*
X106990000Y-95809208D01*
X106990000Y-96937537D01*
X106957808Y-96969673D01*
X106815162Y-97313201D01*
X106815057Y-97433411D01*
X106797852Y-97459161D01*
X106740000Y-97750000D01*
X106740000Y-102052560D01*
X106602362Y-102052560D01*
X106158088Y-101608286D01*
X106185317Y-101603162D01*
X106401441Y-101464090D01*
X106546431Y-101251890D01*
X106597440Y-101000000D01*
X106597440Y-99000000D01*
X106553162Y-98764683D01*
X106414090Y-98548559D01*
X106201890Y-98403569D01*
X105950000Y-98352560D01*
X104150000Y-98352560D01*
X103914683Y-98396838D01*
X103698559Y-98535910D01*
X103553569Y-98748110D01*
X103502560Y-99000000D01*
X103502560Y-101000000D01*
X103546838Y-101235317D01*
X103685910Y-101451441D01*
X103898110Y-101596431D01*
X104150000Y-101647440D01*
X104304409Y-101647440D01*
X104347852Y-101865839D01*
X104512599Y-102112401D01*
X105552560Y-103152362D01*
X105552560Y-103400000D01*
X105596838Y-103635317D01*
X105735910Y-103851441D01*
X105948110Y-103996431D01*
X105961197Y-103999081D01*
X105748559Y-104135910D01*
X105603569Y-104348110D01*
X105552560Y-104600000D01*
X105552560Y-105300000D01*
X105596838Y-105535317D01*
X105735910Y-105751441D01*
X105765000Y-105771317D01*
X105765000Y-106275000D01*
X105814976Y-106526246D01*
X105814838Y-106685167D01*
X105956883Y-107028943D01*
X106219673Y-107292192D01*
X106563201Y-107434838D01*
X106740000Y-107434992D01*
X106740000Y-113302560D01*
X106602362Y-113302560D01*
X106158088Y-112858286D01*
X106185317Y-112853162D01*
X106401441Y-112714090D01*
X106546431Y-112501890D01*
X106597440Y-112250000D01*
X106597440Y-110250000D01*
X106553162Y-110014683D01*
X106414090Y-109798559D01*
X106201890Y-109653569D01*
X105950000Y-109602560D01*
X104150000Y-109602560D01*
X103914683Y-109646838D01*
X103698559Y-109785910D01*
X103553569Y-109998110D01*
X103502560Y-110250000D01*
X103502560Y-112250000D01*
X103546838Y-112485317D01*
X103685910Y-112701441D01*
X103898110Y-112846431D01*
X104150000Y-112897440D01*
X104304409Y-112897440D01*
X104347852Y-113115839D01*
X104512599Y-113362401D01*
X105552560Y-114402362D01*
X105552560Y-114650000D01*
X105596838Y-114885317D01*
X105735910Y-115101441D01*
X105948110Y-115246431D01*
X105961197Y-115249081D01*
X105748559Y-115385910D01*
X105603569Y-115598110D01*
X105552560Y-115850000D01*
X105552560Y-116550000D01*
X105596838Y-116785317D01*
X105735910Y-117001441D01*
X105765000Y-117021317D01*
X105765000Y-117025000D01*
X105814976Y-117276246D01*
X105814838Y-117435167D01*
X105956883Y-117778943D01*
X106219673Y-118042192D01*
X106563201Y-118184838D01*
X106740000Y-118184992D01*
X106740000Y-124552560D01*
X106602362Y-124552560D01*
X106317747Y-124267945D01*
X106401441Y-124214090D01*
X106546431Y-124001890D01*
X106597440Y-123750000D01*
X106597440Y-121750000D01*
X106553162Y-121514683D01*
X106414090Y-121298559D01*
X106201890Y-121153569D01*
X105950000Y-121102560D01*
X104150000Y-121102560D01*
X103914683Y-121146838D01*
X103698559Y-121285910D01*
X103553569Y-121498110D01*
X103502560Y-121750000D01*
X103502560Y-123750000D01*
X103546838Y-123985317D01*
X103685910Y-124201441D01*
X103898110Y-124346431D01*
X104150000Y-124397440D01*
X104368967Y-124397440D01*
X104512599Y-124612401D01*
X105552560Y-125652362D01*
X105552560Y-125900000D01*
X105596838Y-126135317D01*
X105735910Y-126351441D01*
X105948110Y-126496431D01*
X105961197Y-126499081D01*
X105748559Y-126635910D01*
X105603569Y-126848110D01*
X105552560Y-127100000D01*
X105552560Y-127800000D01*
X105596838Y-128035317D01*
X105735910Y-128251441D01*
X105948110Y-128396431D01*
X106200000Y-128447440D01*
X106740000Y-128447440D01*
X106740000Y-132416526D01*
X106664090Y-132298559D01*
X106451890Y-132153569D01*
X106200000Y-132102560D01*
X104400000Y-132102560D01*
X104164683Y-132146838D01*
X103948559Y-132285910D01*
X103803569Y-132498110D01*
X103752560Y-132750000D01*
X103752560Y-134750000D01*
X103796838Y-134985317D01*
X103935910Y-135201441D01*
X104148110Y-135346431D01*
X104400000Y-135397440D01*
X104540000Y-135397440D01*
X104540000Y-135575000D01*
X104597852Y-135865839D01*
X104762599Y-136112401D01*
X105552560Y-136902362D01*
X105552560Y-137150000D01*
X105596838Y-137385317D01*
X105735910Y-137601441D01*
X105948110Y-137746431D01*
X105961197Y-137749081D01*
X105748559Y-137885910D01*
X105603569Y-138098110D01*
X105552560Y-138350000D01*
X105552560Y-139050000D01*
X105596838Y-139285317D01*
X105735910Y-139501441D01*
X105948110Y-139646431D01*
X106200000Y-139697440D01*
X106740000Y-139697440D01*
X106740000Y-145250000D01*
X106797852Y-145540839D01*
X106962599Y-145787401D01*
X107209161Y-145952148D01*
X107500000Y-146010000D01*
X107802560Y-146010000D01*
X107802560Y-146150000D01*
X107846838Y-146385317D01*
X107985910Y-146601441D01*
X108198110Y-146746431D01*
X108450000Y-146797440D01*
X110450000Y-146797440D01*
X110490000Y-146789913D01*
X110490000Y-157187537D01*
X110457808Y-157219673D01*
X110315162Y-157563201D01*
X110314838Y-157935167D01*
X110456883Y-158278943D01*
X110719673Y-158542192D01*
X111063201Y-158684838D01*
X111240000Y-158684992D01*
X111240000Y-159187537D01*
X111207808Y-159219673D01*
X111065162Y-159563201D01*
X111064978Y-159774647D01*
X110676485Y-159935169D01*
X110286539Y-160324436D01*
X110190024Y-160556870D01*
X110094831Y-160326485D01*
X109705564Y-159936539D01*
X109196702Y-159725241D01*
X108645715Y-159724760D01*
X108136485Y-159935169D01*
X107746539Y-160324436D01*
X107712509Y-160406390D01*
X107705161Y-160407852D01*
X107458599Y-160572598D01*
X106580320Y-161450878D01*
X106534833Y-161450838D01*
X106191057Y-161592883D01*
X106010000Y-161773624D01*
X106010000Y-156562463D01*
X106042192Y-156530327D01*
X106184838Y-156186799D01*
X106185162Y-155814833D01*
X106043117Y-155471057D01*
X105780327Y-155207808D01*
X105436799Y-155065162D01*
X105064833Y-155064838D01*
X104721057Y-155206883D01*
X104457808Y-155469673D01*
X104315162Y-155813201D01*
X104314838Y-156185167D01*
X104456883Y-156528943D01*
X104490000Y-156562118D01*
X104490000Y-168837739D01*
X104250000Y-168790000D01*
X100710000Y-168790000D01*
X100710000Y-144250000D01*
X103502560Y-144250000D01*
X103502560Y-146250000D01*
X103546838Y-146485317D01*
X103685910Y-146701441D01*
X103898110Y-146846431D01*
X104150000Y-146897440D01*
X104368967Y-146897440D01*
X104512599Y-147112401D01*
X105552560Y-148152362D01*
X105552560Y-148400000D01*
X105596838Y-148635317D01*
X105735910Y-148851441D01*
X105948110Y-148996431D01*
X105961197Y-148999081D01*
X105748559Y-149135910D01*
X105603569Y-149348110D01*
X105552560Y-149600000D01*
X105552560Y-150300000D01*
X105596838Y-150535317D01*
X105735910Y-150751441D01*
X105948110Y-150896431D01*
X106200000Y-150947440D01*
X106850000Y-150947440D01*
X107085317Y-150903162D01*
X107301441Y-150764090D01*
X107446431Y-150551890D01*
X107497440Y-150300000D01*
X107497440Y-149600000D01*
X107453162Y-149364683D01*
X107314090Y-149148559D01*
X107101890Y-149003569D01*
X107088803Y-149000919D01*
X107301441Y-148864090D01*
X107446431Y-148651890D01*
X107497440Y-148400000D01*
X107497440Y-147700000D01*
X108502560Y-147700000D01*
X108502560Y-148400000D01*
X108546838Y-148635317D01*
X108685910Y-148851441D01*
X108898110Y-148996431D01*
X108911197Y-148999081D01*
X108698559Y-149135910D01*
X108553569Y-149348110D01*
X108502560Y-149600000D01*
X108502560Y-150300000D01*
X108546838Y-150535317D01*
X108685910Y-150751441D01*
X108898110Y-150896431D01*
X109150000Y-150947440D01*
X109800000Y-150947440D01*
X110035317Y-150903162D01*
X110251441Y-150764090D01*
X110396431Y-150551890D01*
X110447440Y-150300000D01*
X110447440Y-149600000D01*
X110403162Y-149364683D01*
X110264090Y-149148559D01*
X110051890Y-149003569D01*
X110038803Y-149000919D01*
X110251441Y-148864090D01*
X110396431Y-148651890D01*
X110447440Y-148400000D01*
X110447440Y-147700000D01*
X110403162Y-147464683D01*
X110264090Y-147248559D01*
X110051890Y-147103569D01*
X109800000Y-147052560D01*
X109150000Y-147052560D01*
X108914683Y-147096838D01*
X108698559Y-147235910D01*
X108553569Y-147448110D01*
X108502560Y-147700000D01*
X107497440Y-147700000D01*
X107453162Y-147464683D01*
X107314090Y-147248559D01*
X107101890Y-147103569D01*
X106850000Y-147052560D01*
X106602362Y-147052560D01*
X106317747Y-146767945D01*
X106401441Y-146714090D01*
X106546431Y-146501890D01*
X106597440Y-146250000D01*
X106597440Y-144250000D01*
X106553162Y-144014683D01*
X106414090Y-143798559D01*
X106201890Y-143653569D01*
X105950000Y-143602560D01*
X104150000Y-143602560D01*
X103914683Y-143646838D01*
X103698559Y-143785910D01*
X103553569Y-143998110D01*
X103502560Y-144250000D01*
X100710000Y-144250000D01*
X100710000Y-68984285D01*
X105614760Y-68984285D01*
X105825169Y-69493515D01*
X106214436Y-69883461D01*
X106723298Y-70094759D01*
X107274285Y-70095240D01*
X107783515Y-69884831D01*
X108173461Y-69495564D01*
X108384759Y-68986702D01*
X108385240Y-68435715D01*
X108174831Y-67926485D01*
X107785564Y-67536539D01*
X107276702Y-67325241D01*
X106725715Y-67324760D01*
X106216485Y-67535169D01*
X105826539Y-67924436D01*
X105615241Y-68433298D01*
X105614760Y-68984285D01*
X100710000Y-68984285D01*
X100710000Y-25665167D01*
X101466838Y-25665167D01*
X101608883Y-26008943D01*
X101871673Y-26272192D01*
X102215201Y-26414838D01*
X102229070Y-26414850D01*
X102228838Y-26681167D01*
X102370883Y-27024943D01*
X102633673Y-27288192D01*
X102977201Y-27430838D01*
X103349167Y-27431162D01*
X103692943Y-27289117D01*
X103726118Y-27256000D01*
X107671147Y-27256000D01*
X107535241Y-27583298D01*
X107534760Y-28134285D01*
X107745169Y-28643515D01*
X107885409Y-28784000D01*
X106720000Y-28784000D01*
X106429161Y-28841852D01*
X106182599Y-29006599D01*
X105166599Y-30022599D01*
X105001852Y-30269161D01*
X104944000Y-30560000D01*
X104944000Y-33721537D01*
X104911808Y-33753673D01*
X104769162Y-34097201D01*
X104768838Y-34469167D01*
X104910883Y-34812943D01*
X105173673Y-35076192D01*
X105517201Y-35218838D01*
X105889167Y-35219162D01*
X106232943Y-35077117D01*
X106470000Y-34840473D01*
X106470000Y-44323000D01*
X106470905Y-44327549D01*
X106429161Y-44335852D01*
X106182599Y-44500599D01*
X105166599Y-45516599D01*
X105001852Y-45763161D01*
X104944000Y-46054000D01*
X104944000Y-47523537D01*
X104911808Y-47555673D01*
X104769162Y-47899201D01*
X104768838Y-48271167D01*
X104910883Y-48614943D01*
X105173673Y-48878192D01*
X105517201Y-49020838D01*
X105889167Y-49021162D01*
X106232943Y-48879117D01*
X106496192Y-48616327D01*
X106638838Y-48272799D01*
X106639162Y-47900833D01*
X106497117Y-47557057D01*
X106464000Y-47523882D01*
X106464000Y-46368802D01*
X107034802Y-45798000D01*
X107541190Y-45798000D01*
X107522560Y-45890000D01*
X107522560Y-47390000D01*
X107566838Y-47625317D01*
X107705910Y-47841441D01*
X107918110Y-47986431D01*
X108170000Y-48037440D01*
X109670000Y-48037440D01*
X109905317Y-47993162D01*
X110121441Y-47854090D01*
X110266431Y-47641890D01*
X110306355Y-47444738D01*
X110674436Y-47813461D01*
X111183298Y-48024759D01*
X111734285Y-48025240D01*
X112243515Y-47814831D01*
X112633461Y-47425564D01*
X112729976Y-47193130D01*
X112825169Y-47423515D01*
X113214436Y-47813461D01*
X113723298Y-48024759D01*
X114274285Y-48025240D01*
X114775387Y-47818189D01*
X115124292Y-48167094D01*
X114830833Y-48166838D01*
X114487057Y-48308883D01*
X114223808Y-48571673D01*
X114081162Y-48915201D01*
X114080838Y-49287167D01*
X114222883Y-49630943D01*
X114485673Y-49894192D01*
X114829201Y-50036838D01*
X114876077Y-50036879D01*
X114986599Y-50147401D01*
X115200014Y-50290000D01*
X106500000Y-50290000D01*
X106228295Y-50344046D01*
X105997954Y-50497954D01*
X105844046Y-50728295D01*
X105790000Y-51000000D01*
X105790000Y-63000000D01*
X105844046Y-63271705D01*
X105997954Y-63502046D01*
X106228295Y-63655954D01*
X106500000Y-63710000D01*
X112113505Y-63710000D01*
X111767458Y-64055443D01*
X111365458Y-65023567D01*
X111364543Y-66071834D01*
X111764853Y-67040658D01*
X112505443Y-67782542D01*
X113473567Y-68184542D01*
X114333905Y-68185293D01*
X114032320Y-68486878D01*
X113986833Y-68486838D01*
X113643057Y-68628883D01*
X113379808Y-68891673D01*
X113237162Y-69235201D01*
X113236838Y-69607167D01*
X113378883Y-69950943D01*
X113641673Y-70214192D01*
X113985201Y-70356838D01*
X114357167Y-70357162D01*
X114700943Y-70215117D01*
X114964192Y-69952327D01*
X115106838Y-69608799D01*
X115106879Y-69561923D01*
X116518802Y-68150000D01*
X120232877Y-68150000D01*
X120115241Y-68433298D01*
X120114760Y-68984285D01*
X120325169Y-69493515D01*
X120714436Y-69883461D01*
X120946870Y-69979976D01*
X120716485Y-70075169D01*
X120326539Y-70464436D01*
X120115241Y-70973298D01*
X120114760Y-71524285D01*
X120325169Y-72033515D01*
X120714436Y-72423461D01*
X120946870Y-72519976D01*
X120716485Y-72615169D01*
X120326539Y-73004436D01*
X120115241Y-73513298D01*
X120114760Y-74064285D01*
X120325169Y-74573515D01*
X120714436Y-74963461D01*
X121223298Y-75174759D01*
X121774285Y-75175240D01*
X122283515Y-74964831D01*
X122673461Y-74575564D01*
X122884759Y-74066702D01*
X122885240Y-73515715D01*
X122674831Y-73006485D01*
X122285564Y-72616539D01*
X122053130Y-72520024D01*
X122283515Y-72424831D01*
X122673461Y-72035564D01*
X122684076Y-72010000D01*
X126552559Y-72010000D01*
X126853201Y-72134838D01*
X127225167Y-72135162D01*
X127568943Y-71993117D01*
X127832192Y-71730327D01*
X127974838Y-71386799D01*
X127975162Y-71014833D01*
X127833117Y-70671057D01*
X127570327Y-70407808D01*
X127226799Y-70265162D01*
X126854833Y-70264838D01*
X126511057Y-70406883D01*
X126427795Y-70490000D01*
X122684547Y-70490000D01*
X122674831Y-70466485D01*
X122285564Y-70076539D01*
X122053130Y-69980024D01*
X122283515Y-69884831D01*
X122673461Y-69495564D01*
X122884759Y-68986702D01*
X122885240Y-68435715D01*
X122767185Y-68150000D01*
X125715537Y-68150000D01*
X125747673Y-68182192D01*
X126091201Y-68324838D01*
X126463167Y-68325162D01*
X126806943Y-68183117D01*
X127070192Y-67920327D01*
X127212838Y-67576799D01*
X127213162Y-67204833D01*
X127071117Y-66861057D01*
X126808327Y-66597808D01*
X126464799Y-66455162D01*
X126092833Y-66454838D01*
X125749057Y-66596883D01*
X125715882Y-66630000D01*
X116404681Y-66630000D01*
X116634542Y-66076433D01*
X116635457Y-65028166D01*
X116235147Y-64059342D01*
X115886414Y-63710000D01*
X123500000Y-63710000D01*
X123771705Y-63655954D01*
X124002046Y-63502046D01*
X124155954Y-63271705D01*
X124210000Y-63000000D01*
X124210000Y-51000000D01*
X124155954Y-50728295D01*
X124002046Y-50497954D01*
X123810548Y-50370000D01*
X124953537Y-50370000D01*
X124985673Y-50402192D01*
X125329201Y-50544838D01*
X125701167Y-50545162D01*
X126044943Y-50403117D01*
X126308192Y-50140327D01*
X126450838Y-49796799D01*
X126451002Y-49608000D01*
X126477537Y-49608000D01*
X126509673Y-49640192D01*
X126853201Y-49782838D01*
X127225167Y-49783162D01*
X127568943Y-49641117D01*
X127832192Y-49378327D01*
X127974838Y-49034799D01*
X127974850Y-49021151D01*
X127987167Y-49021162D01*
X128330943Y-48879117D01*
X128594192Y-48616327D01*
X128736838Y-48272799D01*
X128737162Y-47900833D01*
X128595117Y-47557057D01*
X128332327Y-47293808D01*
X127988799Y-47151162D01*
X127616833Y-47150838D01*
X127273057Y-47292883D01*
X127239882Y-47326000D01*
X120294804Y-47326000D01*
X120464759Y-46916702D01*
X120465240Y-46365715D01*
X120254831Y-45856485D01*
X120196448Y-45798000D01*
X120944000Y-45798000D01*
X121234839Y-45740148D01*
X121481401Y-45575401D01*
X122243401Y-44813401D01*
X122408148Y-44566839D01*
X122466000Y-44276000D01*
X122466000Y-40951547D01*
X122742943Y-40837117D01*
X123006192Y-40574327D01*
X123148838Y-40230799D01*
X123149162Y-39858833D01*
X123007117Y-39515057D01*
X122744327Y-39251808D01*
X122400799Y-39109162D01*
X122028833Y-39108838D01*
X121685057Y-39250883D01*
X121479000Y-39456581D01*
X121479000Y-30304000D01*
X123951403Y-30304000D01*
X123960883Y-30326943D01*
X124223673Y-30590192D01*
X124567201Y-30732838D01*
X124939167Y-30733162D01*
X125282943Y-30591117D01*
X125546192Y-30328327D01*
X125688838Y-29984799D01*
X125689162Y-29612833D01*
X125547117Y-29269057D01*
X125284327Y-29005808D01*
X124940799Y-28863162D01*
X124822578Y-28863059D01*
X124790839Y-28841852D01*
X124500000Y-28784000D01*
X120114784Y-28784000D01*
X120253461Y-28645564D01*
X120464759Y-28136702D01*
X120465240Y-27585715D01*
X120254831Y-27076485D01*
X120180476Y-27002000D01*
X120459782Y-27002000D01*
X120500000Y-27010000D01*
X120517000Y-27010000D01*
X120557218Y-27002000D01*
X127239537Y-27002000D01*
X127271673Y-27034192D01*
X127615201Y-27176838D01*
X127987167Y-27177162D01*
X128330943Y-27035117D01*
X128594192Y-26772327D01*
X128736838Y-26428799D01*
X128737162Y-26056833D01*
X128595117Y-25713057D01*
X128332327Y-25449808D01*
X127988799Y-25307162D01*
X127616833Y-25306838D01*
X127273057Y-25448883D01*
X127239882Y-25482000D01*
X121285000Y-25482000D01*
X121285000Y-20274669D01*
X121301441Y-20264090D01*
X121446431Y-20051890D01*
X121497440Y-19800000D01*
X121497440Y-19100000D01*
X121453162Y-18864683D01*
X121314090Y-18648559D01*
X121101890Y-18503569D01*
X121088803Y-18500919D01*
X121301441Y-18364090D01*
X121446431Y-18151890D01*
X121497440Y-17900000D01*
X121497440Y-17200000D01*
X122502560Y-17200000D01*
X122502560Y-17900000D01*
X122546838Y-18135317D01*
X122685910Y-18351441D01*
X122898110Y-18496431D01*
X122911197Y-18499081D01*
X122698559Y-18635910D01*
X122553569Y-18848110D01*
X122502560Y-19100000D01*
X122502560Y-19800000D01*
X122546838Y-20035317D01*
X122685910Y-20251441D01*
X122898110Y-20396431D01*
X123150000Y-20447440D01*
X123800000Y-20447440D01*
X124035317Y-20403162D01*
X124251441Y-20264090D01*
X124396431Y-20051890D01*
X124447440Y-19800000D01*
X124447440Y-19100000D01*
X124403162Y-18864683D01*
X124264090Y-18648559D01*
X124051890Y-18503569D01*
X124038803Y-18500919D01*
X124251441Y-18364090D01*
X124396431Y-18151890D01*
X124447440Y-17900000D01*
X124447440Y-17200000D01*
X124403162Y-16964683D01*
X124264090Y-16748559D01*
X124051890Y-16603569D01*
X123800000Y-16552560D01*
X123150000Y-16552560D01*
X122914683Y-16596838D01*
X122698559Y-16735910D01*
X122553569Y-16948110D01*
X122502560Y-17200000D01*
X121497440Y-17200000D01*
X121453162Y-16964683D01*
X121314090Y-16748559D01*
X121101890Y-16603569D01*
X120850000Y-16552560D01*
X120200000Y-16552560D01*
X119964683Y-16596838D01*
X119748559Y-16735910D01*
X119603569Y-16948110D01*
X119552560Y-17200000D01*
X119552560Y-17900000D01*
X119596838Y-18135317D01*
X119735910Y-18351441D01*
X119948110Y-18496431D01*
X119961197Y-18499081D01*
X119748559Y-18635910D01*
X119603569Y-18848110D01*
X119552560Y-19100000D01*
X119552560Y-19800000D01*
X119596838Y-20035317D01*
X119735910Y-20251441D01*
X119765000Y-20271317D01*
X119765000Y-25482000D01*
X113070000Y-25482000D01*
X112779161Y-25539852D01*
X112532599Y-25704599D01*
X111754547Y-26482651D01*
X111736702Y-26475241D01*
X111185715Y-26474760D01*
X110676485Y-26685169D01*
X110286539Y-27074436D01*
X110190024Y-27306870D01*
X110094831Y-27076485D01*
X109705564Y-26686539D01*
X109196702Y-26475241D01*
X109179019Y-26475226D01*
X109179162Y-26310833D01*
X109037117Y-25967057D01*
X108869770Y-25799417D01*
X108924838Y-25666799D01*
X108925162Y-25294833D01*
X108783117Y-24951057D01*
X108520327Y-24687808D01*
X108176799Y-24545162D01*
X107804833Y-24544838D01*
X107461057Y-24686883D01*
X107427882Y-24720000D01*
X102964463Y-24720000D01*
X102932327Y-24687808D01*
X102588799Y-24545162D01*
X102216833Y-24544838D01*
X101873057Y-24686883D01*
X101609808Y-24949673D01*
X101467162Y-25293201D01*
X101466838Y-25665167D01*
X100710000Y-25665167D01*
X100710000Y-21557135D01*
X101654653Y-22503438D01*
X103173889Y-23134280D01*
X104818894Y-23135716D01*
X106339229Y-22507526D01*
X107503438Y-21345347D01*
X108134280Y-19826111D01*
X108135716Y-18181106D01*
X107507526Y-16660771D01*
X106345347Y-15496562D01*
X104826111Y-14865720D01*
X103181106Y-14864284D01*
X101660771Y-15492474D01*
X100710000Y-16441587D01*
X100710000Y-10814285D01*
X105614760Y-10814285D01*
X105825169Y-11323515D01*
X106214436Y-11713461D01*
X106723298Y-11924759D01*
X107076265Y-11925067D01*
X112024599Y-16873401D01*
X112271161Y-17038148D01*
X112562000Y-17096000D01*
X116372000Y-17096000D01*
X116662839Y-17038148D01*
X116909401Y-16873401D01*
X118718802Y-15064000D01*
X119381367Y-15064000D01*
X119247162Y-15387201D01*
X119246838Y-15759167D01*
X119388883Y-16102943D01*
X119651673Y-16366192D01*
X119995201Y-16508838D01*
X120367167Y-16509162D01*
X120710943Y-16367117D01*
X120744118Y-16334000D01*
X125715537Y-16334000D01*
X125747673Y-16366192D01*
X126091201Y-16508838D01*
X126463167Y-16509162D01*
X126806943Y-16367117D01*
X127070192Y-16104327D01*
X127212838Y-15760799D01*
X127213162Y-15388833D01*
X127071117Y-15045057D01*
X126965290Y-14939046D01*
X127070192Y-14834327D01*
X127212838Y-14490799D01*
X127213162Y-14118833D01*
X127071117Y-13775057D01*
X126808327Y-13511808D01*
X126464799Y-13369162D01*
X126092833Y-13368838D01*
X125749057Y-13510883D01*
X125715882Y-13544000D01*
X118404000Y-13544000D01*
X118113161Y-13601852D01*
X117866599Y-13766599D01*
X116057198Y-15576000D01*
X115850433Y-15576000D01*
X116232542Y-15194557D01*
X116634542Y-14226433D01*
X116635457Y-13178166D01*
X116235147Y-12209342D01*
X115494557Y-11467458D01*
X114526433Y-11065458D01*
X113478166Y-11064543D01*
X112509342Y-11464853D01*
X111767458Y-12205443D01*
X111365458Y-13173567D01*
X111364681Y-14063879D01*
X108306345Y-11005543D01*
X108384759Y-10816702D01*
X108385240Y-10265715D01*
X108174831Y-9756485D01*
X107785564Y-9366539D01*
X107276702Y-9155241D01*
X106725715Y-9154760D01*
X106216485Y-9365169D01*
X105826539Y-9754436D01*
X105615241Y-10263298D01*
X105614760Y-10814285D01*
X100710000Y-10814285D01*
X100710000Y-5734285D01*
X105614760Y-5734285D01*
X105825169Y-6243515D01*
X106214436Y-6633461D01*
X106723298Y-6844759D01*
X107274285Y-6845240D01*
X107783515Y-6634831D01*
X108173461Y-6245564D01*
X108384759Y-5736702D01*
X108384761Y-5734285D01*
X120114760Y-5734285D01*
X120325169Y-6243515D01*
X120714436Y-6633461D01*
X120946870Y-6729976D01*
X120716485Y-6825169D01*
X120326539Y-7214436D01*
X120115241Y-7723298D01*
X120114760Y-8274285D01*
X120325169Y-8783515D01*
X120714436Y-9173461D01*
X120946870Y-9269976D01*
X120716485Y-9365169D01*
X120326539Y-9754436D01*
X120115241Y-10263298D01*
X120114760Y-10814285D01*
X120325169Y-11323515D01*
X120714436Y-11713461D01*
X121223298Y-11924759D01*
X121774285Y-11925240D01*
X122283515Y-11714831D01*
X122673461Y-11325564D01*
X122884759Y-10816702D01*
X122885240Y-10265715D01*
X122674831Y-9756485D01*
X122285564Y-9366539D01*
X122053130Y-9270024D01*
X122283515Y-9174831D01*
X122673461Y-8785564D01*
X122684076Y-8760000D01*
X123240926Y-8760000D01*
X123551201Y-8888838D01*
X123923167Y-8889162D01*
X124266943Y-8747117D01*
X124530192Y-8484327D01*
X124672838Y-8140799D01*
X124673162Y-7768833D01*
X124531117Y-7425057D01*
X124268327Y-7161808D01*
X123924799Y-7019162D01*
X123552833Y-7018838D01*
X123209057Y-7160883D01*
X123129802Y-7240000D01*
X122684547Y-7240000D01*
X122674831Y-7216485D01*
X122285564Y-6826539D01*
X122053130Y-6730024D01*
X122283515Y-6634831D01*
X122673461Y-6245564D01*
X122884759Y-5736702D01*
X122885240Y-5185715D01*
X122674831Y-4676485D01*
X122285564Y-4286539D01*
X121776702Y-4075241D01*
X121225715Y-4074760D01*
X120716485Y-4285169D01*
X120326539Y-4674436D01*
X120115241Y-5183298D01*
X120114760Y-5734285D01*
X108384761Y-5734285D01*
X108385240Y-5185715D01*
X108174831Y-4676485D01*
X107785564Y-4286539D01*
X107276702Y-4075241D01*
X106725715Y-4074760D01*
X106216485Y-4285169D01*
X105826539Y-4674436D01*
X105615241Y-5183298D01*
X105614760Y-5734285D01*
X100710000Y-5734285D01*
X100710000Y-710000D01*
X111863068Y-710000D01*
X111767458Y-805443D01*
X111767458Y-805443D01*
G37*
X111767458Y-805443D02*
X111365458Y-1773567D01*
X111364543Y-2821834D01*
X111764853Y-3790658D01*
X112505443Y-4532542D01*
X113473567Y-4934542D01*
X114521834Y-4935457D01*
X115490658Y-4535147D01*
X116232542Y-3794557D01*
X116634542Y-2826433D01*
X116635457Y-1778166D01*
X116235147Y-809342D01*
X116135978Y-710000D01*
X126442865Y-710000D01*
X125496562Y-1654653D01*
X124865720Y-3173889D01*
X124864284Y-4818894D01*
X125492474Y-6339229D01*
X126654653Y-7503438D01*
X128173889Y-8134280D01*
X129818894Y-8135716D01*
X131339229Y-7507526D01*
X132290000Y-6558413D01*
X132290000Y-86608015D01*
X132186799Y-86565162D01*
X132010000Y-86565008D01*
X132010000Y-76312463D01*
X132042192Y-76280327D01*
X132184838Y-75936799D01*
X132185162Y-75564833D01*
X132043117Y-75221057D01*
X131780327Y-74957808D01*
X131436799Y-74815162D01*
X131064833Y-74814838D01*
X130721057Y-74956883D01*
X130457808Y-75219673D01*
X130315162Y-75563201D01*
X130314838Y-75935167D01*
X130456883Y-76278943D01*
X130490000Y-76312118D01*
X130490000Y-87352560D01*
X129050000Y-87352560D01*
X128814683Y-87396838D01*
X128598559Y-87535910D01*
X128453569Y-87748110D01*
X128402560Y-88000000D01*
X128402560Y-90000000D01*
X128446838Y-90235317D01*
X128585910Y-90451441D01*
X128682654Y-90517544D01*
X128397638Y-90802560D01*
X128150000Y-90802560D01*
X127914683Y-90846838D01*
X127698559Y-90985910D01*
X127553569Y-91198110D01*
X127502560Y-91450000D01*
X127502560Y-92150000D01*
X127546838Y-92385317D01*
X127685910Y-92601441D01*
X127898110Y-92746431D01*
X127911197Y-92749081D01*
X127698559Y-92885910D01*
X127553569Y-93098110D01*
X127502560Y-93350000D01*
X127502560Y-93672638D01*
X125559207Y-95615991D01*
X125436799Y-95565162D01*
X125064833Y-95564838D01*
X124760000Y-95690792D01*
X124760000Y-94517901D01*
X124948110Y-94646431D01*
X125200000Y-94697440D01*
X125850000Y-94697440D01*
X126085317Y-94653162D01*
X126301441Y-94514090D01*
X126446431Y-94301890D01*
X126497440Y-94050000D01*
X126497440Y-93350000D01*
X126453162Y-93114683D01*
X126314090Y-92898559D01*
X126101890Y-92753569D01*
X126088803Y-92750919D01*
X126301441Y-92614090D01*
X126446431Y-92401890D01*
X126497440Y-92150000D01*
X126497440Y-91450000D01*
X126453162Y-91214683D01*
X126314090Y-90998559D01*
X126101890Y-90853569D01*
X125850000Y-90802560D01*
X125200000Y-90802560D01*
X124964683Y-90846838D01*
X124760000Y-90978548D01*
X124760000Y-90547440D01*
X126550000Y-90547440D01*
X126785317Y-90503162D01*
X127001441Y-90364090D01*
X127146431Y-90151890D01*
X127197440Y-89900000D01*
X127197440Y-88100000D01*
X127153162Y-87864683D01*
X127014090Y-87648559D01*
X126801890Y-87503569D01*
X126550000Y-87452560D01*
X124550000Y-87452560D01*
X124314683Y-87496838D01*
X124098559Y-87635910D01*
X124010000Y-87765520D01*
X124010000Y-80062463D01*
X124042192Y-80030327D01*
X124184838Y-79686799D01*
X124185162Y-79314833D01*
X124043117Y-78971057D01*
X123780327Y-78707808D01*
X123436799Y-78565162D01*
X123064833Y-78564838D01*
X122721057Y-78706883D01*
X122687882Y-78740000D01*
X119812463Y-78740000D01*
X119780327Y-78707808D01*
X119436799Y-78565162D01*
X119064833Y-78564838D01*
X118721057Y-78706883D01*
X118457808Y-78969673D01*
X118315162Y-79313201D01*
X118314838Y-79685167D01*
X118456883Y-80028943D01*
X118719673Y-80292192D01*
X119063201Y-80434838D01*
X119435167Y-80435162D01*
X119778943Y-80293117D01*
X119812118Y-80260000D01*
X122490000Y-80260000D01*
X122490000Y-94417847D01*
X122280327Y-94207808D01*
X121936799Y-94065162D01*
X121760000Y-94065008D01*
X121760000Y-93062463D01*
X121792192Y-93030327D01*
X121934838Y-92686799D01*
X121935162Y-92314833D01*
X121793117Y-91971057D01*
X121530327Y-91707808D01*
X121186799Y-91565162D01*
X121010000Y-91565008D01*
X121010000Y-90562463D01*
X121042192Y-90530327D01*
X121184838Y-90186799D01*
X121185162Y-89814833D01*
X121043117Y-89471057D01*
X120780327Y-89207808D01*
X120436799Y-89065162D01*
X120064833Y-89064838D01*
X119721057Y-89206883D01*
X119457808Y-89469673D01*
X119315162Y-89813201D01*
X119314838Y-90185167D01*
X119456883Y-90528943D01*
X119490000Y-90562118D01*
X119490000Y-115687537D01*
X119457808Y-115719673D01*
X119315162Y-116063201D01*
X119314838Y-116435167D01*
X119355173Y-116532784D01*
X119280327Y-116457808D01*
X118936799Y-116315162D01*
X118760000Y-116315008D01*
X118760000Y-113312463D01*
X118792192Y-113280327D01*
X118934838Y-112936799D01*
X118935162Y-112564833D01*
X118793117Y-112221057D01*
X118530327Y-111957808D01*
X118186799Y-111815162D01*
X118010000Y-111815008D01*
X118010000Y-109312463D01*
X118042192Y-109280327D01*
X118184838Y-108936799D01*
X118185162Y-108564833D01*
X118043117Y-108221057D01*
X118010000Y-108187882D01*
X118010000Y-83062463D01*
X118042192Y-83030327D01*
X118184838Y-82686799D01*
X118185162Y-82314833D01*
X118043117Y-81971057D01*
X117780327Y-81707808D01*
X117436799Y-81565162D01*
X117435162Y-81565161D01*
X117435162Y-81564833D01*
X117293117Y-81221057D01*
X117030327Y-80957808D01*
X116686799Y-80815162D01*
X116685162Y-80815161D01*
X116685162Y-80814833D01*
X116543117Y-80471057D01*
X116280327Y-80207808D01*
X115936799Y-80065162D01*
X115935162Y-80065161D01*
X115935162Y-80064833D01*
X115793117Y-79721057D01*
X115530327Y-79457808D01*
X115186799Y-79315162D01*
X115176020Y-79315153D01*
X115490658Y-79185147D01*
X116232542Y-78444557D01*
X116634542Y-77476433D01*
X116635457Y-76428166D01*
X116235147Y-75459342D01*
X115494557Y-74717458D01*
X114526433Y-74315458D01*
X113909882Y-74314920D01*
X114311680Y-73913122D01*
X114357167Y-73913162D01*
X114700943Y-73771117D01*
X114964192Y-73508327D01*
X115106838Y-73164799D01*
X115107162Y-72792833D01*
X114965117Y-72449057D01*
X114702327Y-72185808D01*
X114358799Y-72043162D01*
X113986833Y-72042838D01*
X113643057Y-72184883D01*
X113379808Y-72447673D01*
X113237162Y-72791201D01*
X113237121Y-72838077D01*
X111317198Y-74758000D01*
X107990707Y-74758000D01*
X108173461Y-74575564D01*
X108384759Y-74066702D01*
X108385240Y-73515715D01*
X108267185Y-73230000D01*
X108777198Y-73230000D01*
X109086878Y-73539680D01*
X109086838Y-73585167D01*
X109228883Y-73928943D01*
X109491673Y-74192192D01*
X109835201Y-74334838D01*
X110207167Y-74335162D01*
X110550943Y-74193117D01*
X110814192Y-73930327D01*
X110956838Y-73586799D01*
X110957162Y-73214833D01*
X110815117Y-72871057D01*
X110552327Y-72607808D01*
X110208799Y-72465162D01*
X110161923Y-72465121D01*
X109629401Y-71932599D01*
X109382839Y-71767852D01*
X109092000Y-71710000D01*
X103726463Y-71710000D01*
X103694327Y-71677808D01*
X103350799Y-71535162D01*
X102978833Y-71534838D01*
X102635057Y-71676883D01*
X102371808Y-71939673D01*
X102229162Y-72283201D01*
X102228838Y-72655167D01*
X102370883Y-72998943D01*
X102633673Y-73262192D01*
X102977201Y-73404838D01*
X103349167Y-73405162D01*
X103692943Y-73263117D01*
X103726118Y-73230000D01*
X105732877Y-73230000D01*
X105615241Y-73513298D01*
X105614760Y-74064285D01*
X105825169Y-74573515D01*
X106009333Y-74758000D01*
X102964463Y-74758000D01*
X102932327Y-74725808D01*
X102588799Y-74583162D01*
X102216833Y-74582838D01*
X101873057Y-74724883D01*
X101609808Y-74987673D01*
X101467162Y-75331201D01*
X101466838Y-75703167D01*
X101608883Y-76046943D01*
X101871673Y-76310192D01*
X102215201Y-76452838D01*
X102587167Y-76453162D01*
X102930943Y-76311117D01*
X102964118Y-76278000D01*
X111425903Y-76278000D01*
X111365458Y-76423567D01*
X111364543Y-77471834D01*
X111764853Y-78440658D01*
X112505443Y-79182542D01*
X113473567Y-79584542D01*
X114342415Y-79585300D01*
X114207808Y-79719673D01*
X114065162Y-80063201D01*
X114064838Y-80435167D01*
X114206883Y-80778943D01*
X114240000Y-80812118D01*
X114240000Y-82314991D01*
X114064833Y-82314838D01*
X113721057Y-82456883D01*
X113457808Y-82719673D01*
X113315162Y-83063201D01*
X113315161Y-83064838D01*
X112971057Y-83206883D01*
X112707808Y-83469673D01*
X112565162Y-83813201D01*
X112565006Y-83992547D01*
X112530327Y-83957808D01*
X112186799Y-83815162D01*
X111814833Y-83814838D01*
X111471057Y-83956883D01*
X111207808Y-84219673D01*
X111065162Y-84563201D01*
X111065161Y-84564838D01*
X110721057Y-84706883D01*
X110457808Y-84969673D01*
X110315162Y-85313201D01*
X110314838Y-85685167D01*
X110456883Y-86028943D01*
X110490000Y-86062118D01*
X110490000Y-87460660D01*
X110450000Y-87452560D01*
X108450000Y-87452560D01*
X108214683Y-87496838D01*
X107998559Y-87635910D01*
X107853569Y-87848110D01*
X107802560Y-88100000D01*
X107802560Y-88240000D01*
X107750000Y-88240000D01*
X107459161Y-88297852D01*
X107212599Y-88462599D01*
X107047852Y-88709161D01*
X106990000Y-89000000D01*
X106990000Y-90830911D01*
X106850000Y-90802560D01*
X106627362Y-90802560D01*
X106332959Y-90508157D01*
X106401441Y-90464090D01*
X106546431Y-90251890D01*
X106597440Y-90000000D01*
X106597440Y-88000000D01*
X106553162Y-87764683D01*
X106414090Y-87548559D01*
X106201890Y-87403569D01*
X105950000Y-87352560D01*
X104150000Y-87352560D01*
X103914683Y-87396838D01*
X103698559Y-87535910D01*
X103553569Y-87748110D01*
X103502560Y-88000000D01*
X103502560Y-90000000D01*
X103546838Y-90235317D01*
X103685910Y-90451441D01*
X103898110Y-90596431D01*
X104150000Y-90647440D01*
X104385671Y-90647440D01*
X104512599Y-90837401D01*
X105552560Y-91877362D01*
X105552560Y-92150000D01*
X105596838Y-92385317D01*
X105735910Y-92601441D01*
X105948110Y-92746431D01*
X105961197Y-92749081D01*
X105748559Y-92885910D01*
X105603569Y-93098110D01*
X105552560Y-93350000D01*
X105552560Y-94050000D01*
X105596838Y-94285317D01*
X105712472Y-94465017D01*
X105707808Y-94469673D01*
X105565162Y-94813201D01*
X105564838Y-95185167D01*
X105706883Y-95528943D01*
X105969673Y-95792192D01*
X106313201Y-95934838D01*
X106685167Y-95935162D01*
X106990000Y-95809208D01*
X106990000Y-96937537D01*
X106957808Y-96969673D01*
X106815162Y-97313201D01*
X106815057Y-97433411D01*
X106797852Y-97459161D01*
X106740000Y-97750000D01*
X106740000Y-102052560D01*
X106602362Y-102052560D01*
X106158088Y-101608286D01*
X106185317Y-101603162D01*
X106401441Y-101464090D01*
X106546431Y-101251890D01*
X106597440Y-101000000D01*
X106597440Y-99000000D01*
X106553162Y-98764683D01*
X106414090Y-98548559D01*
X106201890Y-98403569D01*
X105950000Y-98352560D01*
X104150000Y-98352560D01*
X103914683Y-98396838D01*
X103698559Y-98535910D01*
X103553569Y-98748110D01*
X103502560Y-99000000D01*
X103502560Y-101000000D01*
X103546838Y-101235317D01*
X103685910Y-101451441D01*
X103898110Y-101596431D01*
X104150000Y-101647440D01*
X104304409Y-101647440D01*
X104347852Y-101865839D01*
X104512599Y-102112401D01*
X105552560Y-103152362D01*
X105552560Y-103400000D01*
X105596838Y-103635317D01*
X105735910Y-103851441D01*
X105948110Y-103996431D01*
X105961197Y-103999081D01*
X105748559Y-104135910D01*
X105603569Y-104348110D01*
X105552560Y-104600000D01*
X105552560Y-105300000D01*
X105596838Y-105535317D01*
X105735910Y-105751441D01*
X105765000Y-105771317D01*
X105765000Y-106275000D01*
X105814976Y-106526246D01*
X105814838Y-106685167D01*
X105956883Y-107028943D01*
X106219673Y-107292192D01*
X106563201Y-107434838D01*
X106740000Y-107434992D01*
X106740000Y-113302560D01*
X106602362Y-113302560D01*
X106158088Y-112858286D01*
X106185317Y-112853162D01*
X106401441Y-112714090D01*
X106546431Y-112501890D01*
X106597440Y-112250000D01*
X106597440Y-110250000D01*
X106553162Y-110014683D01*
X106414090Y-109798559D01*
X106201890Y-109653569D01*
X105950000Y-109602560D01*
X104150000Y-109602560D01*
X103914683Y-109646838D01*
X103698559Y-109785910D01*
X103553569Y-109998110D01*
X103502560Y-110250000D01*
X103502560Y-112250000D01*
X103546838Y-112485317D01*
X103685910Y-112701441D01*
X103898110Y-112846431D01*
X104150000Y-112897440D01*
X104304409Y-112897440D01*
X104347852Y-113115839D01*
X104512599Y-113362401D01*
X105552560Y-114402362D01*
X105552560Y-114650000D01*
X105596838Y-114885317D01*
X105735910Y-115101441D01*
X105948110Y-115246431D01*
X105961197Y-115249081D01*
X105748559Y-115385910D01*
X105603569Y-115598110D01*
X105552560Y-115850000D01*
X105552560Y-116550000D01*
X105596838Y-116785317D01*
X105735910Y-117001441D01*
X105765000Y-117021317D01*
X105765000Y-117025000D01*
X105814976Y-117276246D01*
X105814838Y-117435167D01*
X105956883Y-117778943D01*
X106219673Y-118042192D01*
X106563201Y-118184838D01*
X106740000Y-118184992D01*
X106740000Y-124552560D01*
X106602362Y-124552560D01*
X106317747Y-124267945D01*
X106401441Y-124214090D01*
X106546431Y-124001890D01*
X106597440Y-123750000D01*
X106597440Y-121750000D01*
X106553162Y-121514683D01*
X106414090Y-121298559D01*
X106201890Y-121153569D01*
X105950000Y-121102560D01*
X104150000Y-121102560D01*
X103914683Y-121146838D01*
X103698559Y-121285910D01*
X103553569Y-121498110D01*
X103502560Y-121750000D01*
X103502560Y-123750000D01*
X103546838Y-123985317D01*
X103685910Y-124201441D01*
X103898110Y-124346431D01*
X104150000Y-124397440D01*
X104368967Y-124397440D01*
X104512599Y-124612401D01*
X105552560Y-125652362D01*
X105552560Y-125900000D01*
X105596838Y-126135317D01*
X105735910Y-126351441D01*
X105948110Y-126496431D01*
X105961197Y-126499081D01*
X105748559Y-126635910D01*
X105603569Y-126848110D01*
X105552560Y-127100000D01*
X105552560Y-127800000D01*
X105596838Y-128035317D01*
X105735910Y-128251441D01*
X105948110Y-128396431D01*
X106200000Y-128447440D01*
X106740000Y-128447440D01*
X106740000Y-132416526D01*
X106664090Y-132298559D01*
X106451890Y-132153569D01*
X106200000Y-132102560D01*
X104400000Y-132102560D01*
X104164683Y-132146838D01*
X103948559Y-132285910D01*
X103803569Y-132498110D01*
X103752560Y-132750000D01*
X103752560Y-134750000D01*
X103796838Y-134985317D01*
X103935910Y-135201441D01*
X104148110Y-135346431D01*
X104400000Y-135397440D01*
X104540000Y-135397440D01*
X104540000Y-135575000D01*
X104597852Y-135865839D01*
X104762599Y-136112401D01*
X105552560Y-136902362D01*
X105552560Y-137150000D01*
X105596838Y-137385317D01*
X105735910Y-137601441D01*
X105948110Y-137746431D01*
X105961197Y-137749081D01*
X105748559Y-137885910D01*
X105603569Y-138098110D01*
X105552560Y-138350000D01*
X105552560Y-139050000D01*
X105596838Y-139285317D01*
X105735910Y-139501441D01*
X105948110Y-139646431D01*
X106200000Y-139697440D01*
X106740000Y-139697440D01*
X106740000Y-145250000D01*
X106797852Y-145540839D01*
X106962599Y-145787401D01*
X107209161Y-145952148D01*
X107500000Y-146010000D01*
X107802560Y-146010000D01*
X107802560Y-146150000D01*
X107846838Y-146385317D01*
X107985910Y-146601441D01*
X108198110Y-146746431D01*
X108450000Y-146797440D01*
X110450000Y-146797440D01*
X110490000Y-146789913D01*
X110490000Y-157187537D01*
X110457808Y-157219673D01*
X110315162Y-157563201D01*
X110314838Y-157935167D01*
X110456883Y-158278943D01*
X110719673Y-158542192D01*
X111063201Y-158684838D01*
X111240000Y-158684992D01*
X111240000Y-159187537D01*
X111207808Y-159219673D01*
X111065162Y-159563201D01*
X111064978Y-159774647D01*
X110676485Y-159935169D01*
X110286539Y-160324436D01*
X110190024Y-160556870D01*
X110094831Y-160326485D01*
X109705564Y-159936539D01*
X109196702Y-159725241D01*
X108645715Y-159724760D01*
X108136485Y-159935169D01*
X107746539Y-160324436D01*
X107712509Y-160406390D01*
X107705161Y-160407852D01*
X107458599Y-160572598D01*
X106580320Y-161450878D01*
X106534833Y-161450838D01*
X106191057Y-161592883D01*
X106010000Y-161773624D01*
X106010000Y-156562463D01*
X106042192Y-156530327D01*
X106184838Y-156186799D01*
X106185162Y-155814833D01*
X106043117Y-155471057D01*
X105780327Y-155207808D01*
X105436799Y-155065162D01*
X105064833Y-155064838D01*
X104721057Y-155206883D01*
X104457808Y-155469673D01*
X104315162Y-155813201D01*
X104314838Y-156185167D01*
X104456883Y-156528943D01*
X104490000Y-156562118D01*
X104490000Y-168837739D01*
X104250000Y-168790000D01*
X100710000Y-168790000D01*
X100710000Y-144250000D01*
X103502560Y-144250000D01*
X103502560Y-146250000D01*
X103546838Y-146485317D01*
X103685910Y-146701441D01*
X103898110Y-146846431D01*
X104150000Y-146897440D01*
X104368967Y-146897440D01*
X104512599Y-147112401D01*
X105552560Y-148152362D01*
X105552560Y-148400000D01*
X105596838Y-148635317D01*
X105735910Y-148851441D01*
X105948110Y-148996431D01*
X105961197Y-148999081D01*
X105748559Y-149135910D01*
X105603569Y-149348110D01*
X105552560Y-149600000D01*
X105552560Y-150300000D01*
X105596838Y-150535317D01*
X105735910Y-150751441D01*
X105948110Y-150896431D01*
X106200000Y-150947440D01*
X106850000Y-150947440D01*
X107085317Y-150903162D01*
X107301441Y-150764090D01*
X107446431Y-150551890D01*
X107497440Y-150300000D01*
X107497440Y-149600000D01*
X107453162Y-149364683D01*
X107314090Y-149148559D01*
X107101890Y-149003569D01*
X107088803Y-149000919D01*
X107301441Y-148864090D01*
X107446431Y-148651890D01*
X107497440Y-148400000D01*
X107497440Y-147700000D01*
X108502560Y-147700000D01*
X108502560Y-148400000D01*
X108546838Y-148635317D01*
X108685910Y-148851441D01*
X108898110Y-148996431D01*
X108911197Y-148999081D01*
X108698559Y-149135910D01*
X108553569Y-149348110D01*
X108502560Y-149600000D01*
X108502560Y-150300000D01*
X108546838Y-150535317D01*
X108685910Y-150751441D01*
X108898110Y-150896431D01*
X109150000Y-150947440D01*
X109800000Y-150947440D01*
X110035317Y-150903162D01*
X110251441Y-150764090D01*
X110396431Y-150551890D01*
X110447440Y-150300000D01*
X110447440Y-149600000D01*
X110403162Y-149364683D01*
X110264090Y-149148559D01*
X110051890Y-149003569D01*
X110038803Y-149000919D01*
X110251441Y-148864090D01*
X110396431Y-148651890D01*
X110447440Y-148400000D01*
X110447440Y-147700000D01*
X110403162Y-147464683D01*
X110264090Y-147248559D01*
X110051890Y-147103569D01*
X109800000Y-147052560D01*
X109150000Y-147052560D01*
X108914683Y-147096838D01*
X108698559Y-147235910D01*
X108553569Y-147448110D01*
X108502560Y-147700000D01*
X107497440Y-147700000D01*
X107453162Y-147464683D01*
X107314090Y-147248559D01*
X107101890Y-147103569D01*
X106850000Y-147052560D01*
X106602362Y-147052560D01*
X106317747Y-146767945D01*
X106401441Y-146714090D01*
X106546431Y-146501890D01*
X106597440Y-146250000D01*
X106597440Y-144250000D01*
X106553162Y-144014683D01*
X106414090Y-143798559D01*
X106201890Y-143653569D01*
X105950000Y-143602560D01*
X104150000Y-143602560D01*
X103914683Y-143646838D01*
X103698559Y-143785910D01*
X103553569Y-143998110D01*
X103502560Y-144250000D01*
X100710000Y-144250000D01*
X100710000Y-68984285D01*
X105614760Y-68984285D01*
X105825169Y-69493515D01*
X106214436Y-69883461D01*
X106723298Y-70094759D01*
X107274285Y-70095240D01*
X107783515Y-69884831D01*
X108173461Y-69495564D01*
X108384759Y-68986702D01*
X108385240Y-68435715D01*
X108174831Y-67926485D01*
X107785564Y-67536539D01*
X107276702Y-67325241D01*
X106725715Y-67324760D01*
X106216485Y-67535169D01*
X105826539Y-67924436D01*
X105615241Y-68433298D01*
X105614760Y-68984285D01*
X100710000Y-68984285D01*
X100710000Y-25665167D01*
X101466838Y-25665167D01*
X101608883Y-26008943D01*
X101871673Y-26272192D01*
X102215201Y-26414838D01*
X102229070Y-26414850D01*
X102228838Y-26681167D01*
X102370883Y-27024943D01*
X102633673Y-27288192D01*
X102977201Y-27430838D01*
X103349167Y-27431162D01*
X103692943Y-27289117D01*
X103726118Y-27256000D01*
X107671147Y-27256000D01*
X107535241Y-27583298D01*
X107534760Y-28134285D01*
X107745169Y-28643515D01*
X107885409Y-28784000D01*
X106720000Y-28784000D01*
X106429161Y-28841852D01*
X106182599Y-29006599D01*
X105166599Y-30022599D01*
X105001852Y-30269161D01*
X104944000Y-30560000D01*
X104944000Y-33721537D01*
X104911808Y-33753673D01*
X104769162Y-34097201D01*
X104768838Y-34469167D01*
X104910883Y-34812943D01*
X105173673Y-35076192D01*
X105517201Y-35218838D01*
X105889167Y-35219162D01*
X106232943Y-35077117D01*
X106470000Y-34840473D01*
X106470000Y-44323000D01*
X106470905Y-44327549D01*
X106429161Y-44335852D01*
X106182599Y-44500599D01*
X105166599Y-45516599D01*
X105001852Y-45763161D01*
X104944000Y-46054000D01*
X104944000Y-47523537D01*
X104911808Y-47555673D01*
X104769162Y-47899201D01*
X104768838Y-48271167D01*
X104910883Y-48614943D01*
X105173673Y-48878192D01*
X105517201Y-49020838D01*
X105889167Y-49021162D01*
X106232943Y-48879117D01*
X106496192Y-48616327D01*
X106638838Y-48272799D01*
X106639162Y-47900833D01*
X106497117Y-47557057D01*
X106464000Y-47523882D01*
X106464000Y-46368802D01*
X107034802Y-45798000D01*
X107541190Y-45798000D01*
X107522560Y-45890000D01*
X107522560Y-47390000D01*
X107566838Y-47625317D01*
X107705910Y-47841441D01*
X107918110Y-47986431D01*
X108170000Y-48037440D01*
X109670000Y-48037440D01*
X109905317Y-47993162D01*
X110121441Y-47854090D01*
X110266431Y-47641890D01*
X110306355Y-47444738D01*
X110674436Y-47813461D01*
X111183298Y-48024759D01*
X111734285Y-48025240D01*
X112243515Y-47814831D01*
X112633461Y-47425564D01*
X112729976Y-47193130D01*
X112825169Y-47423515D01*
X113214436Y-47813461D01*
X113723298Y-48024759D01*
X114274285Y-48025240D01*
X114775387Y-47818189D01*
X115124292Y-48167094D01*
X114830833Y-48166838D01*
X114487057Y-48308883D01*
X114223808Y-48571673D01*
X114081162Y-48915201D01*
X114080838Y-49287167D01*
X114222883Y-49630943D01*
X114485673Y-49894192D01*
X114829201Y-50036838D01*
X114876077Y-50036879D01*
X114986599Y-50147401D01*
X115200014Y-50290000D01*
X106500000Y-50290000D01*
X106228295Y-50344046D01*
X105997954Y-50497954D01*
X105844046Y-50728295D01*
X105790000Y-51000000D01*
X105790000Y-63000000D01*
X105844046Y-63271705D01*
X105997954Y-63502046D01*
X106228295Y-63655954D01*
X106500000Y-63710000D01*
X112113505Y-63710000D01*
X111767458Y-64055443D01*
X111365458Y-65023567D01*
X111364543Y-66071834D01*
X111764853Y-67040658D01*
X112505443Y-67782542D01*
X113473567Y-68184542D01*
X114333905Y-68185293D01*
X114032320Y-68486878D01*
X113986833Y-68486838D01*
X113643057Y-68628883D01*
X113379808Y-68891673D01*
X113237162Y-69235201D01*
X113236838Y-69607167D01*
X113378883Y-69950943D01*
X113641673Y-70214192D01*
X113985201Y-70356838D01*
X114357167Y-70357162D01*
X114700943Y-70215117D01*
X114964192Y-69952327D01*
X115106838Y-69608799D01*
X115106879Y-69561923D01*
X116518802Y-68150000D01*
X120232877Y-68150000D01*
X120115241Y-68433298D01*
X120114760Y-68984285D01*
X120325169Y-69493515D01*
X120714436Y-69883461D01*
X120946870Y-69979976D01*
X120716485Y-70075169D01*
X120326539Y-70464436D01*
X120115241Y-70973298D01*
X120114760Y-71524285D01*
X120325169Y-72033515D01*
X120714436Y-72423461D01*
X120946870Y-72519976D01*
X120716485Y-72615169D01*
X120326539Y-73004436D01*
X120115241Y-73513298D01*
X120114760Y-74064285D01*
X120325169Y-74573515D01*
X120714436Y-74963461D01*
X121223298Y-75174759D01*
X121774285Y-75175240D01*
X122283515Y-74964831D01*
X122673461Y-74575564D01*
X122884759Y-74066702D01*
X122885240Y-73515715D01*
X122674831Y-73006485D01*
X122285564Y-72616539D01*
X122053130Y-72520024D01*
X122283515Y-72424831D01*
X122673461Y-72035564D01*
X122684076Y-72010000D01*
X126552559Y-72010000D01*
X126853201Y-72134838D01*
X127225167Y-72135162D01*
X127568943Y-71993117D01*
X127832192Y-71730327D01*
X127974838Y-71386799D01*
X127975162Y-71014833D01*
X127833117Y-70671057D01*
X127570327Y-70407808D01*
X127226799Y-70265162D01*
X126854833Y-70264838D01*
X126511057Y-70406883D01*
X126427795Y-70490000D01*
X122684547Y-70490000D01*
X122674831Y-70466485D01*
X122285564Y-70076539D01*
X122053130Y-69980024D01*
X122283515Y-69884831D01*
X122673461Y-69495564D01*
X122884759Y-68986702D01*
X122885240Y-68435715D01*
X122767185Y-68150000D01*
X125715537Y-68150000D01*
X125747673Y-68182192D01*
X126091201Y-68324838D01*
X126463167Y-68325162D01*
X126806943Y-68183117D01*
X127070192Y-67920327D01*
X127212838Y-67576799D01*
X127213162Y-67204833D01*
X127071117Y-66861057D01*
X126808327Y-66597808D01*
X126464799Y-66455162D01*
X126092833Y-66454838D01*
X125749057Y-66596883D01*
X125715882Y-66630000D01*
X116404681Y-66630000D01*
X116634542Y-66076433D01*
X116635457Y-65028166D01*
X116235147Y-64059342D01*
X115886414Y-63710000D01*
X123500000Y-63710000D01*
X123771705Y-63655954D01*
X124002046Y-63502046D01*
X124155954Y-63271705D01*
X124210000Y-63000000D01*
X124210000Y-51000000D01*
X124155954Y-50728295D01*
X124002046Y-50497954D01*
X123810548Y-50370000D01*
X124953537Y-50370000D01*
X124985673Y-50402192D01*
X125329201Y-50544838D01*
X125701167Y-50545162D01*
X126044943Y-50403117D01*
X126308192Y-50140327D01*
X126450838Y-49796799D01*
X126451002Y-49608000D01*
X126477537Y-49608000D01*
X126509673Y-49640192D01*
X126853201Y-49782838D01*
X127225167Y-49783162D01*
X127568943Y-49641117D01*
X127832192Y-49378327D01*
X127974838Y-49034799D01*
X127974850Y-49021151D01*
X127987167Y-49021162D01*
X128330943Y-48879117D01*
X128594192Y-48616327D01*
X128736838Y-48272799D01*
X128737162Y-47900833D01*
X128595117Y-47557057D01*
X128332327Y-47293808D01*
X127988799Y-47151162D01*
X127616833Y-47150838D01*
X127273057Y-47292883D01*
X127239882Y-47326000D01*
X120294804Y-47326000D01*
X120464759Y-46916702D01*
X120465240Y-46365715D01*
X120254831Y-45856485D01*
X120196448Y-45798000D01*
X120944000Y-45798000D01*
X121234839Y-45740148D01*
X121481401Y-45575401D01*
X122243401Y-44813401D01*
X122408148Y-44566839D01*
X122466000Y-44276000D01*
X122466000Y-40951547D01*
X122742943Y-40837117D01*
X123006192Y-40574327D01*
X123148838Y-40230799D01*
X123149162Y-39858833D01*
X123007117Y-39515057D01*
X122744327Y-39251808D01*
X122400799Y-39109162D01*
X122028833Y-39108838D01*
X121685057Y-39250883D01*
X121479000Y-39456581D01*
X121479000Y-30304000D01*
X123951403Y-30304000D01*
X123960883Y-30326943D01*
X124223673Y-30590192D01*
X124567201Y-30732838D01*
X124939167Y-30733162D01*
X125282943Y-30591117D01*
X125546192Y-30328327D01*
X125688838Y-29984799D01*
X125689162Y-29612833D01*
X125547117Y-29269057D01*
X125284327Y-29005808D01*
X124940799Y-28863162D01*
X124822578Y-28863059D01*
X124790839Y-28841852D01*
X124500000Y-28784000D01*
X120114784Y-28784000D01*
X120253461Y-28645564D01*
X120464759Y-28136702D01*
X120465240Y-27585715D01*
X120254831Y-27076485D01*
X120180476Y-27002000D01*
X120459782Y-27002000D01*
X120500000Y-27010000D01*
X120517000Y-27010000D01*
X120557218Y-27002000D01*
X127239537Y-27002000D01*
X127271673Y-27034192D01*
X127615201Y-27176838D01*
X127987167Y-27177162D01*
X128330943Y-27035117D01*
X128594192Y-26772327D01*
X128736838Y-26428799D01*
X128737162Y-26056833D01*
X128595117Y-25713057D01*
X128332327Y-25449808D01*
X127988799Y-25307162D01*
X127616833Y-25306838D01*
X127273057Y-25448883D01*
X127239882Y-25482000D01*
X121285000Y-25482000D01*
X121285000Y-20274669D01*
X121301441Y-20264090D01*
X121446431Y-20051890D01*
X121497440Y-19800000D01*
X121497440Y-19100000D01*
X121453162Y-18864683D01*
X121314090Y-18648559D01*
X121101890Y-18503569D01*
X121088803Y-18500919D01*
X121301441Y-18364090D01*
X121446431Y-18151890D01*
X121497440Y-17900000D01*
X121497440Y-17200000D01*
X122502560Y-17200000D01*
X122502560Y-17900000D01*
X122546838Y-18135317D01*
X122685910Y-18351441D01*
X122898110Y-18496431D01*
X122911197Y-18499081D01*
X122698559Y-18635910D01*
X122553569Y-18848110D01*
X122502560Y-19100000D01*
X122502560Y-19800000D01*
X122546838Y-20035317D01*
X122685910Y-20251441D01*
X122898110Y-20396431D01*
X123150000Y-20447440D01*
X123800000Y-20447440D01*
X124035317Y-20403162D01*
X124251441Y-20264090D01*
X124396431Y-20051890D01*
X124447440Y-19800000D01*
X124447440Y-19100000D01*
X124403162Y-18864683D01*
X124264090Y-18648559D01*
X124051890Y-18503569D01*
X124038803Y-18500919D01*
X124251441Y-18364090D01*
X124396431Y-18151890D01*
X124447440Y-17900000D01*
X124447440Y-17200000D01*
X124403162Y-16964683D01*
X124264090Y-16748559D01*
X124051890Y-16603569D01*
X123800000Y-16552560D01*
X123150000Y-16552560D01*
X122914683Y-16596838D01*
X122698559Y-16735910D01*
X122553569Y-16948110D01*
X122502560Y-17200000D01*
X121497440Y-17200000D01*
X121453162Y-16964683D01*
X121314090Y-16748559D01*
X121101890Y-16603569D01*
X120850000Y-16552560D01*
X120200000Y-16552560D01*
X119964683Y-16596838D01*
X119748559Y-16735910D01*
X119603569Y-16948110D01*
X119552560Y-17200000D01*
X119552560Y-17900000D01*
X119596838Y-18135317D01*
X119735910Y-18351441D01*
X119948110Y-18496431D01*
X119961197Y-18499081D01*
X119748559Y-18635910D01*
X119603569Y-18848110D01*
X119552560Y-19100000D01*
X119552560Y-19800000D01*
X119596838Y-20035317D01*
X119735910Y-20251441D01*
X119765000Y-20271317D01*
X119765000Y-25482000D01*
X113070000Y-25482000D01*
X112779161Y-25539852D01*
X112532599Y-25704599D01*
X111754547Y-26482651D01*
X111736702Y-26475241D01*
X111185715Y-26474760D01*
X110676485Y-26685169D01*
X110286539Y-27074436D01*
X110190024Y-27306870D01*
X110094831Y-27076485D01*
X109705564Y-26686539D01*
X109196702Y-26475241D01*
X109179019Y-26475226D01*
X109179162Y-26310833D01*
X109037117Y-25967057D01*
X108869770Y-25799417D01*
X108924838Y-25666799D01*
X108925162Y-25294833D01*
X108783117Y-24951057D01*
X108520327Y-24687808D01*
X108176799Y-24545162D01*
X107804833Y-24544838D01*
X107461057Y-24686883D01*
X107427882Y-24720000D01*
X102964463Y-24720000D01*
X102932327Y-24687808D01*
X102588799Y-24545162D01*
X102216833Y-24544838D01*
X101873057Y-24686883D01*
X101609808Y-24949673D01*
X101467162Y-25293201D01*
X101466838Y-25665167D01*
X100710000Y-25665167D01*
X100710000Y-21557135D01*
X101654653Y-22503438D01*
X103173889Y-23134280D01*
X104818894Y-23135716D01*
X106339229Y-22507526D01*
X107503438Y-21345347D01*
X108134280Y-19826111D01*
X108135716Y-18181106D01*
X107507526Y-16660771D01*
X106345347Y-15496562D01*
X104826111Y-14865720D01*
X103181106Y-14864284D01*
X101660771Y-15492474D01*
X100710000Y-16441587D01*
X100710000Y-10814285D01*
X105614760Y-10814285D01*
X105825169Y-11323515D01*
X106214436Y-11713461D01*
X106723298Y-11924759D01*
X107076265Y-11925067D01*
X112024599Y-16873401D01*
X112271161Y-17038148D01*
X112562000Y-17096000D01*
X116372000Y-17096000D01*
X116662839Y-17038148D01*
X116909401Y-16873401D01*
X118718802Y-15064000D01*
X119381367Y-15064000D01*
X119247162Y-15387201D01*
X119246838Y-15759167D01*
X119388883Y-16102943D01*
X119651673Y-16366192D01*
X119995201Y-16508838D01*
X120367167Y-16509162D01*
X120710943Y-16367117D01*
X120744118Y-16334000D01*
X125715537Y-16334000D01*
X125747673Y-16366192D01*
X126091201Y-16508838D01*
X126463167Y-16509162D01*
X126806943Y-16367117D01*
X127070192Y-16104327D01*
X127212838Y-15760799D01*
X127213162Y-15388833D01*
X127071117Y-15045057D01*
X126965290Y-14939046D01*
X127070192Y-14834327D01*
X127212838Y-14490799D01*
X127213162Y-14118833D01*
X127071117Y-13775057D01*
X126808327Y-13511808D01*
X126464799Y-13369162D01*
X126092833Y-13368838D01*
X125749057Y-13510883D01*
X125715882Y-13544000D01*
X118404000Y-13544000D01*
X118113161Y-13601852D01*
X117866599Y-13766599D01*
X116057198Y-15576000D01*
X115850433Y-15576000D01*
X116232542Y-15194557D01*
X116634542Y-14226433D01*
X116635457Y-13178166D01*
X116235147Y-12209342D01*
X115494557Y-11467458D01*
X114526433Y-11065458D01*
X113478166Y-11064543D01*
X112509342Y-11464853D01*
X111767458Y-12205443D01*
X111365458Y-13173567D01*
X111364681Y-14063879D01*
X108306345Y-11005543D01*
X108384759Y-10816702D01*
X108385240Y-10265715D01*
X108174831Y-9756485D01*
X107785564Y-9366539D01*
X107276702Y-9155241D01*
X106725715Y-9154760D01*
X106216485Y-9365169D01*
X105826539Y-9754436D01*
X105615241Y-10263298D01*
X105614760Y-10814285D01*
X100710000Y-10814285D01*
X100710000Y-5734285D01*
X105614760Y-5734285D01*
X105825169Y-6243515D01*
X106214436Y-6633461D01*
X106723298Y-6844759D01*
X107274285Y-6845240D01*
X107783515Y-6634831D01*
X108173461Y-6245564D01*
X108384759Y-5736702D01*
X108384761Y-5734285D01*
X120114760Y-5734285D01*
X120325169Y-6243515D01*
X120714436Y-6633461D01*
X120946870Y-6729976D01*
X120716485Y-6825169D01*
X120326539Y-7214436D01*
X120115241Y-7723298D01*
X120114760Y-8274285D01*
X120325169Y-8783515D01*
X120714436Y-9173461D01*
X120946870Y-9269976D01*
X120716485Y-9365169D01*
X120326539Y-9754436D01*
X120115241Y-10263298D01*
X120114760Y-10814285D01*
X120325169Y-11323515D01*
X120714436Y-11713461D01*
X121223298Y-11924759D01*
X121774285Y-11925240D01*
X122283515Y-11714831D01*
X122673461Y-11325564D01*
X122884759Y-10816702D01*
X122885240Y-10265715D01*
X122674831Y-9756485D01*
X122285564Y-9366539D01*
X122053130Y-9270024D01*
X122283515Y-9174831D01*
X122673461Y-8785564D01*
X122684076Y-8760000D01*
X123240926Y-8760000D01*
X123551201Y-8888838D01*
X123923167Y-8889162D01*
X124266943Y-8747117D01*
X124530192Y-8484327D01*
X124672838Y-8140799D01*
X124673162Y-7768833D01*
X124531117Y-7425057D01*
X124268327Y-7161808D01*
X123924799Y-7019162D01*
X123552833Y-7018838D01*
X123209057Y-7160883D01*
X123129802Y-7240000D01*
X122684547Y-7240000D01*
X122674831Y-7216485D01*
X122285564Y-6826539D01*
X122053130Y-6730024D01*
X122283515Y-6634831D01*
X122673461Y-6245564D01*
X122884759Y-5736702D01*
X122885240Y-5185715D01*
X122674831Y-4676485D01*
X122285564Y-4286539D01*
X121776702Y-4075241D01*
X121225715Y-4074760D01*
X120716485Y-4285169D01*
X120326539Y-4674436D01*
X120115241Y-5183298D01*
X120114760Y-5734285D01*
X108384761Y-5734285D01*
X108385240Y-5185715D01*
X108174831Y-4676485D01*
X107785564Y-4286539D01*
X107276702Y-4075241D01*
X106725715Y-4074760D01*
X106216485Y-4285169D01*
X105826539Y-4674436D01*
X105615241Y-5183298D01*
X105614760Y-5734285D01*
X100710000Y-5734285D01*
X100710000Y-710000D01*
X111863068Y-710000D01*
X111767458Y-805443D01*
G36*
X118740000Y-153687537D02*
X118707808Y-153719673D01*
X118565162Y-154063201D01*
X118564838Y-154435167D01*
X118706883Y-154778943D01*
X118969673Y-155042192D01*
X119313201Y-155184838D01*
X119685167Y-155185162D01*
X120028943Y-155043117D01*
X120292192Y-154780327D01*
X120434838Y-154436799D01*
X120435162Y-154064833D01*
X120293117Y-153721057D01*
X120260000Y-153687882D01*
X120260000Y-152082153D01*
X120469673Y-152292192D01*
X120813201Y-152434838D01*
X121185167Y-152435162D01*
X121528943Y-152293117D01*
X121792192Y-152030327D01*
X121934838Y-151686799D01*
X121935162Y-151314833D01*
X121793117Y-150971057D01*
X121760000Y-150937882D01*
X121760000Y-147082153D01*
X121969673Y-147292192D01*
X122313201Y-147434838D01*
X122490000Y-147434992D01*
X122490000Y-153500000D01*
X122547852Y-153790839D01*
X122712599Y-154037401D01*
X122959161Y-154202148D01*
X123250000Y-154260000D01*
X123564991Y-154260000D01*
X123564838Y-154435167D01*
X123706883Y-154778943D01*
X123740000Y-154812118D01*
X123740000Y-159564991D01*
X123564833Y-159564838D01*
X123536244Y-159576651D01*
X123473401Y-159482599D01*
X123109122Y-159118320D01*
X123109162Y-159072833D01*
X122967117Y-158729057D01*
X122704327Y-158465808D01*
X122360799Y-158323162D01*
X121988833Y-158322838D01*
X121645057Y-158464883D01*
X121381808Y-158727673D01*
X121239162Y-159071201D01*
X121238838Y-159443167D01*
X121380883Y-159786943D01*
X121643673Y-160050192D01*
X121987201Y-160192838D01*
X122034077Y-160192879D01*
X122176000Y-160334802D01*
X122176000Y-162314935D01*
X122064833Y-162314838D01*
X121721057Y-162456883D01*
X121626288Y-162551486D01*
X121537401Y-162462599D01*
X121290839Y-162297852D01*
X121000000Y-162240000D01*
X119908424Y-162240000D01*
X120253461Y-161895564D01*
X120464759Y-161386702D01*
X120465240Y-160835715D01*
X120254831Y-160326485D01*
X119865564Y-159936539D01*
X119356702Y-159725241D01*
X118805715Y-159724760D01*
X118296485Y-159935169D01*
X117906539Y-160324436D01*
X117810024Y-160556870D01*
X117714831Y-160326485D01*
X117325564Y-159936539D01*
X116816702Y-159725241D01*
X116265715Y-159724760D01*
X115978830Y-159843298D01*
X115952148Y-159709161D01*
X115787401Y-159462599D01*
X115698579Y-159373777D01*
X115792192Y-159280327D01*
X115934838Y-158936799D01*
X115935162Y-158564833D01*
X115793117Y-158221057D01*
X115760000Y-158187882D01*
X115760000Y-157332153D01*
X115969673Y-157542192D01*
X116313201Y-157684838D01*
X116685167Y-157685162D01*
X117028943Y-157543117D01*
X117292192Y-157280327D01*
X117434838Y-156936799D01*
X117435162Y-156564833D01*
X117293117Y-156221057D01*
X117260000Y-156187882D01*
X117260000Y-156185009D01*
X117435167Y-156185162D01*
X117778943Y-156043117D01*
X118042192Y-155780327D01*
X118184838Y-155436799D01*
X118185162Y-155064833D01*
X118043117Y-154721057D01*
X118010000Y-154687882D01*
X118010000Y-142185009D01*
X118185167Y-142185162D01*
X118528943Y-142043117D01*
X118740000Y-141832428D01*
X118740000Y-153687537D01*
X118740000Y-153687537D01*
G37*
X118740000Y-153687537D02*
X118707808Y-153719673D01*
X118565162Y-154063201D01*
X118564838Y-154435167D01*
X118706883Y-154778943D01*
X118969673Y-155042192D01*
X119313201Y-155184838D01*
X119685167Y-155185162D01*
X120028943Y-155043117D01*
X120292192Y-154780327D01*
X120434838Y-154436799D01*
X120435162Y-154064833D01*
X120293117Y-153721057D01*
X120260000Y-153687882D01*
X120260000Y-152082153D01*
X120469673Y-152292192D01*
X120813201Y-152434838D01*
X121185167Y-152435162D01*
X121528943Y-152293117D01*
X121792192Y-152030327D01*
X121934838Y-151686799D01*
X121935162Y-151314833D01*
X121793117Y-150971057D01*
X121760000Y-150937882D01*
X121760000Y-147082153D01*
X121969673Y-147292192D01*
X122313201Y-147434838D01*
X122490000Y-147434992D01*
X122490000Y-153500000D01*
X122547852Y-153790839D01*
X122712599Y-154037401D01*
X122959161Y-154202148D01*
X123250000Y-154260000D01*
X123564991Y-154260000D01*
X123564838Y-154435167D01*
X123706883Y-154778943D01*
X123740000Y-154812118D01*
X123740000Y-159564991D01*
X123564833Y-159564838D01*
X123536244Y-159576651D01*
X123473401Y-159482599D01*
X123109122Y-159118320D01*
X123109162Y-159072833D01*
X122967117Y-158729057D01*
X122704327Y-158465808D01*
X122360799Y-158323162D01*
X121988833Y-158322838D01*
X121645057Y-158464883D01*
X121381808Y-158727673D01*
X121239162Y-159071201D01*
X121238838Y-159443167D01*
X121380883Y-159786943D01*
X121643673Y-160050192D01*
X121987201Y-160192838D01*
X122034077Y-160192879D01*
X122176000Y-160334802D01*
X122176000Y-162314935D01*
X122064833Y-162314838D01*
X121721057Y-162456883D01*
X121626288Y-162551486D01*
X121537401Y-162462599D01*
X121290839Y-162297852D01*
X121000000Y-162240000D01*
X119908424Y-162240000D01*
X120253461Y-161895564D01*
X120464759Y-161386702D01*
X120465240Y-160835715D01*
X120254831Y-160326485D01*
X119865564Y-159936539D01*
X119356702Y-159725241D01*
X118805715Y-159724760D01*
X118296485Y-159935169D01*
X117906539Y-160324436D01*
X117810024Y-160556870D01*
X117714831Y-160326485D01*
X117325564Y-159936539D01*
X116816702Y-159725241D01*
X116265715Y-159724760D01*
X115978830Y-159843298D01*
X115952148Y-159709161D01*
X115787401Y-159462599D01*
X115698579Y-159373777D01*
X115792192Y-159280327D01*
X115934838Y-158936799D01*
X115935162Y-158564833D01*
X115793117Y-158221057D01*
X115760000Y-158187882D01*
X115760000Y-157332153D01*
X115969673Y-157542192D01*
X116313201Y-157684838D01*
X116685167Y-157685162D01*
X117028943Y-157543117D01*
X117292192Y-157280327D01*
X117434838Y-156936799D01*
X117435162Y-156564833D01*
X117293117Y-156221057D01*
X117260000Y-156187882D01*
X117260000Y-156185009D01*
X117435167Y-156185162D01*
X117778943Y-156043117D01*
X118042192Y-155780327D01*
X118184838Y-155436799D01*
X118185162Y-155064833D01*
X118043117Y-154721057D01*
X118010000Y-154687882D01*
X118010000Y-142185009D01*
X118185167Y-142185162D01*
X118528943Y-142043117D01*
X118740000Y-141832428D01*
X118740000Y-153687537D01*
M02*
