G04 #@! TF.FileFunction,Copper,L2,Bot,Signal*
%FSLAX46Y46*%
G04 Gerber Fmt 4.6, Leading zero omitted, Abs format (unit mm)*
G04 Created by KiCad (PCBNEW 4.0.4+e1-6308~48~ubuntu14.04.1-stable) date Thu Sep  7 12:23:15 2017*
%MOMM*%
%LPD*%
G01*
G04 APERTURE LIST*
%ADD10C,0.100000*%
%ADD11C,1.500000*%
%ADD12R,1.500000X1.500000*%
%ADD13C,4.000000*%
%ADD14R,4.380000X0.890000*%
%ADD15R,3.600000X1.270000*%
%ADD16R,1.800000X2.000000*%
%ADD17R,2.000000X1.800000*%
%ADD18C,7.000000*%
%ADD19C,0.600000*%
%ADD20C,0.250000*%
%ADD21C,0.254000*%
G04 APERTURE END LIST*
D10*
D11*
X108920000Y-27860000D03*
X111460000Y-27860000D03*
X114000000Y-27860000D03*
X116540000Y-27860000D03*
X119080000Y-27860000D03*
D12*
X108920000Y-46640000D03*
D11*
X111460000Y-46640000D03*
X119080000Y-46640000D03*
X116540000Y-46640000D03*
X114000000Y-46640000D03*
D13*
X114000000Y-65550000D03*
D11*
X107000000Y-73790000D03*
X121500000Y-68710000D03*
X121500000Y-71250000D03*
X121500000Y-73790000D03*
X107000000Y-68710000D03*
D13*
X114000000Y-76950000D03*
D14*
X123040000Y-137570000D03*
X123040000Y-140110000D03*
X123040000Y-142650000D03*
X123040000Y-145190000D03*
X123040000Y-147730000D03*
X123040000Y-150270000D03*
X123040000Y-152810000D03*
X123040000Y-155350000D03*
X123040000Y-157890000D03*
X123040000Y-160430000D03*
X129960000Y-160430000D03*
X129960000Y-157890000D03*
X129960000Y-155350000D03*
X129960000Y-152810000D03*
X129960000Y-137570000D03*
X129960000Y-140110000D03*
X129960000Y-142650000D03*
X129960000Y-145190000D03*
X129960000Y-147730000D03*
X129960000Y-150270000D03*
D13*
X114000000Y-2300000D03*
D11*
X107000000Y-10540000D03*
X121500000Y-5460000D03*
X121500000Y-8000000D03*
X121500000Y-10540000D03*
X107000000Y-5460000D03*
D13*
X114000000Y-13700000D03*
D11*
X108920000Y-161110000D03*
X111460000Y-161110000D03*
X114000000Y-161110000D03*
X116540000Y-161110000D03*
X119080000Y-161110000D03*
D12*
X108920000Y-179890000D03*
D11*
X111460000Y-179890000D03*
X119080000Y-179890000D03*
X116540000Y-179890000D03*
X114000000Y-179890000D03*
D15*
X122710000Y-87430000D03*
X122710000Y-92510000D03*
X122710000Y-97590000D03*
X122710000Y-102670000D03*
X126610000Y-89970000D03*
X126610000Y-95050000D03*
X126610000Y-100130000D03*
X126610000Y-105210000D03*
X102390000Y-87430000D03*
X102390000Y-92510000D03*
X102390000Y-97590000D03*
X102390000Y-102670000D03*
X102390000Y-107750000D03*
X102390000Y-112830000D03*
X102390000Y-117910000D03*
X106290000Y-89970000D03*
X106290000Y-95050000D03*
X106290000Y-100130000D03*
X106290000Y-105210000D03*
X106290000Y-110290000D03*
X106290000Y-115370000D03*
X106290000Y-120450000D03*
X126610000Y-110290000D03*
X122710000Y-107750000D03*
X106290000Y-125530000D03*
X102390000Y-122990000D03*
D16*
X122214000Y-174410000D03*
D17*
X122214000Y-178810000D03*
D16*
X122214000Y-171444000D03*
D17*
X122214000Y-167044000D03*
X115016000Y-182198000D03*
D16*
X110616000Y-182198000D03*
X105704000Y-169920000D03*
D17*
X105704000Y-165520000D03*
D16*
X105704000Y-174410000D03*
D17*
X105704000Y-178810000D03*
X114172000Y-72978000D03*
D16*
X118572000Y-72978000D03*
X110022000Y-73400000D03*
D17*
X110022000Y-69000000D03*
X114172000Y-69422000D03*
D16*
X118572000Y-69422000D03*
D17*
X115016000Y-49102000D03*
D16*
X110616000Y-49102000D03*
X122214000Y-40044000D03*
D17*
X122214000Y-44444000D03*
D16*
X105704000Y-40298000D03*
D17*
X105704000Y-44698000D03*
D16*
X122214000Y-34030000D03*
D17*
X122214000Y-29630000D03*
D16*
X105704000Y-34284000D03*
D17*
X105704000Y-29884000D03*
X114680000Y-6176000D03*
D16*
X119080000Y-6176000D03*
D17*
X114680000Y-9986000D03*
D16*
X119080000Y-9986000D03*
X109768000Y-10154000D03*
D17*
X109768000Y-5754000D03*
X113410000Y-18622000D03*
D16*
X117810000Y-18622000D03*
D18*
X104000000Y-19000000D03*
X129000000Y-4000000D03*
X129000000Y-180000000D03*
D19*
X131250000Y-105250000D03*
X131250000Y-75750000D03*
X126278000Y-14304000D03*
X123738000Y-7954000D03*
X127802000Y-26242000D03*
X127802000Y-48086000D03*
X120525000Y-17550000D03*
X107442000Y-178308000D03*
X124460000Y-181102000D03*
X125730000Y-172974000D03*
X119250000Y-79500000D03*
X123250000Y-79500000D03*
X128000000Y-154000000D03*
X125500000Y-154000000D03*
X127750000Y-162500000D03*
X123250000Y-103750000D03*
X127040000Y-48848000D03*
X127040000Y-71200000D03*
X124968000Y-177292000D03*
X122500000Y-132250000D03*
X106500000Y-150000000D03*
X130250000Y-158000000D03*
X130250000Y-149000000D03*
X122500000Y-100250000D03*
X122500000Y-146500000D03*
X106525000Y-138700000D03*
X126500000Y-155250000D03*
X126250000Y-137750000D03*
X121750000Y-95000000D03*
X121750000Y-136250000D03*
X128475000Y-127450000D03*
X121000000Y-127500000D03*
X106525000Y-127450000D03*
X121000000Y-151500000D03*
X121000000Y-92500000D03*
X128475000Y-116200000D03*
X120250000Y-116250000D03*
X120250000Y-118000000D03*
X106750000Y-117250000D03*
X120250000Y-149250000D03*
X120250000Y-90000000D03*
X129000000Y-104500000D03*
X132000000Y-104500000D03*
X106750000Y-106500000D03*
X132000000Y-147750000D03*
X132000000Y-106500000D03*
X132000000Y-87500000D03*
X125250000Y-96500000D03*
X106500000Y-95000000D03*
X112750000Y-143500000D03*
X112750000Y-95000000D03*
X102500000Y-87500000D03*
X102390000Y-117910000D03*
X128778000Y-161798000D03*
X103124000Y-153924000D03*
X118110000Y-154178000D03*
X123444000Y-159258000D03*
X113500000Y-84000000D03*
X113500000Y-157000000D03*
X113500000Y-142500000D03*
X113500000Y-96500000D03*
X105704000Y-34284000D03*
X124754000Y-29798000D03*
X114250000Y-83250000D03*
X115250000Y-162750000D03*
X122250000Y-163250000D03*
X122250000Y-169750000D03*
X114250000Y-145000000D03*
X114250000Y-98500000D03*
X115000000Y-158750000D03*
X122174000Y-159258000D03*
X123190000Y-173482000D03*
X115000000Y-80250000D03*
X115000000Y-147750000D03*
X115000000Y-101250000D03*
X122214000Y-40044000D03*
X105704000Y-48086000D03*
X115750000Y-81000000D03*
X105250000Y-173000000D03*
X105250000Y-156000000D03*
X115750000Y-155750000D03*
X115750000Y-150250000D03*
X115750000Y-105250000D03*
X116500000Y-81750000D03*
X116500000Y-152750000D03*
X116500000Y-107750000D03*
X108244000Y-26496000D03*
X103164000Y-26496000D03*
X110022000Y-73400000D03*
X103164000Y-72470000D03*
X117250000Y-82500000D03*
X117250000Y-155250000D03*
X117250000Y-108750000D03*
X102402000Y-25480000D03*
X107990000Y-25480000D03*
X114172000Y-72978000D03*
X102402000Y-75518000D03*
X111250000Y-85500000D03*
X111250000Y-157750000D03*
X111250000Y-90000000D03*
X126278000Y-15574000D03*
X120182000Y-15574000D03*
X114172000Y-69422000D03*
X126278000Y-67390000D03*
X112000000Y-84750000D03*
X123750000Y-160500000D03*
X123750000Y-164000000D03*
X112000000Y-159750000D03*
X112000000Y-91250000D03*
X115016000Y-49102000D03*
X125516000Y-49610000D03*
X127500000Y-111500000D03*
X132000000Y-160500000D03*
X132500000Y-130750000D03*
X127250000Y-130750000D03*
X106720000Y-162386000D03*
X121500000Y-167000000D03*
X128778000Y-174752000D03*
X127250000Y-139000000D03*
X127000000Y-164750000D03*
X118750000Y-140000000D03*
X118750000Y-117250000D03*
X128500000Y-164750000D03*
X131750000Y-164750000D03*
X131250000Y-140000000D03*
X118000000Y-141250000D03*
X118000000Y-112750000D03*
X109500000Y-145250000D03*
X112750000Y-145250000D03*
X112750000Y-154750000D03*
X116500000Y-154750000D03*
X116500000Y-156750000D03*
X126500000Y-156750000D03*
X107750000Y-97500000D03*
X130250000Y-159250000D03*
X125730000Y-158496000D03*
X124000000Y-107750000D03*
X119500000Y-123000000D03*
X119500000Y-154250000D03*
X124500000Y-154250000D03*
D20*
X107228000Y-103458000D02*
X107228000Y-103462000D01*
X107226000Y-103460000D02*
X107228000Y-103462000D01*
X131250000Y-75750000D02*
X131250000Y-75500000D01*
X131250000Y-75500000D02*
X127802000Y-72052000D01*
X131210000Y-105210000D02*
X131250000Y-105250000D01*
X131210000Y-105210000D02*
X126610000Y-105210000D01*
X127802000Y-15828000D02*
X127802000Y-17352000D01*
X123738000Y-11764000D02*
X126278000Y-14304000D01*
X126278000Y-14304000D02*
X127802000Y-15828000D01*
X123738000Y-7954000D02*
X123738000Y-11764000D01*
X127802000Y-24718000D02*
X127802000Y-18368000D01*
X127802000Y-18368000D02*
X127802000Y-17352000D01*
X127802000Y-17352000D02*
X127802000Y-17098000D01*
X127802000Y-72052000D02*
X127802000Y-48086000D01*
X127802000Y-48086000D02*
X127802000Y-26242000D01*
X127802000Y-26242000D02*
X127802000Y-24718000D01*
X117810000Y-18622000D02*
X119453000Y-18622000D01*
X119453000Y-18622000D02*
X120525000Y-17550000D01*
X116540000Y-179890000D02*
X116390000Y-179890000D01*
X116390000Y-179890000D02*
X114808000Y-178308000D01*
X114808000Y-178308000D02*
X107442000Y-178308000D01*
X124148002Y-175317998D02*
X124148002Y-174809998D01*
X124148002Y-175317998D02*
X124148002Y-180790002D01*
X124148002Y-180790002D02*
X124460000Y-181102000D01*
X125730000Y-173228000D02*
X125730000Y-172974000D01*
X124148002Y-174809998D02*
X125730000Y-173228000D01*
X108718000Y-78532000D02*
X108718000Y-78718000D01*
X109500000Y-79500000D02*
X119250000Y-79500000D01*
X108718000Y-78718000D02*
X109500000Y-79500000D01*
X123250000Y-79500000D02*
X123250000Y-79308000D01*
X123250000Y-79308000D02*
X127040000Y-75518000D01*
X127040000Y-75518000D02*
X127040000Y-71200000D01*
X107000000Y-73790000D02*
X107000000Y-76814000D01*
X107000000Y-76814000D02*
X108718000Y-78532000D01*
X108718000Y-78532000D02*
X108752000Y-78566000D01*
X125500000Y-154000000D02*
X128000000Y-154000000D01*
X112850000Y-162500000D02*
X111460000Y-161110000D01*
X114500000Y-162500000D02*
X112850000Y-162500000D01*
X115000000Y-162000000D02*
X114500000Y-162500000D01*
X115750000Y-162000000D02*
X115000000Y-162000000D01*
X116250000Y-162500000D02*
X115750000Y-162000000D01*
X127750000Y-162500000D02*
X116250000Y-162500000D01*
X122710000Y-102670000D02*
X122710000Y-103210000D01*
X122710000Y-103210000D02*
X123250000Y-103750000D01*
X122710000Y-102670000D02*
X122580000Y-102670000D01*
X127040000Y-48848000D02*
X127040000Y-49610000D01*
X127040000Y-71200000D02*
X127040000Y-49610000D01*
X127040000Y-49610000D02*
X127040000Y-49356000D01*
X105704000Y-44698000D02*
X105704000Y-45292000D01*
X105704000Y-45292000D02*
X107052000Y-46640000D01*
X107052000Y-46640000D02*
X108920000Y-46640000D01*
X132750000Y-173228000D02*
X132750000Y-173828000D01*
X126746000Y-175514000D02*
X124968000Y-177292000D01*
X131064000Y-175514000D02*
X126746000Y-175514000D01*
X132750000Y-173828000D02*
X131064000Y-175514000D01*
X132750000Y-173228000D02*
X132750000Y-132250000D01*
X132750000Y-132250000D02*
X122500000Y-132250000D01*
X122500000Y-146500000D02*
X110000000Y-146500000D01*
X110000000Y-146500000D02*
X106500000Y-150000000D01*
X127000000Y-148750000D02*
X127000000Y-146500000D01*
X127000000Y-146500000D02*
X125750000Y-146500000D01*
X130250000Y-158000000D02*
X130140000Y-157890000D01*
X130140000Y-157890000D02*
X129960000Y-157890000D01*
X127250000Y-149000000D02*
X130250000Y-149000000D01*
X127000000Y-148750000D02*
X127250000Y-149000000D01*
X122620000Y-100130000D02*
X122500000Y-100250000D01*
X126610000Y-100130000D02*
X122620000Y-100130000D01*
X122500000Y-146500000D02*
X125750000Y-146500000D01*
X110616000Y-49102000D02*
X110616000Y-47484000D01*
X110616000Y-47484000D02*
X111460000Y-46640000D01*
X121750000Y-136250000D02*
X120500000Y-136250000D01*
X118000000Y-138750000D02*
X120500000Y-136250000D01*
X106575000Y-138750000D02*
X118000000Y-138750000D01*
X106575000Y-138750000D02*
X106525000Y-138700000D01*
X126600000Y-155350000D02*
X129960000Y-155350000D01*
X126500000Y-155250000D02*
X126600000Y-155350000D01*
X121750000Y-136250000D02*
X122000000Y-136500000D01*
X126250000Y-136750000D02*
X126250000Y-137750000D01*
X126000000Y-136500000D02*
X126250000Y-136750000D01*
X125000000Y-136500000D02*
X126000000Y-136500000D01*
X122000000Y-136500000D02*
X125000000Y-136500000D01*
X121800000Y-95050000D02*
X121750000Y-95000000D01*
X126610000Y-95050000D02*
X121800000Y-95050000D01*
X119080000Y-46640000D02*
X120358000Y-46640000D01*
X120358000Y-46640000D02*
X122214000Y-44784000D01*
X122214000Y-44784000D02*
X122214000Y-44444000D01*
X120000000Y-127500000D02*
X121000000Y-127500000D01*
X128425000Y-127500000D02*
X128475000Y-127450000D01*
X121000000Y-127500000D02*
X128425000Y-127500000D01*
X106575000Y-127500000D02*
X120000000Y-127500000D01*
X106575000Y-127500000D02*
X106525000Y-127450000D01*
X121000000Y-151500000D02*
X121250000Y-151750000D01*
X121250000Y-151750000D02*
X125250000Y-151750000D01*
X125250000Y-151750000D02*
X126000100Y-152816008D01*
X126000100Y-152816008D02*
X129960000Y-152810000D01*
X122710000Y-92510000D02*
X121010000Y-92510000D01*
X121010000Y-92510000D02*
X121000000Y-92500000D01*
X122710000Y-92510000D02*
X121490000Y-92510000D01*
X105704000Y-178810000D02*
X105704000Y-179150000D01*
X105704000Y-179150000D02*
X106444000Y-179890000D01*
X106444000Y-179890000D02*
X108920000Y-179890000D01*
X120250000Y-116250000D02*
X128425000Y-116250000D01*
X128425000Y-116250000D02*
X128475000Y-116200000D01*
X107500000Y-118000000D02*
X120250000Y-118000000D01*
X106750000Y-117250000D02*
X107500000Y-118000000D01*
X127020000Y-150270000D02*
X129960000Y-150270000D01*
X126000000Y-149250000D02*
X127020000Y-150270000D01*
X120250000Y-149250000D02*
X126000000Y-149250000D01*
X126610000Y-89970000D02*
X120280000Y-89970000D01*
X120280000Y-89970000D02*
X120250000Y-90000000D01*
X110616000Y-182198000D02*
X110616000Y-180734000D01*
X110616000Y-180734000D02*
X111460000Y-179890000D01*
X129000000Y-104500000D02*
X132000000Y-104500000D01*
X106750000Y-106500000D02*
X124750000Y-106500000D01*
X132000000Y-147750000D02*
X131980000Y-147730000D01*
X131980000Y-147730000D02*
X129960000Y-147730000D01*
X132000000Y-106500000D02*
X124750000Y-106500000D01*
X122710000Y-87430000D02*
X131930000Y-87430000D01*
X131930000Y-87430000D02*
X132000000Y-87500000D01*
X119080000Y-179890000D02*
X121134000Y-179890000D01*
X121134000Y-179890000D02*
X122214000Y-178810000D01*
X122214000Y-179106000D02*
X122214000Y-178810000D01*
X125250000Y-96500000D02*
X125000000Y-96250000D01*
X125000000Y-96250000D02*
X114750000Y-96250000D01*
X114750000Y-96250000D02*
X113500000Y-95000000D01*
X113500000Y-95000000D02*
X112750000Y-95000000D01*
X106500000Y-95000000D02*
X106450000Y-95050000D01*
X106450000Y-95050000D02*
X106290000Y-95050000D01*
X127690000Y-145190000D02*
X129960000Y-145190000D01*
X126500000Y-144000000D02*
X127690000Y-145190000D01*
X113250000Y-144000000D02*
X126500000Y-144000000D01*
X112750000Y-143500000D02*
X113250000Y-144000000D01*
X106290000Y-95050000D02*
X112700000Y-95050000D01*
X125222000Y-159258000D02*
X123444000Y-159258000D01*
X102430000Y-87430000D02*
X102500000Y-87500000D01*
X127508000Y-161544000D02*
X125222000Y-159258000D01*
X128524000Y-161544000D02*
X127508000Y-161544000D01*
X128778000Y-161798000D02*
X128524000Y-161544000D01*
X117856000Y-153924000D02*
X103124000Y-153924000D01*
X118110000Y-154178000D02*
X117856000Y-153924000D01*
X102430000Y-87430000D02*
X102390000Y-87430000D01*
X122753000Y-76503000D02*
X122747000Y-76503000D01*
X120750000Y-84000000D02*
X113500000Y-84000000D01*
X120750000Y-78500000D02*
X120750000Y-84000000D01*
X122747000Y-76503000D02*
X120750000Y-78500000D01*
X104000000Y-168216000D02*
X105704000Y-169920000D01*
X104000000Y-157250000D02*
X104000000Y-168216000D01*
X104250000Y-157000000D02*
X104000000Y-157250000D01*
X107750000Y-157000000D02*
X104250000Y-157000000D01*
X113500000Y-157000000D02*
X107750000Y-157000000D01*
X123040000Y-142650000D02*
X113650000Y-142650000D01*
X113650000Y-142650000D02*
X113500000Y-142500000D01*
X102390000Y-97590000D02*
X103910000Y-97590000D01*
X103910000Y-97590000D02*
X105000000Y-96500000D01*
X105000000Y-96500000D02*
X113500000Y-96500000D01*
X122722000Y-76534000D02*
X122753000Y-76503000D01*
X122753000Y-76503000D02*
X124754000Y-74502000D01*
X124754000Y-74502000D02*
X124754000Y-52404000D01*
X124754000Y-29798000D02*
X124754000Y-52404000D01*
X122243000Y-75743000D02*
X122243000Y-75757000D01*
X120000000Y-83250000D02*
X114250000Y-83250000D01*
X120000000Y-78000000D02*
X120000000Y-83250000D01*
X122243000Y-75757000D02*
X120000000Y-78000000D01*
X122214000Y-171444000D02*
X122214000Y-169786000D01*
X115500000Y-163000000D02*
X115250000Y-162750000D01*
X122000000Y-163000000D02*
X115500000Y-163000000D01*
X122250000Y-163250000D02*
X122000000Y-163000000D01*
X122214000Y-169786000D02*
X122250000Y-169750000D01*
X114440000Y-145190000D02*
X123040000Y-145190000D01*
X114250000Y-145000000D02*
X114440000Y-145190000D01*
X106290000Y-100130000D02*
X106290000Y-99960000D01*
X106290000Y-99960000D02*
X107750000Y-98500000D01*
X107750000Y-98500000D02*
X114250000Y-98500000D01*
X123992000Y-35808000D02*
X122214000Y-34030000D01*
X123992000Y-73994000D02*
X123992000Y-35808000D01*
X122214000Y-75772000D02*
X122243000Y-75743000D01*
X122243000Y-75743000D02*
X123992000Y-73994000D01*
X122214000Y-171444000D02*
X122214000Y-171022000D01*
X122214000Y-174410000D02*
X122262000Y-174410000D01*
X122262000Y-174410000D02*
X123190000Y-173482000D01*
X115500000Y-159250000D02*
X115000000Y-158750000D01*
X122174000Y-159258000D02*
X115500000Y-159250000D01*
X107958000Y-79042000D02*
X108042000Y-79042000D01*
X109250000Y-80250000D02*
X115000000Y-80250000D01*
X108042000Y-79042000D02*
X109250000Y-80250000D01*
X122214000Y-174410000D02*
X122340000Y-174410000D01*
X115020000Y-147730000D02*
X123040000Y-147730000D01*
X115000000Y-147750000D02*
X115020000Y-147730000D01*
X102390000Y-102670000D02*
X103830000Y-102670000D01*
X103830000Y-102670000D02*
X105250000Y-101250000D01*
X105250000Y-101250000D02*
X115000000Y-101250000D01*
X105704000Y-48086000D02*
X105704000Y-50880000D01*
X107990000Y-79074000D02*
X107958000Y-79042000D01*
X107958000Y-79042000D02*
X105704000Y-76788000D01*
X105704000Y-76788000D02*
X105704000Y-50880000D01*
X107200000Y-79300000D02*
X107300000Y-79300000D01*
X109000000Y-81000000D02*
X115750000Y-81000000D01*
X107300000Y-79300000D02*
X109000000Y-81000000D01*
X105704000Y-174410000D02*
X105704000Y-173454000D01*
X105704000Y-173454000D02*
X105250000Y-173000000D01*
X105250000Y-156000000D02*
X105500000Y-155750000D01*
X105500000Y-155750000D02*
X115750000Y-155750000D01*
X115770000Y-150270000D02*
X123040000Y-150270000D01*
X115750000Y-150250000D02*
X115770000Y-150270000D01*
X106290000Y-105210000D02*
X115710000Y-105210000D01*
X115710000Y-105210000D02*
X115750000Y-105250000D01*
X103926000Y-42076000D02*
X105704000Y-40298000D01*
X103926000Y-76026000D02*
X103926000Y-42076000D01*
X107228000Y-79328000D02*
X107200000Y-79300000D01*
X107200000Y-79300000D02*
X103926000Y-76026000D01*
X106466000Y-79582000D02*
X106582000Y-79582000D01*
X106466000Y-79582000D02*
X103164000Y-76280000D01*
X103164000Y-72470000D02*
X103164000Y-76280000D01*
X108750000Y-81750000D02*
X116500000Y-81750000D01*
X106582000Y-79582000D02*
X108750000Y-81750000D01*
X116500000Y-152750000D02*
X116560000Y-152810000D01*
X116560000Y-152810000D02*
X123040000Y-152810000D01*
X102390000Y-107750000D02*
X116500000Y-107750000D01*
X113410000Y-21330000D02*
X113410000Y-18622000D01*
X108244000Y-26496000D02*
X113410000Y-21330000D01*
X103164000Y-72470000D02*
X103164000Y-26496000D01*
X105684000Y-79816000D02*
X105816000Y-79816000D01*
X108500000Y-82500000D02*
X117250000Y-82500000D01*
X105816000Y-79816000D02*
X108500000Y-82500000D01*
X117250000Y-155250000D02*
X117350000Y-155350000D01*
X117350000Y-155350000D02*
X123040000Y-155350000D01*
X106290000Y-110290000D02*
X107210000Y-110290000D01*
X107210000Y-110290000D02*
X108750000Y-108750000D01*
X108750000Y-108750000D02*
X117250000Y-108750000D01*
X109768000Y-10154000D02*
X109768000Y-23956000D01*
X108244000Y-25480000D02*
X107990000Y-25480000D01*
X109768000Y-23956000D02*
X108244000Y-25480000D01*
X102402000Y-76534000D02*
X102402000Y-75518000D01*
X102402000Y-75518000D02*
X102402000Y-25480000D01*
X105704000Y-79836000D02*
X105684000Y-79816000D01*
X105684000Y-79816000D02*
X102402000Y-76534000D01*
X123269000Y-78019000D02*
X123231000Y-78019000D01*
X122250000Y-85500000D02*
X111250000Y-85500000D01*
X122250000Y-79000000D02*
X122250000Y-85500000D01*
X123231000Y-78019000D02*
X122250000Y-79000000D01*
X123230000Y-78058000D02*
X123269000Y-78019000D01*
X123269000Y-78019000D02*
X126278000Y-75010000D01*
X126278000Y-75010000D02*
X126278000Y-67390000D01*
X111390000Y-157890000D02*
X123040000Y-157890000D01*
X111250000Y-157750000D02*
X111390000Y-157890000D01*
X106290000Y-89970000D02*
X111220000Y-89970000D01*
X111220000Y-89970000D02*
X111250000Y-90000000D01*
X114680000Y-9986000D02*
X114680000Y-10072000D01*
X114680000Y-10072000D02*
X120182000Y-15574000D01*
X126278000Y-15574000D02*
X126278000Y-17352000D01*
X126278000Y-67390000D02*
X126278000Y-17352000D01*
X124000000Y-173736000D02*
X124000000Y-174196000D01*
X123698000Y-174498000D02*
X123698000Y-182198000D01*
X124000000Y-174196000D02*
X123698000Y-174498000D01*
X123011000Y-77261000D02*
X122989000Y-77261000D01*
X121500000Y-84750000D02*
X112000000Y-84750000D01*
X121500000Y-78750000D02*
X121500000Y-84750000D01*
X122989000Y-77261000D02*
X121500000Y-78750000D01*
X115016000Y-182198000D02*
X123698000Y-182198000D01*
X123750000Y-160500000D02*
X123680000Y-160430000D01*
X124000000Y-164250000D02*
X123750000Y-164000000D01*
X124000000Y-173736000D02*
X124000000Y-164250000D01*
X123680000Y-160430000D02*
X123040000Y-160430000D01*
X120680000Y-160430000D02*
X123040000Y-160430000D01*
X120000000Y-159750000D02*
X112000000Y-159750000D01*
X120680000Y-160430000D02*
X120000000Y-159750000D01*
X121430000Y-160430000D02*
X123040000Y-160430000D01*
X102390000Y-92510000D02*
X103990000Y-92510000D01*
X103990000Y-92510000D02*
X105250000Y-91250000D01*
X105250000Y-91250000D02*
X112000000Y-91250000D01*
X125516000Y-16844000D02*
X125516000Y-15066000D01*
X125516000Y-49102000D02*
X125516000Y-24718000D01*
X125516000Y-49610000D02*
X125516000Y-49102000D01*
X125516000Y-24718000D02*
X125516000Y-16844000D01*
X116712000Y-4144000D02*
X114680000Y-6176000D01*
X122214000Y-4144000D02*
X116712000Y-4144000D01*
X122976000Y-4906000D02*
X122214000Y-4144000D01*
X122976000Y-12526000D02*
X122976000Y-4906000D01*
X125516000Y-15066000D02*
X122976000Y-12526000D01*
X125516000Y-74756000D02*
X125516000Y-49610000D01*
X122976000Y-77296000D02*
X123011000Y-77261000D01*
X123011000Y-77261000D02*
X125516000Y-74756000D01*
X126610000Y-110610000D02*
X127500000Y-111500000D01*
X132000000Y-160500000D02*
X131930000Y-160430000D01*
X127250000Y-130750000D02*
X132500000Y-130750000D01*
X131930000Y-160430000D02*
X129960000Y-160430000D01*
X126610000Y-110290000D02*
X126610000Y-110610000D01*
X119080000Y-6176000D02*
X119080000Y-6008000D01*
X119080000Y-6008000D02*
X119628000Y-5460000D01*
X119628000Y-5460000D02*
X121500000Y-5460000D01*
X121500000Y-10540000D02*
X119634000Y-10540000D01*
X119634000Y-10540000D02*
X119080000Y-9986000D01*
X107000000Y-5460000D02*
X109474000Y-5460000D01*
X109474000Y-5460000D02*
X109768000Y-5754000D01*
X118572000Y-69422000D02*
X118658000Y-69422000D01*
X118658000Y-69422000D02*
X119370000Y-68710000D01*
X119370000Y-68710000D02*
X121500000Y-68710000D01*
X118572000Y-72978000D02*
X118572000Y-73146000D01*
X118572000Y-73146000D02*
X119216000Y-73790000D01*
X119216000Y-73790000D02*
X121500000Y-73790000D01*
X110022000Y-69000000D02*
X107290000Y-69000000D01*
X107290000Y-69000000D02*
X107000000Y-68710000D01*
X108920000Y-27860000D02*
X107642000Y-27860000D01*
X107642000Y-27860000D02*
X105704000Y-29798000D01*
X105704000Y-29798000D02*
X105704000Y-29884000D01*
X119080000Y-27860000D02*
X120530000Y-27860000D01*
X120530000Y-27860000D02*
X122214000Y-29544000D01*
X122214000Y-29544000D02*
X122214000Y-29630000D01*
X105704000Y-165520000D02*
X105704000Y-165180000D01*
X105704000Y-165180000D02*
X106720000Y-164164000D01*
X106720000Y-164164000D02*
X106720000Y-162386000D01*
X121500000Y-167000000D02*
X121544000Y-167044000D01*
X121544000Y-167044000D02*
X122214000Y-167044000D01*
X128826000Y-174704000D02*
X128826000Y-166576000D01*
X128778000Y-174752000D02*
X128826000Y-174704000D01*
X123040000Y-138790000D02*
X123040000Y-137570000D01*
X123250000Y-139000000D02*
X123040000Y-138790000D01*
X127250000Y-139000000D02*
X123250000Y-139000000D01*
X128826000Y-166576000D02*
X127250000Y-165000000D01*
X127000000Y-164750000D02*
X127250000Y-165000000D01*
X118860000Y-140110000D02*
X123040000Y-140110000D01*
X118750000Y-140000000D02*
X118860000Y-140110000D01*
X106290000Y-115370000D02*
X107370000Y-115370000D01*
X107370000Y-115370000D02*
X109250000Y-117250000D01*
X109250000Y-117250000D02*
X118750000Y-117250000D01*
X106290000Y-115370000D02*
X106380000Y-115370000D01*
X128500000Y-164750000D02*
X131750000Y-164750000D01*
X131250000Y-140000000D02*
X131140000Y-140110000D01*
X131140000Y-140110000D02*
X129960000Y-140110000D01*
X126650000Y-142650000D02*
X129960000Y-142650000D01*
X125750000Y-141750000D02*
X126650000Y-142650000D01*
X118500000Y-141750000D02*
X125750000Y-141750000D01*
X118000000Y-141250000D02*
X118500000Y-141750000D01*
X102390000Y-112830000D02*
X117920000Y-112830000D01*
X117920000Y-112830000D02*
X118000000Y-112750000D01*
X112750000Y-145250000D02*
X109500000Y-145250000D01*
X116500000Y-154750000D02*
X112750000Y-154750000D01*
X126500000Y-156750000D02*
X116500000Y-156750000D01*
X122710000Y-97590000D02*
X107840000Y-97590000D01*
X107840000Y-97590000D02*
X107750000Y-97500000D01*
X122710000Y-97590000D02*
X121910000Y-97590000D01*
X125730000Y-158496000D02*
X126746000Y-158496000D01*
X127500000Y-159250000D02*
X130250000Y-159250000D01*
X126746000Y-158496000D02*
X127500000Y-159250000D01*
X124000000Y-107750000D02*
X122710000Y-107750000D01*
X119490000Y-122990000D02*
X102390000Y-122990000D01*
X119490000Y-122990000D02*
X119500000Y-123000000D01*
X124500000Y-154250000D02*
X119500000Y-154250000D01*
D21*
G36*
X126962599Y-159787401D02*
X127138741Y-159905095D01*
X127122560Y-159985000D01*
X127122560Y-160875000D01*
X127166838Y-161110317D01*
X127305910Y-161326441D01*
X127518110Y-161471431D01*
X127770000Y-161522440D01*
X131990000Y-161522440D01*
X131990000Y-163837253D01*
X131936799Y-163815162D01*
X131564833Y-163814838D01*
X131221057Y-163956883D01*
X131187882Y-163990000D01*
X129062463Y-163990000D01*
X129030327Y-163957808D01*
X128686799Y-163815162D01*
X128314833Y-163814838D01*
X127971057Y-163956883D01*
X127749845Y-164177709D01*
X127530327Y-163957808D01*
X127186799Y-163815162D01*
X126814833Y-163814838D01*
X126471057Y-163956883D01*
X126207808Y-164219673D01*
X126065162Y-164563201D01*
X126064838Y-164935167D01*
X126206883Y-165278943D01*
X126469673Y-165542192D01*
X126813201Y-165684838D01*
X126860077Y-165684879D01*
X128066000Y-166890802D01*
X128066000Y-174141621D01*
X127985808Y-174221673D01*
X127843162Y-174565201D01*
X127842998Y-174754000D01*
X126746000Y-174754000D01*
X126455161Y-174811852D01*
X126208599Y-174976599D01*
X124908002Y-176277196D01*
X124908002Y-175124800D01*
X126267401Y-173765401D01*
X126280900Y-173745198D01*
X126522192Y-173504327D01*
X126664838Y-173160799D01*
X126665162Y-172788833D01*
X126523117Y-172445057D01*
X126260327Y-172181808D01*
X125916799Y-172039162D01*
X125544833Y-172038838D01*
X125201057Y-172180883D01*
X124937808Y-172443673D01*
X124795162Y-172787201D01*
X124794900Y-173088298D01*
X124760000Y-173123198D01*
X124760000Y-164250000D01*
X124712261Y-164010000D01*
X124702148Y-163959160D01*
X124685059Y-163933584D01*
X124685162Y-163814833D01*
X124543117Y-163471057D01*
X124332428Y-163260000D01*
X127187537Y-163260000D01*
X127219673Y-163292192D01*
X127563201Y-163434838D01*
X127935167Y-163435162D01*
X128278943Y-163293117D01*
X128542192Y-163030327D01*
X128684838Y-162686799D01*
X128685162Y-162314833D01*
X128543117Y-161971057D01*
X128280327Y-161707808D01*
X127936799Y-161565162D01*
X127564833Y-161564838D01*
X127221057Y-161706883D01*
X127187882Y-161740000D01*
X120318057Y-161740000D01*
X120464759Y-161386702D01*
X120464765Y-161380320D01*
X120598110Y-161471431D01*
X120850000Y-161522440D01*
X125230000Y-161522440D01*
X125465317Y-161478162D01*
X125681441Y-161339090D01*
X125826431Y-161126890D01*
X125877440Y-160875000D01*
X125877440Y-159985000D01*
X125833162Y-159749683D01*
X125694090Y-159533559D01*
X125543753Y-159430838D01*
X125915167Y-159431162D01*
X126258943Y-159289117D01*
X126292118Y-159256000D01*
X126431198Y-159256000D01*
X126962599Y-159787401D01*
X126962599Y-159787401D01*
G37*
X126962599Y-159787401D02*
X127138741Y-159905095D01*
X127122560Y-159985000D01*
X127122560Y-160875000D01*
X127166838Y-161110317D01*
X127305910Y-161326441D01*
X127518110Y-161471431D01*
X127770000Y-161522440D01*
X131990000Y-161522440D01*
X131990000Y-163837253D01*
X131936799Y-163815162D01*
X131564833Y-163814838D01*
X131221057Y-163956883D01*
X131187882Y-163990000D01*
X129062463Y-163990000D01*
X129030327Y-163957808D01*
X128686799Y-163815162D01*
X128314833Y-163814838D01*
X127971057Y-163956883D01*
X127749845Y-164177709D01*
X127530327Y-163957808D01*
X127186799Y-163815162D01*
X126814833Y-163814838D01*
X126471057Y-163956883D01*
X126207808Y-164219673D01*
X126065162Y-164563201D01*
X126064838Y-164935167D01*
X126206883Y-165278943D01*
X126469673Y-165542192D01*
X126813201Y-165684838D01*
X126860077Y-165684879D01*
X128066000Y-166890802D01*
X128066000Y-174141621D01*
X127985808Y-174221673D01*
X127843162Y-174565201D01*
X127842998Y-174754000D01*
X126746000Y-174754000D01*
X126455161Y-174811852D01*
X126208599Y-174976599D01*
X124908002Y-176277196D01*
X124908002Y-175124800D01*
X126267401Y-173765401D01*
X126280900Y-173745198D01*
X126522192Y-173504327D01*
X126664838Y-173160799D01*
X126665162Y-172788833D01*
X126523117Y-172445057D01*
X126260327Y-172181808D01*
X125916799Y-172039162D01*
X125544833Y-172038838D01*
X125201057Y-172180883D01*
X124937808Y-172443673D01*
X124795162Y-172787201D01*
X124794900Y-173088298D01*
X124760000Y-173123198D01*
X124760000Y-164250000D01*
X124712261Y-164010000D01*
X124702148Y-163959160D01*
X124685059Y-163933584D01*
X124685162Y-163814833D01*
X124543117Y-163471057D01*
X124332428Y-163260000D01*
X127187537Y-163260000D01*
X127219673Y-163292192D01*
X127563201Y-163434838D01*
X127935167Y-163435162D01*
X128278943Y-163293117D01*
X128542192Y-163030327D01*
X128684838Y-162686799D01*
X128685162Y-162314833D01*
X128543117Y-161971057D01*
X128280327Y-161707808D01*
X127936799Y-161565162D01*
X127564833Y-161564838D01*
X127221057Y-161706883D01*
X127187882Y-161740000D01*
X120318057Y-161740000D01*
X120464759Y-161386702D01*
X120464765Y-161380320D01*
X120598110Y-161471431D01*
X120850000Y-161522440D01*
X125230000Y-161522440D01*
X125465317Y-161478162D01*
X125681441Y-161339090D01*
X125826431Y-161126890D01*
X125877440Y-160875000D01*
X125877440Y-159985000D01*
X125833162Y-159749683D01*
X125694090Y-159533559D01*
X125543753Y-159430838D01*
X125915167Y-159431162D01*
X126258943Y-159289117D01*
X126292118Y-159256000D01*
X126431198Y-159256000D01*
X126962599Y-159787401D01*
G36*
X120262560Y-108385000D02*
X120306838Y-108620317D01*
X120445910Y-108836441D01*
X120658110Y-108981431D01*
X120910000Y-109032440D01*
X124510000Y-109032440D01*
X124745317Y-108988162D01*
X124961441Y-108849090D01*
X125106431Y-108636890D01*
X125157440Y-108385000D01*
X125157440Y-107260000D01*
X131437537Y-107260000D01*
X131469673Y-107292192D01*
X131813201Y-107434838D01*
X132185167Y-107435162D01*
X132290000Y-107391846D01*
X132290000Y-129825099D01*
X131971057Y-129956883D01*
X131937882Y-129990000D01*
X127812463Y-129990000D01*
X127780327Y-129957808D01*
X127436799Y-129815162D01*
X127064833Y-129814838D01*
X126721057Y-129956883D01*
X126457808Y-130219673D01*
X126315162Y-130563201D01*
X126314838Y-130935167D01*
X126456883Y-131278943D01*
X126667572Y-131490000D01*
X123062463Y-131490000D01*
X123030327Y-131457808D01*
X122686799Y-131315162D01*
X122314833Y-131314838D01*
X121971057Y-131456883D01*
X121707808Y-131719673D01*
X121565162Y-132063201D01*
X121564838Y-132435167D01*
X121706883Y-132778943D01*
X121969673Y-133042192D01*
X122313201Y-133184838D01*
X122685167Y-133185162D01*
X123028943Y-133043117D01*
X123062118Y-133010000D01*
X131990000Y-133010000D01*
X131990000Y-136490000D01*
X130245750Y-136490000D01*
X130087000Y-136648750D01*
X130087000Y-137443000D01*
X130107000Y-137443000D01*
X130107000Y-137697000D01*
X130087000Y-137697000D01*
X130087000Y-138491250D01*
X130245750Y-138650000D01*
X131990000Y-138650000D01*
X131990000Y-139017560D01*
X128184985Y-139017560D01*
X128185162Y-138814833D01*
X128117055Y-138650000D01*
X129674250Y-138650000D01*
X129833000Y-138491250D01*
X129833000Y-137697000D01*
X129813000Y-137697000D01*
X129813000Y-137443000D01*
X129833000Y-137443000D01*
X129833000Y-136648750D01*
X129674250Y-136490000D01*
X127643690Y-136490000D01*
X127410301Y-136586673D01*
X127231673Y-136765302D01*
X127135000Y-136998691D01*
X127135000Y-137284250D01*
X127293748Y-137442998D01*
X127135000Y-137442998D01*
X127135000Y-137443431D01*
X127043117Y-137221057D01*
X127010000Y-137187882D01*
X127010000Y-136750000D01*
X126964615Y-136521838D01*
X126952148Y-136459160D01*
X126787401Y-136212599D01*
X126537401Y-135962599D01*
X126290839Y-135797852D01*
X126000000Y-135740000D01*
X122550944Y-135740000D01*
X122543117Y-135721057D01*
X122280327Y-135457808D01*
X121936799Y-135315162D01*
X121564833Y-135314838D01*
X121221057Y-135456883D01*
X121187882Y-135490000D01*
X120500000Y-135490000D01*
X120209161Y-135547852D01*
X119962599Y-135712599D01*
X117685198Y-137990000D01*
X107137376Y-137990000D01*
X107055327Y-137907808D01*
X106711799Y-137765162D01*
X106339833Y-137764838D01*
X105996057Y-137906883D01*
X105732808Y-138169673D01*
X105590162Y-138513201D01*
X105589838Y-138885167D01*
X105731883Y-139228943D01*
X105994673Y-139492192D01*
X106338201Y-139634838D01*
X106710167Y-139635162D01*
X107013083Y-139510000D01*
X117941063Y-139510000D01*
X117815162Y-139813201D01*
X117814838Y-140185167D01*
X117868436Y-140314885D01*
X117814833Y-140314838D01*
X117471057Y-140456883D01*
X117207808Y-140719673D01*
X117065162Y-141063201D01*
X117064838Y-141435167D01*
X117206883Y-141778943D01*
X117317746Y-141890000D01*
X114212201Y-141890000D01*
X114030327Y-141707808D01*
X113686799Y-141565162D01*
X113314833Y-141564838D01*
X112971057Y-141706883D01*
X112707808Y-141969673D01*
X112565162Y-142313201D01*
X112564943Y-142564838D01*
X112221057Y-142706883D01*
X111957808Y-142969673D01*
X111815162Y-143313201D01*
X111814838Y-143685167D01*
X111956883Y-144028943D01*
X112219673Y-144292192D01*
X112419162Y-144375028D01*
X112221057Y-144456883D01*
X112187882Y-144490000D01*
X110062463Y-144490000D01*
X110030327Y-144457808D01*
X109686799Y-144315162D01*
X109314833Y-144314838D01*
X108971057Y-144456883D01*
X108707808Y-144719673D01*
X108565162Y-145063201D01*
X108564838Y-145435167D01*
X108706883Y-145778943D01*
X108969673Y-146042192D01*
X109261732Y-146163466D01*
X106360320Y-149064878D01*
X106314833Y-149064838D01*
X105971057Y-149206883D01*
X105707808Y-149469673D01*
X105565162Y-149813201D01*
X105564838Y-150185167D01*
X105706883Y-150528943D01*
X105969673Y-150792192D01*
X106313201Y-150934838D01*
X106685167Y-150935162D01*
X107028943Y-150793117D01*
X107292192Y-150530327D01*
X107434838Y-150186799D01*
X107434879Y-150139923D01*
X110314802Y-147260000D01*
X114191063Y-147260000D01*
X114065162Y-147563201D01*
X114064838Y-147935167D01*
X114206883Y-148278943D01*
X114469673Y-148542192D01*
X114813201Y-148684838D01*
X115185167Y-148685162D01*
X115528943Y-148543117D01*
X115582153Y-148490000D01*
X119687882Y-148490000D01*
X119457808Y-148719673D01*
X119315162Y-149063201D01*
X119314838Y-149435167D01*
X119345758Y-149510000D01*
X116332428Y-149510000D01*
X116280327Y-149457808D01*
X115936799Y-149315162D01*
X115564833Y-149314838D01*
X115221057Y-149456883D01*
X114957808Y-149719673D01*
X114815162Y-150063201D01*
X114814838Y-150435167D01*
X114956883Y-150778943D01*
X115219673Y-151042192D01*
X115563201Y-151184838D01*
X115935167Y-151185162D01*
X116278943Y-151043117D01*
X116292083Y-151030000D01*
X120182758Y-151030000D01*
X120065162Y-151313201D01*
X120064838Y-151685167D01*
X120206883Y-152028943D01*
X120227903Y-152050000D01*
X117122358Y-152050000D01*
X117030327Y-151957808D01*
X116686799Y-151815162D01*
X116314833Y-151814838D01*
X115971057Y-151956883D01*
X115707808Y-152219673D01*
X115565162Y-152563201D01*
X115564838Y-152935167D01*
X115706883Y-153278943D01*
X115969673Y-153542192D01*
X116313201Y-153684838D01*
X116685167Y-153685162D01*
X116963881Y-153570000D01*
X118857742Y-153570000D01*
X118707808Y-153719673D01*
X118565162Y-154063201D01*
X118564838Y-154435167D01*
X118628814Y-154590000D01*
X117912289Y-154590000D01*
X117780327Y-154457808D01*
X117436799Y-154315162D01*
X117331963Y-154315071D01*
X117293117Y-154221057D01*
X117030327Y-153957808D01*
X116686799Y-153815162D01*
X116314833Y-153814838D01*
X115971057Y-153956883D01*
X115937882Y-153990000D01*
X113312463Y-153990000D01*
X113280327Y-153957808D01*
X112936799Y-153815162D01*
X112564833Y-153814838D01*
X112221057Y-153956883D01*
X111957808Y-154219673D01*
X111815162Y-154563201D01*
X111814838Y-154935167D01*
X111837494Y-154990000D01*
X105500000Y-154990000D01*
X105209160Y-155047852D01*
X105183584Y-155064941D01*
X105064833Y-155064838D01*
X104721057Y-155206883D01*
X104457808Y-155469673D01*
X104315162Y-155813201D01*
X104314838Y-156185167D01*
X104337494Y-156240000D01*
X104250000Y-156240000D01*
X103959160Y-156297852D01*
X103712599Y-156462599D01*
X103462599Y-156712599D01*
X103297852Y-156959161D01*
X103240000Y-157250000D01*
X103240000Y-168216000D01*
X103297852Y-168506839D01*
X103462599Y-168753401D01*
X103499198Y-168790000D01*
X100710000Y-168790000D01*
X100710000Y-124895000D01*
X103842560Y-124895000D01*
X103842560Y-126165000D01*
X103886838Y-126400317D01*
X104025910Y-126616441D01*
X104238110Y-126761431D01*
X104490000Y-126812440D01*
X105840228Y-126812440D01*
X105732808Y-126919673D01*
X105590162Y-127263201D01*
X105589838Y-127635167D01*
X105731883Y-127978943D01*
X105994673Y-128242192D01*
X106338201Y-128384838D01*
X106710167Y-128385162D01*
X107013083Y-128260000D01*
X120437537Y-128260000D01*
X120469673Y-128292192D01*
X120813201Y-128434838D01*
X121185167Y-128435162D01*
X121528943Y-128293117D01*
X121562118Y-128260000D01*
X127987559Y-128260000D01*
X128288201Y-128384838D01*
X128660167Y-128385162D01*
X129003943Y-128243117D01*
X129267192Y-127980327D01*
X129409838Y-127636799D01*
X129410162Y-127264833D01*
X129268117Y-126921057D01*
X129005327Y-126657808D01*
X128661799Y-126515162D01*
X128289833Y-126514838D01*
X127946057Y-126656883D01*
X127862795Y-126740000D01*
X121562463Y-126740000D01*
X121530327Y-126707808D01*
X121186799Y-126565162D01*
X120814833Y-126564838D01*
X120471057Y-126706883D01*
X120437882Y-126740000D01*
X108369082Y-126740000D01*
X108541441Y-126629090D01*
X108686431Y-126416890D01*
X108737440Y-126165000D01*
X108737440Y-124895000D01*
X108693162Y-124659683D01*
X108554090Y-124443559D01*
X108341890Y-124298569D01*
X108090000Y-124247560D01*
X104490000Y-124247560D01*
X104254683Y-124291838D01*
X104038559Y-124430910D01*
X103893569Y-124643110D01*
X103842560Y-124895000D01*
X100710000Y-124895000D01*
X100710000Y-124272440D01*
X104190000Y-124272440D01*
X104425317Y-124228162D01*
X104641441Y-124089090D01*
X104786431Y-123876890D01*
X104812127Y-123750000D01*
X118927555Y-123750000D01*
X118969673Y-123792192D01*
X119313201Y-123934838D01*
X119685167Y-123935162D01*
X120028943Y-123793117D01*
X120292192Y-123530327D01*
X120434838Y-123186799D01*
X120435162Y-122814833D01*
X120293117Y-122471057D01*
X120030327Y-122207808D01*
X119686799Y-122065162D01*
X119314833Y-122064838D01*
X118971057Y-122206883D01*
X118947900Y-122230000D01*
X104813920Y-122230000D01*
X104793162Y-122119683D01*
X104654090Y-121903559D01*
X104441890Y-121758569D01*
X104190000Y-121707560D01*
X100710000Y-121707560D01*
X100710000Y-119815000D01*
X103842560Y-119815000D01*
X103842560Y-121085000D01*
X103886838Y-121320317D01*
X104025910Y-121536441D01*
X104238110Y-121681431D01*
X104490000Y-121732440D01*
X108090000Y-121732440D01*
X108325317Y-121688162D01*
X108541441Y-121549090D01*
X108686431Y-121336890D01*
X108737440Y-121085000D01*
X108737440Y-119815000D01*
X108693162Y-119579683D01*
X108554090Y-119363559D01*
X108341890Y-119218569D01*
X108090000Y-119167560D01*
X104490000Y-119167560D01*
X104254683Y-119211838D01*
X104038559Y-119350910D01*
X103893569Y-119563110D01*
X103842560Y-119815000D01*
X100710000Y-119815000D01*
X100710000Y-119180000D01*
X102104250Y-119180000D01*
X102263000Y-119021250D01*
X102263000Y-118037000D01*
X102517000Y-118037000D01*
X102517000Y-119021250D01*
X102675750Y-119180000D01*
X104316309Y-119180000D01*
X104549698Y-119083327D01*
X104728327Y-118904699D01*
X104825000Y-118671310D01*
X104825000Y-118195750D01*
X104666250Y-118037000D01*
X102517000Y-118037000D01*
X102263000Y-118037000D01*
X102243000Y-118037000D01*
X102243000Y-117783000D01*
X102263000Y-117783000D01*
X102263000Y-116798750D01*
X102517000Y-116798750D01*
X102517000Y-117783000D01*
X104666250Y-117783000D01*
X104825000Y-117624250D01*
X104825000Y-117148690D01*
X104728327Y-116915301D01*
X104549698Y-116736673D01*
X104316309Y-116640000D01*
X102675750Y-116640000D01*
X102517000Y-116798750D01*
X102263000Y-116798750D01*
X102104250Y-116640000D01*
X100710000Y-116640000D01*
X100710000Y-114735000D01*
X103842560Y-114735000D01*
X103842560Y-116005000D01*
X103886838Y-116240317D01*
X104025910Y-116456441D01*
X104238110Y-116601431D01*
X104490000Y-116652440D01*
X106025158Y-116652440D01*
X105957808Y-116719673D01*
X105815162Y-117063201D01*
X105814838Y-117435167D01*
X105956883Y-117778943D01*
X106219673Y-118042192D01*
X106563201Y-118184838D01*
X106610077Y-118184879D01*
X106962599Y-118537401D01*
X107209160Y-118702148D01*
X107500000Y-118760000D01*
X119687537Y-118760000D01*
X119719673Y-118792192D01*
X120063201Y-118934838D01*
X120435167Y-118935162D01*
X120778943Y-118793117D01*
X121042192Y-118530327D01*
X121184838Y-118186799D01*
X121185162Y-117814833D01*
X121043117Y-117471057D01*
X120780327Y-117207808D01*
X120580838Y-117124972D01*
X120778943Y-117043117D01*
X120812118Y-117010000D01*
X127987559Y-117010000D01*
X128288201Y-117134838D01*
X128660167Y-117135162D01*
X129003943Y-116993117D01*
X129267192Y-116730327D01*
X129409838Y-116386799D01*
X129410162Y-116014833D01*
X129268117Y-115671057D01*
X129005327Y-115407808D01*
X128661799Y-115265162D01*
X128289833Y-115264838D01*
X127946057Y-115406883D01*
X127862795Y-115490000D01*
X120812463Y-115490000D01*
X120780327Y-115457808D01*
X120436799Y-115315162D01*
X120064833Y-115314838D01*
X119721057Y-115456883D01*
X119457808Y-115719673D01*
X119315162Y-116063201D01*
X119314838Y-116435167D01*
X119355173Y-116532784D01*
X119280327Y-116457808D01*
X118936799Y-116315162D01*
X118564833Y-116314838D01*
X118221057Y-116456883D01*
X118187882Y-116490000D01*
X109564803Y-116490000D01*
X108737440Y-115662638D01*
X108737440Y-114735000D01*
X108693162Y-114499683D01*
X108554090Y-114283559D01*
X108341890Y-114138569D01*
X108090000Y-114087560D01*
X104490000Y-114087560D01*
X104254683Y-114131838D01*
X104038559Y-114270910D01*
X103893569Y-114483110D01*
X103842560Y-114735000D01*
X100710000Y-114735000D01*
X100710000Y-114112440D01*
X104190000Y-114112440D01*
X104425317Y-114068162D01*
X104641441Y-113929090D01*
X104786431Y-113716890D01*
X104812127Y-113590000D01*
X117584807Y-113590000D01*
X117813201Y-113684838D01*
X118185167Y-113685162D01*
X118528943Y-113543117D01*
X118792192Y-113280327D01*
X118934838Y-112936799D01*
X118935162Y-112564833D01*
X118793117Y-112221057D01*
X118530327Y-111957808D01*
X118186799Y-111815162D01*
X117814833Y-111814838D01*
X117471057Y-111956883D01*
X117357742Y-112070000D01*
X104813920Y-112070000D01*
X104793162Y-111959683D01*
X104654090Y-111743559D01*
X104441890Y-111598569D01*
X104190000Y-111547560D01*
X100710000Y-111547560D01*
X100710000Y-109032440D01*
X104190000Y-109032440D01*
X104425317Y-108988162D01*
X104641441Y-108849090D01*
X104786431Y-108636890D01*
X104812127Y-108510000D01*
X107915198Y-108510000D01*
X107417638Y-109007560D01*
X104490000Y-109007560D01*
X104254683Y-109051838D01*
X104038559Y-109190910D01*
X103893569Y-109403110D01*
X103842560Y-109655000D01*
X103842560Y-110925000D01*
X103886838Y-111160317D01*
X104025910Y-111376441D01*
X104238110Y-111521431D01*
X104490000Y-111572440D01*
X108090000Y-111572440D01*
X108325317Y-111528162D01*
X108541441Y-111389090D01*
X108686431Y-111176890D01*
X108737440Y-110925000D01*
X108737440Y-109837362D01*
X109064802Y-109510000D01*
X116687537Y-109510000D01*
X116719673Y-109542192D01*
X117063201Y-109684838D01*
X117435167Y-109685162D01*
X117508164Y-109655000D01*
X124162560Y-109655000D01*
X124162560Y-110925000D01*
X124206838Y-111160317D01*
X124345910Y-111376441D01*
X124558110Y-111521431D01*
X124810000Y-111572440D01*
X126497638Y-111572440D01*
X126564878Y-111639680D01*
X126564838Y-111685167D01*
X126706883Y-112028943D01*
X126969673Y-112292192D01*
X127313201Y-112434838D01*
X127685167Y-112435162D01*
X128028943Y-112293117D01*
X128292192Y-112030327D01*
X128434838Y-111686799D01*
X128434942Y-111567747D01*
X128645317Y-111528162D01*
X128861441Y-111389090D01*
X129006431Y-111176890D01*
X129057440Y-110925000D01*
X129057440Y-109655000D01*
X129013162Y-109419683D01*
X128874090Y-109203559D01*
X128661890Y-109058569D01*
X128410000Y-109007560D01*
X124810000Y-109007560D01*
X124574683Y-109051838D01*
X124358559Y-109190910D01*
X124213569Y-109403110D01*
X124162560Y-109655000D01*
X117508164Y-109655000D01*
X117778943Y-109543117D01*
X118042192Y-109280327D01*
X118184838Y-108936799D01*
X118185162Y-108564833D01*
X118043117Y-108221057D01*
X117780327Y-107957808D01*
X117436799Y-107815162D01*
X117434944Y-107815160D01*
X117435162Y-107564833D01*
X117309208Y-107260000D01*
X120262560Y-107260000D01*
X120262560Y-108385000D01*
X120262560Y-108385000D01*
G37*
X120262560Y-108385000D02*
X120306838Y-108620317D01*
X120445910Y-108836441D01*
X120658110Y-108981431D01*
X120910000Y-109032440D01*
X124510000Y-109032440D01*
X124745317Y-108988162D01*
X124961441Y-108849090D01*
X125106431Y-108636890D01*
X125157440Y-108385000D01*
X125157440Y-107260000D01*
X131437537Y-107260000D01*
X131469673Y-107292192D01*
X131813201Y-107434838D01*
X132185167Y-107435162D01*
X132290000Y-107391846D01*
X132290000Y-129825099D01*
X131971057Y-129956883D01*
X131937882Y-129990000D01*
X127812463Y-129990000D01*
X127780327Y-129957808D01*
X127436799Y-129815162D01*
X127064833Y-129814838D01*
X126721057Y-129956883D01*
X126457808Y-130219673D01*
X126315162Y-130563201D01*
X126314838Y-130935167D01*
X126456883Y-131278943D01*
X126667572Y-131490000D01*
X123062463Y-131490000D01*
X123030327Y-131457808D01*
X122686799Y-131315162D01*
X122314833Y-131314838D01*
X121971057Y-131456883D01*
X121707808Y-131719673D01*
X121565162Y-132063201D01*
X121564838Y-132435167D01*
X121706883Y-132778943D01*
X121969673Y-133042192D01*
X122313201Y-133184838D01*
X122685167Y-133185162D01*
X123028943Y-133043117D01*
X123062118Y-133010000D01*
X131990000Y-133010000D01*
X131990000Y-136490000D01*
X130245750Y-136490000D01*
X130087000Y-136648750D01*
X130087000Y-137443000D01*
X130107000Y-137443000D01*
X130107000Y-137697000D01*
X130087000Y-137697000D01*
X130087000Y-138491250D01*
X130245750Y-138650000D01*
X131990000Y-138650000D01*
X131990000Y-139017560D01*
X128184985Y-139017560D01*
X128185162Y-138814833D01*
X128117055Y-138650000D01*
X129674250Y-138650000D01*
X129833000Y-138491250D01*
X129833000Y-137697000D01*
X129813000Y-137697000D01*
X129813000Y-137443000D01*
X129833000Y-137443000D01*
X129833000Y-136648750D01*
X129674250Y-136490000D01*
X127643690Y-136490000D01*
X127410301Y-136586673D01*
X127231673Y-136765302D01*
X127135000Y-136998691D01*
X127135000Y-137284250D01*
X127293748Y-137442998D01*
X127135000Y-137442998D01*
X127135000Y-137443431D01*
X127043117Y-137221057D01*
X127010000Y-137187882D01*
X127010000Y-136750000D01*
X126964615Y-136521838D01*
X126952148Y-136459160D01*
X126787401Y-136212599D01*
X126537401Y-135962599D01*
X126290839Y-135797852D01*
X126000000Y-135740000D01*
X122550944Y-135740000D01*
X122543117Y-135721057D01*
X122280327Y-135457808D01*
X121936799Y-135315162D01*
X121564833Y-135314838D01*
X121221057Y-135456883D01*
X121187882Y-135490000D01*
X120500000Y-135490000D01*
X120209161Y-135547852D01*
X119962599Y-135712599D01*
X117685198Y-137990000D01*
X107137376Y-137990000D01*
X107055327Y-137907808D01*
X106711799Y-137765162D01*
X106339833Y-137764838D01*
X105996057Y-137906883D01*
X105732808Y-138169673D01*
X105590162Y-138513201D01*
X105589838Y-138885167D01*
X105731883Y-139228943D01*
X105994673Y-139492192D01*
X106338201Y-139634838D01*
X106710167Y-139635162D01*
X107013083Y-139510000D01*
X117941063Y-139510000D01*
X117815162Y-139813201D01*
X117814838Y-140185167D01*
X117868436Y-140314885D01*
X117814833Y-140314838D01*
X117471057Y-140456883D01*
X117207808Y-140719673D01*
X117065162Y-141063201D01*
X117064838Y-141435167D01*
X117206883Y-141778943D01*
X117317746Y-141890000D01*
X114212201Y-141890000D01*
X114030327Y-141707808D01*
X113686799Y-141565162D01*
X113314833Y-141564838D01*
X112971057Y-141706883D01*
X112707808Y-141969673D01*
X112565162Y-142313201D01*
X112564943Y-142564838D01*
X112221057Y-142706883D01*
X111957808Y-142969673D01*
X111815162Y-143313201D01*
X111814838Y-143685167D01*
X111956883Y-144028943D01*
X112219673Y-144292192D01*
X112419162Y-144375028D01*
X112221057Y-144456883D01*
X112187882Y-144490000D01*
X110062463Y-144490000D01*
X110030327Y-144457808D01*
X109686799Y-144315162D01*
X109314833Y-144314838D01*
X108971057Y-144456883D01*
X108707808Y-144719673D01*
X108565162Y-145063201D01*
X108564838Y-145435167D01*
X108706883Y-145778943D01*
X108969673Y-146042192D01*
X109261732Y-146163466D01*
X106360320Y-149064878D01*
X106314833Y-149064838D01*
X105971057Y-149206883D01*
X105707808Y-149469673D01*
X105565162Y-149813201D01*
X105564838Y-150185167D01*
X105706883Y-150528943D01*
X105969673Y-150792192D01*
X106313201Y-150934838D01*
X106685167Y-150935162D01*
X107028943Y-150793117D01*
X107292192Y-150530327D01*
X107434838Y-150186799D01*
X107434879Y-150139923D01*
X110314802Y-147260000D01*
X114191063Y-147260000D01*
X114065162Y-147563201D01*
X114064838Y-147935167D01*
X114206883Y-148278943D01*
X114469673Y-148542192D01*
X114813201Y-148684838D01*
X115185167Y-148685162D01*
X115528943Y-148543117D01*
X115582153Y-148490000D01*
X119687882Y-148490000D01*
X119457808Y-148719673D01*
X119315162Y-149063201D01*
X119314838Y-149435167D01*
X119345758Y-149510000D01*
X116332428Y-149510000D01*
X116280327Y-149457808D01*
X115936799Y-149315162D01*
X115564833Y-149314838D01*
X115221057Y-149456883D01*
X114957808Y-149719673D01*
X114815162Y-150063201D01*
X114814838Y-150435167D01*
X114956883Y-150778943D01*
X115219673Y-151042192D01*
X115563201Y-151184838D01*
X115935167Y-151185162D01*
X116278943Y-151043117D01*
X116292083Y-151030000D01*
X120182758Y-151030000D01*
X120065162Y-151313201D01*
X120064838Y-151685167D01*
X120206883Y-152028943D01*
X120227903Y-152050000D01*
X117122358Y-152050000D01*
X117030327Y-151957808D01*
X116686799Y-151815162D01*
X116314833Y-151814838D01*
X115971057Y-151956883D01*
X115707808Y-152219673D01*
X115565162Y-152563201D01*
X115564838Y-152935167D01*
X115706883Y-153278943D01*
X115969673Y-153542192D01*
X116313201Y-153684838D01*
X116685167Y-153685162D01*
X116963881Y-153570000D01*
X118857742Y-153570000D01*
X118707808Y-153719673D01*
X118565162Y-154063201D01*
X118564838Y-154435167D01*
X118628814Y-154590000D01*
X117912289Y-154590000D01*
X117780327Y-154457808D01*
X117436799Y-154315162D01*
X117331963Y-154315071D01*
X117293117Y-154221057D01*
X117030327Y-153957808D01*
X116686799Y-153815162D01*
X116314833Y-153814838D01*
X115971057Y-153956883D01*
X115937882Y-153990000D01*
X113312463Y-153990000D01*
X113280327Y-153957808D01*
X112936799Y-153815162D01*
X112564833Y-153814838D01*
X112221057Y-153956883D01*
X111957808Y-154219673D01*
X111815162Y-154563201D01*
X111814838Y-154935167D01*
X111837494Y-154990000D01*
X105500000Y-154990000D01*
X105209160Y-155047852D01*
X105183584Y-155064941D01*
X105064833Y-155064838D01*
X104721057Y-155206883D01*
X104457808Y-155469673D01*
X104315162Y-155813201D01*
X104314838Y-156185167D01*
X104337494Y-156240000D01*
X104250000Y-156240000D01*
X103959160Y-156297852D01*
X103712599Y-156462599D01*
X103462599Y-156712599D01*
X103297852Y-156959161D01*
X103240000Y-157250000D01*
X103240000Y-168216000D01*
X103297852Y-168506839D01*
X103462599Y-168753401D01*
X103499198Y-168790000D01*
X100710000Y-168790000D01*
X100710000Y-124895000D01*
X103842560Y-124895000D01*
X103842560Y-126165000D01*
X103886838Y-126400317D01*
X104025910Y-126616441D01*
X104238110Y-126761431D01*
X104490000Y-126812440D01*
X105840228Y-126812440D01*
X105732808Y-126919673D01*
X105590162Y-127263201D01*
X105589838Y-127635167D01*
X105731883Y-127978943D01*
X105994673Y-128242192D01*
X106338201Y-128384838D01*
X106710167Y-128385162D01*
X107013083Y-128260000D01*
X120437537Y-128260000D01*
X120469673Y-128292192D01*
X120813201Y-128434838D01*
X121185167Y-128435162D01*
X121528943Y-128293117D01*
X121562118Y-128260000D01*
X127987559Y-128260000D01*
X128288201Y-128384838D01*
X128660167Y-128385162D01*
X129003943Y-128243117D01*
X129267192Y-127980327D01*
X129409838Y-127636799D01*
X129410162Y-127264833D01*
X129268117Y-126921057D01*
X129005327Y-126657808D01*
X128661799Y-126515162D01*
X128289833Y-126514838D01*
X127946057Y-126656883D01*
X127862795Y-126740000D01*
X121562463Y-126740000D01*
X121530327Y-126707808D01*
X121186799Y-126565162D01*
X120814833Y-126564838D01*
X120471057Y-126706883D01*
X120437882Y-126740000D01*
X108369082Y-126740000D01*
X108541441Y-126629090D01*
X108686431Y-126416890D01*
X108737440Y-126165000D01*
X108737440Y-124895000D01*
X108693162Y-124659683D01*
X108554090Y-124443559D01*
X108341890Y-124298569D01*
X108090000Y-124247560D01*
X104490000Y-124247560D01*
X104254683Y-124291838D01*
X104038559Y-124430910D01*
X103893569Y-124643110D01*
X103842560Y-124895000D01*
X100710000Y-124895000D01*
X100710000Y-124272440D01*
X104190000Y-124272440D01*
X104425317Y-124228162D01*
X104641441Y-124089090D01*
X104786431Y-123876890D01*
X104812127Y-123750000D01*
X118927555Y-123750000D01*
X118969673Y-123792192D01*
X119313201Y-123934838D01*
X119685167Y-123935162D01*
X120028943Y-123793117D01*
X120292192Y-123530327D01*
X120434838Y-123186799D01*
X120435162Y-122814833D01*
X120293117Y-122471057D01*
X120030327Y-122207808D01*
X119686799Y-122065162D01*
X119314833Y-122064838D01*
X118971057Y-122206883D01*
X118947900Y-122230000D01*
X104813920Y-122230000D01*
X104793162Y-122119683D01*
X104654090Y-121903559D01*
X104441890Y-121758569D01*
X104190000Y-121707560D01*
X100710000Y-121707560D01*
X100710000Y-119815000D01*
X103842560Y-119815000D01*
X103842560Y-121085000D01*
X103886838Y-121320317D01*
X104025910Y-121536441D01*
X104238110Y-121681431D01*
X104490000Y-121732440D01*
X108090000Y-121732440D01*
X108325317Y-121688162D01*
X108541441Y-121549090D01*
X108686431Y-121336890D01*
X108737440Y-121085000D01*
X108737440Y-119815000D01*
X108693162Y-119579683D01*
X108554090Y-119363559D01*
X108341890Y-119218569D01*
X108090000Y-119167560D01*
X104490000Y-119167560D01*
X104254683Y-119211838D01*
X104038559Y-119350910D01*
X103893569Y-119563110D01*
X103842560Y-119815000D01*
X100710000Y-119815000D01*
X100710000Y-119180000D01*
X102104250Y-119180000D01*
X102263000Y-119021250D01*
X102263000Y-118037000D01*
X102517000Y-118037000D01*
X102517000Y-119021250D01*
X102675750Y-119180000D01*
X104316309Y-119180000D01*
X104549698Y-119083327D01*
X104728327Y-118904699D01*
X104825000Y-118671310D01*
X104825000Y-118195750D01*
X104666250Y-118037000D01*
X102517000Y-118037000D01*
X102263000Y-118037000D01*
X102243000Y-118037000D01*
X102243000Y-117783000D01*
X102263000Y-117783000D01*
X102263000Y-116798750D01*
X102517000Y-116798750D01*
X102517000Y-117783000D01*
X104666250Y-117783000D01*
X104825000Y-117624250D01*
X104825000Y-117148690D01*
X104728327Y-116915301D01*
X104549698Y-116736673D01*
X104316309Y-116640000D01*
X102675750Y-116640000D01*
X102517000Y-116798750D01*
X102263000Y-116798750D01*
X102104250Y-116640000D01*
X100710000Y-116640000D01*
X100710000Y-114735000D01*
X103842560Y-114735000D01*
X103842560Y-116005000D01*
X103886838Y-116240317D01*
X104025910Y-116456441D01*
X104238110Y-116601431D01*
X104490000Y-116652440D01*
X106025158Y-116652440D01*
X105957808Y-116719673D01*
X105815162Y-117063201D01*
X105814838Y-117435167D01*
X105956883Y-117778943D01*
X106219673Y-118042192D01*
X106563201Y-118184838D01*
X106610077Y-118184879D01*
X106962599Y-118537401D01*
X107209160Y-118702148D01*
X107500000Y-118760000D01*
X119687537Y-118760000D01*
X119719673Y-118792192D01*
X120063201Y-118934838D01*
X120435167Y-118935162D01*
X120778943Y-118793117D01*
X121042192Y-118530327D01*
X121184838Y-118186799D01*
X121185162Y-117814833D01*
X121043117Y-117471057D01*
X120780327Y-117207808D01*
X120580838Y-117124972D01*
X120778943Y-117043117D01*
X120812118Y-117010000D01*
X127987559Y-117010000D01*
X128288201Y-117134838D01*
X128660167Y-117135162D01*
X129003943Y-116993117D01*
X129267192Y-116730327D01*
X129409838Y-116386799D01*
X129410162Y-116014833D01*
X129268117Y-115671057D01*
X129005327Y-115407808D01*
X128661799Y-115265162D01*
X128289833Y-115264838D01*
X127946057Y-115406883D01*
X127862795Y-115490000D01*
X120812463Y-115490000D01*
X120780327Y-115457808D01*
X120436799Y-115315162D01*
X120064833Y-115314838D01*
X119721057Y-115456883D01*
X119457808Y-115719673D01*
X119315162Y-116063201D01*
X119314838Y-116435167D01*
X119355173Y-116532784D01*
X119280327Y-116457808D01*
X118936799Y-116315162D01*
X118564833Y-116314838D01*
X118221057Y-116456883D01*
X118187882Y-116490000D01*
X109564803Y-116490000D01*
X108737440Y-115662638D01*
X108737440Y-114735000D01*
X108693162Y-114499683D01*
X108554090Y-114283559D01*
X108341890Y-114138569D01*
X108090000Y-114087560D01*
X104490000Y-114087560D01*
X104254683Y-114131838D01*
X104038559Y-114270910D01*
X103893569Y-114483110D01*
X103842560Y-114735000D01*
X100710000Y-114735000D01*
X100710000Y-114112440D01*
X104190000Y-114112440D01*
X104425317Y-114068162D01*
X104641441Y-113929090D01*
X104786431Y-113716890D01*
X104812127Y-113590000D01*
X117584807Y-113590000D01*
X117813201Y-113684838D01*
X118185167Y-113685162D01*
X118528943Y-113543117D01*
X118792192Y-113280327D01*
X118934838Y-112936799D01*
X118935162Y-112564833D01*
X118793117Y-112221057D01*
X118530327Y-111957808D01*
X118186799Y-111815162D01*
X117814833Y-111814838D01*
X117471057Y-111956883D01*
X117357742Y-112070000D01*
X104813920Y-112070000D01*
X104793162Y-111959683D01*
X104654090Y-111743559D01*
X104441890Y-111598569D01*
X104190000Y-111547560D01*
X100710000Y-111547560D01*
X100710000Y-109032440D01*
X104190000Y-109032440D01*
X104425317Y-108988162D01*
X104641441Y-108849090D01*
X104786431Y-108636890D01*
X104812127Y-108510000D01*
X107915198Y-108510000D01*
X107417638Y-109007560D01*
X104490000Y-109007560D01*
X104254683Y-109051838D01*
X104038559Y-109190910D01*
X103893569Y-109403110D01*
X103842560Y-109655000D01*
X103842560Y-110925000D01*
X103886838Y-111160317D01*
X104025910Y-111376441D01*
X104238110Y-111521431D01*
X104490000Y-111572440D01*
X108090000Y-111572440D01*
X108325317Y-111528162D01*
X108541441Y-111389090D01*
X108686431Y-111176890D01*
X108737440Y-110925000D01*
X108737440Y-109837362D01*
X109064802Y-109510000D01*
X116687537Y-109510000D01*
X116719673Y-109542192D01*
X117063201Y-109684838D01*
X117435167Y-109685162D01*
X117508164Y-109655000D01*
X124162560Y-109655000D01*
X124162560Y-110925000D01*
X124206838Y-111160317D01*
X124345910Y-111376441D01*
X124558110Y-111521431D01*
X124810000Y-111572440D01*
X126497638Y-111572440D01*
X126564878Y-111639680D01*
X126564838Y-111685167D01*
X126706883Y-112028943D01*
X126969673Y-112292192D01*
X127313201Y-112434838D01*
X127685167Y-112435162D01*
X128028943Y-112293117D01*
X128292192Y-112030327D01*
X128434838Y-111686799D01*
X128434942Y-111567747D01*
X128645317Y-111528162D01*
X128861441Y-111389090D01*
X129006431Y-111176890D01*
X129057440Y-110925000D01*
X129057440Y-109655000D01*
X129013162Y-109419683D01*
X128874090Y-109203559D01*
X128661890Y-109058569D01*
X128410000Y-109007560D01*
X124810000Y-109007560D01*
X124574683Y-109051838D01*
X124358559Y-109190910D01*
X124213569Y-109403110D01*
X124162560Y-109655000D01*
X117508164Y-109655000D01*
X117778943Y-109543117D01*
X118042192Y-109280327D01*
X118184838Y-108936799D01*
X118185162Y-108564833D01*
X118043117Y-108221057D01*
X117780327Y-107957808D01*
X117436799Y-107815162D01*
X117434944Y-107815160D01*
X117435162Y-107564833D01*
X117309208Y-107260000D01*
X120262560Y-107260000D01*
X120262560Y-108385000D01*
G36*
X124936883Y-159024943D02*
X125199673Y-159288192D01*
X125402869Y-159372567D01*
X125230000Y-159337560D01*
X123108931Y-159337560D01*
X123109162Y-159072833D01*
X123071812Y-158982440D01*
X124919321Y-158982440D01*
X124936883Y-159024943D01*
X124936883Y-159024943D01*
G37*
X124936883Y-159024943D02*
X125199673Y-159288192D01*
X125402869Y-159372567D01*
X125230000Y-159337560D01*
X123108931Y-159337560D01*
X123109162Y-159072833D01*
X123071812Y-158982440D01*
X124919321Y-158982440D01*
X124936883Y-159024943D01*
G36*
X111767458Y-805443D02*
X111365458Y-1773567D01*
X111364543Y-2821834D01*
X111764853Y-3790658D01*
X112505443Y-4532542D01*
X113217437Y-4828188D01*
X113083569Y-5024110D01*
X113032560Y-5276000D01*
X113032560Y-7076000D01*
X113076838Y-7311317D01*
X113215910Y-7527441D01*
X113428110Y-7672431D01*
X113680000Y-7723440D01*
X115680000Y-7723440D01*
X115915317Y-7679162D01*
X116131441Y-7540090D01*
X116276431Y-7327890D01*
X116327440Y-7076000D01*
X116327440Y-5603362D01*
X117026802Y-4904000D01*
X117597310Y-4904000D01*
X117583569Y-4924110D01*
X117532560Y-5176000D01*
X117532560Y-7176000D01*
X117576838Y-7411317D01*
X117715910Y-7627441D01*
X117928110Y-7772431D01*
X118180000Y-7823440D01*
X119980000Y-7823440D01*
X120115176Y-7798005D01*
X120114760Y-8274285D01*
X120156048Y-8374211D01*
X119980000Y-8338560D01*
X118180000Y-8338560D01*
X117944683Y-8382838D01*
X117728559Y-8521910D01*
X117583569Y-8734110D01*
X117532560Y-8986000D01*
X117532560Y-10986000D01*
X117576838Y-11221317D01*
X117715910Y-11437441D01*
X117928110Y-11582431D01*
X118180000Y-11633440D01*
X119980000Y-11633440D01*
X120215317Y-11589162D01*
X120431441Y-11450090D01*
X120439601Y-11438147D01*
X120714436Y-11713461D01*
X121223298Y-11924759D01*
X121774285Y-11925240D01*
X122216000Y-11742728D01*
X122216000Y-12526000D01*
X122273852Y-12816839D01*
X122438599Y-13063401D01*
X124756000Y-15380802D01*
X124756000Y-28863001D01*
X124568833Y-28862838D01*
X124225057Y-29004883D01*
X123961808Y-29267673D01*
X123861440Y-29509385D01*
X123861440Y-28730000D01*
X123817162Y-28494683D01*
X123678090Y-28278559D01*
X123465890Y-28133569D01*
X123214000Y-28082560D01*
X121827362Y-28082560D01*
X121067401Y-27322599D01*
X120820839Y-27157852D01*
X120530000Y-27100000D01*
X120264547Y-27100000D01*
X120254831Y-27076485D01*
X119865564Y-26686539D01*
X119356702Y-26475241D01*
X118805715Y-26474760D01*
X118296485Y-26685169D01*
X117906539Y-27074436D01*
X117810024Y-27306870D01*
X117714831Y-27076485D01*
X117325564Y-26686539D01*
X116816702Y-26475241D01*
X116265715Y-26474760D01*
X115756485Y-26685169D01*
X115366539Y-27074436D01*
X115270024Y-27306870D01*
X115174831Y-27076485D01*
X114785564Y-26686539D01*
X114276702Y-26475241D01*
X113725715Y-26474760D01*
X113216485Y-26685169D01*
X112826539Y-27074436D01*
X112730024Y-27306870D01*
X112634831Y-27076485D01*
X112245564Y-26686539D01*
X111736702Y-26475241D01*
X111185715Y-26474760D01*
X110676485Y-26685169D01*
X110286539Y-27074436D01*
X110190024Y-27306870D01*
X110094831Y-27076485D01*
X109705564Y-26686539D01*
X109297646Y-26517156D01*
X113947401Y-21867401D01*
X114112148Y-21620840D01*
X114170000Y-21330000D01*
X114170000Y-20169440D01*
X114410000Y-20169440D01*
X114645317Y-20125162D01*
X114861441Y-19986090D01*
X115006431Y-19773890D01*
X115057440Y-19522000D01*
X115057440Y-17722000D01*
X115038624Y-17622000D01*
X116262560Y-17622000D01*
X116262560Y-19622000D01*
X116306838Y-19857317D01*
X116445910Y-20073441D01*
X116658110Y-20218431D01*
X116910000Y-20269440D01*
X118710000Y-20269440D01*
X118945317Y-20225162D01*
X119161441Y-20086090D01*
X119306431Y-19873890D01*
X119357440Y-19622000D01*
X119357440Y-19382000D01*
X119453000Y-19382000D01*
X119743839Y-19324148D01*
X119990401Y-19159401D01*
X120664680Y-18485122D01*
X120710167Y-18485162D01*
X121053943Y-18343117D01*
X121317192Y-18080327D01*
X121459838Y-17736799D01*
X121460162Y-17364833D01*
X121318117Y-17021057D01*
X121055327Y-16757808D01*
X120711799Y-16615162D01*
X120339833Y-16614838D01*
X119996057Y-16756883D01*
X119732808Y-17019673D01*
X119590162Y-17363201D01*
X119590121Y-17410077D01*
X119357440Y-17642758D01*
X119357440Y-17622000D01*
X119313162Y-17386683D01*
X119174090Y-17170559D01*
X118961890Y-17025569D01*
X118710000Y-16974560D01*
X116910000Y-16974560D01*
X116674683Y-17018838D01*
X116458559Y-17157910D01*
X116313569Y-17370110D01*
X116262560Y-17622000D01*
X115038624Y-17622000D01*
X115013162Y-17486683D01*
X114874090Y-17270559D01*
X114661890Y-17125569D01*
X114410000Y-17074560D01*
X112410000Y-17074560D01*
X112174683Y-17118838D01*
X111958559Y-17257910D01*
X111813569Y-17470110D01*
X111762560Y-17722000D01*
X111762560Y-19522000D01*
X111806838Y-19757317D01*
X111945910Y-19973441D01*
X112158110Y-20118431D01*
X112410000Y-20169440D01*
X112650000Y-20169440D01*
X112650000Y-21015198D01*
X110528000Y-23137198D01*
X110528000Y-14221834D01*
X111364543Y-14221834D01*
X111764853Y-15190658D01*
X112505443Y-15932542D01*
X113473567Y-16334542D01*
X114521834Y-16335457D01*
X115490658Y-15935147D01*
X116232542Y-15194557D01*
X116634542Y-14226433D01*
X116635457Y-13178166D01*
X116582008Y-13048810D01*
X119246878Y-15713680D01*
X119246838Y-15759167D01*
X119388883Y-16102943D01*
X119651673Y-16366192D01*
X119995201Y-16508838D01*
X120367167Y-16509162D01*
X120710943Y-16367117D01*
X120974192Y-16104327D01*
X121116838Y-15760799D01*
X121117162Y-15388833D01*
X120975117Y-15045057D01*
X120712327Y-14781808D01*
X120368799Y-14639162D01*
X120321923Y-14639121D01*
X116327440Y-10644638D01*
X116327440Y-9086000D01*
X116283162Y-8850683D01*
X116144090Y-8634559D01*
X115931890Y-8489569D01*
X115680000Y-8438560D01*
X113680000Y-8438560D01*
X113444683Y-8482838D01*
X113228559Y-8621910D01*
X113083569Y-8834110D01*
X113032560Y-9086000D01*
X113032560Y-10886000D01*
X113076838Y-11121317D01*
X113132272Y-11207464D01*
X112509342Y-11464853D01*
X111767458Y-12205443D01*
X111365458Y-13173567D01*
X111364543Y-14221834D01*
X110528000Y-14221834D01*
X110528000Y-11801440D01*
X110668000Y-11801440D01*
X110903317Y-11757162D01*
X111119441Y-11618090D01*
X111264431Y-11405890D01*
X111315440Y-11154000D01*
X111315440Y-9154000D01*
X111271162Y-8918683D01*
X111132090Y-8702559D01*
X110919890Y-8557569D01*
X110668000Y-8506560D01*
X108868000Y-8506560D01*
X108632683Y-8550838D01*
X108416559Y-8689910D01*
X108271569Y-8902110D01*
X108220560Y-9154000D01*
X108220560Y-9867158D01*
X108174831Y-9756485D01*
X107785564Y-9366539D01*
X107276702Y-9155241D01*
X106725715Y-9154760D01*
X106216485Y-9365169D01*
X105826539Y-9754436D01*
X105615241Y-10263298D01*
X105614760Y-10814285D01*
X105825169Y-11323515D01*
X106214436Y-11713461D01*
X106723298Y-11924759D01*
X107274285Y-11925240D01*
X107783515Y-11714831D01*
X108173461Y-11325564D01*
X108228088Y-11194008D01*
X108264838Y-11389317D01*
X108403910Y-11605441D01*
X108616110Y-11750431D01*
X108868000Y-11801440D01*
X109008000Y-11801440D01*
X109008000Y-23641198D01*
X108104099Y-24545099D01*
X107804833Y-24544838D01*
X107461057Y-24686883D01*
X107197808Y-24949673D01*
X107055162Y-25293201D01*
X107054838Y-25665167D01*
X107196883Y-26008943D01*
X107364230Y-26176583D01*
X107309162Y-26309201D01*
X107308838Y-26681167D01*
X107450883Y-27024943D01*
X107545059Y-27119283D01*
X107351161Y-27157852D01*
X107104599Y-27322599D01*
X106090638Y-28336560D01*
X104704000Y-28336560D01*
X104468683Y-28380838D01*
X104252559Y-28519910D01*
X104107569Y-28732110D01*
X104056560Y-28984000D01*
X104056560Y-30784000D01*
X104100838Y-31019317D01*
X104239910Y-31235441D01*
X104452110Y-31380431D01*
X104704000Y-31431440D01*
X106470000Y-31431440D01*
X106470000Y-32636560D01*
X104804000Y-32636560D01*
X104568683Y-32680838D01*
X104352559Y-32819910D01*
X104207569Y-33032110D01*
X104156560Y-33284000D01*
X104156560Y-35284000D01*
X104200838Y-35519317D01*
X104339910Y-35735441D01*
X104552110Y-35880431D01*
X104804000Y-35931440D01*
X106470000Y-35931440D01*
X106470000Y-38650560D01*
X104804000Y-38650560D01*
X104568683Y-38694838D01*
X104352559Y-38833910D01*
X104207569Y-39046110D01*
X104156560Y-39298000D01*
X104156560Y-40770638D01*
X103924000Y-41003198D01*
X103924000Y-27058463D01*
X103956192Y-27026327D01*
X104098838Y-26682799D01*
X104099162Y-26310833D01*
X103957117Y-25967057D01*
X103694327Y-25703808D01*
X103350799Y-25561162D01*
X103336930Y-25561150D01*
X103337162Y-25294833D01*
X103195117Y-24951057D01*
X102932327Y-24687808D01*
X102588799Y-24545162D01*
X102216833Y-24544838D01*
X101873057Y-24686883D01*
X101609808Y-24949673D01*
X101467162Y-25293201D01*
X101466838Y-25665167D01*
X101608883Y-26008943D01*
X101642000Y-26042118D01*
X101642000Y-74955537D01*
X101609808Y-74987673D01*
X101467162Y-75331201D01*
X101466838Y-75703167D01*
X101608883Y-76046943D01*
X101642000Y-76080118D01*
X101642000Y-76534000D01*
X101699852Y-76824839D01*
X101864599Y-77071401D01*
X105166599Y-80373401D01*
X105413160Y-80538148D01*
X105475807Y-80550609D01*
X107962599Y-83037401D01*
X108209160Y-83202148D01*
X108500000Y-83260000D01*
X112917847Y-83260000D01*
X112707808Y-83469673D01*
X112565162Y-83813201D01*
X112565008Y-83990000D01*
X112562463Y-83990000D01*
X112530327Y-83957808D01*
X112186799Y-83815162D01*
X111814833Y-83814838D01*
X111471057Y-83956883D01*
X111207808Y-84219673D01*
X111065162Y-84563201D01*
X111065161Y-84564838D01*
X110721057Y-84706883D01*
X110457808Y-84969673D01*
X110315162Y-85313201D01*
X110314838Y-85685167D01*
X110456883Y-86028943D01*
X110719673Y-86292192D01*
X111063201Y-86434838D01*
X111435167Y-86435162D01*
X111778943Y-86293117D01*
X111812118Y-86260000D01*
X120568756Y-86260000D01*
X120458559Y-86330910D01*
X120313569Y-86543110D01*
X120262560Y-86795000D01*
X120262560Y-88065000D01*
X120306838Y-88300317D01*
X120445910Y-88516441D01*
X120658110Y-88661431D01*
X120910000Y-88712440D01*
X124510000Y-88712440D01*
X124745317Y-88668162D01*
X124961441Y-88529090D01*
X125106431Y-88316890D01*
X125132127Y-88190000D01*
X131367659Y-88190000D01*
X131469673Y-88292192D01*
X131813201Y-88434838D01*
X132185167Y-88435162D01*
X132290000Y-88391846D01*
X132290000Y-103608015D01*
X132186799Y-103565162D01*
X131814833Y-103564838D01*
X131471057Y-103706883D01*
X131437882Y-103740000D01*
X129562463Y-103740000D01*
X129530327Y-103707808D01*
X129186799Y-103565162D01*
X128814833Y-103564838D01*
X128471057Y-103706883D01*
X128249995Y-103927560D01*
X124810000Y-103927560D01*
X124574683Y-103971838D01*
X124358559Y-104110910D01*
X124213569Y-104323110D01*
X124162560Y-104575000D01*
X124162560Y-105740000D01*
X116558937Y-105740000D01*
X116684838Y-105436799D01*
X116685162Y-105064833D01*
X116543117Y-104721057D01*
X116280327Y-104457808D01*
X115936799Y-104315162D01*
X115564833Y-104314838D01*
X115237715Y-104450000D01*
X108713920Y-104450000D01*
X108693162Y-104339683D01*
X108554090Y-104123559D01*
X108341890Y-103978569D01*
X108090000Y-103927560D01*
X107813403Y-103927560D01*
X107930148Y-103752839D01*
X107988000Y-103462000D01*
X107988000Y-103458000D01*
X107930148Y-103167161D01*
X107765401Y-102920599D01*
X107518839Y-102755852D01*
X107228000Y-102698000D01*
X106937161Y-102755852D01*
X106690599Y-102920599D01*
X106689798Y-102921798D01*
X106688599Y-102922599D01*
X106523852Y-103169161D01*
X106466000Y-103460000D01*
X106523852Y-103750839D01*
X106641933Y-103927560D01*
X104490000Y-103927560D01*
X104254683Y-103971838D01*
X104038559Y-104110910D01*
X103893569Y-104323110D01*
X103842560Y-104575000D01*
X103842560Y-105845000D01*
X103886838Y-106080317D01*
X104025910Y-106296441D01*
X104238110Y-106441431D01*
X104490000Y-106492440D01*
X105815006Y-106492440D01*
X105814838Y-106685167D01*
X105940792Y-106990000D01*
X104813920Y-106990000D01*
X104793162Y-106879683D01*
X104654090Y-106663559D01*
X104441890Y-106518569D01*
X104190000Y-106467560D01*
X100710000Y-106467560D01*
X100710000Y-103952440D01*
X104190000Y-103952440D01*
X104425317Y-103908162D01*
X104641441Y-103769090D01*
X104786431Y-103556890D01*
X104837440Y-103305000D01*
X104837440Y-102737362D01*
X105564802Y-102010000D01*
X114437537Y-102010000D01*
X114469673Y-102042192D01*
X114813201Y-102184838D01*
X115185167Y-102185162D01*
X115528943Y-102043117D01*
X115537074Y-102035000D01*
X120262560Y-102035000D01*
X120262560Y-103305000D01*
X120306838Y-103540317D01*
X120445910Y-103756441D01*
X120658110Y-103901431D01*
X120910000Y-103952440D01*
X122321975Y-103952440D01*
X122456883Y-104278943D01*
X122719673Y-104542192D01*
X123063201Y-104684838D01*
X123435167Y-104685162D01*
X123778943Y-104543117D01*
X124042192Y-104280327D01*
X124178343Y-103952440D01*
X124510000Y-103952440D01*
X124745317Y-103908162D01*
X124961441Y-103769090D01*
X125106431Y-103556890D01*
X125157440Y-103305000D01*
X125157440Y-102035000D01*
X125113162Y-101799683D01*
X124974090Y-101583559D01*
X124761890Y-101438569D01*
X124510000Y-101387560D01*
X120910000Y-101387560D01*
X120674683Y-101431838D01*
X120458559Y-101570910D01*
X120313569Y-101783110D01*
X120262560Y-102035000D01*
X115537074Y-102035000D01*
X115792192Y-101780327D01*
X115934838Y-101436799D01*
X115935162Y-101064833D01*
X115793117Y-100721057D01*
X115530327Y-100457808D01*
X115475802Y-100435167D01*
X121564838Y-100435167D01*
X121706883Y-100778943D01*
X121969673Y-101042192D01*
X122313201Y-101184838D01*
X122685167Y-101185162D01*
X123028943Y-101043117D01*
X123182327Y-100890000D01*
X124186080Y-100890000D01*
X124206838Y-101000317D01*
X124345910Y-101216441D01*
X124558110Y-101361431D01*
X124810000Y-101412440D01*
X128410000Y-101412440D01*
X128645317Y-101368162D01*
X128861441Y-101229090D01*
X129006431Y-101016890D01*
X129057440Y-100765000D01*
X129057440Y-99495000D01*
X129013162Y-99259683D01*
X128874090Y-99043559D01*
X128661890Y-98898569D01*
X128410000Y-98847560D01*
X124810000Y-98847560D01*
X124574683Y-98891838D01*
X124358559Y-99030910D01*
X124213569Y-99243110D01*
X124187873Y-99370000D01*
X122818863Y-99370000D01*
X122686799Y-99315162D01*
X122314833Y-99314838D01*
X121971057Y-99456883D01*
X121707808Y-99719673D01*
X121565162Y-100063201D01*
X121564838Y-100435167D01*
X115475802Y-100435167D01*
X115186799Y-100315162D01*
X114814833Y-100314838D01*
X114471057Y-100456883D01*
X114437882Y-100490000D01*
X108737440Y-100490000D01*
X108737440Y-99495000D01*
X108693222Y-99260000D01*
X113687537Y-99260000D01*
X113719673Y-99292192D01*
X114063201Y-99434838D01*
X114435167Y-99435162D01*
X114778943Y-99293117D01*
X115042192Y-99030327D01*
X115184838Y-98686799D01*
X115185131Y-98350000D01*
X120286080Y-98350000D01*
X120306838Y-98460317D01*
X120445910Y-98676441D01*
X120658110Y-98821431D01*
X120910000Y-98872440D01*
X124510000Y-98872440D01*
X124745317Y-98828162D01*
X124961441Y-98689090D01*
X125106431Y-98476890D01*
X125157440Y-98225000D01*
X125157440Y-97434920D01*
X125435167Y-97435162D01*
X125778943Y-97293117D01*
X126042192Y-97030327D01*
X126184838Y-96686799D01*
X126185147Y-96332440D01*
X128410000Y-96332440D01*
X128645317Y-96288162D01*
X128861441Y-96149090D01*
X129006431Y-95936890D01*
X129057440Y-95685000D01*
X129057440Y-94415000D01*
X129013162Y-94179683D01*
X128874090Y-93963559D01*
X128661890Y-93818569D01*
X128410000Y-93767560D01*
X124810000Y-93767560D01*
X124574683Y-93811838D01*
X124358559Y-93950910D01*
X124213569Y-94163110D01*
X124187873Y-94290000D01*
X122362376Y-94290000D01*
X122280327Y-94207808D01*
X121936799Y-94065162D01*
X121564833Y-94064838D01*
X121221057Y-94206883D01*
X120957808Y-94469673D01*
X120815162Y-94813201D01*
X120814838Y-95185167D01*
X120940792Y-95490000D01*
X115064802Y-95490000D01*
X114037401Y-94462599D01*
X113790839Y-94297852D01*
X113500000Y-94240000D01*
X113312463Y-94240000D01*
X113280327Y-94207808D01*
X112936799Y-94065162D01*
X112564833Y-94064838D01*
X112221057Y-94206883D01*
X112137795Y-94290000D01*
X108713920Y-94290000D01*
X108693162Y-94179683D01*
X108554090Y-93963559D01*
X108341890Y-93818569D01*
X108090000Y-93767560D01*
X104490000Y-93767560D01*
X104254683Y-93811838D01*
X104038559Y-93950910D01*
X103893569Y-94163110D01*
X103842560Y-94415000D01*
X103842560Y-95685000D01*
X103886838Y-95920317D01*
X104025910Y-96136441D01*
X104182063Y-96243135D01*
X104117638Y-96307560D01*
X100710000Y-96307560D01*
X100710000Y-93792440D01*
X104190000Y-93792440D01*
X104425317Y-93748162D01*
X104641441Y-93609090D01*
X104786431Y-93396890D01*
X104837440Y-93145000D01*
X104837440Y-92737362D01*
X104889635Y-92685167D01*
X120064838Y-92685167D01*
X120206883Y-93028943D01*
X120262560Y-93084717D01*
X120262560Y-93145000D01*
X120306838Y-93380317D01*
X120445910Y-93596441D01*
X120658110Y-93741431D01*
X120910000Y-93792440D01*
X124510000Y-93792440D01*
X124745317Y-93748162D01*
X124961441Y-93609090D01*
X125106431Y-93396890D01*
X125157440Y-93145000D01*
X125157440Y-91875000D01*
X125113162Y-91639683D01*
X124974090Y-91423559D01*
X124761890Y-91278569D01*
X124510000Y-91227560D01*
X120910000Y-91227560D01*
X120674683Y-91271838D01*
X120458559Y-91410910D01*
X120313569Y-91623110D01*
X120262560Y-91875000D01*
X120262560Y-91915016D01*
X120207808Y-91969673D01*
X120065162Y-92313201D01*
X120064838Y-92685167D01*
X104889635Y-92685167D01*
X105564802Y-92010000D01*
X111437537Y-92010000D01*
X111469673Y-92042192D01*
X111813201Y-92184838D01*
X112185167Y-92185162D01*
X112528943Y-92043117D01*
X112792192Y-91780327D01*
X112934838Y-91436799D01*
X112935162Y-91064833D01*
X112793117Y-90721057D01*
X112530327Y-90457808D01*
X112186799Y-90315162D01*
X112131557Y-90315114D01*
X112184838Y-90186799D01*
X112184839Y-90185167D01*
X119314838Y-90185167D01*
X119456883Y-90528943D01*
X119719673Y-90792192D01*
X120063201Y-90934838D01*
X120435167Y-90935162D01*
X120778943Y-90793117D01*
X120842170Y-90730000D01*
X124186080Y-90730000D01*
X124206838Y-90840317D01*
X124345910Y-91056441D01*
X124558110Y-91201431D01*
X124810000Y-91252440D01*
X128410000Y-91252440D01*
X128645317Y-91208162D01*
X128861441Y-91069090D01*
X129006431Y-90856890D01*
X129057440Y-90605000D01*
X129057440Y-89335000D01*
X129013162Y-89099683D01*
X128874090Y-88883559D01*
X128661890Y-88738569D01*
X128410000Y-88687560D01*
X124810000Y-88687560D01*
X124574683Y-88731838D01*
X124358559Y-88870910D01*
X124213569Y-89083110D01*
X124187873Y-89210000D01*
X120782515Y-89210000D01*
X120780327Y-89207808D01*
X120436799Y-89065162D01*
X120064833Y-89064838D01*
X119721057Y-89206883D01*
X119457808Y-89469673D01*
X119315162Y-89813201D01*
X119314838Y-90185167D01*
X112184839Y-90185167D01*
X112185162Y-89814833D01*
X112043117Y-89471057D01*
X111780327Y-89207808D01*
X111436799Y-89065162D01*
X111064833Y-89064838D01*
X110721057Y-89206883D01*
X110717935Y-89210000D01*
X108713920Y-89210000D01*
X108693162Y-89099683D01*
X108554090Y-88883559D01*
X108341890Y-88738569D01*
X108090000Y-88687560D01*
X104490000Y-88687560D01*
X104254683Y-88731838D01*
X104038559Y-88870910D01*
X103893569Y-89083110D01*
X103842560Y-89335000D01*
X103842560Y-90605000D01*
X103886838Y-90840317D01*
X104025910Y-91056441D01*
X104229589Y-91195609D01*
X104196352Y-91228846D01*
X104190000Y-91227560D01*
X100710000Y-91227560D01*
X100710000Y-88700000D01*
X102104250Y-88700000D01*
X102263000Y-88541250D01*
X102263000Y-87557000D01*
X102517000Y-87557000D01*
X102517000Y-88541250D01*
X102675750Y-88700000D01*
X104316309Y-88700000D01*
X104549698Y-88603327D01*
X104728327Y-88424699D01*
X104825000Y-88191310D01*
X104825000Y-87715750D01*
X104666250Y-87557000D01*
X102517000Y-87557000D01*
X102263000Y-87557000D01*
X102243000Y-87557000D01*
X102243000Y-87303000D01*
X102263000Y-87303000D01*
X102263000Y-86318750D01*
X102517000Y-86318750D01*
X102517000Y-87303000D01*
X104666250Y-87303000D01*
X104825000Y-87144250D01*
X104825000Y-86668690D01*
X104728327Y-86435301D01*
X104549698Y-86256673D01*
X104316309Y-86160000D01*
X102675750Y-86160000D01*
X102517000Y-86318750D01*
X102263000Y-86318750D01*
X102104250Y-86160000D01*
X100710000Y-86160000D01*
X100710000Y-21557135D01*
X101654653Y-22503438D01*
X103173889Y-23134280D01*
X104818894Y-23135716D01*
X106339229Y-22507526D01*
X107503438Y-21345347D01*
X108134280Y-19826111D01*
X108135716Y-18181106D01*
X107507526Y-16660771D01*
X106345347Y-15496562D01*
X104826111Y-14865720D01*
X103181106Y-14864284D01*
X101660771Y-15492474D01*
X100710000Y-16441587D01*
X100710000Y-5734285D01*
X105614760Y-5734285D01*
X105825169Y-6243515D01*
X106214436Y-6633461D01*
X106723298Y-6844759D01*
X107274285Y-6845240D01*
X107783515Y-6634831D01*
X108120560Y-6298373D01*
X108120560Y-6654000D01*
X108164838Y-6889317D01*
X108303910Y-7105441D01*
X108516110Y-7250431D01*
X108768000Y-7301440D01*
X110768000Y-7301440D01*
X111003317Y-7257162D01*
X111219441Y-7118090D01*
X111364431Y-6905890D01*
X111415440Y-6654000D01*
X111415440Y-4854000D01*
X111371162Y-4618683D01*
X111232090Y-4402559D01*
X111019890Y-4257569D01*
X110768000Y-4206560D01*
X108768000Y-4206560D01*
X108532683Y-4250838D01*
X108316559Y-4389910D01*
X108171569Y-4602110D01*
X108159598Y-4661225D01*
X107785564Y-4286539D01*
X107276702Y-4075241D01*
X106725715Y-4074760D01*
X106216485Y-4285169D01*
X105826539Y-4674436D01*
X105615241Y-5183298D01*
X105614760Y-5734285D01*
X100710000Y-5734285D01*
X100710000Y-710000D01*
X111863068Y-710000D01*
X111767458Y-805443D01*
X111767458Y-805443D01*
G37*
X111767458Y-805443D02*
X111365458Y-1773567D01*
X111364543Y-2821834D01*
X111764853Y-3790658D01*
X112505443Y-4532542D01*
X113217437Y-4828188D01*
X113083569Y-5024110D01*
X113032560Y-5276000D01*
X113032560Y-7076000D01*
X113076838Y-7311317D01*
X113215910Y-7527441D01*
X113428110Y-7672431D01*
X113680000Y-7723440D01*
X115680000Y-7723440D01*
X115915317Y-7679162D01*
X116131441Y-7540090D01*
X116276431Y-7327890D01*
X116327440Y-7076000D01*
X116327440Y-5603362D01*
X117026802Y-4904000D01*
X117597310Y-4904000D01*
X117583569Y-4924110D01*
X117532560Y-5176000D01*
X117532560Y-7176000D01*
X117576838Y-7411317D01*
X117715910Y-7627441D01*
X117928110Y-7772431D01*
X118180000Y-7823440D01*
X119980000Y-7823440D01*
X120115176Y-7798005D01*
X120114760Y-8274285D01*
X120156048Y-8374211D01*
X119980000Y-8338560D01*
X118180000Y-8338560D01*
X117944683Y-8382838D01*
X117728559Y-8521910D01*
X117583569Y-8734110D01*
X117532560Y-8986000D01*
X117532560Y-10986000D01*
X117576838Y-11221317D01*
X117715910Y-11437441D01*
X117928110Y-11582431D01*
X118180000Y-11633440D01*
X119980000Y-11633440D01*
X120215317Y-11589162D01*
X120431441Y-11450090D01*
X120439601Y-11438147D01*
X120714436Y-11713461D01*
X121223298Y-11924759D01*
X121774285Y-11925240D01*
X122216000Y-11742728D01*
X122216000Y-12526000D01*
X122273852Y-12816839D01*
X122438599Y-13063401D01*
X124756000Y-15380802D01*
X124756000Y-28863001D01*
X124568833Y-28862838D01*
X124225057Y-29004883D01*
X123961808Y-29267673D01*
X123861440Y-29509385D01*
X123861440Y-28730000D01*
X123817162Y-28494683D01*
X123678090Y-28278559D01*
X123465890Y-28133569D01*
X123214000Y-28082560D01*
X121827362Y-28082560D01*
X121067401Y-27322599D01*
X120820839Y-27157852D01*
X120530000Y-27100000D01*
X120264547Y-27100000D01*
X120254831Y-27076485D01*
X119865564Y-26686539D01*
X119356702Y-26475241D01*
X118805715Y-26474760D01*
X118296485Y-26685169D01*
X117906539Y-27074436D01*
X117810024Y-27306870D01*
X117714831Y-27076485D01*
X117325564Y-26686539D01*
X116816702Y-26475241D01*
X116265715Y-26474760D01*
X115756485Y-26685169D01*
X115366539Y-27074436D01*
X115270024Y-27306870D01*
X115174831Y-27076485D01*
X114785564Y-26686539D01*
X114276702Y-26475241D01*
X113725715Y-26474760D01*
X113216485Y-26685169D01*
X112826539Y-27074436D01*
X112730024Y-27306870D01*
X112634831Y-27076485D01*
X112245564Y-26686539D01*
X111736702Y-26475241D01*
X111185715Y-26474760D01*
X110676485Y-26685169D01*
X110286539Y-27074436D01*
X110190024Y-27306870D01*
X110094831Y-27076485D01*
X109705564Y-26686539D01*
X109297646Y-26517156D01*
X113947401Y-21867401D01*
X114112148Y-21620840D01*
X114170000Y-21330000D01*
X114170000Y-20169440D01*
X114410000Y-20169440D01*
X114645317Y-20125162D01*
X114861441Y-19986090D01*
X115006431Y-19773890D01*
X115057440Y-19522000D01*
X115057440Y-17722000D01*
X115038624Y-17622000D01*
X116262560Y-17622000D01*
X116262560Y-19622000D01*
X116306838Y-19857317D01*
X116445910Y-20073441D01*
X116658110Y-20218431D01*
X116910000Y-20269440D01*
X118710000Y-20269440D01*
X118945317Y-20225162D01*
X119161441Y-20086090D01*
X119306431Y-19873890D01*
X119357440Y-19622000D01*
X119357440Y-19382000D01*
X119453000Y-19382000D01*
X119743839Y-19324148D01*
X119990401Y-19159401D01*
X120664680Y-18485122D01*
X120710167Y-18485162D01*
X121053943Y-18343117D01*
X121317192Y-18080327D01*
X121459838Y-17736799D01*
X121460162Y-17364833D01*
X121318117Y-17021057D01*
X121055327Y-16757808D01*
X120711799Y-16615162D01*
X120339833Y-16614838D01*
X119996057Y-16756883D01*
X119732808Y-17019673D01*
X119590162Y-17363201D01*
X119590121Y-17410077D01*
X119357440Y-17642758D01*
X119357440Y-17622000D01*
X119313162Y-17386683D01*
X119174090Y-17170559D01*
X118961890Y-17025569D01*
X118710000Y-16974560D01*
X116910000Y-16974560D01*
X116674683Y-17018838D01*
X116458559Y-17157910D01*
X116313569Y-17370110D01*
X116262560Y-17622000D01*
X115038624Y-17622000D01*
X115013162Y-17486683D01*
X114874090Y-17270559D01*
X114661890Y-17125569D01*
X114410000Y-17074560D01*
X112410000Y-17074560D01*
X112174683Y-17118838D01*
X111958559Y-17257910D01*
X111813569Y-17470110D01*
X111762560Y-17722000D01*
X111762560Y-19522000D01*
X111806838Y-19757317D01*
X111945910Y-19973441D01*
X112158110Y-20118431D01*
X112410000Y-20169440D01*
X112650000Y-20169440D01*
X112650000Y-21015198D01*
X110528000Y-23137198D01*
X110528000Y-14221834D01*
X111364543Y-14221834D01*
X111764853Y-15190658D01*
X112505443Y-15932542D01*
X113473567Y-16334542D01*
X114521834Y-16335457D01*
X115490658Y-15935147D01*
X116232542Y-15194557D01*
X116634542Y-14226433D01*
X116635457Y-13178166D01*
X116582008Y-13048810D01*
X119246878Y-15713680D01*
X119246838Y-15759167D01*
X119388883Y-16102943D01*
X119651673Y-16366192D01*
X119995201Y-16508838D01*
X120367167Y-16509162D01*
X120710943Y-16367117D01*
X120974192Y-16104327D01*
X121116838Y-15760799D01*
X121117162Y-15388833D01*
X120975117Y-15045057D01*
X120712327Y-14781808D01*
X120368799Y-14639162D01*
X120321923Y-14639121D01*
X116327440Y-10644638D01*
X116327440Y-9086000D01*
X116283162Y-8850683D01*
X116144090Y-8634559D01*
X115931890Y-8489569D01*
X115680000Y-8438560D01*
X113680000Y-8438560D01*
X113444683Y-8482838D01*
X113228559Y-8621910D01*
X113083569Y-8834110D01*
X113032560Y-9086000D01*
X113032560Y-10886000D01*
X113076838Y-11121317D01*
X113132272Y-11207464D01*
X112509342Y-11464853D01*
X111767458Y-12205443D01*
X111365458Y-13173567D01*
X111364543Y-14221834D01*
X110528000Y-14221834D01*
X110528000Y-11801440D01*
X110668000Y-11801440D01*
X110903317Y-11757162D01*
X111119441Y-11618090D01*
X111264431Y-11405890D01*
X111315440Y-11154000D01*
X111315440Y-9154000D01*
X111271162Y-8918683D01*
X111132090Y-8702559D01*
X110919890Y-8557569D01*
X110668000Y-8506560D01*
X108868000Y-8506560D01*
X108632683Y-8550838D01*
X108416559Y-8689910D01*
X108271569Y-8902110D01*
X108220560Y-9154000D01*
X108220560Y-9867158D01*
X108174831Y-9756485D01*
X107785564Y-9366539D01*
X107276702Y-9155241D01*
X106725715Y-9154760D01*
X106216485Y-9365169D01*
X105826539Y-9754436D01*
X105615241Y-10263298D01*
X105614760Y-10814285D01*
X105825169Y-11323515D01*
X106214436Y-11713461D01*
X106723298Y-11924759D01*
X107274285Y-11925240D01*
X107783515Y-11714831D01*
X108173461Y-11325564D01*
X108228088Y-11194008D01*
X108264838Y-11389317D01*
X108403910Y-11605441D01*
X108616110Y-11750431D01*
X108868000Y-11801440D01*
X109008000Y-11801440D01*
X109008000Y-23641198D01*
X108104099Y-24545099D01*
X107804833Y-24544838D01*
X107461057Y-24686883D01*
X107197808Y-24949673D01*
X107055162Y-25293201D01*
X107054838Y-25665167D01*
X107196883Y-26008943D01*
X107364230Y-26176583D01*
X107309162Y-26309201D01*
X107308838Y-26681167D01*
X107450883Y-27024943D01*
X107545059Y-27119283D01*
X107351161Y-27157852D01*
X107104599Y-27322599D01*
X106090638Y-28336560D01*
X104704000Y-28336560D01*
X104468683Y-28380838D01*
X104252559Y-28519910D01*
X104107569Y-28732110D01*
X104056560Y-28984000D01*
X104056560Y-30784000D01*
X104100838Y-31019317D01*
X104239910Y-31235441D01*
X104452110Y-31380431D01*
X104704000Y-31431440D01*
X106470000Y-31431440D01*
X106470000Y-32636560D01*
X104804000Y-32636560D01*
X104568683Y-32680838D01*
X104352559Y-32819910D01*
X104207569Y-33032110D01*
X104156560Y-33284000D01*
X104156560Y-35284000D01*
X104200838Y-35519317D01*
X104339910Y-35735441D01*
X104552110Y-35880431D01*
X104804000Y-35931440D01*
X106470000Y-35931440D01*
X106470000Y-38650560D01*
X104804000Y-38650560D01*
X104568683Y-38694838D01*
X104352559Y-38833910D01*
X104207569Y-39046110D01*
X104156560Y-39298000D01*
X104156560Y-40770638D01*
X103924000Y-41003198D01*
X103924000Y-27058463D01*
X103956192Y-27026327D01*
X104098838Y-26682799D01*
X104099162Y-26310833D01*
X103957117Y-25967057D01*
X103694327Y-25703808D01*
X103350799Y-25561162D01*
X103336930Y-25561150D01*
X103337162Y-25294833D01*
X103195117Y-24951057D01*
X102932327Y-24687808D01*
X102588799Y-24545162D01*
X102216833Y-24544838D01*
X101873057Y-24686883D01*
X101609808Y-24949673D01*
X101467162Y-25293201D01*
X101466838Y-25665167D01*
X101608883Y-26008943D01*
X101642000Y-26042118D01*
X101642000Y-74955537D01*
X101609808Y-74987673D01*
X101467162Y-75331201D01*
X101466838Y-75703167D01*
X101608883Y-76046943D01*
X101642000Y-76080118D01*
X101642000Y-76534000D01*
X101699852Y-76824839D01*
X101864599Y-77071401D01*
X105166599Y-80373401D01*
X105413160Y-80538148D01*
X105475807Y-80550609D01*
X107962599Y-83037401D01*
X108209160Y-83202148D01*
X108500000Y-83260000D01*
X112917847Y-83260000D01*
X112707808Y-83469673D01*
X112565162Y-83813201D01*
X112565008Y-83990000D01*
X112562463Y-83990000D01*
X112530327Y-83957808D01*
X112186799Y-83815162D01*
X111814833Y-83814838D01*
X111471057Y-83956883D01*
X111207808Y-84219673D01*
X111065162Y-84563201D01*
X111065161Y-84564838D01*
X110721057Y-84706883D01*
X110457808Y-84969673D01*
X110315162Y-85313201D01*
X110314838Y-85685167D01*
X110456883Y-86028943D01*
X110719673Y-86292192D01*
X111063201Y-86434838D01*
X111435167Y-86435162D01*
X111778943Y-86293117D01*
X111812118Y-86260000D01*
X120568756Y-86260000D01*
X120458559Y-86330910D01*
X120313569Y-86543110D01*
X120262560Y-86795000D01*
X120262560Y-88065000D01*
X120306838Y-88300317D01*
X120445910Y-88516441D01*
X120658110Y-88661431D01*
X120910000Y-88712440D01*
X124510000Y-88712440D01*
X124745317Y-88668162D01*
X124961441Y-88529090D01*
X125106431Y-88316890D01*
X125132127Y-88190000D01*
X131367659Y-88190000D01*
X131469673Y-88292192D01*
X131813201Y-88434838D01*
X132185167Y-88435162D01*
X132290000Y-88391846D01*
X132290000Y-103608015D01*
X132186799Y-103565162D01*
X131814833Y-103564838D01*
X131471057Y-103706883D01*
X131437882Y-103740000D01*
X129562463Y-103740000D01*
X129530327Y-103707808D01*
X129186799Y-103565162D01*
X128814833Y-103564838D01*
X128471057Y-103706883D01*
X128249995Y-103927560D01*
X124810000Y-103927560D01*
X124574683Y-103971838D01*
X124358559Y-104110910D01*
X124213569Y-104323110D01*
X124162560Y-104575000D01*
X124162560Y-105740000D01*
X116558937Y-105740000D01*
X116684838Y-105436799D01*
X116685162Y-105064833D01*
X116543117Y-104721057D01*
X116280327Y-104457808D01*
X115936799Y-104315162D01*
X115564833Y-104314838D01*
X115237715Y-104450000D01*
X108713920Y-104450000D01*
X108693162Y-104339683D01*
X108554090Y-104123559D01*
X108341890Y-103978569D01*
X108090000Y-103927560D01*
X107813403Y-103927560D01*
X107930148Y-103752839D01*
X107988000Y-103462000D01*
X107988000Y-103458000D01*
X107930148Y-103167161D01*
X107765401Y-102920599D01*
X107518839Y-102755852D01*
X107228000Y-102698000D01*
X106937161Y-102755852D01*
X106690599Y-102920599D01*
X106689798Y-102921798D01*
X106688599Y-102922599D01*
X106523852Y-103169161D01*
X106466000Y-103460000D01*
X106523852Y-103750839D01*
X106641933Y-103927560D01*
X104490000Y-103927560D01*
X104254683Y-103971838D01*
X104038559Y-104110910D01*
X103893569Y-104323110D01*
X103842560Y-104575000D01*
X103842560Y-105845000D01*
X103886838Y-106080317D01*
X104025910Y-106296441D01*
X104238110Y-106441431D01*
X104490000Y-106492440D01*
X105815006Y-106492440D01*
X105814838Y-106685167D01*
X105940792Y-106990000D01*
X104813920Y-106990000D01*
X104793162Y-106879683D01*
X104654090Y-106663559D01*
X104441890Y-106518569D01*
X104190000Y-106467560D01*
X100710000Y-106467560D01*
X100710000Y-103952440D01*
X104190000Y-103952440D01*
X104425317Y-103908162D01*
X104641441Y-103769090D01*
X104786431Y-103556890D01*
X104837440Y-103305000D01*
X104837440Y-102737362D01*
X105564802Y-102010000D01*
X114437537Y-102010000D01*
X114469673Y-102042192D01*
X114813201Y-102184838D01*
X115185167Y-102185162D01*
X115528943Y-102043117D01*
X115537074Y-102035000D01*
X120262560Y-102035000D01*
X120262560Y-103305000D01*
X120306838Y-103540317D01*
X120445910Y-103756441D01*
X120658110Y-103901431D01*
X120910000Y-103952440D01*
X122321975Y-103952440D01*
X122456883Y-104278943D01*
X122719673Y-104542192D01*
X123063201Y-104684838D01*
X123435167Y-104685162D01*
X123778943Y-104543117D01*
X124042192Y-104280327D01*
X124178343Y-103952440D01*
X124510000Y-103952440D01*
X124745317Y-103908162D01*
X124961441Y-103769090D01*
X125106431Y-103556890D01*
X125157440Y-103305000D01*
X125157440Y-102035000D01*
X125113162Y-101799683D01*
X124974090Y-101583559D01*
X124761890Y-101438569D01*
X124510000Y-101387560D01*
X120910000Y-101387560D01*
X120674683Y-101431838D01*
X120458559Y-101570910D01*
X120313569Y-101783110D01*
X120262560Y-102035000D01*
X115537074Y-102035000D01*
X115792192Y-101780327D01*
X115934838Y-101436799D01*
X115935162Y-101064833D01*
X115793117Y-100721057D01*
X115530327Y-100457808D01*
X115475802Y-100435167D01*
X121564838Y-100435167D01*
X121706883Y-100778943D01*
X121969673Y-101042192D01*
X122313201Y-101184838D01*
X122685167Y-101185162D01*
X123028943Y-101043117D01*
X123182327Y-100890000D01*
X124186080Y-100890000D01*
X124206838Y-101000317D01*
X124345910Y-101216441D01*
X124558110Y-101361431D01*
X124810000Y-101412440D01*
X128410000Y-101412440D01*
X128645317Y-101368162D01*
X128861441Y-101229090D01*
X129006431Y-101016890D01*
X129057440Y-100765000D01*
X129057440Y-99495000D01*
X129013162Y-99259683D01*
X128874090Y-99043559D01*
X128661890Y-98898569D01*
X128410000Y-98847560D01*
X124810000Y-98847560D01*
X124574683Y-98891838D01*
X124358559Y-99030910D01*
X124213569Y-99243110D01*
X124187873Y-99370000D01*
X122818863Y-99370000D01*
X122686799Y-99315162D01*
X122314833Y-99314838D01*
X121971057Y-99456883D01*
X121707808Y-99719673D01*
X121565162Y-100063201D01*
X121564838Y-100435167D01*
X115475802Y-100435167D01*
X115186799Y-100315162D01*
X114814833Y-100314838D01*
X114471057Y-100456883D01*
X114437882Y-100490000D01*
X108737440Y-100490000D01*
X108737440Y-99495000D01*
X108693222Y-99260000D01*
X113687537Y-99260000D01*
X113719673Y-99292192D01*
X114063201Y-99434838D01*
X114435167Y-99435162D01*
X114778943Y-99293117D01*
X115042192Y-99030327D01*
X115184838Y-98686799D01*
X115185131Y-98350000D01*
X120286080Y-98350000D01*
X120306838Y-98460317D01*
X120445910Y-98676441D01*
X120658110Y-98821431D01*
X120910000Y-98872440D01*
X124510000Y-98872440D01*
X124745317Y-98828162D01*
X124961441Y-98689090D01*
X125106431Y-98476890D01*
X125157440Y-98225000D01*
X125157440Y-97434920D01*
X125435167Y-97435162D01*
X125778943Y-97293117D01*
X126042192Y-97030327D01*
X126184838Y-96686799D01*
X126185147Y-96332440D01*
X128410000Y-96332440D01*
X128645317Y-96288162D01*
X128861441Y-96149090D01*
X129006431Y-95936890D01*
X129057440Y-95685000D01*
X129057440Y-94415000D01*
X129013162Y-94179683D01*
X128874090Y-93963559D01*
X128661890Y-93818569D01*
X128410000Y-93767560D01*
X124810000Y-93767560D01*
X124574683Y-93811838D01*
X124358559Y-93950910D01*
X124213569Y-94163110D01*
X124187873Y-94290000D01*
X122362376Y-94290000D01*
X122280327Y-94207808D01*
X121936799Y-94065162D01*
X121564833Y-94064838D01*
X121221057Y-94206883D01*
X120957808Y-94469673D01*
X120815162Y-94813201D01*
X120814838Y-95185167D01*
X120940792Y-95490000D01*
X115064802Y-95490000D01*
X114037401Y-94462599D01*
X113790839Y-94297852D01*
X113500000Y-94240000D01*
X113312463Y-94240000D01*
X113280327Y-94207808D01*
X112936799Y-94065162D01*
X112564833Y-94064838D01*
X112221057Y-94206883D01*
X112137795Y-94290000D01*
X108713920Y-94290000D01*
X108693162Y-94179683D01*
X108554090Y-93963559D01*
X108341890Y-93818569D01*
X108090000Y-93767560D01*
X104490000Y-93767560D01*
X104254683Y-93811838D01*
X104038559Y-93950910D01*
X103893569Y-94163110D01*
X103842560Y-94415000D01*
X103842560Y-95685000D01*
X103886838Y-95920317D01*
X104025910Y-96136441D01*
X104182063Y-96243135D01*
X104117638Y-96307560D01*
X100710000Y-96307560D01*
X100710000Y-93792440D01*
X104190000Y-93792440D01*
X104425317Y-93748162D01*
X104641441Y-93609090D01*
X104786431Y-93396890D01*
X104837440Y-93145000D01*
X104837440Y-92737362D01*
X104889635Y-92685167D01*
X120064838Y-92685167D01*
X120206883Y-93028943D01*
X120262560Y-93084717D01*
X120262560Y-93145000D01*
X120306838Y-93380317D01*
X120445910Y-93596441D01*
X120658110Y-93741431D01*
X120910000Y-93792440D01*
X124510000Y-93792440D01*
X124745317Y-93748162D01*
X124961441Y-93609090D01*
X125106431Y-93396890D01*
X125157440Y-93145000D01*
X125157440Y-91875000D01*
X125113162Y-91639683D01*
X124974090Y-91423559D01*
X124761890Y-91278569D01*
X124510000Y-91227560D01*
X120910000Y-91227560D01*
X120674683Y-91271838D01*
X120458559Y-91410910D01*
X120313569Y-91623110D01*
X120262560Y-91875000D01*
X120262560Y-91915016D01*
X120207808Y-91969673D01*
X120065162Y-92313201D01*
X120064838Y-92685167D01*
X104889635Y-92685167D01*
X105564802Y-92010000D01*
X111437537Y-92010000D01*
X111469673Y-92042192D01*
X111813201Y-92184838D01*
X112185167Y-92185162D01*
X112528943Y-92043117D01*
X112792192Y-91780327D01*
X112934838Y-91436799D01*
X112935162Y-91064833D01*
X112793117Y-90721057D01*
X112530327Y-90457808D01*
X112186799Y-90315162D01*
X112131557Y-90315114D01*
X112184838Y-90186799D01*
X112184839Y-90185167D01*
X119314838Y-90185167D01*
X119456883Y-90528943D01*
X119719673Y-90792192D01*
X120063201Y-90934838D01*
X120435167Y-90935162D01*
X120778943Y-90793117D01*
X120842170Y-90730000D01*
X124186080Y-90730000D01*
X124206838Y-90840317D01*
X124345910Y-91056441D01*
X124558110Y-91201431D01*
X124810000Y-91252440D01*
X128410000Y-91252440D01*
X128645317Y-91208162D01*
X128861441Y-91069090D01*
X129006431Y-90856890D01*
X129057440Y-90605000D01*
X129057440Y-89335000D01*
X129013162Y-89099683D01*
X128874090Y-88883559D01*
X128661890Y-88738569D01*
X128410000Y-88687560D01*
X124810000Y-88687560D01*
X124574683Y-88731838D01*
X124358559Y-88870910D01*
X124213569Y-89083110D01*
X124187873Y-89210000D01*
X120782515Y-89210000D01*
X120780327Y-89207808D01*
X120436799Y-89065162D01*
X120064833Y-89064838D01*
X119721057Y-89206883D01*
X119457808Y-89469673D01*
X119315162Y-89813201D01*
X119314838Y-90185167D01*
X112184839Y-90185167D01*
X112185162Y-89814833D01*
X112043117Y-89471057D01*
X111780327Y-89207808D01*
X111436799Y-89065162D01*
X111064833Y-89064838D01*
X110721057Y-89206883D01*
X110717935Y-89210000D01*
X108713920Y-89210000D01*
X108693162Y-89099683D01*
X108554090Y-88883559D01*
X108341890Y-88738569D01*
X108090000Y-88687560D01*
X104490000Y-88687560D01*
X104254683Y-88731838D01*
X104038559Y-88870910D01*
X103893569Y-89083110D01*
X103842560Y-89335000D01*
X103842560Y-90605000D01*
X103886838Y-90840317D01*
X104025910Y-91056441D01*
X104229589Y-91195609D01*
X104196352Y-91228846D01*
X104190000Y-91227560D01*
X100710000Y-91227560D01*
X100710000Y-88700000D01*
X102104250Y-88700000D01*
X102263000Y-88541250D01*
X102263000Y-87557000D01*
X102517000Y-87557000D01*
X102517000Y-88541250D01*
X102675750Y-88700000D01*
X104316309Y-88700000D01*
X104549698Y-88603327D01*
X104728327Y-88424699D01*
X104825000Y-88191310D01*
X104825000Y-87715750D01*
X104666250Y-87557000D01*
X102517000Y-87557000D01*
X102263000Y-87557000D01*
X102243000Y-87557000D01*
X102243000Y-87303000D01*
X102263000Y-87303000D01*
X102263000Y-86318750D01*
X102517000Y-86318750D01*
X102517000Y-87303000D01*
X104666250Y-87303000D01*
X104825000Y-87144250D01*
X104825000Y-86668690D01*
X104728327Y-86435301D01*
X104549698Y-86256673D01*
X104316309Y-86160000D01*
X102675750Y-86160000D01*
X102517000Y-86318750D01*
X102263000Y-86318750D01*
X102104250Y-86160000D01*
X100710000Y-86160000D01*
X100710000Y-21557135D01*
X101654653Y-22503438D01*
X103173889Y-23134280D01*
X104818894Y-23135716D01*
X106339229Y-22507526D01*
X107503438Y-21345347D01*
X108134280Y-19826111D01*
X108135716Y-18181106D01*
X107507526Y-16660771D01*
X106345347Y-15496562D01*
X104826111Y-14865720D01*
X103181106Y-14864284D01*
X101660771Y-15492474D01*
X100710000Y-16441587D01*
X100710000Y-5734285D01*
X105614760Y-5734285D01*
X105825169Y-6243515D01*
X106214436Y-6633461D01*
X106723298Y-6844759D01*
X107274285Y-6845240D01*
X107783515Y-6634831D01*
X108120560Y-6298373D01*
X108120560Y-6654000D01*
X108164838Y-6889317D01*
X108303910Y-7105441D01*
X108516110Y-7250431D01*
X108768000Y-7301440D01*
X110768000Y-7301440D01*
X111003317Y-7257162D01*
X111219441Y-7118090D01*
X111364431Y-6905890D01*
X111415440Y-6654000D01*
X111415440Y-4854000D01*
X111371162Y-4618683D01*
X111232090Y-4402559D01*
X111019890Y-4257569D01*
X110768000Y-4206560D01*
X108768000Y-4206560D01*
X108532683Y-4250838D01*
X108316559Y-4389910D01*
X108171569Y-4602110D01*
X108159598Y-4661225D01*
X107785564Y-4286539D01*
X107276702Y-4075241D01*
X106725715Y-4074760D01*
X106216485Y-4285169D01*
X105826539Y-4674436D01*
X105615241Y-5183298D01*
X105614760Y-5734285D01*
X100710000Y-5734285D01*
X100710000Y-710000D01*
X111863068Y-710000D01*
X111767458Y-805443D01*
M02*
