G04 #@! TF.FileFunction,Legend,Bot*
%FSLAX46Y46*%
G04 Gerber Fmt 4.6, Leading zero omitted, Abs format (unit mm)*
G04 Created by KiCad (PCBNEW 4.0.4+e1-6308~48~ubuntu14.04.1-stable) date Thu Sep  7 12:23:15 2017*
%MOMM*%
%LPD*%
G01*
G04 APERTURE LIST*
%ADD10C,0.100000*%
%ADD11C,0.300000*%
%ADD12C,0.150000*%
G04 APERTURE END LIST*
D10*
D11*
X130892857Y-131500000D02*
X131035714Y-131428571D01*
X131250000Y-131428571D01*
X131464285Y-131500000D01*
X131607143Y-131642857D01*
X131678571Y-131785714D01*
X131750000Y-132071429D01*
X131750000Y-132285714D01*
X131678571Y-132571429D01*
X131607143Y-132714286D01*
X131464285Y-132857143D01*
X131250000Y-132928571D01*
X131107143Y-132928571D01*
X130892857Y-132857143D01*
X130821428Y-132785714D01*
X130821428Y-132285714D01*
X131107143Y-132285714D01*
X130178571Y-132928571D02*
X130178571Y-131428571D01*
X129321428Y-132928571D01*
X129321428Y-131428571D01*
X128607142Y-132928571D02*
X128607142Y-131428571D01*
X128249999Y-131428571D01*
X128035714Y-131500000D01*
X127892856Y-131642857D01*
X127821428Y-131785714D01*
X127749999Y-132071429D01*
X127749999Y-132285714D01*
X127821428Y-132571429D01*
X127892856Y-132714286D01*
X128035714Y-132857143D01*
X128249999Y-132928571D01*
X128607142Y-132928571D01*
D12*
X122000000Y-151540000D02*
X121420000Y-151540000D01*
X121420000Y-151540000D02*
X121420000Y-146460000D01*
X121420000Y-146460000D02*
X122000000Y-146460000D01*
X122000000Y-164360000D02*
X122000000Y-133640000D01*
X122000000Y-133640000D02*
X131000000Y-133640000D01*
X131000000Y-133640000D02*
X131000000Y-164360000D01*
X131000000Y-164360000D02*
X122000000Y-164360000D01*
X109000000Y-132030000D02*
X109000000Y-128070000D01*
X109000000Y-128070000D02*
X120000000Y-128070000D01*
X120000000Y-128070000D02*
X120000000Y-132030000D01*
X103000000Y-81030000D02*
X103000000Y-132030000D01*
X103000000Y-132030000D02*
X126000000Y-132030000D01*
X126000000Y-132030000D02*
X126000000Y-81030000D01*
X126000000Y-81030000D02*
X103000000Y-81030000D01*
X122722000Y-177245000D02*
X121706000Y-177245000D01*
X122214000Y-176991000D02*
X122722000Y-176356000D01*
X122722000Y-176356000D02*
X121706000Y-176356000D01*
X121706000Y-176356000D02*
X122214000Y-176991000D01*
D10*
X120964000Y-179110000D02*
X120964000Y-174110000D01*
X123464000Y-179110000D02*
X123464000Y-174110000D01*
D12*
X121706000Y-168609000D02*
X122722000Y-168609000D01*
X122214000Y-168863000D02*
X121706000Y-169498000D01*
X121706000Y-169498000D02*
X122722000Y-169498000D01*
X122722000Y-169498000D02*
X122214000Y-168863000D01*
D10*
X123464000Y-166744000D02*
X123464000Y-171744000D01*
X120964000Y-166744000D02*
X120964000Y-171744000D01*
D12*
X112181000Y-182706000D02*
X112181000Y-181690000D01*
X112435000Y-182198000D02*
X113070000Y-182706000D01*
X113070000Y-182706000D02*
X113070000Y-181690000D01*
X113070000Y-181690000D02*
X112435000Y-182198000D01*
D10*
X110316000Y-180948000D02*
X115316000Y-180948000D01*
X110316000Y-183448000D02*
X115316000Y-183448000D01*
D12*
X105196000Y-167085000D02*
X106212000Y-167085000D01*
X105704000Y-167339000D02*
X105196000Y-167974000D01*
X105196000Y-167974000D02*
X106212000Y-167974000D01*
X106212000Y-167974000D02*
X105704000Y-167339000D01*
D10*
X106954000Y-165220000D02*
X106954000Y-170220000D01*
X104454000Y-165220000D02*
X104454000Y-170220000D01*
D12*
X106212000Y-177245000D02*
X105196000Y-177245000D01*
X105704000Y-176991000D02*
X106212000Y-176356000D01*
X106212000Y-176356000D02*
X105196000Y-176356000D01*
X105196000Y-176356000D02*
X105704000Y-176991000D01*
D10*
X104454000Y-179110000D02*
X104454000Y-174110000D01*
X106954000Y-179110000D02*
X106954000Y-174110000D01*
D12*
X117007000Y-72470000D02*
X117007000Y-73486000D01*
X116753000Y-72978000D02*
X116118000Y-72470000D01*
X116118000Y-72470000D02*
X116118000Y-73486000D01*
X116118000Y-73486000D02*
X116753000Y-72978000D01*
D10*
X118872000Y-74228000D02*
X113872000Y-74228000D01*
X118872000Y-71728000D02*
X113872000Y-71728000D01*
D12*
X109514000Y-70565000D02*
X110530000Y-70565000D01*
X110022000Y-70819000D02*
X109514000Y-71454000D01*
X109514000Y-71454000D02*
X110530000Y-71454000D01*
X110530000Y-71454000D02*
X110022000Y-70819000D01*
D10*
X111272000Y-68700000D02*
X111272000Y-73700000D01*
X108772000Y-68700000D02*
X108772000Y-73700000D01*
D12*
X117007000Y-68914000D02*
X117007000Y-69930000D01*
X116753000Y-69422000D02*
X116118000Y-68914000D01*
X116118000Y-68914000D02*
X116118000Y-69930000D01*
X116118000Y-69930000D02*
X116753000Y-69422000D01*
D10*
X118872000Y-70672000D02*
X113872000Y-70672000D01*
X118872000Y-68172000D02*
X113872000Y-68172000D01*
D12*
X112181000Y-49610000D02*
X112181000Y-48594000D01*
X112435000Y-49102000D02*
X113070000Y-49610000D01*
X113070000Y-49610000D02*
X113070000Y-48594000D01*
X113070000Y-48594000D02*
X112435000Y-49102000D01*
D10*
X110316000Y-47852000D02*
X115316000Y-47852000D01*
X110316000Y-50352000D02*
X115316000Y-50352000D01*
D12*
X122722000Y-42879000D02*
X121706000Y-42879000D01*
X122214000Y-42625000D02*
X122722000Y-41990000D01*
X122722000Y-41990000D02*
X121706000Y-41990000D01*
X121706000Y-41990000D02*
X122214000Y-42625000D01*
D10*
X120964000Y-44744000D02*
X120964000Y-39744000D01*
X123464000Y-44744000D02*
X123464000Y-39744000D01*
D12*
X106212000Y-43133000D02*
X105196000Y-43133000D01*
X105704000Y-42879000D02*
X106212000Y-42244000D01*
X106212000Y-42244000D02*
X105196000Y-42244000D01*
X105196000Y-42244000D02*
X105704000Y-42879000D01*
D10*
X104454000Y-44998000D02*
X104454000Y-39998000D01*
X106954000Y-44998000D02*
X106954000Y-39998000D01*
D12*
X121706000Y-31195000D02*
X122722000Y-31195000D01*
X122214000Y-31449000D02*
X121706000Y-32084000D01*
X121706000Y-32084000D02*
X122722000Y-32084000D01*
X122722000Y-32084000D02*
X122214000Y-31449000D01*
D10*
X123464000Y-29330000D02*
X123464000Y-34330000D01*
X120964000Y-29330000D02*
X120964000Y-34330000D01*
D12*
X105196000Y-31449000D02*
X106212000Y-31449000D01*
X105704000Y-31703000D02*
X105196000Y-32338000D01*
X105196000Y-32338000D02*
X106212000Y-32338000D01*
X106212000Y-32338000D02*
X105704000Y-31703000D01*
D10*
X106954000Y-29584000D02*
X106954000Y-34584000D01*
X104454000Y-29584000D02*
X104454000Y-34584000D01*
D12*
X117515000Y-5668000D02*
X117515000Y-6684000D01*
X117261000Y-6176000D02*
X116626000Y-5668000D01*
X116626000Y-5668000D02*
X116626000Y-6684000D01*
X116626000Y-6684000D02*
X117261000Y-6176000D01*
D10*
X119380000Y-7426000D02*
X114380000Y-7426000D01*
X119380000Y-4926000D02*
X114380000Y-4926000D01*
D12*
X117515000Y-9478000D02*
X117515000Y-10494000D01*
X117261000Y-9986000D02*
X116626000Y-9478000D01*
X116626000Y-9478000D02*
X116626000Y-10494000D01*
X116626000Y-10494000D02*
X117261000Y-9986000D01*
D10*
X119380000Y-11236000D02*
X114380000Y-11236000D01*
X119380000Y-8736000D02*
X114380000Y-8736000D01*
D12*
X109260000Y-7319000D02*
X110276000Y-7319000D01*
X109768000Y-7573000D02*
X109260000Y-8208000D01*
X109260000Y-8208000D02*
X110276000Y-8208000D01*
X110276000Y-8208000D02*
X109768000Y-7573000D01*
D10*
X111018000Y-5454000D02*
X111018000Y-10454000D01*
X108518000Y-5454000D02*
X108518000Y-10454000D01*
D12*
X116245000Y-18114000D02*
X116245000Y-19130000D01*
X115991000Y-18622000D02*
X115356000Y-18114000D01*
X115356000Y-18114000D02*
X115356000Y-19130000D01*
X115356000Y-19130000D02*
X115991000Y-18622000D01*
D10*
X118110000Y-19872000D02*
X113110000Y-19872000D01*
X118110000Y-17372000D02*
X113110000Y-17372000D01*
D12*
X120078381Y-152169905D02*
X119078381Y-152169905D01*
X119078381Y-152550858D01*
X119126000Y-152646096D01*
X119173619Y-152693715D01*
X119268857Y-152741334D01*
X119411714Y-152741334D01*
X119506952Y-152693715D01*
X119554571Y-152646096D01*
X119602190Y-152550858D01*
X119602190Y-152169905D01*
X120078381Y-153693715D02*
X120078381Y-153122286D01*
X120078381Y-153408000D02*
X119078381Y-153408000D01*
X119221238Y-153312762D01*
X119316476Y-153217524D01*
X119364095Y-153122286D01*
X115261905Y-107202381D02*
X115261905Y-108011905D01*
X115214286Y-108107143D01*
X115166667Y-108154762D01*
X115071429Y-108202381D01*
X114880952Y-108202381D01*
X114785714Y-108154762D01*
X114738095Y-108107143D01*
X114690476Y-108011905D01*
X114690476Y-107202381D01*
X113690476Y-108202381D02*
X114261905Y-108202381D01*
X113976191Y-108202381D02*
X113976191Y-107202381D01*
X114071429Y-107345238D01*
X114166667Y-107440476D01*
X114261905Y-107488095D01*
X118892857Y-105928571D02*
X119226191Y-105928571D01*
X119226191Y-106452381D02*
X119226191Y-105452381D01*
X118750000Y-105452381D01*
X117988095Y-106404762D02*
X118083333Y-106452381D01*
X118273810Y-106452381D01*
X118369048Y-106404762D01*
X118416667Y-106309524D01*
X118416667Y-105928571D01*
X118369048Y-105833333D01*
X118273810Y-105785714D01*
X118083333Y-105785714D01*
X117988095Y-105833333D01*
X117940476Y-105928571D01*
X117940476Y-106023810D01*
X118416667Y-106119048D01*
X117083333Y-106452381D02*
X117083333Y-105928571D01*
X117130952Y-105833333D01*
X117226190Y-105785714D01*
X117416667Y-105785714D01*
X117511905Y-105833333D01*
X117083333Y-106404762D02*
X117178571Y-106452381D01*
X117416667Y-106452381D01*
X117511905Y-106404762D01*
X117559524Y-106309524D01*
X117559524Y-106214286D01*
X117511905Y-106119048D01*
X117416667Y-106071429D01*
X117178571Y-106071429D01*
X117083333Y-106023810D01*
X116750000Y-105785714D02*
X116369048Y-105785714D01*
X116607143Y-105452381D02*
X116607143Y-106309524D01*
X116559524Y-106404762D01*
X116464286Y-106452381D01*
X116369048Y-106452381D01*
X116035714Y-106452381D02*
X116035714Y-105452381D01*
X115607142Y-106452381D02*
X115607142Y-105928571D01*
X115654761Y-105833333D01*
X115749999Y-105785714D01*
X115892857Y-105785714D01*
X115988095Y-105833333D01*
X116035714Y-105880952D01*
X114749999Y-106404762D02*
X114845237Y-106452381D01*
X115035714Y-106452381D01*
X115130952Y-106404762D01*
X115178571Y-106309524D01*
X115178571Y-105928571D01*
X115130952Y-105833333D01*
X115035714Y-105785714D01*
X114845237Y-105785714D01*
X114749999Y-105833333D01*
X114702380Y-105928571D01*
X114702380Y-106023810D01*
X115178571Y-106119048D01*
X114273809Y-106452381D02*
X114273809Y-105785714D01*
X114273809Y-105976190D02*
X114226190Y-105880952D01*
X114178571Y-105833333D01*
X114083333Y-105785714D01*
X113988094Y-105785714D01*
X113892856Y-106547619D02*
X113130951Y-106547619D01*
X112892856Y-106452381D02*
X112892856Y-105452381D01*
X112559522Y-106166667D01*
X112226189Y-105452381D01*
X112226189Y-106452381D01*
X111559523Y-105452381D02*
X111464284Y-105452381D01*
X111369046Y-105500000D01*
X111321427Y-105547619D01*
X111273808Y-105642857D01*
X111226189Y-105833333D01*
X111226189Y-106071429D01*
X111273808Y-106261905D01*
X111321427Y-106357143D01*
X111369046Y-106404762D01*
X111464284Y-106452381D01*
X111559523Y-106452381D01*
X111654761Y-106404762D01*
X111702380Y-106357143D01*
X111749999Y-106261905D01*
X111797618Y-106071429D01*
X111797618Y-105833333D01*
X111749999Y-105642857D01*
X111702380Y-105547619D01*
X111654761Y-105500000D01*
X111559523Y-105452381D01*
X124702381Y-176511905D02*
X123702381Y-176511905D01*
X123702381Y-176750000D01*
X123750000Y-176892858D01*
X123845238Y-176988096D01*
X123940476Y-177035715D01*
X124130952Y-177083334D01*
X124273810Y-177083334D01*
X124464286Y-177035715D01*
X124559524Y-176988096D01*
X124654762Y-176892858D01*
X124702381Y-176750000D01*
X124702381Y-176511905D01*
X123702381Y-177416667D02*
X123702381Y-178083334D01*
X124702381Y-177654762D01*
X124650381Y-167949714D02*
X123650381Y-167949714D01*
X123650381Y-168187809D01*
X123698000Y-168330667D01*
X123793238Y-168425905D01*
X123888476Y-168473524D01*
X124078952Y-168521143D01*
X124221810Y-168521143D01*
X124412286Y-168473524D01*
X124507524Y-168425905D01*
X124602762Y-168330667D01*
X124650381Y-168187809D01*
X124650381Y-167949714D01*
X124650381Y-169473524D02*
X124650381Y-168902095D01*
X124650381Y-169187809D02*
X123650381Y-169187809D01*
X123793238Y-169092571D01*
X123888476Y-168997333D01*
X123936095Y-168902095D01*
X124078952Y-170044952D02*
X124031333Y-169949714D01*
X123983714Y-169902095D01*
X123888476Y-169854476D01*
X123840857Y-169854476D01*
X123745619Y-169902095D01*
X123698000Y-169949714D01*
X123650381Y-170044952D01*
X123650381Y-170235429D01*
X123698000Y-170330667D01*
X123745619Y-170378286D01*
X123840857Y-170425905D01*
X123888476Y-170425905D01*
X123983714Y-170378286D01*
X124031333Y-170330667D01*
X124078952Y-170235429D01*
X124078952Y-170044952D01*
X124126571Y-169949714D01*
X124174190Y-169902095D01*
X124269429Y-169854476D01*
X124459905Y-169854476D01*
X124555143Y-169902095D01*
X124602762Y-169949714D01*
X124650381Y-170044952D01*
X124650381Y-170235429D01*
X124602762Y-170330667D01*
X124555143Y-170378286D01*
X124459905Y-170425905D01*
X124269429Y-170425905D01*
X124174190Y-170378286D01*
X124126571Y-170330667D01*
X124078952Y-170235429D01*
X118238095Y-182952381D02*
X118238095Y-181952381D01*
X118000000Y-181952381D01*
X117857142Y-182000000D01*
X117761904Y-182095238D01*
X117714285Y-182190476D01*
X117666666Y-182380952D01*
X117666666Y-182523810D01*
X117714285Y-182714286D01*
X117761904Y-182809524D01*
X117857142Y-182904762D01*
X118000000Y-182952381D01*
X118238095Y-182952381D01*
X116809523Y-181952381D02*
X117000000Y-181952381D01*
X117095238Y-182000000D01*
X117142857Y-182047619D01*
X117238095Y-182190476D01*
X117285714Y-182380952D01*
X117285714Y-182761905D01*
X117238095Y-182857143D01*
X117190476Y-182904762D01*
X117095238Y-182952381D01*
X116904761Y-182952381D01*
X116809523Y-182904762D01*
X116761904Y-182857143D01*
X116714285Y-182761905D01*
X116714285Y-182523810D01*
X116761904Y-182428571D01*
X116809523Y-182380952D01*
X116904761Y-182333333D01*
X117095238Y-182333333D01*
X117190476Y-182380952D01*
X117238095Y-182428571D01*
X117285714Y-182523810D01*
X104202381Y-166785714D02*
X103202381Y-166785714D01*
X103202381Y-167023809D01*
X103250000Y-167166667D01*
X103345238Y-167261905D01*
X103440476Y-167309524D01*
X103630952Y-167357143D01*
X103773810Y-167357143D01*
X103964286Y-167309524D01*
X104059524Y-167261905D01*
X104154762Y-167166667D01*
X104202381Y-167023809D01*
X104202381Y-166785714D01*
X104202381Y-168309524D02*
X104202381Y-167738095D01*
X104202381Y-168023809D02*
X103202381Y-168023809D01*
X103345238Y-167928571D01*
X103440476Y-167833333D01*
X103488095Y-167738095D01*
X103202381Y-168642857D02*
X103202381Y-169309524D01*
X104202381Y-168880952D01*
X106202381Y-180261905D02*
X105202381Y-180261905D01*
X105202381Y-180500000D01*
X105250000Y-180642858D01*
X105345238Y-180738096D01*
X105440476Y-180785715D01*
X105630952Y-180833334D01*
X105773810Y-180833334D01*
X105964286Y-180785715D01*
X106059524Y-180738096D01*
X106154762Y-180642858D01*
X106202381Y-180500000D01*
X106202381Y-180261905D01*
X105202381Y-181738096D02*
X105202381Y-181261905D01*
X105678571Y-181214286D01*
X105630952Y-181261905D01*
X105583333Y-181357143D01*
X105583333Y-181595239D01*
X105630952Y-181690477D01*
X105678571Y-181738096D01*
X105773810Y-181785715D01*
X106011905Y-181785715D01*
X106107143Y-181738096D01*
X106154762Y-181690477D01*
X106202381Y-181595239D01*
X106202381Y-181357143D01*
X106154762Y-181261905D01*
X106107143Y-181214286D01*
X118714286Y-75702381D02*
X118714286Y-74702381D01*
X118476191Y-74702381D01*
X118333333Y-74750000D01*
X118238095Y-74845238D01*
X118190476Y-74940476D01*
X118142857Y-75130952D01*
X118142857Y-75273810D01*
X118190476Y-75464286D01*
X118238095Y-75559524D01*
X118333333Y-75654762D01*
X118476191Y-75702381D01*
X118714286Y-75702381D01*
X117190476Y-75702381D02*
X117761905Y-75702381D01*
X117476191Y-75702381D02*
X117476191Y-74702381D01*
X117571429Y-74845238D01*
X117666667Y-74940476D01*
X117761905Y-74988095D01*
X116857143Y-74702381D02*
X116238095Y-74702381D01*
X116571429Y-75083333D01*
X116428571Y-75083333D01*
X116333333Y-75130952D01*
X116285714Y-75178571D01*
X116238095Y-75273810D01*
X116238095Y-75511905D01*
X116285714Y-75607143D01*
X116333333Y-75654762D01*
X116428571Y-75702381D01*
X116714286Y-75702381D01*
X116809524Y-75654762D01*
X116857143Y-75607143D01*
X112458381Y-69905714D02*
X111458381Y-69905714D01*
X111458381Y-70143809D01*
X111506000Y-70286667D01*
X111601238Y-70381905D01*
X111696476Y-70429524D01*
X111886952Y-70477143D01*
X112029810Y-70477143D01*
X112220286Y-70429524D01*
X112315524Y-70381905D01*
X112410762Y-70286667D01*
X112458381Y-70143809D01*
X112458381Y-69905714D01*
X112458381Y-71429524D02*
X112458381Y-70858095D01*
X112458381Y-71143809D02*
X111458381Y-71143809D01*
X111601238Y-71048571D01*
X111696476Y-70953333D01*
X111744095Y-70858095D01*
X111791714Y-72286667D02*
X112458381Y-72286667D01*
X111410762Y-72048571D02*
X112125048Y-71810476D01*
X112125048Y-72429524D01*
X118964286Y-67702381D02*
X118964286Y-66702381D01*
X118726191Y-66702381D01*
X118583333Y-66750000D01*
X118488095Y-66845238D01*
X118440476Y-66940476D01*
X118392857Y-67130952D01*
X118392857Y-67273810D01*
X118440476Y-67464286D01*
X118488095Y-67559524D01*
X118583333Y-67654762D01*
X118726191Y-67702381D01*
X118964286Y-67702381D01*
X117440476Y-67702381D02*
X118011905Y-67702381D01*
X117726191Y-67702381D02*
X117726191Y-66702381D01*
X117821429Y-66845238D01*
X117916667Y-66940476D01*
X118011905Y-66988095D01*
X117059524Y-66797619D02*
X117011905Y-66750000D01*
X116916667Y-66702381D01*
X116678571Y-66702381D01*
X116583333Y-66750000D01*
X116535714Y-66797619D01*
X116488095Y-66892857D01*
X116488095Y-66988095D01*
X116535714Y-67130952D01*
X117107143Y-67702381D01*
X116488095Y-67702381D01*
X109238095Y-50202381D02*
X109238095Y-49202381D01*
X109000000Y-49202381D01*
X108857142Y-49250000D01*
X108761904Y-49345238D01*
X108714285Y-49440476D01*
X108666666Y-49630952D01*
X108666666Y-49773810D01*
X108714285Y-49964286D01*
X108761904Y-50059524D01*
X108857142Y-50154762D01*
X109000000Y-50202381D01*
X109238095Y-50202381D01*
X108333333Y-49202381D02*
X107714285Y-49202381D01*
X108047619Y-49583333D01*
X107904761Y-49583333D01*
X107809523Y-49630952D01*
X107761904Y-49678571D01*
X107714285Y-49773810D01*
X107714285Y-50011905D01*
X107761904Y-50107143D01*
X107809523Y-50154762D01*
X107904761Y-50202381D01*
X108190476Y-50202381D01*
X108285714Y-50154762D01*
X108333333Y-50107143D01*
X124702381Y-41761905D02*
X123702381Y-41761905D01*
X123702381Y-42000000D01*
X123750000Y-42142858D01*
X123845238Y-42238096D01*
X123940476Y-42285715D01*
X124130952Y-42333334D01*
X124273810Y-42333334D01*
X124464286Y-42285715D01*
X124559524Y-42238096D01*
X124654762Y-42142858D01*
X124702381Y-42000000D01*
X124702381Y-41761905D01*
X124035714Y-43190477D02*
X124702381Y-43190477D01*
X123654762Y-42952381D02*
X124369048Y-42714286D01*
X124369048Y-43333334D01*
X104172381Y-41839905D02*
X103172381Y-41839905D01*
X103172381Y-42078000D01*
X103220000Y-42220858D01*
X103315238Y-42316096D01*
X103410476Y-42363715D01*
X103600952Y-42411334D01*
X103743810Y-42411334D01*
X103934286Y-42363715D01*
X104029524Y-42316096D01*
X104124762Y-42220858D01*
X104172381Y-42078000D01*
X104172381Y-41839905D01*
X103267619Y-42792286D02*
X103220000Y-42839905D01*
X103172381Y-42935143D01*
X103172381Y-43173239D01*
X103220000Y-43268477D01*
X103267619Y-43316096D01*
X103362857Y-43363715D01*
X103458095Y-43363715D01*
X103600952Y-43316096D01*
X104172381Y-42744667D01*
X104172381Y-43363715D01*
X124650381Y-30535714D02*
X123650381Y-30535714D01*
X123650381Y-30773809D01*
X123698000Y-30916667D01*
X123793238Y-31011905D01*
X123888476Y-31059524D01*
X124078952Y-31107143D01*
X124221810Y-31107143D01*
X124412286Y-31059524D01*
X124507524Y-31011905D01*
X124602762Y-30916667D01*
X124650381Y-30773809D01*
X124650381Y-30535714D01*
X124650381Y-32059524D02*
X124650381Y-31488095D01*
X124650381Y-31773809D02*
X123650381Y-31773809D01*
X123793238Y-31678571D01*
X123888476Y-31583333D01*
X123936095Y-31488095D01*
X123650381Y-32916667D02*
X123650381Y-32726190D01*
X123698000Y-32630952D01*
X123745619Y-32583333D01*
X123888476Y-32488095D01*
X124078952Y-32440476D01*
X124459905Y-32440476D01*
X124555143Y-32488095D01*
X124602762Y-32535714D01*
X124650381Y-32630952D01*
X124650381Y-32821429D01*
X124602762Y-32916667D01*
X124555143Y-32964286D01*
X124459905Y-33011905D01*
X124221810Y-33011905D01*
X124126571Y-32964286D01*
X124078952Y-32916667D01*
X124031333Y-32821429D01*
X124031333Y-32630952D01*
X124078952Y-32535714D01*
X124126571Y-32488095D01*
X124221810Y-32440476D01*
X104202381Y-31035714D02*
X103202381Y-31035714D01*
X103202381Y-31273809D01*
X103250000Y-31416667D01*
X103345238Y-31511905D01*
X103440476Y-31559524D01*
X103630952Y-31607143D01*
X103773810Y-31607143D01*
X103964286Y-31559524D01*
X104059524Y-31511905D01*
X104154762Y-31416667D01*
X104202381Y-31273809D01*
X104202381Y-31035714D01*
X104202381Y-32559524D02*
X104202381Y-31988095D01*
X104202381Y-32273809D02*
X103202381Y-32273809D01*
X103345238Y-32178571D01*
X103440476Y-32083333D01*
X103488095Y-31988095D01*
X103202381Y-33464286D02*
X103202381Y-32988095D01*
X103678571Y-32940476D01*
X103630952Y-32988095D01*
X103583333Y-33083333D01*
X103583333Y-33321429D01*
X103630952Y-33416667D01*
X103678571Y-33464286D01*
X103773810Y-33511905D01*
X104011905Y-33511905D01*
X104107143Y-33464286D01*
X104154762Y-33416667D01*
X104202381Y-33321429D01*
X104202381Y-33083333D01*
X104154762Y-32988095D01*
X104107143Y-32940476D01*
X118238095Y-4452381D02*
X118238095Y-3452381D01*
X118000000Y-3452381D01*
X117857142Y-3500000D01*
X117761904Y-3595238D01*
X117714285Y-3690476D01*
X117666666Y-3880952D01*
X117666666Y-4023810D01*
X117714285Y-4214286D01*
X117761904Y-4309524D01*
X117857142Y-4404762D01*
X118000000Y-4452381D01*
X118238095Y-4452381D01*
X117190476Y-4452381D02*
X117000000Y-4452381D01*
X116904761Y-4404762D01*
X116857142Y-4357143D01*
X116761904Y-4214286D01*
X116714285Y-4023810D01*
X116714285Y-3642857D01*
X116761904Y-3547619D01*
X116809523Y-3500000D01*
X116904761Y-3452381D01*
X117095238Y-3452381D01*
X117190476Y-3500000D01*
X117238095Y-3547619D01*
X117285714Y-3642857D01*
X117285714Y-3880952D01*
X117238095Y-3976190D01*
X117190476Y-4023810D01*
X117095238Y-4071429D01*
X116904761Y-4071429D01*
X116809523Y-4023810D01*
X116761904Y-3976190D01*
X116714285Y-3880952D01*
X118964286Y-12952381D02*
X118964286Y-11952381D01*
X118726191Y-11952381D01*
X118583333Y-12000000D01*
X118488095Y-12095238D01*
X118440476Y-12190476D01*
X118392857Y-12380952D01*
X118392857Y-12523810D01*
X118440476Y-12714286D01*
X118488095Y-12809524D01*
X118583333Y-12904762D01*
X118726191Y-12952381D01*
X118964286Y-12952381D01*
X117440476Y-12952381D02*
X118011905Y-12952381D01*
X117726191Y-12952381D02*
X117726191Y-11952381D01*
X117821429Y-12095238D01*
X117916667Y-12190476D01*
X118011905Y-12238095D01*
X116821429Y-11952381D02*
X116726190Y-11952381D01*
X116630952Y-12000000D01*
X116583333Y-12047619D01*
X116535714Y-12142857D01*
X116488095Y-12333333D01*
X116488095Y-12571429D01*
X116535714Y-12761905D01*
X116583333Y-12857143D01*
X116630952Y-12904762D01*
X116726190Y-12952381D01*
X116821429Y-12952381D01*
X116916667Y-12904762D01*
X116964286Y-12857143D01*
X117011905Y-12761905D01*
X117059524Y-12571429D01*
X117059524Y-12333333D01*
X117011905Y-12142857D01*
X116964286Y-12047619D01*
X116916667Y-12000000D01*
X116821429Y-11952381D01*
X112204381Y-6659714D02*
X111204381Y-6659714D01*
X111204381Y-6897809D01*
X111252000Y-7040667D01*
X111347238Y-7135905D01*
X111442476Y-7183524D01*
X111632952Y-7231143D01*
X111775810Y-7231143D01*
X111966286Y-7183524D01*
X112061524Y-7135905D01*
X112156762Y-7040667D01*
X112204381Y-6897809D01*
X112204381Y-6659714D01*
X112204381Y-8183524D02*
X112204381Y-7612095D01*
X112204381Y-7897809D02*
X111204381Y-7897809D01*
X111347238Y-7802571D01*
X111442476Y-7707333D01*
X111490095Y-7612095D01*
X112204381Y-9135905D02*
X112204381Y-8564476D01*
X112204381Y-8850190D02*
X111204381Y-8850190D01*
X111347238Y-8754952D01*
X111442476Y-8659714D01*
X111490095Y-8564476D01*
X116428095Y-21058381D02*
X116428095Y-20058381D01*
X116190000Y-20058381D01*
X116047142Y-20106000D01*
X115951904Y-20201238D01*
X115904285Y-20296476D01*
X115856666Y-20486952D01*
X115856666Y-20629810D01*
X115904285Y-20820286D01*
X115951904Y-20915524D01*
X116047142Y-21010762D01*
X116190000Y-21058381D01*
X116428095Y-21058381D01*
X114904285Y-21058381D02*
X115475714Y-21058381D01*
X115190000Y-21058381D02*
X115190000Y-20058381D01*
X115285238Y-20201238D01*
X115380476Y-20296476D01*
X115475714Y-20344095D01*
M02*
