G04 #@! TF.FileFunction,Copper,L2,Bot,Signal*
%FSLAX46Y46*%
G04 Gerber Fmt 4.6, Leading zero omitted, Abs format (unit mm)*
G04 Created by KiCad (PCBNEW 4.0.0-1rc2.201511291916+6190~38~ubuntu14.04.1-stable) date Mon 14 Mar 2016 12:17:33 PM PDT*
%MOMM*%
G01*
G04 APERTURE LIST*
%ADD10C,0.100000*%
%ADD11C,7.000000*%
%ADD12R,2.032000X1.727200*%
%ADD13O,2.032000X1.727200*%
%ADD14C,0.600000*%
%ADD15C,0.250000*%
%ADD16C,0.254000*%
G04 APERTURE END LIST*
D10*
D11*
X49022000Y-118618000D03*
X246380000Y-118618000D03*
D12*
X41910000Y-119380000D03*
D13*
X41910000Y-116840000D03*
X41910000Y-114300000D03*
X41910000Y-111760000D03*
X41910000Y-109220000D03*
X41910000Y-106680000D03*
X41910000Y-104140000D03*
X41910000Y-101600000D03*
D12*
X253746000Y-119380000D03*
D13*
X253746000Y-116840000D03*
X253746000Y-114300000D03*
X253746000Y-111760000D03*
X253746000Y-109220000D03*
X253746000Y-106680000D03*
X253746000Y-104140000D03*
X253746000Y-101600000D03*
D14*
X152908000Y-113284000D03*
X135382000Y-113284000D03*
X117602000Y-113284000D03*
X99822000Y-113284000D03*
X82296000Y-113284000D03*
X64516000Y-113284000D03*
X47498000Y-113284000D03*
X45720000Y-114046000D03*
X236982000Y-104902000D03*
X73914000Y-104648000D03*
X53086000Y-107696000D03*
X176022000Y-106172000D03*
X177800000Y-105410000D03*
X176276000Y-105410000D03*
X251714000Y-103378000D03*
X249428000Y-105410000D03*
X244602000Y-107696000D03*
X46482000Y-109982000D03*
X176784000Y-101600000D03*
X177038000Y-110490000D03*
X235966000Y-105410000D03*
X251460000Y-105918000D03*
X244348000Y-108966000D03*
X240030000Y-108966000D03*
X194818000Y-110490000D03*
X194056000Y-105156000D03*
X53086000Y-102108000D03*
X53848000Y-107950000D03*
X212090000Y-110236000D03*
X211074000Y-102108000D03*
X71120000Y-102108000D03*
X71374000Y-110236000D03*
X229616000Y-110236000D03*
X228092000Y-102362000D03*
X88900000Y-110490000D03*
X88138000Y-102362000D03*
X245872000Y-107442000D03*
X245364000Y-103632000D03*
X106680000Y-110236000D03*
X105918000Y-102870000D03*
X124206000Y-110490000D03*
X123190000Y-103378000D03*
X141732000Y-110490000D03*
X140970000Y-103886000D03*
X159258000Y-110236000D03*
X158496000Y-104394000D03*
X245872000Y-101092000D03*
X246634000Y-100584000D03*
X44196000Y-117602000D03*
X46990000Y-111506000D03*
D15*
X134112000Y-114554000D02*
X151638000Y-114554000D01*
X151638000Y-114554000D02*
X152908000Y-113284000D01*
X116332000Y-114554000D02*
X134112000Y-114554000D01*
X134112000Y-114554000D02*
X135382000Y-113284000D01*
X98552000Y-114554000D02*
X116332000Y-114554000D01*
X116332000Y-114554000D02*
X117602000Y-113284000D01*
X81026000Y-114554000D02*
X98552000Y-114554000D01*
X98552000Y-114554000D02*
X99822000Y-113284000D01*
X63246000Y-114554000D02*
X81026000Y-114554000D01*
X81026000Y-114554000D02*
X82296000Y-113284000D01*
X46228000Y-114554000D02*
X63246000Y-114554000D01*
X63246000Y-114554000D02*
X64516000Y-113284000D01*
X41910000Y-116840000D02*
X43942000Y-116840000D01*
X43942000Y-116840000D02*
X46228000Y-114554000D01*
X46228000Y-114554000D02*
X47498000Y-113284000D01*
X41910000Y-114300000D02*
X45720000Y-114046000D01*
X236982000Y-104902000D02*
X245929998Y-113849998D01*
X251080398Y-116840000D02*
X248090396Y-113849998D01*
X248090396Y-113849998D02*
X245929998Y-113849998D01*
X253746000Y-116840000D02*
X251080398Y-116840000D01*
X45466000Y-107696000D02*
X41910000Y-111252000D01*
X45466000Y-107696000D02*
X53086000Y-107696000D01*
X171530006Y-101680006D02*
X176022000Y-106172000D01*
X76708000Y-101680006D02*
X171530006Y-101680006D01*
X73914000Y-104474006D02*
X76708000Y-101680006D01*
X73914000Y-104648000D02*
X73914000Y-104474006D01*
X41910000Y-111760000D02*
X41910000Y-111252000D01*
X253746000Y-114300000D02*
X249176796Y-114300000D01*
X237744000Y-104140000D02*
X234834004Y-101230004D01*
X237744000Y-104902000D02*
X237744000Y-104140000D01*
X246126000Y-113284000D02*
X237744000Y-104902000D01*
X248160796Y-113284000D02*
X246126000Y-113284000D01*
X249176796Y-114300000D02*
X248160796Y-113284000D01*
X175144004Y-101230004D02*
X176276000Y-102362000D01*
X174244000Y-101230004D02*
X175144004Y-101230004D01*
X178308000Y-101230004D02*
X234834004Y-101230004D01*
X178054000Y-101484004D02*
X178308000Y-101230004D01*
X178054000Y-105156000D02*
X178054000Y-101484004D01*
X177800000Y-105410000D02*
X178054000Y-105156000D01*
X176276000Y-102362000D02*
X176276000Y-105410000D01*
X41910000Y-109220000D02*
X41910000Y-108966000D01*
X41910000Y-108966000D02*
X43942000Y-106934000D01*
X43942000Y-106934000D02*
X43942000Y-103378000D01*
X43942000Y-103378000D02*
X46089996Y-101230004D01*
X46089996Y-101230004D02*
X174244000Y-101230004D01*
X174244000Y-101230004D02*
X174382004Y-101230004D01*
X174382004Y-101230004D02*
X174498000Y-101346000D01*
X253746000Y-111760000D02*
X252984000Y-111760000D01*
X252984000Y-111760000D02*
X251968000Y-112776000D01*
X238252000Y-103886000D02*
X235146002Y-100780002D01*
X238252000Y-104648000D02*
X238252000Y-103886000D01*
X246380000Y-112776000D02*
X238252000Y-104648000D01*
X251968000Y-112776000D02*
X246380000Y-112776000D01*
X235146002Y-100780002D02*
X45777998Y-100780002D01*
X43434000Y-105156000D02*
X41910000Y-106680000D01*
X43434000Y-103124000D02*
X43434000Y-105156000D01*
X45777998Y-100780002D02*
X43434000Y-103124000D01*
X253746000Y-111760000D02*
X253746000Y-111506000D01*
X253746000Y-109220000D02*
X253492000Y-109220000D01*
X253492000Y-109220000D02*
X250444000Y-112268000D01*
X250444000Y-112268000D02*
X246634000Y-112268000D01*
X246634000Y-112268000D02*
X238760000Y-104394000D01*
X238760000Y-104394000D02*
X238760000Y-103943998D01*
X238760000Y-103943998D02*
X238760000Y-103632000D01*
X238760000Y-103632000D02*
X235458000Y-100330000D01*
X235458000Y-100330000D02*
X235146002Y-100330000D01*
X45466000Y-100330000D02*
X235146002Y-100330000D01*
X41910000Y-103886000D02*
X45466000Y-100330000D01*
X41910000Y-104140000D02*
X41910000Y-103886000D01*
X253746000Y-101600000D02*
X253492000Y-101600000D01*
X253492000Y-101600000D02*
X251714000Y-103378000D01*
X249428000Y-105410000D02*
X246380000Y-108458000D01*
X246380000Y-108458000D02*
X245364000Y-108458000D01*
X245364000Y-108458000D02*
X244602000Y-107696000D01*
X40386000Y-113030000D02*
X44958000Y-113030000D01*
X45974000Y-110490000D02*
X46482000Y-109982000D01*
X45974000Y-112014000D02*
X45974000Y-110490000D01*
X44958000Y-113030000D02*
X45974000Y-112014000D01*
X41910000Y-101600000D02*
X41656000Y-101600000D01*
X41656000Y-101600000D02*
X40386000Y-102870000D01*
X40386000Y-102870000D02*
X40386000Y-113030000D01*
X176784000Y-101600000D02*
X177038000Y-101854000D01*
X177038000Y-101854000D02*
X177038000Y-110490000D01*
X236474000Y-105410000D02*
X235966000Y-105410000D01*
X251460000Y-105918000D02*
X248412000Y-108966000D01*
X248412000Y-108966000D02*
X244348000Y-108966000D01*
X240030000Y-108966000D02*
X236474000Y-105410000D01*
X194818000Y-105918000D02*
X194818000Y-110490000D01*
X194056000Y-105156000D02*
X194818000Y-105918000D01*
X53848000Y-102870000D02*
X53848000Y-107950000D01*
X53086000Y-102108000D02*
X53848000Y-102870000D01*
X212090000Y-103124000D02*
X212090000Y-110236000D01*
X211074000Y-102108000D02*
X212090000Y-103124000D01*
X71120000Y-102108000D02*
X71374000Y-102362000D01*
X71374000Y-102362000D02*
X71374000Y-110236000D01*
X229616000Y-103886000D02*
X229616000Y-110236000D01*
X228092000Y-102362000D02*
X229616000Y-103886000D01*
X88900000Y-103124000D02*
X88900000Y-110490000D01*
X88138000Y-102362000D02*
X88900000Y-103124000D01*
X245872000Y-104140000D02*
X245872000Y-107442000D01*
X245364000Y-103632000D02*
X245872000Y-104140000D01*
X106680000Y-103632000D02*
X106680000Y-110236000D01*
X105918000Y-102870000D02*
X106680000Y-103632000D01*
X124206000Y-104394000D02*
X124206000Y-110490000D01*
X123190000Y-103378000D02*
X124206000Y-104394000D01*
X141732000Y-104648000D02*
X141732000Y-110490000D01*
X140970000Y-103886000D02*
X141732000Y-104648000D01*
X159258000Y-105156000D02*
X159258000Y-110236000D01*
X158496000Y-104394000D02*
X159258000Y-105156000D01*
X251714000Y-104648000D02*
X253746000Y-106680000D01*
X250061602Y-104648000D02*
X251714000Y-104648000D01*
X246759602Y-101346000D02*
X250061602Y-104648000D01*
X246126000Y-101346000D02*
X246759602Y-101346000D01*
X245872000Y-101092000D02*
X246126000Y-101346000D01*
X246634000Y-100584000D02*
X250190000Y-104140000D01*
X250190000Y-104140000D02*
X253746000Y-104140000D01*
X253746000Y-104140000D02*
X252984000Y-104140000D01*
X41910000Y-119380000D02*
X42418000Y-119380000D01*
X42418000Y-119380000D02*
X44196000Y-117602000D01*
X46990000Y-111506000D02*
X56134000Y-111506000D01*
X56134000Y-111506000D02*
X56388000Y-111760000D01*
X56388000Y-111760000D02*
X238252000Y-111760000D01*
X238252000Y-111760000D02*
X240792000Y-114300000D01*
X240792000Y-114300000D02*
X247904000Y-114300000D01*
X247904000Y-114300000D02*
X251206000Y-117602000D01*
X251206000Y-117602000D02*
X251206000Y-118364000D01*
X251206000Y-118364000D02*
X252222000Y-119380000D01*
X252222000Y-119380000D02*
X253746000Y-119380000D01*
D16*
G36*
X250542997Y-117377401D02*
X250789558Y-117542148D01*
X251080398Y-117600000D01*
X252301352Y-117600000D01*
X252501585Y-117899670D01*
X252523780Y-117914500D01*
X252370302Y-117978073D01*
X252191673Y-118156701D01*
X252095000Y-118390090D01*
X252095000Y-119094250D01*
X252253750Y-119253000D01*
X253619000Y-119253000D01*
X253619000Y-119233000D01*
X253873000Y-119233000D01*
X253873000Y-119253000D01*
X253893000Y-119253000D01*
X253893000Y-119507000D01*
X253873000Y-119507000D01*
X253873000Y-120719850D01*
X254031750Y-120878600D01*
X254290000Y-120878600D01*
X254290000Y-121690000D01*
X249155516Y-121690000D01*
X249883438Y-120963347D01*
X250422247Y-119665750D01*
X252095000Y-119665750D01*
X252095000Y-120369910D01*
X252191673Y-120603299D01*
X252370302Y-120781927D01*
X252603691Y-120878600D01*
X253460250Y-120878600D01*
X253619000Y-120719850D01*
X253619000Y-119507000D01*
X252253750Y-119507000D01*
X252095000Y-119665750D01*
X250422247Y-119665750D01*
X250514280Y-119444111D01*
X250515716Y-117799106D01*
X250199570Y-117033974D01*
X250542997Y-117377401D01*
X250542997Y-117377401D01*
G37*
X250542997Y-117377401D02*
X250789558Y-117542148D01*
X251080398Y-117600000D01*
X252301352Y-117600000D01*
X252501585Y-117899670D01*
X252523780Y-117914500D01*
X252370302Y-117978073D01*
X252191673Y-118156701D01*
X252095000Y-118390090D01*
X252095000Y-119094250D01*
X252253750Y-119253000D01*
X253619000Y-119253000D01*
X253619000Y-119233000D01*
X253873000Y-119233000D01*
X253873000Y-119253000D01*
X253893000Y-119253000D01*
X253893000Y-119507000D01*
X253873000Y-119507000D01*
X253873000Y-120719850D01*
X254031750Y-120878600D01*
X254290000Y-120878600D01*
X254290000Y-121690000D01*
X249155516Y-121690000D01*
X249883438Y-120963347D01*
X250422247Y-119665750D01*
X252095000Y-119665750D01*
X252095000Y-120369910D01*
X252191673Y-120603299D01*
X252370302Y-120781927D01*
X252603691Y-120878600D01*
X253460250Y-120878600D01*
X253619000Y-120719850D01*
X253619000Y-119507000D01*
X252253750Y-119507000D01*
X252095000Y-119665750D01*
X250422247Y-119665750D01*
X250514280Y-119444111D01*
X250515716Y-117799106D01*
X250199570Y-117033974D01*
X250542997Y-117377401D01*
G36*
X44887720Y-117791889D02*
X44886284Y-119436894D01*
X45514474Y-120957229D01*
X46245967Y-121690000D01*
X40710000Y-121690000D01*
X40710000Y-120854704D01*
X40767691Y-120878600D01*
X41624250Y-120878600D01*
X41783000Y-120719850D01*
X41783000Y-119507000D01*
X42037000Y-119507000D01*
X42037000Y-120719850D01*
X42195750Y-120878600D01*
X43052309Y-120878600D01*
X43285698Y-120781927D01*
X43464327Y-120603299D01*
X43561000Y-120369910D01*
X43561000Y-119665750D01*
X43402250Y-119507000D01*
X42037000Y-119507000D01*
X41783000Y-119507000D01*
X41763000Y-119507000D01*
X41763000Y-119253000D01*
X41783000Y-119253000D01*
X41783000Y-119233000D01*
X42037000Y-119233000D01*
X42037000Y-119253000D01*
X43402250Y-119253000D01*
X43561000Y-119094250D01*
X43561000Y-118390090D01*
X43464327Y-118156701D01*
X43285698Y-117978073D01*
X43132220Y-117914500D01*
X43154415Y-117899670D01*
X43354648Y-117600000D01*
X43942000Y-117600000D01*
X44232839Y-117542148D01*
X44479401Y-117377401D01*
X45471989Y-116384813D01*
X44887720Y-117791889D01*
X44887720Y-117791889D01*
G37*
X44887720Y-117791889D02*
X44886284Y-119436894D01*
X45514474Y-120957229D01*
X46245967Y-121690000D01*
X40710000Y-121690000D01*
X40710000Y-120854704D01*
X40767691Y-120878600D01*
X41624250Y-120878600D01*
X41783000Y-120719850D01*
X41783000Y-119507000D01*
X42037000Y-119507000D01*
X42037000Y-120719850D01*
X42195750Y-120878600D01*
X43052309Y-120878600D01*
X43285698Y-120781927D01*
X43464327Y-120603299D01*
X43561000Y-120369910D01*
X43561000Y-119665750D01*
X43402250Y-119507000D01*
X42037000Y-119507000D01*
X41783000Y-119507000D01*
X41763000Y-119507000D01*
X41763000Y-119253000D01*
X41783000Y-119253000D01*
X41783000Y-119233000D01*
X42037000Y-119233000D01*
X42037000Y-119253000D01*
X43402250Y-119253000D01*
X43561000Y-119094250D01*
X43561000Y-118390090D01*
X43464327Y-118156701D01*
X43285698Y-117978073D01*
X43132220Y-117914500D01*
X43154415Y-117899670D01*
X43354648Y-117600000D01*
X43942000Y-117600000D01*
X44232839Y-117542148D01*
X44479401Y-117377401D01*
X45471989Y-116384813D01*
X44887720Y-117791889D01*
G36*
X70184838Y-102293167D02*
X70326883Y-102636943D01*
X70589673Y-102900192D01*
X70614000Y-102910294D01*
X70614000Y-109673537D01*
X70581808Y-109705673D01*
X70439162Y-110049201D01*
X70438838Y-110421167D01*
X70580883Y-110764943D01*
X70843673Y-111028192D01*
X71187201Y-111170838D01*
X71559167Y-111171162D01*
X71902943Y-111029117D01*
X72166192Y-110766327D01*
X72308838Y-110422799D01*
X72309162Y-110050833D01*
X72167117Y-109707057D01*
X72134000Y-109673882D01*
X72134000Y-102362000D01*
X72110529Y-102244004D01*
X72076148Y-102071160D01*
X72055060Y-102039600D01*
X72055103Y-101990004D01*
X75323200Y-101990004D01*
X73509908Y-103803296D01*
X73385057Y-103854883D01*
X73121808Y-104117673D01*
X72979162Y-104461201D01*
X72978838Y-104833167D01*
X73120883Y-105176943D01*
X73383673Y-105440192D01*
X73727201Y-105582838D01*
X74099167Y-105583162D01*
X74442943Y-105441117D01*
X74706192Y-105178327D01*
X74848838Y-104834799D01*
X74849031Y-104613777D01*
X77022802Y-102440006D01*
X87202931Y-102440006D01*
X87202838Y-102547167D01*
X87344883Y-102890943D01*
X87607673Y-103154192D01*
X87951201Y-103296838D01*
X87998077Y-103296879D01*
X88140000Y-103438802D01*
X88140000Y-109927537D01*
X88107808Y-109959673D01*
X87965162Y-110303201D01*
X87964838Y-110675167D01*
X88106883Y-111018943D01*
X88369673Y-111282192D01*
X88713201Y-111424838D01*
X89085167Y-111425162D01*
X89428943Y-111283117D01*
X89692192Y-111020327D01*
X89834838Y-110676799D01*
X89835162Y-110304833D01*
X89693117Y-109961057D01*
X89660000Y-109927882D01*
X89660000Y-103124000D01*
X89602148Y-102833161D01*
X89437401Y-102586599D01*
X89290808Y-102440006D01*
X105084146Y-102440006D01*
X104983162Y-102683201D01*
X104982838Y-103055167D01*
X105124883Y-103398943D01*
X105387673Y-103662192D01*
X105731201Y-103804838D01*
X105778077Y-103804879D01*
X105920000Y-103946802D01*
X105920000Y-109673537D01*
X105887808Y-109705673D01*
X105745162Y-110049201D01*
X105744838Y-110421167D01*
X105886883Y-110764943D01*
X106149673Y-111028192D01*
X106493201Y-111170838D01*
X106865167Y-111171162D01*
X107208943Y-111029117D01*
X107472192Y-110766327D01*
X107614838Y-110422799D01*
X107615162Y-110050833D01*
X107473117Y-109707057D01*
X107440000Y-109673882D01*
X107440000Y-103632000D01*
X107426309Y-103563167D01*
X122254838Y-103563167D01*
X122396883Y-103906943D01*
X122659673Y-104170192D01*
X123003201Y-104312838D01*
X123050077Y-104312879D01*
X123446000Y-104708802D01*
X123446000Y-109927537D01*
X123413808Y-109959673D01*
X123271162Y-110303201D01*
X123270838Y-110675167D01*
X123412883Y-111018943D01*
X123675673Y-111282192D01*
X124019201Y-111424838D01*
X124391167Y-111425162D01*
X124734943Y-111283117D01*
X124998192Y-111020327D01*
X125140838Y-110676799D01*
X125141162Y-110304833D01*
X124999117Y-109961057D01*
X124966000Y-109927882D01*
X124966000Y-104394000D01*
X124908148Y-104103161D01*
X124886771Y-104071167D01*
X140034838Y-104071167D01*
X140176883Y-104414943D01*
X140439673Y-104678192D01*
X140783201Y-104820838D01*
X140830077Y-104820879D01*
X140972000Y-104962802D01*
X140972000Y-109927537D01*
X140939808Y-109959673D01*
X140797162Y-110303201D01*
X140796838Y-110675167D01*
X140938883Y-111018943D01*
X141201673Y-111282192D01*
X141545201Y-111424838D01*
X141917167Y-111425162D01*
X142260943Y-111283117D01*
X142524192Y-111020327D01*
X142666838Y-110676799D01*
X142667162Y-110304833D01*
X142525117Y-109961057D01*
X142492000Y-109927882D01*
X142492000Y-104648000D01*
X142478309Y-104579167D01*
X157560838Y-104579167D01*
X157702883Y-104922943D01*
X157965673Y-105186192D01*
X158309201Y-105328838D01*
X158356077Y-105328879D01*
X158498000Y-105470802D01*
X158498000Y-109673537D01*
X158465808Y-109705673D01*
X158323162Y-110049201D01*
X158322838Y-110421167D01*
X158464883Y-110764943D01*
X158727673Y-111028192D01*
X159071201Y-111170838D01*
X159443167Y-111171162D01*
X159786943Y-111029117D01*
X160050192Y-110766327D01*
X160192838Y-110422799D01*
X160193162Y-110050833D01*
X160051117Y-109707057D01*
X160018000Y-109673882D01*
X160018000Y-105156000D01*
X159960148Y-104865161D01*
X159795401Y-104618599D01*
X159431122Y-104254320D01*
X159431162Y-104208833D01*
X159289117Y-103865057D01*
X159026327Y-103601808D01*
X158682799Y-103459162D01*
X158310833Y-103458838D01*
X157967057Y-103600883D01*
X157703808Y-103863673D01*
X157561162Y-104207201D01*
X157560838Y-104579167D01*
X142478309Y-104579167D01*
X142434148Y-104357161D01*
X142269401Y-104110599D01*
X141905122Y-103746320D01*
X141905162Y-103700833D01*
X141763117Y-103357057D01*
X141500327Y-103093808D01*
X141156799Y-102951162D01*
X140784833Y-102950838D01*
X140441057Y-103092883D01*
X140177808Y-103355673D01*
X140035162Y-103699201D01*
X140034838Y-104071167D01*
X124886771Y-104071167D01*
X124743401Y-103856599D01*
X124125122Y-103238320D01*
X124125162Y-103192833D01*
X123983117Y-102849057D01*
X123720327Y-102585808D01*
X123376799Y-102443162D01*
X123004833Y-102442838D01*
X122661057Y-102584883D01*
X122397808Y-102847673D01*
X122255162Y-103191201D01*
X122254838Y-103563167D01*
X107426309Y-103563167D01*
X107382148Y-103341161D01*
X107217401Y-103094599D01*
X106853122Y-102730320D01*
X106853162Y-102684833D01*
X106752002Y-102440006D01*
X171215204Y-102440006D01*
X175086878Y-106311680D01*
X175086838Y-106357167D01*
X175228883Y-106700943D01*
X175491673Y-106964192D01*
X175835201Y-107106838D01*
X176207167Y-107107162D01*
X176278000Y-107077894D01*
X176278000Y-109927537D01*
X176245808Y-109959673D01*
X176103162Y-110303201D01*
X176102838Y-110675167D01*
X176244883Y-111018943D01*
X176507673Y-111282192D01*
X176851201Y-111424838D01*
X177223167Y-111425162D01*
X177566943Y-111283117D01*
X177830192Y-111020327D01*
X177972838Y-110676799D01*
X177973162Y-110304833D01*
X177831117Y-109961057D01*
X177798000Y-109927882D01*
X177798000Y-106344999D01*
X177985167Y-106345162D01*
X178328943Y-106203117D01*
X178592192Y-105940327D01*
X178734838Y-105596799D01*
X178734941Y-105478579D01*
X178756148Y-105446840D01*
X178777167Y-105341167D01*
X193120838Y-105341167D01*
X193262883Y-105684943D01*
X193525673Y-105948192D01*
X193869201Y-106090838D01*
X193916077Y-106090879D01*
X194058000Y-106232802D01*
X194058000Y-109927537D01*
X194025808Y-109959673D01*
X193883162Y-110303201D01*
X193882838Y-110675167D01*
X194024883Y-111018943D01*
X194287673Y-111282192D01*
X194631201Y-111424838D01*
X195003167Y-111425162D01*
X195346943Y-111283117D01*
X195610192Y-111020327D01*
X195752838Y-110676799D01*
X195753162Y-110304833D01*
X195611117Y-109961057D01*
X195578000Y-109927882D01*
X195578000Y-105918000D01*
X195520148Y-105627161D01*
X195355401Y-105380599D01*
X194991122Y-105016320D01*
X194991162Y-104970833D01*
X194849117Y-104627057D01*
X194586327Y-104363808D01*
X194242799Y-104221162D01*
X193870833Y-104220838D01*
X193527057Y-104362883D01*
X193263808Y-104625673D01*
X193121162Y-104969201D01*
X193120838Y-105341167D01*
X178777167Y-105341167D01*
X178814000Y-105156000D01*
X178814000Y-101990004D01*
X210139102Y-101990004D01*
X210138838Y-102293167D01*
X210280883Y-102636943D01*
X210543673Y-102900192D01*
X210887201Y-103042838D01*
X210934077Y-103042879D01*
X211330000Y-103438802D01*
X211330000Y-109673537D01*
X211297808Y-109705673D01*
X211155162Y-110049201D01*
X211154838Y-110421167D01*
X211296883Y-110764943D01*
X211559673Y-111028192D01*
X211903201Y-111170838D01*
X212275167Y-111171162D01*
X212618943Y-111029117D01*
X212882192Y-110766327D01*
X213024838Y-110422799D01*
X213025162Y-110050833D01*
X212883117Y-109707057D01*
X212850000Y-109673882D01*
X212850000Y-103124000D01*
X212792148Y-102833161D01*
X212627401Y-102586599D01*
X212030806Y-101990004D01*
X227234063Y-101990004D01*
X227157162Y-102175201D01*
X227156838Y-102547167D01*
X227298883Y-102890943D01*
X227561673Y-103154192D01*
X227905201Y-103296838D01*
X227952077Y-103296879D01*
X228856000Y-104200802D01*
X228856000Y-109673537D01*
X228823808Y-109705673D01*
X228681162Y-110049201D01*
X228680838Y-110421167D01*
X228822883Y-110764943D01*
X229085673Y-111028192D01*
X229429201Y-111170838D01*
X229801167Y-111171162D01*
X230144943Y-111029117D01*
X230408192Y-110766327D01*
X230550838Y-110422799D01*
X230551162Y-110050833D01*
X230409117Y-109707057D01*
X230376000Y-109673882D01*
X230376000Y-103886000D01*
X230318148Y-103595161D01*
X230318148Y-103595160D01*
X230153401Y-103348599D01*
X229027122Y-102222320D01*
X229027162Y-102176833D01*
X228949966Y-101990004D01*
X234519202Y-101990004D01*
X236583983Y-104054785D01*
X236453057Y-104108883D01*
X236189808Y-104371673D01*
X236146838Y-104475157D01*
X235780833Y-104474838D01*
X235437057Y-104616883D01*
X235173808Y-104879673D01*
X235031162Y-105223201D01*
X235030838Y-105595167D01*
X235172883Y-105938943D01*
X235435673Y-106202192D01*
X235779201Y-106344838D01*
X236151167Y-106345162D01*
X236280798Y-106291600D01*
X239094878Y-109105680D01*
X239094838Y-109151167D01*
X239236883Y-109494943D01*
X239499673Y-109758192D01*
X239843201Y-109900838D01*
X240215167Y-109901162D01*
X240558943Y-109759117D01*
X240661719Y-109656521D01*
X245392597Y-114387399D01*
X245544730Y-114489051D01*
X244040771Y-115110474D01*
X242876562Y-116272653D01*
X242245720Y-117791889D01*
X242244284Y-119436894D01*
X242872474Y-120957229D01*
X243603967Y-121690000D01*
X243305709Y-121690000D01*
X236515793Y-114512088D01*
X236507615Y-114506289D01*
X236502046Y-114497954D01*
X236394918Y-114426374D01*
X236289814Y-114351843D01*
X236280039Y-114349615D01*
X236271705Y-114344046D01*
X236145359Y-114318914D01*
X236019715Y-114290273D01*
X236009830Y-114291955D01*
X236000000Y-114290000D01*
X152976802Y-114290000D01*
X153047680Y-114219122D01*
X153093167Y-114219162D01*
X153436943Y-114077117D01*
X153700192Y-113814327D01*
X153842838Y-113470799D01*
X153843162Y-113098833D01*
X153701117Y-112755057D01*
X153438327Y-112491808D01*
X153094799Y-112349162D01*
X152722833Y-112348838D01*
X152379057Y-112490883D01*
X152115808Y-112753673D01*
X151973162Y-113097201D01*
X151973121Y-113144077D01*
X151323198Y-113794000D01*
X136182633Y-113794000D01*
X136316838Y-113470799D01*
X136317162Y-113098833D01*
X136175117Y-112755057D01*
X135912327Y-112491808D01*
X135568799Y-112349162D01*
X135196833Y-112348838D01*
X134853057Y-112490883D01*
X134589808Y-112753673D01*
X134447162Y-113097201D01*
X134447121Y-113144077D01*
X133797198Y-113794000D01*
X118402633Y-113794000D01*
X118536838Y-113470799D01*
X118537162Y-113098833D01*
X118395117Y-112755057D01*
X118132327Y-112491808D01*
X117788799Y-112349162D01*
X117416833Y-112348838D01*
X117073057Y-112490883D01*
X116809808Y-112753673D01*
X116667162Y-113097201D01*
X116667121Y-113144077D01*
X116017198Y-113794000D01*
X100622633Y-113794000D01*
X100756838Y-113470799D01*
X100757162Y-113098833D01*
X100615117Y-112755057D01*
X100352327Y-112491808D01*
X100008799Y-112349162D01*
X99636833Y-112348838D01*
X99293057Y-112490883D01*
X99029808Y-112753673D01*
X98887162Y-113097201D01*
X98887121Y-113144077D01*
X98237198Y-113794000D01*
X83096633Y-113794000D01*
X83230838Y-113470799D01*
X83231162Y-113098833D01*
X83089117Y-112755057D01*
X82826327Y-112491808D01*
X82482799Y-112349162D01*
X82110833Y-112348838D01*
X81767057Y-112490883D01*
X81503808Y-112753673D01*
X81361162Y-113097201D01*
X81361121Y-113144077D01*
X80711198Y-113794000D01*
X65316633Y-113794000D01*
X65450838Y-113470799D01*
X65451162Y-113098833D01*
X65309117Y-112755057D01*
X65046327Y-112491808D01*
X64702799Y-112349162D01*
X64330833Y-112348838D01*
X63987057Y-112490883D01*
X63723808Y-112753673D01*
X63581162Y-113097201D01*
X63581121Y-113144077D01*
X62931198Y-113794000D01*
X48298633Y-113794000D01*
X48432838Y-113470799D01*
X48433162Y-113098833D01*
X48291117Y-112755057D01*
X48028327Y-112491808D01*
X47684799Y-112349162D01*
X47312833Y-112348838D01*
X46969057Y-112490883D01*
X46705808Y-112753673D01*
X46563162Y-113097201D01*
X46563121Y-113144077D01*
X46351770Y-113355428D01*
X46250327Y-113253808D01*
X45938483Y-113124319D01*
X46511401Y-112551401D01*
X46676148Y-112304839D01*
X46734000Y-112014000D01*
X46734000Y-110889547D01*
X47010943Y-110775117D01*
X47274192Y-110512327D01*
X47416838Y-110168799D01*
X47417162Y-109796833D01*
X47275117Y-109453057D01*
X47012327Y-109189808D01*
X46668799Y-109047162D01*
X46296833Y-109046838D01*
X45953057Y-109188883D01*
X45689808Y-109451673D01*
X45547162Y-109795201D01*
X45547121Y-109842077D01*
X45436599Y-109952599D01*
X45271852Y-110199161D01*
X45214000Y-110490000D01*
X45214000Y-111699198D01*
X44643198Y-112270000D01*
X43491900Y-112270000D01*
X43593345Y-111760000D01*
X43479271Y-111186511D01*
X43307446Y-110929356D01*
X45780802Y-108456000D01*
X52523537Y-108456000D01*
X52555673Y-108488192D01*
X52899201Y-108630838D01*
X53206781Y-108631106D01*
X53317673Y-108742192D01*
X53661201Y-108884838D01*
X54033167Y-108885162D01*
X54376943Y-108743117D01*
X54640192Y-108480327D01*
X54782838Y-108136799D01*
X54783162Y-107764833D01*
X54641117Y-107421057D01*
X54608000Y-107387882D01*
X54608000Y-102870000D01*
X54550148Y-102579161D01*
X54385401Y-102332599D01*
X54042806Y-101990004D01*
X70185102Y-101990004D01*
X70184838Y-102293167D01*
X70184838Y-102293167D01*
G37*
X70184838Y-102293167D02*
X70326883Y-102636943D01*
X70589673Y-102900192D01*
X70614000Y-102910294D01*
X70614000Y-109673537D01*
X70581808Y-109705673D01*
X70439162Y-110049201D01*
X70438838Y-110421167D01*
X70580883Y-110764943D01*
X70843673Y-111028192D01*
X71187201Y-111170838D01*
X71559167Y-111171162D01*
X71902943Y-111029117D01*
X72166192Y-110766327D01*
X72308838Y-110422799D01*
X72309162Y-110050833D01*
X72167117Y-109707057D01*
X72134000Y-109673882D01*
X72134000Y-102362000D01*
X72110529Y-102244004D01*
X72076148Y-102071160D01*
X72055060Y-102039600D01*
X72055103Y-101990004D01*
X75323200Y-101990004D01*
X73509908Y-103803296D01*
X73385057Y-103854883D01*
X73121808Y-104117673D01*
X72979162Y-104461201D01*
X72978838Y-104833167D01*
X73120883Y-105176943D01*
X73383673Y-105440192D01*
X73727201Y-105582838D01*
X74099167Y-105583162D01*
X74442943Y-105441117D01*
X74706192Y-105178327D01*
X74848838Y-104834799D01*
X74849031Y-104613777D01*
X77022802Y-102440006D01*
X87202931Y-102440006D01*
X87202838Y-102547167D01*
X87344883Y-102890943D01*
X87607673Y-103154192D01*
X87951201Y-103296838D01*
X87998077Y-103296879D01*
X88140000Y-103438802D01*
X88140000Y-109927537D01*
X88107808Y-109959673D01*
X87965162Y-110303201D01*
X87964838Y-110675167D01*
X88106883Y-111018943D01*
X88369673Y-111282192D01*
X88713201Y-111424838D01*
X89085167Y-111425162D01*
X89428943Y-111283117D01*
X89692192Y-111020327D01*
X89834838Y-110676799D01*
X89835162Y-110304833D01*
X89693117Y-109961057D01*
X89660000Y-109927882D01*
X89660000Y-103124000D01*
X89602148Y-102833161D01*
X89437401Y-102586599D01*
X89290808Y-102440006D01*
X105084146Y-102440006D01*
X104983162Y-102683201D01*
X104982838Y-103055167D01*
X105124883Y-103398943D01*
X105387673Y-103662192D01*
X105731201Y-103804838D01*
X105778077Y-103804879D01*
X105920000Y-103946802D01*
X105920000Y-109673537D01*
X105887808Y-109705673D01*
X105745162Y-110049201D01*
X105744838Y-110421167D01*
X105886883Y-110764943D01*
X106149673Y-111028192D01*
X106493201Y-111170838D01*
X106865167Y-111171162D01*
X107208943Y-111029117D01*
X107472192Y-110766327D01*
X107614838Y-110422799D01*
X107615162Y-110050833D01*
X107473117Y-109707057D01*
X107440000Y-109673882D01*
X107440000Y-103632000D01*
X107426309Y-103563167D01*
X122254838Y-103563167D01*
X122396883Y-103906943D01*
X122659673Y-104170192D01*
X123003201Y-104312838D01*
X123050077Y-104312879D01*
X123446000Y-104708802D01*
X123446000Y-109927537D01*
X123413808Y-109959673D01*
X123271162Y-110303201D01*
X123270838Y-110675167D01*
X123412883Y-111018943D01*
X123675673Y-111282192D01*
X124019201Y-111424838D01*
X124391167Y-111425162D01*
X124734943Y-111283117D01*
X124998192Y-111020327D01*
X125140838Y-110676799D01*
X125141162Y-110304833D01*
X124999117Y-109961057D01*
X124966000Y-109927882D01*
X124966000Y-104394000D01*
X124908148Y-104103161D01*
X124886771Y-104071167D01*
X140034838Y-104071167D01*
X140176883Y-104414943D01*
X140439673Y-104678192D01*
X140783201Y-104820838D01*
X140830077Y-104820879D01*
X140972000Y-104962802D01*
X140972000Y-109927537D01*
X140939808Y-109959673D01*
X140797162Y-110303201D01*
X140796838Y-110675167D01*
X140938883Y-111018943D01*
X141201673Y-111282192D01*
X141545201Y-111424838D01*
X141917167Y-111425162D01*
X142260943Y-111283117D01*
X142524192Y-111020327D01*
X142666838Y-110676799D01*
X142667162Y-110304833D01*
X142525117Y-109961057D01*
X142492000Y-109927882D01*
X142492000Y-104648000D01*
X142478309Y-104579167D01*
X157560838Y-104579167D01*
X157702883Y-104922943D01*
X157965673Y-105186192D01*
X158309201Y-105328838D01*
X158356077Y-105328879D01*
X158498000Y-105470802D01*
X158498000Y-109673537D01*
X158465808Y-109705673D01*
X158323162Y-110049201D01*
X158322838Y-110421167D01*
X158464883Y-110764943D01*
X158727673Y-111028192D01*
X159071201Y-111170838D01*
X159443167Y-111171162D01*
X159786943Y-111029117D01*
X160050192Y-110766327D01*
X160192838Y-110422799D01*
X160193162Y-110050833D01*
X160051117Y-109707057D01*
X160018000Y-109673882D01*
X160018000Y-105156000D01*
X159960148Y-104865161D01*
X159795401Y-104618599D01*
X159431122Y-104254320D01*
X159431162Y-104208833D01*
X159289117Y-103865057D01*
X159026327Y-103601808D01*
X158682799Y-103459162D01*
X158310833Y-103458838D01*
X157967057Y-103600883D01*
X157703808Y-103863673D01*
X157561162Y-104207201D01*
X157560838Y-104579167D01*
X142478309Y-104579167D01*
X142434148Y-104357161D01*
X142269401Y-104110599D01*
X141905122Y-103746320D01*
X141905162Y-103700833D01*
X141763117Y-103357057D01*
X141500327Y-103093808D01*
X141156799Y-102951162D01*
X140784833Y-102950838D01*
X140441057Y-103092883D01*
X140177808Y-103355673D01*
X140035162Y-103699201D01*
X140034838Y-104071167D01*
X124886771Y-104071167D01*
X124743401Y-103856599D01*
X124125122Y-103238320D01*
X124125162Y-103192833D01*
X123983117Y-102849057D01*
X123720327Y-102585808D01*
X123376799Y-102443162D01*
X123004833Y-102442838D01*
X122661057Y-102584883D01*
X122397808Y-102847673D01*
X122255162Y-103191201D01*
X122254838Y-103563167D01*
X107426309Y-103563167D01*
X107382148Y-103341161D01*
X107217401Y-103094599D01*
X106853122Y-102730320D01*
X106853162Y-102684833D01*
X106752002Y-102440006D01*
X171215204Y-102440006D01*
X175086878Y-106311680D01*
X175086838Y-106357167D01*
X175228883Y-106700943D01*
X175491673Y-106964192D01*
X175835201Y-107106838D01*
X176207167Y-107107162D01*
X176278000Y-107077894D01*
X176278000Y-109927537D01*
X176245808Y-109959673D01*
X176103162Y-110303201D01*
X176102838Y-110675167D01*
X176244883Y-111018943D01*
X176507673Y-111282192D01*
X176851201Y-111424838D01*
X177223167Y-111425162D01*
X177566943Y-111283117D01*
X177830192Y-111020327D01*
X177972838Y-110676799D01*
X177973162Y-110304833D01*
X177831117Y-109961057D01*
X177798000Y-109927882D01*
X177798000Y-106344999D01*
X177985167Y-106345162D01*
X178328943Y-106203117D01*
X178592192Y-105940327D01*
X178734838Y-105596799D01*
X178734941Y-105478579D01*
X178756148Y-105446840D01*
X178777167Y-105341167D01*
X193120838Y-105341167D01*
X193262883Y-105684943D01*
X193525673Y-105948192D01*
X193869201Y-106090838D01*
X193916077Y-106090879D01*
X194058000Y-106232802D01*
X194058000Y-109927537D01*
X194025808Y-109959673D01*
X193883162Y-110303201D01*
X193882838Y-110675167D01*
X194024883Y-111018943D01*
X194287673Y-111282192D01*
X194631201Y-111424838D01*
X195003167Y-111425162D01*
X195346943Y-111283117D01*
X195610192Y-111020327D01*
X195752838Y-110676799D01*
X195753162Y-110304833D01*
X195611117Y-109961057D01*
X195578000Y-109927882D01*
X195578000Y-105918000D01*
X195520148Y-105627161D01*
X195355401Y-105380599D01*
X194991122Y-105016320D01*
X194991162Y-104970833D01*
X194849117Y-104627057D01*
X194586327Y-104363808D01*
X194242799Y-104221162D01*
X193870833Y-104220838D01*
X193527057Y-104362883D01*
X193263808Y-104625673D01*
X193121162Y-104969201D01*
X193120838Y-105341167D01*
X178777167Y-105341167D01*
X178814000Y-105156000D01*
X178814000Y-101990004D01*
X210139102Y-101990004D01*
X210138838Y-102293167D01*
X210280883Y-102636943D01*
X210543673Y-102900192D01*
X210887201Y-103042838D01*
X210934077Y-103042879D01*
X211330000Y-103438802D01*
X211330000Y-109673537D01*
X211297808Y-109705673D01*
X211155162Y-110049201D01*
X211154838Y-110421167D01*
X211296883Y-110764943D01*
X211559673Y-111028192D01*
X211903201Y-111170838D01*
X212275167Y-111171162D01*
X212618943Y-111029117D01*
X212882192Y-110766327D01*
X213024838Y-110422799D01*
X213025162Y-110050833D01*
X212883117Y-109707057D01*
X212850000Y-109673882D01*
X212850000Y-103124000D01*
X212792148Y-102833161D01*
X212627401Y-102586599D01*
X212030806Y-101990004D01*
X227234063Y-101990004D01*
X227157162Y-102175201D01*
X227156838Y-102547167D01*
X227298883Y-102890943D01*
X227561673Y-103154192D01*
X227905201Y-103296838D01*
X227952077Y-103296879D01*
X228856000Y-104200802D01*
X228856000Y-109673537D01*
X228823808Y-109705673D01*
X228681162Y-110049201D01*
X228680838Y-110421167D01*
X228822883Y-110764943D01*
X229085673Y-111028192D01*
X229429201Y-111170838D01*
X229801167Y-111171162D01*
X230144943Y-111029117D01*
X230408192Y-110766327D01*
X230550838Y-110422799D01*
X230551162Y-110050833D01*
X230409117Y-109707057D01*
X230376000Y-109673882D01*
X230376000Y-103886000D01*
X230318148Y-103595161D01*
X230318148Y-103595160D01*
X230153401Y-103348599D01*
X229027122Y-102222320D01*
X229027162Y-102176833D01*
X228949966Y-101990004D01*
X234519202Y-101990004D01*
X236583983Y-104054785D01*
X236453057Y-104108883D01*
X236189808Y-104371673D01*
X236146838Y-104475157D01*
X235780833Y-104474838D01*
X235437057Y-104616883D01*
X235173808Y-104879673D01*
X235031162Y-105223201D01*
X235030838Y-105595167D01*
X235172883Y-105938943D01*
X235435673Y-106202192D01*
X235779201Y-106344838D01*
X236151167Y-106345162D01*
X236280798Y-106291600D01*
X239094878Y-109105680D01*
X239094838Y-109151167D01*
X239236883Y-109494943D01*
X239499673Y-109758192D01*
X239843201Y-109900838D01*
X240215167Y-109901162D01*
X240558943Y-109759117D01*
X240661719Y-109656521D01*
X245392597Y-114387399D01*
X245544730Y-114489051D01*
X244040771Y-115110474D01*
X242876562Y-116272653D01*
X242245720Y-117791889D01*
X242244284Y-119436894D01*
X242872474Y-120957229D01*
X243603967Y-121690000D01*
X243305709Y-121690000D01*
X236515793Y-114512088D01*
X236507615Y-114506289D01*
X236502046Y-114497954D01*
X236394918Y-114426374D01*
X236289814Y-114351843D01*
X236280039Y-114349615D01*
X236271705Y-114344046D01*
X236145359Y-114318914D01*
X236019715Y-114290273D01*
X236009830Y-114291955D01*
X236000000Y-114290000D01*
X152976802Y-114290000D01*
X153047680Y-114219122D01*
X153093167Y-114219162D01*
X153436943Y-114077117D01*
X153700192Y-113814327D01*
X153842838Y-113470799D01*
X153843162Y-113098833D01*
X153701117Y-112755057D01*
X153438327Y-112491808D01*
X153094799Y-112349162D01*
X152722833Y-112348838D01*
X152379057Y-112490883D01*
X152115808Y-112753673D01*
X151973162Y-113097201D01*
X151973121Y-113144077D01*
X151323198Y-113794000D01*
X136182633Y-113794000D01*
X136316838Y-113470799D01*
X136317162Y-113098833D01*
X136175117Y-112755057D01*
X135912327Y-112491808D01*
X135568799Y-112349162D01*
X135196833Y-112348838D01*
X134853057Y-112490883D01*
X134589808Y-112753673D01*
X134447162Y-113097201D01*
X134447121Y-113144077D01*
X133797198Y-113794000D01*
X118402633Y-113794000D01*
X118536838Y-113470799D01*
X118537162Y-113098833D01*
X118395117Y-112755057D01*
X118132327Y-112491808D01*
X117788799Y-112349162D01*
X117416833Y-112348838D01*
X117073057Y-112490883D01*
X116809808Y-112753673D01*
X116667162Y-113097201D01*
X116667121Y-113144077D01*
X116017198Y-113794000D01*
X100622633Y-113794000D01*
X100756838Y-113470799D01*
X100757162Y-113098833D01*
X100615117Y-112755057D01*
X100352327Y-112491808D01*
X100008799Y-112349162D01*
X99636833Y-112348838D01*
X99293057Y-112490883D01*
X99029808Y-112753673D01*
X98887162Y-113097201D01*
X98887121Y-113144077D01*
X98237198Y-113794000D01*
X83096633Y-113794000D01*
X83230838Y-113470799D01*
X83231162Y-113098833D01*
X83089117Y-112755057D01*
X82826327Y-112491808D01*
X82482799Y-112349162D01*
X82110833Y-112348838D01*
X81767057Y-112490883D01*
X81503808Y-112753673D01*
X81361162Y-113097201D01*
X81361121Y-113144077D01*
X80711198Y-113794000D01*
X65316633Y-113794000D01*
X65450838Y-113470799D01*
X65451162Y-113098833D01*
X65309117Y-112755057D01*
X65046327Y-112491808D01*
X64702799Y-112349162D01*
X64330833Y-112348838D01*
X63987057Y-112490883D01*
X63723808Y-112753673D01*
X63581162Y-113097201D01*
X63581121Y-113144077D01*
X62931198Y-113794000D01*
X48298633Y-113794000D01*
X48432838Y-113470799D01*
X48433162Y-113098833D01*
X48291117Y-112755057D01*
X48028327Y-112491808D01*
X47684799Y-112349162D01*
X47312833Y-112348838D01*
X46969057Y-112490883D01*
X46705808Y-112753673D01*
X46563162Y-113097201D01*
X46563121Y-113144077D01*
X46351770Y-113355428D01*
X46250327Y-113253808D01*
X45938483Y-113124319D01*
X46511401Y-112551401D01*
X46676148Y-112304839D01*
X46734000Y-112014000D01*
X46734000Y-110889547D01*
X47010943Y-110775117D01*
X47274192Y-110512327D01*
X47416838Y-110168799D01*
X47417162Y-109796833D01*
X47275117Y-109453057D01*
X47012327Y-109189808D01*
X46668799Y-109047162D01*
X46296833Y-109046838D01*
X45953057Y-109188883D01*
X45689808Y-109451673D01*
X45547162Y-109795201D01*
X45547121Y-109842077D01*
X45436599Y-109952599D01*
X45271852Y-110199161D01*
X45214000Y-110490000D01*
X45214000Y-111699198D01*
X44643198Y-112270000D01*
X43491900Y-112270000D01*
X43593345Y-111760000D01*
X43479271Y-111186511D01*
X43307446Y-110929356D01*
X45780802Y-108456000D01*
X52523537Y-108456000D01*
X52555673Y-108488192D01*
X52899201Y-108630838D01*
X53206781Y-108631106D01*
X53317673Y-108742192D01*
X53661201Y-108884838D01*
X54033167Y-108885162D01*
X54376943Y-108743117D01*
X54640192Y-108480327D01*
X54782838Y-108136799D01*
X54783162Y-107764833D01*
X54641117Y-107421057D01*
X54608000Y-107387882D01*
X54608000Y-102870000D01*
X54550148Y-102579161D01*
X54385401Y-102332599D01*
X54042806Y-101990004D01*
X70185102Y-101990004D01*
X70184838Y-102293167D01*
M02*
