G04 #@! TF.FileFunction,Legend,Top*
%FSLAX46Y46*%
G04 Gerber Fmt 4.6, Leading zero omitted, Abs format (unit mm)*
G04 Created by KiCad (PCBNEW 4.0.0-1rc2.201511291916+6190~38~ubuntu14.04.1-stable) date Mon 14 Mar 2016 12:17:33 PM PDT*
%MOMM*%
G01*
G04 APERTURE LIST*
%ADD10C,0.100000*%
%ADD11C,0.250000*%
%ADD12C,0.150000*%
G04 APERTURE END LIST*
D10*
D11*
X251293334Y-119991143D02*
X251245715Y-120038762D01*
X251102858Y-120086381D01*
X251007620Y-120086381D01*
X250864762Y-120038762D01*
X250769524Y-119943524D01*
X250721905Y-119848286D01*
X250674286Y-119657810D01*
X250674286Y-119514952D01*
X250721905Y-119324476D01*
X250769524Y-119229238D01*
X250864762Y-119134000D01*
X251007620Y-119086381D01*
X251102858Y-119086381D01*
X251245715Y-119134000D01*
X251293334Y-119181619D01*
X251912381Y-119086381D02*
X252007620Y-119086381D01*
X252102858Y-119134000D01*
X252150477Y-119181619D01*
X252198096Y-119276857D01*
X252245715Y-119467333D01*
X252245715Y-119705429D01*
X252198096Y-119895905D01*
X252150477Y-119991143D01*
X252102858Y-120038762D01*
X252007620Y-120086381D01*
X251912381Y-120086381D01*
X251817143Y-120038762D01*
X251769524Y-119991143D01*
X251721905Y-119895905D01*
X251674286Y-119705429D01*
X251674286Y-119467333D01*
X251721905Y-119276857D01*
X251769524Y-119181619D01*
X251817143Y-119134000D01*
X251912381Y-119086381D01*
X251293334Y-117197143D02*
X251245715Y-117244762D01*
X251102858Y-117292381D01*
X251007620Y-117292381D01*
X250864762Y-117244762D01*
X250769524Y-117149524D01*
X250721905Y-117054286D01*
X250674286Y-116863810D01*
X250674286Y-116720952D01*
X250721905Y-116530476D01*
X250769524Y-116435238D01*
X250864762Y-116340000D01*
X251007620Y-116292381D01*
X251102858Y-116292381D01*
X251245715Y-116340000D01*
X251293334Y-116387619D01*
X252245715Y-117292381D02*
X251674286Y-117292381D01*
X251960000Y-117292381D02*
X251960000Y-116292381D01*
X251864762Y-116435238D01*
X251769524Y-116530476D01*
X251674286Y-116578095D01*
X251293334Y-114657143D02*
X251245715Y-114704762D01*
X251102858Y-114752381D01*
X251007620Y-114752381D01*
X250864762Y-114704762D01*
X250769524Y-114609524D01*
X250721905Y-114514286D01*
X250674286Y-114323810D01*
X250674286Y-114180952D01*
X250721905Y-113990476D01*
X250769524Y-113895238D01*
X250864762Y-113800000D01*
X251007620Y-113752381D01*
X251102858Y-113752381D01*
X251245715Y-113800000D01*
X251293334Y-113847619D01*
X251674286Y-113847619D02*
X251721905Y-113800000D01*
X251817143Y-113752381D01*
X252055239Y-113752381D01*
X252150477Y-113800000D01*
X252198096Y-113847619D01*
X252245715Y-113942857D01*
X252245715Y-114038095D01*
X252198096Y-114180952D01*
X251626667Y-114752381D01*
X252245715Y-114752381D01*
X251293334Y-112117143D02*
X251245715Y-112164762D01*
X251102858Y-112212381D01*
X251007620Y-112212381D01*
X250864762Y-112164762D01*
X250769524Y-112069524D01*
X250721905Y-111974286D01*
X250674286Y-111783810D01*
X250674286Y-111640952D01*
X250721905Y-111450476D01*
X250769524Y-111355238D01*
X250864762Y-111260000D01*
X251007620Y-111212381D01*
X251102858Y-111212381D01*
X251245715Y-111260000D01*
X251293334Y-111307619D01*
X251626667Y-111212381D02*
X252245715Y-111212381D01*
X251912381Y-111593333D01*
X252055239Y-111593333D01*
X252150477Y-111640952D01*
X252198096Y-111688571D01*
X252245715Y-111783810D01*
X252245715Y-112021905D01*
X252198096Y-112117143D01*
X252150477Y-112164762D01*
X252055239Y-112212381D01*
X251769524Y-112212381D01*
X251674286Y-112164762D01*
X251626667Y-112117143D01*
X251293334Y-109577143D02*
X251245715Y-109624762D01*
X251102858Y-109672381D01*
X251007620Y-109672381D01*
X250864762Y-109624762D01*
X250769524Y-109529524D01*
X250721905Y-109434286D01*
X250674286Y-109243810D01*
X250674286Y-109100952D01*
X250721905Y-108910476D01*
X250769524Y-108815238D01*
X250864762Y-108720000D01*
X251007620Y-108672381D01*
X251102858Y-108672381D01*
X251245715Y-108720000D01*
X251293334Y-108767619D01*
X252150477Y-109005714D02*
X252150477Y-109672381D01*
X251912381Y-108624762D02*
X251674286Y-109339048D01*
X252293334Y-109339048D01*
X251293334Y-107037143D02*
X251245715Y-107084762D01*
X251102858Y-107132381D01*
X251007620Y-107132381D01*
X250864762Y-107084762D01*
X250769524Y-106989524D01*
X250721905Y-106894286D01*
X250674286Y-106703810D01*
X250674286Y-106560952D01*
X250721905Y-106370476D01*
X250769524Y-106275238D01*
X250864762Y-106180000D01*
X251007620Y-106132381D01*
X251102858Y-106132381D01*
X251245715Y-106180000D01*
X251293334Y-106227619D01*
X252198096Y-106132381D02*
X251721905Y-106132381D01*
X251674286Y-106608571D01*
X251721905Y-106560952D01*
X251817143Y-106513333D01*
X252055239Y-106513333D01*
X252150477Y-106560952D01*
X252198096Y-106608571D01*
X252245715Y-106703810D01*
X252245715Y-106941905D01*
X252198096Y-107037143D01*
X252150477Y-107084762D01*
X252055239Y-107132381D01*
X251817143Y-107132381D01*
X251721905Y-107084762D01*
X251674286Y-107037143D01*
X251293334Y-104497143D02*
X251245715Y-104544762D01*
X251102858Y-104592381D01*
X251007620Y-104592381D01*
X250864762Y-104544762D01*
X250769524Y-104449524D01*
X250721905Y-104354286D01*
X250674286Y-104163810D01*
X250674286Y-104020952D01*
X250721905Y-103830476D01*
X250769524Y-103735238D01*
X250864762Y-103640000D01*
X251007620Y-103592381D01*
X251102858Y-103592381D01*
X251245715Y-103640000D01*
X251293334Y-103687619D01*
X252150477Y-103592381D02*
X251960000Y-103592381D01*
X251864762Y-103640000D01*
X251817143Y-103687619D01*
X251721905Y-103830476D01*
X251674286Y-104020952D01*
X251674286Y-104401905D01*
X251721905Y-104497143D01*
X251769524Y-104544762D01*
X251864762Y-104592381D01*
X252055239Y-104592381D01*
X252150477Y-104544762D01*
X252198096Y-104497143D01*
X252245715Y-104401905D01*
X252245715Y-104163810D01*
X252198096Y-104068571D01*
X252150477Y-104020952D01*
X252055239Y-103973333D01*
X251864762Y-103973333D01*
X251769524Y-104020952D01*
X251721905Y-104068571D01*
X251674286Y-104163810D01*
X251039334Y-101957143D02*
X250991715Y-102004762D01*
X250848858Y-102052381D01*
X250753620Y-102052381D01*
X250610762Y-102004762D01*
X250515524Y-101909524D01*
X250467905Y-101814286D01*
X250420286Y-101623810D01*
X250420286Y-101480952D01*
X250467905Y-101290476D01*
X250515524Y-101195238D01*
X250610762Y-101100000D01*
X250753620Y-101052381D01*
X250848858Y-101052381D01*
X250991715Y-101100000D01*
X251039334Y-101147619D01*
X251372667Y-101052381D02*
X252039334Y-101052381D01*
X251610762Y-102052381D01*
X47966381Y-104473333D02*
X48680667Y-104473333D01*
X48823524Y-104520953D01*
X48918762Y-104616191D01*
X48966381Y-104759048D01*
X48966381Y-104854286D01*
X47966381Y-103806667D02*
X47966381Y-103711428D01*
X48014000Y-103616190D01*
X48061619Y-103568571D01*
X48156857Y-103520952D01*
X48347333Y-103473333D01*
X48585429Y-103473333D01*
X48775905Y-103520952D01*
X48871143Y-103568571D01*
X48918762Y-103616190D01*
X48966381Y-103711428D01*
X48966381Y-103806667D01*
X48918762Y-103901905D01*
X48871143Y-103949524D01*
X48775905Y-103997143D01*
X48585429Y-104044762D01*
X48347333Y-104044762D01*
X48156857Y-103997143D01*
X48061619Y-103949524D01*
X48014000Y-103901905D01*
X47966381Y-103806667D01*
X45680381Y-104473333D02*
X46394667Y-104473333D01*
X46537524Y-104520953D01*
X46632762Y-104616191D01*
X46680381Y-104759048D01*
X46680381Y-104854286D01*
X46680381Y-103473333D02*
X46680381Y-104044762D01*
X46680381Y-103759048D02*
X45680381Y-103759048D01*
X45823238Y-103854286D01*
X45918476Y-103949524D01*
X45966095Y-104044762D01*
X44299143Y-102020666D02*
X44346762Y-102068285D01*
X44394381Y-102211142D01*
X44394381Y-102306380D01*
X44346762Y-102449238D01*
X44251524Y-102544476D01*
X44156286Y-102592095D01*
X43965810Y-102639714D01*
X43822952Y-102639714D01*
X43632476Y-102592095D01*
X43537238Y-102544476D01*
X43442000Y-102449238D01*
X43394381Y-102306380D01*
X43394381Y-102211142D01*
X43442000Y-102068285D01*
X43489619Y-102020666D01*
X43394381Y-101687333D02*
X43394381Y-101020666D01*
X44394381Y-101449238D01*
X44029334Y-104751143D02*
X43981715Y-104798762D01*
X43838858Y-104846381D01*
X43743620Y-104846381D01*
X43600762Y-104798762D01*
X43505524Y-104703524D01*
X43457905Y-104608286D01*
X43410286Y-104417810D01*
X43410286Y-104274952D01*
X43457905Y-104084476D01*
X43505524Y-103989238D01*
X43600762Y-103894000D01*
X43743620Y-103846381D01*
X43838858Y-103846381D01*
X43981715Y-103894000D01*
X44029334Y-103941619D01*
X44886477Y-103846381D02*
X44696000Y-103846381D01*
X44600762Y-103894000D01*
X44553143Y-103941619D01*
X44457905Y-104084476D01*
X44410286Y-104274952D01*
X44410286Y-104655905D01*
X44457905Y-104751143D01*
X44505524Y-104798762D01*
X44600762Y-104846381D01*
X44791239Y-104846381D01*
X44886477Y-104798762D01*
X44934096Y-104751143D01*
X44981715Y-104655905D01*
X44981715Y-104417810D01*
X44934096Y-104322571D01*
X44886477Y-104274952D01*
X44791239Y-104227333D01*
X44600762Y-104227333D01*
X44505524Y-104274952D01*
X44457905Y-104322571D01*
X44410286Y-104417810D01*
X44029334Y-107291143D02*
X43981715Y-107338762D01*
X43838858Y-107386381D01*
X43743620Y-107386381D01*
X43600762Y-107338762D01*
X43505524Y-107243524D01*
X43457905Y-107148286D01*
X43410286Y-106957810D01*
X43410286Y-106814952D01*
X43457905Y-106624476D01*
X43505524Y-106529238D01*
X43600762Y-106434000D01*
X43743620Y-106386381D01*
X43838858Y-106386381D01*
X43981715Y-106434000D01*
X44029334Y-106481619D01*
X44934096Y-106386381D02*
X44457905Y-106386381D01*
X44410286Y-106862571D01*
X44457905Y-106814952D01*
X44553143Y-106767333D01*
X44791239Y-106767333D01*
X44886477Y-106814952D01*
X44934096Y-106862571D01*
X44981715Y-106957810D01*
X44981715Y-107195905D01*
X44934096Y-107291143D01*
X44886477Y-107338762D01*
X44791239Y-107386381D01*
X44553143Y-107386381D01*
X44457905Y-107338762D01*
X44410286Y-107291143D01*
X44029334Y-109831143D02*
X43981715Y-109878762D01*
X43838858Y-109926381D01*
X43743620Y-109926381D01*
X43600762Y-109878762D01*
X43505524Y-109783524D01*
X43457905Y-109688286D01*
X43410286Y-109497810D01*
X43410286Y-109354952D01*
X43457905Y-109164476D01*
X43505524Y-109069238D01*
X43600762Y-108974000D01*
X43743620Y-108926381D01*
X43838858Y-108926381D01*
X43981715Y-108974000D01*
X44029334Y-109021619D01*
X44886477Y-109259714D02*
X44886477Y-109926381D01*
X44648381Y-108878762D02*
X44410286Y-109593048D01*
X45029334Y-109593048D01*
X44029334Y-112117143D02*
X43981715Y-112164762D01*
X43838858Y-112212381D01*
X43743620Y-112212381D01*
X43600762Y-112164762D01*
X43505524Y-112069524D01*
X43457905Y-111974286D01*
X43410286Y-111783810D01*
X43410286Y-111640952D01*
X43457905Y-111450476D01*
X43505524Y-111355238D01*
X43600762Y-111260000D01*
X43743620Y-111212381D01*
X43838858Y-111212381D01*
X43981715Y-111260000D01*
X44029334Y-111307619D01*
X44362667Y-111212381D02*
X44981715Y-111212381D01*
X44648381Y-111593333D01*
X44791239Y-111593333D01*
X44886477Y-111640952D01*
X44934096Y-111688571D01*
X44981715Y-111783810D01*
X44981715Y-112021905D01*
X44934096Y-112117143D01*
X44886477Y-112164762D01*
X44791239Y-112212381D01*
X44505524Y-112212381D01*
X44410286Y-112164762D01*
X44362667Y-112117143D01*
X44029334Y-114911143D02*
X43981715Y-114958762D01*
X43838858Y-115006381D01*
X43743620Y-115006381D01*
X43600762Y-114958762D01*
X43505524Y-114863524D01*
X43457905Y-114768286D01*
X43410286Y-114577810D01*
X43410286Y-114434952D01*
X43457905Y-114244476D01*
X43505524Y-114149238D01*
X43600762Y-114054000D01*
X43743620Y-114006381D01*
X43838858Y-114006381D01*
X43981715Y-114054000D01*
X44029334Y-114101619D01*
X44410286Y-114101619D02*
X44457905Y-114054000D01*
X44553143Y-114006381D01*
X44791239Y-114006381D01*
X44886477Y-114054000D01*
X44934096Y-114101619D01*
X44981715Y-114196857D01*
X44981715Y-114292095D01*
X44934096Y-114434952D01*
X44362667Y-115006381D01*
X44981715Y-115006381D01*
X44029334Y-117197143D02*
X43981715Y-117244762D01*
X43838858Y-117292381D01*
X43743620Y-117292381D01*
X43600762Y-117244762D01*
X43505524Y-117149524D01*
X43457905Y-117054286D01*
X43410286Y-116863810D01*
X43410286Y-116720952D01*
X43457905Y-116530476D01*
X43505524Y-116435238D01*
X43600762Y-116340000D01*
X43743620Y-116292381D01*
X43838858Y-116292381D01*
X43981715Y-116340000D01*
X44029334Y-116387619D01*
X44981715Y-117292381D02*
X44410286Y-117292381D01*
X44696000Y-117292381D02*
X44696000Y-116292381D01*
X44600762Y-116435238D01*
X44505524Y-116530476D01*
X44410286Y-116578095D01*
X44029334Y-119991143D02*
X43981715Y-120038762D01*
X43838858Y-120086381D01*
X43743620Y-120086381D01*
X43600762Y-120038762D01*
X43505524Y-119943524D01*
X43457905Y-119848286D01*
X43410286Y-119657810D01*
X43410286Y-119514952D01*
X43457905Y-119324476D01*
X43505524Y-119229238D01*
X43600762Y-119134000D01*
X43743620Y-119086381D01*
X43838858Y-119086381D01*
X43981715Y-119134000D01*
X44029334Y-119181619D01*
X44648381Y-119086381D02*
X44743620Y-119086381D01*
X44838858Y-119134000D01*
X44886477Y-119181619D01*
X44934096Y-119276857D01*
X44981715Y-119467333D01*
X44981715Y-119705429D01*
X44934096Y-119895905D01*
X44886477Y-119991143D01*
X44838858Y-120038762D01*
X44743620Y-120086381D01*
X44648381Y-120086381D01*
X44553143Y-120038762D01*
X44505524Y-119991143D01*
X44457905Y-119895905D01*
X44410286Y-119705429D01*
X44410286Y-119467333D01*
X44457905Y-119276857D01*
X44505524Y-119181619D01*
X44553143Y-119134000D01*
X44648381Y-119086381D01*
D12*
X52772000Y-118618000D02*
G75*
G03X52772000Y-118618000I-3750000J0D01*
G01*
X250130000Y-118618000D02*
G75*
G03X250130000Y-118618000I-3750000J0D01*
G01*
X49466667Y-114644762D02*
X49609524Y-114692381D01*
X49847620Y-114692381D01*
X49942858Y-114644762D01*
X49990477Y-114597143D01*
X50038096Y-114501905D01*
X50038096Y-114406667D01*
X49990477Y-114311429D01*
X49942858Y-114263810D01*
X49847620Y-114216190D01*
X49657143Y-114168571D01*
X49561905Y-114120952D01*
X49514286Y-114073333D01*
X49466667Y-113978095D01*
X49466667Y-113882857D01*
X49514286Y-113787619D01*
X49561905Y-113740000D01*
X49657143Y-113692381D01*
X49895239Y-113692381D01*
X50038096Y-113740000D01*
X50371429Y-113692381D02*
X50609524Y-114692381D01*
X50800001Y-113978095D01*
X50990477Y-114692381D01*
X51228572Y-113692381D01*
X52133334Y-114692381D02*
X51561905Y-114692381D01*
X51847619Y-114692381D02*
X51847619Y-113692381D01*
X51752381Y-113835238D01*
X51657143Y-113930476D01*
X51561905Y-113978095D01*
X67048667Y-114644762D02*
X67191524Y-114692381D01*
X67429620Y-114692381D01*
X67524858Y-114644762D01*
X67572477Y-114597143D01*
X67620096Y-114501905D01*
X67620096Y-114406667D01*
X67572477Y-114311429D01*
X67524858Y-114263810D01*
X67429620Y-114216190D01*
X67239143Y-114168571D01*
X67143905Y-114120952D01*
X67096286Y-114073333D01*
X67048667Y-113978095D01*
X67048667Y-113882857D01*
X67096286Y-113787619D01*
X67143905Y-113740000D01*
X67239143Y-113692381D01*
X67477239Y-113692381D01*
X67620096Y-113740000D01*
X67953429Y-113692381D02*
X68191524Y-114692381D01*
X68382001Y-113978095D01*
X68572477Y-114692381D01*
X68810572Y-113692381D01*
X69143905Y-113787619D02*
X69191524Y-113740000D01*
X69286762Y-113692381D01*
X69524858Y-113692381D01*
X69620096Y-113740000D01*
X69667715Y-113787619D01*
X69715334Y-113882857D01*
X69715334Y-113978095D01*
X69667715Y-114120952D01*
X69096286Y-114692381D01*
X69715334Y-114692381D01*
X84630667Y-114644762D02*
X84773524Y-114692381D01*
X85011620Y-114692381D01*
X85106858Y-114644762D01*
X85154477Y-114597143D01*
X85202096Y-114501905D01*
X85202096Y-114406667D01*
X85154477Y-114311429D01*
X85106858Y-114263810D01*
X85011620Y-114216190D01*
X84821143Y-114168571D01*
X84725905Y-114120952D01*
X84678286Y-114073333D01*
X84630667Y-113978095D01*
X84630667Y-113882857D01*
X84678286Y-113787619D01*
X84725905Y-113740000D01*
X84821143Y-113692381D01*
X85059239Y-113692381D01*
X85202096Y-113740000D01*
X85535429Y-113692381D02*
X85773524Y-114692381D01*
X85964001Y-113978095D01*
X86154477Y-114692381D01*
X86392572Y-113692381D01*
X86678286Y-113692381D02*
X87297334Y-113692381D01*
X86964000Y-114073333D01*
X87106858Y-114073333D01*
X87202096Y-114120952D01*
X87249715Y-114168571D01*
X87297334Y-114263810D01*
X87297334Y-114501905D01*
X87249715Y-114597143D01*
X87202096Y-114644762D01*
X87106858Y-114692381D01*
X86821143Y-114692381D01*
X86725905Y-114644762D01*
X86678286Y-114597143D01*
X102211667Y-114644762D02*
X102354524Y-114692381D01*
X102592620Y-114692381D01*
X102687858Y-114644762D01*
X102735477Y-114597143D01*
X102783096Y-114501905D01*
X102783096Y-114406667D01*
X102735477Y-114311429D01*
X102687858Y-114263810D01*
X102592620Y-114216190D01*
X102402143Y-114168571D01*
X102306905Y-114120952D01*
X102259286Y-114073333D01*
X102211667Y-113978095D01*
X102211667Y-113882857D01*
X102259286Y-113787619D01*
X102306905Y-113740000D01*
X102402143Y-113692381D01*
X102640239Y-113692381D01*
X102783096Y-113740000D01*
X103116429Y-113692381D02*
X103354524Y-114692381D01*
X103545001Y-113978095D01*
X103735477Y-114692381D01*
X103973572Y-113692381D01*
X104783096Y-114025714D02*
X104783096Y-114692381D01*
X104545000Y-113644762D02*
X104306905Y-114359048D01*
X104925953Y-114359048D01*
X119793667Y-114644762D02*
X119936524Y-114692381D01*
X120174620Y-114692381D01*
X120269858Y-114644762D01*
X120317477Y-114597143D01*
X120365096Y-114501905D01*
X120365096Y-114406667D01*
X120317477Y-114311429D01*
X120269858Y-114263810D01*
X120174620Y-114216190D01*
X119984143Y-114168571D01*
X119888905Y-114120952D01*
X119841286Y-114073333D01*
X119793667Y-113978095D01*
X119793667Y-113882857D01*
X119841286Y-113787619D01*
X119888905Y-113740000D01*
X119984143Y-113692381D01*
X120222239Y-113692381D01*
X120365096Y-113740000D01*
X120698429Y-113692381D02*
X120936524Y-114692381D01*
X121127001Y-113978095D01*
X121317477Y-114692381D01*
X121555572Y-113692381D01*
X122412715Y-113692381D02*
X121936524Y-113692381D01*
X121888905Y-114168571D01*
X121936524Y-114120952D01*
X122031762Y-114073333D01*
X122269858Y-114073333D01*
X122365096Y-114120952D01*
X122412715Y-114168571D01*
X122460334Y-114263810D01*
X122460334Y-114501905D01*
X122412715Y-114597143D01*
X122365096Y-114644762D01*
X122269858Y-114692381D01*
X122031762Y-114692381D01*
X121936524Y-114644762D01*
X121888905Y-114597143D01*
X137375667Y-114644762D02*
X137518524Y-114692381D01*
X137756620Y-114692381D01*
X137851858Y-114644762D01*
X137899477Y-114597143D01*
X137947096Y-114501905D01*
X137947096Y-114406667D01*
X137899477Y-114311429D01*
X137851858Y-114263810D01*
X137756620Y-114216190D01*
X137566143Y-114168571D01*
X137470905Y-114120952D01*
X137423286Y-114073333D01*
X137375667Y-113978095D01*
X137375667Y-113882857D01*
X137423286Y-113787619D01*
X137470905Y-113740000D01*
X137566143Y-113692381D01*
X137804239Y-113692381D01*
X137947096Y-113740000D01*
X138280429Y-113692381D02*
X138518524Y-114692381D01*
X138709001Y-113978095D01*
X138899477Y-114692381D01*
X139137572Y-113692381D01*
X139947096Y-113692381D02*
X139756619Y-113692381D01*
X139661381Y-113740000D01*
X139613762Y-113787619D01*
X139518524Y-113930476D01*
X139470905Y-114120952D01*
X139470905Y-114501905D01*
X139518524Y-114597143D01*
X139566143Y-114644762D01*
X139661381Y-114692381D01*
X139851858Y-114692381D01*
X139947096Y-114644762D01*
X139994715Y-114597143D01*
X140042334Y-114501905D01*
X140042334Y-114263810D01*
X139994715Y-114168571D01*
X139947096Y-114120952D01*
X139851858Y-114073333D01*
X139661381Y-114073333D01*
X139566143Y-114120952D01*
X139518524Y-114168571D01*
X139470905Y-114263810D01*
X154957667Y-114644762D02*
X155100524Y-114692381D01*
X155338620Y-114692381D01*
X155433858Y-114644762D01*
X155481477Y-114597143D01*
X155529096Y-114501905D01*
X155529096Y-114406667D01*
X155481477Y-114311429D01*
X155433858Y-114263810D01*
X155338620Y-114216190D01*
X155148143Y-114168571D01*
X155052905Y-114120952D01*
X155005286Y-114073333D01*
X154957667Y-113978095D01*
X154957667Y-113882857D01*
X155005286Y-113787619D01*
X155052905Y-113740000D01*
X155148143Y-113692381D01*
X155386239Y-113692381D01*
X155529096Y-113740000D01*
X155862429Y-113692381D02*
X156100524Y-114692381D01*
X156291001Y-113978095D01*
X156481477Y-114692381D01*
X156719572Y-113692381D01*
X157005286Y-113692381D02*
X157671953Y-113692381D01*
X157243381Y-114692381D01*
X172539667Y-114644762D02*
X172682524Y-114692381D01*
X172920620Y-114692381D01*
X173015858Y-114644762D01*
X173063477Y-114597143D01*
X173111096Y-114501905D01*
X173111096Y-114406667D01*
X173063477Y-114311429D01*
X173015858Y-114263810D01*
X172920620Y-114216190D01*
X172730143Y-114168571D01*
X172634905Y-114120952D01*
X172587286Y-114073333D01*
X172539667Y-113978095D01*
X172539667Y-113882857D01*
X172587286Y-113787619D01*
X172634905Y-113740000D01*
X172730143Y-113692381D01*
X172968239Y-113692381D01*
X173111096Y-113740000D01*
X173444429Y-113692381D02*
X173682524Y-114692381D01*
X173873001Y-113978095D01*
X174063477Y-114692381D01*
X174301572Y-113692381D01*
X174825381Y-114120952D02*
X174730143Y-114073333D01*
X174682524Y-114025714D01*
X174634905Y-113930476D01*
X174634905Y-113882857D01*
X174682524Y-113787619D01*
X174730143Y-113740000D01*
X174825381Y-113692381D01*
X175015858Y-113692381D01*
X175111096Y-113740000D01*
X175158715Y-113787619D01*
X175206334Y-113882857D01*
X175206334Y-113930476D01*
X175158715Y-114025714D01*
X175111096Y-114073333D01*
X175015858Y-114120952D01*
X174825381Y-114120952D01*
X174730143Y-114168571D01*
X174682524Y-114216190D01*
X174634905Y-114311429D01*
X174634905Y-114501905D01*
X174682524Y-114597143D01*
X174730143Y-114644762D01*
X174825381Y-114692381D01*
X175015858Y-114692381D01*
X175111096Y-114644762D01*
X175158715Y-114597143D01*
X175206334Y-114501905D01*
X175206334Y-114311429D01*
X175158715Y-114216190D01*
X175111096Y-114168571D01*
X175015858Y-114120952D01*
X190121667Y-114644762D02*
X190264524Y-114692381D01*
X190502620Y-114692381D01*
X190597858Y-114644762D01*
X190645477Y-114597143D01*
X190693096Y-114501905D01*
X190693096Y-114406667D01*
X190645477Y-114311429D01*
X190597858Y-114263810D01*
X190502620Y-114216190D01*
X190312143Y-114168571D01*
X190216905Y-114120952D01*
X190169286Y-114073333D01*
X190121667Y-113978095D01*
X190121667Y-113882857D01*
X190169286Y-113787619D01*
X190216905Y-113740000D01*
X190312143Y-113692381D01*
X190550239Y-113692381D01*
X190693096Y-113740000D01*
X191026429Y-113692381D02*
X191264524Y-114692381D01*
X191455001Y-113978095D01*
X191645477Y-114692381D01*
X191883572Y-113692381D01*
X192312143Y-114692381D02*
X192502619Y-114692381D01*
X192597858Y-114644762D01*
X192645477Y-114597143D01*
X192740715Y-114454286D01*
X192788334Y-114263810D01*
X192788334Y-113882857D01*
X192740715Y-113787619D01*
X192693096Y-113740000D01*
X192597858Y-113692381D01*
X192407381Y-113692381D01*
X192312143Y-113740000D01*
X192264524Y-113787619D01*
X192216905Y-113882857D01*
X192216905Y-114120952D01*
X192264524Y-114216190D01*
X192312143Y-114263810D01*
X192407381Y-114311429D01*
X192597858Y-114311429D01*
X192693096Y-114263810D01*
X192740715Y-114216190D01*
X192788334Y-114120952D01*
X207226476Y-114644762D02*
X207369333Y-114692381D01*
X207607429Y-114692381D01*
X207702667Y-114644762D01*
X207750286Y-114597143D01*
X207797905Y-114501905D01*
X207797905Y-114406667D01*
X207750286Y-114311429D01*
X207702667Y-114263810D01*
X207607429Y-114216190D01*
X207416952Y-114168571D01*
X207321714Y-114120952D01*
X207274095Y-114073333D01*
X207226476Y-113978095D01*
X207226476Y-113882857D01*
X207274095Y-113787619D01*
X207321714Y-113740000D01*
X207416952Y-113692381D01*
X207655048Y-113692381D01*
X207797905Y-113740000D01*
X208131238Y-113692381D02*
X208369333Y-114692381D01*
X208559810Y-113978095D01*
X208750286Y-114692381D01*
X208988381Y-113692381D01*
X209893143Y-114692381D02*
X209321714Y-114692381D01*
X209607428Y-114692381D02*
X209607428Y-113692381D01*
X209512190Y-113835238D01*
X209416952Y-113930476D01*
X209321714Y-113978095D01*
X210512190Y-113692381D02*
X210607429Y-113692381D01*
X210702667Y-113740000D01*
X210750286Y-113787619D01*
X210797905Y-113882857D01*
X210845524Y-114073333D01*
X210845524Y-114311429D01*
X210797905Y-114501905D01*
X210750286Y-114597143D01*
X210702667Y-114644762D01*
X210607429Y-114692381D01*
X210512190Y-114692381D01*
X210416952Y-114644762D01*
X210369333Y-114597143D01*
X210321714Y-114501905D01*
X210274095Y-114311429D01*
X210274095Y-114073333D01*
X210321714Y-113882857D01*
X210369333Y-113787619D01*
X210416952Y-113740000D01*
X210512190Y-113692381D01*
X224808476Y-114644762D02*
X224951333Y-114692381D01*
X225189429Y-114692381D01*
X225284667Y-114644762D01*
X225332286Y-114597143D01*
X225379905Y-114501905D01*
X225379905Y-114406667D01*
X225332286Y-114311429D01*
X225284667Y-114263810D01*
X225189429Y-114216190D01*
X224998952Y-114168571D01*
X224903714Y-114120952D01*
X224856095Y-114073333D01*
X224808476Y-113978095D01*
X224808476Y-113882857D01*
X224856095Y-113787619D01*
X224903714Y-113740000D01*
X224998952Y-113692381D01*
X225237048Y-113692381D01*
X225379905Y-113740000D01*
X225713238Y-113692381D02*
X225951333Y-114692381D01*
X226141810Y-113978095D01*
X226332286Y-114692381D01*
X226570381Y-113692381D01*
X227475143Y-114692381D02*
X226903714Y-114692381D01*
X227189428Y-114692381D02*
X227189428Y-113692381D01*
X227094190Y-113835238D01*
X226998952Y-113930476D01*
X226903714Y-113978095D01*
X228427524Y-114692381D02*
X227856095Y-114692381D01*
X228141809Y-114692381D02*
X228141809Y-113692381D01*
X228046571Y-113835238D01*
X227951333Y-113930476D01*
X227856095Y-113978095D01*
X242390476Y-114644762D02*
X242533333Y-114692381D01*
X242771429Y-114692381D01*
X242866667Y-114644762D01*
X242914286Y-114597143D01*
X242961905Y-114501905D01*
X242961905Y-114406667D01*
X242914286Y-114311429D01*
X242866667Y-114263810D01*
X242771429Y-114216190D01*
X242580952Y-114168571D01*
X242485714Y-114120952D01*
X242438095Y-114073333D01*
X242390476Y-113978095D01*
X242390476Y-113882857D01*
X242438095Y-113787619D01*
X242485714Y-113740000D01*
X242580952Y-113692381D01*
X242819048Y-113692381D01*
X242961905Y-113740000D01*
X243295238Y-113692381D02*
X243533333Y-114692381D01*
X243723810Y-113978095D01*
X243914286Y-114692381D01*
X244152381Y-113692381D01*
X245057143Y-114692381D02*
X244485714Y-114692381D01*
X244771428Y-114692381D02*
X244771428Y-113692381D01*
X244676190Y-113835238D01*
X244580952Y-113930476D01*
X244485714Y-113978095D01*
X245438095Y-113787619D02*
X245485714Y-113740000D01*
X245580952Y-113692381D01*
X245819048Y-113692381D01*
X245914286Y-113740000D01*
X245961905Y-113787619D01*
X246009524Y-113882857D01*
X246009524Y-113978095D01*
X245961905Y-114120952D01*
X245390476Y-114692381D01*
X246009524Y-114692381D01*
M02*
