G04 #@! TF.FileFunction,Copper,L1,Top,Signal*
%FSLAX46Y46*%
G04 Gerber Fmt 4.6, Leading zero omitted, Abs format (unit mm)*
G04 Created by KiCad (PCBNEW 4.0.0-1rc2.201511291916+6190~38~ubuntu14.04.1-stable) date Mon 14 Mar 2016 12:17:33 PM PDT*
%MOMM*%
G01*
G04 APERTURE LIST*
%ADD10C,0.100000*%
%ADD11R,1.150000X0.750000*%
%ADD12R,0.950000X1.400000*%
%ADD13C,7.000000*%
%ADD14R,2.032000X1.727200*%
%ADD15O,2.032000X1.727200*%
%ADD16R,1.727200X2.032000*%
%ADD17O,1.727200X2.032000*%
%ADD18C,0.600000*%
%ADD19C,0.250000*%
%ADD20C,0.254000*%
G04 APERTURE END LIST*
D10*
D11*
X52375000Y-113225000D03*
X49225000Y-113225000D03*
X52375000Y-110175000D03*
D12*
X48725000Y-111700000D03*
X52875000Y-111700000D03*
D11*
X49225000Y-110175000D03*
X69957000Y-113225000D03*
X66807000Y-113225000D03*
X69957000Y-110175000D03*
D12*
X66307000Y-111700000D03*
X70457000Y-111700000D03*
D11*
X66807000Y-110175000D03*
X87539000Y-113225000D03*
X84389000Y-113225000D03*
X87539000Y-110175000D03*
D12*
X83889000Y-111700000D03*
X88039000Y-111700000D03*
D11*
X84389000Y-110175000D03*
X105120000Y-113225000D03*
X101970000Y-113225000D03*
X105120000Y-110175000D03*
D12*
X101470000Y-111700000D03*
X105620000Y-111700000D03*
D11*
X101970000Y-110175000D03*
X122702000Y-113225000D03*
X119552000Y-113225000D03*
X122702000Y-110175000D03*
D12*
X119052000Y-111700000D03*
X123202000Y-111700000D03*
D11*
X119552000Y-110175000D03*
X140284000Y-113225000D03*
X137134000Y-113225000D03*
X140284000Y-110175000D03*
D12*
X136634000Y-111700000D03*
X140784000Y-111700000D03*
D11*
X137134000Y-110175000D03*
X157866000Y-113225000D03*
X154716000Y-113225000D03*
X157866000Y-110175000D03*
D12*
X154216000Y-111700000D03*
X158366000Y-111700000D03*
D11*
X154716000Y-110175000D03*
X175448000Y-113225000D03*
X172298000Y-113225000D03*
X175448000Y-110175000D03*
D12*
X171798000Y-111700000D03*
X175948000Y-111700000D03*
D11*
X172298000Y-110175000D03*
X193030000Y-113225000D03*
X189880000Y-113225000D03*
X193030000Y-110175000D03*
D12*
X189380000Y-111700000D03*
X193530000Y-111700000D03*
D11*
X189880000Y-110175000D03*
X210611000Y-113225000D03*
X207461000Y-113225000D03*
X210611000Y-110175000D03*
D12*
X206961000Y-111700000D03*
X211111000Y-111700000D03*
D11*
X207461000Y-110175000D03*
X228193000Y-113225000D03*
X225043000Y-113225000D03*
X228193000Y-110175000D03*
D12*
X224543000Y-111700000D03*
X228693000Y-111700000D03*
D11*
X225043000Y-110175000D03*
X245775000Y-113225000D03*
X242625000Y-113225000D03*
X245775000Y-110175000D03*
D12*
X242125000Y-111700000D03*
X246275000Y-111700000D03*
D11*
X242625000Y-110175000D03*
D13*
X49022000Y-118618000D03*
X246380000Y-118618000D03*
D14*
X41910000Y-101600000D03*
D15*
X41910000Y-104140000D03*
X41910000Y-106680000D03*
X41910000Y-109220000D03*
X41910000Y-111760000D03*
X41910000Y-114300000D03*
X41910000Y-116840000D03*
X41910000Y-119380000D03*
D16*
X45720000Y-101854000D03*
D17*
X48260000Y-101854000D03*
D14*
X253746000Y-101600000D03*
D15*
X253746000Y-104140000D03*
X253746000Y-106680000D03*
X253746000Y-109220000D03*
X253746000Y-111760000D03*
X253746000Y-114300000D03*
X253746000Y-116840000D03*
X253746000Y-119380000D03*
D18*
X152908000Y-113284000D03*
X135382000Y-113284000D03*
X117602000Y-113284000D03*
X99822000Y-113284000D03*
X82296000Y-113284000D03*
X64516000Y-113284000D03*
X47498000Y-113284000D03*
X45720000Y-114046000D03*
X236982000Y-104902000D03*
X73914000Y-104648000D03*
X53086000Y-107696000D03*
X176022000Y-106172000D03*
X177800000Y-105410000D03*
X176276000Y-105410000D03*
X251714000Y-103378000D03*
X249428000Y-105410000D03*
X244602000Y-107696000D03*
X46482000Y-109982000D03*
X176784000Y-101600000D03*
X177038000Y-110490000D03*
X235966000Y-105410000D03*
X251460000Y-105918000D03*
X244348000Y-108966000D03*
X240030000Y-108966000D03*
X194818000Y-110490000D03*
X194056000Y-105156000D03*
X53086000Y-102108000D03*
X53848000Y-107950000D03*
X212090000Y-110236000D03*
X211074000Y-102108000D03*
X71120000Y-102108000D03*
X71374000Y-110236000D03*
X229616000Y-110236000D03*
X228092000Y-102362000D03*
X88900000Y-110490000D03*
X88138000Y-102362000D03*
X245872000Y-107442000D03*
X245364000Y-103632000D03*
X106680000Y-110236000D03*
X105918000Y-102870000D03*
X124206000Y-110490000D03*
X123190000Y-103378000D03*
X141732000Y-110490000D03*
X140970000Y-103886000D03*
X159258000Y-110236000D03*
X158496000Y-104394000D03*
X245872000Y-101092000D03*
X246634000Y-100584000D03*
X44196000Y-117602000D03*
X46990000Y-111506000D03*
D19*
X152908000Y-113284000D02*
X154216000Y-111976000D01*
X154216000Y-111976000D02*
X154216000Y-111700000D01*
X135382000Y-113284000D02*
X136634000Y-112032000D01*
X136634000Y-112032000D02*
X136634000Y-111700000D01*
X117602000Y-113284000D02*
X119052000Y-111834000D01*
X119052000Y-111834000D02*
X119052000Y-111700000D01*
X99822000Y-113284000D02*
X101406000Y-111700000D01*
X101406000Y-111700000D02*
X101470000Y-111700000D01*
X82296000Y-113284000D02*
X83880000Y-111700000D01*
X83880000Y-111700000D02*
X83889000Y-111700000D01*
X64516000Y-113284000D02*
X66100000Y-111700000D01*
X66100000Y-111700000D02*
X66307000Y-111700000D01*
X47498000Y-113284000D02*
X48725000Y-112057000D01*
X48725000Y-112057000D02*
X48725000Y-111700000D01*
X221996000Y-114046000D02*
X239776000Y-114046000D01*
X239776000Y-114046000D02*
X242122000Y-111700000D01*
X242122000Y-111700000D02*
X242125000Y-111700000D01*
X204470000Y-114046000D02*
X221996000Y-114046000D01*
X221996000Y-114046000D02*
X224342000Y-111700000D01*
X224342000Y-111700000D02*
X224543000Y-111700000D01*
X186690000Y-114046000D02*
X204470000Y-114046000D01*
X204470000Y-114046000D02*
X206816000Y-111700000D01*
X206816000Y-111700000D02*
X206961000Y-111700000D01*
X169452000Y-114046000D02*
X186182000Y-114046000D01*
X186690000Y-114046000D02*
X189036000Y-111700000D01*
X186182000Y-114046000D02*
X186690000Y-114046000D01*
X189036000Y-111700000D02*
X189380000Y-111700000D01*
X169452000Y-114046000D02*
X171798000Y-111700000D01*
X45720000Y-114046000D02*
X169452000Y-114046000D01*
X45720000Y-114046000D02*
X45720000Y-114046000D01*
X236474000Y-104532004D02*
X236589996Y-104648000D01*
X236589996Y-104648000D02*
X236728000Y-104648000D01*
X236982000Y-104902000D02*
X236728000Y-104648000D01*
X178308000Y-106172000D02*
X178308000Y-106158018D01*
X68956806Y-104394000D02*
X69972806Y-105410000D01*
X69972806Y-105410000D02*
X72644000Y-105410000D01*
X72644000Y-105410000D02*
X73406000Y-104648000D01*
X73406000Y-104648000D02*
X73914000Y-104648000D01*
X53086000Y-107696000D02*
X56388000Y-104394000D01*
X56388000Y-104394000D02*
X68580000Y-104394000D01*
X68580000Y-104394000D02*
X68956806Y-104394000D01*
X176022000Y-106172000D02*
X178308000Y-106172000D01*
X229362000Y-105156000D02*
X229985996Y-104532004D01*
X226947602Y-105156000D02*
X229362000Y-105156000D01*
X226326402Y-104534800D02*
X226947602Y-105156000D01*
X213347598Y-104534800D02*
X226326402Y-104534800D01*
X212726398Y-105156000D02*
X213347598Y-104534800D01*
X209296000Y-105156000D02*
X212726398Y-105156000D01*
X208520018Y-104380018D02*
X209296000Y-105156000D01*
X180086000Y-104380018D02*
X208520018Y-104380018D01*
X178308000Y-106158018D02*
X180086000Y-104380018D01*
X229985996Y-104532004D02*
X236474000Y-104532004D01*
X176276000Y-105410000D02*
X177800000Y-105410000D01*
X251714000Y-103378000D02*
X249682000Y-105410000D01*
X249682000Y-105410000D02*
X249428000Y-105410000D01*
X176276000Y-101230004D02*
X244994004Y-101230004D01*
X245618000Y-101854000D02*
X253492000Y-101854000D01*
X244994004Y-101230004D02*
X245618000Y-101854000D01*
X253492000Y-101854000D02*
X253746000Y-101600000D01*
X41910000Y-101600000D02*
X42672000Y-101600000D01*
X42672000Y-101600000D02*
X44704000Y-103632000D01*
X44704000Y-103632000D02*
X46736000Y-103632000D01*
X46736000Y-103632000D02*
X46990000Y-103886000D01*
X46990000Y-103886000D02*
X49784000Y-103886000D01*
X49784000Y-103886000D02*
X50292000Y-103378000D01*
X50292000Y-103378000D02*
X50292000Y-102246004D01*
X50292000Y-102246004D02*
X51308000Y-101230004D01*
X51308000Y-101230004D02*
X176276000Y-101230004D01*
X176276000Y-101230004D02*
X176414004Y-101230004D01*
X176414004Y-101230004D02*
X176784000Y-101600000D01*
X177038000Y-110490000D02*
X175948000Y-111580000D01*
X175948000Y-111580000D02*
X175948000Y-111700000D01*
X235966000Y-105410000D02*
X235712000Y-105156000D01*
X240538000Y-108966000D02*
X240030000Y-108966000D01*
X253238000Y-104140000D02*
X251460000Y-105918000D01*
X244348000Y-108966000D02*
X240538000Y-108966000D01*
X235712000Y-105156000D02*
X230124000Y-105156000D01*
X226060000Y-104984802D02*
X226739198Y-105664000D01*
X226739198Y-105664000D02*
X229616000Y-105664000D01*
X229616000Y-105664000D02*
X230124000Y-105156000D01*
X226060000Y-104984802D02*
X224536000Y-104984802D01*
X253746000Y-104140000D02*
X253238000Y-104140000D01*
X193802000Y-104902000D02*
X208405602Y-104902000D01*
X208405602Y-104902000D02*
X209109604Y-105606002D01*
X209109604Y-105606002D02*
X212912794Y-105606002D01*
X212912794Y-105606002D02*
X213533994Y-104984802D01*
X213533994Y-104984802D02*
X224536000Y-104984802D01*
X224536000Y-104984802D02*
X224790000Y-104984802D01*
X193802000Y-104902000D02*
X194056000Y-105156000D01*
X157734000Y-104648000D02*
X158242000Y-105156000D01*
X158242000Y-105156000D02*
X158750000Y-105156000D01*
X158750000Y-105156000D02*
X159258000Y-104648000D01*
X159258000Y-104648000D02*
X172974000Y-104648000D01*
X172974000Y-104648000D02*
X175260000Y-106934000D01*
X175260000Y-106934000D02*
X178308000Y-106934000D01*
X178308000Y-106934000D02*
X180340000Y-104902000D01*
X180340000Y-104902000D02*
X193802000Y-104902000D01*
X193530000Y-111700000D02*
X194818000Y-110412000D01*
X121158000Y-104648000D02*
X121920000Y-104648000D01*
X104381598Y-104648000D02*
X104889598Y-105156000D01*
X104889598Y-105156000D02*
X106934000Y-105156000D01*
X106934000Y-105156000D02*
X107442000Y-104648000D01*
X107442000Y-104648000D02*
X121158000Y-104648000D01*
X73152000Y-105918000D02*
X73660000Y-105918000D01*
X56896000Y-104902000D02*
X68522002Y-104902000D01*
X68522002Y-104902000D02*
X69538002Y-105918000D01*
X69538002Y-105918000D02*
X73152000Y-105918000D01*
X56896000Y-104902000D02*
X53848000Y-107950000D01*
X89662000Y-104648000D02*
X103886000Y-104648000D01*
X89154000Y-105156000D02*
X89662000Y-104648000D01*
X86868000Y-105156000D02*
X89154000Y-105156000D01*
X86128008Y-104416008D02*
X86868000Y-105156000D01*
X75161992Y-104416008D02*
X86128008Y-104416008D01*
X73660000Y-105918000D02*
X75161992Y-104416008D01*
X103886000Y-104648000D02*
X104381598Y-104648000D01*
X141928002Y-104648000D02*
X157226000Y-104648000D01*
X141420002Y-105156000D02*
X141928002Y-104648000D01*
X140462000Y-105156000D02*
X141420002Y-105156000D01*
X139954000Y-104648000D02*
X140462000Y-105156000D01*
X124460000Y-104648000D02*
X139954000Y-104648000D01*
X123952000Y-105156000D02*
X124460000Y-104648000D01*
X122428000Y-105156000D02*
X123952000Y-105156000D01*
X121920000Y-104648000D02*
X122428000Y-105156000D01*
X157226000Y-104648000D02*
X157734000Y-104648000D01*
X194779000Y-110451000D02*
X194818000Y-110412000D01*
X194818000Y-110490000D02*
X194779000Y-110451000D01*
X46228000Y-104140000D02*
X46482000Y-104394000D01*
X46482000Y-104394000D02*
X50038000Y-104394000D01*
X50038000Y-104394000D02*
X52324000Y-102108000D01*
X52324000Y-102108000D02*
X53086000Y-102108000D01*
X52875000Y-111463000D02*
X53848000Y-110490000D01*
X46228000Y-104140000D02*
X41910000Y-104140000D01*
X53848000Y-107950000D02*
X53848000Y-110490000D01*
X52875000Y-111463000D02*
X52875000Y-111700000D01*
X246126000Y-102304002D02*
X246196400Y-102304002D01*
X249682000Y-106680000D02*
X253746000Y-106680000D01*
X247280004Y-104278004D02*
X249682000Y-106680000D01*
X247280004Y-103387606D02*
X247280004Y-104278004D01*
X246196400Y-102304002D02*
X247280004Y-103387606D01*
X210646006Y-101680006D02*
X244682006Y-101680006D01*
X245306002Y-102304002D02*
X246126000Y-102304002D01*
X244682006Y-101680006D02*
X245306002Y-102304002D01*
X70612000Y-101680006D02*
X175594006Y-101680006D01*
X212090000Y-110236000D02*
X211111000Y-111215000D01*
X210646006Y-101680006D02*
X211074000Y-102108000D01*
X178227994Y-101680006D02*
X210646006Y-101680006D01*
X177546000Y-102362000D02*
X178227994Y-101680006D01*
X176276000Y-102362000D02*
X177546000Y-102362000D01*
X175594006Y-101680006D02*
X176276000Y-102362000D01*
X211111000Y-111215000D02*
X211111000Y-111700000D01*
X41910000Y-106680000D02*
X42164000Y-106680000D01*
X42164000Y-106680000D02*
X43942000Y-104902000D01*
X43942000Y-104902000D02*
X51308000Y-104902000D01*
X51308000Y-104902000D02*
X54529994Y-101680006D01*
X54529994Y-101680006D02*
X70612000Y-101680006D01*
X70612000Y-101680006D02*
X70692006Y-101680006D01*
X70692006Y-101680006D02*
X71120000Y-102108000D01*
X71374000Y-110236000D02*
X71374000Y-110998000D01*
X71374000Y-110998000D02*
X70672000Y-111700000D01*
X70672000Y-111700000D02*
X70457000Y-111700000D01*
X245872000Y-102754004D02*
X246010004Y-102754004D01*
X251334398Y-109220000D02*
X253746000Y-109220000D01*
X246830002Y-104715604D02*
X251334398Y-109220000D01*
X246830002Y-103574002D02*
X246830002Y-104715604D01*
X246010004Y-102754004D02*
X246830002Y-103574002D01*
X227838000Y-102130008D02*
X244348000Y-102130008D01*
X244971996Y-102754004D02*
X245872000Y-102754004D01*
X244348000Y-102130008D02*
X244971996Y-102754004D01*
X213106000Y-102130008D02*
X227838000Y-102130008D01*
X212090000Y-102130008D02*
X213106000Y-102130008D01*
X210312000Y-102362000D02*
X210820000Y-102870000D01*
X178330008Y-102362000D02*
X178562000Y-102130008D01*
X178562000Y-102130008D02*
X210080008Y-102130008D01*
X210080008Y-102130008D02*
X210312000Y-102362000D01*
X87652008Y-102130008D02*
X175407610Y-102130008D01*
X178182398Y-102362000D02*
X178308000Y-102362000D01*
X177732396Y-102812002D02*
X178182398Y-102362000D01*
X176089604Y-102812002D02*
X177732396Y-102812002D01*
X175407610Y-102130008D02*
X176089604Y-102812002D01*
X178308000Y-102362000D02*
X178330008Y-102362000D01*
X211582000Y-102870000D02*
X212090000Y-102362000D01*
X210820000Y-102870000D02*
X211582000Y-102870000D01*
X212090000Y-102362000D02*
X212090000Y-102130008D01*
X229616000Y-110236000D02*
X228693000Y-111159000D01*
X228069992Y-102362000D02*
X228092000Y-102362000D01*
X227838000Y-102130008D02*
X228069992Y-102362000D01*
X228693000Y-111159000D02*
X228693000Y-111700000D01*
X41910000Y-109220000D02*
X43434000Y-107696000D01*
X88900000Y-110490000D02*
X88039000Y-111351000D01*
X87884000Y-102362000D02*
X88138000Y-102362000D01*
X87652008Y-102130008D02*
X87884000Y-102362000D01*
X72136000Y-102130008D02*
X87652008Y-102130008D01*
X71904008Y-102362000D02*
X72136000Y-102130008D01*
X71396008Y-102870000D02*
X71904008Y-102362000D01*
X70866000Y-102870000D02*
X71396008Y-102870000D01*
X70126008Y-102130008D02*
X70866000Y-102870000D01*
X54864000Y-102130008D02*
X70126008Y-102130008D01*
X51584008Y-105410000D02*
X54864000Y-102130008D01*
X44196000Y-105410000D02*
X51584008Y-105410000D01*
X43434000Y-106172000D02*
X44196000Y-105410000D01*
X43434000Y-107696000D02*
X43434000Y-106172000D01*
X88039000Y-111351000D02*
X88039000Y-111700000D01*
X245618000Y-103204006D02*
X245698006Y-103204006D01*
X246380000Y-104902000D02*
X253238000Y-111760000D01*
X246380000Y-103886000D02*
X246380000Y-104902000D01*
X245698006Y-103204006D02*
X246380000Y-103886000D01*
X253238000Y-111760000D02*
X253746000Y-111760000D01*
X244856000Y-103204006D02*
X244936006Y-103204006D01*
X247396000Y-110579000D02*
X246275000Y-111700000D01*
X247396000Y-108966000D02*
X247396000Y-110579000D01*
X245872000Y-107442000D02*
X247396000Y-108966000D01*
X244936006Y-103204006D02*
X245364000Y-103632000D01*
X246275000Y-111700000D02*
X246694000Y-111700000D01*
X212598000Y-102616000D02*
X227330000Y-102616000D01*
X227330000Y-102616000D02*
X227838000Y-103124000D01*
X227838000Y-103124000D02*
X228346000Y-103124000D01*
X228346000Y-103124000D02*
X228854000Y-102616000D01*
X228854000Y-102616000D02*
X244094000Y-102616000D01*
X244094000Y-102616000D02*
X244682006Y-103204006D01*
X244682006Y-103204006D02*
X244856000Y-103204006D01*
X244856000Y-103204006D02*
X245618000Y-103204006D01*
X209804000Y-102580010D02*
X209804000Y-102616000D01*
X175257204Y-102616000D02*
X176019204Y-103378000D01*
X176019204Y-103378000D02*
X178054000Y-103378000D01*
X178054000Y-103378000D02*
X178851990Y-102580010D01*
X178851990Y-102580010D02*
X209804000Y-102580010D01*
X105664000Y-102616000D02*
X174752000Y-102616000D01*
X174752000Y-102616000D02*
X175257204Y-102616000D01*
X211893998Y-103320002D02*
X212598000Y-102616000D01*
X210508002Y-103320002D02*
X211893998Y-103320002D01*
X209804000Y-102616000D02*
X210508002Y-103320002D01*
X105664000Y-102580010D02*
X105664000Y-102616000D01*
X69939612Y-102580010D02*
X70679604Y-103320002D01*
X70679604Y-103320002D02*
X71650008Y-103320002D01*
X71650008Y-103320002D02*
X72354010Y-102616000D01*
X72354010Y-102616000D02*
X87376000Y-102616000D01*
X87376000Y-102616000D02*
X87884000Y-103124000D01*
X87884000Y-103124000D02*
X88392000Y-103124000D01*
X88392000Y-103124000D02*
X88935990Y-102580010D01*
X88935990Y-102580010D02*
X105664000Y-102580010D01*
X43942000Y-106426000D02*
X44450000Y-105918000D01*
X43942000Y-107950000D02*
X43942000Y-106426000D01*
X43434000Y-108458000D02*
X43942000Y-107950000D01*
X43434000Y-109728000D02*
X43434000Y-108458000D01*
X41910000Y-111252000D02*
X43434000Y-109728000D01*
X55118000Y-102580010D02*
X69850000Y-102580010D01*
X53542203Y-104155807D02*
X55118000Y-102580010D01*
X53542203Y-104191797D02*
X53542203Y-104155807D01*
X51816000Y-105918000D02*
X53542203Y-104191797D01*
X44450000Y-105918000D02*
X51816000Y-105918000D01*
X69850000Y-102580010D02*
X69939612Y-102580010D01*
X106680000Y-110236000D02*
X105620000Y-111296000D01*
X105664000Y-102616000D02*
X105918000Y-102870000D01*
X105620000Y-111296000D02*
X105620000Y-111700000D01*
X41910000Y-111760000D02*
X41910000Y-111252000D01*
X252222000Y-111506000D02*
X252222000Y-111380398D01*
X252222000Y-111380398D02*
X244410801Y-103569199D01*
X226822000Y-103124000D02*
X227201602Y-103124000D01*
X227201602Y-103124000D02*
X227709602Y-103632000D01*
X227709602Y-103632000D02*
X228542002Y-103632000D01*
X228542002Y-103632000D02*
X229050002Y-103124000D01*
X229050002Y-103124000D02*
X243965602Y-103124000D01*
X243965602Y-103124000D02*
X244495610Y-103654008D01*
X179070000Y-103030012D02*
X209456012Y-103030012D01*
X175128806Y-103124000D02*
X175832808Y-103828002D01*
X175832808Y-103828002D02*
X178272010Y-103828002D01*
X178272010Y-103828002D02*
X179070000Y-103030012D01*
X122936000Y-103124000D02*
X175128806Y-103124000D01*
X212726398Y-103124000D02*
X226822000Y-103124000D01*
X212080394Y-103770004D02*
X212726398Y-103124000D01*
X210196004Y-103770004D02*
X212080394Y-103770004D01*
X209456012Y-103030012D02*
X210196004Y-103770004D01*
X252222000Y-112776000D02*
X253746000Y-114300000D01*
X252222000Y-111506000D02*
X252222000Y-112776000D01*
X105664000Y-103632000D02*
X106172000Y-103632000D01*
X87122000Y-103124000D02*
X87630000Y-103632000D01*
X87630000Y-103632000D02*
X88646000Y-103632000D01*
X88646000Y-103632000D02*
X89154000Y-103124000D01*
X89154000Y-103124000D02*
X105156000Y-103124000D01*
X105156000Y-103124000D02*
X105664000Y-103632000D01*
X69342000Y-103030012D02*
X69502012Y-103030012D01*
X55372000Y-103030012D02*
X69342000Y-103030012D01*
X52034010Y-106368002D02*
X55372000Y-103030012D01*
X44761998Y-106368002D02*
X52034010Y-106368002D01*
X44392002Y-106737998D02*
X44761998Y-106368002D01*
X44392002Y-108136396D02*
X44392002Y-106737998D01*
X43884002Y-108644396D02*
X44392002Y-108136396D01*
X43884002Y-109914396D02*
X43884002Y-108644396D01*
X43434000Y-110364398D02*
X43884002Y-109914396D01*
X43434000Y-112522000D02*
X43434000Y-110364398D01*
X41910000Y-114046000D02*
X43434000Y-112522000D01*
X72701998Y-103066002D02*
X87122000Y-103066002D01*
X71882000Y-103886000D02*
X72701998Y-103066002D01*
X70358000Y-103886000D02*
X71882000Y-103886000D01*
X69502012Y-103030012D02*
X70358000Y-103886000D01*
X87122000Y-103066002D02*
X87122000Y-103124000D01*
X124206000Y-110490000D02*
X123202000Y-111494000D01*
X122936000Y-103124000D02*
X123190000Y-103378000D01*
X106680000Y-103124000D02*
X122936000Y-103124000D01*
X106172000Y-103632000D02*
X106680000Y-103124000D01*
X123202000Y-111494000D02*
X123202000Y-111700000D01*
X41910000Y-114300000D02*
X41910000Y-114046000D01*
X244345204Y-104140000D02*
X244345204Y-104146810D01*
X244345204Y-104146810D02*
X251771998Y-111573604D01*
X226822000Y-103632000D02*
X227330000Y-104140000D01*
X227330000Y-104140000D02*
X228796002Y-104140000D01*
X228796002Y-104140000D02*
X229304002Y-103632000D01*
X229304002Y-103632000D02*
X243837204Y-103632000D01*
X243837204Y-103632000D02*
X244345204Y-104140000D01*
X181610000Y-103480014D02*
X209042000Y-103480014D01*
X174694002Y-103632000D02*
X174752000Y-103574002D01*
X174752000Y-103574002D02*
X174942410Y-103574002D01*
X174942410Y-103574002D02*
X175646412Y-104278004D01*
X175646412Y-104278004D02*
X178458406Y-104278004D01*
X178458406Y-104278004D02*
X179256396Y-103480014D01*
X179256396Y-103480014D02*
X181610000Y-103480014D01*
X140462000Y-103632000D02*
X174694002Y-103632000D01*
X226565204Y-103634796D02*
X226568000Y-103632000D01*
X212852000Y-103634796D02*
X226565204Y-103634796D01*
X212266790Y-104220006D02*
X212852000Y-103634796D01*
X209781992Y-104220006D02*
X212266790Y-104220006D01*
X209042000Y-103480014D02*
X209781992Y-104220006D01*
X226568000Y-103632000D02*
X226822000Y-103632000D01*
X252222000Y-115316000D02*
X253746000Y-116840000D01*
X252222000Y-113538000D02*
X252222000Y-115316000D01*
X251771998Y-113087998D02*
X252222000Y-113538000D01*
X251771998Y-111573604D02*
X251771998Y-113087998D01*
X104648000Y-103574002D02*
X104902000Y-103574002D01*
X86868000Y-103516004D02*
X87433998Y-104082002D01*
X87433998Y-104082002D02*
X88832396Y-104082002D01*
X88832396Y-104082002D02*
X89340396Y-103574002D01*
X89340396Y-103574002D02*
X104648000Y-103574002D01*
X69088000Y-103480014D02*
X69315616Y-103480014D01*
X55626000Y-103480014D02*
X69088000Y-103480014D01*
X52172014Y-106934000D02*
X55626000Y-103480014D01*
X45466000Y-106934000D02*
X52172014Y-106934000D01*
X44958000Y-107442000D02*
X45466000Y-106934000D01*
X44958000Y-108458000D02*
X44958000Y-107442000D01*
X44334004Y-109081996D02*
X44958000Y-108458000D01*
X44334004Y-110351996D02*
X44334004Y-109081996D01*
X43942000Y-110744000D02*
X44334004Y-110351996D01*
X43942000Y-114554000D02*
X43942000Y-110744000D01*
X41910000Y-116586000D02*
X43942000Y-114554000D01*
X72898000Y-103516004D02*
X73914000Y-103516004D01*
X72020004Y-104394000D02*
X72898000Y-103516004D01*
X70229602Y-104394000D02*
X72020004Y-104394000D01*
X69315616Y-103480014D02*
X70229602Y-104394000D01*
X73914000Y-103516004D02*
X86868000Y-103516004D01*
X141732000Y-110490000D02*
X140784000Y-111438000D01*
X140716000Y-103632000D02*
X140970000Y-103886000D01*
X123952000Y-103632000D02*
X140462000Y-103632000D01*
X140462000Y-103632000D02*
X140716000Y-103632000D01*
X123444000Y-104140000D02*
X123952000Y-103632000D01*
X122936000Y-104140000D02*
X123444000Y-104140000D01*
X122370002Y-103574002D02*
X122936000Y-104140000D01*
X106934000Y-103574002D02*
X122370002Y-103574002D01*
X106368002Y-104140000D02*
X106934000Y-103574002D01*
X105410000Y-104140000D02*
X106368002Y-104140000D01*
X105278197Y-104008197D02*
X105410000Y-104140000D01*
X105278197Y-103950199D02*
X105278197Y-104008197D01*
X104902000Y-103574002D02*
X105278197Y-103950199D01*
X140784000Y-111438000D02*
X140784000Y-111700000D01*
X41910000Y-116840000D02*
X41910000Y-116586000D01*
X244094000Y-104590002D02*
X244151998Y-104590002D01*
X243528002Y-104082002D02*
X244036002Y-104590002D01*
X244036002Y-104590002D02*
X244094000Y-104590002D01*
X244151998Y-104590002D02*
X251321996Y-111760000D01*
X244151998Y-104590002D02*
X251321996Y-111760000D01*
X226314000Y-104084798D02*
X226512798Y-104084798D01*
X226512798Y-104084798D02*
X227076000Y-104648000D01*
X227076000Y-104648000D02*
X229108000Y-104648000D01*
X229108000Y-104648000D02*
X229673998Y-104082002D01*
X229673998Y-104082002D02*
X243528002Y-104082002D01*
X180086000Y-103930016D02*
X208832016Y-103930016D01*
X213161202Y-104084798D02*
X226314000Y-104084798D01*
X212575992Y-104670008D02*
X213161202Y-104084798D01*
X209572008Y-104670008D02*
X212575992Y-104670008D01*
X208832016Y-103930016D02*
X209572008Y-104670008D01*
X252222000Y-117856000D02*
X253746000Y-119380000D01*
X252222000Y-116078000D02*
X252222000Y-117856000D01*
X251714000Y-115570000D02*
X252222000Y-116078000D01*
X251714000Y-113734002D02*
X251714000Y-115570000D01*
X251321996Y-113341998D02*
X251714000Y-113734002D01*
X251321996Y-111760000D02*
X251321996Y-113341998D01*
X157988000Y-104140000D02*
X174636004Y-104140000D01*
X179442792Y-103930016D02*
X180086000Y-103930016D01*
X180086000Y-103930016D02*
X180340000Y-103930016D01*
X178644802Y-104728006D02*
X179442792Y-103930016D01*
X175224010Y-104728006D02*
X178644802Y-104728006D01*
X174636004Y-104140000D02*
X175224010Y-104728006D01*
X121666000Y-104024004D02*
X122183606Y-104024004D01*
X106622002Y-104590002D02*
X107188000Y-104024004D01*
X107188000Y-104024004D02*
X121666000Y-104024004D01*
X90424000Y-104024004D02*
X104394000Y-104024004D01*
X104959998Y-104590002D02*
X106172000Y-104590002D01*
X104394000Y-104024004D02*
X104959998Y-104590002D01*
X106172000Y-104590002D02*
X106622002Y-104590002D01*
X159258000Y-110236000D02*
X158366000Y-111128000D01*
X158242000Y-104140000D02*
X158496000Y-104394000D01*
X141732000Y-104140000D02*
X157988000Y-104140000D01*
X157988000Y-104140000D02*
X158242000Y-104140000D01*
X141224000Y-104648000D02*
X141732000Y-104140000D01*
X140716000Y-104648000D02*
X141224000Y-104648000D01*
X140208000Y-104140000D02*
X140716000Y-104648000D01*
X124206000Y-104140000D02*
X140208000Y-104140000D01*
X123698000Y-104648000D02*
X124206000Y-104140000D01*
X122807602Y-104648000D02*
X123698000Y-104648000D01*
X122183606Y-104024004D02*
X122807602Y-104648000D01*
X158366000Y-111128000D02*
X158366000Y-111700000D01*
X74422000Y-103966006D02*
X86440006Y-103966006D01*
X55670016Y-104140000D02*
X55880000Y-103930016D01*
X55880000Y-103930016D02*
X69129220Y-103930016D01*
X69129220Y-103930016D02*
X70101204Y-104902000D01*
X70101204Y-104902000D02*
X72470006Y-104902000D01*
X72470006Y-104902000D02*
X73406000Y-103966006D01*
X73406000Y-103966006D02*
X74422000Y-103966006D01*
X41910000Y-118872000D02*
X43625199Y-117156801D01*
X43625199Y-117156801D02*
X43625199Y-115632801D01*
X43625199Y-115632801D02*
X44450000Y-114808000D01*
X44450000Y-114808000D02*
X44450000Y-110872398D01*
X44450000Y-110872398D02*
X44784006Y-110538392D01*
X44784006Y-110538392D02*
X44784006Y-109647994D01*
X44784006Y-109647994D02*
X45408002Y-109023998D01*
X45408002Y-109023998D02*
X45408002Y-108007998D01*
X45408002Y-108007998D02*
X46031998Y-107384002D01*
X46031998Y-107384002D02*
X52381998Y-107384002D01*
X52381998Y-107384002D02*
X55626000Y-104140000D01*
X55626000Y-104140000D02*
X55670016Y-104140000D01*
X89526792Y-104024004D02*
X90424000Y-104024004D01*
X90424000Y-104024004D02*
X90562004Y-104024004D01*
X89018792Y-104532004D02*
X89526792Y-104024004D01*
X87006004Y-104532004D02*
X89018792Y-104532004D01*
X86440006Y-103966006D02*
X87006004Y-104532004D01*
X41910000Y-119380000D02*
X41910000Y-118872000D01*
X45720000Y-101854000D02*
X47244000Y-103378000D01*
X245560002Y-100780002D02*
X245872000Y-101092000D01*
X50349998Y-100780002D02*
X245560002Y-100780002D01*
X49784000Y-101346000D02*
X50349998Y-100780002D01*
X49784000Y-102870000D02*
X49784000Y-101346000D01*
X49276000Y-103378000D02*
X49784000Y-102870000D01*
X47244000Y-103378000D02*
X49276000Y-103378000D01*
X246634000Y-100584000D02*
X246380000Y-100330000D01*
X48260000Y-101854000D02*
X49784000Y-100330000D01*
X49784000Y-100330000D02*
X246380000Y-100330000D01*
X44196000Y-117602000D02*
X44196000Y-115824000D01*
X44196000Y-115824000D02*
X44958000Y-115062000D01*
X44958000Y-115062000D02*
X44958000Y-113538000D01*
X44958000Y-113538000D02*
X46990000Y-111506000D01*
D20*
G36*
X243498601Y-105127403D02*
X243745163Y-105292150D01*
X243787831Y-105300637D01*
X245239477Y-106752283D01*
X245079808Y-106911673D01*
X244937162Y-107255201D01*
X244936838Y-107627167D01*
X245078883Y-107970943D01*
X245341673Y-108234192D01*
X245685201Y-108376838D01*
X245732077Y-108376879D01*
X246551232Y-109196034D01*
X246476309Y-109165000D01*
X246060750Y-109165000D01*
X245902000Y-109323750D01*
X245902000Y-110048000D01*
X245922000Y-110048000D01*
X245922000Y-110302000D01*
X245902000Y-110302000D01*
X245902000Y-110322000D01*
X245648000Y-110322000D01*
X245648000Y-110302000D01*
X244723750Y-110302000D01*
X244565000Y-110460750D01*
X244565000Y-110676310D01*
X244661673Y-110909699D01*
X244840302Y-111088327D01*
X245073691Y-111185000D01*
X245152560Y-111185000D01*
X245152560Y-112215000D01*
X245073691Y-112215000D01*
X244840302Y-112311673D01*
X244661673Y-112490301D01*
X244565000Y-112723690D01*
X244565000Y-112939250D01*
X244723750Y-113098000D01*
X245648000Y-113098000D01*
X245648000Y-113078000D01*
X245902000Y-113078000D01*
X245902000Y-113098000D01*
X246826250Y-113098000D01*
X246906201Y-113018049D01*
X246985317Y-113003162D01*
X247201441Y-112864090D01*
X247346431Y-112651890D01*
X247397440Y-112400000D01*
X247397440Y-111984344D01*
X247454000Y-111700000D01*
X247436712Y-111613090D01*
X247933401Y-111116401D01*
X248098148Y-110869840D01*
X248115851Y-110780839D01*
X248156000Y-110579000D01*
X248156000Y-109668806D01*
X250561996Y-112074802D01*
X250561996Y-113341998D01*
X250619848Y-113632837D01*
X250784595Y-113879399D01*
X250954000Y-114048804D01*
X250954000Y-115570000D01*
X251011852Y-115860839D01*
X251176599Y-116107401D01*
X251462000Y-116392802D01*
X251462000Y-117856000D01*
X251519852Y-118146839D01*
X251684599Y-118393401D01*
X252163619Y-118872421D01*
X252062655Y-119380000D01*
X252176729Y-119953489D01*
X252501585Y-120439670D01*
X252987766Y-120764526D01*
X253561255Y-120878600D01*
X253930745Y-120878600D01*
X254290000Y-120807140D01*
X254290000Y-121690000D01*
X249155516Y-121690000D01*
X249883438Y-120963347D01*
X250514280Y-119444111D01*
X250515716Y-117799106D01*
X249887526Y-116278771D01*
X248725347Y-115114562D01*
X247206111Y-114483720D01*
X245561106Y-114482284D01*
X244040771Y-115110474D01*
X242876562Y-116272653D01*
X242245720Y-117791889D01*
X242244284Y-119436894D01*
X242872474Y-120957229D01*
X243603967Y-121690000D01*
X243305709Y-121690000D01*
X236793818Y-114806000D01*
X239776000Y-114806000D01*
X240066839Y-114748148D01*
X240313401Y-114583401D01*
X241544800Y-113352002D01*
X241573748Y-113352002D01*
X241415000Y-113510750D01*
X241415000Y-113726310D01*
X241511673Y-113959699D01*
X241690302Y-114138327D01*
X241923691Y-114235000D01*
X242339250Y-114235000D01*
X242498000Y-114076250D01*
X242498000Y-113352000D01*
X242752000Y-113352000D01*
X242752000Y-114076250D01*
X242910750Y-114235000D01*
X243326309Y-114235000D01*
X243559698Y-114138327D01*
X243738327Y-113959699D01*
X243835000Y-113726310D01*
X243835000Y-113510750D01*
X244565000Y-113510750D01*
X244565000Y-113726310D01*
X244661673Y-113959699D01*
X244840302Y-114138327D01*
X245073691Y-114235000D01*
X245489250Y-114235000D01*
X245648000Y-114076250D01*
X245648000Y-113352000D01*
X245902000Y-113352000D01*
X245902000Y-114076250D01*
X246060750Y-114235000D01*
X246476309Y-114235000D01*
X246709698Y-114138327D01*
X246888327Y-113959699D01*
X246985000Y-113726310D01*
X246985000Y-113510750D01*
X246826250Y-113352000D01*
X245902000Y-113352000D01*
X245648000Y-113352000D01*
X244723750Y-113352000D01*
X244565000Y-113510750D01*
X243835000Y-113510750D01*
X243676250Y-113352000D01*
X242752000Y-113352000D01*
X242498000Y-113352000D01*
X242478000Y-113352000D01*
X242478000Y-113098000D01*
X242498000Y-113098000D01*
X242498000Y-113078000D01*
X242752000Y-113078000D01*
X242752000Y-113098000D01*
X243676250Y-113098000D01*
X243835000Y-112939250D01*
X243835000Y-112723690D01*
X243738327Y-112490301D01*
X243559698Y-112311673D01*
X243326309Y-112215000D01*
X243247440Y-112215000D01*
X243247440Y-111185000D01*
X243326309Y-111185000D01*
X243559698Y-111088327D01*
X243738327Y-110909699D01*
X243835000Y-110676310D01*
X243835000Y-110460750D01*
X243676250Y-110302000D01*
X242752000Y-110302000D01*
X242752000Y-110322000D01*
X242498000Y-110322000D01*
X242498000Y-110302000D01*
X241573750Y-110302000D01*
X241493799Y-110381951D01*
X241414683Y-110396838D01*
X241198559Y-110535910D01*
X241053569Y-110748110D01*
X241002560Y-111000000D01*
X241002560Y-111744638D01*
X239461198Y-113286000D01*
X224896000Y-113286000D01*
X224896000Y-113098000D01*
X224916000Y-113098000D01*
X224916000Y-113078000D01*
X225170000Y-113078000D01*
X225170000Y-113098000D01*
X226094250Y-113098000D01*
X226253000Y-112939250D01*
X226253000Y-112723690D01*
X226156327Y-112490301D01*
X225977698Y-112311673D01*
X225744309Y-112215000D01*
X225665440Y-112215000D01*
X225665440Y-111185000D01*
X225744309Y-111185000D01*
X225977698Y-111088327D01*
X226156327Y-110909699D01*
X226253000Y-110676310D01*
X226253000Y-110460750D01*
X226983000Y-110460750D01*
X226983000Y-110676310D01*
X227079673Y-110909699D01*
X227258302Y-111088327D01*
X227491691Y-111185000D01*
X227570560Y-111185000D01*
X227570560Y-112215000D01*
X227491691Y-112215000D01*
X227258302Y-112311673D01*
X227079673Y-112490301D01*
X226983000Y-112723690D01*
X226983000Y-112939250D01*
X227141750Y-113098000D01*
X228066000Y-113098000D01*
X228066000Y-113078000D01*
X228320000Y-113078000D01*
X228320000Y-113098000D01*
X229244250Y-113098000D01*
X229324201Y-113018049D01*
X229403317Y-113003162D01*
X229619441Y-112864090D01*
X229764431Y-112651890D01*
X229815440Y-112400000D01*
X229815440Y-111165265D01*
X230144943Y-111029117D01*
X230408192Y-110766327D01*
X230550838Y-110422799D01*
X230551162Y-110050833D01*
X230409117Y-109707057D01*
X230146327Y-109443808D01*
X229802799Y-109301162D01*
X229430833Y-109300838D01*
X229244043Y-109378018D01*
X229127698Y-109261673D01*
X228894309Y-109165000D01*
X228478750Y-109165000D01*
X228320000Y-109323750D01*
X228320000Y-110048000D01*
X228340000Y-110048000D01*
X228340000Y-110302000D01*
X228320000Y-110302000D01*
X228320000Y-110322000D01*
X228066000Y-110322000D01*
X228066000Y-110302000D01*
X227141750Y-110302000D01*
X226983000Y-110460750D01*
X226253000Y-110460750D01*
X226094250Y-110302000D01*
X225170000Y-110302000D01*
X225170000Y-110322000D01*
X224916000Y-110322000D01*
X224916000Y-110302000D01*
X223991750Y-110302000D01*
X223911799Y-110381951D01*
X223832683Y-110396838D01*
X223616559Y-110535910D01*
X223471569Y-110748110D01*
X223420560Y-111000000D01*
X223420560Y-111546638D01*
X221681198Y-113286000D01*
X207314000Y-113286000D01*
X207314000Y-113098000D01*
X207334000Y-113098000D01*
X207334000Y-113078000D01*
X207588000Y-113078000D01*
X207588000Y-113098000D01*
X208512250Y-113098000D01*
X208671000Y-112939250D01*
X208671000Y-112723690D01*
X208574327Y-112490301D01*
X208395698Y-112311673D01*
X208162309Y-112215000D01*
X208083440Y-112215000D01*
X208083440Y-111185000D01*
X208162309Y-111185000D01*
X208395698Y-111088327D01*
X208574327Y-110909699D01*
X208671000Y-110676310D01*
X208671000Y-110460750D01*
X209401000Y-110460750D01*
X209401000Y-110676310D01*
X209497673Y-110909699D01*
X209676302Y-111088327D01*
X209909691Y-111185000D01*
X209988560Y-111185000D01*
X209988560Y-112215000D01*
X209909691Y-112215000D01*
X209676302Y-112311673D01*
X209497673Y-112490301D01*
X209401000Y-112723690D01*
X209401000Y-112939250D01*
X209559750Y-113098000D01*
X210484000Y-113098000D01*
X210484000Y-113078000D01*
X210738000Y-113078000D01*
X210738000Y-113098000D01*
X211662250Y-113098000D01*
X211742201Y-113018049D01*
X211821317Y-113003162D01*
X212037441Y-112864090D01*
X212182431Y-112651890D01*
X212233440Y-112400000D01*
X212233440Y-111171126D01*
X212275167Y-111171162D01*
X212618943Y-111029117D01*
X212882192Y-110766327D01*
X213024838Y-110422799D01*
X213025162Y-110050833D01*
X212883117Y-109707057D01*
X212849809Y-109673690D01*
X223833000Y-109673690D01*
X223833000Y-109889250D01*
X223991750Y-110048000D01*
X224916000Y-110048000D01*
X224916000Y-109323750D01*
X225170000Y-109323750D01*
X225170000Y-110048000D01*
X226094250Y-110048000D01*
X226253000Y-109889250D01*
X226253000Y-109673690D01*
X226983000Y-109673690D01*
X226983000Y-109889250D01*
X227141750Y-110048000D01*
X228066000Y-110048000D01*
X228066000Y-109323750D01*
X227907250Y-109165000D01*
X227491691Y-109165000D01*
X227258302Y-109261673D01*
X227079673Y-109440301D01*
X226983000Y-109673690D01*
X226253000Y-109673690D01*
X226156327Y-109440301D01*
X225977698Y-109261673D01*
X225744309Y-109165000D01*
X225328750Y-109165000D01*
X225170000Y-109323750D01*
X224916000Y-109323750D01*
X224757250Y-109165000D01*
X224341691Y-109165000D01*
X224108302Y-109261673D01*
X223929673Y-109440301D01*
X223833000Y-109673690D01*
X212849809Y-109673690D01*
X212620327Y-109443808D01*
X212276799Y-109301162D01*
X211904833Y-109300838D01*
X211678417Y-109394391D01*
X211545698Y-109261673D01*
X211312309Y-109165000D01*
X210896750Y-109165000D01*
X210738000Y-109323750D01*
X210738000Y-110048000D01*
X210758000Y-110048000D01*
X210758000Y-110302000D01*
X210738000Y-110302000D01*
X210738000Y-110322000D01*
X210484000Y-110322000D01*
X210484000Y-110302000D01*
X209559750Y-110302000D01*
X209401000Y-110460750D01*
X208671000Y-110460750D01*
X208512250Y-110302000D01*
X207588000Y-110302000D01*
X207588000Y-110322000D01*
X207334000Y-110322000D01*
X207334000Y-110302000D01*
X206409750Y-110302000D01*
X206329799Y-110381951D01*
X206250683Y-110396838D01*
X206034559Y-110535910D01*
X205889569Y-110748110D01*
X205838560Y-111000000D01*
X205838560Y-111602638D01*
X204155198Y-113286000D01*
X188524802Y-113286000D01*
X188770776Y-113040026D01*
X188828750Y-113098000D01*
X189753000Y-113098000D01*
X189753000Y-113078000D01*
X190007000Y-113078000D01*
X190007000Y-113098000D01*
X190931250Y-113098000D01*
X191090000Y-112939250D01*
X191090000Y-112723690D01*
X190993327Y-112490301D01*
X190814698Y-112311673D01*
X190581309Y-112215000D01*
X190502440Y-112215000D01*
X190502440Y-111185000D01*
X190581309Y-111185000D01*
X190814698Y-111088327D01*
X190993327Y-110909699D01*
X191090000Y-110676310D01*
X191090000Y-110460750D01*
X191820000Y-110460750D01*
X191820000Y-110676310D01*
X191916673Y-110909699D01*
X192095302Y-111088327D01*
X192328691Y-111185000D01*
X192407560Y-111185000D01*
X192407560Y-112215000D01*
X192328691Y-112215000D01*
X192095302Y-112311673D01*
X191916673Y-112490301D01*
X191820000Y-112723690D01*
X191820000Y-112939250D01*
X191978750Y-113098000D01*
X192903000Y-113098000D01*
X192903000Y-113078000D01*
X193157000Y-113078000D01*
X193157000Y-113098000D01*
X194081250Y-113098000D01*
X194161201Y-113018049D01*
X194240317Y-113003162D01*
X194456441Y-112864090D01*
X194601431Y-112651890D01*
X194652440Y-112400000D01*
X194652440Y-111652362D01*
X194879748Y-111425054D01*
X195003167Y-111425162D01*
X195346943Y-111283117D01*
X195610192Y-111020327D01*
X195752838Y-110676799D01*
X195753162Y-110304833D01*
X195611117Y-109961057D01*
X195348327Y-109697808D01*
X195290245Y-109673690D01*
X206251000Y-109673690D01*
X206251000Y-109889250D01*
X206409750Y-110048000D01*
X207334000Y-110048000D01*
X207334000Y-109323750D01*
X207588000Y-109323750D01*
X207588000Y-110048000D01*
X208512250Y-110048000D01*
X208671000Y-109889250D01*
X208671000Y-109673690D01*
X209401000Y-109673690D01*
X209401000Y-109889250D01*
X209559750Y-110048000D01*
X210484000Y-110048000D01*
X210484000Y-109323750D01*
X210325250Y-109165000D01*
X209909691Y-109165000D01*
X209676302Y-109261673D01*
X209497673Y-109440301D01*
X209401000Y-109673690D01*
X208671000Y-109673690D01*
X208574327Y-109440301D01*
X208395698Y-109261673D01*
X208162309Y-109165000D01*
X207746750Y-109165000D01*
X207588000Y-109323750D01*
X207334000Y-109323750D01*
X207175250Y-109165000D01*
X206759691Y-109165000D01*
X206526302Y-109261673D01*
X206347673Y-109440301D01*
X206251000Y-109673690D01*
X195290245Y-109673690D01*
X195004799Y-109555162D01*
X194632833Y-109554838D01*
X194289057Y-109696883D01*
X194240000Y-109745854D01*
X194240000Y-109673690D01*
X194143327Y-109440301D01*
X193964698Y-109261673D01*
X193731309Y-109165000D01*
X193315750Y-109165000D01*
X193157000Y-109323750D01*
X193157000Y-110048000D01*
X193177000Y-110048000D01*
X193177000Y-110302000D01*
X193157000Y-110302000D01*
X193157000Y-110322000D01*
X192903000Y-110322000D01*
X192903000Y-110302000D01*
X191978750Y-110302000D01*
X191820000Y-110460750D01*
X191090000Y-110460750D01*
X190931250Y-110302000D01*
X190007000Y-110302000D01*
X190007000Y-110322000D01*
X189753000Y-110322000D01*
X189753000Y-110302000D01*
X188828750Y-110302000D01*
X188748799Y-110381951D01*
X188669683Y-110396838D01*
X188453559Y-110535910D01*
X188308569Y-110748110D01*
X188257560Y-111000000D01*
X188257560Y-111403638D01*
X186375198Y-113286000D01*
X172151000Y-113286000D01*
X172151000Y-113098000D01*
X172171000Y-113098000D01*
X172171000Y-113078000D01*
X172425000Y-113078000D01*
X172425000Y-113098000D01*
X173349250Y-113098000D01*
X173508000Y-112939250D01*
X173508000Y-112723690D01*
X173411327Y-112490301D01*
X173232698Y-112311673D01*
X172999309Y-112215000D01*
X172920440Y-112215000D01*
X172920440Y-111185000D01*
X172999309Y-111185000D01*
X173232698Y-111088327D01*
X173411327Y-110909699D01*
X173508000Y-110676310D01*
X173508000Y-110460750D01*
X174238000Y-110460750D01*
X174238000Y-110676310D01*
X174334673Y-110909699D01*
X174513302Y-111088327D01*
X174746691Y-111185000D01*
X174825560Y-111185000D01*
X174825560Y-112215000D01*
X174746691Y-112215000D01*
X174513302Y-112311673D01*
X174334673Y-112490301D01*
X174238000Y-112723690D01*
X174238000Y-112939250D01*
X174396750Y-113098000D01*
X175321000Y-113098000D01*
X175321000Y-113078000D01*
X175575000Y-113078000D01*
X175575000Y-113098000D01*
X176499250Y-113098000D01*
X176579201Y-113018049D01*
X176658317Y-113003162D01*
X176874441Y-112864090D01*
X177019431Y-112651890D01*
X177070440Y-112400000D01*
X177070440Y-111532362D01*
X177177680Y-111425122D01*
X177223167Y-111425162D01*
X177566943Y-111283117D01*
X177830192Y-111020327D01*
X177972838Y-110676799D01*
X177973162Y-110304833D01*
X177831117Y-109961057D01*
X177568327Y-109697808D01*
X177510245Y-109673690D01*
X188670000Y-109673690D01*
X188670000Y-109889250D01*
X188828750Y-110048000D01*
X189753000Y-110048000D01*
X189753000Y-109323750D01*
X190007000Y-109323750D01*
X190007000Y-110048000D01*
X190931250Y-110048000D01*
X191090000Y-109889250D01*
X191090000Y-109673690D01*
X191820000Y-109673690D01*
X191820000Y-109889250D01*
X191978750Y-110048000D01*
X192903000Y-110048000D01*
X192903000Y-109323750D01*
X192744250Y-109165000D01*
X192328691Y-109165000D01*
X192095302Y-109261673D01*
X191916673Y-109440301D01*
X191820000Y-109673690D01*
X191090000Y-109673690D01*
X190993327Y-109440301D01*
X190814698Y-109261673D01*
X190581309Y-109165000D01*
X190165750Y-109165000D01*
X190007000Y-109323750D01*
X189753000Y-109323750D01*
X189594250Y-109165000D01*
X189178691Y-109165000D01*
X188945302Y-109261673D01*
X188766673Y-109440301D01*
X188670000Y-109673690D01*
X177510245Y-109673690D01*
X177224799Y-109555162D01*
X176852833Y-109554838D01*
X176644437Y-109640945D01*
X176561327Y-109440301D01*
X176382698Y-109261673D01*
X176149309Y-109165000D01*
X175733750Y-109165000D01*
X175575000Y-109323750D01*
X175575000Y-110048000D01*
X175595000Y-110048000D01*
X175595000Y-110302000D01*
X175575000Y-110302000D01*
X175575000Y-110322000D01*
X175321000Y-110322000D01*
X175321000Y-110302000D01*
X174396750Y-110302000D01*
X174238000Y-110460750D01*
X173508000Y-110460750D01*
X173349250Y-110302000D01*
X172425000Y-110302000D01*
X172425000Y-110322000D01*
X172171000Y-110322000D01*
X172171000Y-110302000D01*
X171246750Y-110302000D01*
X171166799Y-110381951D01*
X171087683Y-110396838D01*
X170871559Y-110535910D01*
X170726569Y-110748110D01*
X170675560Y-111000000D01*
X170675560Y-111747638D01*
X169137198Y-113286000D01*
X154569000Y-113286000D01*
X154569000Y-113098000D01*
X154589000Y-113098000D01*
X154589000Y-113078000D01*
X154843000Y-113078000D01*
X154843000Y-113098000D01*
X155767250Y-113098000D01*
X155926000Y-112939250D01*
X155926000Y-112723690D01*
X155829327Y-112490301D01*
X155650698Y-112311673D01*
X155417309Y-112215000D01*
X155338440Y-112215000D01*
X155338440Y-111185000D01*
X155417309Y-111185000D01*
X155650698Y-111088327D01*
X155829327Y-110909699D01*
X155926000Y-110676310D01*
X155926000Y-110460750D01*
X156656000Y-110460750D01*
X156656000Y-110676310D01*
X156752673Y-110909699D01*
X156931302Y-111088327D01*
X157164691Y-111185000D01*
X157243560Y-111185000D01*
X157243560Y-112215000D01*
X157164691Y-112215000D01*
X156931302Y-112311673D01*
X156752673Y-112490301D01*
X156656000Y-112723690D01*
X156656000Y-112939250D01*
X156814750Y-113098000D01*
X157739000Y-113098000D01*
X157739000Y-113078000D01*
X157993000Y-113078000D01*
X157993000Y-113098000D01*
X158917250Y-113098000D01*
X158997201Y-113018049D01*
X159076317Y-113003162D01*
X159292441Y-112864090D01*
X159437431Y-112651890D01*
X159488440Y-112400000D01*
X159488440Y-111152456D01*
X159786943Y-111029117D01*
X160050192Y-110766327D01*
X160192838Y-110422799D01*
X160193162Y-110050833D01*
X160051117Y-109707057D01*
X160017809Y-109673690D01*
X171088000Y-109673690D01*
X171088000Y-109889250D01*
X171246750Y-110048000D01*
X172171000Y-110048000D01*
X172171000Y-109323750D01*
X172425000Y-109323750D01*
X172425000Y-110048000D01*
X173349250Y-110048000D01*
X173508000Y-109889250D01*
X173508000Y-109673690D01*
X174238000Y-109673690D01*
X174238000Y-109889250D01*
X174396750Y-110048000D01*
X175321000Y-110048000D01*
X175321000Y-109323750D01*
X175162250Y-109165000D01*
X174746691Y-109165000D01*
X174513302Y-109261673D01*
X174334673Y-109440301D01*
X174238000Y-109673690D01*
X173508000Y-109673690D01*
X173411327Y-109440301D01*
X173232698Y-109261673D01*
X172999309Y-109165000D01*
X172583750Y-109165000D01*
X172425000Y-109323750D01*
X172171000Y-109323750D01*
X172012250Y-109165000D01*
X171596691Y-109165000D01*
X171363302Y-109261673D01*
X171184673Y-109440301D01*
X171088000Y-109673690D01*
X160017809Y-109673690D01*
X159788327Y-109443808D01*
X159444799Y-109301162D01*
X159072833Y-109300838D01*
X158907980Y-109368954D01*
X158800698Y-109261673D01*
X158567309Y-109165000D01*
X158151750Y-109165000D01*
X157993000Y-109323750D01*
X157993000Y-110048000D01*
X158013000Y-110048000D01*
X158013000Y-110302000D01*
X157993000Y-110302000D01*
X157993000Y-110322000D01*
X157739000Y-110322000D01*
X157739000Y-110302000D01*
X156814750Y-110302000D01*
X156656000Y-110460750D01*
X155926000Y-110460750D01*
X155767250Y-110302000D01*
X154843000Y-110302000D01*
X154843000Y-110322000D01*
X154589000Y-110322000D01*
X154589000Y-110302000D01*
X153664750Y-110302000D01*
X153584799Y-110381951D01*
X153505683Y-110396838D01*
X153289559Y-110535910D01*
X153144569Y-110748110D01*
X153093560Y-111000000D01*
X153093560Y-112023638D01*
X152768320Y-112348878D01*
X152722833Y-112348838D01*
X152379057Y-112490883D01*
X152115808Y-112753673D01*
X151973162Y-113097201D01*
X151972998Y-113286000D01*
X136987000Y-113286000D01*
X136987000Y-113098000D01*
X137007000Y-113098000D01*
X137007000Y-113078000D01*
X137261000Y-113078000D01*
X137261000Y-113098000D01*
X138185250Y-113098000D01*
X138344000Y-112939250D01*
X138344000Y-112723690D01*
X138247327Y-112490301D01*
X138068698Y-112311673D01*
X137835309Y-112215000D01*
X137756440Y-112215000D01*
X137756440Y-111185000D01*
X137835309Y-111185000D01*
X138068698Y-111088327D01*
X138247327Y-110909699D01*
X138344000Y-110676310D01*
X138344000Y-110460750D01*
X139074000Y-110460750D01*
X139074000Y-110676310D01*
X139170673Y-110909699D01*
X139349302Y-111088327D01*
X139582691Y-111185000D01*
X139661560Y-111185000D01*
X139661560Y-112215000D01*
X139582691Y-112215000D01*
X139349302Y-112311673D01*
X139170673Y-112490301D01*
X139074000Y-112723690D01*
X139074000Y-112939250D01*
X139232750Y-113098000D01*
X140157000Y-113098000D01*
X140157000Y-113078000D01*
X140411000Y-113078000D01*
X140411000Y-113098000D01*
X141335250Y-113098000D01*
X141415201Y-113018049D01*
X141494317Y-113003162D01*
X141710441Y-112864090D01*
X141855431Y-112651890D01*
X141906440Y-112400000D01*
X141906440Y-111425153D01*
X141917167Y-111425162D01*
X142260943Y-111283117D01*
X142524192Y-111020327D01*
X142666838Y-110676799D01*
X142667162Y-110304833D01*
X142525117Y-109961057D01*
X142262327Y-109697808D01*
X142204245Y-109673690D01*
X153506000Y-109673690D01*
X153506000Y-109889250D01*
X153664750Y-110048000D01*
X154589000Y-110048000D01*
X154589000Y-109323750D01*
X154843000Y-109323750D01*
X154843000Y-110048000D01*
X155767250Y-110048000D01*
X155926000Y-109889250D01*
X155926000Y-109673690D01*
X156656000Y-109673690D01*
X156656000Y-109889250D01*
X156814750Y-110048000D01*
X157739000Y-110048000D01*
X157739000Y-109323750D01*
X157580250Y-109165000D01*
X157164691Y-109165000D01*
X156931302Y-109261673D01*
X156752673Y-109440301D01*
X156656000Y-109673690D01*
X155926000Y-109673690D01*
X155829327Y-109440301D01*
X155650698Y-109261673D01*
X155417309Y-109165000D01*
X155001750Y-109165000D01*
X154843000Y-109323750D01*
X154589000Y-109323750D01*
X154430250Y-109165000D01*
X154014691Y-109165000D01*
X153781302Y-109261673D01*
X153602673Y-109440301D01*
X153506000Y-109673690D01*
X142204245Y-109673690D01*
X141918799Y-109555162D01*
X141546833Y-109554838D01*
X141459685Y-109590847D01*
X141397327Y-109440301D01*
X141218698Y-109261673D01*
X140985309Y-109165000D01*
X140569750Y-109165000D01*
X140411000Y-109323750D01*
X140411000Y-110048000D01*
X140431000Y-110048000D01*
X140431000Y-110302000D01*
X140411000Y-110302000D01*
X140411000Y-110322000D01*
X140157000Y-110322000D01*
X140157000Y-110302000D01*
X139232750Y-110302000D01*
X139074000Y-110460750D01*
X138344000Y-110460750D01*
X138185250Y-110302000D01*
X137261000Y-110302000D01*
X137261000Y-110322000D01*
X137007000Y-110322000D01*
X137007000Y-110302000D01*
X136082750Y-110302000D01*
X136002799Y-110381951D01*
X135923683Y-110396838D01*
X135707559Y-110535910D01*
X135562569Y-110748110D01*
X135511560Y-111000000D01*
X135511560Y-112079638D01*
X135242320Y-112348878D01*
X135196833Y-112348838D01*
X134853057Y-112490883D01*
X134589808Y-112753673D01*
X134447162Y-113097201D01*
X134446998Y-113286000D01*
X119405000Y-113286000D01*
X119405000Y-113098000D01*
X119425000Y-113098000D01*
X119425000Y-113078000D01*
X119679000Y-113078000D01*
X119679000Y-113098000D01*
X120603250Y-113098000D01*
X120762000Y-112939250D01*
X120762000Y-112723690D01*
X120665327Y-112490301D01*
X120486698Y-112311673D01*
X120253309Y-112215000D01*
X120174440Y-112215000D01*
X120174440Y-111185000D01*
X120253309Y-111185000D01*
X120486698Y-111088327D01*
X120665327Y-110909699D01*
X120762000Y-110676310D01*
X120762000Y-110460750D01*
X121492000Y-110460750D01*
X121492000Y-110676310D01*
X121588673Y-110909699D01*
X121767302Y-111088327D01*
X122000691Y-111185000D01*
X122079560Y-111185000D01*
X122079560Y-112215000D01*
X122000691Y-112215000D01*
X121767302Y-112311673D01*
X121588673Y-112490301D01*
X121492000Y-112723690D01*
X121492000Y-112939250D01*
X121650750Y-113098000D01*
X122575000Y-113098000D01*
X122575000Y-113078000D01*
X122829000Y-113078000D01*
X122829000Y-113098000D01*
X123753250Y-113098000D01*
X123833201Y-113018049D01*
X123912317Y-113003162D01*
X124128441Y-112864090D01*
X124273431Y-112651890D01*
X124324440Y-112400000D01*
X124324440Y-111446362D01*
X124345680Y-111425122D01*
X124391167Y-111425162D01*
X124734943Y-111283117D01*
X124998192Y-111020327D01*
X125140838Y-110676799D01*
X125141162Y-110304833D01*
X124999117Y-109961057D01*
X124736327Y-109697808D01*
X124678245Y-109673690D01*
X135924000Y-109673690D01*
X135924000Y-109889250D01*
X136082750Y-110048000D01*
X137007000Y-110048000D01*
X137007000Y-109323750D01*
X137261000Y-109323750D01*
X137261000Y-110048000D01*
X138185250Y-110048000D01*
X138344000Y-109889250D01*
X138344000Y-109673690D01*
X139074000Y-109673690D01*
X139074000Y-109889250D01*
X139232750Y-110048000D01*
X140157000Y-110048000D01*
X140157000Y-109323750D01*
X139998250Y-109165000D01*
X139582691Y-109165000D01*
X139349302Y-109261673D01*
X139170673Y-109440301D01*
X139074000Y-109673690D01*
X138344000Y-109673690D01*
X138247327Y-109440301D01*
X138068698Y-109261673D01*
X137835309Y-109165000D01*
X137419750Y-109165000D01*
X137261000Y-109323750D01*
X137007000Y-109323750D01*
X136848250Y-109165000D01*
X136432691Y-109165000D01*
X136199302Y-109261673D01*
X136020673Y-109440301D01*
X135924000Y-109673690D01*
X124678245Y-109673690D01*
X124392799Y-109555162D01*
X124020833Y-109554838D01*
X123885869Y-109610604D01*
X123815327Y-109440301D01*
X123636698Y-109261673D01*
X123403309Y-109165000D01*
X122987750Y-109165000D01*
X122829000Y-109323750D01*
X122829000Y-110048000D01*
X122849000Y-110048000D01*
X122849000Y-110302000D01*
X122829000Y-110302000D01*
X122829000Y-110322000D01*
X122575000Y-110322000D01*
X122575000Y-110302000D01*
X121650750Y-110302000D01*
X121492000Y-110460750D01*
X120762000Y-110460750D01*
X120603250Y-110302000D01*
X119679000Y-110302000D01*
X119679000Y-110322000D01*
X119425000Y-110322000D01*
X119425000Y-110302000D01*
X118500750Y-110302000D01*
X118420799Y-110381951D01*
X118341683Y-110396838D01*
X118125559Y-110535910D01*
X117980569Y-110748110D01*
X117929560Y-111000000D01*
X117929560Y-111881638D01*
X117462320Y-112348878D01*
X117416833Y-112348838D01*
X117073057Y-112490883D01*
X116809808Y-112753673D01*
X116667162Y-113097201D01*
X116666998Y-113286000D01*
X101823000Y-113286000D01*
X101823000Y-113098000D01*
X101843000Y-113098000D01*
X101843000Y-113078000D01*
X102097000Y-113078000D01*
X102097000Y-113098000D01*
X103021250Y-113098000D01*
X103180000Y-112939250D01*
X103180000Y-112723690D01*
X103083327Y-112490301D01*
X102904698Y-112311673D01*
X102671309Y-112215000D01*
X102592440Y-112215000D01*
X102592440Y-111185000D01*
X102671309Y-111185000D01*
X102904698Y-111088327D01*
X103083327Y-110909699D01*
X103180000Y-110676310D01*
X103180000Y-110460750D01*
X103910000Y-110460750D01*
X103910000Y-110676310D01*
X104006673Y-110909699D01*
X104185302Y-111088327D01*
X104418691Y-111185000D01*
X104497560Y-111185000D01*
X104497560Y-112215000D01*
X104418691Y-112215000D01*
X104185302Y-112311673D01*
X104006673Y-112490301D01*
X103910000Y-112723690D01*
X103910000Y-112939250D01*
X104068750Y-113098000D01*
X104993000Y-113098000D01*
X104993000Y-113078000D01*
X105247000Y-113078000D01*
X105247000Y-113098000D01*
X106171250Y-113098000D01*
X106251201Y-113018049D01*
X106330317Y-113003162D01*
X106546441Y-112864090D01*
X106691431Y-112651890D01*
X106742440Y-112400000D01*
X106742440Y-111248362D01*
X106819680Y-111171122D01*
X106865167Y-111171162D01*
X107208943Y-111029117D01*
X107472192Y-110766327D01*
X107614838Y-110422799D01*
X107615162Y-110050833D01*
X107473117Y-109707057D01*
X107439809Y-109673690D01*
X118342000Y-109673690D01*
X118342000Y-109889250D01*
X118500750Y-110048000D01*
X119425000Y-110048000D01*
X119425000Y-109323750D01*
X119679000Y-109323750D01*
X119679000Y-110048000D01*
X120603250Y-110048000D01*
X120762000Y-109889250D01*
X120762000Y-109673690D01*
X121492000Y-109673690D01*
X121492000Y-109889250D01*
X121650750Y-110048000D01*
X122575000Y-110048000D01*
X122575000Y-109323750D01*
X122416250Y-109165000D01*
X122000691Y-109165000D01*
X121767302Y-109261673D01*
X121588673Y-109440301D01*
X121492000Y-109673690D01*
X120762000Y-109673690D01*
X120665327Y-109440301D01*
X120486698Y-109261673D01*
X120253309Y-109165000D01*
X119837750Y-109165000D01*
X119679000Y-109323750D01*
X119425000Y-109323750D01*
X119266250Y-109165000D01*
X118850691Y-109165000D01*
X118617302Y-109261673D01*
X118438673Y-109440301D01*
X118342000Y-109673690D01*
X107439809Y-109673690D01*
X107210327Y-109443808D01*
X106866799Y-109301162D01*
X106494833Y-109300838D01*
X106211100Y-109418074D01*
X106054698Y-109261673D01*
X105821309Y-109165000D01*
X105405750Y-109165000D01*
X105247000Y-109323750D01*
X105247000Y-110048000D01*
X105267000Y-110048000D01*
X105267000Y-110302000D01*
X105247000Y-110302000D01*
X105247000Y-110322000D01*
X104993000Y-110322000D01*
X104993000Y-110302000D01*
X104068750Y-110302000D01*
X103910000Y-110460750D01*
X103180000Y-110460750D01*
X103021250Y-110302000D01*
X102097000Y-110302000D01*
X102097000Y-110322000D01*
X101843000Y-110322000D01*
X101843000Y-110302000D01*
X100918750Y-110302000D01*
X100838799Y-110381951D01*
X100759683Y-110396838D01*
X100543559Y-110535910D01*
X100398569Y-110748110D01*
X100347560Y-111000000D01*
X100347560Y-111683638D01*
X99682320Y-112348878D01*
X99636833Y-112348838D01*
X99293057Y-112490883D01*
X99029808Y-112753673D01*
X98887162Y-113097201D01*
X98886998Y-113286000D01*
X84242000Y-113286000D01*
X84242000Y-113098000D01*
X84262000Y-113098000D01*
X84262000Y-113078000D01*
X84516000Y-113078000D01*
X84516000Y-113098000D01*
X85440250Y-113098000D01*
X85599000Y-112939250D01*
X85599000Y-112723690D01*
X85502327Y-112490301D01*
X85323698Y-112311673D01*
X85090309Y-112215000D01*
X85011440Y-112215000D01*
X85011440Y-111185000D01*
X85090309Y-111185000D01*
X85323698Y-111088327D01*
X85502327Y-110909699D01*
X85599000Y-110676310D01*
X85599000Y-110460750D01*
X86329000Y-110460750D01*
X86329000Y-110676310D01*
X86425673Y-110909699D01*
X86604302Y-111088327D01*
X86837691Y-111185000D01*
X86916560Y-111185000D01*
X86916560Y-112215000D01*
X86837691Y-112215000D01*
X86604302Y-112311673D01*
X86425673Y-112490301D01*
X86329000Y-112723690D01*
X86329000Y-112939250D01*
X86487750Y-113098000D01*
X87412000Y-113098000D01*
X87412000Y-113078000D01*
X87666000Y-113078000D01*
X87666000Y-113098000D01*
X88590250Y-113098000D01*
X88670201Y-113018049D01*
X88749317Y-113003162D01*
X88965441Y-112864090D01*
X89110431Y-112651890D01*
X89161440Y-112400000D01*
X89161440Y-111393647D01*
X89428943Y-111283117D01*
X89692192Y-111020327D01*
X89834838Y-110676799D01*
X89835162Y-110304833D01*
X89693117Y-109961057D01*
X89430327Y-109697808D01*
X89372245Y-109673690D01*
X100760000Y-109673690D01*
X100760000Y-109889250D01*
X100918750Y-110048000D01*
X101843000Y-110048000D01*
X101843000Y-109323750D01*
X102097000Y-109323750D01*
X102097000Y-110048000D01*
X103021250Y-110048000D01*
X103180000Y-109889250D01*
X103180000Y-109673690D01*
X103910000Y-109673690D01*
X103910000Y-109889250D01*
X104068750Y-110048000D01*
X104993000Y-110048000D01*
X104993000Y-109323750D01*
X104834250Y-109165000D01*
X104418691Y-109165000D01*
X104185302Y-109261673D01*
X104006673Y-109440301D01*
X103910000Y-109673690D01*
X103180000Y-109673690D01*
X103083327Y-109440301D01*
X102904698Y-109261673D01*
X102671309Y-109165000D01*
X102255750Y-109165000D01*
X102097000Y-109323750D01*
X101843000Y-109323750D01*
X101684250Y-109165000D01*
X101268691Y-109165000D01*
X101035302Y-109261673D01*
X100856673Y-109440301D01*
X100760000Y-109673690D01*
X89372245Y-109673690D01*
X89086799Y-109555162D01*
X88714833Y-109554838D01*
X88701971Y-109560152D01*
X88652327Y-109440301D01*
X88473698Y-109261673D01*
X88240309Y-109165000D01*
X87824750Y-109165000D01*
X87666000Y-109323750D01*
X87666000Y-110048000D01*
X87686000Y-110048000D01*
X87686000Y-110302000D01*
X87666000Y-110302000D01*
X87666000Y-110322000D01*
X87412000Y-110322000D01*
X87412000Y-110302000D01*
X86487750Y-110302000D01*
X86329000Y-110460750D01*
X85599000Y-110460750D01*
X85440250Y-110302000D01*
X84516000Y-110302000D01*
X84516000Y-110322000D01*
X84262000Y-110322000D01*
X84262000Y-110302000D01*
X83337750Y-110302000D01*
X83257799Y-110381951D01*
X83178683Y-110396838D01*
X82962559Y-110535910D01*
X82817569Y-110748110D01*
X82766560Y-111000000D01*
X82766560Y-111738638D01*
X82156320Y-112348878D01*
X82110833Y-112348838D01*
X81767057Y-112490883D01*
X81503808Y-112753673D01*
X81361162Y-113097201D01*
X81360998Y-113286000D01*
X66660000Y-113286000D01*
X66660000Y-113098000D01*
X66680000Y-113098000D01*
X66680000Y-113078000D01*
X66934000Y-113078000D01*
X66934000Y-113098000D01*
X67858250Y-113098000D01*
X68017000Y-112939250D01*
X68017000Y-112723690D01*
X67920327Y-112490301D01*
X67741698Y-112311673D01*
X67508309Y-112215000D01*
X67429440Y-112215000D01*
X67429440Y-111185000D01*
X67508309Y-111185000D01*
X67741698Y-111088327D01*
X67920327Y-110909699D01*
X68017000Y-110676310D01*
X68017000Y-110460750D01*
X68747000Y-110460750D01*
X68747000Y-110676310D01*
X68843673Y-110909699D01*
X69022302Y-111088327D01*
X69255691Y-111185000D01*
X69334560Y-111185000D01*
X69334560Y-112215000D01*
X69255691Y-112215000D01*
X69022302Y-112311673D01*
X68843673Y-112490301D01*
X68747000Y-112723690D01*
X68747000Y-112939250D01*
X68905750Y-113098000D01*
X69830000Y-113098000D01*
X69830000Y-113078000D01*
X70084000Y-113078000D01*
X70084000Y-113098000D01*
X71008250Y-113098000D01*
X71088201Y-113018049D01*
X71167317Y-113003162D01*
X71383441Y-112864090D01*
X71528431Y-112651890D01*
X71579440Y-112400000D01*
X71579440Y-111867362D01*
X71911401Y-111535401D01*
X72076148Y-111288839D01*
X72134000Y-110998000D01*
X72134000Y-110798463D01*
X72166192Y-110766327D01*
X72308838Y-110422799D01*
X72309162Y-110050833D01*
X72167117Y-109707057D01*
X72133809Y-109673690D01*
X83179000Y-109673690D01*
X83179000Y-109889250D01*
X83337750Y-110048000D01*
X84262000Y-110048000D01*
X84262000Y-109323750D01*
X84516000Y-109323750D01*
X84516000Y-110048000D01*
X85440250Y-110048000D01*
X85599000Y-109889250D01*
X85599000Y-109673690D01*
X86329000Y-109673690D01*
X86329000Y-109889250D01*
X86487750Y-110048000D01*
X87412000Y-110048000D01*
X87412000Y-109323750D01*
X87253250Y-109165000D01*
X86837691Y-109165000D01*
X86604302Y-109261673D01*
X86425673Y-109440301D01*
X86329000Y-109673690D01*
X85599000Y-109673690D01*
X85502327Y-109440301D01*
X85323698Y-109261673D01*
X85090309Y-109165000D01*
X84674750Y-109165000D01*
X84516000Y-109323750D01*
X84262000Y-109323750D01*
X84103250Y-109165000D01*
X83687691Y-109165000D01*
X83454302Y-109261673D01*
X83275673Y-109440301D01*
X83179000Y-109673690D01*
X72133809Y-109673690D01*
X71904327Y-109443808D01*
X71560799Y-109301162D01*
X71188833Y-109300838D01*
X71006289Y-109376263D01*
X70891698Y-109261673D01*
X70658309Y-109165000D01*
X70242750Y-109165000D01*
X70084000Y-109323750D01*
X70084000Y-110048000D01*
X70104000Y-110048000D01*
X70104000Y-110302000D01*
X70084000Y-110302000D01*
X70084000Y-110322000D01*
X69830000Y-110322000D01*
X69830000Y-110302000D01*
X68905750Y-110302000D01*
X68747000Y-110460750D01*
X68017000Y-110460750D01*
X67858250Y-110302000D01*
X66934000Y-110302000D01*
X66934000Y-110322000D01*
X66680000Y-110322000D01*
X66680000Y-110302000D01*
X65755750Y-110302000D01*
X65675799Y-110381951D01*
X65596683Y-110396838D01*
X65380559Y-110535910D01*
X65235569Y-110748110D01*
X65184560Y-111000000D01*
X65184560Y-111540638D01*
X64376320Y-112348878D01*
X64330833Y-112348838D01*
X63987057Y-112490883D01*
X63723808Y-112753673D01*
X63581162Y-113097201D01*
X63580998Y-113286000D01*
X49078000Y-113286000D01*
X49078000Y-113098000D01*
X49098000Y-113098000D01*
X49098000Y-113078000D01*
X49352000Y-113078000D01*
X49352000Y-113098000D01*
X50276250Y-113098000D01*
X50435000Y-112939250D01*
X50435000Y-112723690D01*
X50338327Y-112490301D01*
X50159698Y-112311673D01*
X49926309Y-112215000D01*
X49847440Y-112215000D01*
X49847440Y-111185000D01*
X49926309Y-111185000D01*
X50159698Y-111088327D01*
X50338327Y-110909699D01*
X50435000Y-110676310D01*
X50435000Y-110460750D01*
X50276250Y-110302000D01*
X49352000Y-110302000D01*
X49352000Y-110322000D01*
X49098000Y-110322000D01*
X49098000Y-110302000D01*
X48173750Y-110302000D01*
X48093799Y-110381951D01*
X48014683Y-110396838D01*
X47798559Y-110535910D01*
X47653569Y-110748110D01*
X47636873Y-110830558D01*
X47520327Y-110713808D01*
X47176799Y-110571162D01*
X46804833Y-110570838D01*
X46461057Y-110712883D01*
X46197808Y-110975673D01*
X46055162Y-111319201D01*
X46055121Y-111366077D01*
X45210000Y-112211198D01*
X45210000Y-111187200D01*
X45321407Y-111075793D01*
X45486154Y-110829231D01*
X45544006Y-110538392D01*
X45544006Y-109962796D01*
X45833112Y-109673690D01*
X48015000Y-109673690D01*
X48015000Y-109889250D01*
X48173750Y-110048000D01*
X49098000Y-110048000D01*
X49098000Y-109323750D01*
X49352000Y-109323750D01*
X49352000Y-110048000D01*
X50276250Y-110048000D01*
X50435000Y-109889250D01*
X50435000Y-109673690D01*
X51165000Y-109673690D01*
X51165000Y-109889250D01*
X51323750Y-110048000D01*
X52248000Y-110048000D01*
X52248000Y-109323750D01*
X52089250Y-109165000D01*
X51673691Y-109165000D01*
X51440302Y-109261673D01*
X51261673Y-109440301D01*
X51165000Y-109673690D01*
X50435000Y-109673690D01*
X50338327Y-109440301D01*
X50159698Y-109261673D01*
X49926309Y-109165000D01*
X49510750Y-109165000D01*
X49352000Y-109323750D01*
X49098000Y-109323750D01*
X48939250Y-109165000D01*
X48523691Y-109165000D01*
X48290302Y-109261673D01*
X48111673Y-109440301D01*
X48015000Y-109673690D01*
X45833112Y-109673690D01*
X45945403Y-109561399D01*
X46110150Y-109314837D01*
X46168002Y-109023998D01*
X46168002Y-108322800D01*
X46346800Y-108144002D01*
X52259439Y-108144002D01*
X52292883Y-108224943D01*
X52555673Y-108488192D01*
X52899201Y-108630838D01*
X53088000Y-108631002D01*
X53088000Y-109169843D01*
X53076309Y-109165000D01*
X52660750Y-109165000D01*
X52502000Y-109323750D01*
X52502000Y-110048000D01*
X52522000Y-110048000D01*
X52522000Y-110302000D01*
X52502000Y-110302000D01*
X52502000Y-110322000D01*
X52248000Y-110322000D01*
X52248000Y-110302000D01*
X51323750Y-110302000D01*
X51165000Y-110460750D01*
X51165000Y-110676310D01*
X51261673Y-110909699D01*
X51440302Y-111088327D01*
X51673691Y-111185000D01*
X51752560Y-111185000D01*
X51752560Y-112215000D01*
X51673691Y-112215000D01*
X51440302Y-112311673D01*
X51261673Y-112490301D01*
X51165000Y-112723690D01*
X51165000Y-112939250D01*
X51323750Y-113098000D01*
X52248000Y-113098000D01*
X52248000Y-113078000D01*
X52502000Y-113078000D01*
X52502000Y-113098000D01*
X53426250Y-113098000D01*
X53506201Y-113018049D01*
X53585317Y-113003162D01*
X53801441Y-112864090D01*
X53946431Y-112651890D01*
X53997440Y-112400000D01*
X53997440Y-111415362D01*
X54385401Y-111027401D01*
X54550148Y-110780839D01*
X54608000Y-110490000D01*
X54608000Y-109673690D01*
X65597000Y-109673690D01*
X65597000Y-109889250D01*
X65755750Y-110048000D01*
X66680000Y-110048000D01*
X66680000Y-109323750D01*
X66934000Y-109323750D01*
X66934000Y-110048000D01*
X67858250Y-110048000D01*
X68017000Y-109889250D01*
X68017000Y-109673690D01*
X68747000Y-109673690D01*
X68747000Y-109889250D01*
X68905750Y-110048000D01*
X69830000Y-110048000D01*
X69830000Y-109323750D01*
X69671250Y-109165000D01*
X69255691Y-109165000D01*
X69022302Y-109261673D01*
X68843673Y-109440301D01*
X68747000Y-109673690D01*
X68017000Y-109673690D01*
X67920327Y-109440301D01*
X67741698Y-109261673D01*
X67508309Y-109165000D01*
X67092750Y-109165000D01*
X66934000Y-109323750D01*
X66680000Y-109323750D01*
X66521250Y-109165000D01*
X66105691Y-109165000D01*
X65872302Y-109261673D01*
X65693673Y-109440301D01*
X65597000Y-109673690D01*
X54608000Y-109673690D01*
X54608000Y-109151167D01*
X239094838Y-109151167D01*
X239236883Y-109494943D01*
X239499673Y-109758192D01*
X239843201Y-109900838D01*
X240215167Y-109901162D01*
X240558943Y-109759117D01*
X240592118Y-109726000D01*
X241415000Y-109726000D01*
X241415000Y-109889250D01*
X241573750Y-110048000D01*
X242498000Y-110048000D01*
X242498000Y-110028000D01*
X242752000Y-110028000D01*
X242752000Y-110048000D01*
X243676250Y-110048000D01*
X243835000Y-109889250D01*
X243835000Y-109765387D01*
X244161201Y-109900838D01*
X244533167Y-109901162D01*
X244565000Y-109888009D01*
X244565000Y-109889250D01*
X244723750Y-110048000D01*
X245648000Y-110048000D01*
X245648000Y-109323750D01*
X245489250Y-109165000D01*
X245277772Y-109165000D01*
X245282838Y-109152799D01*
X245283162Y-108780833D01*
X245141117Y-108437057D01*
X244878327Y-108173808D01*
X244534799Y-108031162D01*
X244162833Y-108030838D01*
X243819057Y-108172883D01*
X243785882Y-108206000D01*
X240592463Y-108206000D01*
X240560327Y-108173808D01*
X240216799Y-108031162D01*
X239844833Y-108030838D01*
X239501057Y-108172883D01*
X239237808Y-108435673D01*
X239095162Y-108779201D01*
X239094838Y-109151167D01*
X54608000Y-109151167D01*
X54608000Y-108512463D01*
X54640192Y-108480327D01*
X54782838Y-108136799D01*
X54782879Y-108089923D01*
X57210802Y-105662000D01*
X68207200Y-105662000D01*
X69000601Y-106455401D01*
X69247163Y-106620148D01*
X69538002Y-106678000D01*
X73660000Y-106678000D01*
X73950839Y-106620148D01*
X74197401Y-106455401D01*
X75476794Y-105176008D01*
X85813206Y-105176008D01*
X86330599Y-105693401D01*
X86577161Y-105858148D01*
X86868000Y-105916000D01*
X89154000Y-105916000D01*
X89444839Y-105858148D01*
X89691401Y-105693401D01*
X89976802Y-105408000D01*
X104066796Y-105408000D01*
X104352197Y-105693401D01*
X104598759Y-105858148D01*
X104889598Y-105916000D01*
X106934000Y-105916000D01*
X107224839Y-105858148D01*
X107471401Y-105693401D01*
X107756802Y-105408000D01*
X121605198Y-105408000D01*
X121890599Y-105693401D01*
X122137161Y-105858148D01*
X122428000Y-105916000D01*
X123952000Y-105916000D01*
X124242839Y-105858148D01*
X124489401Y-105693401D01*
X124774802Y-105408000D01*
X139639198Y-105408000D01*
X139924599Y-105693401D01*
X140171161Y-105858148D01*
X140462000Y-105916000D01*
X141420002Y-105916000D01*
X141710841Y-105858148D01*
X141957403Y-105693401D01*
X142242804Y-105408000D01*
X157419198Y-105408000D01*
X157704599Y-105693401D01*
X157951161Y-105858148D01*
X158242000Y-105916000D01*
X158750000Y-105916000D01*
X159040839Y-105858148D01*
X159287401Y-105693401D01*
X159572802Y-105408000D01*
X172659198Y-105408000D01*
X174722599Y-107471401D01*
X174969160Y-107636148D01*
X175260000Y-107694000D01*
X178308000Y-107694000D01*
X178598839Y-107636148D01*
X178845401Y-107471401D01*
X180654802Y-105662000D01*
X193253403Y-105662000D01*
X193262883Y-105684943D01*
X193525673Y-105948192D01*
X193869201Y-106090838D01*
X194241167Y-106091162D01*
X194584943Y-105949117D01*
X194848192Y-105686327D01*
X194858294Y-105662000D01*
X208090800Y-105662000D01*
X208572203Y-106143403D01*
X208818764Y-106308150D01*
X209109604Y-106366002D01*
X212912794Y-106366002D01*
X213203633Y-106308150D01*
X213450195Y-106143403D01*
X213848796Y-105744802D01*
X225745198Y-105744802D01*
X226201797Y-106201401D01*
X226448359Y-106366148D01*
X226739198Y-106424000D01*
X229616000Y-106424000D01*
X229906839Y-106366148D01*
X230153401Y-106201401D01*
X230438802Y-105916000D01*
X235163403Y-105916000D01*
X235172883Y-105938943D01*
X235435673Y-106202192D01*
X235779201Y-106344838D01*
X236151167Y-106345162D01*
X236494943Y-106203117D01*
X236758192Y-105940327D01*
X236801162Y-105836843D01*
X237167167Y-105837162D01*
X237510943Y-105695117D01*
X237774192Y-105432327D01*
X237916838Y-105088799D01*
X237917053Y-104842002D01*
X243213200Y-104842002D01*
X243498601Y-105127403D01*
X243498601Y-105127403D01*
G37*
X243498601Y-105127403D02*
X243745163Y-105292150D01*
X243787831Y-105300637D01*
X245239477Y-106752283D01*
X245079808Y-106911673D01*
X244937162Y-107255201D01*
X244936838Y-107627167D01*
X245078883Y-107970943D01*
X245341673Y-108234192D01*
X245685201Y-108376838D01*
X245732077Y-108376879D01*
X246551232Y-109196034D01*
X246476309Y-109165000D01*
X246060750Y-109165000D01*
X245902000Y-109323750D01*
X245902000Y-110048000D01*
X245922000Y-110048000D01*
X245922000Y-110302000D01*
X245902000Y-110302000D01*
X245902000Y-110322000D01*
X245648000Y-110322000D01*
X245648000Y-110302000D01*
X244723750Y-110302000D01*
X244565000Y-110460750D01*
X244565000Y-110676310D01*
X244661673Y-110909699D01*
X244840302Y-111088327D01*
X245073691Y-111185000D01*
X245152560Y-111185000D01*
X245152560Y-112215000D01*
X245073691Y-112215000D01*
X244840302Y-112311673D01*
X244661673Y-112490301D01*
X244565000Y-112723690D01*
X244565000Y-112939250D01*
X244723750Y-113098000D01*
X245648000Y-113098000D01*
X245648000Y-113078000D01*
X245902000Y-113078000D01*
X245902000Y-113098000D01*
X246826250Y-113098000D01*
X246906201Y-113018049D01*
X246985317Y-113003162D01*
X247201441Y-112864090D01*
X247346431Y-112651890D01*
X247397440Y-112400000D01*
X247397440Y-111984344D01*
X247454000Y-111700000D01*
X247436712Y-111613090D01*
X247933401Y-111116401D01*
X248098148Y-110869840D01*
X248115851Y-110780839D01*
X248156000Y-110579000D01*
X248156000Y-109668806D01*
X250561996Y-112074802D01*
X250561996Y-113341998D01*
X250619848Y-113632837D01*
X250784595Y-113879399D01*
X250954000Y-114048804D01*
X250954000Y-115570000D01*
X251011852Y-115860839D01*
X251176599Y-116107401D01*
X251462000Y-116392802D01*
X251462000Y-117856000D01*
X251519852Y-118146839D01*
X251684599Y-118393401D01*
X252163619Y-118872421D01*
X252062655Y-119380000D01*
X252176729Y-119953489D01*
X252501585Y-120439670D01*
X252987766Y-120764526D01*
X253561255Y-120878600D01*
X253930745Y-120878600D01*
X254290000Y-120807140D01*
X254290000Y-121690000D01*
X249155516Y-121690000D01*
X249883438Y-120963347D01*
X250514280Y-119444111D01*
X250515716Y-117799106D01*
X249887526Y-116278771D01*
X248725347Y-115114562D01*
X247206111Y-114483720D01*
X245561106Y-114482284D01*
X244040771Y-115110474D01*
X242876562Y-116272653D01*
X242245720Y-117791889D01*
X242244284Y-119436894D01*
X242872474Y-120957229D01*
X243603967Y-121690000D01*
X243305709Y-121690000D01*
X236793818Y-114806000D01*
X239776000Y-114806000D01*
X240066839Y-114748148D01*
X240313401Y-114583401D01*
X241544800Y-113352002D01*
X241573748Y-113352002D01*
X241415000Y-113510750D01*
X241415000Y-113726310D01*
X241511673Y-113959699D01*
X241690302Y-114138327D01*
X241923691Y-114235000D01*
X242339250Y-114235000D01*
X242498000Y-114076250D01*
X242498000Y-113352000D01*
X242752000Y-113352000D01*
X242752000Y-114076250D01*
X242910750Y-114235000D01*
X243326309Y-114235000D01*
X243559698Y-114138327D01*
X243738327Y-113959699D01*
X243835000Y-113726310D01*
X243835000Y-113510750D01*
X244565000Y-113510750D01*
X244565000Y-113726310D01*
X244661673Y-113959699D01*
X244840302Y-114138327D01*
X245073691Y-114235000D01*
X245489250Y-114235000D01*
X245648000Y-114076250D01*
X245648000Y-113352000D01*
X245902000Y-113352000D01*
X245902000Y-114076250D01*
X246060750Y-114235000D01*
X246476309Y-114235000D01*
X246709698Y-114138327D01*
X246888327Y-113959699D01*
X246985000Y-113726310D01*
X246985000Y-113510750D01*
X246826250Y-113352000D01*
X245902000Y-113352000D01*
X245648000Y-113352000D01*
X244723750Y-113352000D01*
X244565000Y-113510750D01*
X243835000Y-113510750D01*
X243676250Y-113352000D01*
X242752000Y-113352000D01*
X242498000Y-113352000D01*
X242478000Y-113352000D01*
X242478000Y-113098000D01*
X242498000Y-113098000D01*
X242498000Y-113078000D01*
X242752000Y-113078000D01*
X242752000Y-113098000D01*
X243676250Y-113098000D01*
X243835000Y-112939250D01*
X243835000Y-112723690D01*
X243738327Y-112490301D01*
X243559698Y-112311673D01*
X243326309Y-112215000D01*
X243247440Y-112215000D01*
X243247440Y-111185000D01*
X243326309Y-111185000D01*
X243559698Y-111088327D01*
X243738327Y-110909699D01*
X243835000Y-110676310D01*
X243835000Y-110460750D01*
X243676250Y-110302000D01*
X242752000Y-110302000D01*
X242752000Y-110322000D01*
X242498000Y-110322000D01*
X242498000Y-110302000D01*
X241573750Y-110302000D01*
X241493799Y-110381951D01*
X241414683Y-110396838D01*
X241198559Y-110535910D01*
X241053569Y-110748110D01*
X241002560Y-111000000D01*
X241002560Y-111744638D01*
X239461198Y-113286000D01*
X224896000Y-113286000D01*
X224896000Y-113098000D01*
X224916000Y-113098000D01*
X224916000Y-113078000D01*
X225170000Y-113078000D01*
X225170000Y-113098000D01*
X226094250Y-113098000D01*
X226253000Y-112939250D01*
X226253000Y-112723690D01*
X226156327Y-112490301D01*
X225977698Y-112311673D01*
X225744309Y-112215000D01*
X225665440Y-112215000D01*
X225665440Y-111185000D01*
X225744309Y-111185000D01*
X225977698Y-111088327D01*
X226156327Y-110909699D01*
X226253000Y-110676310D01*
X226253000Y-110460750D01*
X226983000Y-110460750D01*
X226983000Y-110676310D01*
X227079673Y-110909699D01*
X227258302Y-111088327D01*
X227491691Y-111185000D01*
X227570560Y-111185000D01*
X227570560Y-112215000D01*
X227491691Y-112215000D01*
X227258302Y-112311673D01*
X227079673Y-112490301D01*
X226983000Y-112723690D01*
X226983000Y-112939250D01*
X227141750Y-113098000D01*
X228066000Y-113098000D01*
X228066000Y-113078000D01*
X228320000Y-113078000D01*
X228320000Y-113098000D01*
X229244250Y-113098000D01*
X229324201Y-113018049D01*
X229403317Y-113003162D01*
X229619441Y-112864090D01*
X229764431Y-112651890D01*
X229815440Y-112400000D01*
X229815440Y-111165265D01*
X230144943Y-111029117D01*
X230408192Y-110766327D01*
X230550838Y-110422799D01*
X230551162Y-110050833D01*
X230409117Y-109707057D01*
X230146327Y-109443808D01*
X229802799Y-109301162D01*
X229430833Y-109300838D01*
X229244043Y-109378018D01*
X229127698Y-109261673D01*
X228894309Y-109165000D01*
X228478750Y-109165000D01*
X228320000Y-109323750D01*
X228320000Y-110048000D01*
X228340000Y-110048000D01*
X228340000Y-110302000D01*
X228320000Y-110302000D01*
X228320000Y-110322000D01*
X228066000Y-110322000D01*
X228066000Y-110302000D01*
X227141750Y-110302000D01*
X226983000Y-110460750D01*
X226253000Y-110460750D01*
X226094250Y-110302000D01*
X225170000Y-110302000D01*
X225170000Y-110322000D01*
X224916000Y-110322000D01*
X224916000Y-110302000D01*
X223991750Y-110302000D01*
X223911799Y-110381951D01*
X223832683Y-110396838D01*
X223616559Y-110535910D01*
X223471569Y-110748110D01*
X223420560Y-111000000D01*
X223420560Y-111546638D01*
X221681198Y-113286000D01*
X207314000Y-113286000D01*
X207314000Y-113098000D01*
X207334000Y-113098000D01*
X207334000Y-113078000D01*
X207588000Y-113078000D01*
X207588000Y-113098000D01*
X208512250Y-113098000D01*
X208671000Y-112939250D01*
X208671000Y-112723690D01*
X208574327Y-112490301D01*
X208395698Y-112311673D01*
X208162309Y-112215000D01*
X208083440Y-112215000D01*
X208083440Y-111185000D01*
X208162309Y-111185000D01*
X208395698Y-111088327D01*
X208574327Y-110909699D01*
X208671000Y-110676310D01*
X208671000Y-110460750D01*
X209401000Y-110460750D01*
X209401000Y-110676310D01*
X209497673Y-110909699D01*
X209676302Y-111088327D01*
X209909691Y-111185000D01*
X209988560Y-111185000D01*
X209988560Y-112215000D01*
X209909691Y-112215000D01*
X209676302Y-112311673D01*
X209497673Y-112490301D01*
X209401000Y-112723690D01*
X209401000Y-112939250D01*
X209559750Y-113098000D01*
X210484000Y-113098000D01*
X210484000Y-113078000D01*
X210738000Y-113078000D01*
X210738000Y-113098000D01*
X211662250Y-113098000D01*
X211742201Y-113018049D01*
X211821317Y-113003162D01*
X212037441Y-112864090D01*
X212182431Y-112651890D01*
X212233440Y-112400000D01*
X212233440Y-111171126D01*
X212275167Y-111171162D01*
X212618943Y-111029117D01*
X212882192Y-110766327D01*
X213024838Y-110422799D01*
X213025162Y-110050833D01*
X212883117Y-109707057D01*
X212849809Y-109673690D01*
X223833000Y-109673690D01*
X223833000Y-109889250D01*
X223991750Y-110048000D01*
X224916000Y-110048000D01*
X224916000Y-109323750D01*
X225170000Y-109323750D01*
X225170000Y-110048000D01*
X226094250Y-110048000D01*
X226253000Y-109889250D01*
X226253000Y-109673690D01*
X226983000Y-109673690D01*
X226983000Y-109889250D01*
X227141750Y-110048000D01*
X228066000Y-110048000D01*
X228066000Y-109323750D01*
X227907250Y-109165000D01*
X227491691Y-109165000D01*
X227258302Y-109261673D01*
X227079673Y-109440301D01*
X226983000Y-109673690D01*
X226253000Y-109673690D01*
X226156327Y-109440301D01*
X225977698Y-109261673D01*
X225744309Y-109165000D01*
X225328750Y-109165000D01*
X225170000Y-109323750D01*
X224916000Y-109323750D01*
X224757250Y-109165000D01*
X224341691Y-109165000D01*
X224108302Y-109261673D01*
X223929673Y-109440301D01*
X223833000Y-109673690D01*
X212849809Y-109673690D01*
X212620327Y-109443808D01*
X212276799Y-109301162D01*
X211904833Y-109300838D01*
X211678417Y-109394391D01*
X211545698Y-109261673D01*
X211312309Y-109165000D01*
X210896750Y-109165000D01*
X210738000Y-109323750D01*
X210738000Y-110048000D01*
X210758000Y-110048000D01*
X210758000Y-110302000D01*
X210738000Y-110302000D01*
X210738000Y-110322000D01*
X210484000Y-110322000D01*
X210484000Y-110302000D01*
X209559750Y-110302000D01*
X209401000Y-110460750D01*
X208671000Y-110460750D01*
X208512250Y-110302000D01*
X207588000Y-110302000D01*
X207588000Y-110322000D01*
X207334000Y-110322000D01*
X207334000Y-110302000D01*
X206409750Y-110302000D01*
X206329799Y-110381951D01*
X206250683Y-110396838D01*
X206034559Y-110535910D01*
X205889569Y-110748110D01*
X205838560Y-111000000D01*
X205838560Y-111602638D01*
X204155198Y-113286000D01*
X188524802Y-113286000D01*
X188770776Y-113040026D01*
X188828750Y-113098000D01*
X189753000Y-113098000D01*
X189753000Y-113078000D01*
X190007000Y-113078000D01*
X190007000Y-113098000D01*
X190931250Y-113098000D01*
X191090000Y-112939250D01*
X191090000Y-112723690D01*
X190993327Y-112490301D01*
X190814698Y-112311673D01*
X190581309Y-112215000D01*
X190502440Y-112215000D01*
X190502440Y-111185000D01*
X190581309Y-111185000D01*
X190814698Y-111088327D01*
X190993327Y-110909699D01*
X191090000Y-110676310D01*
X191090000Y-110460750D01*
X191820000Y-110460750D01*
X191820000Y-110676310D01*
X191916673Y-110909699D01*
X192095302Y-111088327D01*
X192328691Y-111185000D01*
X192407560Y-111185000D01*
X192407560Y-112215000D01*
X192328691Y-112215000D01*
X192095302Y-112311673D01*
X191916673Y-112490301D01*
X191820000Y-112723690D01*
X191820000Y-112939250D01*
X191978750Y-113098000D01*
X192903000Y-113098000D01*
X192903000Y-113078000D01*
X193157000Y-113078000D01*
X193157000Y-113098000D01*
X194081250Y-113098000D01*
X194161201Y-113018049D01*
X194240317Y-113003162D01*
X194456441Y-112864090D01*
X194601431Y-112651890D01*
X194652440Y-112400000D01*
X194652440Y-111652362D01*
X194879748Y-111425054D01*
X195003167Y-111425162D01*
X195346943Y-111283117D01*
X195610192Y-111020327D01*
X195752838Y-110676799D01*
X195753162Y-110304833D01*
X195611117Y-109961057D01*
X195348327Y-109697808D01*
X195290245Y-109673690D01*
X206251000Y-109673690D01*
X206251000Y-109889250D01*
X206409750Y-110048000D01*
X207334000Y-110048000D01*
X207334000Y-109323750D01*
X207588000Y-109323750D01*
X207588000Y-110048000D01*
X208512250Y-110048000D01*
X208671000Y-109889250D01*
X208671000Y-109673690D01*
X209401000Y-109673690D01*
X209401000Y-109889250D01*
X209559750Y-110048000D01*
X210484000Y-110048000D01*
X210484000Y-109323750D01*
X210325250Y-109165000D01*
X209909691Y-109165000D01*
X209676302Y-109261673D01*
X209497673Y-109440301D01*
X209401000Y-109673690D01*
X208671000Y-109673690D01*
X208574327Y-109440301D01*
X208395698Y-109261673D01*
X208162309Y-109165000D01*
X207746750Y-109165000D01*
X207588000Y-109323750D01*
X207334000Y-109323750D01*
X207175250Y-109165000D01*
X206759691Y-109165000D01*
X206526302Y-109261673D01*
X206347673Y-109440301D01*
X206251000Y-109673690D01*
X195290245Y-109673690D01*
X195004799Y-109555162D01*
X194632833Y-109554838D01*
X194289057Y-109696883D01*
X194240000Y-109745854D01*
X194240000Y-109673690D01*
X194143327Y-109440301D01*
X193964698Y-109261673D01*
X193731309Y-109165000D01*
X193315750Y-109165000D01*
X193157000Y-109323750D01*
X193157000Y-110048000D01*
X193177000Y-110048000D01*
X193177000Y-110302000D01*
X193157000Y-110302000D01*
X193157000Y-110322000D01*
X192903000Y-110322000D01*
X192903000Y-110302000D01*
X191978750Y-110302000D01*
X191820000Y-110460750D01*
X191090000Y-110460750D01*
X190931250Y-110302000D01*
X190007000Y-110302000D01*
X190007000Y-110322000D01*
X189753000Y-110322000D01*
X189753000Y-110302000D01*
X188828750Y-110302000D01*
X188748799Y-110381951D01*
X188669683Y-110396838D01*
X188453559Y-110535910D01*
X188308569Y-110748110D01*
X188257560Y-111000000D01*
X188257560Y-111403638D01*
X186375198Y-113286000D01*
X172151000Y-113286000D01*
X172151000Y-113098000D01*
X172171000Y-113098000D01*
X172171000Y-113078000D01*
X172425000Y-113078000D01*
X172425000Y-113098000D01*
X173349250Y-113098000D01*
X173508000Y-112939250D01*
X173508000Y-112723690D01*
X173411327Y-112490301D01*
X173232698Y-112311673D01*
X172999309Y-112215000D01*
X172920440Y-112215000D01*
X172920440Y-111185000D01*
X172999309Y-111185000D01*
X173232698Y-111088327D01*
X173411327Y-110909699D01*
X173508000Y-110676310D01*
X173508000Y-110460750D01*
X174238000Y-110460750D01*
X174238000Y-110676310D01*
X174334673Y-110909699D01*
X174513302Y-111088327D01*
X174746691Y-111185000D01*
X174825560Y-111185000D01*
X174825560Y-112215000D01*
X174746691Y-112215000D01*
X174513302Y-112311673D01*
X174334673Y-112490301D01*
X174238000Y-112723690D01*
X174238000Y-112939250D01*
X174396750Y-113098000D01*
X175321000Y-113098000D01*
X175321000Y-113078000D01*
X175575000Y-113078000D01*
X175575000Y-113098000D01*
X176499250Y-113098000D01*
X176579201Y-113018049D01*
X176658317Y-113003162D01*
X176874441Y-112864090D01*
X177019431Y-112651890D01*
X177070440Y-112400000D01*
X177070440Y-111532362D01*
X177177680Y-111425122D01*
X177223167Y-111425162D01*
X177566943Y-111283117D01*
X177830192Y-111020327D01*
X177972838Y-110676799D01*
X177973162Y-110304833D01*
X177831117Y-109961057D01*
X177568327Y-109697808D01*
X177510245Y-109673690D01*
X188670000Y-109673690D01*
X188670000Y-109889250D01*
X188828750Y-110048000D01*
X189753000Y-110048000D01*
X189753000Y-109323750D01*
X190007000Y-109323750D01*
X190007000Y-110048000D01*
X190931250Y-110048000D01*
X191090000Y-109889250D01*
X191090000Y-109673690D01*
X191820000Y-109673690D01*
X191820000Y-109889250D01*
X191978750Y-110048000D01*
X192903000Y-110048000D01*
X192903000Y-109323750D01*
X192744250Y-109165000D01*
X192328691Y-109165000D01*
X192095302Y-109261673D01*
X191916673Y-109440301D01*
X191820000Y-109673690D01*
X191090000Y-109673690D01*
X190993327Y-109440301D01*
X190814698Y-109261673D01*
X190581309Y-109165000D01*
X190165750Y-109165000D01*
X190007000Y-109323750D01*
X189753000Y-109323750D01*
X189594250Y-109165000D01*
X189178691Y-109165000D01*
X188945302Y-109261673D01*
X188766673Y-109440301D01*
X188670000Y-109673690D01*
X177510245Y-109673690D01*
X177224799Y-109555162D01*
X176852833Y-109554838D01*
X176644437Y-109640945D01*
X176561327Y-109440301D01*
X176382698Y-109261673D01*
X176149309Y-109165000D01*
X175733750Y-109165000D01*
X175575000Y-109323750D01*
X175575000Y-110048000D01*
X175595000Y-110048000D01*
X175595000Y-110302000D01*
X175575000Y-110302000D01*
X175575000Y-110322000D01*
X175321000Y-110322000D01*
X175321000Y-110302000D01*
X174396750Y-110302000D01*
X174238000Y-110460750D01*
X173508000Y-110460750D01*
X173349250Y-110302000D01*
X172425000Y-110302000D01*
X172425000Y-110322000D01*
X172171000Y-110322000D01*
X172171000Y-110302000D01*
X171246750Y-110302000D01*
X171166799Y-110381951D01*
X171087683Y-110396838D01*
X170871559Y-110535910D01*
X170726569Y-110748110D01*
X170675560Y-111000000D01*
X170675560Y-111747638D01*
X169137198Y-113286000D01*
X154569000Y-113286000D01*
X154569000Y-113098000D01*
X154589000Y-113098000D01*
X154589000Y-113078000D01*
X154843000Y-113078000D01*
X154843000Y-113098000D01*
X155767250Y-113098000D01*
X155926000Y-112939250D01*
X155926000Y-112723690D01*
X155829327Y-112490301D01*
X155650698Y-112311673D01*
X155417309Y-112215000D01*
X155338440Y-112215000D01*
X155338440Y-111185000D01*
X155417309Y-111185000D01*
X155650698Y-111088327D01*
X155829327Y-110909699D01*
X155926000Y-110676310D01*
X155926000Y-110460750D01*
X156656000Y-110460750D01*
X156656000Y-110676310D01*
X156752673Y-110909699D01*
X156931302Y-111088327D01*
X157164691Y-111185000D01*
X157243560Y-111185000D01*
X157243560Y-112215000D01*
X157164691Y-112215000D01*
X156931302Y-112311673D01*
X156752673Y-112490301D01*
X156656000Y-112723690D01*
X156656000Y-112939250D01*
X156814750Y-113098000D01*
X157739000Y-113098000D01*
X157739000Y-113078000D01*
X157993000Y-113078000D01*
X157993000Y-113098000D01*
X158917250Y-113098000D01*
X158997201Y-113018049D01*
X159076317Y-113003162D01*
X159292441Y-112864090D01*
X159437431Y-112651890D01*
X159488440Y-112400000D01*
X159488440Y-111152456D01*
X159786943Y-111029117D01*
X160050192Y-110766327D01*
X160192838Y-110422799D01*
X160193162Y-110050833D01*
X160051117Y-109707057D01*
X160017809Y-109673690D01*
X171088000Y-109673690D01*
X171088000Y-109889250D01*
X171246750Y-110048000D01*
X172171000Y-110048000D01*
X172171000Y-109323750D01*
X172425000Y-109323750D01*
X172425000Y-110048000D01*
X173349250Y-110048000D01*
X173508000Y-109889250D01*
X173508000Y-109673690D01*
X174238000Y-109673690D01*
X174238000Y-109889250D01*
X174396750Y-110048000D01*
X175321000Y-110048000D01*
X175321000Y-109323750D01*
X175162250Y-109165000D01*
X174746691Y-109165000D01*
X174513302Y-109261673D01*
X174334673Y-109440301D01*
X174238000Y-109673690D01*
X173508000Y-109673690D01*
X173411327Y-109440301D01*
X173232698Y-109261673D01*
X172999309Y-109165000D01*
X172583750Y-109165000D01*
X172425000Y-109323750D01*
X172171000Y-109323750D01*
X172012250Y-109165000D01*
X171596691Y-109165000D01*
X171363302Y-109261673D01*
X171184673Y-109440301D01*
X171088000Y-109673690D01*
X160017809Y-109673690D01*
X159788327Y-109443808D01*
X159444799Y-109301162D01*
X159072833Y-109300838D01*
X158907980Y-109368954D01*
X158800698Y-109261673D01*
X158567309Y-109165000D01*
X158151750Y-109165000D01*
X157993000Y-109323750D01*
X157993000Y-110048000D01*
X158013000Y-110048000D01*
X158013000Y-110302000D01*
X157993000Y-110302000D01*
X157993000Y-110322000D01*
X157739000Y-110322000D01*
X157739000Y-110302000D01*
X156814750Y-110302000D01*
X156656000Y-110460750D01*
X155926000Y-110460750D01*
X155767250Y-110302000D01*
X154843000Y-110302000D01*
X154843000Y-110322000D01*
X154589000Y-110322000D01*
X154589000Y-110302000D01*
X153664750Y-110302000D01*
X153584799Y-110381951D01*
X153505683Y-110396838D01*
X153289559Y-110535910D01*
X153144569Y-110748110D01*
X153093560Y-111000000D01*
X153093560Y-112023638D01*
X152768320Y-112348878D01*
X152722833Y-112348838D01*
X152379057Y-112490883D01*
X152115808Y-112753673D01*
X151973162Y-113097201D01*
X151972998Y-113286000D01*
X136987000Y-113286000D01*
X136987000Y-113098000D01*
X137007000Y-113098000D01*
X137007000Y-113078000D01*
X137261000Y-113078000D01*
X137261000Y-113098000D01*
X138185250Y-113098000D01*
X138344000Y-112939250D01*
X138344000Y-112723690D01*
X138247327Y-112490301D01*
X138068698Y-112311673D01*
X137835309Y-112215000D01*
X137756440Y-112215000D01*
X137756440Y-111185000D01*
X137835309Y-111185000D01*
X138068698Y-111088327D01*
X138247327Y-110909699D01*
X138344000Y-110676310D01*
X138344000Y-110460750D01*
X139074000Y-110460750D01*
X139074000Y-110676310D01*
X139170673Y-110909699D01*
X139349302Y-111088327D01*
X139582691Y-111185000D01*
X139661560Y-111185000D01*
X139661560Y-112215000D01*
X139582691Y-112215000D01*
X139349302Y-112311673D01*
X139170673Y-112490301D01*
X139074000Y-112723690D01*
X139074000Y-112939250D01*
X139232750Y-113098000D01*
X140157000Y-113098000D01*
X140157000Y-113078000D01*
X140411000Y-113078000D01*
X140411000Y-113098000D01*
X141335250Y-113098000D01*
X141415201Y-113018049D01*
X141494317Y-113003162D01*
X141710441Y-112864090D01*
X141855431Y-112651890D01*
X141906440Y-112400000D01*
X141906440Y-111425153D01*
X141917167Y-111425162D01*
X142260943Y-111283117D01*
X142524192Y-111020327D01*
X142666838Y-110676799D01*
X142667162Y-110304833D01*
X142525117Y-109961057D01*
X142262327Y-109697808D01*
X142204245Y-109673690D01*
X153506000Y-109673690D01*
X153506000Y-109889250D01*
X153664750Y-110048000D01*
X154589000Y-110048000D01*
X154589000Y-109323750D01*
X154843000Y-109323750D01*
X154843000Y-110048000D01*
X155767250Y-110048000D01*
X155926000Y-109889250D01*
X155926000Y-109673690D01*
X156656000Y-109673690D01*
X156656000Y-109889250D01*
X156814750Y-110048000D01*
X157739000Y-110048000D01*
X157739000Y-109323750D01*
X157580250Y-109165000D01*
X157164691Y-109165000D01*
X156931302Y-109261673D01*
X156752673Y-109440301D01*
X156656000Y-109673690D01*
X155926000Y-109673690D01*
X155829327Y-109440301D01*
X155650698Y-109261673D01*
X155417309Y-109165000D01*
X155001750Y-109165000D01*
X154843000Y-109323750D01*
X154589000Y-109323750D01*
X154430250Y-109165000D01*
X154014691Y-109165000D01*
X153781302Y-109261673D01*
X153602673Y-109440301D01*
X153506000Y-109673690D01*
X142204245Y-109673690D01*
X141918799Y-109555162D01*
X141546833Y-109554838D01*
X141459685Y-109590847D01*
X141397327Y-109440301D01*
X141218698Y-109261673D01*
X140985309Y-109165000D01*
X140569750Y-109165000D01*
X140411000Y-109323750D01*
X140411000Y-110048000D01*
X140431000Y-110048000D01*
X140431000Y-110302000D01*
X140411000Y-110302000D01*
X140411000Y-110322000D01*
X140157000Y-110322000D01*
X140157000Y-110302000D01*
X139232750Y-110302000D01*
X139074000Y-110460750D01*
X138344000Y-110460750D01*
X138185250Y-110302000D01*
X137261000Y-110302000D01*
X137261000Y-110322000D01*
X137007000Y-110322000D01*
X137007000Y-110302000D01*
X136082750Y-110302000D01*
X136002799Y-110381951D01*
X135923683Y-110396838D01*
X135707559Y-110535910D01*
X135562569Y-110748110D01*
X135511560Y-111000000D01*
X135511560Y-112079638D01*
X135242320Y-112348878D01*
X135196833Y-112348838D01*
X134853057Y-112490883D01*
X134589808Y-112753673D01*
X134447162Y-113097201D01*
X134446998Y-113286000D01*
X119405000Y-113286000D01*
X119405000Y-113098000D01*
X119425000Y-113098000D01*
X119425000Y-113078000D01*
X119679000Y-113078000D01*
X119679000Y-113098000D01*
X120603250Y-113098000D01*
X120762000Y-112939250D01*
X120762000Y-112723690D01*
X120665327Y-112490301D01*
X120486698Y-112311673D01*
X120253309Y-112215000D01*
X120174440Y-112215000D01*
X120174440Y-111185000D01*
X120253309Y-111185000D01*
X120486698Y-111088327D01*
X120665327Y-110909699D01*
X120762000Y-110676310D01*
X120762000Y-110460750D01*
X121492000Y-110460750D01*
X121492000Y-110676310D01*
X121588673Y-110909699D01*
X121767302Y-111088327D01*
X122000691Y-111185000D01*
X122079560Y-111185000D01*
X122079560Y-112215000D01*
X122000691Y-112215000D01*
X121767302Y-112311673D01*
X121588673Y-112490301D01*
X121492000Y-112723690D01*
X121492000Y-112939250D01*
X121650750Y-113098000D01*
X122575000Y-113098000D01*
X122575000Y-113078000D01*
X122829000Y-113078000D01*
X122829000Y-113098000D01*
X123753250Y-113098000D01*
X123833201Y-113018049D01*
X123912317Y-113003162D01*
X124128441Y-112864090D01*
X124273431Y-112651890D01*
X124324440Y-112400000D01*
X124324440Y-111446362D01*
X124345680Y-111425122D01*
X124391167Y-111425162D01*
X124734943Y-111283117D01*
X124998192Y-111020327D01*
X125140838Y-110676799D01*
X125141162Y-110304833D01*
X124999117Y-109961057D01*
X124736327Y-109697808D01*
X124678245Y-109673690D01*
X135924000Y-109673690D01*
X135924000Y-109889250D01*
X136082750Y-110048000D01*
X137007000Y-110048000D01*
X137007000Y-109323750D01*
X137261000Y-109323750D01*
X137261000Y-110048000D01*
X138185250Y-110048000D01*
X138344000Y-109889250D01*
X138344000Y-109673690D01*
X139074000Y-109673690D01*
X139074000Y-109889250D01*
X139232750Y-110048000D01*
X140157000Y-110048000D01*
X140157000Y-109323750D01*
X139998250Y-109165000D01*
X139582691Y-109165000D01*
X139349302Y-109261673D01*
X139170673Y-109440301D01*
X139074000Y-109673690D01*
X138344000Y-109673690D01*
X138247327Y-109440301D01*
X138068698Y-109261673D01*
X137835309Y-109165000D01*
X137419750Y-109165000D01*
X137261000Y-109323750D01*
X137007000Y-109323750D01*
X136848250Y-109165000D01*
X136432691Y-109165000D01*
X136199302Y-109261673D01*
X136020673Y-109440301D01*
X135924000Y-109673690D01*
X124678245Y-109673690D01*
X124392799Y-109555162D01*
X124020833Y-109554838D01*
X123885869Y-109610604D01*
X123815327Y-109440301D01*
X123636698Y-109261673D01*
X123403309Y-109165000D01*
X122987750Y-109165000D01*
X122829000Y-109323750D01*
X122829000Y-110048000D01*
X122849000Y-110048000D01*
X122849000Y-110302000D01*
X122829000Y-110302000D01*
X122829000Y-110322000D01*
X122575000Y-110322000D01*
X122575000Y-110302000D01*
X121650750Y-110302000D01*
X121492000Y-110460750D01*
X120762000Y-110460750D01*
X120603250Y-110302000D01*
X119679000Y-110302000D01*
X119679000Y-110322000D01*
X119425000Y-110322000D01*
X119425000Y-110302000D01*
X118500750Y-110302000D01*
X118420799Y-110381951D01*
X118341683Y-110396838D01*
X118125559Y-110535910D01*
X117980569Y-110748110D01*
X117929560Y-111000000D01*
X117929560Y-111881638D01*
X117462320Y-112348878D01*
X117416833Y-112348838D01*
X117073057Y-112490883D01*
X116809808Y-112753673D01*
X116667162Y-113097201D01*
X116666998Y-113286000D01*
X101823000Y-113286000D01*
X101823000Y-113098000D01*
X101843000Y-113098000D01*
X101843000Y-113078000D01*
X102097000Y-113078000D01*
X102097000Y-113098000D01*
X103021250Y-113098000D01*
X103180000Y-112939250D01*
X103180000Y-112723690D01*
X103083327Y-112490301D01*
X102904698Y-112311673D01*
X102671309Y-112215000D01*
X102592440Y-112215000D01*
X102592440Y-111185000D01*
X102671309Y-111185000D01*
X102904698Y-111088327D01*
X103083327Y-110909699D01*
X103180000Y-110676310D01*
X103180000Y-110460750D01*
X103910000Y-110460750D01*
X103910000Y-110676310D01*
X104006673Y-110909699D01*
X104185302Y-111088327D01*
X104418691Y-111185000D01*
X104497560Y-111185000D01*
X104497560Y-112215000D01*
X104418691Y-112215000D01*
X104185302Y-112311673D01*
X104006673Y-112490301D01*
X103910000Y-112723690D01*
X103910000Y-112939250D01*
X104068750Y-113098000D01*
X104993000Y-113098000D01*
X104993000Y-113078000D01*
X105247000Y-113078000D01*
X105247000Y-113098000D01*
X106171250Y-113098000D01*
X106251201Y-113018049D01*
X106330317Y-113003162D01*
X106546441Y-112864090D01*
X106691431Y-112651890D01*
X106742440Y-112400000D01*
X106742440Y-111248362D01*
X106819680Y-111171122D01*
X106865167Y-111171162D01*
X107208943Y-111029117D01*
X107472192Y-110766327D01*
X107614838Y-110422799D01*
X107615162Y-110050833D01*
X107473117Y-109707057D01*
X107439809Y-109673690D01*
X118342000Y-109673690D01*
X118342000Y-109889250D01*
X118500750Y-110048000D01*
X119425000Y-110048000D01*
X119425000Y-109323750D01*
X119679000Y-109323750D01*
X119679000Y-110048000D01*
X120603250Y-110048000D01*
X120762000Y-109889250D01*
X120762000Y-109673690D01*
X121492000Y-109673690D01*
X121492000Y-109889250D01*
X121650750Y-110048000D01*
X122575000Y-110048000D01*
X122575000Y-109323750D01*
X122416250Y-109165000D01*
X122000691Y-109165000D01*
X121767302Y-109261673D01*
X121588673Y-109440301D01*
X121492000Y-109673690D01*
X120762000Y-109673690D01*
X120665327Y-109440301D01*
X120486698Y-109261673D01*
X120253309Y-109165000D01*
X119837750Y-109165000D01*
X119679000Y-109323750D01*
X119425000Y-109323750D01*
X119266250Y-109165000D01*
X118850691Y-109165000D01*
X118617302Y-109261673D01*
X118438673Y-109440301D01*
X118342000Y-109673690D01*
X107439809Y-109673690D01*
X107210327Y-109443808D01*
X106866799Y-109301162D01*
X106494833Y-109300838D01*
X106211100Y-109418074D01*
X106054698Y-109261673D01*
X105821309Y-109165000D01*
X105405750Y-109165000D01*
X105247000Y-109323750D01*
X105247000Y-110048000D01*
X105267000Y-110048000D01*
X105267000Y-110302000D01*
X105247000Y-110302000D01*
X105247000Y-110322000D01*
X104993000Y-110322000D01*
X104993000Y-110302000D01*
X104068750Y-110302000D01*
X103910000Y-110460750D01*
X103180000Y-110460750D01*
X103021250Y-110302000D01*
X102097000Y-110302000D01*
X102097000Y-110322000D01*
X101843000Y-110322000D01*
X101843000Y-110302000D01*
X100918750Y-110302000D01*
X100838799Y-110381951D01*
X100759683Y-110396838D01*
X100543559Y-110535910D01*
X100398569Y-110748110D01*
X100347560Y-111000000D01*
X100347560Y-111683638D01*
X99682320Y-112348878D01*
X99636833Y-112348838D01*
X99293057Y-112490883D01*
X99029808Y-112753673D01*
X98887162Y-113097201D01*
X98886998Y-113286000D01*
X84242000Y-113286000D01*
X84242000Y-113098000D01*
X84262000Y-113098000D01*
X84262000Y-113078000D01*
X84516000Y-113078000D01*
X84516000Y-113098000D01*
X85440250Y-113098000D01*
X85599000Y-112939250D01*
X85599000Y-112723690D01*
X85502327Y-112490301D01*
X85323698Y-112311673D01*
X85090309Y-112215000D01*
X85011440Y-112215000D01*
X85011440Y-111185000D01*
X85090309Y-111185000D01*
X85323698Y-111088327D01*
X85502327Y-110909699D01*
X85599000Y-110676310D01*
X85599000Y-110460750D01*
X86329000Y-110460750D01*
X86329000Y-110676310D01*
X86425673Y-110909699D01*
X86604302Y-111088327D01*
X86837691Y-111185000D01*
X86916560Y-111185000D01*
X86916560Y-112215000D01*
X86837691Y-112215000D01*
X86604302Y-112311673D01*
X86425673Y-112490301D01*
X86329000Y-112723690D01*
X86329000Y-112939250D01*
X86487750Y-113098000D01*
X87412000Y-113098000D01*
X87412000Y-113078000D01*
X87666000Y-113078000D01*
X87666000Y-113098000D01*
X88590250Y-113098000D01*
X88670201Y-113018049D01*
X88749317Y-113003162D01*
X88965441Y-112864090D01*
X89110431Y-112651890D01*
X89161440Y-112400000D01*
X89161440Y-111393647D01*
X89428943Y-111283117D01*
X89692192Y-111020327D01*
X89834838Y-110676799D01*
X89835162Y-110304833D01*
X89693117Y-109961057D01*
X89430327Y-109697808D01*
X89372245Y-109673690D01*
X100760000Y-109673690D01*
X100760000Y-109889250D01*
X100918750Y-110048000D01*
X101843000Y-110048000D01*
X101843000Y-109323750D01*
X102097000Y-109323750D01*
X102097000Y-110048000D01*
X103021250Y-110048000D01*
X103180000Y-109889250D01*
X103180000Y-109673690D01*
X103910000Y-109673690D01*
X103910000Y-109889250D01*
X104068750Y-110048000D01*
X104993000Y-110048000D01*
X104993000Y-109323750D01*
X104834250Y-109165000D01*
X104418691Y-109165000D01*
X104185302Y-109261673D01*
X104006673Y-109440301D01*
X103910000Y-109673690D01*
X103180000Y-109673690D01*
X103083327Y-109440301D01*
X102904698Y-109261673D01*
X102671309Y-109165000D01*
X102255750Y-109165000D01*
X102097000Y-109323750D01*
X101843000Y-109323750D01*
X101684250Y-109165000D01*
X101268691Y-109165000D01*
X101035302Y-109261673D01*
X100856673Y-109440301D01*
X100760000Y-109673690D01*
X89372245Y-109673690D01*
X89086799Y-109555162D01*
X88714833Y-109554838D01*
X88701971Y-109560152D01*
X88652327Y-109440301D01*
X88473698Y-109261673D01*
X88240309Y-109165000D01*
X87824750Y-109165000D01*
X87666000Y-109323750D01*
X87666000Y-110048000D01*
X87686000Y-110048000D01*
X87686000Y-110302000D01*
X87666000Y-110302000D01*
X87666000Y-110322000D01*
X87412000Y-110322000D01*
X87412000Y-110302000D01*
X86487750Y-110302000D01*
X86329000Y-110460750D01*
X85599000Y-110460750D01*
X85440250Y-110302000D01*
X84516000Y-110302000D01*
X84516000Y-110322000D01*
X84262000Y-110322000D01*
X84262000Y-110302000D01*
X83337750Y-110302000D01*
X83257799Y-110381951D01*
X83178683Y-110396838D01*
X82962559Y-110535910D01*
X82817569Y-110748110D01*
X82766560Y-111000000D01*
X82766560Y-111738638D01*
X82156320Y-112348878D01*
X82110833Y-112348838D01*
X81767057Y-112490883D01*
X81503808Y-112753673D01*
X81361162Y-113097201D01*
X81360998Y-113286000D01*
X66660000Y-113286000D01*
X66660000Y-113098000D01*
X66680000Y-113098000D01*
X66680000Y-113078000D01*
X66934000Y-113078000D01*
X66934000Y-113098000D01*
X67858250Y-113098000D01*
X68017000Y-112939250D01*
X68017000Y-112723690D01*
X67920327Y-112490301D01*
X67741698Y-112311673D01*
X67508309Y-112215000D01*
X67429440Y-112215000D01*
X67429440Y-111185000D01*
X67508309Y-111185000D01*
X67741698Y-111088327D01*
X67920327Y-110909699D01*
X68017000Y-110676310D01*
X68017000Y-110460750D01*
X68747000Y-110460750D01*
X68747000Y-110676310D01*
X68843673Y-110909699D01*
X69022302Y-111088327D01*
X69255691Y-111185000D01*
X69334560Y-111185000D01*
X69334560Y-112215000D01*
X69255691Y-112215000D01*
X69022302Y-112311673D01*
X68843673Y-112490301D01*
X68747000Y-112723690D01*
X68747000Y-112939250D01*
X68905750Y-113098000D01*
X69830000Y-113098000D01*
X69830000Y-113078000D01*
X70084000Y-113078000D01*
X70084000Y-113098000D01*
X71008250Y-113098000D01*
X71088201Y-113018049D01*
X71167317Y-113003162D01*
X71383441Y-112864090D01*
X71528431Y-112651890D01*
X71579440Y-112400000D01*
X71579440Y-111867362D01*
X71911401Y-111535401D01*
X72076148Y-111288839D01*
X72134000Y-110998000D01*
X72134000Y-110798463D01*
X72166192Y-110766327D01*
X72308838Y-110422799D01*
X72309162Y-110050833D01*
X72167117Y-109707057D01*
X72133809Y-109673690D01*
X83179000Y-109673690D01*
X83179000Y-109889250D01*
X83337750Y-110048000D01*
X84262000Y-110048000D01*
X84262000Y-109323750D01*
X84516000Y-109323750D01*
X84516000Y-110048000D01*
X85440250Y-110048000D01*
X85599000Y-109889250D01*
X85599000Y-109673690D01*
X86329000Y-109673690D01*
X86329000Y-109889250D01*
X86487750Y-110048000D01*
X87412000Y-110048000D01*
X87412000Y-109323750D01*
X87253250Y-109165000D01*
X86837691Y-109165000D01*
X86604302Y-109261673D01*
X86425673Y-109440301D01*
X86329000Y-109673690D01*
X85599000Y-109673690D01*
X85502327Y-109440301D01*
X85323698Y-109261673D01*
X85090309Y-109165000D01*
X84674750Y-109165000D01*
X84516000Y-109323750D01*
X84262000Y-109323750D01*
X84103250Y-109165000D01*
X83687691Y-109165000D01*
X83454302Y-109261673D01*
X83275673Y-109440301D01*
X83179000Y-109673690D01*
X72133809Y-109673690D01*
X71904327Y-109443808D01*
X71560799Y-109301162D01*
X71188833Y-109300838D01*
X71006289Y-109376263D01*
X70891698Y-109261673D01*
X70658309Y-109165000D01*
X70242750Y-109165000D01*
X70084000Y-109323750D01*
X70084000Y-110048000D01*
X70104000Y-110048000D01*
X70104000Y-110302000D01*
X70084000Y-110302000D01*
X70084000Y-110322000D01*
X69830000Y-110322000D01*
X69830000Y-110302000D01*
X68905750Y-110302000D01*
X68747000Y-110460750D01*
X68017000Y-110460750D01*
X67858250Y-110302000D01*
X66934000Y-110302000D01*
X66934000Y-110322000D01*
X66680000Y-110322000D01*
X66680000Y-110302000D01*
X65755750Y-110302000D01*
X65675799Y-110381951D01*
X65596683Y-110396838D01*
X65380559Y-110535910D01*
X65235569Y-110748110D01*
X65184560Y-111000000D01*
X65184560Y-111540638D01*
X64376320Y-112348878D01*
X64330833Y-112348838D01*
X63987057Y-112490883D01*
X63723808Y-112753673D01*
X63581162Y-113097201D01*
X63580998Y-113286000D01*
X49078000Y-113286000D01*
X49078000Y-113098000D01*
X49098000Y-113098000D01*
X49098000Y-113078000D01*
X49352000Y-113078000D01*
X49352000Y-113098000D01*
X50276250Y-113098000D01*
X50435000Y-112939250D01*
X50435000Y-112723690D01*
X50338327Y-112490301D01*
X50159698Y-112311673D01*
X49926309Y-112215000D01*
X49847440Y-112215000D01*
X49847440Y-111185000D01*
X49926309Y-111185000D01*
X50159698Y-111088327D01*
X50338327Y-110909699D01*
X50435000Y-110676310D01*
X50435000Y-110460750D01*
X50276250Y-110302000D01*
X49352000Y-110302000D01*
X49352000Y-110322000D01*
X49098000Y-110322000D01*
X49098000Y-110302000D01*
X48173750Y-110302000D01*
X48093799Y-110381951D01*
X48014683Y-110396838D01*
X47798559Y-110535910D01*
X47653569Y-110748110D01*
X47636873Y-110830558D01*
X47520327Y-110713808D01*
X47176799Y-110571162D01*
X46804833Y-110570838D01*
X46461057Y-110712883D01*
X46197808Y-110975673D01*
X46055162Y-111319201D01*
X46055121Y-111366077D01*
X45210000Y-112211198D01*
X45210000Y-111187200D01*
X45321407Y-111075793D01*
X45486154Y-110829231D01*
X45544006Y-110538392D01*
X45544006Y-109962796D01*
X45833112Y-109673690D01*
X48015000Y-109673690D01*
X48015000Y-109889250D01*
X48173750Y-110048000D01*
X49098000Y-110048000D01*
X49098000Y-109323750D01*
X49352000Y-109323750D01*
X49352000Y-110048000D01*
X50276250Y-110048000D01*
X50435000Y-109889250D01*
X50435000Y-109673690D01*
X51165000Y-109673690D01*
X51165000Y-109889250D01*
X51323750Y-110048000D01*
X52248000Y-110048000D01*
X52248000Y-109323750D01*
X52089250Y-109165000D01*
X51673691Y-109165000D01*
X51440302Y-109261673D01*
X51261673Y-109440301D01*
X51165000Y-109673690D01*
X50435000Y-109673690D01*
X50338327Y-109440301D01*
X50159698Y-109261673D01*
X49926309Y-109165000D01*
X49510750Y-109165000D01*
X49352000Y-109323750D01*
X49098000Y-109323750D01*
X48939250Y-109165000D01*
X48523691Y-109165000D01*
X48290302Y-109261673D01*
X48111673Y-109440301D01*
X48015000Y-109673690D01*
X45833112Y-109673690D01*
X45945403Y-109561399D01*
X46110150Y-109314837D01*
X46168002Y-109023998D01*
X46168002Y-108322800D01*
X46346800Y-108144002D01*
X52259439Y-108144002D01*
X52292883Y-108224943D01*
X52555673Y-108488192D01*
X52899201Y-108630838D01*
X53088000Y-108631002D01*
X53088000Y-109169843D01*
X53076309Y-109165000D01*
X52660750Y-109165000D01*
X52502000Y-109323750D01*
X52502000Y-110048000D01*
X52522000Y-110048000D01*
X52522000Y-110302000D01*
X52502000Y-110302000D01*
X52502000Y-110322000D01*
X52248000Y-110322000D01*
X52248000Y-110302000D01*
X51323750Y-110302000D01*
X51165000Y-110460750D01*
X51165000Y-110676310D01*
X51261673Y-110909699D01*
X51440302Y-111088327D01*
X51673691Y-111185000D01*
X51752560Y-111185000D01*
X51752560Y-112215000D01*
X51673691Y-112215000D01*
X51440302Y-112311673D01*
X51261673Y-112490301D01*
X51165000Y-112723690D01*
X51165000Y-112939250D01*
X51323750Y-113098000D01*
X52248000Y-113098000D01*
X52248000Y-113078000D01*
X52502000Y-113078000D01*
X52502000Y-113098000D01*
X53426250Y-113098000D01*
X53506201Y-113018049D01*
X53585317Y-113003162D01*
X53801441Y-112864090D01*
X53946431Y-112651890D01*
X53997440Y-112400000D01*
X53997440Y-111415362D01*
X54385401Y-111027401D01*
X54550148Y-110780839D01*
X54608000Y-110490000D01*
X54608000Y-109673690D01*
X65597000Y-109673690D01*
X65597000Y-109889250D01*
X65755750Y-110048000D01*
X66680000Y-110048000D01*
X66680000Y-109323750D01*
X66934000Y-109323750D01*
X66934000Y-110048000D01*
X67858250Y-110048000D01*
X68017000Y-109889250D01*
X68017000Y-109673690D01*
X68747000Y-109673690D01*
X68747000Y-109889250D01*
X68905750Y-110048000D01*
X69830000Y-110048000D01*
X69830000Y-109323750D01*
X69671250Y-109165000D01*
X69255691Y-109165000D01*
X69022302Y-109261673D01*
X68843673Y-109440301D01*
X68747000Y-109673690D01*
X68017000Y-109673690D01*
X67920327Y-109440301D01*
X67741698Y-109261673D01*
X67508309Y-109165000D01*
X67092750Y-109165000D01*
X66934000Y-109323750D01*
X66680000Y-109323750D01*
X66521250Y-109165000D01*
X66105691Y-109165000D01*
X65872302Y-109261673D01*
X65693673Y-109440301D01*
X65597000Y-109673690D01*
X54608000Y-109673690D01*
X54608000Y-109151167D01*
X239094838Y-109151167D01*
X239236883Y-109494943D01*
X239499673Y-109758192D01*
X239843201Y-109900838D01*
X240215167Y-109901162D01*
X240558943Y-109759117D01*
X240592118Y-109726000D01*
X241415000Y-109726000D01*
X241415000Y-109889250D01*
X241573750Y-110048000D01*
X242498000Y-110048000D01*
X242498000Y-110028000D01*
X242752000Y-110028000D01*
X242752000Y-110048000D01*
X243676250Y-110048000D01*
X243835000Y-109889250D01*
X243835000Y-109765387D01*
X244161201Y-109900838D01*
X244533167Y-109901162D01*
X244565000Y-109888009D01*
X244565000Y-109889250D01*
X244723750Y-110048000D01*
X245648000Y-110048000D01*
X245648000Y-109323750D01*
X245489250Y-109165000D01*
X245277772Y-109165000D01*
X245282838Y-109152799D01*
X245283162Y-108780833D01*
X245141117Y-108437057D01*
X244878327Y-108173808D01*
X244534799Y-108031162D01*
X244162833Y-108030838D01*
X243819057Y-108172883D01*
X243785882Y-108206000D01*
X240592463Y-108206000D01*
X240560327Y-108173808D01*
X240216799Y-108031162D01*
X239844833Y-108030838D01*
X239501057Y-108172883D01*
X239237808Y-108435673D01*
X239095162Y-108779201D01*
X239094838Y-109151167D01*
X54608000Y-109151167D01*
X54608000Y-108512463D01*
X54640192Y-108480327D01*
X54782838Y-108136799D01*
X54782879Y-108089923D01*
X57210802Y-105662000D01*
X68207200Y-105662000D01*
X69000601Y-106455401D01*
X69247163Y-106620148D01*
X69538002Y-106678000D01*
X73660000Y-106678000D01*
X73950839Y-106620148D01*
X74197401Y-106455401D01*
X75476794Y-105176008D01*
X85813206Y-105176008D01*
X86330599Y-105693401D01*
X86577161Y-105858148D01*
X86868000Y-105916000D01*
X89154000Y-105916000D01*
X89444839Y-105858148D01*
X89691401Y-105693401D01*
X89976802Y-105408000D01*
X104066796Y-105408000D01*
X104352197Y-105693401D01*
X104598759Y-105858148D01*
X104889598Y-105916000D01*
X106934000Y-105916000D01*
X107224839Y-105858148D01*
X107471401Y-105693401D01*
X107756802Y-105408000D01*
X121605198Y-105408000D01*
X121890599Y-105693401D01*
X122137161Y-105858148D01*
X122428000Y-105916000D01*
X123952000Y-105916000D01*
X124242839Y-105858148D01*
X124489401Y-105693401D01*
X124774802Y-105408000D01*
X139639198Y-105408000D01*
X139924599Y-105693401D01*
X140171161Y-105858148D01*
X140462000Y-105916000D01*
X141420002Y-105916000D01*
X141710841Y-105858148D01*
X141957403Y-105693401D01*
X142242804Y-105408000D01*
X157419198Y-105408000D01*
X157704599Y-105693401D01*
X157951161Y-105858148D01*
X158242000Y-105916000D01*
X158750000Y-105916000D01*
X159040839Y-105858148D01*
X159287401Y-105693401D01*
X159572802Y-105408000D01*
X172659198Y-105408000D01*
X174722599Y-107471401D01*
X174969160Y-107636148D01*
X175260000Y-107694000D01*
X178308000Y-107694000D01*
X178598839Y-107636148D01*
X178845401Y-107471401D01*
X180654802Y-105662000D01*
X193253403Y-105662000D01*
X193262883Y-105684943D01*
X193525673Y-105948192D01*
X193869201Y-106090838D01*
X194241167Y-106091162D01*
X194584943Y-105949117D01*
X194848192Y-105686327D01*
X194858294Y-105662000D01*
X208090800Y-105662000D01*
X208572203Y-106143403D01*
X208818764Y-106308150D01*
X209109604Y-106366002D01*
X212912794Y-106366002D01*
X213203633Y-106308150D01*
X213450195Y-106143403D01*
X213848796Y-105744802D01*
X225745198Y-105744802D01*
X226201797Y-106201401D01*
X226448359Y-106366148D01*
X226739198Y-106424000D01*
X229616000Y-106424000D01*
X229906839Y-106366148D01*
X230153401Y-106201401D01*
X230438802Y-105916000D01*
X235163403Y-105916000D01*
X235172883Y-105938943D01*
X235435673Y-106202192D01*
X235779201Y-106344838D01*
X236151167Y-106345162D01*
X236494943Y-106203117D01*
X236758192Y-105940327D01*
X236801162Y-105836843D01*
X237167167Y-105837162D01*
X237510943Y-105695117D01*
X237774192Y-105432327D01*
X237916838Y-105088799D01*
X237917053Y-104842002D01*
X243213200Y-104842002D01*
X243498601Y-105127403D01*
G36*
X252126838Y-102698917D02*
X252265910Y-102915041D01*
X252478110Y-103060031D01*
X252519439Y-103068400D01*
X252501585Y-103080330D01*
X252176729Y-103566511D01*
X252062655Y-104140000D01*
X252079336Y-104223862D01*
X251320320Y-104982878D01*
X251274833Y-104982838D01*
X250931057Y-105124883D01*
X250667808Y-105387673D01*
X250525162Y-105731201D01*
X250524998Y-105920000D01*
X249996802Y-105920000D01*
X248040004Y-103963202D01*
X248040004Y-103387606D01*
X247986258Y-103117411D01*
X247982152Y-103096766D01*
X247817405Y-102850205D01*
X247581200Y-102614000D01*
X252110860Y-102614000D01*
X252126838Y-102698917D01*
X252126838Y-102698917D01*
G37*
X252126838Y-102698917D02*
X252265910Y-102915041D01*
X252478110Y-103060031D01*
X252519439Y-103068400D01*
X252501585Y-103080330D01*
X252176729Y-103566511D01*
X252062655Y-104140000D01*
X252079336Y-104223862D01*
X251320320Y-104982878D01*
X251274833Y-104982838D01*
X250931057Y-105124883D01*
X250667808Y-105387673D01*
X250525162Y-105731201D01*
X250524998Y-105920000D01*
X249996802Y-105920000D01*
X248040004Y-103963202D01*
X248040004Y-103387606D01*
X247986258Y-103117411D01*
X247982152Y-103096766D01*
X247817405Y-102850205D01*
X247581200Y-102614000D01*
X252110860Y-102614000D01*
X252126838Y-102698917D01*
M02*
