M48
;DRILL file {KiCad 4.0.0-1rc2.201511291916+6190~38~ubuntu14.04.1-stable} date Mon 14 Mar 2016 12:16:50 PM PDT
;FORMAT={-:-/ absolute / inch / decimal}
FMAT,2
INCH,TZ
T1C0.016
T2C0.146
%
G90
G05
M72
T1
X1.74Y-4.63
X1.8Y-4.49
X1.83Y-4.33
X1.85Y-4.39
X1.87Y-4.46
X2.09Y-4.02
X2.09Y-4.24
X2.12Y-4.25
X2.54Y-4.46
X2.8Y-4.02
X2.81Y-4.34
X2.91Y-4.12
X3.24Y-4.46
X3.47Y-4.03
X3.5Y-4.35
X3.93Y-4.46
X4.17Y-4.05
X4.2Y-4.34
X4.63Y-4.46
X4.85Y-4.07
X4.89Y-4.35
X5.33Y-4.46
X5.55Y-4.09
X5.58Y-4.35
X6.02Y-4.46
X6.24Y-4.11
X6.27Y-4.34
X6.93Y-4.18
X6.94Y-4.15
X6.96Y-4.
X6.97Y-4.35
X7.Y-4.15
X7.64Y-4.14
X7.67Y-4.35
X8.31Y-4.02
X8.35Y-4.34
X8.98Y-4.03
X9.04Y-4.34
X9.29Y-4.15
X9.33Y-4.13
X9.45Y-4.29
X9.62Y-4.29
X9.63Y-4.24
X9.66Y-4.08
X9.68Y-3.98
X9.68Y-4.23
X9.71Y-3.96
X9.82Y-4.15
X9.9Y-4.17
X9.91Y-4.07
T2
X1.93Y-4.67
X9.7Y-4.67
T0
M30
