G04 #@! TF.FileFunction,Legend,Bot*
%FSLAX46Y46*%
G04 Gerber Fmt 4.6, Leading zero omitted, Abs format (unit mm)*
G04 Created by KiCad (PCBNEW 4.0.0-1rc2.201511291916+6190~38~ubuntu14.04.1-stable) date Mon 14 Mar 2016 12:17:33 PM PDT*
%MOMM*%
G01*
G04 APERTURE LIST*
%ADD10C,0.100000*%
%ADD11C,0.250000*%
G04 APERTURE END LIST*
D10*
D11*
X251650476Y-119086381D02*
X252126667Y-119086381D01*
X252174286Y-119562571D01*
X252126667Y-119514952D01*
X252031429Y-119467333D01*
X251793333Y-119467333D01*
X251698095Y-119514952D01*
X251650476Y-119562571D01*
X251602857Y-119657810D01*
X251602857Y-119895905D01*
X251650476Y-119991143D01*
X251698095Y-120038762D01*
X251793333Y-120086381D01*
X252031429Y-120086381D01*
X252126667Y-120038762D01*
X252174286Y-119991143D01*
X251317143Y-119086381D02*
X250983810Y-120086381D01*
X250650476Y-119086381D01*
X251626666Y-117292381D02*
X251960000Y-116816190D01*
X252198095Y-117292381D02*
X252198095Y-116292381D01*
X251817142Y-116292381D01*
X251721904Y-116340000D01*
X251674285Y-116387619D01*
X251626666Y-116482857D01*
X251626666Y-116625714D01*
X251674285Y-116720952D01*
X251721904Y-116768571D01*
X251817142Y-116816190D01*
X252198095Y-116816190D01*
X251293333Y-116292381D02*
X250674285Y-116292381D01*
X251007619Y-116673333D01*
X250864761Y-116673333D01*
X250769523Y-116720952D01*
X250721904Y-116768571D01*
X250674285Y-116863810D01*
X250674285Y-117101905D01*
X250721904Y-117197143D01*
X250769523Y-117244762D01*
X250864761Y-117292381D01*
X251150476Y-117292381D01*
X251245714Y-117244762D01*
X251293333Y-117197143D01*
X251626666Y-114752381D02*
X251960000Y-114276190D01*
X252198095Y-114752381D02*
X252198095Y-113752381D01*
X251817142Y-113752381D01*
X251721904Y-113800000D01*
X251674285Y-113847619D01*
X251626666Y-113942857D01*
X251626666Y-114085714D01*
X251674285Y-114180952D01*
X251721904Y-114228571D01*
X251817142Y-114276190D01*
X252198095Y-114276190D01*
X251245714Y-113847619D02*
X251198095Y-113800000D01*
X251102857Y-113752381D01*
X250864761Y-113752381D01*
X250769523Y-113800000D01*
X250721904Y-113847619D01*
X250674285Y-113942857D01*
X250674285Y-114038095D01*
X250721904Y-114180952D01*
X251293333Y-114752381D01*
X250674285Y-114752381D01*
X251626666Y-112212381D02*
X251960000Y-111736190D01*
X252198095Y-112212381D02*
X252198095Y-111212381D01*
X251817142Y-111212381D01*
X251721904Y-111260000D01*
X251674285Y-111307619D01*
X251626666Y-111402857D01*
X251626666Y-111545714D01*
X251674285Y-111640952D01*
X251721904Y-111688571D01*
X251817142Y-111736190D01*
X252198095Y-111736190D01*
X250674285Y-112212381D02*
X251245714Y-112212381D01*
X250960000Y-112212381D02*
X250960000Y-111212381D01*
X251055238Y-111355238D01*
X251150476Y-111450476D01*
X251245714Y-111498095D01*
X251626666Y-109672381D02*
X251960000Y-109196190D01*
X252198095Y-109672381D02*
X252198095Y-108672381D01*
X251817142Y-108672381D01*
X251721904Y-108720000D01*
X251674285Y-108767619D01*
X251626666Y-108862857D01*
X251626666Y-109005714D01*
X251674285Y-109100952D01*
X251721904Y-109148571D01*
X251817142Y-109196190D01*
X252198095Y-109196190D01*
X251007619Y-108672381D02*
X250912380Y-108672381D01*
X250817142Y-108720000D01*
X250769523Y-108767619D01*
X250721904Y-108862857D01*
X250674285Y-109053333D01*
X250674285Y-109291429D01*
X250721904Y-109481905D01*
X250769523Y-109577143D01*
X250817142Y-109624762D01*
X250912380Y-109672381D01*
X251007619Y-109672381D01*
X251102857Y-109624762D01*
X251150476Y-109577143D01*
X251198095Y-109481905D01*
X251245714Y-109291429D01*
X251245714Y-109053333D01*
X251198095Y-108862857D01*
X251150476Y-108767619D01*
X251102857Y-108720000D01*
X251007619Y-108672381D01*
X251793333Y-106132381D02*
X251793333Y-106846667D01*
X251840953Y-106989524D01*
X251936191Y-107084762D01*
X252079048Y-107132381D01*
X252174286Y-107132381D01*
X250793333Y-107132381D02*
X251364762Y-107132381D01*
X251079048Y-107132381D02*
X251079048Y-106132381D01*
X251174286Y-106275238D01*
X251269524Y-106370476D01*
X251364762Y-106418095D01*
X251793333Y-103592381D02*
X251793333Y-104306667D01*
X251840953Y-104449524D01*
X251936191Y-104544762D01*
X252079048Y-104592381D01*
X252174286Y-104592381D01*
X251126667Y-103592381D02*
X251031428Y-103592381D01*
X250936190Y-103640000D01*
X250888571Y-103687619D01*
X250840952Y-103782857D01*
X250793333Y-103973333D01*
X250793333Y-104211429D01*
X250840952Y-104401905D01*
X250888571Y-104497143D01*
X250936190Y-104544762D01*
X251031428Y-104592381D01*
X251126667Y-104592381D01*
X251221905Y-104544762D01*
X251269524Y-104497143D01*
X251317143Y-104401905D01*
X251364762Y-104211429D01*
X251364762Y-103973333D01*
X251317143Y-103782857D01*
X251269524Y-103687619D01*
X251221905Y-103640000D01*
X251126667Y-103592381D01*
X251459904Y-101100000D02*
X251555142Y-101052381D01*
X251697999Y-101052381D01*
X251840857Y-101100000D01*
X251936095Y-101195238D01*
X251983714Y-101290476D01*
X252031333Y-101480952D01*
X252031333Y-101623810D01*
X251983714Y-101814286D01*
X251936095Y-101909524D01*
X251840857Y-102004762D01*
X251697999Y-102052381D01*
X251602761Y-102052381D01*
X251459904Y-102004762D01*
X251412285Y-101957143D01*
X251412285Y-101623810D01*
X251602761Y-101623810D01*
X250983714Y-102052381D02*
X250983714Y-101052381D01*
X250412285Y-102052381D01*
X250412285Y-101052381D01*
X249936095Y-102052381D02*
X249936095Y-101052381D01*
X249698000Y-101052381D01*
X249555142Y-101100000D01*
X249459904Y-101195238D01*
X249412285Y-101290476D01*
X249364666Y-101480952D01*
X249364666Y-101623810D01*
X249412285Y-101814286D01*
X249459904Y-101909524D01*
X249555142Y-102004762D01*
X249698000Y-102052381D01*
X249936095Y-102052381D01*
X44362666Y-104846381D02*
X44696000Y-104370190D01*
X44934095Y-104846381D02*
X44934095Y-103846381D01*
X44553142Y-103846381D01*
X44457904Y-103894000D01*
X44410285Y-103941619D01*
X44362666Y-104036857D01*
X44362666Y-104179714D01*
X44410285Y-104274952D01*
X44457904Y-104322571D01*
X44553142Y-104370190D01*
X44934095Y-104370190D01*
X43743619Y-103846381D02*
X43648380Y-103846381D01*
X43553142Y-103894000D01*
X43505523Y-103941619D01*
X43457904Y-104036857D01*
X43410285Y-104227333D01*
X43410285Y-104465429D01*
X43457904Y-104655905D01*
X43505523Y-104751143D01*
X43553142Y-104798762D01*
X43648380Y-104846381D01*
X43743619Y-104846381D01*
X43838857Y-104798762D01*
X43886476Y-104751143D01*
X43934095Y-104655905D01*
X43981714Y-104465429D01*
X43981714Y-104227333D01*
X43934095Y-104036857D01*
X43886476Y-103941619D01*
X43838857Y-103894000D01*
X43743619Y-103846381D01*
X44362666Y-107386381D02*
X44696000Y-106910190D01*
X44934095Y-107386381D02*
X44934095Y-106386381D01*
X44553142Y-106386381D01*
X44457904Y-106434000D01*
X44410285Y-106481619D01*
X44362666Y-106576857D01*
X44362666Y-106719714D01*
X44410285Y-106814952D01*
X44457904Y-106862571D01*
X44553142Y-106910190D01*
X44934095Y-106910190D01*
X43410285Y-107386381D02*
X43981714Y-107386381D01*
X43696000Y-107386381D02*
X43696000Y-106386381D01*
X43791238Y-106529238D01*
X43886476Y-106624476D01*
X43981714Y-106672095D01*
X44362666Y-109926381D02*
X44696000Y-109450190D01*
X44934095Y-109926381D02*
X44934095Y-108926381D01*
X44553142Y-108926381D01*
X44457904Y-108974000D01*
X44410285Y-109021619D01*
X44362666Y-109116857D01*
X44362666Y-109259714D01*
X44410285Y-109354952D01*
X44457904Y-109402571D01*
X44553142Y-109450190D01*
X44934095Y-109450190D01*
X43981714Y-109021619D02*
X43934095Y-108974000D01*
X43838857Y-108926381D01*
X43600761Y-108926381D01*
X43505523Y-108974000D01*
X43457904Y-109021619D01*
X43410285Y-109116857D01*
X43410285Y-109212095D01*
X43457904Y-109354952D01*
X44029333Y-109926381D01*
X43410285Y-109926381D01*
X44362666Y-112212381D02*
X44696000Y-111736190D01*
X44934095Y-112212381D02*
X44934095Y-111212381D01*
X44553142Y-111212381D01*
X44457904Y-111260000D01*
X44410285Y-111307619D01*
X44362666Y-111402857D01*
X44362666Y-111545714D01*
X44410285Y-111640952D01*
X44457904Y-111688571D01*
X44553142Y-111736190D01*
X44934095Y-111736190D01*
X44029333Y-111212381D02*
X43410285Y-111212381D01*
X43743619Y-111593333D01*
X43600761Y-111593333D01*
X43505523Y-111640952D01*
X43457904Y-111688571D01*
X43410285Y-111783810D01*
X43410285Y-112021905D01*
X43457904Y-112117143D01*
X43505523Y-112164762D01*
X43600761Y-112212381D01*
X43886476Y-112212381D01*
X43981714Y-112164762D01*
X44029333Y-112117143D01*
X44362666Y-115006381D02*
X44696000Y-114530190D01*
X44934095Y-115006381D02*
X44934095Y-114006381D01*
X44553142Y-114006381D01*
X44457904Y-114054000D01*
X44410285Y-114101619D01*
X44362666Y-114196857D01*
X44362666Y-114339714D01*
X44410285Y-114434952D01*
X44457904Y-114482571D01*
X44553142Y-114530190D01*
X44934095Y-114530190D01*
X43505523Y-114339714D02*
X43505523Y-115006381D01*
X43743619Y-113958762D02*
X43981714Y-114673048D01*
X43362666Y-114673048D01*
X45465904Y-101354000D02*
X45561142Y-101306381D01*
X45703999Y-101306381D01*
X45846857Y-101354000D01*
X45942095Y-101449238D01*
X45989714Y-101544476D01*
X46037333Y-101734952D01*
X46037333Y-101877810D01*
X45989714Y-102068286D01*
X45942095Y-102163524D01*
X45846857Y-102258762D01*
X45703999Y-102306381D01*
X45608761Y-102306381D01*
X45465904Y-102258762D01*
X45418285Y-102211143D01*
X45418285Y-101877810D01*
X45608761Y-101877810D01*
X44989714Y-102306381D02*
X44989714Y-101306381D01*
X44418285Y-102306381D01*
X44418285Y-101306381D01*
X43942095Y-102306381D02*
X43942095Y-101306381D01*
X43704000Y-101306381D01*
X43561142Y-101354000D01*
X43465904Y-101449238D01*
X43418285Y-101544476D01*
X43370666Y-101734952D01*
X43370666Y-101877810D01*
X43418285Y-102068286D01*
X43465904Y-102163524D01*
X43561142Y-102258762D01*
X43704000Y-102306381D01*
X43942095Y-102306381D01*
X44362666Y-117292381D02*
X44696000Y-116816190D01*
X44934095Y-117292381D02*
X44934095Y-116292381D01*
X44553142Y-116292381D01*
X44457904Y-116340000D01*
X44410285Y-116387619D01*
X44362666Y-116482857D01*
X44362666Y-116625714D01*
X44410285Y-116720952D01*
X44457904Y-116768571D01*
X44553142Y-116816190D01*
X44934095Y-116816190D01*
X43457904Y-116292381D02*
X43934095Y-116292381D01*
X43981714Y-116768571D01*
X43934095Y-116720952D01*
X43838857Y-116673333D01*
X43600761Y-116673333D01*
X43505523Y-116720952D01*
X43457904Y-116768571D01*
X43410285Y-116863810D01*
X43410285Y-117101905D01*
X43457904Y-117197143D01*
X43505523Y-117244762D01*
X43600761Y-117292381D01*
X43838857Y-117292381D01*
X43934095Y-117244762D01*
X43981714Y-117197143D01*
X44386476Y-120610381D02*
X44862667Y-120610381D01*
X44910286Y-121086571D01*
X44862667Y-121038952D01*
X44767429Y-120991333D01*
X44529333Y-120991333D01*
X44434095Y-121038952D01*
X44386476Y-121086571D01*
X44338857Y-121181810D01*
X44338857Y-121419905D01*
X44386476Y-121515143D01*
X44434095Y-121562762D01*
X44529333Y-121610381D01*
X44767429Y-121610381D01*
X44862667Y-121562762D01*
X44910286Y-121515143D01*
X44053143Y-120610381D02*
X43719810Y-121610381D01*
X43386476Y-120610381D01*
M02*
