M48
;DRILL file {KiCad 4.0.4+e1-6308~48~ubuntu14.04.1-stable} date Thu Sep  7 12:28:45 2017
;FORMAT={-:-/ absolute / inch / decimal}
FMAT,2
INCH,TZ
T1C0.016
T2C0.024
T3C0.039
T4C0.110
T5C0.146
%
G90
G05
M72
T1
X3.97Y-5.03
X4.0013Y-5.3625
X4.0313Y-5.3925
X4.11Y-1.98
X4.14Y-2.98
X4.1713Y-3.1625
X4.2013Y-2.5525
X4.2313Y-2.7125
X4.2613Y-1.6725
X4.2613Y-1.8125
X4.2613Y-3.3225
X4.2913Y-1.2025
X4.31Y-5.99
X4.3479Y-5.7525
X4.35Y-5.58
X4.3513Y-6.1825
X4.3709Y-0.98
X4.3713Y-4.9225
X4.3813Y-5.4225
X4.3913Y-1.6625
X4.3913Y-2.7091
X4.3913Y-2.9759
X4.3913Y-6.2525
X4.3913Y-6.6125
X4.3913Y-6.8825
X4.43Y-0.565
X4.43Y-0.605
X4.4513Y-6.1825
X4.4613Y-6.1225
X4.4813Y-4.9225
X4.495Y-5.4525
X4.495Y-5.5525
X4.495Y-5.6525
X4.5213Y-5.7725
X4.5413Y-6.3225
X4.5513Y-5.6525
X4.5813Y-5.1425
X4.6013Y-4.9925
X4.62Y-0.7
X4.6213Y-4.9525
X4.67Y-4.97
X4.6813Y-4.8451
X4.7013Y-5.7025
X4.7116Y-0.29
X4.7675Y-5.8525
X4.7679Y-1.9725
X4.7679Y-3.3225
X4.78Y-5.95
X4.7813Y-4.8451
X4.8213Y-6.1125
X4.885Y-0.2884
X4.89Y-5.04
X4.94Y-5.55
X4.9419Y-5.1004
X4.9419Y-5.9862
X4.9446Y-6.1825
X5.04Y-5.02
X5.0513Y-0.7025
X5.0513Y-6.3225
X5.0513Y-6.8825
X5.0613Y-1.3725
X5.0613Y-1.6625
X5.0613Y-2.7091
X5.0613Y-2.9759
X5.0613Y-6.6125
X5.0813Y-6.2925
X5.1313Y-1.18
X5.1313Y-1.8225
X5.1313Y-2.5325
X5.1313Y-3.2825
X5.1613Y-1.9325
X5.19Y-4.99
X5.25Y-5.85
X5.29Y-5.91
T2
X4.3744Y-4.7634
X4.4744Y-4.7634
X4.5744Y-4.7634
X4.6744Y-4.7634
X4.7744Y-4.7634
X4.8744Y-4.7634
X4.9744Y-4.7634
X5.0744Y-4.7634
T3
X4.4291Y-0.2543
X4.4291Y-0.3543
X4.4291Y-0.4543
X4.5244Y-1.1362
X4.5244Y-1.8756
X4.5244Y-2.4748
X4.5244Y-3.2142
X4.5244Y-6.3823
X4.5244Y-7.1217
X4.6244Y-1.1362
X4.6244Y-1.8756
X4.6244Y-2.4748
X4.6244Y-3.2142
X4.6244Y-6.3823
X4.6244Y-7.1217
X4.7244Y-1.1362
X4.7244Y-1.8756
X4.7244Y-2.4748
X4.7244Y-3.2142
X4.7244Y-6.3823
X4.7244Y-7.1217
X4.8244Y-1.1362
X4.8244Y-1.8756
X4.8244Y-2.4748
X4.8244Y-3.2142
X4.8244Y-6.3823
X4.8244Y-7.1217
X4.9244Y-1.1362
X4.9244Y-1.8756
X4.9244Y-2.4748
X4.9244Y-3.2142
X4.9244Y-6.3823
X4.9244Y-7.1217
X5.Y-0.2543
X5.Y-0.4543
T4
X4.7244Y-0.1299
X4.7244Y-0.5787
T5
X4.0945Y-0.1575
X4.0945Y-7.0472
X5.1575Y-0.9055
T0
M30
