G04 #@! TF.FileFunction,Legend,Bot*
%FSLAX46Y46*%
G04 Gerber Fmt 4.6, Leading zero omitted, Abs format (unit mm)*
G04 Created by KiCad (PCBNEW 4.0.4+e1-6308~48~ubuntu14.04.1-stable) date Thu Sep  7 12:28:42 2017*
%MOMM*%
%LPD*%
G01*
G04 APERTURE LIST*
%ADD10C,0.100000*%
%ADD11C,0.150000*%
G04 APERTURE END LIST*
D10*
D11*
X113134000Y-146114000D02*
X112554000Y-146114000D01*
X112554000Y-146114000D02*
X112554000Y-141034000D01*
X112554000Y-141034000D02*
X113134000Y-141034000D01*
X113134000Y-157664000D02*
X113134000Y-129484000D01*
X113134000Y-129484000D02*
X122134000Y-129484000D01*
X122134000Y-129484000D02*
X122134000Y-157664000D01*
X122134000Y-157664000D02*
X113134000Y-157664000D01*
X111905000Y-124616000D02*
X111905000Y-123416000D01*
X110155000Y-123416000D02*
X110155000Y-124616000D01*
X114445000Y-124616000D02*
X114445000Y-123416000D01*
X112695000Y-123416000D02*
X112695000Y-124616000D01*
X119779000Y-124616000D02*
X119779000Y-123416000D01*
X118029000Y-123416000D02*
X118029000Y-124616000D01*
X122319000Y-124616000D02*
X122319000Y-123416000D01*
X120569000Y-123416000D02*
X120569000Y-124616000D01*
X107636000Y-125653000D02*
X108836000Y-125653000D01*
X108836000Y-123903000D02*
X107636000Y-123903000D01*
X114445000Y-128680000D02*
X114445000Y-127480000D01*
X112695000Y-127480000D02*
X112695000Y-128680000D01*
X110053381Y-43838905D02*
X109053381Y-43838905D01*
X109053381Y-44077000D01*
X109101000Y-44219858D01*
X109196238Y-44315096D01*
X109291476Y-44362715D01*
X109481952Y-44410334D01*
X109624810Y-44410334D01*
X109815286Y-44362715D01*
X109910524Y-44315096D01*
X110005762Y-44219858D01*
X110053381Y-44077000D01*
X110053381Y-43838905D01*
X110053381Y-45362715D02*
X110053381Y-44791286D01*
X110053381Y-45077000D02*
X109053381Y-45077000D01*
X109196238Y-44981762D01*
X109291476Y-44886524D01*
X109339095Y-44791286D01*
X115238095Y-51252381D02*
X115238095Y-50252381D01*
X115000000Y-50252381D01*
X114857142Y-50300000D01*
X114761904Y-50395238D01*
X114714285Y-50490476D01*
X114666666Y-50680952D01*
X114666666Y-50823810D01*
X114714285Y-51014286D01*
X114761904Y-51109524D01*
X114857142Y-51204762D01*
X115000000Y-51252381D01*
X115238095Y-51252381D01*
X114285714Y-50347619D02*
X114238095Y-50300000D01*
X114142857Y-50252381D01*
X113904761Y-50252381D01*
X113809523Y-50300000D01*
X113761904Y-50347619D01*
X113714285Y-50442857D01*
X113714285Y-50538095D01*
X113761904Y-50680952D01*
X114333333Y-51252381D01*
X113714285Y-51252381D01*
X130881381Y-43330905D02*
X129881381Y-43330905D01*
X129881381Y-43569000D01*
X129929000Y-43711858D01*
X130024238Y-43807096D01*
X130119476Y-43854715D01*
X130309952Y-43902334D01*
X130452810Y-43902334D01*
X130643286Y-43854715D01*
X130738524Y-43807096D01*
X130833762Y-43711858D01*
X130881381Y-43569000D01*
X130881381Y-43330905D01*
X129881381Y-44235667D02*
X129881381Y-44854715D01*
X130262333Y-44521381D01*
X130262333Y-44664239D01*
X130309952Y-44759477D01*
X130357571Y-44807096D01*
X130452810Y-44854715D01*
X130690905Y-44854715D01*
X130786143Y-44807096D01*
X130833762Y-44759477D01*
X130881381Y-44664239D01*
X130881381Y-44378524D01*
X130833762Y-44283286D01*
X130786143Y-44235667D01*
X131135381Y-165377905D02*
X130135381Y-165377905D01*
X130135381Y-165616000D01*
X130183000Y-165758858D01*
X130278238Y-165854096D01*
X130373476Y-165901715D01*
X130563952Y-165949334D01*
X130706810Y-165949334D01*
X130897286Y-165901715D01*
X130992524Y-165854096D01*
X131087762Y-165758858D01*
X131135381Y-165616000D01*
X131135381Y-165377905D01*
X130468714Y-166806477D02*
X131135381Y-166806477D01*
X130087762Y-166568381D02*
X130802048Y-166330286D01*
X130802048Y-166949334D01*
X109926381Y-164869905D02*
X108926381Y-164869905D01*
X108926381Y-165108000D01*
X108974000Y-165250858D01*
X109069238Y-165346096D01*
X109164476Y-165393715D01*
X109354952Y-165441334D01*
X109497810Y-165441334D01*
X109688286Y-165393715D01*
X109783524Y-165346096D01*
X109878762Y-165250858D01*
X109926381Y-165108000D01*
X109926381Y-164869905D01*
X108926381Y-166298477D02*
X108926381Y-166108000D01*
X108974000Y-166012762D01*
X109021619Y-165965143D01*
X109164476Y-165869905D01*
X109354952Y-165822286D01*
X109735905Y-165822286D01*
X109831143Y-165869905D01*
X109878762Y-165917524D01*
X109926381Y-166012762D01*
X109926381Y-166203239D01*
X109878762Y-166298477D01*
X109831143Y-166346096D01*
X109735905Y-166393715D01*
X109497810Y-166393715D01*
X109402571Y-166346096D01*
X109354952Y-166298477D01*
X109307333Y-166203239D01*
X109307333Y-166012762D01*
X109354952Y-165917524D01*
X109402571Y-165869905D01*
X109497810Y-165822286D01*
X118150095Y-13247381D02*
X118150095Y-12247381D01*
X117912000Y-12247381D01*
X117769142Y-12295000D01*
X117673904Y-12390238D01*
X117626285Y-12485476D01*
X117578666Y-12675952D01*
X117578666Y-12818810D01*
X117626285Y-13009286D01*
X117673904Y-13104524D01*
X117769142Y-13199762D01*
X117912000Y-13247381D01*
X118150095Y-13247381D01*
X117245333Y-12247381D02*
X116578666Y-12247381D01*
X117007238Y-13247381D01*
X118023095Y-5881381D02*
X118023095Y-4881381D01*
X117785000Y-4881381D01*
X117642142Y-4929000D01*
X117546904Y-5024238D01*
X117499285Y-5119476D01*
X117451666Y-5309952D01*
X117451666Y-5452810D01*
X117499285Y-5643286D01*
X117546904Y-5738524D01*
X117642142Y-5833762D01*
X117785000Y-5881381D01*
X118023095Y-5881381D01*
X116880238Y-5309952D02*
X116975476Y-5262333D01*
X117023095Y-5214714D01*
X117070714Y-5119476D01*
X117070714Y-5071857D01*
X117023095Y-4976619D01*
X116975476Y-4929000D01*
X116880238Y-4881381D01*
X116689761Y-4881381D01*
X116594523Y-4929000D01*
X116546904Y-4976619D01*
X116499285Y-5071857D01*
X116499285Y-5119476D01*
X116546904Y-5214714D01*
X116594523Y-5262333D01*
X116689761Y-5309952D01*
X116880238Y-5309952D01*
X116975476Y-5357571D01*
X117023095Y-5405190D01*
X117070714Y-5500429D01*
X117070714Y-5690905D01*
X117023095Y-5786143D01*
X116975476Y-5833762D01*
X116880238Y-5881381D01*
X116689761Y-5881381D01*
X116594523Y-5833762D01*
X116546904Y-5786143D01*
X116499285Y-5690905D01*
X116499285Y-5500429D01*
X116546904Y-5405190D01*
X116594523Y-5357571D01*
X116689761Y-5309952D01*
X122817381Y-8754905D02*
X121817381Y-8754905D01*
X121817381Y-8993000D01*
X121865000Y-9135858D01*
X121960238Y-9231096D01*
X122055476Y-9278715D01*
X122245952Y-9326334D01*
X122388810Y-9326334D01*
X122579286Y-9278715D01*
X122674524Y-9231096D01*
X122769762Y-9135858D01*
X122817381Y-8993000D01*
X122817381Y-8754905D01*
X122817381Y-9802524D02*
X122817381Y-9993000D01*
X122769762Y-10088239D01*
X122722143Y-10135858D01*
X122579286Y-10231096D01*
X122388810Y-10278715D01*
X122007857Y-10278715D01*
X121912619Y-10231096D01*
X121865000Y-10183477D01*
X121817381Y-10088239D01*
X121817381Y-9897762D01*
X121865000Y-9802524D01*
X121912619Y-9754905D01*
X122007857Y-9707286D01*
X122245952Y-9707286D01*
X122341190Y-9754905D01*
X122388810Y-9802524D01*
X122436429Y-9897762D01*
X122436429Y-10088239D01*
X122388810Y-10183477D01*
X122341190Y-10231096D01*
X122245952Y-10278715D01*
X110053381Y-76763714D02*
X109053381Y-76763714D01*
X109053381Y-77001809D01*
X109101000Y-77144667D01*
X109196238Y-77239905D01*
X109291476Y-77287524D01*
X109481952Y-77335143D01*
X109624810Y-77335143D01*
X109815286Y-77287524D01*
X109910524Y-77239905D01*
X110005762Y-77144667D01*
X110053381Y-77001809D01*
X110053381Y-76763714D01*
X110053381Y-78287524D02*
X110053381Y-77716095D01*
X110053381Y-78001809D02*
X109053381Y-78001809D01*
X109196238Y-77906571D01*
X109291476Y-77811333D01*
X109339095Y-77716095D01*
X109053381Y-78906571D02*
X109053381Y-79001810D01*
X109101000Y-79097048D01*
X109148619Y-79144667D01*
X109243857Y-79192286D01*
X109434333Y-79239905D01*
X109672429Y-79239905D01*
X109862905Y-79192286D01*
X109958143Y-79144667D01*
X110005762Y-79097048D01*
X110053381Y-79001810D01*
X110053381Y-78906571D01*
X110005762Y-78811333D01*
X109958143Y-78763714D01*
X109862905Y-78716095D01*
X109672429Y-78668476D01*
X109434333Y-78668476D01*
X109243857Y-78716095D01*
X109148619Y-78763714D01*
X109101000Y-78811333D01*
X109053381Y-78906571D01*
X124912286Y-85288381D02*
X124912286Y-84288381D01*
X124674191Y-84288381D01*
X124531333Y-84336000D01*
X124436095Y-84431238D01*
X124388476Y-84526476D01*
X124340857Y-84716952D01*
X124340857Y-84859810D01*
X124388476Y-85050286D01*
X124436095Y-85145524D01*
X124531333Y-85240762D01*
X124674191Y-85288381D01*
X124912286Y-85288381D01*
X123388476Y-85288381D02*
X123959905Y-85288381D01*
X123674191Y-85288381D02*
X123674191Y-84288381D01*
X123769429Y-84431238D01*
X123864667Y-84526476D01*
X123959905Y-84574095D01*
X122436095Y-85288381D02*
X123007524Y-85288381D01*
X122721810Y-85288381D02*
X122721810Y-84288381D01*
X122817048Y-84431238D01*
X122912286Y-84526476D01*
X123007524Y-84574095D01*
X131008381Y-76763714D02*
X130008381Y-76763714D01*
X130008381Y-77001809D01*
X130056000Y-77144667D01*
X130151238Y-77239905D01*
X130246476Y-77287524D01*
X130436952Y-77335143D01*
X130579810Y-77335143D01*
X130770286Y-77287524D01*
X130865524Y-77239905D01*
X130960762Y-77144667D01*
X131008381Y-77001809D01*
X131008381Y-76763714D01*
X131008381Y-78287524D02*
X131008381Y-77716095D01*
X131008381Y-78001809D02*
X130008381Y-78001809D01*
X130151238Y-77906571D01*
X130246476Y-77811333D01*
X130294095Y-77716095D01*
X130103619Y-78668476D02*
X130056000Y-78716095D01*
X130008381Y-78811333D01*
X130008381Y-79049429D01*
X130056000Y-79144667D01*
X130103619Y-79192286D01*
X130198857Y-79239905D01*
X130294095Y-79239905D01*
X130436952Y-79192286D01*
X131008381Y-78620857D01*
X131008381Y-79239905D01*
X130881381Y-175950714D02*
X129881381Y-175950714D01*
X129881381Y-176188809D01*
X129929000Y-176331667D01*
X130024238Y-176426905D01*
X130119476Y-176474524D01*
X130309952Y-176522143D01*
X130452810Y-176522143D01*
X130643286Y-176474524D01*
X130738524Y-176426905D01*
X130833762Y-176331667D01*
X130881381Y-176188809D01*
X130881381Y-175950714D01*
X130881381Y-177474524D02*
X130881381Y-176903095D01*
X130881381Y-177188809D02*
X129881381Y-177188809D01*
X130024238Y-177093571D01*
X130119476Y-176998333D01*
X130167095Y-176903095D01*
X129881381Y-178331667D02*
X129881381Y-178141190D01*
X129929000Y-178045952D01*
X129976619Y-177998333D01*
X130119476Y-177903095D01*
X130309952Y-177855476D01*
X130690905Y-177855476D01*
X130786143Y-177903095D01*
X130833762Y-177950714D01*
X130881381Y-178045952D01*
X130881381Y-178236429D01*
X130833762Y-178331667D01*
X130786143Y-178379286D01*
X130690905Y-178426905D01*
X130452810Y-178426905D01*
X130357571Y-178379286D01*
X130309952Y-178331667D01*
X130262333Y-178236429D01*
X130262333Y-178045952D01*
X130309952Y-177950714D01*
X130357571Y-177903095D01*
X130452810Y-177855476D01*
X109926381Y-175823714D02*
X108926381Y-175823714D01*
X108926381Y-176061809D01*
X108974000Y-176204667D01*
X109069238Y-176299905D01*
X109164476Y-176347524D01*
X109354952Y-176395143D01*
X109497810Y-176395143D01*
X109688286Y-176347524D01*
X109783524Y-176299905D01*
X109878762Y-176204667D01*
X109926381Y-176061809D01*
X109926381Y-175823714D01*
X109926381Y-177347524D02*
X109926381Y-176776095D01*
X109926381Y-177061809D02*
X108926381Y-177061809D01*
X109069238Y-176966571D01*
X109164476Y-176871333D01*
X109212095Y-176776095D01*
X108926381Y-177680857D02*
X108926381Y-178347524D01*
X109926381Y-177918952D01*
X110053381Y-31297714D02*
X109053381Y-31297714D01*
X109053381Y-31535809D01*
X109101000Y-31678667D01*
X109196238Y-31773905D01*
X109291476Y-31821524D01*
X109481952Y-31869143D01*
X109624810Y-31869143D01*
X109815286Y-31821524D01*
X109910524Y-31773905D01*
X110005762Y-31678667D01*
X110053381Y-31535809D01*
X110053381Y-31297714D01*
X110053381Y-32821524D02*
X110053381Y-32250095D01*
X110053381Y-32535809D02*
X109053381Y-32535809D01*
X109196238Y-32440571D01*
X109291476Y-32345333D01*
X109339095Y-32250095D01*
X109481952Y-33392952D02*
X109434333Y-33297714D01*
X109386714Y-33250095D01*
X109291476Y-33202476D01*
X109243857Y-33202476D01*
X109148619Y-33250095D01*
X109101000Y-33297714D01*
X109053381Y-33392952D01*
X109053381Y-33583429D01*
X109101000Y-33678667D01*
X109148619Y-33726286D01*
X109243857Y-33773905D01*
X109291476Y-33773905D01*
X109386714Y-33726286D01*
X109434333Y-33678667D01*
X109481952Y-33583429D01*
X109481952Y-33392952D01*
X109529571Y-33297714D01*
X109577190Y-33250095D01*
X109672429Y-33202476D01*
X109862905Y-33202476D01*
X109958143Y-33250095D01*
X110005762Y-33297714D01*
X110053381Y-33392952D01*
X110053381Y-33583429D01*
X110005762Y-33678667D01*
X109958143Y-33726286D01*
X109862905Y-33773905D01*
X109672429Y-33773905D01*
X109577190Y-33726286D01*
X109529571Y-33678667D01*
X109481952Y-33583429D01*
X130881381Y-31678714D02*
X129881381Y-31678714D01*
X129881381Y-31916809D01*
X129929000Y-32059667D01*
X130024238Y-32154905D01*
X130119476Y-32202524D01*
X130309952Y-32250143D01*
X130452810Y-32250143D01*
X130643286Y-32202524D01*
X130738524Y-32154905D01*
X130833762Y-32059667D01*
X130881381Y-31916809D01*
X130881381Y-31678714D01*
X130881381Y-33202524D02*
X130881381Y-32631095D01*
X130881381Y-32916809D02*
X129881381Y-32916809D01*
X130024238Y-32821571D01*
X130119476Y-32726333D01*
X130167095Y-32631095D01*
X130881381Y-33678714D02*
X130881381Y-33869190D01*
X130833762Y-33964429D01*
X130786143Y-34012048D01*
X130643286Y-34107286D01*
X130452810Y-34154905D01*
X130071857Y-34154905D01*
X129976619Y-34107286D01*
X129929000Y-34059667D01*
X129881381Y-33964429D01*
X129881381Y-33773952D01*
X129929000Y-33678714D01*
X129976619Y-33631095D01*
X130071857Y-33583476D01*
X130309952Y-33583476D01*
X130405190Y-33631095D01*
X130452810Y-33678714D01*
X130500429Y-33773952D01*
X130500429Y-33964429D01*
X130452810Y-34059667D01*
X130405190Y-34107286D01*
X130309952Y-34154905D01*
X110053381Y-65460714D02*
X109053381Y-65460714D01*
X109053381Y-65698809D01*
X109101000Y-65841667D01*
X109196238Y-65936905D01*
X109291476Y-65984524D01*
X109481952Y-66032143D01*
X109624810Y-66032143D01*
X109815286Y-65984524D01*
X109910524Y-65936905D01*
X110005762Y-65841667D01*
X110053381Y-65698809D01*
X110053381Y-65460714D01*
X109148619Y-66413095D02*
X109101000Y-66460714D01*
X109053381Y-66555952D01*
X109053381Y-66794048D01*
X109101000Y-66889286D01*
X109148619Y-66936905D01*
X109243857Y-66984524D01*
X109339095Y-66984524D01*
X109481952Y-66936905D01*
X110053381Y-66365476D01*
X110053381Y-66984524D01*
X109053381Y-67603571D02*
X109053381Y-67698810D01*
X109101000Y-67794048D01*
X109148619Y-67841667D01*
X109243857Y-67889286D01*
X109434333Y-67936905D01*
X109672429Y-67936905D01*
X109862905Y-67889286D01*
X109958143Y-67841667D01*
X110005762Y-67794048D01*
X110053381Y-67698810D01*
X110053381Y-67603571D01*
X110005762Y-67508333D01*
X109958143Y-67460714D01*
X109862905Y-67413095D01*
X109672429Y-67365476D01*
X109434333Y-67365476D01*
X109243857Y-67413095D01*
X109148619Y-67460714D01*
X109101000Y-67508333D01*
X109053381Y-67603571D01*
X131008381Y-65460714D02*
X130008381Y-65460714D01*
X130008381Y-65698809D01*
X130056000Y-65841667D01*
X130151238Y-65936905D01*
X130246476Y-65984524D01*
X130436952Y-66032143D01*
X130579810Y-66032143D01*
X130770286Y-65984524D01*
X130865524Y-65936905D01*
X130960762Y-65841667D01*
X131008381Y-65698809D01*
X131008381Y-65460714D01*
X130103619Y-66413095D02*
X130056000Y-66460714D01*
X130008381Y-66555952D01*
X130008381Y-66794048D01*
X130056000Y-66889286D01*
X130103619Y-66936905D01*
X130198857Y-66984524D01*
X130294095Y-66984524D01*
X130436952Y-66936905D01*
X131008381Y-66365476D01*
X131008381Y-66984524D01*
X131008381Y-67936905D02*
X131008381Y-67365476D01*
X131008381Y-67651190D02*
X130008381Y-67651190D01*
X130151238Y-67555952D01*
X130246476Y-67460714D01*
X130294095Y-67365476D01*
X117586381Y-142835905D02*
X116586381Y-142835905D01*
X116586381Y-143216858D01*
X116634000Y-143312096D01*
X116681619Y-143359715D01*
X116776857Y-143407334D01*
X116919714Y-143407334D01*
X117014952Y-143359715D01*
X117062571Y-143312096D01*
X117110190Y-143216858D01*
X117110190Y-142835905D01*
X117586381Y-144359715D02*
X117586381Y-143788286D01*
X117586381Y-144074000D02*
X116586381Y-144074000D01*
X116729238Y-143978762D01*
X116824476Y-143883524D01*
X116872095Y-143788286D01*
X109386666Y-121864381D02*
X109720000Y-121388190D01*
X109958095Y-121864381D02*
X109958095Y-120864381D01*
X109577142Y-120864381D01*
X109481904Y-120912000D01*
X109434285Y-120959619D01*
X109386666Y-121054857D01*
X109386666Y-121197714D01*
X109434285Y-121292952D01*
X109481904Y-121340571D01*
X109577142Y-121388190D01*
X109958095Y-121388190D01*
X108434285Y-121864381D02*
X109005714Y-121864381D01*
X108720000Y-121864381D02*
X108720000Y-120864381D01*
X108815238Y-121007238D01*
X108910476Y-121102476D01*
X109005714Y-121150095D01*
X115768381Y-122515334D02*
X115292190Y-122182000D01*
X115768381Y-121943905D02*
X114768381Y-121943905D01*
X114768381Y-122324858D01*
X114816000Y-122420096D01*
X114863619Y-122467715D01*
X114958857Y-122515334D01*
X115101714Y-122515334D01*
X115196952Y-122467715D01*
X115244571Y-122420096D01*
X115292190Y-122324858D01*
X115292190Y-121943905D01*
X114863619Y-122896286D02*
X114816000Y-122943905D01*
X114768381Y-123039143D01*
X114768381Y-123277239D01*
X114816000Y-123372477D01*
X114863619Y-123420096D01*
X114958857Y-123467715D01*
X115054095Y-123467715D01*
X115196952Y-123420096D01*
X115768381Y-122848667D01*
X115768381Y-123467715D01*
X114863619Y-124087095D02*
X114816000Y-124134714D01*
X114768381Y-124229952D01*
X114768381Y-124468048D01*
X114816000Y-124563286D01*
X114863619Y-124610905D01*
X114958857Y-124658524D01*
X115054095Y-124658524D01*
X115196952Y-124610905D01*
X115768381Y-124039476D01*
X115768381Y-124658524D01*
X115768381Y-125087095D02*
X114768381Y-125087095D01*
X115768381Y-125658524D02*
X115196952Y-125229952D01*
X114768381Y-125658524D02*
X115339810Y-125087095D01*
X114863619Y-126039476D02*
X114816000Y-126087095D01*
X114768381Y-126182333D01*
X114768381Y-126420429D01*
X114816000Y-126515667D01*
X114863619Y-126563286D01*
X114958857Y-126610905D01*
X115054095Y-126610905D01*
X115196952Y-126563286D01*
X115768381Y-125991857D01*
X115768381Y-126610905D01*
X117800381Y-122261334D02*
X117324190Y-121928000D01*
X117800381Y-121689905D02*
X116800381Y-121689905D01*
X116800381Y-122070858D01*
X116848000Y-122166096D01*
X116895619Y-122213715D01*
X116990857Y-122261334D01*
X117133714Y-122261334D01*
X117228952Y-122213715D01*
X117276571Y-122166096D01*
X117324190Y-122070858D01*
X117324190Y-121689905D01*
X117133714Y-123118477D02*
X117800381Y-123118477D01*
X116752762Y-122880381D02*
X117467048Y-122642286D01*
X117467048Y-123261334D01*
X121578666Y-126817381D02*
X121912000Y-126341190D01*
X122150095Y-126817381D02*
X122150095Y-125817381D01*
X121769142Y-125817381D01*
X121673904Y-125865000D01*
X121626285Y-125912619D01*
X121578666Y-126007857D01*
X121578666Y-126150714D01*
X121626285Y-126245952D01*
X121673904Y-126293571D01*
X121769142Y-126341190D01*
X122150095Y-126341190D01*
X120721523Y-125817381D02*
X120912000Y-125817381D01*
X121007238Y-125865000D01*
X121054857Y-125912619D01*
X121150095Y-126055476D01*
X121197714Y-126245952D01*
X121197714Y-126626905D01*
X121150095Y-126722143D01*
X121102476Y-126769762D01*
X121007238Y-126817381D01*
X120816761Y-126817381D01*
X120721523Y-126769762D01*
X120673904Y-126722143D01*
X120626285Y-126626905D01*
X120626285Y-126388810D01*
X120673904Y-126293571D01*
X120721523Y-126245952D01*
X120816761Y-126198333D01*
X121007238Y-126198333D01*
X121102476Y-126245952D01*
X121150095Y-126293571D01*
X121197714Y-126388810D01*
X122102476Y-127420714D02*
X122102476Y-128087381D01*
X122340572Y-127039762D02*
X122578667Y-127754048D01*
X121959619Y-127754048D01*
X121578667Y-128087381D02*
X121578667Y-127087381D01*
X121483429Y-127706429D02*
X121197714Y-128087381D01*
X121197714Y-127420714D02*
X121578667Y-127801667D01*
X120864381Y-127087381D02*
X120245333Y-127087381D01*
X120578667Y-127468333D01*
X120435809Y-127468333D01*
X120340571Y-127515952D01*
X120292952Y-127563571D01*
X120245333Y-127658810D01*
X120245333Y-127896905D01*
X120292952Y-127992143D01*
X120340571Y-128039762D01*
X120435809Y-128087381D01*
X120721524Y-128087381D01*
X120816762Y-128039762D01*
X120864381Y-127992143D01*
X108307166Y-127134881D02*
X108640500Y-126658690D01*
X108878595Y-127134881D02*
X108878595Y-126134881D01*
X108497642Y-126134881D01*
X108402404Y-126182500D01*
X108354785Y-126230119D01*
X108307166Y-126325357D01*
X108307166Y-126468214D01*
X108354785Y-126563452D01*
X108402404Y-126611071D01*
X108497642Y-126658690D01*
X108878595Y-126658690D01*
X107973833Y-126134881D02*
X107307166Y-126134881D01*
X107735738Y-127134881D01*
X112339381Y-127849334D02*
X111863190Y-127516000D01*
X112339381Y-127277905D02*
X111339381Y-127277905D01*
X111339381Y-127658858D01*
X111387000Y-127754096D01*
X111434619Y-127801715D01*
X111529857Y-127849334D01*
X111672714Y-127849334D01*
X111767952Y-127801715D01*
X111815571Y-127754096D01*
X111863190Y-127658858D01*
X111863190Y-127277905D01*
X111767952Y-128420762D02*
X111720333Y-128325524D01*
X111672714Y-128277905D01*
X111577476Y-128230286D01*
X111529857Y-128230286D01*
X111434619Y-128277905D01*
X111387000Y-128325524D01*
X111339381Y-128420762D01*
X111339381Y-128611239D01*
X111387000Y-128706477D01*
X111434619Y-128754096D01*
X111529857Y-128801715D01*
X111577476Y-128801715D01*
X111672714Y-128754096D01*
X111720333Y-128706477D01*
X111767952Y-128611239D01*
X111767952Y-128420762D01*
X111815571Y-128325524D01*
X111863190Y-128277905D01*
X111958429Y-128230286D01*
X112148905Y-128230286D01*
X112244143Y-128277905D01*
X112291762Y-128325524D01*
X112339381Y-128420762D01*
X112339381Y-128611239D01*
X112291762Y-128706477D01*
X112244143Y-128754096D01*
X112148905Y-128801715D01*
X111958429Y-128801715D01*
X111863190Y-128754096D01*
X111815571Y-128706477D01*
X111767952Y-128611239D01*
X115101714Y-127833524D02*
X115768381Y-127833524D01*
X114720762Y-127595428D02*
X115435048Y-127357333D01*
X115435048Y-127976381D01*
X115768381Y-128357333D02*
X114768381Y-128357333D01*
X115387429Y-128452571D02*
X115768381Y-128738286D01*
X115101714Y-128738286D02*
X115482667Y-128357333D01*
X114768381Y-129071619D02*
X114768381Y-129690667D01*
X115149333Y-129357333D01*
X115149333Y-129500191D01*
X115196952Y-129595429D01*
X115244571Y-129643048D01*
X115339810Y-129690667D01*
X115577905Y-129690667D01*
X115673143Y-129643048D01*
X115720762Y-129595429D01*
X115768381Y-129500191D01*
X115768381Y-129214476D01*
X115720762Y-129119238D01*
X115673143Y-129071619D01*
X126690381Y-124007714D02*
X125690381Y-124007714D01*
X125690381Y-124245809D01*
X125738000Y-124388667D01*
X125833238Y-124483905D01*
X125928476Y-124531524D01*
X126118952Y-124579143D01*
X126261810Y-124579143D01*
X126452286Y-124531524D01*
X126547524Y-124483905D01*
X126642762Y-124388667D01*
X126690381Y-124245809D01*
X126690381Y-124007714D01*
X125785619Y-124960095D02*
X125738000Y-125007714D01*
X125690381Y-125102952D01*
X125690381Y-125341048D01*
X125738000Y-125436286D01*
X125785619Y-125483905D01*
X125880857Y-125531524D01*
X125976095Y-125531524D01*
X126118952Y-125483905D01*
X126690381Y-124912476D01*
X126690381Y-125531524D01*
X125690381Y-126436286D02*
X125690381Y-125960095D01*
X126166571Y-125912476D01*
X126118952Y-125960095D01*
X126071333Y-126055333D01*
X126071333Y-126293429D01*
X126118952Y-126388667D01*
X126166571Y-126436286D01*
X126261810Y-126483905D01*
X126499905Y-126483905D01*
X126595143Y-126436286D01*
X126642762Y-126388667D01*
X126690381Y-126293429D01*
X126690381Y-126055333D01*
X126642762Y-125960095D01*
X126595143Y-125912476D01*
X114434786Y-22804381D02*
X114434786Y-21804381D01*
X114196691Y-21804381D01*
X114053833Y-21852000D01*
X113958595Y-21947238D01*
X113910976Y-22042476D01*
X113863357Y-22232952D01*
X113863357Y-22375810D01*
X113910976Y-22566286D01*
X113958595Y-22661524D01*
X114053833Y-22756762D01*
X114196691Y-22804381D01*
X114434786Y-22804381D01*
X113482405Y-21899619D02*
X113434786Y-21852000D01*
X113339548Y-21804381D01*
X113101452Y-21804381D01*
X113006214Y-21852000D01*
X112958595Y-21899619D01*
X112910976Y-21994857D01*
X112910976Y-22090095D01*
X112958595Y-22232952D01*
X113530024Y-22804381D01*
X112910976Y-22804381D01*
X112053833Y-21804381D02*
X112244310Y-21804381D01*
X112339548Y-21852000D01*
X112387167Y-21899619D01*
X112482405Y-22042476D01*
X112530024Y-22232952D01*
X112530024Y-22613905D01*
X112482405Y-22709143D01*
X112434786Y-22756762D01*
X112339548Y-22804381D01*
X112149071Y-22804381D01*
X112053833Y-22756762D01*
X112006214Y-22709143D01*
X111958595Y-22613905D01*
X111958595Y-22375810D01*
X112006214Y-22280571D01*
X112053833Y-22232952D01*
X112149071Y-22185333D01*
X112339548Y-22185333D01*
X112434786Y-22232952D01*
X112482405Y-22280571D01*
X112530024Y-22375810D01*
M02*
