G04 #@! TF.FileFunction,Copper,L1,Top,Signal*
%FSLAX46Y46*%
G04 Gerber Fmt 4.6, Leading zero omitted, Abs format (unit mm)*
G04 Created by KiCad (PCBNEW 4.0.4+e1-6308~48~ubuntu14.04.1-stable) date Thu Sep  7 12:28:42 2017*
%MOMM*%
%LPD*%
G01*
G04 APERTURE LIST*
%ADD10C,0.100000*%
%ADD11C,4.000000*%
%ADD12C,1.500000*%
%ADD13R,1.500000X1.500000*%
%ADD14C,1.300000*%
%ADD15R,1.800000X2.000000*%
%ADD16R,2.000000X1.800000*%
%ADD17R,1.300000X0.700000*%
%ADD18R,0.650000X0.700000*%
%ADD19C,7.000000*%
%ADD20C,0.600000*%
%ADD21C,0.250000*%
%ADD22C,0.254000*%
G04 APERTURE END LIST*
D10*
D11*
X120000000Y-14700000D03*
D12*
X127000000Y-6460000D03*
X112500000Y-11540000D03*
X112500000Y-9000000D03*
X112500000Y-6460000D03*
X127000000Y-11540000D03*
D11*
X120000000Y-3300000D03*
D12*
X114920000Y-62860000D03*
X117460000Y-62860000D03*
X120000000Y-62860000D03*
X122540000Y-62860000D03*
X125080000Y-62860000D03*
D13*
X114920000Y-81640000D03*
D12*
X117460000Y-81640000D03*
X125080000Y-81640000D03*
X122540000Y-81640000D03*
X120000000Y-81640000D03*
X114920000Y-28860000D03*
X117460000Y-28860000D03*
X120000000Y-28860000D03*
X122540000Y-28860000D03*
X125080000Y-28860000D03*
D13*
X114920000Y-47640000D03*
D12*
X117460000Y-47640000D03*
X125080000Y-47640000D03*
X122540000Y-47640000D03*
X120000000Y-47640000D03*
D14*
X128890000Y-120990000D03*
X126350000Y-120990000D03*
X123810000Y-120990000D03*
X121270000Y-120990000D03*
X118730000Y-120990000D03*
X116190000Y-120990000D03*
X113650000Y-120990000D03*
X111110000Y-120990000D03*
D15*
X122460000Y-154836000D03*
D16*
X122460000Y-159236000D03*
X110436000Y-134684000D03*
D15*
X106036000Y-134684000D03*
D16*
X110436000Y-146114000D03*
D15*
X106036000Y-146114000D03*
D16*
X110436000Y-157036000D03*
D15*
X106036000Y-157036000D03*
D16*
X124832000Y-134684000D03*
D15*
X129232000Y-134684000D03*
D16*
X125086000Y-145860000D03*
D15*
X129486000Y-145860000D03*
D16*
X125594000Y-157036000D03*
D15*
X129994000Y-157036000D03*
D17*
X118904000Y-124966000D03*
X118904000Y-123066000D03*
X121444000Y-124966000D03*
X121444000Y-123066000D03*
D12*
X125080000Y-180890000D03*
X122540000Y-180890000D03*
X120000000Y-180890000D03*
X117460000Y-180890000D03*
X114920000Y-180890000D03*
D13*
X125080000Y-162110000D03*
D12*
X122540000Y-162110000D03*
X114920000Y-162110000D03*
X117460000Y-162110000D03*
X120000000Y-162110000D03*
D18*
X113475000Y-18550000D03*
X113475000Y-20450000D03*
X110525000Y-18550000D03*
X110525000Y-20450000D03*
X109475000Y-129550000D03*
X109475000Y-131450000D03*
X106525000Y-129550000D03*
X106525000Y-131450000D03*
X109475000Y-140800000D03*
X109475000Y-142700000D03*
X106525000Y-140800000D03*
X106525000Y-142700000D03*
X109475000Y-152050000D03*
X109475000Y-153950000D03*
X106525000Y-152050000D03*
X106525000Y-153950000D03*
X125525000Y-131450000D03*
X125525000Y-129550000D03*
X128475000Y-131450000D03*
X128475000Y-129550000D03*
X125525000Y-142700000D03*
X125525000Y-140800000D03*
X128475000Y-142700000D03*
X128475000Y-140800000D03*
X125525000Y-153950000D03*
X125525000Y-152050000D03*
X128475000Y-153950000D03*
X128475000Y-152050000D03*
D19*
X104000000Y-179000000D03*
X104000000Y-4000000D03*
X131000000Y-23000000D03*
D20*
X128016000Y-127508000D03*
X118618000Y-126238000D03*
X119412000Y-144844000D03*
X125525000Y-129550000D03*
X125476000Y-140970000D03*
X125525000Y-152050000D03*
X110490000Y-141732000D03*
X109474000Y-152146000D03*
X116364000Y-130620000D03*
X121094000Y-148654000D03*
X133350000Y-148590000D03*
X130334000Y-46292000D03*
X130334000Y-64326000D03*
X130334000Y-83376000D03*
X130334000Y-29972000D03*
X117348000Y-17780000D03*
X121412000Y-151130000D03*
X134366000Y-150114000D03*
X128302000Y-17844000D03*
X131096000Y-49086000D03*
X131826000Y-126746000D03*
X111284000Y-137732000D03*
X128302000Y-174816000D03*
X129064000Y-159830000D03*
X111538000Y-158814000D03*
X108998000Y-30544000D03*
X128556000Y-34862000D03*
X125594000Y-157036000D03*
X113062000Y-157036000D03*
X114174000Y-138494000D03*
X111538000Y-174816000D03*
X128556000Y-42228000D03*
X108236000Y-46038000D03*
X121104000Y-84392000D03*
X108236000Y-84392000D03*
X122460000Y-155258000D03*
X114174000Y-141034000D03*
X110522000Y-157036000D03*
X113316000Y-155512000D03*
X111538000Y-42228000D03*
X108236000Y-42482000D03*
X111538000Y-68812000D03*
X107474000Y-68898000D03*
X114174000Y-143574000D03*
X111538000Y-167958000D03*
X115602000Y-143574000D03*
X128556000Y-68812000D03*
X110436000Y-146114000D03*
X114840000Y-146622000D03*
X128556000Y-167958000D03*
X128302000Y-160592000D03*
X115348000Y-160592000D03*
X106712000Y-64834000D03*
X124079000Y-7325000D03*
X112522000Y-15367000D03*
X128556000Y-75588000D03*
X105950000Y-80328000D03*
X102394000Y-136970000D03*
X119675000Y-7366000D03*
X112522000Y-14351000D03*
X111538000Y-75588000D03*
X105156000Y-75692000D03*
X101632000Y-136208000D03*
X124206000Y-128016000D03*
X121104000Y-50102000D03*
X104394000Y-50292000D03*
X100838000Y-127762000D03*
X118904000Y-123066000D03*
X121444000Y-123066000D03*
X113824000Y-125032000D03*
X117380000Y-125794000D03*
X111030000Y-125032000D03*
X116872000Y-126810000D03*
X111020500Y-24892000D03*
D21*
X101000000Y-138000000D02*
X101000000Y-135000000D01*
X121920000Y-127254000D02*
X127762000Y-127254000D01*
X127762000Y-127254000D02*
X128016000Y-127508000D01*
X119634000Y-127254000D02*
X121920000Y-127254000D01*
X121920000Y-127254000D02*
X122174000Y-127254000D01*
X118618000Y-126238000D02*
X119634000Y-127254000D01*
X120000000Y-162110000D02*
X120000000Y-163212000D01*
X124042000Y-179388000D02*
X122540000Y-180890000D01*
X126778000Y-179388000D02*
X124042000Y-179388000D01*
X127286000Y-178880000D02*
X126778000Y-179388000D01*
X127286000Y-164148000D02*
X127286000Y-178880000D01*
X127032000Y-163894000D02*
X127286000Y-164148000D01*
X120682000Y-163894000D02*
X127032000Y-163894000D01*
X120000000Y-163212000D02*
X120682000Y-163894000D01*
X120000000Y-162110000D02*
X117460000Y-162110000D01*
X119412000Y-144844000D02*
X120000000Y-145432000D01*
X120000000Y-145432000D02*
X120000000Y-162110000D01*
X124575000Y-130500000D02*
X125525000Y-129550000D01*
X124460000Y-130500000D02*
X124575000Y-130500000D01*
X125476000Y-140970000D02*
X125525000Y-140921000D01*
X125525000Y-140921000D02*
X125525000Y-140800000D01*
X110490000Y-141732000D02*
X109558000Y-140800000D01*
X109558000Y-140800000D02*
X109475000Y-140800000D01*
X109475000Y-129550000D02*
X109484000Y-129550000D01*
X109484000Y-129550000D02*
X110554000Y-130620000D01*
X110554000Y-130620000D02*
X116364000Y-130620000D01*
X109474000Y-152146000D02*
X109475000Y-152145000D01*
X109475000Y-152145000D02*
X109475000Y-152050000D01*
X109500000Y-152000000D02*
X109475000Y-152025000D01*
X109475000Y-152025000D02*
X109475000Y-152050000D01*
X116484000Y-130500000D02*
X124460000Y-130500000D01*
X116364000Y-130620000D02*
X116484000Y-130500000D01*
X121158000Y-148590000D02*
X133350000Y-148590000D01*
X121158000Y-148590000D02*
X121094000Y-148654000D01*
X121190000Y-46292000D02*
X120000000Y-47482000D01*
X130334000Y-46292000D02*
X121190000Y-46292000D01*
X120000000Y-47482000D02*
X120000000Y-47640000D01*
X117460000Y-62860000D02*
X117460000Y-63136000D01*
X117460000Y-63136000D02*
X118650000Y-64326000D01*
X118650000Y-64326000D02*
X130334000Y-64326000D01*
X122540000Y-81640000D02*
X122540000Y-82694000D01*
X123222000Y-83376000D02*
X130334000Y-83376000D01*
X122540000Y-82694000D02*
X123222000Y-83376000D01*
X120000000Y-81640000D02*
X122540000Y-81640000D01*
X113475000Y-20450000D02*
X113758000Y-20450000D01*
X113758000Y-20450000D02*
X115094000Y-19114000D01*
X129032000Y-30036000D02*
X129032000Y-29972000D01*
X129032000Y-29972000D02*
X130334000Y-29972000D01*
X117348000Y-17780000D02*
X117348000Y-17844000D01*
X117348000Y-17844000D02*
X117348000Y-17780000D01*
X117348000Y-17780000D02*
X117348000Y-17844000D01*
X112500000Y-9000000D02*
X111523000Y-9000000D01*
X115062000Y-18288000D02*
X115094000Y-18288000D01*
X115062000Y-17272000D02*
X115062000Y-18288000D01*
X114427000Y-16637000D02*
X115062000Y-17272000D01*
X112141000Y-16637000D02*
X114427000Y-16637000D01*
X110744000Y-15240000D02*
X112141000Y-16637000D01*
X110744000Y-9779000D02*
X110744000Y-15240000D01*
X111523000Y-9000000D02*
X110744000Y-9779000D01*
X122174000Y-150368000D02*
X121412000Y-151130000D01*
X134112000Y-150368000D02*
X122174000Y-150368000D01*
X134366000Y-150114000D02*
X134112000Y-150368000D01*
X120000000Y-17844000D02*
X119920000Y-17844000D01*
X115348000Y-17844000D02*
X117348000Y-17844000D01*
X117348000Y-17844000D02*
X119920000Y-17844000D01*
X119920000Y-17844000D02*
X128302000Y-17844000D01*
X115094000Y-18098000D02*
X115348000Y-17844000D01*
X115094000Y-19114000D02*
X115094000Y-18288000D01*
X115094000Y-18288000D02*
X115094000Y-18098000D01*
X117460000Y-28860000D02*
X118636000Y-30036000D01*
X129032000Y-30036000D02*
X118636000Y-30036000D01*
X123476000Y-49086000D02*
X122540000Y-48150000D01*
X131096000Y-49086000D02*
X123476000Y-49086000D01*
X122540000Y-48150000D02*
X122540000Y-47640000D01*
X118904000Y-124966000D02*
X121444000Y-124966000D01*
X118904000Y-124966000D02*
X118904000Y-125254000D01*
X118904000Y-125254000D02*
X120396000Y-126746000D01*
X120396000Y-126746000D02*
X131826000Y-126746000D01*
X118904000Y-124966000D02*
X118108000Y-124966000D01*
X116190000Y-123048000D02*
X116190000Y-120990000D01*
X118108000Y-124966000D02*
X116190000Y-123048000D01*
X112046000Y-158560000D02*
X111792000Y-158560000D01*
X111284000Y-137732000D02*
X112046000Y-138494000D01*
X112046000Y-138494000D02*
X112046000Y-158560000D01*
X129318000Y-173800000D02*
X128302000Y-174816000D01*
X129318000Y-160084000D02*
X129318000Y-173800000D01*
X129064000Y-159830000D02*
X129318000Y-160084000D01*
X111792000Y-158560000D02*
X111538000Y-158814000D01*
X128556000Y-31560000D02*
X128556000Y-34862000D01*
X127540000Y-30544000D02*
X128556000Y-31560000D01*
X126524000Y-30544000D02*
X127540000Y-30544000D01*
X108998000Y-30544000D02*
X126524000Y-30544000D01*
X112554000Y-157544000D02*
X113062000Y-157036000D01*
X111284000Y-160084000D02*
X110776000Y-160592000D01*
X114174000Y-138494000D02*
X112554000Y-140114000D01*
X112554000Y-140114000D02*
X112554000Y-157544000D01*
X112554000Y-157544000D02*
X112554000Y-158814000D01*
X112554000Y-158814000D02*
X111284000Y-160084000D01*
X111284000Y-174816000D02*
X111538000Y-174816000D01*
X110776000Y-174308000D02*
X111284000Y-174816000D01*
X110776000Y-160592000D02*
X110776000Y-174308000D01*
X128556000Y-44514000D02*
X128556000Y-42228000D01*
X127286000Y-45784000D02*
X128556000Y-44514000D01*
X108490000Y-45784000D02*
X127286000Y-45784000D01*
X108236000Y-46038000D02*
X108490000Y-45784000D01*
X121104000Y-84392000D02*
X108236000Y-84392000D01*
X122460000Y-155258000D02*
X122460000Y-154836000D01*
X110522000Y-157036000D02*
X110436000Y-157036000D01*
X113316000Y-141892000D02*
X113316000Y-155512000D01*
X114174000Y-141034000D02*
X113316000Y-141892000D01*
X108490000Y-42228000D02*
X111538000Y-42228000D01*
X108236000Y-42482000D02*
X108490000Y-42228000D01*
X107474000Y-68898000D02*
X111452000Y-68898000D01*
X111452000Y-68898000D02*
X111538000Y-68812000D01*
X111538000Y-160592000D02*
X111538000Y-167958000D01*
X114174000Y-143574000D02*
X114078000Y-143670000D01*
X114078000Y-143670000D02*
X114078000Y-158052000D01*
X114078000Y-158052000D02*
X111538000Y-160592000D01*
X125086000Y-145860000D02*
X123984000Y-145860000D01*
X121698000Y-143574000D02*
X115602000Y-143574000D01*
X123984000Y-145860000D02*
X121698000Y-143574000D01*
X128048000Y-65342000D02*
X127540000Y-64834000D01*
X128048000Y-68304000D02*
X128048000Y-65342000D01*
X128048000Y-68304000D02*
X128556000Y-68812000D01*
X114586000Y-158560000D02*
X114586000Y-160338000D01*
X114840000Y-146622000D02*
X114586000Y-146876000D01*
X114586000Y-146876000D02*
X114586000Y-158560000D01*
X128556000Y-160846000D02*
X128556000Y-167958000D01*
X128302000Y-160592000D02*
X128556000Y-160846000D01*
X114840000Y-160592000D02*
X115348000Y-160592000D01*
X114586000Y-160338000D02*
X114840000Y-160592000D01*
X106712000Y-64834000D02*
X127540000Y-64834000D01*
X118872000Y-9017000D02*
X112522000Y-15367000D01*
X122387000Y-9017000D02*
X118872000Y-9017000D01*
X122387000Y-9017000D02*
X124079000Y-7325000D01*
X127032000Y-80328000D02*
X105950000Y-80328000D01*
X127286000Y-80074000D02*
X127032000Y-80328000D01*
X127286000Y-76858000D02*
X127286000Y-80074000D01*
X128556000Y-75588000D02*
X127286000Y-76858000D01*
X124832000Y-134684000D02*
X124832000Y-135868000D01*
X123730000Y-136970000D02*
X102394000Y-136970000D01*
X124832000Y-135868000D02*
X123730000Y-136970000D01*
X112690000Y-14351000D02*
X112522000Y-14351000D01*
X112690000Y-14351000D02*
X119675000Y-7366000D01*
X105156000Y-75692000D02*
X111434000Y-75692000D01*
X111434000Y-75692000D02*
X111538000Y-75588000D01*
X110436000Y-134684000D02*
X110436000Y-135532000D01*
X110436000Y-135532000D02*
X109760000Y-136208000D01*
X109760000Y-136208000D02*
X101632000Y-136208000D01*
X123952000Y-127762000D02*
X124206000Y-128016000D01*
X104394000Y-50292000D02*
X120914000Y-50292000D01*
X120914000Y-50292000D02*
X121104000Y-50102000D01*
X100838000Y-127762000D02*
X123952000Y-127762000D01*
X123952000Y-127762000D02*
X123962000Y-127762000D01*
X122540000Y-162110000D02*
X122540000Y-159316000D01*
X122540000Y-159316000D02*
X122460000Y-159236000D01*
X125080000Y-81640000D02*
X125212000Y-81640000D01*
X106036000Y-134684000D02*
X106036000Y-131939000D01*
X106036000Y-131939000D02*
X106525000Y-131450000D01*
X106036000Y-134684000D02*
X105950000Y-134684000D01*
X106036000Y-146114000D02*
X106036000Y-143189000D01*
X106036000Y-143189000D02*
X106525000Y-142700000D01*
X106036000Y-146114000D02*
X105950000Y-146114000D01*
X106525000Y-153950000D02*
X106525000Y-156547000D01*
X106525000Y-156547000D02*
X106036000Y-157036000D01*
X106036000Y-157036000D02*
X105696000Y-157036000D01*
X129232000Y-134684000D02*
X129232000Y-132207000D01*
X129232000Y-132207000D02*
X128475000Y-131450000D01*
X129232000Y-134684000D02*
X129232000Y-134262000D01*
X129486000Y-145860000D02*
X129486000Y-143711000D01*
X129486000Y-143711000D02*
X128475000Y-142700000D01*
X129486000Y-145860000D02*
X129486000Y-145692000D01*
X129994000Y-157036000D02*
X129994000Y-155469000D01*
X129994000Y-155469000D02*
X128475000Y-153950000D01*
X116618000Y-125032000D02*
X113824000Y-125032000D01*
X117380000Y-125794000D02*
X116618000Y-125032000D01*
X111030000Y-125794000D02*
X111030000Y-125032000D01*
X112046000Y-126810000D02*
X111030000Y-125794000D01*
X116872000Y-126810000D02*
X112046000Y-126810000D01*
X123810000Y-120990000D02*
X123810000Y-121142000D01*
X113475000Y-18550000D02*
X112268000Y-19757000D01*
X112268000Y-23644500D02*
X112268000Y-19757000D01*
X112268000Y-23644500D02*
X111020500Y-24892000D01*
D22*
G36*
X118509342Y-1064853D02*
X117767458Y-1805443D01*
X117365458Y-2773567D01*
X117364543Y-3821834D01*
X117764853Y-4790658D01*
X118505443Y-5532542D01*
X119473567Y-5934542D01*
X120521834Y-5935457D01*
X121490658Y-5535147D01*
X122232542Y-4794557D01*
X122634542Y-3826433D01*
X122635457Y-2778166D01*
X122235147Y-1809342D01*
X121494557Y-1067458D01*
X120633702Y-710000D01*
X134290000Y-710000D01*
X134290000Y-20442865D01*
X133345347Y-19496562D01*
X131826111Y-18865720D01*
X130181106Y-18864284D01*
X128660771Y-19492474D01*
X127496562Y-20654653D01*
X126865720Y-22173889D01*
X126864284Y-23818894D01*
X127492474Y-25339229D01*
X128654653Y-26503438D01*
X130173889Y-27134280D01*
X131818894Y-27135716D01*
X133339229Y-26507526D01*
X134290000Y-25558413D01*
X134290000Y-149178933D01*
X134180833Y-149178838D01*
X134014895Y-149247402D01*
X134142192Y-149120327D01*
X134284838Y-148776799D01*
X134285162Y-148404833D01*
X134143117Y-148061057D01*
X133880327Y-147797808D01*
X133536799Y-147655162D01*
X133164833Y-147654838D01*
X132821057Y-147796883D01*
X132787882Y-147830000D01*
X121547725Y-147830000D01*
X121280799Y-147719162D01*
X120908833Y-147718838D01*
X120760000Y-147780334D01*
X120760000Y-145432000D01*
X120702148Y-145141161D01*
X120537401Y-144894599D01*
X120347122Y-144704320D01*
X120347162Y-144658833D01*
X120212944Y-144334000D01*
X121383198Y-144334000D01*
X123438560Y-146389362D01*
X123438560Y-146760000D01*
X123482838Y-146995317D01*
X123621910Y-147211441D01*
X123834110Y-147356431D01*
X124086000Y-147407440D01*
X126086000Y-147407440D01*
X126321317Y-147363162D01*
X126537441Y-147224090D01*
X126682431Y-147011890D01*
X126733440Y-146760000D01*
X126733440Y-144960000D01*
X126689162Y-144724683D01*
X126550090Y-144508559D01*
X126337890Y-144363569D01*
X126086000Y-144312560D01*
X124086000Y-144312560D01*
X123850683Y-144356838D01*
X123671160Y-144472358D01*
X122235401Y-143036599D01*
X121988839Y-142871852D01*
X121698000Y-142814000D01*
X116164463Y-142814000D01*
X116132327Y-142781808D01*
X115788799Y-142639162D01*
X115416833Y-142638838D01*
X115073057Y-142780883D01*
X114887908Y-142965709D01*
X114704327Y-142781808D01*
X114360799Y-142639162D01*
X114076000Y-142638914D01*
X114076000Y-142206802D01*
X114313680Y-141969122D01*
X114359167Y-141969162D01*
X114702943Y-141827117D01*
X114966192Y-141564327D01*
X115108838Y-141220799D01*
X115108895Y-141155167D01*
X124540838Y-141155167D01*
X124564147Y-141211579D01*
X124596838Y-141385317D01*
X124735910Y-141601441D01*
X124890956Y-141707379D01*
X124943776Y-141760291D01*
X124748559Y-141885910D01*
X124603569Y-142098110D01*
X124552560Y-142350000D01*
X124552560Y-143050000D01*
X124596838Y-143285317D01*
X124735910Y-143501441D01*
X124948110Y-143646431D01*
X125200000Y-143697440D01*
X125850000Y-143697440D01*
X126085317Y-143653162D01*
X126301441Y-143514090D01*
X126446431Y-143301890D01*
X126497440Y-143050000D01*
X126497440Y-142350000D01*
X126453162Y-142114683D01*
X126314090Y-141898559D01*
X126101890Y-141753569D01*
X126088803Y-141750919D01*
X126301441Y-141614090D01*
X126446431Y-141401890D01*
X126497440Y-141150000D01*
X126497440Y-140450000D01*
X127502560Y-140450000D01*
X127502560Y-141150000D01*
X127546838Y-141385317D01*
X127685910Y-141601441D01*
X127898110Y-141746431D01*
X127911197Y-141749081D01*
X127698559Y-141885910D01*
X127553569Y-142098110D01*
X127502560Y-142350000D01*
X127502560Y-143050000D01*
X127546838Y-143285317D01*
X127685910Y-143501441D01*
X127898110Y-143646431D01*
X128150000Y-143697440D01*
X128397638Y-143697440D01*
X128726000Y-144025802D01*
X128726000Y-144212560D01*
X128586000Y-144212560D01*
X128350683Y-144256838D01*
X128134559Y-144395910D01*
X127989569Y-144608110D01*
X127938560Y-144860000D01*
X127938560Y-146860000D01*
X127982838Y-147095317D01*
X128121910Y-147311441D01*
X128334110Y-147456431D01*
X128586000Y-147507440D01*
X130386000Y-147507440D01*
X130621317Y-147463162D01*
X130837441Y-147324090D01*
X130982431Y-147111890D01*
X131033440Y-146860000D01*
X131033440Y-144860000D01*
X130989162Y-144624683D01*
X130850090Y-144408559D01*
X130637890Y-144263569D01*
X130386000Y-144212560D01*
X130246000Y-144212560D01*
X130246000Y-143711000D01*
X130188148Y-143420161D01*
X130023401Y-143173599D01*
X129447440Y-142597638D01*
X129447440Y-142350000D01*
X129403162Y-142114683D01*
X129264090Y-141898559D01*
X129051890Y-141753569D01*
X129038803Y-141750919D01*
X129251441Y-141614090D01*
X129396431Y-141401890D01*
X129447440Y-141150000D01*
X129447440Y-140450000D01*
X129403162Y-140214683D01*
X129264090Y-139998559D01*
X129051890Y-139853569D01*
X128800000Y-139802560D01*
X128150000Y-139802560D01*
X127914683Y-139846838D01*
X127698559Y-139985910D01*
X127553569Y-140198110D01*
X127502560Y-140450000D01*
X126497440Y-140450000D01*
X126453162Y-140214683D01*
X126314090Y-139998559D01*
X126101890Y-139853569D01*
X125850000Y-139802560D01*
X125200000Y-139802560D01*
X124964683Y-139846838D01*
X124748559Y-139985910D01*
X124603569Y-140198110D01*
X124552560Y-140450000D01*
X124552560Y-140755752D01*
X124541162Y-140783201D01*
X124540838Y-141155167D01*
X115108895Y-141155167D01*
X115109162Y-140848833D01*
X114967117Y-140505057D01*
X114704327Y-140241808D01*
X114360799Y-140099162D01*
X113988833Y-140098838D01*
X113645057Y-140240883D01*
X113381808Y-140503673D01*
X113314000Y-140666972D01*
X113314000Y-140428802D01*
X114313680Y-139429122D01*
X114359167Y-139429162D01*
X114702943Y-139287117D01*
X114966192Y-139024327D01*
X115108838Y-138680799D01*
X115109162Y-138308833D01*
X114967117Y-137965057D01*
X114732470Y-137730000D01*
X123730000Y-137730000D01*
X124020839Y-137672148D01*
X124267401Y-137507401D01*
X125369401Y-136405401D01*
X125485638Y-136231440D01*
X125832000Y-136231440D01*
X126067317Y-136187162D01*
X126283441Y-136048090D01*
X126428431Y-135835890D01*
X126479440Y-135584000D01*
X126479440Y-133784000D01*
X126435162Y-133548683D01*
X126296090Y-133332559D01*
X126083890Y-133187569D01*
X125832000Y-133136560D01*
X123832000Y-133136560D01*
X123596683Y-133180838D01*
X123380559Y-133319910D01*
X123235569Y-133532110D01*
X123184560Y-133784000D01*
X123184560Y-135584000D01*
X123228838Y-135819317D01*
X123367910Y-136035441D01*
X123499705Y-136125493D01*
X123415198Y-136210000D01*
X111549944Y-136210000D01*
X111671317Y-136187162D01*
X111887441Y-136048090D01*
X112032431Y-135835890D01*
X112083440Y-135584000D01*
X112083440Y-133784000D01*
X112039162Y-133548683D01*
X111900090Y-133332559D01*
X111687890Y-133187569D01*
X111436000Y-133136560D01*
X109436000Y-133136560D01*
X109200683Y-133180838D01*
X108984559Y-133319910D01*
X108839569Y-133532110D01*
X108788560Y-133784000D01*
X108788560Y-135448000D01*
X107583440Y-135448000D01*
X107583440Y-133684000D01*
X107539162Y-133448683D01*
X107400090Y-133232559D01*
X107187890Y-133087569D01*
X106936000Y-133036560D01*
X106796000Y-133036560D01*
X106796000Y-132447440D01*
X106850000Y-132447440D01*
X107085317Y-132403162D01*
X107301441Y-132264090D01*
X107446431Y-132051890D01*
X107497440Y-131800000D01*
X107497440Y-131100000D01*
X107453162Y-130864683D01*
X107314090Y-130648559D01*
X107101890Y-130503569D01*
X107088803Y-130500919D01*
X107301441Y-130364090D01*
X107446431Y-130151890D01*
X107497440Y-129900000D01*
X107497440Y-129200000D01*
X107453162Y-128964683D01*
X107314090Y-128748559D01*
X107101890Y-128603569D01*
X106850000Y-128552560D01*
X106200000Y-128552560D01*
X105964683Y-128596838D01*
X105748559Y-128735910D01*
X105603569Y-128948110D01*
X105552560Y-129200000D01*
X105552560Y-129900000D01*
X105596838Y-130135317D01*
X105735910Y-130351441D01*
X105948110Y-130496431D01*
X105961197Y-130499081D01*
X105748559Y-130635910D01*
X105603569Y-130848110D01*
X105552560Y-131100000D01*
X105552560Y-131347638D01*
X105498599Y-131401599D01*
X105333852Y-131648161D01*
X105276000Y-131939000D01*
X105276000Y-133036560D01*
X105136000Y-133036560D01*
X104900683Y-133080838D01*
X104684559Y-133219910D01*
X104539569Y-133432110D01*
X104488560Y-133684000D01*
X104488560Y-135448000D01*
X102194463Y-135448000D01*
X102162327Y-135415808D01*
X101818799Y-135273162D01*
X101760000Y-135273111D01*
X101760000Y-135000000D01*
X101702148Y-134709161D01*
X101537401Y-134462599D01*
X101290839Y-134297852D01*
X101000000Y-134240000D01*
X100710000Y-134297685D01*
X100710000Y-128696889D01*
X101023167Y-128697162D01*
X101366943Y-128555117D01*
X101400118Y-128522000D01*
X123403403Y-128522000D01*
X123412883Y-128544943D01*
X123675673Y-128808192D01*
X124019201Y-128950838D01*
X124391167Y-128951162D01*
X124684218Y-128830076D01*
X124603569Y-128948110D01*
X124552560Y-129200000D01*
X124552560Y-129447638D01*
X124260198Y-129740000D01*
X116682863Y-129740000D01*
X116550799Y-129685162D01*
X116178833Y-129684838D01*
X115835057Y-129826883D01*
X115801882Y-129860000D01*
X110868802Y-129860000D01*
X110447440Y-129438638D01*
X110447440Y-129200000D01*
X110403162Y-128964683D01*
X110264090Y-128748559D01*
X110051890Y-128603569D01*
X109800000Y-128552560D01*
X109150000Y-128552560D01*
X108914683Y-128596838D01*
X108698559Y-128735910D01*
X108553569Y-128948110D01*
X108502560Y-129200000D01*
X108502560Y-129900000D01*
X108546838Y-130135317D01*
X108685910Y-130351441D01*
X108898110Y-130496431D01*
X108911197Y-130499081D01*
X108698559Y-130635910D01*
X108553569Y-130848110D01*
X108502560Y-131100000D01*
X108502560Y-131800000D01*
X108546838Y-132035317D01*
X108685910Y-132251441D01*
X108898110Y-132396431D01*
X109150000Y-132447440D01*
X109800000Y-132447440D01*
X110035317Y-132403162D01*
X110251441Y-132264090D01*
X110396431Y-132051890D01*
X110447440Y-131800000D01*
X110447440Y-131358804D01*
X110554000Y-131380000D01*
X115801537Y-131380000D01*
X115833673Y-131412192D01*
X116177201Y-131554838D01*
X116549167Y-131555162D01*
X116892943Y-131413117D01*
X117046327Y-131260000D01*
X124552560Y-131260000D01*
X124552560Y-131800000D01*
X124596838Y-132035317D01*
X124735910Y-132251441D01*
X124948110Y-132396431D01*
X125200000Y-132447440D01*
X125850000Y-132447440D01*
X126085317Y-132403162D01*
X126301441Y-132264090D01*
X126446431Y-132051890D01*
X126497440Y-131800000D01*
X126497440Y-131100000D01*
X126453162Y-130864683D01*
X126314090Y-130648559D01*
X126101890Y-130503569D01*
X126088803Y-130500919D01*
X126301441Y-130364090D01*
X126446431Y-130151890D01*
X126497440Y-129900000D01*
X126497440Y-129200000D01*
X127502560Y-129200000D01*
X127502560Y-129900000D01*
X127546838Y-130135317D01*
X127685910Y-130351441D01*
X127898110Y-130496431D01*
X127911197Y-130499081D01*
X127698559Y-130635910D01*
X127553569Y-130848110D01*
X127502560Y-131100000D01*
X127502560Y-131800000D01*
X127546838Y-132035317D01*
X127685910Y-132251441D01*
X127898110Y-132396431D01*
X128150000Y-132447440D01*
X128397638Y-132447440D01*
X128472000Y-132521802D01*
X128472000Y-133036560D01*
X128332000Y-133036560D01*
X128096683Y-133080838D01*
X127880559Y-133219910D01*
X127735569Y-133432110D01*
X127684560Y-133684000D01*
X127684560Y-135684000D01*
X127728838Y-135919317D01*
X127867910Y-136135441D01*
X128080110Y-136280431D01*
X128332000Y-136331440D01*
X130132000Y-136331440D01*
X130367317Y-136287162D01*
X130583441Y-136148090D01*
X130728431Y-135935890D01*
X130779440Y-135684000D01*
X130779440Y-133684000D01*
X130735162Y-133448683D01*
X130596090Y-133232559D01*
X130383890Y-133087569D01*
X130132000Y-133036560D01*
X129992000Y-133036560D01*
X129992000Y-132207000D01*
X129934148Y-131916161D01*
X129769401Y-131669599D01*
X129447440Y-131347638D01*
X129447440Y-131100000D01*
X129403162Y-130864683D01*
X129264090Y-130648559D01*
X129051890Y-130503569D01*
X129038803Y-130500919D01*
X129251441Y-130364090D01*
X129396431Y-130151890D01*
X129447440Y-129900000D01*
X129447440Y-129200000D01*
X129403162Y-128964683D01*
X129264090Y-128748559D01*
X129051890Y-128603569D01*
X128800000Y-128552560D01*
X128150000Y-128552560D01*
X127914683Y-128596838D01*
X127698559Y-128735910D01*
X127553569Y-128948110D01*
X127502560Y-129200000D01*
X126497440Y-129200000D01*
X126453162Y-128964683D01*
X126314090Y-128748559D01*
X126101890Y-128603569D01*
X125850000Y-128552560D01*
X125200000Y-128552560D01*
X124964683Y-128596838D01*
X124916595Y-128627782D01*
X124998192Y-128546327D01*
X125140838Y-128202799D01*
X125141162Y-127830833D01*
X125006944Y-127506000D01*
X131263537Y-127506000D01*
X131295673Y-127538192D01*
X131639201Y-127680838D01*
X132011167Y-127681162D01*
X132354943Y-127539117D01*
X132618192Y-127276327D01*
X132760838Y-126932799D01*
X132761162Y-126560833D01*
X132619117Y-126217057D01*
X132356327Y-125953808D01*
X132012799Y-125811162D01*
X131640833Y-125810838D01*
X131297057Y-125952883D01*
X131263882Y-125986000D01*
X120710802Y-125986000D01*
X120661387Y-125936585D01*
X120794000Y-125963440D01*
X122094000Y-125963440D01*
X122329317Y-125919162D01*
X122545441Y-125780090D01*
X122690431Y-125567890D01*
X122741440Y-125316000D01*
X122741440Y-124616000D01*
X122697162Y-124380683D01*
X122558090Y-124164559D01*
X122345890Y-124019569D01*
X122332803Y-124016919D01*
X122545441Y-123880090D01*
X122690431Y-123667890D01*
X122741440Y-123416000D01*
X122741440Y-122716000D01*
X122697162Y-122480683D01*
X122558090Y-122264559D01*
X122345890Y-122119569D01*
X122094000Y-122068560D01*
X122008408Y-122068560D01*
X122358735Y-121718845D01*
X122540205Y-121281818D01*
X122719995Y-121716943D01*
X123081155Y-122078735D01*
X123553276Y-122274777D01*
X124064481Y-122275223D01*
X124536943Y-122080005D01*
X124898735Y-121718845D01*
X125080205Y-121281818D01*
X125259995Y-121716943D01*
X125621155Y-122078735D01*
X126093276Y-122274777D01*
X126604481Y-122275223D01*
X127076943Y-122080005D01*
X127268266Y-121889016D01*
X128170590Y-121889016D01*
X128226271Y-122119611D01*
X128709078Y-122287622D01*
X129219428Y-122258083D01*
X129553729Y-122119611D01*
X129609410Y-121889016D01*
X128890000Y-121169605D01*
X128170590Y-121889016D01*
X127268266Y-121889016D01*
X127438735Y-121718845D01*
X127619797Y-121282800D01*
X127621917Y-121319428D01*
X127760389Y-121653729D01*
X127990984Y-121709410D01*
X128710395Y-120990000D01*
X129069605Y-120990000D01*
X129789016Y-121709410D01*
X130019611Y-121653729D01*
X130187622Y-121170922D01*
X130158083Y-120660572D01*
X130019611Y-120326271D01*
X129789016Y-120270590D01*
X129069605Y-120990000D01*
X128710395Y-120990000D01*
X127990984Y-120270590D01*
X127760389Y-120326271D01*
X127625861Y-120712860D01*
X127440005Y-120263057D01*
X127268233Y-120090984D01*
X128170590Y-120090984D01*
X128890000Y-120810395D01*
X129609410Y-120090984D01*
X129553729Y-119860389D01*
X129070922Y-119692378D01*
X128560572Y-119721917D01*
X128226271Y-119860389D01*
X128170590Y-120090984D01*
X127268233Y-120090984D01*
X127078845Y-119901265D01*
X126606724Y-119705223D01*
X126095519Y-119704777D01*
X125623057Y-119899995D01*
X125261265Y-120261155D01*
X125079795Y-120698182D01*
X124900005Y-120263057D01*
X124538845Y-119901265D01*
X124066724Y-119705223D01*
X123555519Y-119704777D01*
X123083057Y-119899995D01*
X122721265Y-120261155D01*
X122539795Y-120698182D01*
X122360005Y-120263057D01*
X121998845Y-119901265D01*
X121526724Y-119705223D01*
X121015519Y-119704777D01*
X120543057Y-119899995D01*
X120181265Y-120261155D01*
X119999795Y-120698182D01*
X119820005Y-120263057D01*
X119458845Y-119901265D01*
X118986724Y-119705223D01*
X118475519Y-119704777D01*
X118003057Y-119899995D01*
X117641265Y-120261155D01*
X117459795Y-120698182D01*
X117280005Y-120263057D01*
X116918845Y-119901265D01*
X116446724Y-119705223D01*
X115935519Y-119704777D01*
X115463057Y-119899995D01*
X115101265Y-120261155D01*
X114919795Y-120698182D01*
X114740005Y-120263057D01*
X114378845Y-119901265D01*
X113906724Y-119705223D01*
X113395519Y-119704777D01*
X112923057Y-119899995D01*
X112561265Y-120261155D01*
X112379795Y-120698182D01*
X112200005Y-120263057D01*
X111838845Y-119901265D01*
X111366724Y-119705223D01*
X110855519Y-119704777D01*
X110383057Y-119899995D01*
X110021265Y-120261155D01*
X109825223Y-120733276D01*
X109824777Y-121244481D01*
X110019995Y-121716943D01*
X110381155Y-122078735D01*
X110853276Y-122274777D01*
X111364481Y-122275223D01*
X111836943Y-122080005D01*
X112198735Y-121718845D01*
X112380205Y-121281818D01*
X112559995Y-121716943D01*
X112921155Y-122078735D01*
X113393276Y-122274777D01*
X113904481Y-122275223D01*
X114376943Y-122080005D01*
X114738735Y-121718845D01*
X114920205Y-121281818D01*
X115099995Y-121716943D01*
X115430000Y-122047525D01*
X115430000Y-123048000D01*
X115487852Y-123338839D01*
X115652599Y-123585401D01*
X116339198Y-124272000D01*
X114386463Y-124272000D01*
X114354327Y-124239808D01*
X114010799Y-124097162D01*
X113638833Y-124096838D01*
X113295057Y-124238883D01*
X113031808Y-124501673D01*
X112889162Y-124845201D01*
X112888838Y-125217167D01*
X113030883Y-125560943D01*
X113293673Y-125824192D01*
X113637201Y-125966838D01*
X114009167Y-125967162D01*
X114352943Y-125825117D01*
X114386118Y-125792000D01*
X116303198Y-125792000D01*
X116444878Y-125933680D01*
X116444842Y-125974826D01*
X116343057Y-126016883D01*
X116309882Y-126050000D01*
X112360802Y-126050000D01*
X111837137Y-125526335D01*
X111964838Y-125218799D01*
X111965162Y-124846833D01*
X111823117Y-124503057D01*
X111560327Y-124239808D01*
X111216799Y-124097162D01*
X110844833Y-124096838D01*
X110501057Y-124238883D01*
X110237808Y-124501673D01*
X110095162Y-124845201D01*
X110094838Y-125217167D01*
X110236883Y-125560943D01*
X110270000Y-125594118D01*
X110270000Y-125794000D01*
X110327852Y-126084839D01*
X110492599Y-126331401D01*
X111163198Y-127002000D01*
X101400463Y-127002000D01*
X101368327Y-126969808D01*
X101024799Y-126827162D01*
X100710000Y-126826888D01*
X100710000Y-105750000D01*
X105955000Y-105750000D01*
X107024112Y-111124789D01*
X110068685Y-115681315D01*
X114625211Y-118725888D01*
X120000000Y-119795000D01*
X125374789Y-118725888D01*
X129931315Y-115681315D01*
X132975888Y-111124789D01*
X134045000Y-105750000D01*
X132975888Y-100375211D01*
X129931315Y-95818685D01*
X125374789Y-92774112D01*
X120000000Y-91705000D01*
X114625211Y-92774112D01*
X110068685Y-95818685D01*
X107024112Y-100375211D01*
X105955000Y-105750000D01*
X100710000Y-105750000D01*
X100710000Y-84577167D01*
X107300838Y-84577167D01*
X107442883Y-84920943D01*
X107705673Y-85184192D01*
X108049201Y-85326838D01*
X108421167Y-85327162D01*
X108764943Y-85185117D01*
X108798118Y-85152000D01*
X120541537Y-85152000D01*
X120573673Y-85184192D01*
X120917201Y-85326838D01*
X121289167Y-85327162D01*
X121632943Y-85185117D01*
X121896192Y-84922327D01*
X122038838Y-84578799D01*
X122039162Y-84206833D01*
X121897117Y-83863057D01*
X121634327Y-83599808D01*
X121290799Y-83457162D01*
X120918833Y-83456838D01*
X120575057Y-83598883D01*
X120541882Y-83632000D01*
X108798463Y-83632000D01*
X108766327Y-83599808D01*
X108422799Y-83457162D01*
X108050833Y-83456838D01*
X107707057Y-83598883D01*
X107443808Y-83861673D01*
X107301162Y-84205201D01*
X107300838Y-84577167D01*
X100710000Y-84577167D01*
X100710000Y-75877167D01*
X104220838Y-75877167D01*
X104362883Y-76220943D01*
X104625673Y-76484192D01*
X104969201Y-76626838D01*
X105341167Y-76627162D01*
X105684943Y-76485117D01*
X105718118Y-76452000D01*
X111180605Y-76452000D01*
X111351201Y-76522838D01*
X111723167Y-76523162D01*
X112066943Y-76381117D01*
X112330192Y-76118327D01*
X112472838Y-75774799D01*
X112473162Y-75402833D01*
X112331117Y-75059057D01*
X112068327Y-74795808D01*
X111724799Y-74653162D01*
X111352833Y-74652838D01*
X111009057Y-74794883D01*
X110871701Y-74932000D01*
X105718463Y-74932000D01*
X105686327Y-74899808D01*
X105342799Y-74757162D01*
X104970833Y-74756838D01*
X104627057Y-74898883D01*
X104363808Y-75161673D01*
X104221162Y-75505201D01*
X104220838Y-75877167D01*
X100710000Y-75877167D01*
X100710000Y-69083167D01*
X106538838Y-69083167D01*
X106680883Y-69426943D01*
X106943673Y-69690192D01*
X107287201Y-69832838D01*
X107659167Y-69833162D01*
X108002943Y-69691117D01*
X108036118Y-69658000D01*
X111137256Y-69658000D01*
X111351201Y-69746838D01*
X111723167Y-69747162D01*
X112066943Y-69605117D01*
X112330192Y-69342327D01*
X112472838Y-68998799D01*
X112473162Y-68626833D01*
X112331117Y-68283057D01*
X112068327Y-68019808D01*
X111724799Y-67877162D01*
X111352833Y-67876838D01*
X111009057Y-68018883D01*
X110889732Y-68138000D01*
X108036463Y-68138000D01*
X108004327Y-68105808D01*
X107660799Y-67963162D01*
X107288833Y-67962838D01*
X106945057Y-68104883D01*
X106681808Y-68367673D01*
X106539162Y-68711201D01*
X106538838Y-69083167D01*
X100710000Y-69083167D01*
X100710000Y-50477167D01*
X103458838Y-50477167D01*
X103600883Y-50820943D01*
X103863673Y-51084192D01*
X104207201Y-51226838D01*
X104579167Y-51227162D01*
X104922943Y-51085117D01*
X104956118Y-51052000D01*
X109961842Y-51052000D01*
X109844046Y-51228295D01*
X109790000Y-51500000D01*
X109790000Y-61500000D01*
X109844046Y-61771705D01*
X109997954Y-62002046D01*
X110228295Y-62155954D01*
X110500000Y-62210000D01*
X113690248Y-62210000D01*
X113535241Y-62583298D01*
X113534760Y-63134285D01*
X113745169Y-63643515D01*
X114134436Y-64033461D01*
X114232065Y-64074000D01*
X107274463Y-64074000D01*
X107242327Y-64041808D01*
X106898799Y-63899162D01*
X106526833Y-63898838D01*
X106183057Y-64040883D01*
X105919808Y-64303673D01*
X105777162Y-64647201D01*
X105776838Y-65019167D01*
X105918883Y-65362943D01*
X106181673Y-65626192D01*
X106525201Y-65768838D01*
X106897167Y-65769162D01*
X107240943Y-65627117D01*
X107274118Y-65594000D01*
X112574000Y-65594000D01*
X112574000Y-79248000D01*
X112628046Y-79519705D01*
X112660315Y-79568000D01*
X106512463Y-79568000D01*
X106480327Y-79535808D01*
X106136799Y-79393162D01*
X105764833Y-79392838D01*
X105421057Y-79534883D01*
X105157808Y-79797673D01*
X105015162Y-80141201D01*
X105014838Y-80513167D01*
X105156883Y-80856943D01*
X105419673Y-81120192D01*
X105763201Y-81262838D01*
X106135167Y-81263162D01*
X106478943Y-81121117D01*
X106512118Y-81088000D01*
X113522560Y-81088000D01*
X113522560Y-82390000D01*
X113566838Y-82625317D01*
X113705910Y-82841441D01*
X113918110Y-82986431D01*
X114170000Y-83037440D01*
X115670000Y-83037440D01*
X115905317Y-82993162D01*
X116121441Y-82854090D01*
X116266431Y-82641890D01*
X116306355Y-82444738D01*
X116674436Y-82813461D01*
X117183298Y-83024759D01*
X117734285Y-83025240D01*
X118243515Y-82814831D01*
X118633461Y-82425564D01*
X118729976Y-82193130D01*
X118825169Y-82423515D01*
X119214436Y-82813461D01*
X119723298Y-83024759D01*
X120274285Y-83025240D01*
X120783515Y-82814831D01*
X121173461Y-82425564D01*
X121184076Y-82400000D01*
X121355453Y-82400000D01*
X121365169Y-82423515D01*
X121754436Y-82813461D01*
X121808203Y-82835787D01*
X121837852Y-82984839D01*
X122002599Y-83231401D01*
X122684599Y-83913401D01*
X122931161Y-84078148D01*
X123222000Y-84136000D01*
X129771537Y-84136000D01*
X129803673Y-84168192D01*
X130147201Y-84310838D01*
X130519167Y-84311162D01*
X130862943Y-84169117D01*
X131126192Y-83906327D01*
X131268838Y-83562799D01*
X131269162Y-83190833D01*
X131127117Y-82847057D01*
X130864327Y-82583808D01*
X130520799Y-82441162D01*
X130148833Y-82440838D01*
X129805057Y-82582883D01*
X129771882Y-82616000D01*
X126062693Y-82616000D01*
X126253461Y-82425564D01*
X126464759Y-81916702D01*
X126465240Y-81365715D01*
X126350491Y-81088000D01*
X127032000Y-81088000D01*
X127322839Y-81030148D01*
X127569401Y-80865401D01*
X127823401Y-80611401D01*
X127988148Y-80364840D01*
X128046000Y-80074000D01*
X128046000Y-77172802D01*
X128695680Y-76523122D01*
X128741167Y-76523162D01*
X129084943Y-76381117D01*
X129348192Y-76118327D01*
X129490838Y-75774799D01*
X129491162Y-75402833D01*
X129349117Y-75059057D01*
X129086327Y-74795808D01*
X128742799Y-74653162D01*
X128370833Y-74652838D01*
X128027057Y-74794883D01*
X127763808Y-75057673D01*
X127621162Y-75401201D01*
X127621121Y-75448077D01*
X127456000Y-75613198D01*
X127456000Y-68759688D01*
X127510599Y-68841401D01*
X127620878Y-68951680D01*
X127620838Y-68997167D01*
X127762883Y-69340943D01*
X128025673Y-69604192D01*
X128369201Y-69746838D01*
X128741167Y-69747162D01*
X129084943Y-69605117D01*
X129348192Y-69342327D01*
X129490838Y-68998799D01*
X129491162Y-68626833D01*
X129349117Y-68283057D01*
X129086327Y-68019808D01*
X128808000Y-67904236D01*
X128808000Y-65342000D01*
X128757078Y-65086000D01*
X129771537Y-65086000D01*
X129803673Y-65118192D01*
X130147201Y-65260838D01*
X130519167Y-65261162D01*
X130862943Y-65119117D01*
X131126192Y-64856327D01*
X131268838Y-64512799D01*
X131269162Y-64140833D01*
X131127117Y-63797057D01*
X130864327Y-63533808D01*
X130520799Y-63391162D01*
X130148833Y-63390838D01*
X129805057Y-63532883D01*
X129771882Y-63566000D01*
X126286499Y-63566000D01*
X126464759Y-63136702D01*
X126465240Y-62585715D01*
X126309998Y-62210000D01*
X129500000Y-62210000D01*
X129771705Y-62155954D01*
X130002046Y-62002046D01*
X130155954Y-61771705D01*
X130210000Y-61500000D01*
X130210000Y-51500000D01*
X130155954Y-51228295D01*
X130002046Y-50997954D01*
X129771705Y-50844046D01*
X129500000Y-50790000D01*
X121738244Y-50790000D01*
X121896192Y-50632327D01*
X122038838Y-50288799D01*
X122039162Y-49916833D01*
X121897117Y-49573057D01*
X121634327Y-49309808D01*
X121290799Y-49167162D01*
X120918833Y-49166838D01*
X120575057Y-49308883D01*
X120351550Y-49532000D01*
X104956463Y-49532000D01*
X104924327Y-49499808D01*
X104580799Y-49357162D01*
X104208833Y-49356838D01*
X103865057Y-49498883D01*
X103601808Y-49761673D01*
X103459162Y-50105201D01*
X103458838Y-50477167D01*
X100710000Y-50477167D01*
X100710000Y-46223167D01*
X107300838Y-46223167D01*
X107442883Y-46566943D01*
X107705673Y-46830192D01*
X108049201Y-46972838D01*
X108421167Y-46973162D01*
X108764943Y-46831117D01*
X109028192Y-46568327D01*
X109038294Y-46544000D01*
X113637872Y-46544000D01*
X113573569Y-46638110D01*
X113522560Y-46890000D01*
X113522560Y-48390000D01*
X113566838Y-48625317D01*
X113705910Y-48841441D01*
X113918110Y-48986431D01*
X114170000Y-49037440D01*
X115670000Y-49037440D01*
X115905317Y-48993162D01*
X116121441Y-48854090D01*
X116266431Y-48641890D01*
X116306355Y-48444738D01*
X116674436Y-48813461D01*
X117183298Y-49024759D01*
X117734285Y-49025240D01*
X118243515Y-48814831D01*
X118633461Y-48425564D01*
X118729976Y-48193130D01*
X118825169Y-48423515D01*
X119214436Y-48813461D01*
X119723298Y-49024759D01*
X120274285Y-49025240D01*
X120783515Y-48814831D01*
X121173461Y-48425564D01*
X121269976Y-48193130D01*
X121365169Y-48423515D01*
X121754436Y-48813461D01*
X122263298Y-49024759D01*
X122340024Y-49024826D01*
X122938599Y-49623401D01*
X123185161Y-49788148D01*
X123476000Y-49846000D01*
X130533537Y-49846000D01*
X130565673Y-49878192D01*
X130909201Y-50020838D01*
X131281167Y-50021162D01*
X131624943Y-49879117D01*
X131888192Y-49616327D01*
X132030838Y-49272799D01*
X132031162Y-48900833D01*
X131889117Y-48557057D01*
X131626327Y-48293808D01*
X131282799Y-48151162D01*
X130910833Y-48150838D01*
X130567057Y-48292883D01*
X130533882Y-48326000D01*
X126294804Y-48326000D01*
X126464759Y-47916702D01*
X126465240Y-47365715D01*
X126335616Y-47052000D01*
X129771537Y-47052000D01*
X129803673Y-47084192D01*
X130147201Y-47226838D01*
X130519167Y-47227162D01*
X130862943Y-47085117D01*
X131126192Y-46822327D01*
X131268838Y-46478799D01*
X131269162Y-46106833D01*
X131127117Y-45763057D01*
X130864327Y-45499808D01*
X130520799Y-45357162D01*
X130148833Y-45356838D01*
X129805057Y-45498883D01*
X129771882Y-45532000D01*
X128612802Y-45532000D01*
X129093401Y-45051401D01*
X129258148Y-44804840D01*
X129316000Y-44514000D01*
X129316000Y-42790463D01*
X129348192Y-42758327D01*
X129490838Y-42414799D01*
X129491162Y-42042833D01*
X129349117Y-41699057D01*
X129086327Y-41435808D01*
X128742799Y-41293162D01*
X128370833Y-41292838D01*
X128027057Y-41434883D01*
X127763808Y-41697673D01*
X127621162Y-42041201D01*
X127620838Y-42413167D01*
X127762883Y-42756943D01*
X127796000Y-42790118D01*
X127796000Y-44199198D01*
X127456000Y-44539198D01*
X127456000Y-31534802D01*
X127796000Y-31874802D01*
X127796000Y-34299537D01*
X127763808Y-34331673D01*
X127621162Y-34675201D01*
X127620838Y-35047167D01*
X127762883Y-35390943D01*
X128025673Y-35654192D01*
X128369201Y-35796838D01*
X128741167Y-35797162D01*
X129084943Y-35655117D01*
X129348192Y-35392327D01*
X129490838Y-35048799D01*
X129491162Y-34676833D01*
X129349117Y-34333057D01*
X129316000Y-34299882D01*
X129316000Y-31560000D01*
X129258148Y-31269161D01*
X129093401Y-31022599D01*
X128866802Y-30796000D01*
X129032000Y-30796000D01*
X129322839Y-30738148D01*
X129332040Y-30732000D01*
X129771537Y-30732000D01*
X129803673Y-30764192D01*
X130147201Y-30906838D01*
X130519167Y-30907162D01*
X130862943Y-30765117D01*
X131126192Y-30502327D01*
X131268838Y-30158799D01*
X131269162Y-29786833D01*
X131127117Y-29443057D01*
X130864327Y-29179808D01*
X130520799Y-29037162D01*
X130148833Y-29036838D01*
X129805057Y-29178883D01*
X129771882Y-29212000D01*
X129032000Y-29212000D01*
X128741161Y-29269852D01*
X128731960Y-29276000D01*
X126406917Y-29276000D01*
X126464759Y-29136702D01*
X126465240Y-28585715D01*
X126254831Y-28076485D01*
X125865564Y-27686539D01*
X125356702Y-27475241D01*
X124805715Y-27474760D01*
X124296485Y-27685169D01*
X123906539Y-28074436D01*
X123810024Y-28306870D01*
X123714831Y-28076485D01*
X123325564Y-27686539D01*
X122816702Y-27475241D01*
X122265715Y-27474760D01*
X121756485Y-27685169D01*
X121366539Y-28074436D01*
X121270024Y-28306870D01*
X121174831Y-28076485D01*
X120785564Y-27686539D01*
X120276702Y-27475241D01*
X119725715Y-27474760D01*
X119216485Y-27685169D01*
X118826539Y-28074436D01*
X118730024Y-28306870D01*
X118634831Y-28076485D01*
X118245564Y-27686539D01*
X117736702Y-27475241D01*
X117185715Y-27474760D01*
X116676485Y-27685169D01*
X116286539Y-28074436D01*
X116190024Y-28306870D01*
X116094831Y-28076485D01*
X115705564Y-27686539D01*
X115196702Y-27475241D01*
X114645715Y-27474760D01*
X114136485Y-27685169D01*
X113746539Y-28074436D01*
X113535241Y-28583298D01*
X113534760Y-29134285D01*
X113745169Y-29643515D01*
X113885409Y-29784000D01*
X109560463Y-29784000D01*
X109528327Y-29751808D01*
X109184799Y-29609162D01*
X108812833Y-29608838D01*
X108469057Y-29750883D01*
X108205808Y-30013673D01*
X108063162Y-30357201D01*
X108062838Y-30729167D01*
X108204883Y-31072943D01*
X108467673Y-31336192D01*
X108811201Y-31478838D01*
X109183167Y-31479162D01*
X109526943Y-31337117D01*
X109560118Y-31304000D01*
X112574000Y-31304000D01*
X112574000Y-45024000D01*
X108490000Y-45024000D01*
X108199160Y-45081852D01*
X108167600Y-45102940D01*
X108050833Y-45102838D01*
X107707057Y-45244883D01*
X107443808Y-45507673D01*
X107301162Y-45851201D01*
X107300838Y-46223167D01*
X100710000Y-46223167D01*
X100710000Y-42667167D01*
X107300838Y-42667167D01*
X107442883Y-43010943D01*
X107705673Y-43274192D01*
X108049201Y-43416838D01*
X108421167Y-43417162D01*
X108764943Y-43275117D01*
X109028192Y-43012327D01*
X109038294Y-42988000D01*
X110975537Y-42988000D01*
X111007673Y-43020192D01*
X111351201Y-43162838D01*
X111723167Y-43163162D01*
X112066943Y-43021117D01*
X112330192Y-42758327D01*
X112472838Y-42414799D01*
X112473162Y-42042833D01*
X112331117Y-41699057D01*
X112068327Y-41435808D01*
X111724799Y-41293162D01*
X111352833Y-41292838D01*
X111009057Y-41434883D01*
X110975882Y-41468000D01*
X108490000Y-41468000D01*
X108199160Y-41525852D01*
X108167600Y-41546940D01*
X108050833Y-41546838D01*
X107707057Y-41688883D01*
X107443808Y-41951673D01*
X107301162Y-42295201D01*
X107300838Y-42667167D01*
X100710000Y-42667167D01*
X100710000Y-18200000D01*
X109552560Y-18200000D01*
X109552560Y-18900000D01*
X109596838Y-19135317D01*
X109735910Y-19351441D01*
X109948110Y-19496431D01*
X109961197Y-19499081D01*
X109748559Y-19635910D01*
X109603569Y-19848110D01*
X109552560Y-20100000D01*
X109552560Y-20800000D01*
X109596838Y-21035317D01*
X109735910Y-21251441D01*
X109948110Y-21396431D01*
X110200000Y-21447440D01*
X110850000Y-21447440D01*
X111085317Y-21403162D01*
X111301441Y-21264090D01*
X111446431Y-21051890D01*
X111497440Y-20800000D01*
X111497440Y-20100000D01*
X111453162Y-19864683D01*
X111314090Y-19648559D01*
X111101890Y-19503569D01*
X111088803Y-19500919D01*
X111301441Y-19364090D01*
X111446431Y-19151890D01*
X111497440Y-18900000D01*
X111497440Y-18200000D01*
X111453162Y-17964683D01*
X111314090Y-17748559D01*
X111101890Y-17603569D01*
X110850000Y-17552560D01*
X110200000Y-17552560D01*
X109964683Y-17596838D01*
X109748559Y-17735910D01*
X109603569Y-17948110D01*
X109552560Y-18200000D01*
X100710000Y-18200000D01*
X100710000Y-9779000D01*
X109984000Y-9779000D01*
X109984000Y-15240000D01*
X110041852Y-15530839D01*
X110206599Y-15777401D01*
X111603599Y-17174401D01*
X111850160Y-17339148D01*
X112141000Y-17397000D01*
X114112198Y-17397000D01*
X114302000Y-17586802D01*
X114302000Y-17807473D01*
X114264090Y-17748559D01*
X114051890Y-17603569D01*
X113800000Y-17552560D01*
X113150000Y-17552560D01*
X112914683Y-17596838D01*
X112698559Y-17735910D01*
X112553569Y-17948110D01*
X112502560Y-18200000D01*
X112502560Y-18447638D01*
X111730599Y-19219599D01*
X111565852Y-19466161D01*
X111508000Y-19757000D01*
X111508000Y-23329698D01*
X110880820Y-23956878D01*
X110835333Y-23956838D01*
X110491557Y-24098883D01*
X110228308Y-24361673D01*
X110085662Y-24705201D01*
X110085338Y-25077167D01*
X110227383Y-25420943D01*
X110490173Y-25684192D01*
X110833701Y-25826838D01*
X111205667Y-25827162D01*
X111549443Y-25685117D01*
X111812692Y-25422327D01*
X111955338Y-25078799D01*
X111955379Y-25031923D01*
X112805401Y-24181901D01*
X112970148Y-23935340D01*
X112991875Y-23826111D01*
X113028000Y-23644500D01*
X113028000Y-21422734D01*
X113150000Y-21447440D01*
X113800000Y-21447440D01*
X114035317Y-21403162D01*
X114251441Y-21264090D01*
X114396431Y-21051890D01*
X114438461Y-20844341D01*
X115631401Y-19651401D01*
X115796148Y-19404840D01*
X115854000Y-19114000D01*
X115854000Y-18604000D01*
X116894275Y-18604000D01*
X117161201Y-18714838D01*
X117533167Y-18715162D01*
X117802200Y-18604000D01*
X127739537Y-18604000D01*
X127771673Y-18636192D01*
X128115201Y-18778838D01*
X128487167Y-18779162D01*
X128830943Y-18637117D01*
X129094192Y-18374327D01*
X129236838Y-18030799D01*
X129237162Y-17658833D01*
X129095117Y-17315057D01*
X128832327Y-17051808D01*
X128488799Y-16909162D01*
X128116833Y-16908838D01*
X127773057Y-17050883D01*
X127739882Y-17084000D01*
X121130406Y-17084000D01*
X121490658Y-16935147D01*
X122232542Y-16194557D01*
X122634542Y-15226433D01*
X122635457Y-14178166D01*
X122235147Y-13209342D01*
X121494557Y-12467458D01*
X120526433Y-12065458D01*
X119478166Y-12064543D01*
X118509342Y-12464853D01*
X117767458Y-13205443D01*
X117365458Y-14173567D01*
X117364543Y-15221834D01*
X117764853Y-16190658D01*
X118505443Y-16932542D01*
X118870195Y-17084000D01*
X117974351Y-17084000D01*
X117878327Y-16987808D01*
X117534799Y-16845162D01*
X117162833Y-16844838D01*
X116819057Y-16986883D01*
X116721770Y-17084000D01*
X115784604Y-17084000D01*
X115764148Y-16981161D01*
X115599401Y-16734599D01*
X114964401Y-16099599D01*
X114717839Y-15934852D01*
X114427000Y-15877000D01*
X113322633Y-15877000D01*
X113456838Y-15553799D01*
X113456879Y-15506923D01*
X117149517Y-11814285D01*
X125614760Y-11814285D01*
X125825169Y-12323515D01*
X126214436Y-12713461D01*
X126723298Y-12924759D01*
X127274285Y-12925240D01*
X127783515Y-12714831D01*
X128173461Y-12325564D01*
X128384759Y-11816702D01*
X128385240Y-11265715D01*
X128174831Y-10756485D01*
X127785564Y-10366539D01*
X127276702Y-10155241D01*
X126725715Y-10154760D01*
X126216485Y-10365169D01*
X125826539Y-10754436D01*
X125615241Y-11263298D01*
X125614760Y-11814285D01*
X117149517Y-11814285D01*
X119186802Y-9777000D01*
X122387000Y-9777000D01*
X122677839Y-9719148D01*
X122924401Y-9554401D01*
X124218680Y-8260122D01*
X124264167Y-8260162D01*
X124607943Y-8118117D01*
X124871192Y-7855327D01*
X125013838Y-7511799D01*
X125014162Y-7139833D01*
X124872117Y-6796057D01*
X124810453Y-6734285D01*
X125614760Y-6734285D01*
X125825169Y-7243515D01*
X126214436Y-7633461D01*
X126723298Y-7844759D01*
X127274285Y-7845240D01*
X127783515Y-7634831D01*
X128173461Y-7245564D01*
X128384759Y-6736702D01*
X128385240Y-6185715D01*
X128174831Y-5676485D01*
X127785564Y-5286539D01*
X127276702Y-5075241D01*
X126725715Y-5074760D01*
X126216485Y-5285169D01*
X125826539Y-5674436D01*
X125615241Y-6183298D01*
X125614760Y-6734285D01*
X124810453Y-6734285D01*
X124609327Y-6532808D01*
X124265799Y-6390162D01*
X123893833Y-6389838D01*
X123550057Y-6531883D01*
X123286808Y-6794673D01*
X123144162Y-7138201D01*
X123144121Y-7185077D01*
X122072198Y-8257000D01*
X119967047Y-8257000D01*
X120203943Y-8159117D01*
X120467192Y-7896327D01*
X120609838Y-7552799D01*
X120610162Y-7180833D01*
X120468117Y-6837057D01*
X120205327Y-6573808D01*
X119861799Y-6431162D01*
X119489833Y-6430838D01*
X119146057Y-6572883D01*
X118882808Y-6835673D01*
X118740162Y-7179201D01*
X118740121Y-7226077D01*
X113696771Y-12269427D01*
X113884759Y-11816702D01*
X113885240Y-11265715D01*
X113674831Y-10756485D01*
X113285564Y-10366539D01*
X113053130Y-10270024D01*
X113283515Y-10174831D01*
X113673461Y-9785564D01*
X113884759Y-9276702D01*
X113885240Y-8725715D01*
X113674831Y-8216485D01*
X113285564Y-7826539D01*
X113053130Y-7730024D01*
X113283515Y-7634831D01*
X113673461Y-7245564D01*
X113884759Y-6736702D01*
X113885240Y-6185715D01*
X113674831Y-5676485D01*
X113285564Y-5286539D01*
X112776702Y-5075241D01*
X112225715Y-5074760D01*
X111716485Y-5285169D01*
X111326539Y-5674436D01*
X111115241Y-6183298D01*
X111114760Y-6734285D01*
X111325169Y-7243515D01*
X111714436Y-7633461D01*
X111946870Y-7729976D01*
X111716485Y-7825169D01*
X111326539Y-8214436D01*
X111297280Y-8284899D01*
X111232160Y-8297852D01*
X110985599Y-8462599D01*
X110206599Y-9241599D01*
X110041852Y-9488161D01*
X109984000Y-9779000D01*
X100710000Y-9779000D01*
X100710000Y-6557135D01*
X101654653Y-7503438D01*
X103173889Y-8134280D01*
X104818894Y-8135716D01*
X106339229Y-7507526D01*
X107503438Y-6345347D01*
X108134280Y-4826111D01*
X108135716Y-3181106D01*
X107507526Y-1660771D01*
X106558413Y-710000D01*
X119368152Y-710000D01*
X118509342Y-1064853D01*
X118509342Y-1064853D01*
G37*
X118509342Y-1064853D02*
X117767458Y-1805443D01*
X117365458Y-2773567D01*
X117364543Y-3821834D01*
X117764853Y-4790658D01*
X118505443Y-5532542D01*
X119473567Y-5934542D01*
X120521834Y-5935457D01*
X121490658Y-5535147D01*
X122232542Y-4794557D01*
X122634542Y-3826433D01*
X122635457Y-2778166D01*
X122235147Y-1809342D01*
X121494557Y-1067458D01*
X120633702Y-710000D01*
X134290000Y-710000D01*
X134290000Y-20442865D01*
X133345347Y-19496562D01*
X131826111Y-18865720D01*
X130181106Y-18864284D01*
X128660771Y-19492474D01*
X127496562Y-20654653D01*
X126865720Y-22173889D01*
X126864284Y-23818894D01*
X127492474Y-25339229D01*
X128654653Y-26503438D01*
X130173889Y-27134280D01*
X131818894Y-27135716D01*
X133339229Y-26507526D01*
X134290000Y-25558413D01*
X134290000Y-149178933D01*
X134180833Y-149178838D01*
X134014895Y-149247402D01*
X134142192Y-149120327D01*
X134284838Y-148776799D01*
X134285162Y-148404833D01*
X134143117Y-148061057D01*
X133880327Y-147797808D01*
X133536799Y-147655162D01*
X133164833Y-147654838D01*
X132821057Y-147796883D01*
X132787882Y-147830000D01*
X121547725Y-147830000D01*
X121280799Y-147719162D01*
X120908833Y-147718838D01*
X120760000Y-147780334D01*
X120760000Y-145432000D01*
X120702148Y-145141161D01*
X120537401Y-144894599D01*
X120347122Y-144704320D01*
X120347162Y-144658833D01*
X120212944Y-144334000D01*
X121383198Y-144334000D01*
X123438560Y-146389362D01*
X123438560Y-146760000D01*
X123482838Y-146995317D01*
X123621910Y-147211441D01*
X123834110Y-147356431D01*
X124086000Y-147407440D01*
X126086000Y-147407440D01*
X126321317Y-147363162D01*
X126537441Y-147224090D01*
X126682431Y-147011890D01*
X126733440Y-146760000D01*
X126733440Y-144960000D01*
X126689162Y-144724683D01*
X126550090Y-144508559D01*
X126337890Y-144363569D01*
X126086000Y-144312560D01*
X124086000Y-144312560D01*
X123850683Y-144356838D01*
X123671160Y-144472358D01*
X122235401Y-143036599D01*
X121988839Y-142871852D01*
X121698000Y-142814000D01*
X116164463Y-142814000D01*
X116132327Y-142781808D01*
X115788799Y-142639162D01*
X115416833Y-142638838D01*
X115073057Y-142780883D01*
X114887908Y-142965709D01*
X114704327Y-142781808D01*
X114360799Y-142639162D01*
X114076000Y-142638914D01*
X114076000Y-142206802D01*
X114313680Y-141969122D01*
X114359167Y-141969162D01*
X114702943Y-141827117D01*
X114966192Y-141564327D01*
X115108838Y-141220799D01*
X115108895Y-141155167D01*
X124540838Y-141155167D01*
X124564147Y-141211579D01*
X124596838Y-141385317D01*
X124735910Y-141601441D01*
X124890956Y-141707379D01*
X124943776Y-141760291D01*
X124748559Y-141885910D01*
X124603569Y-142098110D01*
X124552560Y-142350000D01*
X124552560Y-143050000D01*
X124596838Y-143285317D01*
X124735910Y-143501441D01*
X124948110Y-143646431D01*
X125200000Y-143697440D01*
X125850000Y-143697440D01*
X126085317Y-143653162D01*
X126301441Y-143514090D01*
X126446431Y-143301890D01*
X126497440Y-143050000D01*
X126497440Y-142350000D01*
X126453162Y-142114683D01*
X126314090Y-141898559D01*
X126101890Y-141753569D01*
X126088803Y-141750919D01*
X126301441Y-141614090D01*
X126446431Y-141401890D01*
X126497440Y-141150000D01*
X126497440Y-140450000D01*
X127502560Y-140450000D01*
X127502560Y-141150000D01*
X127546838Y-141385317D01*
X127685910Y-141601441D01*
X127898110Y-141746431D01*
X127911197Y-141749081D01*
X127698559Y-141885910D01*
X127553569Y-142098110D01*
X127502560Y-142350000D01*
X127502560Y-143050000D01*
X127546838Y-143285317D01*
X127685910Y-143501441D01*
X127898110Y-143646431D01*
X128150000Y-143697440D01*
X128397638Y-143697440D01*
X128726000Y-144025802D01*
X128726000Y-144212560D01*
X128586000Y-144212560D01*
X128350683Y-144256838D01*
X128134559Y-144395910D01*
X127989569Y-144608110D01*
X127938560Y-144860000D01*
X127938560Y-146860000D01*
X127982838Y-147095317D01*
X128121910Y-147311441D01*
X128334110Y-147456431D01*
X128586000Y-147507440D01*
X130386000Y-147507440D01*
X130621317Y-147463162D01*
X130837441Y-147324090D01*
X130982431Y-147111890D01*
X131033440Y-146860000D01*
X131033440Y-144860000D01*
X130989162Y-144624683D01*
X130850090Y-144408559D01*
X130637890Y-144263569D01*
X130386000Y-144212560D01*
X130246000Y-144212560D01*
X130246000Y-143711000D01*
X130188148Y-143420161D01*
X130023401Y-143173599D01*
X129447440Y-142597638D01*
X129447440Y-142350000D01*
X129403162Y-142114683D01*
X129264090Y-141898559D01*
X129051890Y-141753569D01*
X129038803Y-141750919D01*
X129251441Y-141614090D01*
X129396431Y-141401890D01*
X129447440Y-141150000D01*
X129447440Y-140450000D01*
X129403162Y-140214683D01*
X129264090Y-139998559D01*
X129051890Y-139853569D01*
X128800000Y-139802560D01*
X128150000Y-139802560D01*
X127914683Y-139846838D01*
X127698559Y-139985910D01*
X127553569Y-140198110D01*
X127502560Y-140450000D01*
X126497440Y-140450000D01*
X126453162Y-140214683D01*
X126314090Y-139998559D01*
X126101890Y-139853569D01*
X125850000Y-139802560D01*
X125200000Y-139802560D01*
X124964683Y-139846838D01*
X124748559Y-139985910D01*
X124603569Y-140198110D01*
X124552560Y-140450000D01*
X124552560Y-140755752D01*
X124541162Y-140783201D01*
X124540838Y-141155167D01*
X115108895Y-141155167D01*
X115109162Y-140848833D01*
X114967117Y-140505057D01*
X114704327Y-140241808D01*
X114360799Y-140099162D01*
X113988833Y-140098838D01*
X113645057Y-140240883D01*
X113381808Y-140503673D01*
X113314000Y-140666972D01*
X113314000Y-140428802D01*
X114313680Y-139429122D01*
X114359167Y-139429162D01*
X114702943Y-139287117D01*
X114966192Y-139024327D01*
X115108838Y-138680799D01*
X115109162Y-138308833D01*
X114967117Y-137965057D01*
X114732470Y-137730000D01*
X123730000Y-137730000D01*
X124020839Y-137672148D01*
X124267401Y-137507401D01*
X125369401Y-136405401D01*
X125485638Y-136231440D01*
X125832000Y-136231440D01*
X126067317Y-136187162D01*
X126283441Y-136048090D01*
X126428431Y-135835890D01*
X126479440Y-135584000D01*
X126479440Y-133784000D01*
X126435162Y-133548683D01*
X126296090Y-133332559D01*
X126083890Y-133187569D01*
X125832000Y-133136560D01*
X123832000Y-133136560D01*
X123596683Y-133180838D01*
X123380559Y-133319910D01*
X123235569Y-133532110D01*
X123184560Y-133784000D01*
X123184560Y-135584000D01*
X123228838Y-135819317D01*
X123367910Y-136035441D01*
X123499705Y-136125493D01*
X123415198Y-136210000D01*
X111549944Y-136210000D01*
X111671317Y-136187162D01*
X111887441Y-136048090D01*
X112032431Y-135835890D01*
X112083440Y-135584000D01*
X112083440Y-133784000D01*
X112039162Y-133548683D01*
X111900090Y-133332559D01*
X111687890Y-133187569D01*
X111436000Y-133136560D01*
X109436000Y-133136560D01*
X109200683Y-133180838D01*
X108984559Y-133319910D01*
X108839569Y-133532110D01*
X108788560Y-133784000D01*
X108788560Y-135448000D01*
X107583440Y-135448000D01*
X107583440Y-133684000D01*
X107539162Y-133448683D01*
X107400090Y-133232559D01*
X107187890Y-133087569D01*
X106936000Y-133036560D01*
X106796000Y-133036560D01*
X106796000Y-132447440D01*
X106850000Y-132447440D01*
X107085317Y-132403162D01*
X107301441Y-132264090D01*
X107446431Y-132051890D01*
X107497440Y-131800000D01*
X107497440Y-131100000D01*
X107453162Y-130864683D01*
X107314090Y-130648559D01*
X107101890Y-130503569D01*
X107088803Y-130500919D01*
X107301441Y-130364090D01*
X107446431Y-130151890D01*
X107497440Y-129900000D01*
X107497440Y-129200000D01*
X107453162Y-128964683D01*
X107314090Y-128748559D01*
X107101890Y-128603569D01*
X106850000Y-128552560D01*
X106200000Y-128552560D01*
X105964683Y-128596838D01*
X105748559Y-128735910D01*
X105603569Y-128948110D01*
X105552560Y-129200000D01*
X105552560Y-129900000D01*
X105596838Y-130135317D01*
X105735910Y-130351441D01*
X105948110Y-130496431D01*
X105961197Y-130499081D01*
X105748559Y-130635910D01*
X105603569Y-130848110D01*
X105552560Y-131100000D01*
X105552560Y-131347638D01*
X105498599Y-131401599D01*
X105333852Y-131648161D01*
X105276000Y-131939000D01*
X105276000Y-133036560D01*
X105136000Y-133036560D01*
X104900683Y-133080838D01*
X104684559Y-133219910D01*
X104539569Y-133432110D01*
X104488560Y-133684000D01*
X104488560Y-135448000D01*
X102194463Y-135448000D01*
X102162327Y-135415808D01*
X101818799Y-135273162D01*
X101760000Y-135273111D01*
X101760000Y-135000000D01*
X101702148Y-134709161D01*
X101537401Y-134462599D01*
X101290839Y-134297852D01*
X101000000Y-134240000D01*
X100710000Y-134297685D01*
X100710000Y-128696889D01*
X101023167Y-128697162D01*
X101366943Y-128555117D01*
X101400118Y-128522000D01*
X123403403Y-128522000D01*
X123412883Y-128544943D01*
X123675673Y-128808192D01*
X124019201Y-128950838D01*
X124391167Y-128951162D01*
X124684218Y-128830076D01*
X124603569Y-128948110D01*
X124552560Y-129200000D01*
X124552560Y-129447638D01*
X124260198Y-129740000D01*
X116682863Y-129740000D01*
X116550799Y-129685162D01*
X116178833Y-129684838D01*
X115835057Y-129826883D01*
X115801882Y-129860000D01*
X110868802Y-129860000D01*
X110447440Y-129438638D01*
X110447440Y-129200000D01*
X110403162Y-128964683D01*
X110264090Y-128748559D01*
X110051890Y-128603569D01*
X109800000Y-128552560D01*
X109150000Y-128552560D01*
X108914683Y-128596838D01*
X108698559Y-128735910D01*
X108553569Y-128948110D01*
X108502560Y-129200000D01*
X108502560Y-129900000D01*
X108546838Y-130135317D01*
X108685910Y-130351441D01*
X108898110Y-130496431D01*
X108911197Y-130499081D01*
X108698559Y-130635910D01*
X108553569Y-130848110D01*
X108502560Y-131100000D01*
X108502560Y-131800000D01*
X108546838Y-132035317D01*
X108685910Y-132251441D01*
X108898110Y-132396431D01*
X109150000Y-132447440D01*
X109800000Y-132447440D01*
X110035317Y-132403162D01*
X110251441Y-132264090D01*
X110396431Y-132051890D01*
X110447440Y-131800000D01*
X110447440Y-131358804D01*
X110554000Y-131380000D01*
X115801537Y-131380000D01*
X115833673Y-131412192D01*
X116177201Y-131554838D01*
X116549167Y-131555162D01*
X116892943Y-131413117D01*
X117046327Y-131260000D01*
X124552560Y-131260000D01*
X124552560Y-131800000D01*
X124596838Y-132035317D01*
X124735910Y-132251441D01*
X124948110Y-132396431D01*
X125200000Y-132447440D01*
X125850000Y-132447440D01*
X126085317Y-132403162D01*
X126301441Y-132264090D01*
X126446431Y-132051890D01*
X126497440Y-131800000D01*
X126497440Y-131100000D01*
X126453162Y-130864683D01*
X126314090Y-130648559D01*
X126101890Y-130503569D01*
X126088803Y-130500919D01*
X126301441Y-130364090D01*
X126446431Y-130151890D01*
X126497440Y-129900000D01*
X126497440Y-129200000D01*
X127502560Y-129200000D01*
X127502560Y-129900000D01*
X127546838Y-130135317D01*
X127685910Y-130351441D01*
X127898110Y-130496431D01*
X127911197Y-130499081D01*
X127698559Y-130635910D01*
X127553569Y-130848110D01*
X127502560Y-131100000D01*
X127502560Y-131800000D01*
X127546838Y-132035317D01*
X127685910Y-132251441D01*
X127898110Y-132396431D01*
X128150000Y-132447440D01*
X128397638Y-132447440D01*
X128472000Y-132521802D01*
X128472000Y-133036560D01*
X128332000Y-133036560D01*
X128096683Y-133080838D01*
X127880559Y-133219910D01*
X127735569Y-133432110D01*
X127684560Y-133684000D01*
X127684560Y-135684000D01*
X127728838Y-135919317D01*
X127867910Y-136135441D01*
X128080110Y-136280431D01*
X128332000Y-136331440D01*
X130132000Y-136331440D01*
X130367317Y-136287162D01*
X130583441Y-136148090D01*
X130728431Y-135935890D01*
X130779440Y-135684000D01*
X130779440Y-133684000D01*
X130735162Y-133448683D01*
X130596090Y-133232559D01*
X130383890Y-133087569D01*
X130132000Y-133036560D01*
X129992000Y-133036560D01*
X129992000Y-132207000D01*
X129934148Y-131916161D01*
X129769401Y-131669599D01*
X129447440Y-131347638D01*
X129447440Y-131100000D01*
X129403162Y-130864683D01*
X129264090Y-130648559D01*
X129051890Y-130503569D01*
X129038803Y-130500919D01*
X129251441Y-130364090D01*
X129396431Y-130151890D01*
X129447440Y-129900000D01*
X129447440Y-129200000D01*
X129403162Y-128964683D01*
X129264090Y-128748559D01*
X129051890Y-128603569D01*
X128800000Y-128552560D01*
X128150000Y-128552560D01*
X127914683Y-128596838D01*
X127698559Y-128735910D01*
X127553569Y-128948110D01*
X127502560Y-129200000D01*
X126497440Y-129200000D01*
X126453162Y-128964683D01*
X126314090Y-128748559D01*
X126101890Y-128603569D01*
X125850000Y-128552560D01*
X125200000Y-128552560D01*
X124964683Y-128596838D01*
X124916595Y-128627782D01*
X124998192Y-128546327D01*
X125140838Y-128202799D01*
X125141162Y-127830833D01*
X125006944Y-127506000D01*
X131263537Y-127506000D01*
X131295673Y-127538192D01*
X131639201Y-127680838D01*
X132011167Y-127681162D01*
X132354943Y-127539117D01*
X132618192Y-127276327D01*
X132760838Y-126932799D01*
X132761162Y-126560833D01*
X132619117Y-126217057D01*
X132356327Y-125953808D01*
X132012799Y-125811162D01*
X131640833Y-125810838D01*
X131297057Y-125952883D01*
X131263882Y-125986000D01*
X120710802Y-125986000D01*
X120661387Y-125936585D01*
X120794000Y-125963440D01*
X122094000Y-125963440D01*
X122329317Y-125919162D01*
X122545441Y-125780090D01*
X122690431Y-125567890D01*
X122741440Y-125316000D01*
X122741440Y-124616000D01*
X122697162Y-124380683D01*
X122558090Y-124164559D01*
X122345890Y-124019569D01*
X122332803Y-124016919D01*
X122545441Y-123880090D01*
X122690431Y-123667890D01*
X122741440Y-123416000D01*
X122741440Y-122716000D01*
X122697162Y-122480683D01*
X122558090Y-122264559D01*
X122345890Y-122119569D01*
X122094000Y-122068560D01*
X122008408Y-122068560D01*
X122358735Y-121718845D01*
X122540205Y-121281818D01*
X122719995Y-121716943D01*
X123081155Y-122078735D01*
X123553276Y-122274777D01*
X124064481Y-122275223D01*
X124536943Y-122080005D01*
X124898735Y-121718845D01*
X125080205Y-121281818D01*
X125259995Y-121716943D01*
X125621155Y-122078735D01*
X126093276Y-122274777D01*
X126604481Y-122275223D01*
X127076943Y-122080005D01*
X127268266Y-121889016D01*
X128170590Y-121889016D01*
X128226271Y-122119611D01*
X128709078Y-122287622D01*
X129219428Y-122258083D01*
X129553729Y-122119611D01*
X129609410Y-121889016D01*
X128890000Y-121169605D01*
X128170590Y-121889016D01*
X127268266Y-121889016D01*
X127438735Y-121718845D01*
X127619797Y-121282800D01*
X127621917Y-121319428D01*
X127760389Y-121653729D01*
X127990984Y-121709410D01*
X128710395Y-120990000D01*
X129069605Y-120990000D01*
X129789016Y-121709410D01*
X130019611Y-121653729D01*
X130187622Y-121170922D01*
X130158083Y-120660572D01*
X130019611Y-120326271D01*
X129789016Y-120270590D01*
X129069605Y-120990000D01*
X128710395Y-120990000D01*
X127990984Y-120270590D01*
X127760389Y-120326271D01*
X127625861Y-120712860D01*
X127440005Y-120263057D01*
X127268233Y-120090984D01*
X128170590Y-120090984D01*
X128890000Y-120810395D01*
X129609410Y-120090984D01*
X129553729Y-119860389D01*
X129070922Y-119692378D01*
X128560572Y-119721917D01*
X128226271Y-119860389D01*
X128170590Y-120090984D01*
X127268233Y-120090984D01*
X127078845Y-119901265D01*
X126606724Y-119705223D01*
X126095519Y-119704777D01*
X125623057Y-119899995D01*
X125261265Y-120261155D01*
X125079795Y-120698182D01*
X124900005Y-120263057D01*
X124538845Y-119901265D01*
X124066724Y-119705223D01*
X123555519Y-119704777D01*
X123083057Y-119899995D01*
X122721265Y-120261155D01*
X122539795Y-120698182D01*
X122360005Y-120263057D01*
X121998845Y-119901265D01*
X121526724Y-119705223D01*
X121015519Y-119704777D01*
X120543057Y-119899995D01*
X120181265Y-120261155D01*
X119999795Y-120698182D01*
X119820005Y-120263057D01*
X119458845Y-119901265D01*
X118986724Y-119705223D01*
X118475519Y-119704777D01*
X118003057Y-119899995D01*
X117641265Y-120261155D01*
X117459795Y-120698182D01*
X117280005Y-120263057D01*
X116918845Y-119901265D01*
X116446724Y-119705223D01*
X115935519Y-119704777D01*
X115463057Y-119899995D01*
X115101265Y-120261155D01*
X114919795Y-120698182D01*
X114740005Y-120263057D01*
X114378845Y-119901265D01*
X113906724Y-119705223D01*
X113395519Y-119704777D01*
X112923057Y-119899995D01*
X112561265Y-120261155D01*
X112379795Y-120698182D01*
X112200005Y-120263057D01*
X111838845Y-119901265D01*
X111366724Y-119705223D01*
X110855519Y-119704777D01*
X110383057Y-119899995D01*
X110021265Y-120261155D01*
X109825223Y-120733276D01*
X109824777Y-121244481D01*
X110019995Y-121716943D01*
X110381155Y-122078735D01*
X110853276Y-122274777D01*
X111364481Y-122275223D01*
X111836943Y-122080005D01*
X112198735Y-121718845D01*
X112380205Y-121281818D01*
X112559995Y-121716943D01*
X112921155Y-122078735D01*
X113393276Y-122274777D01*
X113904481Y-122275223D01*
X114376943Y-122080005D01*
X114738735Y-121718845D01*
X114920205Y-121281818D01*
X115099995Y-121716943D01*
X115430000Y-122047525D01*
X115430000Y-123048000D01*
X115487852Y-123338839D01*
X115652599Y-123585401D01*
X116339198Y-124272000D01*
X114386463Y-124272000D01*
X114354327Y-124239808D01*
X114010799Y-124097162D01*
X113638833Y-124096838D01*
X113295057Y-124238883D01*
X113031808Y-124501673D01*
X112889162Y-124845201D01*
X112888838Y-125217167D01*
X113030883Y-125560943D01*
X113293673Y-125824192D01*
X113637201Y-125966838D01*
X114009167Y-125967162D01*
X114352943Y-125825117D01*
X114386118Y-125792000D01*
X116303198Y-125792000D01*
X116444878Y-125933680D01*
X116444842Y-125974826D01*
X116343057Y-126016883D01*
X116309882Y-126050000D01*
X112360802Y-126050000D01*
X111837137Y-125526335D01*
X111964838Y-125218799D01*
X111965162Y-124846833D01*
X111823117Y-124503057D01*
X111560327Y-124239808D01*
X111216799Y-124097162D01*
X110844833Y-124096838D01*
X110501057Y-124238883D01*
X110237808Y-124501673D01*
X110095162Y-124845201D01*
X110094838Y-125217167D01*
X110236883Y-125560943D01*
X110270000Y-125594118D01*
X110270000Y-125794000D01*
X110327852Y-126084839D01*
X110492599Y-126331401D01*
X111163198Y-127002000D01*
X101400463Y-127002000D01*
X101368327Y-126969808D01*
X101024799Y-126827162D01*
X100710000Y-126826888D01*
X100710000Y-105750000D01*
X105955000Y-105750000D01*
X107024112Y-111124789D01*
X110068685Y-115681315D01*
X114625211Y-118725888D01*
X120000000Y-119795000D01*
X125374789Y-118725888D01*
X129931315Y-115681315D01*
X132975888Y-111124789D01*
X134045000Y-105750000D01*
X132975888Y-100375211D01*
X129931315Y-95818685D01*
X125374789Y-92774112D01*
X120000000Y-91705000D01*
X114625211Y-92774112D01*
X110068685Y-95818685D01*
X107024112Y-100375211D01*
X105955000Y-105750000D01*
X100710000Y-105750000D01*
X100710000Y-84577167D01*
X107300838Y-84577167D01*
X107442883Y-84920943D01*
X107705673Y-85184192D01*
X108049201Y-85326838D01*
X108421167Y-85327162D01*
X108764943Y-85185117D01*
X108798118Y-85152000D01*
X120541537Y-85152000D01*
X120573673Y-85184192D01*
X120917201Y-85326838D01*
X121289167Y-85327162D01*
X121632943Y-85185117D01*
X121896192Y-84922327D01*
X122038838Y-84578799D01*
X122039162Y-84206833D01*
X121897117Y-83863057D01*
X121634327Y-83599808D01*
X121290799Y-83457162D01*
X120918833Y-83456838D01*
X120575057Y-83598883D01*
X120541882Y-83632000D01*
X108798463Y-83632000D01*
X108766327Y-83599808D01*
X108422799Y-83457162D01*
X108050833Y-83456838D01*
X107707057Y-83598883D01*
X107443808Y-83861673D01*
X107301162Y-84205201D01*
X107300838Y-84577167D01*
X100710000Y-84577167D01*
X100710000Y-75877167D01*
X104220838Y-75877167D01*
X104362883Y-76220943D01*
X104625673Y-76484192D01*
X104969201Y-76626838D01*
X105341167Y-76627162D01*
X105684943Y-76485117D01*
X105718118Y-76452000D01*
X111180605Y-76452000D01*
X111351201Y-76522838D01*
X111723167Y-76523162D01*
X112066943Y-76381117D01*
X112330192Y-76118327D01*
X112472838Y-75774799D01*
X112473162Y-75402833D01*
X112331117Y-75059057D01*
X112068327Y-74795808D01*
X111724799Y-74653162D01*
X111352833Y-74652838D01*
X111009057Y-74794883D01*
X110871701Y-74932000D01*
X105718463Y-74932000D01*
X105686327Y-74899808D01*
X105342799Y-74757162D01*
X104970833Y-74756838D01*
X104627057Y-74898883D01*
X104363808Y-75161673D01*
X104221162Y-75505201D01*
X104220838Y-75877167D01*
X100710000Y-75877167D01*
X100710000Y-69083167D01*
X106538838Y-69083167D01*
X106680883Y-69426943D01*
X106943673Y-69690192D01*
X107287201Y-69832838D01*
X107659167Y-69833162D01*
X108002943Y-69691117D01*
X108036118Y-69658000D01*
X111137256Y-69658000D01*
X111351201Y-69746838D01*
X111723167Y-69747162D01*
X112066943Y-69605117D01*
X112330192Y-69342327D01*
X112472838Y-68998799D01*
X112473162Y-68626833D01*
X112331117Y-68283057D01*
X112068327Y-68019808D01*
X111724799Y-67877162D01*
X111352833Y-67876838D01*
X111009057Y-68018883D01*
X110889732Y-68138000D01*
X108036463Y-68138000D01*
X108004327Y-68105808D01*
X107660799Y-67963162D01*
X107288833Y-67962838D01*
X106945057Y-68104883D01*
X106681808Y-68367673D01*
X106539162Y-68711201D01*
X106538838Y-69083167D01*
X100710000Y-69083167D01*
X100710000Y-50477167D01*
X103458838Y-50477167D01*
X103600883Y-50820943D01*
X103863673Y-51084192D01*
X104207201Y-51226838D01*
X104579167Y-51227162D01*
X104922943Y-51085117D01*
X104956118Y-51052000D01*
X109961842Y-51052000D01*
X109844046Y-51228295D01*
X109790000Y-51500000D01*
X109790000Y-61500000D01*
X109844046Y-61771705D01*
X109997954Y-62002046D01*
X110228295Y-62155954D01*
X110500000Y-62210000D01*
X113690248Y-62210000D01*
X113535241Y-62583298D01*
X113534760Y-63134285D01*
X113745169Y-63643515D01*
X114134436Y-64033461D01*
X114232065Y-64074000D01*
X107274463Y-64074000D01*
X107242327Y-64041808D01*
X106898799Y-63899162D01*
X106526833Y-63898838D01*
X106183057Y-64040883D01*
X105919808Y-64303673D01*
X105777162Y-64647201D01*
X105776838Y-65019167D01*
X105918883Y-65362943D01*
X106181673Y-65626192D01*
X106525201Y-65768838D01*
X106897167Y-65769162D01*
X107240943Y-65627117D01*
X107274118Y-65594000D01*
X112574000Y-65594000D01*
X112574000Y-79248000D01*
X112628046Y-79519705D01*
X112660315Y-79568000D01*
X106512463Y-79568000D01*
X106480327Y-79535808D01*
X106136799Y-79393162D01*
X105764833Y-79392838D01*
X105421057Y-79534883D01*
X105157808Y-79797673D01*
X105015162Y-80141201D01*
X105014838Y-80513167D01*
X105156883Y-80856943D01*
X105419673Y-81120192D01*
X105763201Y-81262838D01*
X106135167Y-81263162D01*
X106478943Y-81121117D01*
X106512118Y-81088000D01*
X113522560Y-81088000D01*
X113522560Y-82390000D01*
X113566838Y-82625317D01*
X113705910Y-82841441D01*
X113918110Y-82986431D01*
X114170000Y-83037440D01*
X115670000Y-83037440D01*
X115905317Y-82993162D01*
X116121441Y-82854090D01*
X116266431Y-82641890D01*
X116306355Y-82444738D01*
X116674436Y-82813461D01*
X117183298Y-83024759D01*
X117734285Y-83025240D01*
X118243515Y-82814831D01*
X118633461Y-82425564D01*
X118729976Y-82193130D01*
X118825169Y-82423515D01*
X119214436Y-82813461D01*
X119723298Y-83024759D01*
X120274285Y-83025240D01*
X120783515Y-82814831D01*
X121173461Y-82425564D01*
X121184076Y-82400000D01*
X121355453Y-82400000D01*
X121365169Y-82423515D01*
X121754436Y-82813461D01*
X121808203Y-82835787D01*
X121837852Y-82984839D01*
X122002599Y-83231401D01*
X122684599Y-83913401D01*
X122931161Y-84078148D01*
X123222000Y-84136000D01*
X129771537Y-84136000D01*
X129803673Y-84168192D01*
X130147201Y-84310838D01*
X130519167Y-84311162D01*
X130862943Y-84169117D01*
X131126192Y-83906327D01*
X131268838Y-83562799D01*
X131269162Y-83190833D01*
X131127117Y-82847057D01*
X130864327Y-82583808D01*
X130520799Y-82441162D01*
X130148833Y-82440838D01*
X129805057Y-82582883D01*
X129771882Y-82616000D01*
X126062693Y-82616000D01*
X126253461Y-82425564D01*
X126464759Y-81916702D01*
X126465240Y-81365715D01*
X126350491Y-81088000D01*
X127032000Y-81088000D01*
X127322839Y-81030148D01*
X127569401Y-80865401D01*
X127823401Y-80611401D01*
X127988148Y-80364840D01*
X128046000Y-80074000D01*
X128046000Y-77172802D01*
X128695680Y-76523122D01*
X128741167Y-76523162D01*
X129084943Y-76381117D01*
X129348192Y-76118327D01*
X129490838Y-75774799D01*
X129491162Y-75402833D01*
X129349117Y-75059057D01*
X129086327Y-74795808D01*
X128742799Y-74653162D01*
X128370833Y-74652838D01*
X128027057Y-74794883D01*
X127763808Y-75057673D01*
X127621162Y-75401201D01*
X127621121Y-75448077D01*
X127456000Y-75613198D01*
X127456000Y-68759688D01*
X127510599Y-68841401D01*
X127620878Y-68951680D01*
X127620838Y-68997167D01*
X127762883Y-69340943D01*
X128025673Y-69604192D01*
X128369201Y-69746838D01*
X128741167Y-69747162D01*
X129084943Y-69605117D01*
X129348192Y-69342327D01*
X129490838Y-68998799D01*
X129491162Y-68626833D01*
X129349117Y-68283057D01*
X129086327Y-68019808D01*
X128808000Y-67904236D01*
X128808000Y-65342000D01*
X128757078Y-65086000D01*
X129771537Y-65086000D01*
X129803673Y-65118192D01*
X130147201Y-65260838D01*
X130519167Y-65261162D01*
X130862943Y-65119117D01*
X131126192Y-64856327D01*
X131268838Y-64512799D01*
X131269162Y-64140833D01*
X131127117Y-63797057D01*
X130864327Y-63533808D01*
X130520799Y-63391162D01*
X130148833Y-63390838D01*
X129805057Y-63532883D01*
X129771882Y-63566000D01*
X126286499Y-63566000D01*
X126464759Y-63136702D01*
X126465240Y-62585715D01*
X126309998Y-62210000D01*
X129500000Y-62210000D01*
X129771705Y-62155954D01*
X130002046Y-62002046D01*
X130155954Y-61771705D01*
X130210000Y-61500000D01*
X130210000Y-51500000D01*
X130155954Y-51228295D01*
X130002046Y-50997954D01*
X129771705Y-50844046D01*
X129500000Y-50790000D01*
X121738244Y-50790000D01*
X121896192Y-50632327D01*
X122038838Y-50288799D01*
X122039162Y-49916833D01*
X121897117Y-49573057D01*
X121634327Y-49309808D01*
X121290799Y-49167162D01*
X120918833Y-49166838D01*
X120575057Y-49308883D01*
X120351550Y-49532000D01*
X104956463Y-49532000D01*
X104924327Y-49499808D01*
X104580799Y-49357162D01*
X104208833Y-49356838D01*
X103865057Y-49498883D01*
X103601808Y-49761673D01*
X103459162Y-50105201D01*
X103458838Y-50477167D01*
X100710000Y-50477167D01*
X100710000Y-46223167D01*
X107300838Y-46223167D01*
X107442883Y-46566943D01*
X107705673Y-46830192D01*
X108049201Y-46972838D01*
X108421167Y-46973162D01*
X108764943Y-46831117D01*
X109028192Y-46568327D01*
X109038294Y-46544000D01*
X113637872Y-46544000D01*
X113573569Y-46638110D01*
X113522560Y-46890000D01*
X113522560Y-48390000D01*
X113566838Y-48625317D01*
X113705910Y-48841441D01*
X113918110Y-48986431D01*
X114170000Y-49037440D01*
X115670000Y-49037440D01*
X115905317Y-48993162D01*
X116121441Y-48854090D01*
X116266431Y-48641890D01*
X116306355Y-48444738D01*
X116674436Y-48813461D01*
X117183298Y-49024759D01*
X117734285Y-49025240D01*
X118243515Y-48814831D01*
X118633461Y-48425564D01*
X118729976Y-48193130D01*
X118825169Y-48423515D01*
X119214436Y-48813461D01*
X119723298Y-49024759D01*
X120274285Y-49025240D01*
X120783515Y-48814831D01*
X121173461Y-48425564D01*
X121269976Y-48193130D01*
X121365169Y-48423515D01*
X121754436Y-48813461D01*
X122263298Y-49024759D01*
X122340024Y-49024826D01*
X122938599Y-49623401D01*
X123185161Y-49788148D01*
X123476000Y-49846000D01*
X130533537Y-49846000D01*
X130565673Y-49878192D01*
X130909201Y-50020838D01*
X131281167Y-50021162D01*
X131624943Y-49879117D01*
X131888192Y-49616327D01*
X132030838Y-49272799D01*
X132031162Y-48900833D01*
X131889117Y-48557057D01*
X131626327Y-48293808D01*
X131282799Y-48151162D01*
X130910833Y-48150838D01*
X130567057Y-48292883D01*
X130533882Y-48326000D01*
X126294804Y-48326000D01*
X126464759Y-47916702D01*
X126465240Y-47365715D01*
X126335616Y-47052000D01*
X129771537Y-47052000D01*
X129803673Y-47084192D01*
X130147201Y-47226838D01*
X130519167Y-47227162D01*
X130862943Y-47085117D01*
X131126192Y-46822327D01*
X131268838Y-46478799D01*
X131269162Y-46106833D01*
X131127117Y-45763057D01*
X130864327Y-45499808D01*
X130520799Y-45357162D01*
X130148833Y-45356838D01*
X129805057Y-45498883D01*
X129771882Y-45532000D01*
X128612802Y-45532000D01*
X129093401Y-45051401D01*
X129258148Y-44804840D01*
X129316000Y-44514000D01*
X129316000Y-42790463D01*
X129348192Y-42758327D01*
X129490838Y-42414799D01*
X129491162Y-42042833D01*
X129349117Y-41699057D01*
X129086327Y-41435808D01*
X128742799Y-41293162D01*
X128370833Y-41292838D01*
X128027057Y-41434883D01*
X127763808Y-41697673D01*
X127621162Y-42041201D01*
X127620838Y-42413167D01*
X127762883Y-42756943D01*
X127796000Y-42790118D01*
X127796000Y-44199198D01*
X127456000Y-44539198D01*
X127456000Y-31534802D01*
X127796000Y-31874802D01*
X127796000Y-34299537D01*
X127763808Y-34331673D01*
X127621162Y-34675201D01*
X127620838Y-35047167D01*
X127762883Y-35390943D01*
X128025673Y-35654192D01*
X128369201Y-35796838D01*
X128741167Y-35797162D01*
X129084943Y-35655117D01*
X129348192Y-35392327D01*
X129490838Y-35048799D01*
X129491162Y-34676833D01*
X129349117Y-34333057D01*
X129316000Y-34299882D01*
X129316000Y-31560000D01*
X129258148Y-31269161D01*
X129093401Y-31022599D01*
X128866802Y-30796000D01*
X129032000Y-30796000D01*
X129322839Y-30738148D01*
X129332040Y-30732000D01*
X129771537Y-30732000D01*
X129803673Y-30764192D01*
X130147201Y-30906838D01*
X130519167Y-30907162D01*
X130862943Y-30765117D01*
X131126192Y-30502327D01*
X131268838Y-30158799D01*
X131269162Y-29786833D01*
X131127117Y-29443057D01*
X130864327Y-29179808D01*
X130520799Y-29037162D01*
X130148833Y-29036838D01*
X129805057Y-29178883D01*
X129771882Y-29212000D01*
X129032000Y-29212000D01*
X128741161Y-29269852D01*
X128731960Y-29276000D01*
X126406917Y-29276000D01*
X126464759Y-29136702D01*
X126465240Y-28585715D01*
X126254831Y-28076485D01*
X125865564Y-27686539D01*
X125356702Y-27475241D01*
X124805715Y-27474760D01*
X124296485Y-27685169D01*
X123906539Y-28074436D01*
X123810024Y-28306870D01*
X123714831Y-28076485D01*
X123325564Y-27686539D01*
X122816702Y-27475241D01*
X122265715Y-27474760D01*
X121756485Y-27685169D01*
X121366539Y-28074436D01*
X121270024Y-28306870D01*
X121174831Y-28076485D01*
X120785564Y-27686539D01*
X120276702Y-27475241D01*
X119725715Y-27474760D01*
X119216485Y-27685169D01*
X118826539Y-28074436D01*
X118730024Y-28306870D01*
X118634831Y-28076485D01*
X118245564Y-27686539D01*
X117736702Y-27475241D01*
X117185715Y-27474760D01*
X116676485Y-27685169D01*
X116286539Y-28074436D01*
X116190024Y-28306870D01*
X116094831Y-28076485D01*
X115705564Y-27686539D01*
X115196702Y-27475241D01*
X114645715Y-27474760D01*
X114136485Y-27685169D01*
X113746539Y-28074436D01*
X113535241Y-28583298D01*
X113534760Y-29134285D01*
X113745169Y-29643515D01*
X113885409Y-29784000D01*
X109560463Y-29784000D01*
X109528327Y-29751808D01*
X109184799Y-29609162D01*
X108812833Y-29608838D01*
X108469057Y-29750883D01*
X108205808Y-30013673D01*
X108063162Y-30357201D01*
X108062838Y-30729167D01*
X108204883Y-31072943D01*
X108467673Y-31336192D01*
X108811201Y-31478838D01*
X109183167Y-31479162D01*
X109526943Y-31337117D01*
X109560118Y-31304000D01*
X112574000Y-31304000D01*
X112574000Y-45024000D01*
X108490000Y-45024000D01*
X108199160Y-45081852D01*
X108167600Y-45102940D01*
X108050833Y-45102838D01*
X107707057Y-45244883D01*
X107443808Y-45507673D01*
X107301162Y-45851201D01*
X107300838Y-46223167D01*
X100710000Y-46223167D01*
X100710000Y-42667167D01*
X107300838Y-42667167D01*
X107442883Y-43010943D01*
X107705673Y-43274192D01*
X108049201Y-43416838D01*
X108421167Y-43417162D01*
X108764943Y-43275117D01*
X109028192Y-43012327D01*
X109038294Y-42988000D01*
X110975537Y-42988000D01*
X111007673Y-43020192D01*
X111351201Y-43162838D01*
X111723167Y-43163162D01*
X112066943Y-43021117D01*
X112330192Y-42758327D01*
X112472838Y-42414799D01*
X112473162Y-42042833D01*
X112331117Y-41699057D01*
X112068327Y-41435808D01*
X111724799Y-41293162D01*
X111352833Y-41292838D01*
X111009057Y-41434883D01*
X110975882Y-41468000D01*
X108490000Y-41468000D01*
X108199160Y-41525852D01*
X108167600Y-41546940D01*
X108050833Y-41546838D01*
X107707057Y-41688883D01*
X107443808Y-41951673D01*
X107301162Y-42295201D01*
X107300838Y-42667167D01*
X100710000Y-42667167D01*
X100710000Y-18200000D01*
X109552560Y-18200000D01*
X109552560Y-18900000D01*
X109596838Y-19135317D01*
X109735910Y-19351441D01*
X109948110Y-19496431D01*
X109961197Y-19499081D01*
X109748559Y-19635910D01*
X109603569Y-19848110D01*
X109552560Y-20100000D01*
X109552560Y-20800000D01*
X109596838Y-21035317D01*
X109735910Y-21251441D01*
X109948110Y-21396431D01*
X110200000Y-21447440D01*
X110850000Y-21447440D01*
X111085317Y-21403162D01*
X111301441Y-21264090D01*
X111446431Y-21051890D01*
X111497440Y-20800000D01*
X111497440Y-20100000D01*
X111453162Y-19864683D01*
X111314090Y-19648559D01*
X111101890Y-19503569D01*
X111088803Y-19500919D01*
X111301441Y-19364090D01*
X111446431Y-19151890D01*
X111497440Y-18900000D01*
X111497440Y-18200000D01*
X111453162Y-17964683D01*
X111314090Y-17748559D01*
X111101890Y-17603569D01*
X110850000Y-17552560D01*
X110200000Y-17552560D01*
X109964683Y-17596838D01*
X109748559Y-17735910D01*
X109603569Y-17948110D01*
X109552560Y-18200000D01*
X100710000Y-18200000D01*
X100710000Y-9779000D01*
X109984000Y-9779000D01*
X109984000Y-15240000D01*
X110041852Y-15530839D01*
X110206599Y-15777401D01*
X111603599Y-17174401D01*
X111850160Y-17339148D01*
X112141000Y-17397000D01*
X114112198Y-17397000D01*
X114302000Y-17586802D01*
X114302000Y-17807473D01*
X114264090Y-17748559D01*
X114051890Y-17603569D01*
X113800000Y-17552560D01*
X113150000Y-17552560D01*
X112914683Y-17596838D01*
X112698559Y-17735910D01*
X112553569Y-17948110D01*
X112502560Y-18200000D01*
X112502560Y-18447638D01*
X111730599Y-19219599D01*
X111565852Y-19466161D01*
X111508000Y-19757000D01*
X111508000Y-23329698D01*
X110880820Y-23956878D01*
X110835333Y-23956838D01*
X110491557Y-24098883D01*
X110228308Y-24361673D01*
X110085662Y-24705201D01*
X110085338Y-25077167D01*
X110227383Y-25420943D01*
X110490173Y-25684192D01*
X110833701Y-25826838D01*
X111205667Y-25827162D01*
X111549443Y-25685117D01*
X111812692Y-25422327D01*
X111955338Y-25078799D01*
X111955379Y-25031923D01*
X112805401Y-24181901D01*
X112970148Y-23935340D01*
X112991875Y-23826111D01*
X113028000Y-23644500D01*
X113028000Y-21422734D01*
X113150000Y-21447440D01*
X113800000Y-21447440D01*
X114035317Y-21403162D01*
X114251441Y-21264090D01*
X114396431Y-21051890D01*
X114438461Y-20844341D01*
X115631401Y-19651401D01*
X115796148Y-19404840D01*
X115854000Y-19114000D01*
X115854000Y-18604000D01*
X116894275Y-18604000D01*
X117161201Y-18714838D01*
X117533167Y-18715162D01*
X117802200Y-18604000D01*
X127739537Y-18604000D01*
X127771673Y-18636192D01*
X128115201Y-18778838D01*
X128487167Y-18779162D01*
X128830943Y-18637117D01*
X129094192Y-18374327D01*
X129236838Y-18030799D01*
X129237162Y-17658833D01*
X129095117Y-17315057D01*
X128832327Y-17051808D01*
X128488799Y-16909162D01*
X128116833Y-16908838D01*
X127773057Y-17050883D01*
X127739882Y-17084000D01*
X121130406Y-17084000D01*
X121490658Y-16935147D01*
X122232542Y-16194557D01*
X122634542Y-15226433D01*
X122635457Y-14178166D01*
X122235147Y-13209342D01*
X121494557Y-12467458D01*
X120526433Y-12065458D01*
X119478166Y-12064543D01*
X118509342Y-12464853D01*
X117767458Y-13205443D01*
X117365458Y-14173567D01*
X117364543Y-15221834D01*
X117764853Y-16190658D01*
X118505443Y-16932542D01*
X118870195Y-17084000D01*
X117974351Y-17084000D01*
X117878327Y-16987808D01*
X117534799Y-16845162D01*
X117162833Y-16844838D01*
X116819057Y-16986883D01*
X116721770Y-17084000D01*
X115784604Y-17084000D01*
X115764148Y-16981161D01*
X115599401Y-16734599D01*
X114964401Y-16099599D01*
X114717839Y-15934852D01*
X114427000Y-15877000D01*
X113322633Y-15877000D01*
X113456838Y-15553799D01*
X113456879Y-15506923D01*
X117149517Y-11814285D01*
X125614760Y-11814285D01*
X125825169Y-12323515D01*
X126214436Y-12713461D01*
X126723298Y-12924759D01*
X127274285Y-12925240D01*
X127783515Y-12714831D01*
X128173461Y-12325564D01*
X128384759Y-11816702D01*
X128385240Y-11265715D01*
X128174831Y-10756485D01*
X127785564Y-10366539D01*
X127276702Y-10155241D01*
X126725715Y-10154760D01*
X126216485Y-10365169D01*
X125826539Y-10754436D01*
X125615241Y-11263298D01*
X125614760Y-11814285D01*
X117149517Y-11814285D01*
X119186802Y-9777000D01*
X122387000Y-9777000D01*
X122677839Y-9719148D01*
X122924401Y-9554401D01*
X124218680Y-8260122D01*
X124264167Y-8260162D01*
X124607943Y-8118117D01*
X124871192Y-7855327D01*
X125013838Y-7511799D01*
X125014162Y-7139833D01*
X124872117Y-6796057D01*
X124810453Y-6734285D01*
X125614760Y-6734285D01*
X125825169Y-7243515D01*
X126214436Y-7633461D01*
X126723298Y-7844759D01*
X127274285Y-7845240D01*
X127783515Y-7634831D01*
X128173461Y-7245564D01*
X128384759Y-6736702D01*
X128385240Y-6185715D01*
X128174831Y-5676485D01*
X127785564Y-5286539D01*
X127276702Y-5075241D01*
X126725715Y-5074760D01*
X126216485Y-5285169D01*
X125826539Y-5674436D01*
X125615241Y-6183298D01*
X125614760Y-6734285D01*
X124810453Y-6734285D01*
X124609327Y-6532808D01*
X124265799Y-6390162D01*
X123893833Y-6389838D01*
X123550057Y-6531883D01*
X123286808Y-6794673D01*
X123144162Y-7138201D01*
X123144121Y-7185077D01*
X122072198Y-8257000D01*
X119967047Y-8257000D01*
X120203943Y-8159117D01*
X120467192Y-7896327D01*
X120609838Y-7552799D01*
X120610162Y-7180833D01*
X120468117Y-6837057D01*
X120205327Y-6573808D01*
X119861799Y-6431162D01*
X119489833Y-6430838D01*
X119146057Y-6572883D01*
X118882808Y-6835673D01*
X118740162Y-7179201D01*
X118740121Y-7226077D01*
X113696771Y-12269427D01*
X113884759Y-11816702D01*
X113885240Y-11265715D01*
X113674831Y-10756485D01*
X113285564Y-10366539D01*
X113053130Y-10270024D01*
X113283515Y-10174831D01*
X113673461Y-9785564D01*
X113884759Y-9276702D01*
X113885240Y-8725715D01*
X113674831Y-8216485D01*
X113285564Y-7826539D01*
X113053130Y-7730024D01*
X113283515Y-7634831D01*
X113673461Y-7245564D01*
X113884759Y-6736702D01*
X113885240Y-6185715D01*
X113674831Y-5676485D01*
X113285564Y-5286539D01*
X112776702Y-5075241D01*
X112225715Y-5074760D01*
X111716485Y-5285169D01*
X111326539Y-5674436D01*
X111115241Y-6183298D01*
X111114760Y-6734285D01*
X111325169Y-7243515D01*
X111714436Y-7633461D01*
X111946870Y-7729976D01*
X111716485Y-7825169D01*
X111326539Y-8214436D01*
X111297280Y-8284899D01*
X111232160Y-8297852D01*
X110985599Y-8462599D01*
X110206599Y-9241599D01*
X110041852Y-9488161D01*
X109984000Y-9779000D01*
X100710000Y-9779000D01*
X100710000Y-6557135D01*
X101654653Y-7503438D01*
X103173889Y-8134280D01*
X104818894Y-8135716D01*
X106339229Y-7507526D01*
X107503438Y-6345347D01*
X108134280Y-4826111D01*
X108135716Y-3181106D01*
X107507526Y-1660771D01*
X106558413Y-710000D01*
X119368152Y-710000D01*
X118509342Y-1064853D01*
G36*
X119577198Y-127002000D02*
X117804678Y-127002000D01*
X117806838Y-126996799D01*
X117807158Y-126629174D01*
X117908943Y-126587117D01*
X118172192Y-126324327D01*
X118314838Y-125980799D01*
X118314853Y-125963440D01*
X118538638Y-125963440D01*
X119577198Y-127002000D01*
X119577198Y-127002000D01*
G37*
X119577198Y-127002000D02*
X117804678Y-127002000D01*
X117806838Y-126996799D01*
X117807158Y-126629174D01*
X117908943Y-126587117D01*
X118172192Y-126324327D01*
X118314838Y-125980799D01*
X118314853Y-125963440D01*
X118538638Y-125963440D01*
X119577198Y-127002000D01*
M02*
