G04 #@! TF.FileFunction,Copper,L1,Top,Signal*
%FSLAX46Y46*%
G04 Gerber Fmt 4.6, Leading zero omitted, Abs format (unit mm)*
G04 Created by KiCad (PCBNEW 4.0.0-1rc2.201511291916+6190~38~ubuntu14.04.1-stable) date Mon 14 Mar 2016 12:07:37 PM PDT*
%MOMM*%
G01*
G04 APERTURE LIST*
%ADD10C,0.100000*%
%ADD11R,0.300000X0.400000*%
%ADD12R,1.150000X0.750000*%
%ADD13R,0.950000X1.400000*%
%ADD14R,2.032000X1.727200*%
%ADD15O,2.032000X1.727200*%
%ADD16R,1.727200X2.032000*%
%ADD17O,1.727200X2.032000*%
%ADD18O,2.032000X2.032000*%
%ADD19R,2.032000X2.032000*%
%ADD20C,7.000000*%
%ADD21C,1.500000*%
%ADD22R,1.500000X1.500000*%
%ADD23C,0.600000*%
%ADD24C,0.250000*%
%ADD25C,0.254000*%
G04 APERTURE END LIST*
D10*
D11*
X109840000Y-124460000D03*
X111140000Y-124460000D03*
X109840000Y-121920000D03*
X111140000Y-121920000D03*
X109840000Y-119380000D03*
X111140000Y-119380000D03*
X116220000Y-114300000D03*
X114920000Y-114300000D03*
X116220000Y-111760000D03*
X114920000Y-111760000D03*
X116220000Y-109220000D03*
X114920000Y-109220000D03*
X116220000Y-106680000D03*
X114920000Y-106680000D03*
X95900000Y-114300000D03*
X94600000Y-114300000D03*
D12*
X109575000Y-32025000D03*
X106425000Y-32025000D03*
X109575000Y-28975000D03*
D13*
X105925000Y-30500000D03*
X110075000Y-30500000D03*
D12*
X106425000Y-28975000D03*
D14*
X120650000Y-179070000D03*
D15*
X120650000Y-181610000D03*
X120650000Y-184150000D03*
X120650000Y-186690000D03*
X120650000Y-189230000D03*
X120650000Y-191770000D03*
X120650000Y-194310000D03*
X120650000Y-196850000D03*
D16*
X120650000Y-165100000D03*
D17*
X118110000Y-165100000D03*
D18*
X113030000Y-129540000D03*
X113030000Y-127000000D03*
X113030000Y-124460000D03*
X113030000Y-121920000D03*
X113030000Y-119380000D03*
X113030000Y-116840000D03*
X113030000Y-114300000D03*
X113030000Y-111760000D03*
X113030000Y-109220000D03*
X113030000Y-106680000D03*
X92710000Y-106680000D03*
X92710000Y-109220000D03*
X92710000Y-111760000D03*
X92710000Y-114300000D03*
X92710000Y-116840000D03*
X92710000Y-119380000D03*
X92710000Y-121920000D03*
X92710000Y-124460000D03*
X92710000Y-127000000D03*
X92710000Y-129540000D03*
X92710000Y-132080000D03*
X92710000Y-134620000D03*
X92710000Y-137160000D03*
X92710000Y-139700000D03*
D19*
X92710000Y-144780000D03*
D18*
X92710000Y-142240000D03*
D20*
X87376000Y-180848000D03*
X118110000Y-10922000D03*
X87376000Y-35052000D03*
D21*
X92000000Y-14920000D03*
X92000000Y-17460000D03*
X92000000Y-20000000D03*
X92000000Y-22540000D03*
X92000000Y-25080000D03*
X94920000Y-175650000D03*
X97460000Y-175650000D03*
X100000000Y-175650000D03*
X102540000Y-175650000D03*
X105080000Y-175650000D03*
D22*
X94920000Y-189350000D03*
D21*
X97460000Y-189350000D03*
X105080000Y-189350000D03*
X102540000Y-189350000D03*
X100000000Y-189350000D03*
X92000000Y-78170000D03*
X92000000Y-80710000D03*
X92000000Y-83250000D03*
X92000000Y-85790000D03*
X92000000Y-88330000D03*
X94920000Y-42400000D03*
X97460000Y-42400000D03*
X100000000Y-42400000D03*
X102540000Y-42400000D03*
X105080000Y-42400000D03*
D22*
X94920000Y-56100000D03*
D21*
X97460000Y-56100000D03*
X105080000Y-56100000D03*
X102540000Y-56100000D03*
X100000000Y-56100000D03*
D23*
X85090000Y-59436000D03*
X101346000Y-30226000D03*
X91694000Y-174752000D03*
X106680000Y-119380000D03*
X91948000Y-58420000D03*
X91948000Y-62230000D03*
X93472000Y-91186000D03*
X107950000Y-119380000D03*
X116840000Y-115570000D03*
X118110000Y-113030000D03*
X119380000Y-110490000D03*
X120650000Y-109220000D03*
X118110000Y-170180000D03*
X100584000Y-148082000D03*
X91186000Y-157480000D03*
X89408000Y-185420000D03*
X120650000Y-172212000D03*
X98044000Y-92202000D03*
X93980000Y-95758000D03*
X94742000Y-137160000D03*
X97028000Y-137160000D03*
X103124000Y-126746000D03*
X101346000Y-128524000D03*
X97790000Y-147320000D03*
X85090000Y-149860000D03*
X85090000Y-125730000D03*
X91948000Y-56134000D03*
X106680000Y-70866000D03*
X105156000Y-168656000D03*
X86360000Y-125730000D03*
X86360000Y-149860000D03*
X107442000Y-169672000D03*
X109220000Y-56388000D03*
X87630000Y-149860000D03*
X87630000Y-125730000D03*
X96012000Y-162814000D03*
X99060000Y-160020000D03*
X110490000Y-60960000D03*
X111760000Y-73660000D03*
X104140000Y-31750000D03*
X113030000Y-74930000D03*
X92202000Y-29210000D03*
X114300000Y-76200000D03*
X90678000Y-27940000D03*
X109474000Y-164084000D03*
X109474000Y-175514000D03*
X109474000Y-182626000D03*
X115570000Y-59690000D03*
X89916000Y-26416000D03*
X102362000Y-91694000D03*
X108712000Y-98298000D03*
D24*
X101346000Y-30226000D02*
X101346000Y-33782000D01*
X101346000Y-33782000D02*
X95758000Y-39370000D01*
X97460000Y-42400000D02*
X97460000Y-41072000D01*
X97460000Y-41072000D02*
X95758000Y-39370000D01*
X87630000Y-39370000D02*
X85090000Y-41910000D01*
X95758000Y-39370000D02*
X87630000Y-39370000D01*
X91440000Y-91440000D02*
X105410000Y-105410000D01*
X109220000Y-124460000D02*
X109840000Y-124460000D01*
X109220000Y-124460000D02*
X105410000Y-120650000D01*
X105410000Y-120650000D02*
X105410000Y-105410000D01*
X91440000Y-91440000D02*
X85090000Y-85090000D01*
X85090000Y-85090000D02*
X85090000Y-64770000D01*
X85090000Y-64770000D02*
X85090000Y-59436000D01*
X85090000Y-59436000D02*
X85090000Y-41910000D01*
X101346000Y-30226000D02*
X104902000Y-26670000D01*
X104902000Y-26670000D02*
X110744000Y-26670000D01*
X110744000Y-26670000D02*
X111760000Y-27686000D01*
X111760000Y-27686000D02*
X111760000Y-28815000D01*
X111760000Y-28815000D02*
X110075000Y-30500000D01*
X111140000Y-124460000D02*
X113030000Y-124460000D01*
X91694000Y-174752000D02*
X92202000Y-175260000D01*
X92202000Y-175260000D02*
X92202000Y-191008000D01*
X102540000Y-189350000D02*
X102540000Y-189814000D01*
X102540000Y-189814000D02*
X100838000Y-191516000D01*
X92710000Y-191516000D02*
X92202000Y-191008000D01*
X100838000Y-191516000D02*
X92710000Y-191516000D01*
X106680000Y-119380000D02*
X106426000Y-119126000D01*
X91948000Y-62230000D02*
X91948000Y-58420000D01*
X106426000Y-119126000D02*
X106426000Y-104140000D01*
X106426000Y-104140000D02*
X93472000Y-91186000D01*
X109840000Y-121920000D02*
X108966000Y-121920000D01*
X108966000Y-121920000D02*
X106426000Y-119380000D01*
X106426000Y-119380000D02*
X106426000Y-119126000D01*
X111140000Y-121920000D02*
X113030000Y-121920000D01*
X109840000Y-119380000D02*
X107950000Y-119380000D01*
X111140000Y-119380000D02*
X113030000Y-119380000D01*
X116840000Y-115570000D02*
X116840000Y-114300000D01*
X116220000Y-114300000D02*
X116840000Y-114300000D01*
X113030000Y-114300000D02*
X114920000Y-114300000D01*
X118110000Y-113030000D02*
X116840000Y-111760000D01*
X116220000Y-111760000D02*
X116840000Y-111760000D01*
X113030000Y-111760000D02*
X114920000Y-111760000D01*
X118110000Y-109220000D02*
X116220000Y-109220000D01*
X119380000Y-110490000D02*
X118110000Y-109220000D01*
X113030000Y-109220000D02*
X114920000Y-109220000D01*
X120650000Y-109220000D02*
X118110000Y-106680000D01*
X116220000Y-106680000D02*
X118110000Y-106680000D01*
X113030000Y-106680000D02*
X114920000Y-106680000D01*
X95900000Y-147970000D02*
X96520000Y-148590000D01*
X118110000Y-170180000D02*
X96520000Y-148590000D01*
X95900000Y-114300000D02*
X95900000Y-147970000D01*
X92710000Y-114300000D02*
X94600000Y-114300000D01*
X91186000Y-157480000D02*
X88900000Y-159766000D01*
X97028000Y-144272000D02*
X100584000Y-147828000D01*
X100584000Y-147828000D02*
X100584000Y-148082000D01*
X97028000Y-137160000D02*
X97028000Y-144272000D01*
X91694000Y-183134000D02*
X89408000Y-185420000D01*
X91694000Y-178054000D02*
X91694000Y-183134000D01*
X88900000Y-175260000D02*
X91694000Y-178054000D01*
X88900000Y-159766000D02*
X88900000Y-175260000D01*
X92710000Y-106680000D02*
X92710000Y-97028000D01*
X92710000Y-97028000D02*
X93980000Y-95758000D01*
X97028000Y-137160000D02*
X97028000Y-132842000D01*
X92710000Y-137160000D02*
X94742000Y-137160000D01*
X97028000Y-132842000D02*
X101346000Y-128524000D01*
X118110000Y-165100000D02*
X118110000Y-143510000D01*
X93980000Y-109220000D02*
X92710000Y-109220000D01*
X97790000Y-113030000D02*
X93980000Y-109220000D01*
X97790000Y-123190000D02*
X97790000Y-113030000D01*
X118110000Y-143510000D02*
X97790000Y-123190000D01*
X120650000Y-165100000D02*
X120650000Y-167640000D01*
X118110000Y-167640000D02*
X97790000Y-147320000D01*
X120650000Y-167640000D02*
X118110000Y-167640000D01*
X119253000Y-196469000D02*
X120269000Y-196469000D01*
X120269000Y-196469000D02*
X120650000Y-196850000D01*
X111760000Y-181610000D02*
X111760000Y-176530000D01*
X111760000Y-176530000D02*
X98425000Y-163195000D01*
X111760000Y-188976000D02*
X111760000Y-181610000D01*
X111760000Y-181610000D02*
X111760000Y-181356000D01*
X119253000Y-196469000D02*
X111760000Y-188976000D01*
X94920000Y-175650000D02*
X94920000Y-166700000D01*
X94920000Y-166700000D02*
X98425000Y-163195000D01*
X85090000Y-124460000D02*
X85090000Y-125730000D01*
X98425000Y-163195000D02*
X85090000Y-149860000D01*
X85090000Y-124460000D02*
X92710000Y-116840000D01*
X91948000Y-56134000D02*
X106680000Y-70866000D01*
X120650000Y-194310000D02*
X119888000Y-194310000D01*
X119888000Y-194310000D02*
X113030000Y-187452000D01*
X113030000Y-187452000D02*
X113030000Y-176530000D01*
X113030000Y-176530000D02*
X105156000Y-168656000D01*
X92710000Y-119380000D02*
X86360000Y-125730000D01*
X86360000Y-149860000D02*
X105156000Y-168656000D01*
X120650000Y-191770000D02*
X119634000Y-191770000D01*
X119634000Y-191770000D02*
X119380000Y-191516000D01*
X114300000Y-186436000D02*
X119380000Y-191516000D01*
X114300000Y-181356000D02*
X114300000Y-186436000D01*
X107442000Y-169672000D02*
X114300000Y-176530000D01*
X114300000Y-181356000D02*
X114300000Y-176530000D01*
X105080000Y-56100000D02*
X108932000Y-56100000D01*
X108932000Y-56100000D02*
X109220000Y-56388000D01*
X92710000Y-121920000D02*
X91440000Y-121920000D01*
X87630000Y-149860000D02*
X105410000Y-167640000D01*
X105410000Y-167640000D02*
X107442000Y-169672000D01*
X91440000Y-121920000D02*
X87630000Y-125730000D01*
X120650000Y-189230000D02*
X119634000Y-189230000D01*
X119634000Y-189230000D02*
X119380000Y-188976000D01*
X115570000Y-181610000D02*
X115570000Y-176530000D01*
X115570000Y-176530000D02*
X99060000Y-160020000D01*
X115570000Y-181356000D02*
X115570000Y-181610000D01*
X115570000Y-181610000D02*
X115570000Y-185166000D01*
X115570000Y-185166000D02*
X119380000Y-188976000D01*
X94920000Y-189350000D02*
X92830000Y-189350000D01*
X92830000Y-189350000D02*
X92710000Y-189230000D01*
X92710000Y-189230000D02*
X92710000Y-166116000D01*
X92710000Y-166116000D02*
X96012000Y-162814000D01*
X94920000Y-56100000D02*
X95216000Y-56100000D01*
X95216000Y-56100000D02*
X100076000Y-60960000D01*
X100076000Y-60960000D02*
X110490000Y-60960000D01*
X85090000Y-146050000D02*
X95250000Y-156210000D01*
X91440000Y-124460000D02*
X85090000Y-130810000D01*
X85090000Y-130810000D02*
X85090000Y-146050000D01*
X92710000Y-124460000D02*
X91440000Y-124460000D01*
X95250000Y-156210000D02*
X99060000Y-160020000D01*
X120650000Y-186690000D02*
X119380000Y-186690000D01*
X86360000Y-146050000D02*
X116840000Y-176530000D01*
X116840000Y-176530000D02*
X116840000Y-177800000D01*
X86360000Y-133350000D02*
X92710000Y-127000000D01*
X86360000Y-146050000D02*
X86360000Y-133350000D01*
X116840000Y-184150000D02*
X116840000Y-177800000D01*
X119380000Y-186690000D02*
X116840000Y-184150000D01*
X92000000Y-88330000D02*
X91886000Y-88330000D01*
X91886000Y-88330000D02*
X87884000Y-84328000D01*
X91186000Y-73660000D02*
X111760000Y-73660000D01*
X87884000Y-76962000D02*
X91186000Y-73660000D01*
X87884000Y-84328000D02*
X87884000Y-76962000D01*
X105390000Y-30500000D02*
X105925000Y-30500000D01*
X104140000Y-31750000D02*
X105390000Y-30500000D01*
X92000000Y-88330000D02*
X92140000Y-88330000D01*
X120650000Y-184150000D02*
X119634000Y-184150000D01*
X119634000Y-184150000D02*
X117856000Y-182372000D01*
X117856000Y-182372000D02*
X117856000Y-176276000D01*
X92000000Y-85790000D02*
X92000000Y-85650000D01*
X92000000Y-85650000D02*
X89154000Y-82804000D01*
X91440000Y-74930000D02*
X113030000Y-74930000D01*
X89154000Y-77216000D02*
X91440000Y-74930000D01*
X89154000Y-82804000D02*
X89154000Y-77216000D01*
X92000000Y-25080000D02*
X92000000Y-29008000D01*
X92000000Y-29008000D02*
X92202000Y-29210000D01*
X92710000Y-129540000D02*
X87630000Y-134620000D01*
X87630000Y-146050000D02*
X117856000Y-176276000D01*
X87630000Y-134620000D02*
X87630000Y-146050000D01*
X120650000Y-181610000D02*
X119634000Y-181610000D01*
X119634000Y-181610000D02*
X119126000Y-181102000D01*
X88900000Y-146050000D02*
X119126000Y-176276000D01*
X88900000Y-135890000D02*
X88900000Y-146050000D01*
X92710000Y-132080000D02*
X88900000Y-135890000D01*
X119126000Y-181102000D02*
X119126000Y-176276000D01*
X92000000Y-80710000D02*
X92000000Y-80570000D01*
X92000000Y-80570000D02*
X90170000Y-78740000D01*
X91440000Y-76200000D02*
X114300000Y-76200000D01*
X90170000Y-77470000D02*
X91440000Y-76200000D01*
X90170000Y-78740000D02*
X90170000Y-77470000D01*
X92000000Y-22540000D02*
X91760000Y-22540000D01*
X91760000Y-22540000D02*
X90678000Y-23622000D01*
X90678000Y-23622000D02*
X90678000Y-27940000D01*
X109474000Y-164084000D02*
X120142000Y-174752000D01*
X120142000Y-174752000D02*
X120142000Y-178562000D01*
X120142000Y-178562000D02*
X120650000Y-179070000D01*
X120142000Y-178562000D02*
X120650000Y-179070000D01*
X109474000Y-182626000D02*
X109474000Y-175514000D01*
X97460000Y-56100000D02*
X97460000Y-56820000D01*
X97460000Y-56820000D02*
X100330000Y-59690000D01*
X100330000Y-59690000D02*
X115570000Y-59690000D01*
X92000000Y-17460000D02*
X91760000Y-17460000D01*
X91760000Y-17460000D02*
X89916000Y-19304000D01*
X89916000Y-19304000D02*
X89916000Y-26416000D01*
X90170000Y-137160000D02*
X92710000Y-134620000D01*
X107950000Y-162560000D02*
X93980000Y-148590000D01*
X109474000Y-164084000D02*
X107950000Y-162560000D01*
X93980000Y-148590000D02*
X92710000Y-148590000D01*
X92710000Y-148590000D02*
X90170000Y-146050000D01*
X90170000Y-146050000D02*
X90170000Y-137160000D01*
X102540000Y-42400000D02*
X102540000Y-42240000D01*
X102362000Y-91948000D02*
X102362000Y-91694000D01*
X108712000Y-98298000D02*
X102362000Y-91948000D01*
D25*
G36*
X108910539Y-174755341D02*
X108681808Y-174983673D01*
X108539162Y-175327201D01*
X108538838Y-175699167D01*
X108680883Y-176042943D01*
X108714000Y-176076118D01*
X108714000Y-182063537D01*
X108681808Y-182095673D01*
X108539162Y-182439201D01*
X108538838Y-182811167D01*
X108680883Y-183154943D01*
X108943673Y-183418192D01*
X109287201Y-183560838D01*
X109659167Y-183561162D01*
X110002943Y-183419117D01*
X110266192Y-183156327D01*
X110408838Y-182812799D01*
X110409162Y-182440833D01*
X110267117Y-182097057D01*
X110234000Y-182063882D01*
X110234000Y-176078802D01*
X111000000Y-176844802D01*
X111000000Y-188976000D01*
X111057852Y-189266839D01*
X111222599Y-189513401D01*
X118715599Y-197006401D01*
X118962160Y-197171148D01*
X119033352Y-197185309D01*
X119054176Y-197290000D01*
X88582682Y-197290000D01*
X88353816Y-196139411D01*
X88247801Y-195883470D01*
X87272325Y-194423564D01*
X87076436Y-194227676D01*
X87076435Y-194227675D01*
X85616530Y-193252198D01*
X85466603Y-193190097D01*
X85360589Y-193146184D01*
X84210000Y-192917318D01*
X84210000Y-183529352D01*
X85030653Y-184351438D01*
X86549889Y-184982280D01*
X88194894Y-184983716D01*
X89715229Y-184355526D01*
X90879438Y-183193347D01*
X91442000Y-181838547D01*
X91442000Y-191008000D01*
X91499852Y-191298839D01*
X91664599Y-191545401D01*
X92172599Y-192053401D01*
X92419161Y-192218148D01*
X92710000Y-192276000D01*
X100838000Y-192276000D01*
X101128839Y-192218148D01*
X101375401Y-192053401D01*
X102693667Y-190735135D01*
X102814285Y-190735240D01*
X103323515Y-190524831D01*
X103713461Y-190135564D01*
X103809976Y-189903130D01*
X103905169Y-190133515D01*
X104294436Y-190523461D01*
X104803298Y-190734759D01*
X105354285Y-190735240D01*
X105863515Y-190524831D01*
X106253461Y-190135564D01*
X106464759Y-189626702D01*
X106465240Y-189075715D01*
X106434038Y-189000200D01*
X106756200Y-189000200D01*
X107027905Y-188946154D01*
X107258246Y-188792246D01*
X107412154Y-188561905D01*
X107466200Y-188290200D01*
X107466200Y-176707800D01*
X107412154Y-176436095D01*
X107258246Y-176205754D01*
X107027905Y-176051846D01*
X106756200Y-175997800D01*
X106435237Y-175997800D01*
X106464759Y-175926702D01*
X106465240Y-175375715D01*
X106254831Y-174866485D01*
X105865564Y-174476539D01*
X105356702Y-174265241D01*
X104805715Y-174264760D01*
X104296485Y-174475169D01*
X103906539Y-174864436D01*
X103810024Y-175096870D01*
X103714831Y-174866485D01*
X103325564Y-174476539D01*
X102816702Y-174265241D01*
X102265715Y-174264760D01*
X101756485Y-174475169D01*
X101366539Y-174864436D01*
X101270024Y-175096870D01*
X101174831Y-174866485D01*
X100785564Y-174476539D01*
X100276702Y-174265241D01*
X99725715Y-174264760D01*
X99216485Y-174475169D01*
X98826539Y-174864436D01*
X98730024Y-175096870D01*
X98634831Y-174866485D01*
X98245564Y-174476539D01*
X97736702Y-174265241D01*
X97185715Y-174264760D01*
X96676485Y-174475169D01*
X96286539Y-174864436D01*
X96190024Y-175096870D01*
X96094831Y-174866485D01*
X95705564Y-174476539D01*
X95680000Y-174465924D01*
X95680000Y-167014802D01*
X98425000Y-164269802D01*
X108910539Y-174755341D01*
X108910539Y-174755341D01*
G37*
X108910539Y-174755341D02*
X108681808Y-174983673D01*
X108539162Y-175327201D01*
X108538838Y-175699167D01*
X108680883Y-176042943D01*
X108714000Y-176076118D01*
X108714000Y-182063537D01*
X108681808Y-182095673D01*
X108539162Y-182439201D01*
X108538838Y-182811167D01*
X108680883Y-183154943D01*
X108943673Y-183418192D01*
X109287201Y-183560838D01*
X109659167Y-183561162D01*
X110002943Y-183419117D01*
X110266192Y-183156327D01*
X110408838Y-182812799D01*
X110409162Y-182440833D01*
X110267117Y-182097057D01*
X110234000Y-182063882D01*
X110234000Y-176078802D01*
X111000000Y-176844802D01*
X111000000Y-188976000D01*
X111057852Y-189266839D01*
X111222599Y-189513401D01*
X118715599Y-197006401D01*
X118962160Y-197171148D01*
X119033352Y-197185309D01*
X119054176Y-197290000D01*
X88582682Y-197290000D01*
X88353816Y-196139411D01*
X88247801Y-195883470D01*
X87272325Y-194423564D01*
X87076436Y-194227676D01*
X87076435Y-194227675D01*
X85616530Y-193252198D01*
X85466603Y-193190097D01*
X85360589Y-193146184D01*
X84210000Y-192917318D01*
X84210000Y-183529352D01*
X85030653Y-184351438D01*
X86549889Y-184982280D01*
X88194894Y-184983716D01*
X89715229Y-184355526D01*
X90879438Y-183193347D01*
X91442000Y-181838547D01*
X91442000Y-191008000D01*
X91499852Y-191298839D01*
X91664599Y-191545401D01*
X92172599Y-192053401D01*
X92419161Y-192218148D01*
X92710000Y-192276000D01*
X100838000Y-192276000D01*
X101128839Y-192218148D01*
X101375401Y-192053401D01*
X102693667Y-190735135D01*
X102814285Y-190735240D01*
X103323515Y-190524831D01*
X103713461Y-190135564D01*
X103809976Y-189903130D01*
X103905169Y-190133515D01*
X104294436Y-190523461D01*
X104803298Y-190734759D01*
X105354285Y-190735240D01*
X105863515Y-190524831D01*
X106253461Y-190135564D01*
X106464759Y-189626702D01*
X106465240Y-189075715D01*
X106434038Y-189000200D01*
X106756200Y-189000200D01*
X107027905Y-188946154D01*
X107258246Y-188792246D01*
X107412154Y-188561905D01*
X107466200Y-188290200D01*
X107466200Y-176707800D01*
X107412154Y-176436095D01*
X107258246Y-176205754D01*
X107027905Y-176051846D01*
X106756200Y-175997800D01*
X106435237Y-175997800D01*
X106464759Y-175926702D01*
X106465240Y-175375715D01*
X106254831Y-174866485D01*
X105865564Y-174476539D01*
X105356702Y-174265241D01*
X104805715Y-174264760D01*
X104296485Y-174475169D01*
X103906539Y-174864436D01*
X103810024Y-175096870D01*
X103714831Y-174866485D01*
X103325564Y-174476539D01*
X102816702Y-174265241D01*
X102265715Y-174264760D01*
X101756485Y-174475169D01*
X101366539Y-174864436D01*
X101270024Y-175096870D01*
X101174831Y-174866485D01*
X100785564Y-174476539D01*
X100276702Y-174265241D01*
X99725715Y-174264760D01*
X99216485Y-174475169D01*
X98826539Y-174864436D01*
X98730024Y-175096870D01*
X98634831Y-174866485D01*
X98245564Y-174476539D01*
X97736702Y-174265241D01*
X97185715Y-174264760D01*
X96676485Y-174475169D01*
X96286539Y-174864436D01*
X96190024Y-175096870D01*
X96094831Y-174866485D01*
X95705564Y-174476539D01*
X95680000Y-174465924D01*
X95680000Y-167014802D01*
X98425000Y-164269802D01*
X108910539Y-174755341D01*
G36*
X84296883Y-150388943D02*
X84559673Y-150652192D01*
X84903201Y-150794838D01*
X84950077Y-150794879D01*
X96034217Y-161879019D01*
X95826833Y-161878838D01*
X95483057Y-162020883D01*
X95219808Y-162283673D01*
X95077162Y-162627201D01*
X95077121Y-162674077D01*
X92172599Y-165578599D01*
X92007852Y-165825161D01*
X91950000Y-166116000D01*
X91950000Y-173845897D01*
X91880799Y-173817162D01*
X91508833Y-173816838D01*
X91165057Y-173958883D01*
X90901808Y-174221673D01*
X90759162Y-174565201D01*
X90758838Y-174937167D01*
X90900883Y-175280943D01*
X91163673Y-175544192D01*
X91442000Y-175659764D01*
X91442000Y-179860380D01*
X90883526Y-178508771D01*
X89721347Y-177344562D01*
X88202111Y-176713720D01*
X86557106Y-176712284D01*
X85036771Y-177340474D01*
X84210000Y-178165803D01*
X84210000Y-150178670D01*
X84296883Y-150388943D01*
X84296883Y-150388943D01*
G37*
X84296883Y-150388943D02*
X84559673Y-150652192D01*
X84903201Y-150794838D01*
X84950077Y-150794879D01*
X96034217Y-161879019D01*
X95826833Y-161878838D01*
X95483057Y-162020883D01*
X95219808Y-162283673D01*
X95077162Y-162627201D01*
X95077121Y-162674077D01*
X92172599Y-165578599D01*
X92007852Y-165825161D01*
X91950000Y-166116000D01*
X91950000Y-173845897D01*
X91880799Y-173817162D01*
X91508833Y-173816838D01*
X91165057Y-173958883D01*
X90901808Y-174221673D01*
X90759162Y-174565201D01*
X90758838Y-174937167D01*
X90900883Y-175280943D01*
X91163673Y-175544192D01*
X91442000Y-175659764D01*
X91442000Y-179860380D01*
X90883526Y-178508771D01*
X89721347Y-177344562D01*
X88202111Y-176713720D01*
X86557106Y-176712284D01*
X85036771Y-177340474D01*
X84210000Y-178165803D01*
X84210000Y-150178670D01*
X84296883Y-150388943D01*
G36*
X97030000Y-113344802D02*
X97030000Y-123190000D01*
X97087852Y-123480839D01*
X97252599Y-123727401D01*
X117350000Y-143824802D01*
X117350000Y-163655352D01*
X117050330Y-163855585D01*
X116725474Y-164341766D01*
X116611400Y-164915255D01*
X116611400Y-165066598D01*
X98725122Y-147180320D01*
X98725162Y-147134833D01*
X98583117Y-146791057D01*
X98320327Y-146527808D01*
X97976799Y-146385162D01*
X97604833Y-146384838D01*
X97261057Y-146526883D01*
X96997808Y-146789673D01*
X96855162Y-147133201D01*
X96854838Y-147505167D01*
X96996883Y-147848943D01*
X97259673Y-148112192D01*
X97603201Y-148254838D01*
X97650077Y-148254879D01*
X117572599Y-168177401D01*
X117819161Y-168342148D01*
X118110000Y-168400000D01*
X120650000Y-168400000D01*
X120940839Y-168342148D01*
X121187401Y-168177401D01*
X121290000Y-168023850D01*
X121290000Y-177558960D01*
X120902000Y-177558960D01*
X120902000Y-174752000D01*
X120847207Y-174476539D01*
X120844148Y-174461160D01*
X120679401Y-174214599D01*
X110409122Y-163944320D01*
X110409162Y-163898833D01*
X110267117Y-163555057D01*
X110004327Y-163291808D01*
X109660799Y-163149162D01*
X109613923Y-163149121D01*
X94517401Y-148052599D01*
X94270839Y-147887852D01*
X93980000Y-147830000D01*
X93024802Y-147830000D01*
X91624084Y-146429282D01*
X91694000Y-146443440D01*
X93726000Y-146443440D01*
X93961317Y-146399162D01*
X94177441Y-146260090D01*
X94322431Y-146047890D01*
X94373440Y-145796000D01*
X94373440Y-143764000D01*
X94329162Y-143528683D01*
X94190090Y-143312559D01*
X94041163Y-143210802D01*
X94267670Y-142871810D01*
X94393345Y-142240000D01*
X94267670Y-141608190D01*
X93909778Y-141072567D01*
X93756276Y-140970000D01*
X93909778Y-140867433D01*
X94267670Y-140331810D01*
X94393345Y-139700000D01*
X94267670Y-139068190D01*
X93909778Y-138532567D01*
X93746646Y-138423565D01*
X94116385Y-138024818D01*
X94315975Y-137542944D01*
X94196836Y-137287000D01*
X92837000Y-137287000D01*
X92837000Y-137307000D01*
X92583000Y-137307000D01*
X92583000Y-137287000D01*
X92563000Y-137287000D01*
X92563000Y-137033000D01*
X92583000Y-137033000D01*
X92583000Y-137013000D01*
X92837000Y-137013000D01*
X92837000Y-137033000D01*
X94196836Y-137033000D01*
X94315975Y-136777056D01*
X94116385Y-136295182D01*
X93746646Y-135896435D01*
X93909778Y-135787433D01*
X94267670Y-135251810D01*
X94393345Y-134620000D01*
X94267670Y-133988190D01*
X93909778Y-133452567D01*
X93756276Y-133350000D01*
X93909778Y-133247433D01*
X94267670Y-132711810D01*
X94393345Y-132080000D01*
X94267670Y-131448190D01*
X93909778Y-130912567D01*
X93756276Y-130810000D01*
X93909778Y-130707433D01*
X94267670Y-130171810D01*
X94393345Y-129540000D01*
X94267670Y-128908190D01*
X93909778Y-128372567D01*
X93756276Y-128270000D01*
X93909778Y-128167433D01*
X94267670Y-127631810D01*
X94393345Y-127000000D01*
X94267670Y-126368190D01*
X93909778Y-125832567D01*
X93756276Y-125730000D01*
X93909778Y-125627433D01*
X94267670Y-125091810D01*
X94393345Y-124460000D01*
X94267670Y-123828190D01*
X93909778Y-123292567D01*
X93756276Y-123190000D01*
X93909778Y-123087433D01*
X94267670Y-122551810D01*
X94393345Y-121920000D01*
X94267670Y-121288190D01*
X93909778Y-120752567D01*
X93756276Y-120650000D01*
X93909778Y-120547433D01*
X94267670Y-120011810D01*
X94393345Y-119380000D01*
X94267670Y-118748190D01*
X93909778Y-118212567D01*
X93756276Y-118110000D01*
X93909778Y-118007433D01*
X94267670Y-117471810D01*
X94393345Y-116840000D01*
X94267670Y-116208190D01*
X93909778Y-115672567D01*
X93756276Y-115570000D01*
X93909778Y-115467433D01*
X94170348Y-115077462D01*
X94198110Y-115096431D01*
X94450000Y-115147440D01*
X94750000Y-115147440D01*
X94985317Y-115103162D01*
X95140000Y-115003626D01*
X95140000Y-147970000D01*
X95197852Y-148260839D01*
X95362599Y-148507401D01*
X117174878Y-170319680D01*
X117174838Y-170365167D01*
X117316883Y-170708943D01*
X117579673Y-170972192D01*
X117923201Y-171114838D01*
X118295167Y-171115162D01*
X118638943Y-170973117D01*
X118902192Y-170710327D01*
X119044838Y-170366799D01*
X119045162Y-169994833D01*
X118903117Y-169651057D01*
X118640327Y-169387808D01*
X118296799Y-169245162D01*
X118249923Y-169245121D01*
X96660000Y-147655198D01*
X96660000Y-114684884D01*
X96697440Y-114500000D01*
X96697440Y-114100000D01*
X96653162Y-113864683D01*
X96514090Y-113648559D01*
X96301890Y-113503569D01*
X96050000Y-113452560D01*
X95750000Y-113452560D01*
X95514683Y-113496838D01*
X95298559Y-113635910D01*
X95250866Y-113705711D01*
X95214090Y-113648559D01*
X95001890Y-113503569D01*
X94750000Y-113452560D01*
X94450000Y-113452560D01*
X94214683Y-113496838D01*
X94171670Y-113524516D01*
X93909778Y-113132567D01*
X93756276Y-113030000D01*
X93909778Y-112927433D01*
X94267670Y-112391810D01*
X94393345Y-111760000D01*
X94267670Y-111128190D01*
X93909778Y-110592567D01*
X93756276Y-110490000D01*
X93909778Y-110387433D01*
X93975008Y-110289810D01*
X97030000Y-113344802D01*
X97030000Y-113344802D01*
G37*
X97030000Y-113344802D02*
X97030000Y-123190000D01*
X97087852Y-123480839D01*
X97252599Y-123727401D01*
X117350000Y-143824802D01*
X117350000Y-163655352D01*
X117050330Y-163855585D01*
X116725474Y-164341766D01*
X116611400Y-164915255D01*
X116611400Y-165066598D01*
X98725122Y-147180320D01*
X98725162Y-147134833D01*
X98583117Y-146791057D01*
X98320327Y-146527808D01*
X97976799Y-146385162D01*
X97604833Y-146384838D01*
X97261057Y-146526883D01*
X96997808Y-146789673D01*
X96855162Y-147133201D01*
X96854838Y-147505167D01*
X96996883Y-147848943D01*
X97259673Y-148112192D01*
X97603201Y-148254838D01*
X97650077Y-148254879D01*
X117572599Y-168177401D01*
X117819161Y-168342148D01*
X118110000Y-168400000D01*
X120650000Y-168400000D01*
X120940839Y-168342148D01*
X121187401Y-168177401D01*
X121290000Y-168023850D01*
X121290000Y-177558960D01*
X120902000Y-177558960D01*
X120902000Y-174752000D01*
X120847207Y-174476539D01*
X120844148Y-174461160D01*
X120679401Y-174214599D01*
X110409122Y-163944320D01*
X110409162Y-163898833D01*
X110267117Y-163555057D01*
X110004327Y-163291808D01*
X109660799Y-163149162D01*
X109613923Y-163149121D01*
X94517401Y-148052599D01*
X94270839Y-147887852D01*
X93980000Y-147830000D01*
X93024802Y-147830000D01*
X91624084Y-146429282D01*
X91694000Y-146443440D01*
X93726000Y-146443440D01*
X93961317Y-146399162D01*
X94177441Y-146260090D01*
X94322431Y-146047890D01*
X94373440Y-145796000D01*
X94373440Y-143764000D01*
X94329162Y-143528683D01*
X94190090Y-143312559D01*
X94041163Y-143210802D01*
X94267670Y-142871810D01*
X94393345Y-142240000D01*
X94267670Y-141608190D01*
X93909778Y-141072567D01*
X93756276Y-140970000D01*
X93909778Y-140867433D01*
X94267670Y-140331810D01*
X94393345Y-139700000D01*
X94267670Y-139068190D01*
X93909778Y-138532567D01*
X93746646Y-138423565D01*
X94116385Y-138024818D01*
X94315975Y-137542944D01*
X94196836Y-137287000D01*
X92837000Y-137287000D01*
X92837000Y-137307000D01*
X92583000Y-137307000D01*
X92583000Y-137287000D01*
X92563000Y-137287000D01*
X92563000Y-137033000D01*
X92583000Y-137033000D01*
X92583000Y-137013000D01*
X92837000Y-137013000D01*
X92837000Y-137033000D01*
X94196836Y-137033000D01*
X94315975Y-136777056D01*
X94116385Y-136295182D01*
X93746646Y-135896435D01*
X93909778Y-135787433D01*
X94267670Y-135251810D01*
X94393345Y-134620000D01*
X94267670Y-133988190D01*
X93909778Y-133452567D01*
X93756276Y-133350000D01*
X93909778Y-133247433D01*
X94267670Y-132711810D01*
X94393345Y-132080000D01*
X94267670Y-131448190D01*
X93909778Y-130912567D01*
X93756276Y-130810000D01*
X93909778Y-130707433D01*
X94267670Y-130171810D01*
X94393345Y-129540000D01*
X94267670Y-128908190D01*
X93909778Y-128372567D01*
X93756276Y-128270000D01*
X93909778Y-128167433D01*
X94267670Y-127631810D01*
X94393345Y-127000000D01*
X94267670Y-126368190D01*
X93909778Y-125832567D01*
X93756276Y-125730000D01*
X93909778Y-125627433D01*
X94267670Y-125091810D01*
X94393345Y-124460000D01*
X94267670Y-123828190D01*
X93909778Y-123292567D01*
X93756276Y-123190000D01*
X93909778Y-123087433D01*
X94267670Y-122551810D01*
X94393345Y-121920000D01*
X94267670Y-121288190D01*
X93909778Y-120752567D01*
X93756276Y-120650000D01*
X93909778Y-120547433D01*
X94267670Y-120011810D01*
X94393345Y-119380000D01*
X94267670Y-118748190D01*
X93909778Y-118212567D01*
X93756276Y-118110000D01*
X93909778Y-118007433D01*
X94267670Y-117471810D01*
X94393345Y-116840000D01*
X94267670Y-116208190D01*
X93909778Y-115672567D01*
X93756276Y-115570000D01*
X93909778Y-115467433D01*
X94170348Y-115077462D01*
X94198110Y-115096431D01*
X94450000Y-115147440D01*
X94750000Y-115147440D01*
X94985317Y-115103162D01*
X95140000Y-115003626D01*
X95140000Y-147970000D01*
X95197852Y-148260839D01*
X95362599Y-148507401D01*
X117174878Y-170319680D01*
X117174838Y-170365167D01*
X117316883Y-170708943D01*
X117579673Y-170972192D01*
X117923201Y-171114838D01*
X118295167Y-171115162D01*
X118638943Y-170973117D01*
X118902192Y-170710327D01*
X119044838Y-170366799D01*
X119045162Y-169994833D01*
X118903117Y-169651057D01*
X118640327Y-169387808D01*
X118296799Y-169245162D01*
X118249923Y-169245121D01*
X96660000Y-147655198D01*
X96660000Y-114684884D01*
X96697440Y-114500000D01*
X96697440Y-114100000D01*
X96653162Y-113864683D01*
X96514090Y-113648559D01*
X96301890Y-113503569D01*
X96050000Y-113452560D01*
X95750000Y-113452560D01*
X95514683Y-113496838D01*
X95298559Y-113635910D01*
X95250866Y-113705711D01*
X95214090Y-113648559D01*
X95001890Y-113503569D01*
X94750000Y-113452560D01*
X94450000Y-113452560D01*
X94214683Y-113496838D01*
X94171670Y-113524516D01*
X93909778Y-113132567D01*
X93756276Y-113030000D01*
X93909778Y-112927433D01*
X94267670Y-112391810D01*
X94393345Y-111760000D01*
X94267670Y-111128190D01*
X93909778Y-110592567D01*
X93756276Y-110490000D01*
X93909778Y-110387433D01*
X93975008Y-110289810D01*
X97030000Y-113344802D01*
G36*
X84296883Y-59964943D02*
X84330000Y-59998118D01*
X84330000Y-85090000D01*
X84387852Y-85380839D01*
X84552599Y-85627401D01*
X104650000Y-105724802D01*
X104650000Y-120650000D01*
X104707852Y-120940839D01*
X104872599Y-121187401D01*
X108682599Y-124997401D01*
X108929161Y-125162148D01*
X109220000Y-125220000D01*
X109384791Y-125220000D01*
X109438110Y-125256431D01*
X109690000Y-125307440D01*
X109990000Y-125307440D01*
X110225317Y-125263162D01*
X110441441Y-125124090D01*
X110489134Y-125054289D01*
X110525910Y-125111441D01*
X110738110Y-125256431D01*
X110990000Y-125307440D01*
X111290000Y-125307440D01*
X111525317Y-125263162D01*
X111568330Y-125235484D01*
X111830222Y-125627433D01*
X111983724Y-125730000D01*
X111830222Y-125832567D01*
X111472330Y-126368190D01*
X111346655Y-127000000D01*
X111472330Y-127631810D01*
X111830222Y-128167433D01*
X111983724Y-128270000D01*
X111830222Y-128372567D01*
X111472330Y-128908190D01*
X111346655Y-129540000D01*
X111472330Y-130171810D01*
X111830222Y-130707433D01*
X112365845Y-131065325D01*
X112997655Y-131191000D01*
X113062345Y-131191000D01*
X113694155Y-131065325D01*
X114229778Y-130707433D01*
X114587670Y-130171810D01*
X114713345Y-129540000D01*
X114587670Y-128908190D01*
X114229778Y-128372567D01*
X114076276Y-128270000D01*
X114229778Y-128167433D01*
X114587670Y-127631810D01*
X114713345Y-127000000D01*
X114587670Y-126368190D01*
X114229778Y-125832567D01*
X114076276Y-125730000D01*
X114229778Y-125627433D01*
X114587670Y-125091810D01*
X114713345Y-124460000D01*
X114587670Y-123828190D01*
X114229778Y-123292567D01*
X114076276Y-123190000D01*
X114229778Y-123087433D01*
X114587670Y-122551810D01*
X114713345Y-121920000D01*
X114587670Y-121288190D01*
X114229778Y-120752567D01*
X114076276Y-120650000D01*
X114229778Y-120547433D01*
X114587670Y-120011810D01*
X114713345Y-119380000D01*
X114587670Y-118748190D01*
X114229778Y-118212567D01*
X114076276Y-118110000D01*
X114229778Y-118007433D01*
X114587670Y-117471810D01*
X114713345Y-116840000D01*
X114587670Y-116208190D01*
X114229778Y-115672567D01*
X114076276Y-115570000D01*
X114229778Y-115467433D01*
X114490348Y-115077462D01*
X114518110Y-115096431D01*
X114770000Y-115147440D01*
X115070000Y-115147440D01*
X115305317Y-115103162D01*
X115521441Y-114964090D01*
X115569134Y-114894289D01*
X115605910Y-114951441D01*
X115818110Y-115096431D01*
X116008251Y-115134936D01*
X115905162Y-115383201D01*
X115904838Y-115755167D01*
X116046883Y-116098943D01*
X116309673Y-116362192D01*
X116653201Y-116504838D01*
X117025167Y-116505162D01*
X117368943Y-116363117D01*
X117632192Y-116100327D01*
X117774838Y-115756799D01*
X117775162Y-115384833D01*
X117633117Y-115041057D01*
X117600000Y-115007882D01*
X117600000Y-114300000D01*
X117542148Y-114009161D01*
X117377401Y-113762599D01*
X117130839Y-113597852D01*
X116840000Y-113540000D01*
X116675209Y-113540000D01*
X116621890Y-113503569D01*
X116370000Y-113452560D01*
X116070000Y-113452560D01*
X115834683Y-113496838D01*
X115618559Y-113635910D01*
X115570866Y-113705711D01*
X115534090Y-113648559D01*
X115321890Y-113503569D01*
X115070000Y-113452560D01*
X114770000Y-113452560D01*
X114534683Y-113496838D01*
X114491670Y-113524516D01*
X114229778Y-113132567D01*
X114076276Y-113030000D01*
X114229778Y-112927433D01*
X114490348Y-112537462D01*
X114518110Y-112556431D01*
X114770000Y-112607440D01*
X115070000Y-112607440D01*
X115305317Y-112563162D01*
X115521441Y-112424090D01*
X115569134Y-112354289D01*
X115605910Y-112411441D01*
X115818110Y-112556431D01*
X116070000Y-112607440D01*
X116370000Y-112607440D01*
X116574213Y-112569015D01*
X117174878Y-113169680D01*
X117174838Y-113215167D01*
X117316883Y-113558943D01*
X117579673Y-113822192D01*
X117923201Y-113964838D01*
X118295167Y-113965162D01*
X118638943Y-113823117D01*
X118902192Y-113560327D01*
X119044838Y-113216799D01*
X119045162Y-112844833D01*
X118903117Y-112501057D01*
X118640327Y-112237808D01*
X118296799Y-112095162D01*
X118249923Y-112095121D01*
X117377401Y-111222599D01*
X117130839Y-111057852D01*
X116840000Y-111000000D01*
X116675209Y-111000000D01*
X116621890Y-110963569D01*
X116370000Y-110912560D01*
X116070000Y-110912560D01*
X115834683Y-110956838D01*
X115618559Y-111095910D01*
X115570866Y-111165711D01*
X115534090Y-111108559D01*
X115321890Y-110963569D01*
X115070000Y-110912560D01*
X114770000Y-110912560D01*
X114534683Y-110956838D01*
X114491670Y-110984516D01*
X114229778Y-110592567D01*
X114076276Y-110490000D01*
X114229778Y-110387433D01*
X114490348Y-109997462D01*
X114518110Y-110016431D01*
X114770000Y-110067440D01*
X115070000Y-110067440D01*
X115305317Y-110023162D01*
X115521441Y-109884090D01*
X115569134Y-109814289D01*
X115605910Y-109871441D01*
X115818110Y-110016431D01*
X116070000Y-110067440D01*
X116370000Y-110067440D01*
X116605317Y-110023162D01*
X116672393Y-109980000D01*
X117795198Y-109980000D01*
X118444878Y-110629680D01*
X118444838Y-110675167D01*
X118586883Y-111018943D01*
X118849673Y-111282192D01*
X119193201Y-111424838D01*
X119565167Y-111425162D01*
X119908943Y-111283117D01*
X120172192Y-111020327D01*
X120314838Y-110676799D01*
X120315162Y-110304833D01*
X120209690Y-110049570D01*
X120463201Y-110154838D01*
X120835167Y-110155162D01*
X121178943Y-110013117D01*
X121290000Y-109902254D01*
X121290000Y-163436560D01*
X119786400Y-163436560D01*
X119551083Y-163480838D01*
X119334959Y-163619910D01*
X119189969Y-163832110D01*
X119181600Y-163873439D01*
X119169670Y-163855585D01*
X118870000Y-163655352D01*
X118870000Y-143510000D01*
X118812148Y-143219161D01*
X118647401Y-142972599D01*
X98550000Y-122875198D01*
X98550000Y-113030000D01*
X98492148Y-112739161D01*
X98327401Y-112492599D01*
X94517401Y-108682599D01*
X94270839Y-108517852D01*
X94212982Y-108506343D01*
X93909778Y-108052567D01*
X93746646Y-107943565D01*
X94116385Y-107544818D01*
X94315975Y-107062944D01*
X94196836Y-106807000D01*
X92837000Y-106807000D01*
X92837000Y-106827000D01*
X92583000Y-106827000D01*
X92583000Y-106807000D01*
X91223164Y-106807000D01*
X91104025Y-107062944D01*
X91303615Y-107544818D01*
X91673354Y-107943565D01*
X91510222Y-108052567D01*
X91152330Y-108588190D01*
X91026655Y-109220000D01*
X91152330Y-109851810D01*
X91510222Y-110387433D01*
X91663724Y-110490000D01*
X91510222Y-110592567D01*
X91152330Y-111128190D01*
X91026655Y-111760000D01*
X91152330Y-112391810D01*
X91510222Y-112927433D01*
X91663724Y-113030000D01*
X91510222Y-113132567D01*
X91152330Y-113668190D01*
X91026655Y-114300000D01*
X91152330Y-114931810D01*
X91510222Y-115467433D01*
X91663724Y-115570000D01*
X91510222Y-115672567D01*
X91152330Y-116208190D01*
X91026655Y-116840000D01*
X91127619Y-117347579D01*
X84552599Y-123922599D01*
X84387852Y-124169161D01*
X84330000Y-124460000D01*
X84330000Y-125167537D01*
X84297808Y-125199673D01*
X84210000Y-125411137D01*
X84210000Y-106297056D01*
X91104025Y-106297056D01*
X91223164Y-106553000D01*
X92583000Y-106553000D01*
X92583000Y-105192633D01*
X92837000Y-105192633D01*
X92837000Y-106553000D01*
X94196836Y-106553000D01*
X94315975Y-106297056D01*
X94116385Y-105815182D01*
X93678379Y-105342812D01*
X93092946Y-105074017D01*
X92837000Y-105192633D01*
X92583000Y-105192633D01*
X92327054Y-105074017D01*
X91741621Y-105342812D01*
X91303615Y-105815182D01*
X91104025Y-106297056D01*
X84210000Y-106297056D01*
X84210000Y-59754670D01*
X84296883Y-59964943D01*
X84296883Y-59964943D01*
G37*
X84296883Y-59964943D02*
X84330000Y-59998118D01*
X84330000Y-85090000D01*
X84387852Y-85380839D01*
X84552599Y-85627401D01*
X104650000Y-105724802D01*
X104650000Y-120650000D01*
X104707852Y-120940839D01*
X104872599Y-121187401D01*
X108682599Y-124997401D01*
X108929161Y-125162148D01*
X109220000Y-125220000D01*
X109384791Y-125220000D01*
X109438110Y-125256431D01*
X109690000Y-125307440D01*
X109990000Y-125307440D01*
X110225317Y-125263162D01*
X110441441Y-125124090D01*
X110489134Y-125054289D01*
X110525910Y-125111441D01*
X110738110Y-125256431D01*
X110990000Y-125307440D01*
X111290000Y-125307440D01*
X111525317Y-125263162D01*
X111568330Y-125235484D01*
X111830222Y-125627433D01*
X111983724Y-125730000D01*
X111830222Y-125832567D01*
X111472330Y-126368190D01*
X111346655Y-127000000D01*
X111472330Y-127631810D01*
X111830222Y-128167433D01*
X111983724Y-128270000D01*
X111830222Y-128372567D01*
X111472330Y-128908190D01*
X111346655Y-129540000D01*
X111472330Y-130171810D01*
X111830222Y-130707433D01*
X112365845Y-131065325D01*
X112997655Y-131191000D01*
X113062345Y-131191000D01*
X113694155Y-131065325D01*
X114229778Y-130707433D01*
X114587670Y-130171810D01*
X114713345Y-129540000D01*
X114587670Y-128908190D01*
X114229778Y-128372567D01*
X114076276Y-128270000D01*
X114229778Y-128167433D01*
X114587670Y-127631810D01*
X114713345Y-127000000D01*
X114587670Y-126368190D01*
X114229778Y-125832567D01*
X114076276Y-125730000D01*
X114229778Y-125627433D01*
X114587670Y-125091810D01*
X114713345Y-124460000D01*
X114587670Y-123828190D01*
X114229778Y-123292567D01*
X114076276Y-123190000D01*
X114229778Y-123087433D01*
X114587670Y-122551810D01*
X114713345Y-121920000D01*
X114587670Y-121288190D01*
X114229778Y-120752567D01*
X114076276Y-120650000D01*
X114229778Y-120547433D01*
X114587670Y-120011810D01*
X114713345Y-119380000D01*
X114587670Y-118748190D01*
X114229778Y-118212567D01*
X114076276Y-118110000D01*
X114229778Y-118007433D01*
X114587670Y-117471810D01*
X114713345Y-116840000D01*
X114587670Y-116208190D01*
X114229778Y-115672567D01*
X114076276Y-115570000D01*
X114229778Y-115467433D01*
X114490348Y-115077462D01*
X114518110Y-115096431D01*
X114770000Y-115147440D01*
X115070000Y-115147440D01*
X115305317Y-115103162D01*
X115521441Y-114964090D01*
X115569134Y-114894289D01*
X115605910Y-114951441D01*
X115818110Y-115096431D01*
X116008251Y-115134936D01*
X115905162Y-115383201D01*
X115904838Y-115755167D01*
X116046883Y-116098943D01*
X116309673Y-116362192D01*
X116653201Y-116504838D01*
X117025167Y-116505162D01*
X117368943Y-116363117D01*
X117632192Y-116100327D01*
X117774838Y-115756799D01*
X117775162Y-115384833D01*
X117633117Y-115041057D01*
X117600000Y-115007882D01*
X117600000Y-114300000D01*
X117542148Y-114009161D01*
X117377401Y-113762599D01*
X117130839Y-113597852D01*
X116840000Y-113540000D01*
X116675209Y-113540000D01*
X116621890Y-113503569D01*
X116370000Y-113452560D01*
X116070000Y-113452560D01*
X115834683Y-113496838D01*
X115618559Y-113635910D01*
X115570866Y-113705711D01*
X115534090Y-113648559D01*
X115321890Y-113503569D01*
X115070000Y-113452560D01*
X114770000Y-113452560D01*
X114534683Y-113496838D01*
X114491670Y-113524516D01*
X114229778Y-113132567D01*
X114076276Y-113030000D01*
X114229778Y-112927433D01*
X114490348Y-112537462D01*
X114518110Y-112556431D01*
X114770000Y-112607440D01*
X115070000Y-112607440D01*
X115305317Y-112563162D01*
X115521441Y-112424090D01*
X115569134Y-112354289D01*
X115605910Y-112411441D01*
X115818110Y-112556431D01*
X116070000Y-112607440D01*
X116370000Y-112607440D01*
X116574213Y-112569015D01*
X117174878Y-113169680D01*
X117174838Y-113215167D01*
X117316883Y-113558943D01*
X117579673Y-113822192D01*
X117923201Y-113964838D01*
X118295167Y-113965162D01*
X118638943Y-113823117D01*
X118902192Y-113560327D01*
X119044838Y-113216799D01*
X119045162Y-112844833D01*
X118903117Y-112501057D01*
X118640327Y-112237808D01*
X118296799Y-112095162D01*
X118249923Y-112095121D01*
X117377401Y-111222599D01*
X117130839Y-111057852D01*
X116840000Y-111000000D01*
X116675209Y-111000000D01*
X116621890Y-110963569D01*
X116370000Y-110912560D01*
X116070000Y-110912560D01*
X115834683Y-110956838D01*
X115618559Y-111095910D01*
X115570866Y-111165711D01*
X115534090Y-111108559D01*
X115321890Y-110963569D01*
X115070000Y-110912560D01*
X114770000Y-110912560D01*
X114534683Y-110956838D01*
X114491670Y-110984516D01*
X114229778Y-110592567D01*
X114076276Y-110490000D01*
X114229778Y-110387433D01*
X114490348Y-109997462D01*
X114518110Y-110016431D01*
X114770000Y-110067440D01*
X115070000Y-110067440D01*
X115305317Y-110023162D01*
X115521441Y-109884090D01*
X115569134Y-109814289D01*
X115605910Y-109871441D01*
X115818110Y-110016431D01*
X116070000Y-110067440D01*
X116370000Y-110067440D01*
X116605317Y-110023162D01*
X116672393Y-109980000D01*
X117795198Y-109980000D01*
X118444878Y-110629680D01*
X118444838Y-110675167D01*
X118586883Y-111018943D01*
X118849673Y-111282192D01*
X119193201Y-111424838D01*
X119565167Y-111425162D01*
X119908943Y-111283117D01*
X120172192Y-111020327D01*
X120314838Y-110676799D01*
X120315162Y-110304833D01*
X120209690Y-110049570D01*
X120463201Y-110154838D01*
X120835167Y-110155162D01*
X121178943Y-110013117D01*
X121290000Y-109902254D01*
X121290000Y-163436560D01*
X119786400Y-163436560D01*
X119551083Y-163480838D01*
X119334959Y-163619910D01*
X119189969Y-163832110D01*
X119181600Y-163873439D01*
X119169670Y-163855585D01*
X118870000Y-163655352D01*
X118870000Y-143510000D01*
X118812148Y-143219161D01*
X118647401Y-142972599D01*
X98550000Y-122875198D01*
X98550000Y-113030000D01*
X98492148Y-112739161D01*
X98327401Y-112492599D01*
X94517401Y-108682599D01*
X94270839Y-108517852D01*
X94212982Y-108506343D01*
X93909778Y-108052567D01*
X93746646Y-107943565D01*
X94116385Y-107544818D01*
X94315975Y-107062944D01*
X94196836Y-106807000D01*
X92837000Y-106807000D01*
X92837000Y-106827000D01*
X92583000Y-106827000D01*
X92583000Y-106807000D01*
X91223164Y-106807000D01*
X91104025Y-107062944D01*
X91303615Y-107544818D01*
X91673354Y-107943565D01*
X91510222Y-108052567D01*
X91152330Y-108588190D01*
X91026655Y-109220000D01*
X91152330Y-109851810D01*
X91510222Y-110387433D01*
X91663724Y-110490000D01*
X91510222Y-110592567D01*
X91152330Y-111128190D01*
X91026655Y-111760000D01*
X91152330Y-112391810D01*
X91510222Y-112927433D01*
X91663724Y-113030000D01*
X91510222Y-113132567D01*
X91152330Y-113668190D01*
X91026655Y-114300000D01*
X91152330Y-114931810D01*
X91510222Y-115467433D01*
X91663724Y-115570000D01*
X91510222Y-115672567D01*
X91152330Y-116208190D01*
X91026655Y-116840000D01*
X91127619Y-117347579D01*
X84552599Y-123922599D01*
X84387852Y-124169161D01*
X84330000Y-124460000D01*
X84330000Y-125167537D01*
X84297808Y-125199673D01*
X84210000Y-125411137D01*
X84210000Y-106297056D01*
X91104025Y-106297056D01*
X91223164Y-106553000D01*
X92583000Y-106553000D01*
X92583000Y-105192633D01*
X92837000Y-105192633D01*
X92837000Y-106553000D01*
X94196836Y-106553000D01*
X94315975Y-106297056D01*
X94116385Y-105815182D01*
X93678379Y-105342812D01*
X93092946Y-105074017D01*
X92837000Y-105192633D01*
X92583000Y-105192633D01*
X92327054Y-105074017D01*
X91741621Y-105342812D01*
X91303615Y-105815182D01*
X91104025Y-106297056D01*
X84210000Y-106297056D01*
X84210000Y-59754670D01*
X84296883Y-59964943D01*
G36*
X114606562Y-8576653D02*
X113975720Y-10095889D01*
X113974284Y-11740894D01*
X114602474Y-13261229D01*
X115764653Y-14425438D01*
X117283889Y-15056280D01*
X118928894Y-15057716D01*
X120449229Y-14429526D01*
X121290000Y-13590221D01*
X121290000Y-108537673D01*
X121180327Y-108427808D01*
X120836799Y-108285162D01*
X120789923Y-108285121D01*
X118647401Y-106142599D01*
X118400839Y-105977852D01*
X118110000Y-105920000D01*
X116675209Y-105920000D01*
X116621890Y-105883569D01*
X116370000Y-105832560D01*
X116070000Y-105832560D01*
X115834683Y-105876838D01*
X115618559Y-106015910D01*
X115570866Y-106085711D01*
X115534090Y-106028559D01*
X115321890Y-105883569D01*
X115070000Y-105832560D01*
X114770000Y-105832560D01*
X114534683Y-105876838D01*
X114491670Y-105904516D01*
X114229778Y-105512567D01*
X113694155Y-105154675D01*
X113062345Y-105029000D01*
X112997655Y-105029000D01*
X112365845Y-105154675D01*
X111830222Y-105512567D01*
X111472330Y-106048190D01*
X111346655Y-106680000D01*
X111472330Y-107311810D01*
X111830222Y-107847433D01*
X111983724Y-107950000D01*
X111830222Y-108052567D01*
X111472330Y-108588190D01*
X111346655Y-109220000D01*
X111472330Y-109851810D01*
X111830222Y-110387433D01*
X111983724Y-110490000D01*
X111830222Y-110592567D01*
X111472330Y-111128190D01*
X111346655Y-111760000D01*
X111472330Y-112391810D01*
X111830222Y-112927433D01*
X111983724Y-113030000D01*
X111830222Y-113132567D01*
X111472330Y-113668190D01*
X111346655Y-114300000D01*
X111472330Y-114931810D01*
X111830222Y-115467433D01*
X111983724Y-115570000D01*
X111830222Y-115672567D01*
X111472330Y-116208190D01*
X111346655Y-116840000D01*
X111472330Y-117471810D01*
X111830222Y-118007433D01*
X111983724Y-118110000D01*
X111830222Y-118212567D01*
X111569652Y-118602538D01*
X111541890Y-118583569D01*
X111290000Y-118532560D01*
X110990000Y-118532560D01*
X110754683Y-118576838D01*
X110538559Y-118715910D01*
X110490866Y-118785711D01*
X110454090Y-118728559D01*
X110241890Y-118583569D01*
X109990000Y-118532560D01*
X109690000Y-118532560D01*
X109454683Y-118576838D01*
X109387607Y-118620000D01*
X108512463Y-118620000D01*
X108480327Y-118587808D01*
X108136799Y-118445162D01*
X107764833Y-118444838D01*
X107421057Y-118586883D01*
X107315046Y-118692710D01*
X107210327Y-118587808D01*
X107186000Y-118577706D01*
X107186000Y-104140000D01*
X107128148Y-103849161D01*
X106963401Y-103602599D01*
X95239969Y-91879167D01*
X101426838Y-91879167D01*
X101568883Y-92222943D01*
X101811878Y-92466362D01*
X101824599Y-92485401D01*
X107776878Y-98437680D01*
X107776838Y-98483167D01*
X107918883Y-98826943D01*
X108181673Y-99090192D01*
X108525201Y-99232838D01*
X108897167Y-99233162D01*
X109240943Y-99091117D01*
X109504192Y-98828327D01*
X109646838Y-98484799D01*
X109647162Y-98112833D01*
X109505117Y-97769057D01*
X109242327Y-97505808D01*
X108898799Y-97363162D01*
X108851923Y-97363121D01*
X103296901Y-91808099D01*
X103297162Y-91508833D01*
X103155117Y-91165057D01*
X102892327Y-90901808D01*
X102548799Y-90759162D01*
X102176833Y-90758838D01*
X101833057Y-90900883D01*
X101569808Y-91163673D01*
X101427162Y-91507201D01*
X101426838Y-91879167D01*
X95239969Y-91879167D01*
X94407122Y-91046320D01*
X94407162Y-91000833D01*
X94265117Y-90657057D01*
X94002327Y-90393808D01*
X93658799Y-90251162D01*
X93286833Y-90250838D01*
X92943057Y-90392883D01*
X92679808Y-90655673D01*
X92537162Y-90999201D01*
X92536838Y-91371167D01*
X92600822Y-91526020D01*
X85850000Y-84775198D01*
X85850000Y-76962000D01*
X87124000Y-76962000D01*
X87124000Y-84328000D01*
X87181852Y-84618839D01*
X87346599Y-84865401D01*
X90615171Y-88133973D01*
X90614760Y-88604285D01*
X90825169Y-89113515D01*
X91214436Y-89503461D01*
X91723298Y-89714759D01*
X92274285Y-89715240D01*
X92783515Y-89504831D01*
X93136160Y-89152800D01*
X105333800Y-89152800D01*
X105605505Y-89098754D01*
X105835846Y-88944846D01*
X105989754Y-88714505D01*
X106043800Y-88442800D01*
X106043800Y-78054200D01*
X105989754Y-77782495D01*
X105835846Y-77552154D01*
X105605505Y-77398246D01*
X105333800Y-77344200D01*
X93132620Y-77344200D01*
X92785564Y-76996539D01*
X92697568Y-76960000D01*
X113737537Y-76960000D01*
X113769673Y-76992192D01*
X114113201Y-77134838D01*
X114485167Y-77135162D01*
X114828943Y-76993117D01*
X115092192Y-76730327D01*
X115234838Y-76386799D01*
X115235162Y-76014833D01*
X115093117Y-75671057D01*
X114830327Y-75407808D01*
X114486799Y-75265162D01*
X114114833Y-75264838D01*
X113859570Y-75370310D01*
X113964838Y-75116799D01*
X113965162Y-74744833D01*
X113823117Y-74401057D01*
X113560327Y-74137808D01*
X113216799Y-73995162D01*
X112844833Y-73994838D01*
X112589570Y-74100310D01*
X112694838Y-73846799D01*
X112695162Y-73474833D01*
X112553117Y-73131057D01*
X112290327Y-72867808D01*
X111946799Y-72725162D01*
X111574833Y-72724838D01*
X111231057Y-72866883D01*
X111197882Y-72900000D01*
X91186000Y-72900000D01*
X90895160Y-72957852D01*
X90648599Y-73122599D01*
X87346599Y-76424599D01*
X87181852Y-76671161D01*
X87124000Y-76962000D01*
X85850000Y-76962000D01*
X85850000Y-59998463D01*
X85882192Y-59966327D01*
X86024838Y-59622799D01*
X86025162Y-59250833D01*
X85883117Y-58907057D01*
X85850000Y-58873882D01*
X85850000Y-42224802D01*
X87944802Y-40130000D01*
X95443198Y-40130000D01*
X96607366Y-41294168D01*
X96286539Y-41614436D01*
X96190024Y-41846870D01*
X96094831Y-41616485D01*
X95705564Y-41226539D01*
X95196702Y-41015241D01*
X94645715Y-41014760D01*
X94136485Y-41225169D01*
X93746539Y-41614436D01*
X93535241Y-42123298D01*
X93534760Y-42674285D01*
X93565797Y-42749400D01*
X93243400Y-42749400D01*
X92971695Y-42803446D01*
X92741354Y-42957354D01*
X92587446Y-43187695D01*
X92533400Y-43459400D01*
X92533400Y-55041800D01*
X92587446Y-55313505D01*
X92741354Y-55543846D01*
X92971695Y-55697754D01*
X93243400Y-55751800D01*
X93522560Y-55751800D01*
X93522560Y-56633758D01*
X92883122Y-55994320D01*
X92883162Y-55948833D01*
X92741117Y-55605057D01*
X92478327Y-55341808D01*
X92134799Y-55199162D01*
X91762833Y-55198838D01*
X91419057Y-55340883D01*
X91155808Y-55603673D01*
X91013162Y-55947201D01*
X91012838Y-56319167D01*
X91154883Y-56662943D01*
X91417673Y-56926192D01*
X91761201Y-57068838D01*
X91808077Y-57068879D01*
X92287957Y-57548759D01*
X92134799Y-57485162D01*
X91762833Y-57484838D01*
X91419057Y-57626883D01*
X91155808Y-57889673D01*
X91013162Y-58233201D01*
X91012838Y-58605167D01*
X91154883Y-58948943D01*
X91188000Y-58982118D01*
X91188000Y-61667537D01*
X91155808Y-61699673D01*
X91013162Y-62043201D01*
X91012838Y-62415167D01*
X91154883Y-62758943D01*
X91417673Y-63022192D01*
X91761201Y-63164838D01*
X92133167Y-63165162D01*
X92476943Y-63023117D01*
X92740192Y-62760327D01*
X92882838Y-62416799D01*
X92883162Y-62044833D01*
X92741117Y-61701057D01*
X92708000Y-61667882D01*
X92708000Y-58982463D01*
X92740192Y-58950327D01*
X92882838Y-58606799D01*
X92883162Y-58234833D01*
X92819178Y-58079980D01*
X105744878Y-71005680D01*
X105744838Y-71051167D01*
X105886883Y-71394943D01*
X106149673Y-71658192D01*
X106493201Y-71800838D01*
X106865167Y-71801162D01*
X107208943Y-71659117D01*
X107472192Y-71396327D01*
X107614838Y-71052799D01*
X107615162Y-70680833D01*
X107473117Y-70337057D01*
X107210327Y-70073808D01*
X106866799Y-69931162D01*
X106819923Y-69931121D01*
X94386242Y-57497440D01*
X95538638Y-57497440D01*
X99538599Y-61497401D01*
X99785161Y-61662148D01*
X100076000Y-61720000D01*
X109927537Y-61720000D01*
X109959673Y-61752192D01*
X110303201Y-61894838D01*
X110675167Y-61895162D01*
X111018943Y-61753117D01*
X111282192Y-61490327D01*
X111424838Y-61146799D01*
X111425162Y-60774833D01*
X111290944Y-60450000D01*
X115007537Y-60450000D01*
X115039673Y-60482192D01*
X115383201Y-60624838D01*
X115755167Y-60625162D01*
X116098943Y-60483117D01*
X116362192Y-60220327D01*
X116504838Y-59876799D01*
X116505162Y-59504833D01*
X116363117Y-59161057D01*
X116100327Y-58897808D01*
X115756799Y-58755162D01*
X115384833Y-58754838D01*
X115041057Y-58896883D01*
X115007882Y-58930000D01*
X100644802Y-58930000D01*
X98616899Y-56902097D01*
X98633461Y-56885564D01*
X98729976Y-56653130D01*
X98825169Y-56883515D01*
X99214436Y-57273461D01*
X99723298Y-57484759D01*
X100274285Y-57485240D01*
X100783515Y-57274831D01*
X101173461Y-56885564D01*
X101269976Y-56653130D01*
X101365169Y-56883515D01*
X101754436Y-57273461D01*
X102263298Y-57484759D01*
X102814285Y-57485240D01*
X103323515Y-57274831D01*
X103713461Y-56885564D01*
X103809976Y-56653130D01*
X103905169Y-56883515D01*
X104294436Y-57273461D01*
X104803298Y-57484759D01*
X105354285Y-57485240D01*
X105863515Y-57274831D01*
X106253461Y-56885564D01*
X106264076Y-56860000D01*
X108403355Y-56860000D01*
X108426883Y-56916943D01*
X108689673Y-57180192D01*
X109033201Y-57322838D01*
X109405167Y-57323162D01*
X109748943Y-57181117D01*
X110012192Y-56918327D01*
X110154838Y-56574799D01*
X110155162Y-56202833D01*
X110013117Y-55859057D01*
X109750327Y-55595808D01*
X109406799Y-55453162D01*
X109305484Y-55453074D01*
X109222839Y-55397852D01*
X108932000Y-55340000D01*
X107369051Y-55340000D01*
X107386754Y-55313505D01*
X107440800Y-55041800D01*
X107440800Y-43459400D01*
X107386754Y-43187695D01*
X107232846Y-42957354D01*
X107002505Y-42803446D01*
X106730800Y-42749400D01*
X106434572Y-42749400D01*
X106464759Y-42676702D01*
X106465240Y-42125715D01*
X106254831Y-41616485D01*
X105865564Y-41226539D01*
X105356702Y-41015241D01*
X104805715Y-41014760D01*
X104296485Y-41225169D01*
X103906539Y-41614436D01*
X103810024Y-41846870D01*
X103714831Y-41616485D01*
X103325564Y-41226539D01*
X102816702Y-41015241D01*
X102265715Y-41014760D01*
X101756485Y-41225169D01*
X101366539Y-41614436D01*
X101270024Y-41846870D01*
X101174831Y-41616485D01*
X100785564Y-41226539D01*
X100276702Y-41015241D01*
X99725715Y-41014760D01*
X99216485Y-41225169D01*
X98826539Y-41614436D01*
X98730024Y-41846870D01*
X98634831Y-41616485D01*
X98245564Y-41226539D01*
X98220000Y-41215924D01*
X98220000Y-41072000D01*
X98162148Y-40781161D01*
X97997401Y-40534599D01*
X96832802Y-39370000D01*
X101883401Y-34319401D01*
X102048148Y-34072840D01*
X102106000Y-33782000D01*
X102106000Y-31935167D01*
X103204838Y-31935167D01*
X103346883Y-32278943D01*
X103609673Y-32542192D01*
X103953201Y-32684838D01*
X104325167Y-32685162D01*
X104668943Y-32543117D01*
X104901715Y-32310750D01*
X105215000Y-32310750D01*
X105215000Y-32526310D01*
X105311673Y-32759699D01*
X105490302Y-32938327D01*
X105723691Y-33035000D01*
X106139250Y-33035000D01*
X106298000Y-32876250D01*
X106298000Y-32152000D01*
X106552000Y-32152000D01*
X106552000Y-32876250D01*
X106710750Y-33035000D01*
X107126309Y-33035000D01*
X107359698Y-32938327D01*
X107538327Y-32759699D01*
X107635000Y-32526310D01*
X107635000Y-32310750D01*
X108365000Y-32310750D01*
X108365000Y-32526310D01*
X108461673Y-32759699D01*
X108640302Y-32938327D01*
X108873691Y-33035000D01*
X109289250Y-33035000D01*
X109448000Y-32876250D01*
X109448000Y-32152000D01*
X109702000Y-32152000D01*
X109702000Y-32876250D01*
X109860750Y-33035000D01*
X110276309Y-33035000D01*
X110509698Y-32938327D01*
X110688327Y-32759699D01*
X110785000Y-32526310D01*
X110785000Y-32310750D01*
X110626250Y-32152000D01*
X109702000Y-32152000D01*
X109448000Y-32152000D01*
X108523750Y-32152000D01*
X108365000Y-32310750D01*
X107635000Y-32310750D01*
X107476250Y-32152000D01*
X106552000Y-32152000D01*
X106298000Y-32152000D01*
X105373750Y-32152000D01*
X105215000Y-32310750D01*
X104901715Y-32310750D01*
X104932192Y-32280327D01*
X105074838Y-31936799D01*
X105074879Y-31889923D01*
X105180443Y-31784359D01*
X105198110Y-31796431D01*
X105290990Y-31815240D01*
X105373750Y-31898000D01*
X106298000Y-31898000D01*
X106298000Y-31878000D01*
X106552000Y-31878000D01*
X106552000Y-31898000D01*
X107476250Y-31898000D01*
X107635000Y-31739250D01*
X107635000Y-31523690D01*
X107538327Y-31290301D01*
X107359698Y-31111673D01*
X107126309Y-31015000D01*
X107047440Y-31015000D01*
X107047440Y-29985000D01*
X107126309Y-29985000D01*
X107359698Y-29888327D01*
X107538327Y-29709699D01*
X107635000Y-29476310D01*
X107635000Y-29260750D01*
X107476250Y-29102000D01*
X106552000Y-29102000D01*
X106552000Y-29122000D01*
X106298000Y-29122000D01*
X106298000Y-29102000D01*
X105373750Y-29102000D01*
X105293799Y-29181951D01*
X105214683Y-29196838D01*
X104998559Y-29335910D01*
X104853569Y-29548110D01*
X104802560Y-29800000D01*
X104802560Y-30012638D01*
X104000320Y-30814878D01*
X103954833Y-30814838D01*
X103611057Y-30956883D01*
X103347808Y-31219673D01*
X103205162Y-31563201D01*
X103204838Y-31935167D01*
X102106000Y-31935167D01*
X102106000Y-30788463D01*
X102138192Y-30756327D01*
X102280838Y-30412799D01*
X102280879Y-30365923D01*
X104173112Y-28473690D01*
X105215000Y-28473690D01*
X105215000Y-28689250D01*
X105373750Y-28848000D01*
X106298000Y-28848000D01*
X106298000Y-28123750D01*
X106552000Y-28123750D01*
X106552000Y-28848000D01*
X107476250Y-28848000D01*
X107635000Y-28689250D01*
X107635000Y-28473690D01*
X108365000Y-28473690D01*
X108365000Y-28689250D01*
X108523750Y-28848000D01*
X109448000Y-28848000D01*
X109448000Y-28123750D01*
X109289250Y-27965000D01*
X108873691Y-27965000D01*
X108640302Y-28061673D01*
X108461673Y-28240301D01*
X108365000Y-28473690D01*
X107635000Y-28473690D01*
X107538327Y-28240301D01*
X107359698Y-28061673D01*
X107126309Y-27965000D01*
X106710750Y-27965000D01*
X106552000Y-28123750D01*
X106298000Y-28123750D01*
X106139250Y-27965000D01*
X105723691Y-27965000D01*
X105490302Y-28061673D01*
X105311673Y-28240301D01*
X105215000Y-28473690D01*
X104173112Y-28473690D01*
X105216802Y-27430000D01*
X110429198Y-27430000D01*
X111000000Y-28000802D01*
X111000000Y-28500198D01*
X110652200Y-28847998D01*
X110626252Y-28847998D01*
X110785000Y-28689250D01*
X110785000Y-28473690D01*
X110688327Y-28240301D01*
X110509698Y-28061673D01*
X110276309Y-27965000D01*
X109860750Y-27965000D01*
X109702000Y-28123750D01*
X109702000Y-28848000D01*
X109722000Y-28848000D01*
X109722000Y-29102000D01*
X109702000Y-29102000D01*
X109702000Y-29122000D01*
X109448000Y-29122000D01*
X109448000Y-29102000D01*
X108523750Y-29102000D01*
X108365000Y-29260750D01*
X108365000Y-29476310D01*
X108461673Y-29709699D01*
X108640302Y-29888327D01*
X108873691Y-29985000D01*
X108952560Y-29985000D01*
X108952560Y-31015000D01*
X108873691Y-31015000D01*
X108640302Y-31111673D01*
X108461673Y-31290301D01*
X108365000Y-31523690D01*
X108365000Y-31739250D01*
X108523750Y-31898000D01*
X109448000Y-31898000D01*
X109448000Y-31878000D01*
X109702000Y-31878000D01*
X109702000Y-31898000D01*
X110626250Y-31898000D01*
X110706201Y-31818049D01*
X110785317Y-31803162D01*
X111001441Y-31664090D01*
X111146431Y-31451890D01*
X111197440Y-31200000D01*
X111197440Y-30452362D01*
X112297401Y-29352401D01*
X112462148Y-29105839D01*
X112520000Y-28815000D01*
X112520000Y-27686000D01*
X112462148Y-27395161D01*
X112297401Y-27148599D01*
X111281401Y-26132599D01*
X111034839Y-25967852D01*
X110744000Y-25910000D01*
X104902000Y-25910000D01*
X104659414Y-25958254D01*
X104611160Y-25967852D01*
X104364599Y-26132599D01*
X101206320Y-29290878D01*
X101160833Y-29290838D01*
X100817057Y-29432883D01*
X100553808Y-29695673D01*
X100411162Y-30039201D01*
X100410838Y-30411167D01*
X100552883Y-30754943D01*
X100586000Y-30788118D01*
X100586000Y-33467198D01*
X95443198Y-38610000D01*
X89593073Y-38610000D01*
X89715229Y-38559526D01*
X90879438Y-37397347D01*
X91510280Y-35878111D01*
X91511716Y-34233106D01*
X90883526Y-32712771D01*
X89721347Y-31548562D01*
X88202111Y-30917720D01*
X86557106Y-30916284D01*
X85036771Y-31544474D01*
X84210000Y-32369803D01*
X84210000Y-26601167D01*
X88980838Y-26601167D01*
X89122883Y-26944943D01*
X89385673Y-27208192D01*
X89729201Y-27350838D01*
X89918000Y-27351002D01*
X89918000Y-27377537D01*
X89885808Y-27409673D01*
X89743162Y-27753201D01*
X89742838Y-28125167D01*
X89884883Y-28468943D01*
X90147673Y-28732192D01*
X90491201Y-28874838D01*
X90863167Y-28875162D01*
X91206943Y-28733117D01*
X91240000Y-28700118D01*
X91240000Y-29008000D01*
X91267057Y-29144022D01*
X91266838Y-29395167D01*
X91408883Y-29738943D01*
X91671673Y-30002192D01*
X92015201Y-30144838D01*
X92387167Y-30145162D01*
X92730943Y-30003117D01*
X92994192Y-29740327D01*
X93136838Y-29396799D01*
X93137162Y-29024833D01*
X92995117Y-28681057D01*
X92760000Y-28445529D01*
X92760000Y-26264547D01*
X92783515Y-26254831D01*
X93132153Y-25906800D01*
X105333800Y-25906800D01*
X105605505Y-25852754D01*
X105835846Y-25698846D01*
X105989754Y-25468505D01*
X106043800Y-25196800D01*
X106043800Y-14808200D01*
X105989754Y-14536495D01*
X105835846Y-14306154D01*
X105605505Y-14152246D01*
X105333800Y-14098200D01*
X93136613Y-14098200D01*
X92785564Y-13746539D01*
X92276702Y-13535241D01*
X91725715Y-13534760D01*
X91216485Y-13745169D01*
X90826539Y-14134436D01*
X90615241Y-14643298D01*
X90614760Y-15194285D01*
X90825169Y-15703515D01*
X91214436Y-16093461D01*
X91446870Y-16189976D01*
X91216485Y-16285169D01*
X90826539Y-16674436D01*
X90615241Y-17183298D01*
X90614938Y-17530260D01*
X89378599Y-18766599D01*
X89213852Y-19013161D01*
X89156000Y-19304000D01*
X89156000Y-25853537D01*
X89123808Y-25885673D01*
X88981162Y-26229201D01*
X88980838Y-26601167D01*
X84210000Y-26601167D01*
X84210000Y-12082682D01*
X85360589Y-11853816D01*
X85466603Y-11809903D01*
X85616530Y-11747802D01*
X87076435Y-10772325D01*
X87085757Y-10763003D01*
X87272325Y-10576436D01*
X88247801Y-9116530D01*
X88353816Y-8860589D01*
X88582682Y-7710000D01*
X115474729Y-7710000D01*
X114606562Y-8576653D01*
X114606562Y-8576653D01*
G37*
X114606562Y-8576653D02*
X113975720Y-10095889D01*
X113974284Y-11740894D01*
X114602474Y-13261229D01*
X115764653Y-14425438D01*
X117283889Y-15056280D01*
X118928894Y-15057716D01*
X120449229Y-14429526D01*
X121290000Y-13590221D01*
X121290000Y-108537673D01*
X121180327Y-108427808D01*
X120836799Y-108285162D01*
X120789923Y-108285121D01*
X118647401Y-106142599D01*
X118400839Y-105977852D01*
X118110000Y-105920000D01*
X116675209Y-105920000D01*
X116621890Y-105883569D01*
X116370000Y-105832560D01*
X116070000Y-105832560D01*
X115834683Y-105876838D01*
X115618559Y-106015910D01*
X115570866Y-106085711D01*
X115534090Y-106028559D01*
X115321890Y-105883569D01*
X115070000Y-105832560D01*
X114770000Y-105832560D01*
X114534683Y-105876838D01*
X114491670Y-105904516D01*
X114229778Y-105512567D01*
X113694155Y-105154675D01*
X113062345Y-105029000D01*
X112997655Y-105029000D01*
X112365845Y-105154675D01*
X111830222Y-105512567D01*
X111472330Y-106048190D01*
X111346655Y-106680000D01*
X111472330Y-107311810D01*
X111830222Y-107847433D01*
X111983724Y-107950000D01*
X111830222Y-108052567D01*
X111472330Y-108588190D01*
X111346655Y-109220000D01*
X111472330Y-109851810D01*
X111830222Y-110387433D01*
X111983724Y-110490000D01*
X111830222Y-110592567D01*
X111472330Y-111128190D01*
X111346655Y-111760000D01*
X111472330Y-112391810D01*
X111830222Y-112927433D01*
X111983724Y-113030000D01*
X111830222Y-113132567D01*
X111472330Y-113668190D01*
X111346655Y-114300000D01*
X111472330Y-114931810D01*
X111830222Y-115467433D01*
X111983724Y-115570000D01*
X111830222Y-115672567D01*
X111472330Y-116208190D01*
X111346655Y-116840000D01*
X111472330Y-117471810D01*
X111830222Y-118007433D01*
X111983724Y-118110000D01*
X111830222Y-118212567D01*
X111569652Y-118602538D01*
X111541890Y-118583569D01*
X111290000Y-118532560D01*
X110990000Y-118532560D01*
X110754683Y-118576838D01*
X110538559Y-118715910D01*
X110490866Y-118785711D01*
X110454090Y-118728559D01*
X110241890Y-118583569D01*
X109990000Y-118532560D01*
X109690000Y-118532560D01*
X109454683Y-118576838D01*
X109387607Y-118620000D01*
X108512463Y-118620000D01*
X108480327Y-118587808D01*
X108136799Y-118445162D01*
X107764833Y-118444838D01*
X107421057Y-118586883D01*
X107315046Y-118692710D01*
X107210327Y-118587808D01*
X107186000Y-118577706D01*
X107186000Y-104140000D01*
X107128148Y-103849161D01*
X106963401Y-103602599D01*
X95239969Y-91879167D01*
X101426838Y-91879167D01*
X101568883Y-92222943D01*
X101811878Y-92466362D01*
X101824599Y-92485401D01*
X107776878Y-98437680D01*
X107776838Y-98483167D01*
X107918883Y-98826943D01*
X108181673Y-99090192D01*
X108525201Y-99232838D01*
X108897167Y-99233162D01*
X109240943Y-99091117D01*
X109504192Y-98828327D01*
X109646838Y-98484799D01*
X109647162Y-98112833D01*
X109505117Y-97769057D01*
X109242327Y-97505808D01*
X108898799Y-97363162D01*
X108851923Y-97363121D01*
X103296901Y-91808099D01*
X103297162Y-91508833D01*
X103155117Y-91165057D01*
X102892327Y-90901808D01*
X102548799Y-90759162D01*
X102176833Y-90758838D01*
X101833057Y-90900883D01*
X101569808Y-91163673D01*
X101427162Y-91507201D01*
X101426838Y-91879167D01*
X95239969Y-91879167D01*
X94407122Y-91046320D01*
X94407162Y-91000833D01*
X94265117Y-90657057D01*
X94002327Y-90393808D01*
X93658799Y-90251162D01*
X93286833Y-90250838D01*
X92943057Y-90392883D01*
X92679808Y-90655673D01*
X92537162Y-90999201D01*
X92536838Y-91371167D01*
X92600822Y-91526020D01*
X85850000Y-84775198D01*
X85850000Y-76962000D01*
X87124000Y-76962000D01*
X87124000Y-84328000D01*
X87181852Y-84618839D01*
X87346599Y-84865401D01*
X90615171Y-88133973D01*
X90614760Y-88604285D01*
X90825169Y-89113515D01*
X91214436Y-89503461D01*
X91723298Y-89714759D01*
X92274285Y-89715240D01*
X92783515Y-89504831D01*
X93136160Y-89152800D01*
X105333800Y-89152800D01*
X105605505Y-89098754D01*
X105835846Y-88944846D01*
X105989754Y-88714505D01*
X106043800Y-88442800D01*
X106043800Y-78054200D01*
X105989754Y-77782495D01*
X105835846Y-77552154D01*
X105605505Y-77398246D01*
X105333800Y-77344200D01*
X93132620Y-77344200D01*
X92785564Y-76996539D01*
X92697568Y-76960000D01*
X113737537Y-76960000D01*
X113769673Y-76992192D01*
X114113201Y-77134838D01*
X114485167Y-77135162D01*
X114828943Y-76993117D01*
X115092192Y-76730327D01*
X115234838Y-76386799D01*
X115235162Y-76014833D01*
X115093117Y-75671057D01*
X114830327Y-75407808D01*
X114486799Y-75265162D01*
X114114833Y-75264838D01*
X113859570Y-75370310D01*
X113964838Y-75116799D01*
X113965162Y-74744833D01*
X113823117Y-74401057D01*
X113560327Y-74137808D01*
X113216799Y-73995162D01*
X112844833Y-73994838D01*
X112589570Y-74100310D01*
X112694838Y-73846799D01*
X112695162Y-73474833D01*
X112553117Y-73131057D01*
X112290327Y-72867808D01*
X111946799Y-72725162D01*
X111574833Y-72724838D01*
X111231057Y-72866883D01*
X111197882Y-72900000D01*
X91186000Y-72900000D01*
X90895160Y-72957852D01*
X90648599Y-73122599D01*
X87346599Y-76424599D01*
X87181852Y-76671161D01*
X87124000Y-76962000D01*
X85850000Y-76962000D01*
X85850000Y-59998463D01*
X85882192Y-59966327D01*
X86024838Y-59622799D01*
X86025162Y-59250833D01*
X85883117Y-58907057D01*
X85850000Y-58873882D01*
X85850000Y-42224802D01*
X87944802Y-40130000D01*
X95443198Y-40130000D01*
X96607366Y-41294168D01*
X96286539Y-41614436D01*
X96190024Y-41846870D01*
X96094831Y-41616485D01*
X95705564Y-41226539D01*
X95196702Y-41015241D01*
X94645715Y-41014760D01*
X94136485Y-41225169D01*
X93746539Y-41614436D01*
X93535241Y-42123298D01*
X93534760Y-42674285D01*
X93565797Y-42749400D01*
X93243400Y-42749400D01*
X92971695Y-42803446D01*
X92741354Y-42957354D01*
X92587446Y-43187695D01*
X92533400Y-43459400D01*
X92533400Y-55041800D01*
X92587446Y-55313505D01*
X92741354Y-55543846D01*
X92971695Y-55697754D01*
X93243400Y-55751800D01*
X93522560Y-55751800D01*
X93522560Y-56633758D01*
X92883122Y-55994320D01*
X92883162Y-55948833D01*
X92741117Y-55605057D01*
X92478327Y-55341808D01*
X92134799Y-55199162D01*
X91762833Y-55198838D01*
X91419057Y-55340883D01*
X91155808Y-55603673D01*
X91013162Y-55947201D01*
X91012838Y-56319167D01*
X91154883Y-56662943D01*
X91417673Y-56926192D01*
X91761201Y-57068838D01*
X91808077Y-57068879D01*
X92287957Y-57548759D01*
X92134799Y-57485162D01*
X91762833Y-57484838D01*
X91419057Y-57626883D01*
X91155808Y-57889673D01*
X91013162Y-58233201D01*
X91012838Y-58605167D01*
X91154883Y-58948943D01*
X91188000Y-58982118D01*
X91188000Y-61667537D01*
X91155808Y-61699673D01*
X91013162Y-62043201D01*
X91012838Y-62415167D01*
X91154883Y-62758943D01*
X91417673Y-63022192D01*
X91761201Y-63164838D01*
X92133167Y-63165162D01*
X92476943Y-63023117D01*
X92740192Y-62760327D01*
X92882838Y-62416799D01*
X92883162Y-62044833D01*
X92741117Y-61701057D01*
X92708000Y-61667882D01*
X92708000Y-58982463D01*
X92740192Y-58950327D01*
X92882838Y-58606799D01*
X92883162Y-58234833D01*
X92819178Y-58079980D01*
X105744878Y-71005680D01*
X105744838Y-71051167D01*
X105886883Y-71394943D01*
X106149673Y-71658192D01*
X106493201Y-71800838D01*
X106865167Y-71801162D01*
X107208943Y-71659117D01*
X107472192Y-71396327D01*
X107614838Y-71052799D01*
X107615162Y-70680833D01*
X107473117Y-70337057D01*
X107210327Y-70073808D01*
X106866799Y-69931162D01*
X106819923Y-69931121D01*
X94386242Y-57497440D01*
X95538638Y-57497440D01*
X99538599Y-61497401D01*
X99785161Y-61662148D01*
X100076000Y-61720000D01*
X109927537Y-61720000D01*
X109959673Y-61752192D01*
X110303201Y-61894838D01*
X110675167Y-61895162D01*
X111018943Y-61753117D01*
X111282192Y-61490327D01*
X111424838Y-61146799D01*
X111425162Y-60774833D01*
X111290944Y-60450000D01*
X115007537Y-60450000D01*
X115039673Y-60482192D01*
X115383201Y-60624838D01*
X115755167Y-60625162D01*
X116098943Y-60483117D01*
X116362192Y-60220327D01*
X116504838Y-59876799D01*
X116505162Y-59504833D01*
X116363117Y-59161057D01*
X116100327Y-58897808D01*
X115756799Y-58755162D01*
X115384833Y-58754838D01*
X115041057Y-58896883D01*
X115007882Y-58930000D01*
X100644802Y-58930000D01*
X98616899Y-56902097D01*
X98633461Y-56885564D01*
X98729976Y-56653130D01*
X98825169Y-56883515D01*
X99214436Y-57273461D01*
X99723298Y-57484759D01*
X100274285Y-57485240D01*
X100783515Y-57274831D01*
X101173461Y-56885564D01*
X101269976Y-56653130D01*
X101365169Y-56883515D01*
X101754436Y-57273461D01*
X102263298Y-57484759D01*
X102814285Y-57485240D01*
X103323515Y-57274831D01*
X103713461Y-56885564D01*
X103809976Y-56653130D01*
X103905169Y-56883515D01*
X104294436Y-57273461D01*
X104803298Y-57484759D01*
X105354285Y-57485240D01*
X105863515Y-57274831D01*
X106253461Y-56885564D01*
X106264076Y-56860000D01*
X108403355Y-56860000D01*
X108426883Y-56916943D01*
X108689673Y-57180192D01*
X109033201Y-57322838D01*
X109405167Y-57323162D01*
X109748943Y-57181117D01*
X110012192Y-56918327D01*
X110154838Y-56574799D01*
X110155162Y-56202833D01*
X110013117Y-55859057D01*
X109750327Y-55595808D01*
X109406799Y-55453162D01*
X109305484Y-55453074D01*
X109222839Y-55397852D01*
X108932000Y-55340000D01*
X107369051Y-55340000D01*
X107386754Y-55313505D01*
X107440800Y-55041800D01*
X107440800Y-43459400D01*
X107386754Y-43187695D01*
X107232846Y-42957354D01*
X107002505Y-42803446D01*
X106730800Y-42749400D01*
X106434572Y-42749400D01*
X106464759Y-42676702D01*
X106465240Y-42125715D01*
X106254831Y-41616485D01*
X105865564Y-41226539D01*
X105356702Y-41015241D01*
X104805715Y-41014760D01*
X104296485Y-41225169D01*
X103906539Y-41614436D01*
X103810024Y-41846870D01*
X103714831Y-41616485D01*
X103325564Y-41226539D01*
X102816702Y-41015241D01*
X102265715Y-41014760D01*
X101756485Y-41225169D01*
X101366539Y-41614436D01*
X101270024Y-41846870D01*
X101174831Y-41616485D01*
X100785564Y-41226539D01*
X100276702Y-41015241D01*
X99725715Y-41014760D01*
X99216485Y-41225169D01*
X98826539Y-41614436D01*
X98730024Y-41846870D01*
X98634831Y-41616485D01*
X98245564Y-41226539D01*
X98220000Y-41215924D01*
X98220000Y-41072000D01*
X98162148Y-40781161D01*
X97997401Y-40534599D01*
X96832802Y-39370000D01*
X101883401Y-34319401D01*
X102048148Y-34072840D01*
X102106000Y-33782000D01*
X102106000Y-31935167D01*
X103204838Y-31935167D01*
X103346883Y-32278943D01*
X103609673Y-32542192D01*
X103953201Y-32684838D01*
X104325167Y-32685162D01*
X104668943Y-32543117D01*
X104901715Y-32310750D01*
X105215000Y-32310750D01*
X105215000Y-32526310D01*
X105311673Y-32759699D01*
X105490302Y-32938327D01*
X105723691Y-33035000D01*
X106139250Y-33035000D01*
X106298000Y-32876250D01*
X106298000Y-32152000D01*
X106552000Y-32152000D01*
X106552000Y-32876250D01*
X106710750Y-33035000D01*
X107126309Y-33035000D01*
X107359698Y-32938327D01*
X107538327Y-32759699D01*
X107635000Y-32526310D01*
X107635000Y-32310750D01*
X108365000Y-32310750D01*
X108365000Y-32526310D01*
X108461673Y-32759699D01*
X108640302Y-32938327D01*
X108873691Y-33035000D01*
X109289250Y-33035000D01*
X109448000Y-32876250D01*
X109448000Y-32152000D01*
X109702000Y-32152000D01*
X109702000Y-32876250D01*
X109860750Y-33035000D01*
X110276309Y-33035000D01*
X110509698Y-32938327D01*
X110688327Y-32759699D01*
X110785000Y-32526310D01*
X110785000Y-32310750D01*
X110626250Y-32152000D01*
X109702000Y-32152000D01*
X109448000Y-32152000D01*
X108523750Y-32152000D01*
X108365000Y-32310750D01*
X107635000Y-32310750D01*
X107476250Y-32152000D01*
X106552000Y-32152000D01*
X106298000Y-32152000D01*
X105373750Y-32152000D01*
X105215000Y-32310750D01*
X104901715Y-32310750D01*
X104932192Y-32280327D01*
X105074838Y-31936799D01*
X105074879Y-31889923D01*
X105180443Y-31784359D01*
X105198110Y-31796431D01*
X105290990Y-31815240D01*
X105373750Y-31898000D01*
X106298000Y-31898000D01*
X106298000Y-31878000D01*
X106552000Y-31878000D01*
X106552000Y-31898000D01*
X107476250Y-31898000D01*
X107635000Y-31739250D01*
X107635000Y-31523690D01*
X107538327Y-31290301D01*
X107359698Y-31111673D01*
X107126309Y-31015000D01*
X107047440Y-31015000D01*
X107047440Y-29985000D01*
X107126309Y-29985000D01*
X107359698Y-29888327D01*
X107538327Y-29709699D01*
X107635000Y-29476310D01*
X107635000Y-29260750D01*
X107476250Y-29102000D01*
X106552000Y-29102000D01*
X106552000Y-29122000D01*
X106298000Y-29122000D01*
X106298000Y-29102000D01*
X105373750Y-29102000D01*
X105293799Y-29181951D01*
X105214683Y-29196838D01*
X104998559Y-29335910D01*
X104853569Y-29548110D01*
X104802560Y-29800000D01*
X104802560Y-30012638D01*
X104000320Y-30814878D01*
X103954833Y-30814838D01*
X103611057Y-30956883D01*
X103347808Y-31219673D01*
X103205162Y-31563201D01*
X103204838Y-31935167D01*
X102106000Y-31935167D01*
X102106000Y-30788463D01*
X102138192Y-30756327D01*
X102280838Y-30412799D01*
X102280879Y-30365923D01*
X104173112Y-28473690D01*
X105215000Y-28473690D01*
X105215000Y-28689250D01*
X105373750Y-28848000D01*
X106298000Y-28848000D01*
X106298000Y-28123750D01*
X106552000Y-28123750D01*
X106552000Y-28848000D01*
X107476250Y-28848000D01*
X107635000Y-28689250D01*
X107635000Y-28473690D01*
X108365000Y-28473690D01*
X108365000Y-28689250D01*
X108523750Y-28848000D01*
X109448000Y-28848000D01*
X109448000Y-28123750D01*
X109289250Y-27965000D01*
X108873691Y-27965000D01*
X108640302Y-28061673D01*
X108461673Y-28240301D01*
X108365000Y-28473690D01*
X107635000Y-28473690D01*
X107538327Y-28240301D01*
X107359698Y-28061673D01*
X107126309Y-27965000D01*
X106710750Y-27965000D01*
X106552000Y-28123750D01*
X106298000Y-28123750D01*
X106139250Y-27965000D01*
X105723691Y-27965000D01*
X105490302Y-28061673D01*
X105311673Y-28240301D01*
X105215000Y-28473690D01*
X104173112Y-28473690D01*
X105216802Y-27430000D01*
X110429198Y-27430000D01*
X111000000Y-28000802D01*
X111000000Y-28500198D01*
X110652200Y-28847998D01*
X110626252Y-28847998D01*
X110785000Y-28689250D01*
X110785000Y-28473690D01*
X110688327Y-28240301D01*
X110509698Y-28061673D01*
X110276309Y-27965000D01*
X109860750Y-27965000D01*
X109702000Y-28123750D01*
X109702000Y-28848000D01*
X109722000Y-28848000D01*
X109722000Y-29102000D01*
X109702000Y-29102000D01*
X109702000Y-29122000D01*
X109448000Y-29122000D01*
X109448000Y-29102000D01*
X108523750Y-29102000D01*
X108365000Y-29260750D01*
X108365000Y-29476310D01*
X108461673Y-29709699D01*
X108640302Y-29888327D01*
X108873691Y-29985000D01*
X108952560Y-29985000D01*
X108952560Y-31015000D01*
X108873691Y-31015000D01*
X108640302Y-31111673D01*
X108461673Y-31290301D01*
X108365000Y-31523690D01*
X108365000Y-31739250D01*
X108523750Y-31898000D01*
X109448000Y-31898000D01*
X109448000Y-31878000D01*
X109702000Y-31878000D01*
X109702000Y-31898000D01*
X110626250Y-31898000D01*
X110706201Y-31818049D01*
X110785317Y-31803162D01*
X111001441Y-31664090D01*
X111146431Y-31451890D01*
X111197440Y-31200000D01*
X111197440Y-30452362D01*
X112297401Y-29352401D01*
X112462148Y-29105839D01*
X112520000Y-28815000D01*
X112520000Y-27686000D01*
X112462148Y-27395161D01*
X112297401Y-27148599D01*
X111281401Y-26132599D01*
X111034839Y-25967852D01*
X110744000Y-25910000D01*
X104902000Y-25910000D01*
X104659414Y-25958254D01*
X104611160Y-25967852D01*
X104364599Y-26132599D01*
X101206320Y-29290878D01*
X101160833Y-29290838D01*
X100817057Y-29432883D01*
X100553808Y-29695673D01*
X100411162Y-30039201D01*
X100410838Y-30411167D01*
X100552883Y-30754943D01*
X100586000Y-30788118D01*
X100586000Y-33467198D01*
X95443198Y-38610000D01*
X89593073Y-38610000D01*
X89715229Y-38559526D01*
X90879438Y-37397347D01*
X91510280Y-35878111D01*
X91511716Y-34233106D01*
X90883526Y-32712771D01*
X89721347Y-31548562D01*
X88202111Y-30917720D01*
X86557106Y-30916284D01*
X85036771Y-31544474D01*
X84210000Y-32369803D01*
X84210000Y-26601167D01*
X88980838Y-26601167D01*
X89122883Y-26944943D01*
X89385673Y-27208192D01*
X89729201Y-27350838D01*
X89918000Y-27351002D01*
X89918000Y-27377537D01*
X89885808Y-27409673D01*
X89743162Y-27753201D01*
X89742838Y-28125167D01*
X89884883Y-28468943D01*
X90147673Y-28732192D01*
X90491201Y-28874838D01*
X90863167Y-28875162D01*
X91206943Y-28733117D01*
X91240000Y-28700118D01*
X91240000Y-29008000D01*
X91267057Y-29144022D01*
X91266838Y-29395167D01*
X91408883Y-29738943D01*
X91671673Y-30002192D01*
X92015201Y-30144838D01*
X92387167Y-30145162D01*
X92730943Y-30003117D01*
X92994192Y-29740327D01*
X93136838Y-29396799D01*
X93137162Y-29024833D01*
X92995117Y-28681057D01*
X92760000Y-28445529D01*
X92760000Y-26264547D01*
X92783515Y-26254831D01*
X93132153Y-25906800D01*
X105333800Y-25906800D01*
X105605505Y-25852754D01*
X105835846Y-25698846D01*
X105989754Y-25468505D01*
X106043800Y-25196800D01*
X106043800Y-14808200D01*
X105989754Y-14536495D01*
X105835846Y-14306154D01*
X105605505Y-14152246D01*
X105333800Y-14098200D01*
X93136613Y-14098200D01*
X92785564Y-13746539D01*
X92276702Y-13535241D01*
X91725715Y-13534760D01*
X91216485Y-13745169D01*
X90826539Y-14134436D01*
X90615241Y-14643298D01*
X90614760Y-15194285D01*
X90825169Y-15703515D01*
X91214436Y-16093461D01*
X91446870Y-16189976D01*
X91216485Y-16285169D01*
X90826539Y-16674436D01*
X90615241Y-17183298D01*
X90614938Y-17530260D01*
X89378599Y-18766599D01*
X89213852Y-19013161D01*
X89156000Y-19304000D01*
X89156000Y-25853537D01*
X89123808Y-25885673D01*
X88981162Y-26229201D01*
X88980838Y-26601167D01*
X84210000Y-26601167D01*
X84210000Y-12082682D01*
X85360589Y-11853816D01*
X85466603Y-11809903D01*
X85616530Y-11747802D01*
X87076435Y-10772325D01*
X87085757Y-10763003D01*
X87272325Y-10576436D01*
X88247801Y-9116530D01*
X88353816Y-8860589D01*
X88582682Y-7710000D01*
X115474729Y-7710000D01*
X114606562Y-8576653D01*
M02*
