G04 #@! TF.FileFunction,Legend,Bot*
%FSLAX46Y46*%
G04 Gerber Fmt 4.6, Leading zero omitted, Abs format (unit mm)*
G04 Created by KiCad (PCBNEW 4.0.0-1rc2.201511291916+6190~38~ubuntu14.04.1-stable) date Mon 14 Mar 2016 12:07:37 PM PDT*
%MOMM*%
G01*
G04 APERTURE LIST*
%ADD10C,0.100000*%
%ADD11C,0.250000*%
%ADD12C,0.150000*%
G04 APERTURE END LIST*
D10*
D11*
X117792476Y-196302381D02*
X118268667Y-196302381D01*
X118316286Y-196778571D01*
X118268667Y-196730952D01*
X118173429Y-196683333D01*
X117935333Y-196683333D01*
X117840095Y-196730952D01*
X117792476Y-196778571D01*
X117744857Y-196873810D01*
X117744857Y-197111905D01*
X117792476Y-197207143D01*
X117840095Y-197254762D01*
X117935333Y-197302381D01*
X118173429Y-197302381D01*
X118268667Y-197254762D01*
X118316286Y-197207143D01*
X117459143Y-196302381D02*
X117125810Y-197302381D01*
X116792476Y-196302381D01*
X117768666Y-194762381D02*
X118102000Y-194286190D01*
X118340095Y-194762381D02*
X118340095Y-193762381D01*
X117959142Y-193762381D01*
X117863904Y-193810000D01*
X117816285Y-193857619D01*
X117768666Y-193952857D01*
X117768666Y-194095714D01*
X117816285Y-194190952D01*
X117863904Y-194238571D01*
X117959142Y-194286190D01*
X118340095Y-194286190D01*
X116863904Y-193762381D02*
X117340095Y-193762381D01*
X117387714Y-194238571D01*
X117340095Y-194190952D01*
X117244857Y-194143333D01*
X117006761Y-194143333D01*
X116911523Y-194190952D01*
X116863904Y-194238571D01*
X116816285Y-194333810D01*
X116816285Y-194571905D01*
X116863904Y-194667143D01*
X116911523Y-194714762D01*
X117006761Y-194762381D01*
X117244857Y-194762381D01*
X117340095Y-194714762D01*
X117387714Y-194667143D01*
X117768666Y-192222381D02*
X118102000Y-191746190D01*
X118340095Y-192222381D02*
X118340095Y-191222381D01*
X117959142Y-191222381D01*
X117863904Y-191270000D01*
X117816285Y-191317619D01*
X117768666Y-191412857D01*
X117768666Y-191555714D01*
X117816285Y-191650952D01*
X117863904Y-191698571D01*
X117959142Y-191746190D01*
X118340095Y-191746190D01*
X116911523Y-191555714D02*
X116911523Y-192222381D01*
X117149619Y-191174762D02*
X117387714Y-191889048D01*
X116768666Y-191889048D01*
X117768666Y-189682381D02*
X118102000Y-189206190D01*
X118340095Y-189682381D02*
X118340095Y-188682381D01*
X117959142Y-188682381D01*
X117863904Y-188730000D01*
X117816285Y-188777619D01*
X117768666Y-188872857D01*
X117768666Y-189015714D01*
X117816285Y-189110952D01*
X117863904Y-189158571D01*
X117959142Y-189206190D01*
X118340095Y-189206190D01*
X117435333Y-188682381D02*
X116816285Y-188682381D01*
X117149619Y-189063333D01*
X117006761Y-189063333D01*
X116911523Y-189110952D01*
X116863904Y-189158571D01*
X116816285Y-189253810D01*
X116816285Y-189491905D01*
X116863904Y-189587143D01*
X116911523Y-189634762D01*
X117006761Y-189682381D01*
X117292476Y-189682381D01*
X117387714Y-189634762D01*
X117435333Y-189587143D01*
X117768666Y-187142381D02*
X118102000Y-186666190D01*
X118340095Y-187142381D02*
X118340095Y-186142381D01*
X117959142Y-186142381D01*
X117863904Y-186190000D01*
X117816285Y-186237619D01*
X117768666Y-186332857D01*
X117768666Y-186475714D01*
X117816285Y-186570952D01*
X117863904Y-186618571D01*
X117959142Y-186666190D01*
X118340095Y-186666190D01*
X117387714Y-186237619D02*
X117340095Y-186190000D01*
X117244857Y-186142381D01*
X117006761Y-186142381D01*
X116911523Y-186190000D01*
X116863904Y-186237619D01*
X116816285Y-186332857D01*
X116816285Y-186428095D01*
X116863904Y-186570952D01*
X117435333Y-187142381D01*
X116816285Y-187142381D01*
X117768666Y-184602381D02*
X118102000Y-184126190D01*
X118340095Y-184602381D02*
X118340095Y-183602381D01*
X117959142Y-183602381D01*
X117863904Y-183650000D01*
X117816285Y-183697619D01*
X117768666Y-183792857D01*
X117768666Y-183935714D01*
X117816285Y-184030952D01*
X117863904Y-184078571D01*
X117959142Y-184126190D01*
X118340095Y-184126190D01*
X116816285Y-184602381D02*
X117387714Y-184602381D01*
X117102000Y-184602381D02*
X117102000Y-183602381D01*
X117197238Y-183745238D01*
X117292476Y-183840476D01*
X117387714Y-183888095D01*
X117768666Y-182062381D02*
X118102000Y-181586190D01*
X118340095Y-182062381D02*
X118340095Y-181062381D01*
X117959142Y-181062381D01*
X117863904Y-181110000D01*
X117816285Y-181157619D01*
X117768666Y-181252857D01*
X117768666Y-181395714D01*
X117816285Y-181490952D01*
X117863904Y-181538571D01*
X117959142Y-181586190D01*
X118340095Y-181586190D01*
X117149619Y-181062381D02*
X117054380Y-181062381D01*
X116959142Y-181110000D01*
X116911523Y-181157619D01*
X116863904Y-181252857D01*
X116816285Y-181443333D01*
X116816285Y-181681429D01*
X116863904Y-181871905D01*
X116911523Y-181967143D01*
X116959142Y-182014762D01*
X117054380Y-182062381D01*
X117149619Y-182062381D01*
X117244857Y-182014762D01*
X117292476Y-181967143D01*
X117340095Y-181871905D01*
X117387714Y-181681429D01*
X117387714Y-181443333D01*
X117340095Y-181252857D01*
X117292476Y-181157619D01*
X117244857Y-181110000D01*
X117149619Y-181062381D01*
X118363904Y-178570000D02*
X118459142Y-178522381D01*
X118601999Y-178522381D01*
X118744857Y-178570000D01*
X118840095Y-178665238D01*
X118887714Y-178760476D01*
X118935333Y-178950952D01*
X118935333Y-179093810D01*
X118887714Y-179284286D01*
X118840095Y-179379524D01*
X118744857Y-179474762D01*
X118601999Y-179522381D01*
X118506761Y-179522381D01*
X118363904Y-179474762D01*
X118316285Y-179427143D01*
X118316285Y-179093810D01*
X118506761Y-179093810D01*
X117887714Y-179522381D02*
X117887714Y-178522381D01*
X117316285Y-179522381D01*
X117316285Y-178522381D01*
X116840095Y-179522381D02*
X116840095Y-178522381D01*
X116602000Y-178522381D01*
X116459142Y-178570000D01*
X116363904Y-178665238D01*
X116316285Y-178760476D01*
X116268666Y-178950952D01*
X116268666Y-179093810D01*
X116316285Y-179284286D01*
X116363904Y-179379524D01*
X116459142Y-179474762D01*
X116602000Y-179522381D01*
X116840095Y-179522381D01*
D12*
X100330000Y-151130000D02*
X100330000Y-147320000D01*
X100330000Y-147320000D02*
X105410000Y-147320000D01*
X105410000Y-147320000D02*
X105410000Y-151130000D01*
X90170000Y-104140000D02*
X90170000Y-151130000D01*
X90170000Y-151130000D02*
X115570000Y-151130000D01*
X115570000Y-151130000D02*
X115570000Y-104140000D01*
X115570000Y-104140000D02*
X90170000Y-104140000D01*
X105409905Y-102576381D02*
X105409905Y-103385905D01*
X105362286Y-103481143D01*
X105314667Y-103528762D01*
X105219429Y-103576381D01*
X105028952Y-103576381D01*
X104933714Y-103528762D01*
X104886095Y-103481143D01*
X104838476Y-103385905D01*
X104838476Y-102576381D01*
X103838476Y-103576381D02*
X104409905Y-103576381D01*
X104124191Y-103576381D02*
X104124191Y-102576381D01*
X104219429Y-102719238D01*
X104314667Y-102814476D01*
X104409905Y-102862095D01*
M02*
