G04 #@! TF.FileFunction,Legend,Top*
%FSLAX46Y46*%
G04 Gerber Fmt 4.6, Leading zero omitted, Abs format (unit mm)*
G04 Created by KiCad (PCBNEW 4.0.0-1rc2.201511291916+6190~38~ubuntu14.04.1-stable) date Mon 14 Mar 2016 12:07:37 PM PDT*
%MOMM*%
G01*
G04 APERTURE LIST*
%ADD10C,0.100000*%
%ADD11C,0.250000*%
%ADD12C,0.150000*%
G04 APERTURE END LIST*
D10*
D11*
X120062667Y-166838381D02*
X120062667Y-167552667D01*
X120015047Y-167695524D01*
X119919809Y-167790762D01*
X119776952Y-167838381D01*
X119681714Y-167838381D01*
X121062667Y-167838381D02*
X120491238Y-167838381D01*
X120776952Y-167838381D02*
X120776952Y-166838381D01*
X120681714Y-166981238D01*
X120586476Y-167076476D01*
X120491238Y-167124095D01*
X117522667Y-166838381D02*
X117522667Y-167552667D01*
X117475047Y-167695524D01*
X117379809Y-167790762D01*
X117236952Y-167838381D01*
X117141714Y-167838381D01*
X118189333Y-166838381D02*
X118284572Y-166838381D01*
X118379810Y-166886000D01*
X118427429Y-166933619D01*
X118475048Y-167028857D01*
X118522667Y-167219333D01*
X118522667Y-167457429D01*
X118475048Y-167647905D01*
X118427429Y-167743143D01*
X118379810Y-167790762D01*
X118284572Y-167838381D01*
X118189333Y-167838381D01*
X118094095Y-167790762D01*
X118046476Y-167743143D01*
X117998857Y-167647905D01*
X117951238Y-167457429D01*
X117951238Y-167219333D01*
X117998857Y-167028857D01*
X118046476Y-166933619D01*
X118094095Y-166886000D01*
X118189333Y-166838381D01*
X117435334Y-194667143D02*
X117387715Y-194714762D01*
X117244858Y-194762381D01*
X117149620Y-194762381D01*
X117006762Y-194714762D01*
X116911524Y-194619524D01*
X116863905Y-194524286D01*
X116816286Y-194333810D01*
X116816286Y-194190952D01*
X116863905Y-194000476D01*
X116911524Y-193905238D01*
X117006762Y-193810000D01*
X117149620Y-193762381D01*
X117244858Y-193762381D01*
X117387715Y-193810000D01*
X117435334Y-193857619D01*
X118387715Y-194762381D02*
X117816286Y-194762381D01*
X118102000Y-194762381D02*
X118102000Y-193762381D01*
X118006762Y-193905238D01*
X117911524Y-194000476D01*
X117816286Y-194048095D01*
X117435334Y-192127143D02*
X117387715Y-192174762D01*
X117244858Y-192222381D01*
X117149620Y-192222381D01*
X117006762Y-192174762D01*
X116911524Y-192079524D01*
X116863905Y-191984286D01*
X116816286Y-191793810D01*
X116816286Y-191650952D01*
X116863905Y-191460476D01*
X116911524Y-191365238D01*
X117006762Y-191270000D01*
X117149620Y-191222381D01*
X117244858Y-191222381D01*
X117387715Y-191270000D01*
X117435334Y-191317619D01*
X117816286Y-191317619D02*
X117863905Y-191270000D01*
X117959143Y-191222381D01*
X118197239Y-191222381D01*
X118292477Y-191270000D01*
X118340096Y-191317619D01*
X118387715Y-191412857D01*
X118387715Y-191508095D01*
X118340096Y-191650952D01*
X117768667Y-192222381D01*
X118387715Y-192222381D01*
X117435334Y-189587143D02*
X117387715Y-189634762D01*
X117244858Y-189682381D01*
X117149620Y-189682381D01*
X117006762Y-189634762D01*
X116911524Y-189539524D01*
X116863905Y-189444286D01*
X116816286Y-189253810D01*
X116816286Y-189110952D01*
X116863905Y-188920476D01*
X116911524Y-188825238D01*
X117006762Y-188730000D01*
X117149620Y-188682381D01*
X117244858Y-188682381D01*
X117387715Y-188730000D01*
X117435334Y-188777619D01*
X117768667Y-188682381D02*
X118387715Y-188682381D01*
X118054381Y-189063333D01*
X118197239Y-189063333D01*
X118292477Y-189110952D01*
X118340096Y-189158571D01*
X118387715Y-189253810D01*
X118387715Y-189491905D01*
X118340096Y-189587143D01*
X118292477Y-189634762D01*
X118197239Y-189682381D01*
X117911524Y-189682381D01*
X117816286Y-189634762D01*
X117768667Y-189587143D01*
X117435334Y-187047143D02*
X117387715Y-187094762D01*
X117244858Y-187142381D01*
X117149620Y-187142381D01*
X117006762Y-187094762D01*
X116911524Y-186999524D01*
X116863905Y-186904286D01*
X116816286Y-186713810D01*
X116816286Y-186570952D01*
X116863905Y-186380476D01*
X116911524Y-186285238D01*
X117006762Y-186190000D01*
X117149620Y-186142381D01*
X117244858Y-186142381D01*
X117387715Y-186190000D01*
X117435334Y-186237619D01*
X118292477Y-186475714D02*
X118292477Y-187142381D01*
X118054381Y-186094762D02*
X117816286Y-186809048D01*
X118435334Y-186809048D01*
X117435334Y-184507143D02*
X117387715Y-184554762D01*
X117244858Y-184602381D01*
X117149620Y-184602381D01*
X117006762Y-184554762D01*
X116911524Y-184459524D01*
X116863905Y-184364286D01*
X116816286Y-184173810D01*
X116816286Y-184030952D01*
X116863905Y-183840476D01*
X116911524Y-183745238D01*
X117006762Y-183650000D01*
X117149620Y-183602381D01*
X117244858Y-183602381D01*
X117387715Y-183650000D01*
X117435334Y-183697619D01*
X118340096Y-183602381D02*
X117863905Y-183602381D01*
X117816286Y-184078571D01*
X117863905Y-184030952D01*
X117959143Y-183983333D01*
X118197239Y-183983333D01*
X118292477Y-184030952D01*
X118340096Y-184078571D01*
X118387715Y-184173810D01*
X118387715Y-184411905D01*
X118340096Y-184507143D01*
X118292477Y-184554762D01*
X118197239Y-184602381D01*
X117959143Y-184602381D01*
X117863905Y-184554762D01*
X117816286Y-184507143D01*
X117435334Y-181967143D02*
X117387715Y-182014762D01*
X117244858Y-182062381D01*
X117149620Y-182062381D01*
X117006762Y-182014762D01*
X116911524Y-181919524D01*
X116863905Y-181824286D01*
X116816286Y-181633810D01*
X116816286Y-181490952D01*
X116863905Y-181300476D01*
X116911524Y-181205238D01*
X117006762Y-181110000D01*
X117149620Y-181062381D01*
X117244858Y-181062381D01*
X117387715Y-181110000D01*
X117435334Y-181157619D01*
X118292477Y-181062381D02*
X118102000Y-181062381D01*
X118006762Y-181110000D01*
X117959143Y-181157619D01*
X117863905Y-181300476D01*
X117816286Y-181490952D01*
X117816286Y-181871905D01*
X117863905Y-181967143D01*
X117911524Y-182014762D01*
X118006762Y-182062381D01*
X118197239Y-182062381D01*
X118292477Y-182014762D01*
X118340096Y-181967143D01*
X118387715Y-181871905D01*
X118387715Y-181633810D01*
X118340096Y-181538571D01*
X118292477Y-181490952D01*
X118197239Y-181443333D01*
X118006762Y-181443333D01*
X117911524Y-181490952D01*
X117863905Y-181538571D01*
X117816286Y-181633810D01*
X117435334Y-197207143D02*
X117387715Y-197254762D01*
X117244858Y-197302381D01*
X117149620Y-197302381D01*
X117006762Y-197254762D01*
X116911524Y-197159524D01*
X116863905Y-197064286D01*
X116816286Y-196873810D01*
X116816286Y-196730952D01*
X116863905Y-196540476D01*
X116911524Y-196445238D01*
X117006762Y-196350000D01*
X117149620Y-196302381D01*
X117244858Y-196302381D01*
X117387715Y-196350000D01*
X117435334Y-196397619D01*
X118054381Y-196302381D02*
X118149620Y-196302381D01*
X118244858Y-196350000D01*
X118292477Y-196397619D01*
X118340096Y-196492857D01*
X118387715Y-196683333D01*
X118387715Y-196921429D01*
X118340096Y-197111905D01*
X118292477Y-197207143D01*
X118244858Y-197254762D01*
X118149620Y-197302381D01*
X118054381Y-197302381D01*
X117959143Y-197254762D01*
X117911524Y-197207143D01*
X117863905Y-197111905D01*
X117816286Y-196921429D01*
X117816286Y-196683333D01*
X117863905Y-196492857D01*
X117911524Y-196397619D01*
X117959143Y-196350000D01*
X118054381Y-196302381D01*
X117435334Y-179427143D02*
X117387715Y-179474762D01*
X117244858Y-179522381D01*
X117149620Y-179522381D01*
X117006762Y-179474762D01*
X116911524Y-179379524D01*
X116863905Y-179284286D01*
X116816286Y-179093810D01*
X116816286Y-178950952D01*
X116863905Y-178760476D01*
X116911524Y-178665238D01*
X117006762Y-178570000D01*
X117149620Y-178522381D01*
X117244858Y-178522381D01*
X117387715Y-178570000D01*
X117435334Y-178617619D01*
X117768667Y-178522381D02*
X118435334Y-178522381D01*
X118006762Y-179522381D01*
D12*
X91126000Y-180848000D02*
G75*
G03X91126000Y-180848000I-3750000J0D01*
G01*
X121860000Y-10922000D02*
G75*
G03X121860000Y-10922000I-3750000J0D01*
G01*
X91126000Y-35052000D02*
G75*
G03X91126000Y-35052000I-3750000J0D01*
G01*
X101000000Y-20000000D02*
G75*
G03X101000000Y-20000000I-1000000J0D01*
G01*
X93000000Y-25200000D02*
X105350000Y-25200000D01*
X93000000Y-14800000D02*
X105350000Y-14800000D01*
X105350000Y-14800000D02*
X105350000Y-25200000D01*
X93000000Y-14800000D02*
X93000000Y-25200000D01*
X101000000Y-182500000D02*
G75*
G03X101000000Y-182500000I-1000000J0D01*
G01*
X93250000Y-176700000D02*
X106750000Y-176700000D01*
X106750000Y-176700000D02*
X106750000Y-188300000D01*
X106750000Y-188300000D02*
X93250000Y-188300000D01*
X93250000Y-188300000D02*
X93250000Y-176700000D01*
X101000000Y-83250000D02*
G75*
G03X101000000Y-83250000I-1000000J0D01*
G01*
X93000000Y-88450000D02*
X105350000Y-88450000D01*
X93000000Y-78050000D02*
X105350000Y-78050000D01*
X105350000Y-78050000D02*
X105350000Y-88450000D01*
X93000000Y-78050000D02*
X93000000Y-88450000D01*
X101000000Y-49250000D02*
G75*
G03X101000000Y-49250000I-1000000J0D01*
G01*
X93250000Y-43450000D02*
X106750000Y-43450000D01*
X106750000Y-43450000D02*
X106750000Y-55050000D01*
X106750000Y-55050000D02*
X93250000Y-55050000D01*
X93250000Y-55050000D02*
X93250000Y-43450000D01*
X107719905Y-124912381D02*
X107719905Y-123912381D01*
X107958000Y-123912381D01*
X108100858Y-123960000D01*
X108196096Y-124055238D01*
X108243715Y-124150476D01*
X108291334Y-124340952D01*
X108291334Y-124483810D01*
X108243715Y-124674286D01*
X108196096Y-124769524D01*
X108100858Y-124864762D01*
X107958000Y-124912381D01*
X107719905Y-124912381D01*
X109243715Y-124912381D02*
X108672286Y-124912381D01*
X108958000Y-124912381D02*
X108958000Y-123912381D01*
X108862762Y-124055238D01*
X108767524Y-124150476D01*
X108672286Y-124198095D01*
X107719905Y-122372381D02*
X107719905Y-121372381D01*
X107958000Y-121372381D01*
X108100858Y-121420000D01*
X108196096Y-121515238D01*
X108243715Y-121610476D01*
X108291334Y-121800952D01*
X108291334Y-121943810D01*
X108243715Y-122134286D01*
X108196096Y-122229524D01*
X108100858Y-122324762D01*
X107958000Y-122372381D01*
X107719905Y-122372381D01*
X108672286Y-121467619D02*
X108719905Y-121420000D01*
X108815143Y-121372381D01*
X109053239Y-121372381D01*
X109148477Y-121420000D01*
X109196096Y-121467619D01*
X109243715Y-121562857D01*
X109243715Y-121658095D01*
X109196096Y-121800952D01*
X108624667Y-122372381D01*
X109243715Y-122372381D01*
X107719905Y-119832381D02*
X107719905Y-118832381D01*
X107958000Y-118832381D01*
X108100858Y-118880000D01*
X108196096Y-118975238D01*
X108243715Y-119070476D01*
X108291334Y-119260952D01*
X108291334Y-119403810D01*
X108243715Y-119594286D01*
X108196096Y-119689524D01*
X108100858Y-119784762D01*
X107958000Y-119832381D01*
X107719905Y-119832381D01*
X108624667Y-118832381D02*
X109243715Y-118832381D01*
X108910381Y-119213333D01*
X109053239Y-119213333D01*
X109148477Y-119260952D01*
X109196096Y-119308571D01*
X109243715Y-119403810D01*
X109243715Y-119641905D01*
X109196096Y-119737143D01*
X109148477Y-119784762D01*
X109053239Y-119832381D01*
X108767524Y-119832381D01*
X108672286Y-119784762D01*
X108624667Y-119737143D01*
X116863905Y-114752381D02*
X116863905Y-113752381D01*
X117102000Y-113752381D01*
X117244858Y-113800000D01*
X117340096Y-113895238D01*
X117387715Y-113990476D01*
X117435334Y-114180952D01*
X117435334Y-114323810D01*
X117387715Y-114514286D01*
X117340096Y-114609524D01*
X117244858Y-114704762D01*
X117102000Y-114752381D01*
X116863905Y-114752381D01*
X118292477Y-114085714D02*
X118292477Y-114752381D01*
X118054381Y-113704762D02*
X117816286Y-114419048D01*
X118435334Y-114419048D01*
X116863905Y-112212381D02*
X116863905Y-111212381D01*
X117102000Y-111212381D01*
X117244858Y-111260000D01*
X117340096Y-111355238D01*
X117387715Y-111450476D01*
X117435334Y-111640952D01*
X117435334Y-111783810D01*
X117387715Y-111974286D01*
X117340096Y-112069524D01*
X117244858Y-112164762D01*
X117102000Y-112212381D01*
X116863905Y-112212381D01*
X118340096Y-111212381D02*
X117863905Y-111212381D01*
X117816286Y-111688571D01*
X117863905Y-111640952D01*
X117959143Y-111593333D01*
X118197239Y-111593333D01*
X118292477Y-111640952D01*
X118340096Y-111688571D01*
X118387715Y-111783810D01*
X118387715Y-112021905D01*
X118340096Y-112117143D01*
X118292477Y-112164762D01*
X118197239Y-112212381D01*
X117959143Y-112212381D01*
X117863905Y-112164762D01*
X117816286Y-112117143D01*
X116863905Y-109672381D02*
X116863905Y-108672381D01*
X117102000Y-108672381D01*
X117244858Y-108720000D01*
X117340096Y-108815238D01*
X117387715Y-108910476D01*
X117435334Y-109100952D01*
X117435334Y-109243810D01*
X117387715Y-109434286D01*
X117340096Y-109529524D01*
X117244858Y-109624762D01*
X117102000Y-109672381D01*
X116863905Y-109672381D01*
X118292477Y-108672381D02*
X118102000Y-108672381D01*
X118006762Y-108720000D01*
X117959143Y-108767619D01*
X117863905Y-108910476D01*
X117816286Y-109100952D01*
X117816286Y-109481905D01*
X117863905Y-109577143D01*
X117911524Y-109624762D01*
X118006762Y-109672381D01*
X118197239Y-109672381D01*
X118292477Y-109624762D01*
X118340096Y-109577143D01*
X118387715Y-109481905D01*
X118387715Y-109243810D01*
X118340096Y-109148571D01*
X118292477Y-109100952D01*
X118197239Y-109053333D01*
X118006762Y-109053333D01*
X117911524Y-109100952D01*
X117863905Y-109148571D01*
X117816286Y-109243810D01*
X116863905Y-107132381D02*
X116863905Y-106132381D01*
X117102000Y-106132381D01*
X117244858Y-106180000D01*
X117340096Y-106275238D01*
X117387715Y-106370476D01*
X117435334Y-106560952D01*
X117435334Y-106703810D01*
X117387715Y-106894286D01*
X117340096Y-106989524D01*
X117244858Y-107084762D01*
X117102000Y-107132381D01*
X116863905Y-107132381D01*
X117768667Y-106132381D02*
X118435334Y-106132381D01*
X118006762Y-107132381D01*
X94511905Y-117292381D02*
X94511905Y-116292381D01*
X94750000Y-116292381D01*
X94892858Y-116340000D01*
X94988096Y-116435238D01*
X95035715Y-116530476D01*
X95083334Y-116720952D01*
X95083334Y-116863810D01*
X95035715Y-117054286D01*
X94988096Y-117149524D01*
X94892858Y-117244762D01*
X94750000Y-117292381D01*
X94511905Y-117292381D01*
X95654762Y-116720952D02*
X95559524Y-116673333D01*
X95511905Y-116625714D01*
X95464286Y-116530476D01*
X95464286Y-116482857D01*
X95511905Y-116387619D01*
X95559524Y-116340000D01*
X95654762Y-116292381D01*
X95845239Y-116292381D01*
X95940477Y-116340000D01*
X95988096Y-116387619D01*
X96035715Y-116482857D01*
X96035715Y-116530476D01*
X95988096Y-116625714D01*
X95940477Y-116673333D01*
X95845239Y-116720952D01*
X95654762Y-116720952D01*
X95559524Y-116768571D01*
X95511905Y-116816190D01*
X95464286Y-116911429D01*
X95464286Y-117101905D01*
X95511905Y-117197143D01*
X95559524Y-117244762D01*
X95654762Y-117292381D01*
X95845239Y-117292381D01*
X95940477Y-117244762D01*
X95988096Y-117197143D01*
X96035715Y-117101905D01*
X96035715Y-116911429D01*
X95988096Y-116816190D01*
X95940477Y-116768571D01*
X95845239Y-116720952D01*
X106666667Y-33444762D02*
X106809524Y-33492381D01*
X107047620Y-33492381D01*
X107142858Y-33444762D01*
X107190477Y-33397143D01*
X107238096Y-33301905D01*
X107238096Y-33206667D01*
X107190477Y-33111429D01*
X107142858Y-33063810D01*
X107047620Y-33016190D01*
X106857143Y-32968571D01*
X106761905Y-32920952D01*
X106714286Y-32873333D01*
X106666667Y-32778095D01*
X106666667Y-32682857D01*
X106714286Y-32587619D01*
X106761905Y-32540000D01*
X106857143Y-32492381D01*
X107095239Y-32492381D01*
X107238096Y-32540000D01*
X107571429Y-32492381D02*
X107809524Y-33492381D01*
X108000001Y-32778095D01*
X108190477Y-33492381D01*
X108428572Y-32492381D01*
X109333334Y-33492381D02*
X108761905Y-33492381D01*
X109047619Y-33492381D02*
X109047619Y-32492381D01*
X108952381Y-32635238D01*
X108857143Y-32730476D01*
X108761905Y-32778095D01*
X100861905Y-14422381D02*
X100861905Y-13422381D01*
X101242858Y-13422381D01*
X101338096Y-13470000D01*
X101385715Y-13517619D01*
X101433334Y-13612857D01*
X101433334Y-13755714D01*
X101385715Y-13850952D01*
X101338096Y-13898571D01*
X101242858Y-13946190D01*
X100861905Y-13946190D01*
X102338096Y-13422381D02*
X101861905Y-13422381D01*
X101814286Y-13898571D01*
X101861905Y-13850952D01*
X101957143Y-13803333D01*
X102195239Y-13803333D01*
X102290477Y-13850952D01*
X102338096Y-13898571D01*
X102385715Y-13993810D01*
X102385715Y-14231905D01*
X102338096Y-14327143D01*
X102290477Y-14374762D01*
X102195239Y-14422381D01*
X101957143Y-14422381D01*
X101861905Y-14374762D01*
X101814286Y-14327143D01*
X90236905Y-22706667D02*
X90713096Y-22706667D01*
X90141667Y-22992381D02*
X90475000Y-21992381D01*
X90808334Y-22992381D01*
X90784524Y-20357143D02*
X90736905Y-20404762D01*
X90594048Y-20452381D01*
X90498810Y-20452381D01*
X90355952Y-20404762D01*
X90260714Y-20309524D01*
X90213095Y-20214286D01*
X90165476Y-20023810D01*
X90165476Y-19880952D01*
X90213095Y-19690476D01*
X90260714Y-19595238D01*
X90355952Y-19500000D01*
X90498810Y-19452381D01*
X90594048Y-19452381D01*
X90736905Y-19500000D01*
X90784524Y-19547619D01*
X90546429Y-17388571D02*
X90689286Y-17436190D01*
X90736905Y-17483810D01*
X90784524Y-17579048D01*
X90784524Y-17721905D01*
X90736905Y-17817143D01*
X90689286Y-17864762D01*
X90594048Y-17912381D01*
X90213095Y-17912381D01*
X90213095Y-16912381D01*
X90546429Y-16912381D01*
X90641667Y-16960000D01*
X90689286Y-17007619D01*
X90736905Y-17102857D01*
X90736905Y-17198095D01*
X90689286Y-17293333D01*
X90641667Y-17340952D01*
X90546429Y-17388571D01*
X90213095Y-17388571D01*
X90189286Y-25484762D02*
X90332143Y-25532381D01*
X90570239Y-25532381D01*
X90665477Y-25484762D01*
X90713096Y-25437143D01*
X90760715Y-25341905D01*
X90760715Y-25246667D01*
X90713096Y-25151429D01*
X90665477Y-25103810D01*
X90570239Y-25056190D01*
X90379762Y-25008571D01*
X90284524Y-24960952D01*
X90236905Y-24913333D01*
X90189286Y-24818095D01*
X90189286Y-24722857D01*
X90236905Y-24627619D01*
X90284524Y-24580000D01*
X90379762Y-24532381D01*
X90617858Y-24532381D01*
X90760715Y-24580000D01*
X90189286Y-15324762D02*
X90332143Y-15372381D01*
X90570239Y-15372381D01*
X90665477Y-15324762D01*
X90713096Y-15277143D01*
X90760715Y-15181905D01*
X90760715Y-15086667D01*
X90713096Y-14991429D01*
X90665477Y-14943810D01*
X90570239Y-14896190D01*
X90379762Y-14848571D01*
X90284524Y-14800952D01*
X90236905Y-14753333D01*
X90189286Y-14658095D01*
X90189286Y-14562857D01*
X90236905Y-14467619D01*
X90284524Y-14420000D01*
X90379762Y-14372381D01*
X90617858Y-14372381D01*
X90760715Y-14420000D01*
X108148381Y-181332095D02*
X107148381Y-181332095D01*
X107148381Y-180951142D01*
X107196000Y-180855904D01*
X107243619Y-180808285D01*
X107338857Y-180760666D01*
X107481714Y-180760666D01*
X107576952Y-180808285D01*
X107624571Y-180855904D01*
X107672190Y-180951142D01*
X107672190Y-181332095D01*
X107481714Y-179903523D02*
X108148381Y-179903523D01*
X107100762Y-180141619D02*
X107815048Y-180379714D01*
X107815048Y-179760666D01*
X104675239Y-173538571D02*
X104818096Y-173586190D01*
X104865715Y-173633810D01*
X104913334Y-173729048D01*
X104913334Y-173871905D01*
X104865715Y-173967143D01*
X104818096Y-174014762D01*
X104722858Y-174062381D01*
X104341905Y-174062381D01*
X104341905Y-173062381D01*
X104675239Y-173062381D01*
X104770477Y-173110000D01*
X104818096Y-173157619D01*
X104865715Y-173252857D01*
X104865715Y-173348095D01*
X104818096Y-173443333D01*
X104770477Y-173490952D01*
X104675239Y-173538571D01*
X104341905Y-173538571D01*
X105532381Y-173062381D02*
X105627620Y-173062381D01*
X105722858Y-173110000D01*
X105770477Y-173157619D01*
X105818096Y-173252857D01*
X105865715Y-173443333D01*
X105865715Y-173681429D01*
X105818096Y-173871905D01*
X105770477Y-173967143D01*
X105722858Y-174014762D01*
X105627620Y-174062381D01*
X105532381Y-174062381D01*
X105437143Y-174014762D01*
X105389524Y-173967143D01*
X105341905Y-173871905D01*
X105294286Y-173681429D01*
X105294286Y-173443333D01*
X105341905Y-173252857D01*
X105389524Y-173157619D01*
X105437143Y-173110000D01*
X105532381Y-173062381D01*
X101754286Y-174062381D02*
X101754286Y-173062381D01*
X102325715Y-174062381D01*
X102325715Y-173062381D01*
X103373334Y-173967143D02*
X103325715Y-174014762D01*
X103182858Y-174062381D01*
X103087620Y-174062381D01*
X102944762Y-174014762D01*
X102849524Y-173919524D01*
X102801905Y-173824286D01*
X102754286Y-173633810D01*
X102754286Y-173490952D01*
X102801905Y-173300476D01*
X102849524Y-173205238D01*
X102944762Y-173110000D01*
X103087620Y-173062381D01*
X103182858Y-173062381D01*
X103325715Y-173110000D01*
X103373334Y-173157619D01*
X99214286Y-174062381D02*
X99214286Y-173062381D01*
X99785715Y-174062381D01*
X99785715Y-173062381D01*
X100833334Y-173967143D02*
X100785715Y-174014762D01*
X100642858Y-174062381D01*
X100547620Y-174062381D01*
X100404762Y-174014762D01*
X100309524Y-173919524D01*
X100261905Y-173824286D01*
X100214286Y-173633810D01*
X100214286Y-173490952D01*
X100261905Y-173300476D01*
X100309524Y-173205238D01*
X100404762Y-173110000D01*
X100547620Y-173062381D01*
X100642858Y-173062381D01*
X100785715Y-173110000D01*
X100833334Y-173157619D01*
X94205714Y-173776667D02*
X94681905Y-173776667D01*
X94110476Y-174062381D02*
X94443809Y-173062381D01*
X94777143Y-174062381D01*
X95300952Y-173062381D02*
X95396191Y-173062381D01*
X95491429Y-173110000D01*
X95539048Y-173157619D01*
X95586667Y-173252857D01*
X95634286Y-173443333D01*
X95634286Y-173681429D01*
X95586667Y-173871905D01*
X95539048Y-173967143D01*
X95491429Y-174014762D01*
X95396191Y-174062381D01*
X95300952Y-174062381D01*
X95205714Y-174014762D01*
X95158095Y-173967143D01*
X95110476Y-173871905D01*
X95062857Y-173681429D01*
X95062857Y-173443333D01*
X95110476Y-173252857D01*
X95158095Y-173157619D01*
X95205714Y-173110000D01*
X95300952Y-173062381D01*
X97293334Y-173967143D02*
X97245715Y-174014762D01*
X97102858Y-174062381D01*
X97007620Y-174062381D01*
X96864762Y-174014762D01*
X96769524Y-173919524D01*
X96721905Y-173824286D01*
X96674286Y-173633810D01*
X96674286Y-173490952D01*
X96721905Y-173300476D01*
X96769524Y-173205238D01*
X96864762Y-173110000D01*
X97007620Y-173062381D01*
X97102858Y-173062381D01*
X97245715Y-173110000D01*
X97293334Y-173157619D01*
X97912381Y-173062381D02*
X98007620Y-173062381D01*
X98102858Y-173110000D01*
X98150477Y-173157619D01*
X98198096Y-173252857D01*
X98245715Y-173443333D01*
X98245715Y-173681429D01*
X98198096Y-173871905D01*
X98150477Y-173967143D01*
X98102858Y-174014762D01*
X98007620Y-174062381D01*
X97912381Y-174062381D01*
X97817143Y-174014762D01*
X97769524Y-173967143D01*
X97721905Y-173871905D01*
X97674286Y-173681429D01*
X97674286Y-173443333D01*
X97721905Y-173252857D01*
X97769524Y-173157619D01*
X97817143Y-173110000D01*
X97912381Y-173062381D01*
X104603810Y-191556667D02*
X105080001Y-191556667D01*
X104508572Y-191842381D02*
X104841905Y-190842381D01*
X105175239Y-191842381D01*
X105508572Y-191842381D02*
X105508572Y-191175714D01*
X105508572Y-190842381D02*
X105460953Y-190890000D01*
X105508572Y-190937619D01*
X105556191Y-190890000D01*
X105508572Y-190842381D01*
X105508572Y-190937619D01*
X102611429Y-191747143D02*
X102563810Y-191794762D01*
X102420953Y-191842381D01*
X102325715Y-191842381D01*
X102182857Y-191794762D01*
X102087619Y-191699524D01*
X102040000Y-191604286D01*
X101992381Y-191413810D01*
X101992381Y-191270952D01*
X102040000Y-191080476D01*
X102087619Y-190985238D01*
X102182857Y-190890000D01*
X102325715Y-190842381D01*
X102420953Y-190842381D01*
X102563810Y-190890000D01*
X102611429Y-190937619D01*
X103040000Y-191842381D02*
X103040000Y-191175714D01*
X103040000Y-190842381D02*
X102992381Y-190890000D01*
X103040000Y-190937619D01*
X103087619Y-190890000D01*
X103040000Y-190842381D01*
X103040000Y-190937619D01*
X99714286Y-191794762D02*
X99857143Y-191842381D01*
X100095239Y-191842381D01*
X100190477Y-191794762D01*
X100238096Y-191747143D01*
X100285715Y-191651905D01*
X100285715Y-191556667D01*
X100238096Y-191461429D01*
X100190477Y-191413810D01*
X100095239Y-191366190D01*
X99904762Y-191318571D01*
X99809524Y-191270952D01*
X99761905Y-191223333D01*
X99714286Y-191128095D01*
X99714286Y-191032857D01*
X99761905Y-190937619D01*
X99809524Y-190890000D01*
X99904762Y-190842381D01*
X100142858Y-190842381D01*
X100285715Y-190890000D01*
X97174286Y-191794762D02*
X97317143Y-191842381D01*
X97555239Y-191842381D01*
X97650477Y-191794762D01*
X97698096Y-191747143D01*
X97745715Y-191651905D01*
X97745715Y-191556667D01*
X97698096Y-191461429D01*
X97650477Y-191413810D01*
X97555239Y-191366190D01*
X97364762Y-191318571D01*
X97269524Y-191270952D01*
X97221905Y-191223333D01*
X97174286Y-191128095D01*
X97174286Y-191032857D01*
X97221905Y-190937619D01*
X97269524Y-190890000D01*
X97364762Y-190842381D01*
X97602858Y-190842381D01*
X97745715Y-190890000D01*
X94753334Y-191318571D02*
X94896191Y-191366190D01*
X94943810Y-191413810D01*
X94991429Y-191509048D01*
X94991429Y-191651905D01*
X94943810Y-191747143D01*
X94896191Y-191794762D01*
X94800953Y-191842381D01*
X94420000Y-191842381D01*
X94420000Y-190842381D01*
X94753334Y-190842381D01*
X94848572Y-190890000D01*
X94896191Y-190937619D01*
X94943810Y-191032857D01*
X94943810Y-191128095D01*
X94896191Y-191223333D01*
X94848572Y-191270952D01*
X94753334Y-191318571D01*
X94420000Y-191318571D01*
X95420000Y-191842381D02*
X95420000Y-191175714D01*
X95420000Y-190842381D02*
X95372381Y-190890000D01*
X95420000Y-190937619D01*
X95467619Y-190890000D01*
X95420000Y-190842381D01*
X95420000Y-190937619D01*
X100607905Y-77668381D02*
X100607905Y-76668381D01*
X100988858Y-76668381D01*
X101084096Y-76716000D01*
X101131715Y-76763619D01*
X101179334Y-76858857D01*
X101179334Y-77001714D01*
X101131715Y-77096952D01*
X101084096Y-77144571D01*
X100988858Y-77192190D01*
X100607905Y-77192190D01*
X102036477Y-76668381D02*
X101846000Y-76668381D01*
X101750762Y-76716000D01*
X101703143Y-76763619D01*
X101607905Y-76906476D01*
X101560286Y-77096952D01*
X101560286Y-77477905D01*
X101607905Y-77573143D01*
X101655524Y-77620762D01*
X101750762Y-77668381D01*
X101941239Y-77668381D01*
X102036477Y-77620762D01*
X102084096Y-77573143D01*
X102131715Y-77477905D01*
X102131715Y-77239810D01*
X102084096Y-77144571D01*
X102036477Y-77096952D01*
X101941239Y-77049333D01*
X101750762Y-77049333D01*
X101655524Y-77096952D01*
X101607905Y-77144571D01*
X101560286Y-77239810D01*
X90236905Y-85956667D02*
X90713096Y-85956667D01*
X90141667Y-86242381D02*
X90475000Y-85242381D01*
X90808334Y-86242381D01*
X90784524Y-83607143D02*
X90736905Y-83654762D01*
X90594048Y-83702381D01*
X90498810Y-83702381D01*
X90355952Y-83654762D01*
X90260714Y-83559524D01*
X90213095Y-83464286D01*
X90165476Y-83273810D01*
X90165476Y-83130952D01*
X90213095Y-82940476D01*
X90260714Y-82845238D01*
X90355952Y-82750000D01*
X90498810Y-82702381D01*
X90594048Y-82702381D01*
X90736905Y-82750000D01*
X90784524Y-82797619D01*
X90546429Y-80638571D02*
X90689286Y-80686190D01*
X90736905Y-80733810D01*
X90784524Y-80829048D01*
X90784524Y-80971905D01*
X90736905Y-81067143D01*
X90689286Y-81114762D01*
X90594048Y-81162381D01*
X90213095Y-81162381D01*
X90213095Y-80162381D01*
X90546429Y-80162381D01*
X90641667Y-80210000D01*
X90689286Y-80257619D01*
X90736905Y-80352857D01*
X90736905Y-80448095D01*
X90689286Y-80543333D01*
X90641667Y-80590952D01*
X90546429Y-80638571D01*
X90213095Y-80638571D01*
X90189286Y-88734762D02*
X90332143Y-88782381D01*
X90570239Y-88782381D01*
X90665477Y-88734762D01*
X90713096Y-88687143D01*
X90760715Y-88591905D01*
X90760715Y-88496667D01*
X90713096Y-88401429D01*
X90665477Y-88353810D01*
X90570239Y-88306190D01*
X90379762Y-88258571D01*
X90284524Y-88210952D01*
X90236905Y-88163333D01*
X90189286Y-88068095D01*
X90189286Y-87972857D01*
X90236905Y-87877619D01*
X90284524Y-87830000D01*
X90379762Y-87782381D01*
X90617858Y-87782381D01*
X90760715Y-87830000D01*
X90189286Y-78574762D02*
X90332143Y-78622381D01*
X90570239Y-78622381D01*
X90665477Y-78574762D01*
X90713096Y-78527143D01*
X90760715Y-78431905D01*
X90760715Y-78336667D01*
X90713096Y-78241429D01*
X90665477Y-78193810D01*
X90570239Y-78146190D01*
X90379762Y-78098571D01*
X90284524Y-78050952D01*
X90236905Y-78003333D01*
X90189286Y-77908095D01*
X90189286Y-77812857D01*
X90236905Y-77717619D01*
X90284524Y-77670000D01*
X90379762Y-77622381D01*
X90617858Y-77622381D01*
X90760715Y-77670000D01*
X108402381Y-45950095D02*
X107402381Y-45950095D01*
X107402381Y-45569142D01*
X107450000Y-45473904D01*
X107497619Y-45426285D01*
X107592857Y-45378666D01*
X107735714Y-45378666D01*
X107830952Y-45426285D01*
X107878571Y-45473904D01*
X107926190Y-45569142D01*
X107926190Y-45950095D01*
X107402381Y-45045333D02*
X107402381Y-44426285D01*
X107783333Y-44759619D01*
X107783333Y-44616761D01*
X107830952Y-44521523D01*
X107878571Y-44473904D01*
X107973810Y-44426285D01*
X108211905Y-44426285D01*
X108307143Y-44473904D01*
X108354762Y-44521523D01*
X108402381Y-44616761D01*
X108402381Y-44902476D01*
X108354762Y-44997714D01*
X108307143Y-45045333D01*
X104675239Y-40288571D02*
X104818096Y-40336190D01*
X104865715Y-40383810D01*
X104913334Y-40479048D01*
X104913334Y-40621905D01*
X104865715Y-40717143D01*
X104818096Y-40764762D01*
X104722858Y-40812381D01*
X104341905Y-40812381D01*
X104341905Y-39812381D01*
X104675239Y-39812381D01*
X104770477Y-39860000D01*
X104818096Y-39907619D01*
X104865715Y-40002857D01*
X104865715Y-40098095D01*
X104818096Y-40193333D01*
X104770477Y-40240952D01*
X104675239Y-40288571D01*
X104341905Y-40288571D01*
X105532381Y-39812381D02*
X105627620Y-39812381D01*
X105722858Y-39860000D01*
X105770477Y-39907619D01*
X105818096Y-40002857D01*
X105865715Y-40193333D01*
X105865715Y-40431429D01*
X105818096Y-40621905D01*
X105770477Y-40717143D01*
X105722858Y-40764762D01*
X105627620Y-40812381D01*
X105532381Y-40812381D01*
X105437143Y-40764762D01*
X105389524Y-40717143D01*
X105341905Y-40621905D01*
X105294286Y-40431429D01*
X105294286Y-40193333D01*
X105341905Y-40002857D01*
X105389524Y-39907619D01*
X105437143Y-39860000D01*
X105532381Y-39812381D01*
X101754286Y-40812381D02*
X101754286Y-39812381D01*
X102325715Y-40812381D01*
X102325715Y-39812381D01*
X103373334Y-40717143D02*
X103325715Y-40764762D01*
X103182858Y-40812381D01*
X103087620Y-40812381D01*
X102944762Y-40764762D01*
X102849524Y-40669524D01*
X102801905Y-40574286D01*
X102754286Y-40383810D01*
X102754286Y-40240952D01*
X102801905Y-40050476D01*
X102849524Y-39955238D01*
X102944762Y-39860000D01*
X103087620Y-39812381D01*
X103182858Y-39812381D01*
X103325715Y-39860000D01*
X103373334Y-39907619D01*
X99214286Y-40812381D02*
X99214286Y-39812381D01*
X99785715Y-40812381D01*
X99785715Y-39812381D01*
X100833334Y-40717143D02*
X100785715Y-40764762D01*
X100642858Y-40812381D01*
X100547620Y-40812381D01*
X100404762Y-40764762D01*
X100309524Y-40669524D01*
X100261905Y-40574286D01*
X100214286Y-40383810D01*
X100214286Y-40240952D01*
X100261905Y-40050476D01*
X100309524Y-39955238D01*
X100404762Y-39860000D01*
X100547620Y-39812381D01*
X100642858Y-39812381D01*
X100785715Y-39860000D01*
X100833334Y-39907619D01*
X94205714Y-40526667D02*
X94681905Y-40526667D01*
X94110476Y-40812381D02*
X94443809Y-39812381D01*
X94777143Y-40812381D01*
X95300952Y-39812381D02*
X95396191Y-39812381D01*
X95491429Y-39860000D01*
X95539048Y-39907619D01*
X95586667Y-40002857D01*
X95634286Y-40193333D01*
X95634286Y-40431429D01*
X95586667Y-40621905D01*
X95539048Y-40717143D01*
X95491429Y-40764762D01*
X95396191Y-40812381D01*
X95300952Y-40812381D01*
X95205714Y-40764762D01*
X95158095Y-40717143D01*
X95110476Y-40621905D01*
X95062857Y-40431429D01*
X95062857Y-40193333D01*
X95110476Y-40002857D01*
X95158095Y-39907619D01*
X95205714Y-39860000D01*
X95300952Y-39812381D01*
X97293334Y-40717143D02*
X97245715Y-40764762D01*
X97102858Y-40812381D01*
X97007620Y-40812381D01*
X96864762Y-40764762D01*
X96769524Y-40669524D01*
X96721905Y-40574286D01*
X96674286Y-40383810D01*
X96674286Y-40240952D01*
X96721905Y-40050476D01*
X96769524Y-39955238D01*
X96864762Y-39860000D01*
X97007620Y-39812381D01*
X97102858Y-39812381D01*
X97245715Y-39860000D01*
X97293334Y-39907619D01*
X97912381Y-39812381D02*
X98007620Y-39812381D01*
X98102858Y-39860000D01*
X98150477Y-39907619D01*
X98198096Y-40002857D01*
X98245715Y-40193333D01*
X98245715Y-40431429D01*
X98198096Y-40621905D01*
X98150477Y-40717143D01*
X98102858Y-40764762D01*
X98007620Y-40812381D01*
X97912381Y-40812381D01*
X97817143Y-40764762D01*
X97769524Y-40717143D01*
X97721905Y-40621905D01*
X97674286Y-40431429D01*
X97674286Y-40193333D01*
X97721905Y-40002857D01*
X97769524Y-39907619D01*
X97817143Y-39860000D01*
X97912381Y-39812381D01*
X104603810Y-58306667D02*
X105080001Y-58306667D01*
X104508572Y-58592381D02*
X104841905Y-57592381D01*
X105175239Y-58592381D01*
X105508572Y-58592381D02*
X105508572Y-57925714D01*
X105508572Y-57592381D02*
X105460953Y-57640000D01*
X105508572Y-57687619D01*
X105556191Y-57640000D01*
X105508572Y-57592381D01*
X105508572Y-57687619D01*
X102611429Y-58497143D02*
X102563810Y-58544762D01*
X102420953Y-58592381D01*
X102325715Y-58592381D01*
X102182857Y-58544762D01*
X102087619Y-58449524D01*
X102040000Y-58354286D01*
X101992381Y-58163810D01*
X101992381Y-58020952D01*
X102040000Y-57830476D01*
X102087619Y-57735238D01*
X102182857Y-57640000D01*
X102325715Y-57592381D01*
X102420953Y-57592381D01*
X102563810Y-57640000D01*
X102611429Y-57687619D01*
X103040000Y-58592381D02*
X103040000Y-57925714D01*
X103040000Y-57592381D02*
X102992381Y-57640000D01*
X103040000Y-57687619D01*
X103087619Y-57640000D01*
X103040000Y-57592381D01*
X103040000Y-57687619D01*
X99714286Y-58544762D02*
X99857143Y-58592381D01*
X100095239Y-58592381D01*
X100190477Y-58544762D01*
X100238096Y-58497143D01*
X100285715Y-58401905D01*
X100285715Y-58306667D01*
X100238096Y-58211429D01*
X100190477Y-58163810D01*
X100095239Y-58116190D01*
X99904762Y-58068571D01*
X99809524Y-58020952D01*
X99761905Y-57973333D01*
X99714286Y-57878095D01*
X99714286Y-57782857D01*
X99761905Y-57687619D01*
X99809524Y-57640000D01*
X99904762Y-57592381D01*
X100142858Y-57592381D01*
X100285715Y-57640000D01*
X97174286Y-58544762D02*
X97317143Y-58592381D01*
X97555239Y-58592381D01*
X97650477Y-58544762D01*
X97698096Y-58497143D01*
X97745715Y-58401905D01*
X97745715Y-58306667D01*
X97698096Y-58211429D01*
X97650477Y-58163810D01*
X97555239Y-58116190D01*
X97364762Y-58068571D01*
X97269524Y-58020952D01*
X97221905Y-57973333D01*
X97174286Y-57878095D01*
X97174286Y-57782857D01*
X97221905Y-57687619D01*
X97269524Y-57640000D01*
X97364762Y-57592381D01*
X97602858Y-57592381D01*
X97745715Y-57640000D01*
X94753334Y-58068571D02*
X94896191Y-58116190D01*
X94943810Y-58163810D01*
X94991429Y-58259048D01*
X94991429Y-58401905D01*
X94943810Y-58497143D01*
X94896191Y-58544762D01*
X94800953Y-58592381D01*
X94420000Y-58592381D01*
X94420000Y-57592381D01*
X94753334Y-57592381D01*
X94848572Y-57640000D01*
X94896191Y-57687619D01*
X94943810Y-57782857D01*
X94943810Y-57878095D01*
X94896191Y-57973333D01*
X94848572Y-58020952D01*
X94753334Y-58068571D01*
X94420000Y-58068571D01*
X95420000Y-58592381D02*
X95420000Y-57925714D01*
X95420000Y-57592381D02*
X95372381Y-57640000D01*
X95420000Y-57687619D01*
X95467619Y-57640000D01*
X95420000Y-57592381D01*
X95420000Y-57687619D01*
M02*
