M48
;DRILL file {KiCad 4.0.0-1rc2.201511291916+6190~38~ubuntu14.04.1-stable} date Mon 14 Mar 2016 12:07:42 PM PDT
;FORMAT={-:-/ absolute / inch / decimal}
FMAT,2
INCH,TZ
T1C0.016
T2C0.039
T3C0.040
T4C0.146
%
G90
G05
M72
T1
X3.35Y-2.34
X3.35Y-4.95
X3.35Y-5.9
X3.4Y-4.95
X3.4Y-5.9
X3.45Y-4.95
X3.45Y-5.9
X3.52Y-7.3
X3.54Y-1.04
X3.57Y-1.1
X3.59Y-6.2
X3.61Y-6.88
X3.62Y-2.21
X3.62Y-2.3
X3.62Y-2.45
X3.63Y-1.15
X3.68Y-3.59
X3.7Y-3.77
X3.73Y-5.4
X3.78Y-6.41
X3.82Y-5.4
X3.85Y-5.8
X3.86Y-3.63
X3.9Y-6.3
X3.96Y-5.83
X3.99Y-1.19
X3.99Y-5.06
X4.03Y-3.61
X4.06Y-4.99
X4.1Y-1.25
X4.14Y-6.64
X4.2Y-2.79
X4.2Y-4.7
X4.23Y-6.68
X4.25Y-4.7
X4.28Y-3.87
X4.3Y-2.22
X4.31Y-6.46
X4.31Y-6.91
X4.31Y-7.19
X4.35Y-2.4
X4.4Y-2.9
X4.45Y-2.95
X4.5Y-3.
X4.55Y-2.35
X4.6Y-4.55
X4.65Y-4.45
X4.65Y-6.7
X4.7Y-4.35
X4.75Y-4.3
X4.75Y-6.78
T2
X3.622Y-0.5874
X3.622Y-0.6874
X3.622Y-0.7874
X3.622Y-0.8874
X3.622Y-0.9874
X3.622Y-3.0776
X3.622Y-3.1776
X3.622Y-3.2776
X3.622Y-3.3776
X3.622Y-3.4776
X3.737Y-1.6693
X3.737Y-2.2087
X3.737Y-6.9154
X3.737Y-7.4547
X3.837Y-1.6693
X3.837Y-2.2087
X3.837Y-6.9154
X3.837Y-7.4547
X3.937Y-1.6693
X3.937Y-2.2087
X3.937Y-6.9154
X3.937Y-7.4547
X4.037Y-1.6693
X4.037Y-2.2087
X4.037Y-6.9154
X4.037Y-7.4547
X4.137Y-1.6693
X4.137Y-2.2087
X4.137Y-6.9154
X4.137Y-7.4547
T3
X3.65Y-4.2
X3.65Y-4.3
X3.65Y-4.4
X3.65Y-4.5
X3.65Y-4.6
X3.65Y-4.7
X3.65Y-4.8
X3.65Y-4.9
X3.65Y-5.
X3.65Y-5.1
X3.65Y-5.2
X3.65Y-5.3
X3.65Y-5.4
X3.65Y-5.5
X3.65Y-5.6
X3.65Y-5.7
X4.45Y-4.2
X4.45Y-4.3
X4.45Y-4.4
X4.45Y-4.5
X4.45Y-4.6
X4.45Y-4.7
X4.45Y-4.8
X4.45Y-4.9
X4.45Y-5.
X4.45Y-5.1
T4
X3.44Y-1.38
X3.44Y-7.12
X4.65Y-0.43
T0
M30
