G04 #@! TF.FileFunction,Copper,L2,Bot,Signal*
%FSLAX46Y46*%
G04 Gerber Fmt 4.6, Leading zero omitted, Abs format (unit mm)*
G04 Created by KiCad (PCBNEW 4.0.0-1rc2.201511291916+6190~38~ubuntu14.04.1-stable) date Mon 14 Mar 2016 12:07:37 PM PDT*
%MOMM*%
G01*
G04 APERTURE LIST*
%ADD10C,0.100000*%
%ADD11R,2.032000X1.727200*%
%ADD12O,2.032000X1.727200*%
%ADD13O,2.032000X2.032000*%
%ADD14R,2.032000X2.032000*%
%ADD15C,7.000000*%
%ADD16C,1.500000*%
%ADD17R,1.500000X1.500000*%
%ADD18C,0.600000*%
%ADD19C,0.250000*%
%ADD20C,0.254000*%
G04 APERTURE END LIST*
D10*
D11*
X120650000Y-196850000D03*
D12*
X120650000Y-194310000D03*
X120650000Y-191770000D03*
X120650000Y-189230000D03*
X120650000Y-186690000D03*
X120650000Y-184150000D03*
X120650000Y-181610000D03*
X120650000Y-179070000D03*
D13*
X113030000Y-129540000D03*
X113030000Y-127000000D03*
X113030000Y-124460000D03*
X113030000Y-121920000D03*
X113030000Y-119380000D03*
X113030000Y-116840000D03*
X113030000Y-114300000D03*
X113030000Y-111760000D03*
X113030000Y-109220000D03*
X113030000Y-106680000D03*
X92710000Y-106680000D03*
X92710000Y-109220000D03*
X92710000Y-111760000D03*
X92710000Y-114300000D03*
X92710000Y-116840000D03*
X92710000Y-119380000D03*
X92710000Y-121920000D03*
X92710000Y-124460000D03*
X92710000Y-127000000D03*
X92710000Y-129540000D03*
X92710000Y-132080000D03*
X92710000Y-134620000D03*
X92710000Y-137160000D03*
X92710000Y-139700000D03*
D14*
X92710000Y-144780000D03*
D13*
X92710000Y-142240000D03*
D15*
X87376000Y-180848000D03*
X118110000Y-10922000D03*
X87376000Y-35052000D03*
D16*
X92000000Y-14920000D03*
X92000000Y-17460000D03*
X92000000Y-20000000D03*
X92000000Y-22540000D03*
X92000000Y-25080000D03*
X94920000Y-175650000D03*
X97460000Y-175650000D03*
X100000000Y-175650000D03*
X102540000Y-175650000D03*
X105080000Y-175650000D03*
D17*
X94920000Y-189350000D03*
D16*
X97460000Y-189350000D03*
X105080000Y-189350000D03*
X102540000Y-189350000D03*
X100000000Y-189350000D03*
X92000000Y-78170000D03*
X92000000Y-80710000D03*
X92000000Y-83250000D03*
X92000000Y-85790000D03*
X92000000Y-88330000D03*
X94920000Y-42400000D03*
X97460000Y-42400000D03*
X100000000Y-42400000D03*
X102540000Y-42400000D03*
X105080000Y-42400000D03*
D17*
X94920000Y-56100000D03*
D16*
X97460000Y-56100000D03*
X105080000Y-56100000D03*
X102540000Y-56100000D03*
X100000000Y-56100000D03*
D18*
X85090000Y-59436000D03*
X101346000Y-30226000D03*
X91694000Y-174752000D03*
X106680000Y-119380000D03*
X91948000Y-58420000D03*
X91948000Y-62230000D03*
X93472000Y-91186000D03*
X107950000Y-119380000D03*
X116840000Y-115570000D03*
X118110000Y-113030000D03*
X119380000Y-110490000D03*
X120650000Y-109220000D03*
X118110000Y-170180000D03*
X100584000Y-148082000D03*
X91186000Y-157480000D03*
X89408000Y-185420000D03*
X120650000Y-172212000D03*
X98044000Y-92202000D03*
X93980000Y-95758000D03*
X94742000Y-137160000D03*
X97028000Y-137160000D03*
X103124000Y-126746000D03*
X101346000Y-128524000D03*
X97790000Y-147320000D03*
X85090000Y-149860000D03*
X85090000Y-125730000D03*
X91948000Y-56134000D03*
X106680000Y-70866000D03*
X105156000Y-168656000D03*
X86360000Y-125730000D03*
X86360000Y-149860000D03*
X107442000Y-169672000D03*
X109220000Y-56388000D03*
X87630000Y-149860000D03*
X87630000Y-125730000D03*
X96012000Y-162814000D03*
X99060000Y-160020000D03*
X110490000Y-60960000D03*
X111760000Y-73660000D03*
X104140000Y-31750000D03*
X113030000Y-74930000D03*
X92202000Y-29210000D03*
X114300000Y-76200000D03*
X90678000Y-27940000D03*
X109474000Y-164084000D03*
X109474000Y-175514000D03*
X109474000Y-182626000D03*
X115570000Y-59690000D03*
X89916000Y-26416000D03*
X102362000Y-91694000D03*
X108712000Y-98298000D03*
D19*
X102540000Y-56100000D02*
X102540000Y-56464000D01*
X102540000Y-56464000D02*
X99568000Y-59436000D01*
X99568000Y-59436000D02*
X85090000Y-59436000D01*
X92000000Y-20000000D02*
X92000000Y-20522000D01*
X92000000Y-20522000D02*
X89154000Y-23368000D01*
X91186000Y-30226000D02*
X101346000Y-30226000D01*
X89154000Y-28194000D02*
X91186000Y-30226000D01*
X89154000Y-23368000D02*
X89154000Y-28194000D01*
X92000000Y-14920000D02*
X91760000Y-14920000D01*
X91760000Y-14920000D02*
X90170000Y-16510000D01*
X90170000Y-16510000D02*
X90170000Y-18170000D01*
X90170000Y-18170000D02*
X92000000Y-20000000D01*
X97460000Y-42400000D02*
X97460000Y-42240000D01*
X106680000Y-131572000D02*
X106680000Y-158750000D01*
X106680000Y-158750000D02*
X103632000Y-161798000D01*
X97460000Y-173228000D02*
X93218000Y-173228000D01*
X91694000Y-174752000D02*
X93218000Y-173228000D01*
X97460000Y-175650000D02*
X97460000Y-173228000D01*
X97460000Y-173228000D02*
X97460000Y-167970000D01*
X97460000Y-167970000D02*
X99060000Y-166370000D01*
X99060000Y-166370000D02*
X103632000Y-161798000D01*
X106680000Y-131572000D02*
X106680000Y-125984000D01*
X106680000Y-125984000D02*
X106680000Y-119380000D01*
X92000000Y-78170000D02*
X92000000Y-62282000D01*
X100000000Y-56972000D02*
X100000000Y-56100000D01*
X98552000Y-58420000D02*
X100000000Y-56972000D01*
X91948000Y-58420000D02*
X98552000Y-58420000D01*
X92000000Y-62282000D02*
X91948000Y-62230000D01*
X92000000Y-83250000D02*
X91756000Y-83250000D01*
X91756000Y-83250000D02*
X89916000Y-85090000D01*
X92710000Y-91186000D02*
X93472000Y-91186000D01*
X89916000Y-88392000D02*
X92710000Y-91186000D01*
X89916000Y-85090000D02*
X89916000Y-88392000D01*
X92000000Y-78170000D02*
X91756000Y-78170000D01*
X91756000Y-78170000D02*
X90170000Y-79756000D01*
X90170000Y-79756000D02*
X90170000Y-81420000D01*
X90170000Y-81420000D02*
X92000000Y-83250000D01*
X110490000Y-180086000D02*
X110490000Y-184150000D01*
X110490000Y-184150000D02*
X120650000Y-194310000D01*
X101600000Y-190754000D02*
X101404000Y-190754000D01*
X107950000Y-157480000D02*
X110490000Y-160020000D01*
X110490000Y-160020000D02*
X110490000Y-180086000D01*
X110490000Y-180086000D02*
X108204000Y-182372000D01*
X108204000Y-182372000D02*
X108204000Y-188722000D01*
X108204000Y-188722000D02*
X106172000Y-190754000D01*
X106172000Y-190754000D02*
X101600000Y-190754000D01*
X107950000Y-119380000D02*
X107950000Y-157480000D01*
X101404000Y-190754000D02*
X100000000Y-189350000D01*
X111760000Y-170180000D02*
X111760000Y-182880000D01*
X116840000Y-165100000D02*
X116840000Y-116840000D01*
X111760000Y-170180000D02*
X116840000Y-165100000D01*
X116840000Y-116840000D02*
X116840000Y-115570000D01*
X111760000Y-182880000D02*
X120650000Y-191770000D01*
X113030000Y-177800000D02*
X113030000Y-181610000D01*
X113030000Y-176530000D02*
X113030000Y-177800000D01*
X118110000Y-165100000D02*
X118110000Y-113030000D01*
X113030000Y-170180000D02*
X118110000Y-165100000D01*
X113030000Y-176530000D02*
X113030000Y-170180000D01*
X113030000Y-181610000D02*
X120650000Y-189230000D01*
X114300000Y-176276000D02*
X114300000Y-180340000D01*
X114300000Y-180340000D02*
X120650000Y-186690000D01*
X114300000Y-176530000D02*
X114300000Y-176276000D01*
X114300000Y-176276000D02*
X114300000Y-170180000D01*
X114300000Y-170180000D02*
X119380000Y-165100000D01*
X119380000Y-165100000D02*
X119380000Y-110490000D01*
X115570000Y-176530000D02*
X115570000Y-179070000D01*
X120650000Y-165100000D02*
X120650000Y-110490000D01*
X115570000Y-170180000D02*
X120650000Y-165100000D01*
X115570000Y-176530000D02*
X115570000Y-170180000D01*
X120650000Y-110490000D02*
X120650000Y-109220000D01*
X115570000Y-179070000D02*
X120650000Y-184150000D01*
X118110000Y-170180000D02*
X118110000Y-179070000D01*
X118110000Y-179070000D02*
X120650000Y-181610000D01*
X100584000Y-148082000D02*
X91186000Y-157480000D01*
X120650000Y-179070000D02*
X120650000Y-172212000D01*
X97536000Y-92202000D02*
X98044000Y-92202000D01*
X93980000Y-95758000D02*
X97536000Y-92202000D01*
X94742000Y-137160000D02*
X97028000Y-137160000D01*
X101346000Y-128524000D02*
X103124000Y-126746000D01*
X88900000Y-115570000D02*
X92710000Y-111760000D01*
X88900000Y-144780000D02*
X88900000Y-115570000D01*
X91440000Y-147320000D02*
X88900000Y-144780000D01*
X97790000Y-147320000D02*
X91440000Y-147320000D01*
X85090000Y-125730000D02*
X85090000Y-149860000D01*
X94920000Y-42400000D02*
X93236000Y-42400000D01*
X91948000Y-43688000D02*
X91948000Y-56134000D01*
X93236000Y-42400000D02*
X91948000Y-43688000D01*
X106680000Y-70866000D02*
X106680000Y-85090000D01*
X92710000Y-116840000D02*
X93980000Y-116840000D01*
X106680000Y-88900000D02*
X106680000Y-85090000D01*
X95250000Y-100330000D02*
X106680000Y-88900000D01*
X95250000Y-115570000D02*
X95250000Y-100330000D01*
X93980000Y-116840000D02*
X95250000Y-115570000D01*
X105080000Y-173990000D02*
X105080000Y-168732000D01*
X105080000Y-168732000D02*
X105156000Y-168656000D01*
X105080000Y-175650000D02*
X105080000Y-173990000D01*
X105080000Y-173990000D02*
X105080000Y-174066000D01*
X105080000Y-42400000D02*
X106916000Y-42400000D01*
X107950000Y-43434000D02*
X107950000Y-59944000D01*
X106916000Y-42400000D02*
X107950000Y-43434000D01*
X86360000Y-125730000D02*
X86360000Y-149860000D01*
X107950000Y-59690000D02*
X107950000Y-59944000D01*
X107950000Y-59944000D02*
X107950000Y-85090000D01*
X92710000Y-119380000D02*
X93980000Y-119380000D01*
X107950000Y-88900000D02*
X107950000Y-85090000D01*
X96520000Y-100330000D02*
X107950000Y-88900000D01*
X96520000Y-116840000D02*
X96520000Y-100330000D01*
X93980000Y-119380000D02*
X96520000Y-116840000D01*
X107442000Y-169672000D02*
X107442000Y-174752000D01*
X106560000Y-189350000D02*
X107442000Y-188468000D01*
X107442000Y-188468000D02*
X107442000Y-174752000D01*
X106560000Y-189350000D02*
X105080000Y-189350000D01*
X87630000Y-125730000D02*
X87630000Y-149860000D01*
X109220000Y-85090000D02*
X109220000Y-56388000D01*
X93980000Y-121920000D02*
X97790000Y-118110000D01*
X97790000Y-118110000D02*
X97790000Y-100330000D01*
X97790000Y-100330000D02*
X109220000Y-88900000D01*
X109220000Y-88900000D02*
X109220000Y-85090000D01*
X92710000Y-121920000D02*
X93980000Y-121920000D01*
X96012000Y-162814000D02*
X98806000Y-160020000D01*
X98806000Y-160020000D02*
X99060000Y-160020000D01*
X110490000Y-60960000D02*
X110490000Y-85090000D01*
X92710000Y-124460000D02*
X93980000Y-124460000D01*
X110490000Y-88900000D02*
X110490000Y-85090000D01*
X99060000Y-100330000D02*
X110490000Y-88900000D01*
X99060000Y-119380000D02*
X99060000Y-100330000D01*
X93980000Y-124460000D02*
X99060000Y-119380000D01*
X111760000Y-76200000D02*
X111760000Y-73660000D01*
X111760000Y-73660000D02*
X111760000Y-35560000D01*
X111760000Y-35560000D02*
X110490000Y-34290000D01*
X104140000Y-33020000D02*
X104140000Y-31750000D01*
X105410000Y-34290000D02*
X104140000Y-33020000D01*
X110490000Y-34290000D02*
X105410000Y-34290000D01*
X111760000Y-76200000D02*
X111760000Y-85090000D01*
X111760000Y-88900000D02*
X111760000Y-85090000D01*
X93980000Y-127000000D02*
X100330000Y-120650000D01*
X100330000Y-120650000D02*
X100330000Y-100330000D01*
X100330000Y-100330000D02*
X111760000Y-88900000D01*
X92710000Y-127000000D02*
X93980000Y-127000000D01*
X93980000Y-129540000D02*
X92710000Y-129540000D01*
X101600000Y-121920000D02*
X93980000Y-129540000D01*
X101600000Y-100330000D02*
X101600000Y-121920000D01*
X113030000Y-88900000D02*
X101600000Y-100330000D01*
X92202000Y-29210000D02*
X107950000Y-29210000D01*
X113030000Y-34290000D02*
X113030000Y-74930000D01*
X113030000Y-74930000D02*
X113030000Y-88900000D01*
X107950000Y-29210000D02*
X113030000Y-34290000D01*
X114300000Y-85090000D02*
X114300000Y-76200000D01*
X114300000Y-76200000D02*
X114300000Y-73660000D01*
X114300000Y-73660000D02*
X114300000Y-34290000D01*
X114300000Y-88900000D02*
X114300000Y-85090000D01*
X114300000Y-34290000D02*
X107950000Y-27940000D01*
X90678000Y-27940000D02*
X91440000Y-27940000D01*
X93980000Y-132080000D02*
X102870000Y-123190000D01*
X102870000Y-123190000D02*
X102870000Y-100330000D01*
X102870000Y-100330000D02*
X114300000Y-88900000D01*
X92710000Y-132080000D02*
X93980000Y-132080000D01*
X107950000Y-27940000D02*
X91440000Y-27940000D01*
X108966000Y-189484000D02*
X108966000Y-183134000D01*
X106934000Y-191516000D02*
X108966000Y-189484000D01*
X99568000Y-191516000D02*
X106934000Y-191516000D01*
X97460000Y-189408000D02*
X99568000Y-191516000D01*
X109474000Y-175514000D02*
X109474000Y-164084000D01*
X108966000Y-183134000D02*
X109474000Y-182626000D01*
X97460000Y-189350000D02*
X97460000Y-189408000D01*
X89916000Y-26416000D02*
X90170000Y-26670000D01*
X90170000Y-26670000D02*
X91694000Y-26670000D01*
X115570000Y-85090000D02*
X115570000Y-59690000D01*
X115570000Y-59690000D02*
X115570000Y-40640000D01*
X115570000Y-40640000D02*
X115570000Y-34290000D01*
X93980000Y-134620000D02*
X104140000Y-124460000D01*
X104140000Y-124460000D02*
X104140000Y-100330000D01*
X104140000Y-100330000D02*
X105410000Y-99060000D01*
X105410000Y-99060000D02*
X115570000Y-88900000D01*
X115570000Y-88900000D02*
X115570000Y-85090000D01*
X92710000Y-134620000D02*
X93980000Y-134620000D01*
X107950000Y-26670000D02*
X91694000Y-26670000D01*
X91694000Y-26670000D02*
X91440000Y-26670000D01*
X115570000Y-34290000D02*
X107950000Y-26670000D01*
X113030000Y-129540000D02*
X111252000Y-129540000D01*
X109220000Y-98806000D02*
X108712000Y-98298000D01*
X109220000Y-127508000D02*
X109220000Y-98806000D01*
X111252000Y-129540000D02*
X109220000Y-127508000D01*
D20*
G36*
X114606562Y-8576653D02*
X113975720Y-10095889D01*
X113974284Y-11740894D01*
X114602474Y-13261229D01*
X115764653Y-14425438D01*
X117283889Y-15056280D01*
X118928894Y-15057716D01*
X120449229Y-14429526D01*
X121290000Y-13590221D01*
X121290000Y-108537673D01*
X121180327Y-108427808D01*
X120836799Y-108285162D01*
X120464833Y-108284838D01*
X120121057Y-108426883D01*
X119857808Y-108689673D01*
X119715162Y-109033201D01*
X119714838Y-109405167D01*
X119820310Y-109660430D01*
X119566799Y-109555162D01*
X119194833Y-109554838D01*
X118851057Y-109696883D01*
X118587808Y-109959673D01*
X118445162Y-110303201D01*
X118444838Y-110675167D01*
X118586883Y-111018943D01*
X118620000Y-111052118D01*
X118620000Y-112229367D01*
X118296799Y-112095162D01*
X117924833Y-112094838D01*
X117581057Y-112236883D01*
X117317808Y-112499673D01*
X117175162Y-112843201D01*
X117174838Y-113215167D01*
X117316883Y-113558943D01*
X117350000Y-113592118D01*
X117350000Y-114769367D01*
X117026799Y-114635162D01*
X116654833Y-114634838D01*
X116311057Y-114776883D01*
X116047808Y-115039673D01*
X115905162Y-115383201D01*
X115904838Y-115755167D01*
X116046883Y-116098943D01*
X116080000Y-116132118D01*
X116080000Y-164785198D01*
X111250000Y-169615198D01*
X111250000Y-160020000D01*
X111192148Y-159729161D01*
X111192148Y-159729160D01*
X111027401Y-159482599D01*
X108710000Y-157165198D01*
X108710000Y-129922944D01*
X111424025Y-129922944D01*
X111623615Y-130404818D01*
X112061621Y-130877188D01*
X112647054Y-131145983D01*
X112903000Y-131027367D01*
X112903000Y-129667000D01*
X113157000Y-129667000D01*
X113157000Y-131027367D01*
X113412946Y-131145983D01*
X113998379Y-130877188D01*
X114436385Y-130404818D01*
X114635975Y-129922944D01*
X114516836Y-129667000D01*
X113157000Y-129667000D01*
X112903000Y-129667000D01*
X111543164Y-129667000D01*
X111424025Y-129922944D01*
X108710000Y-129922944D01*
X108710000Y-119942463D01*
X108742192Y-119910327D01*
X108884838Y-119566799D01*
X108885162Y-119194833D01*
X108743117Y-118851057D01*
X108480327Y-118587808D01*
X108136799Y-118445162D01*
X107764833Y-118444838D01*
X107421057Y-118586883D01*
X107315046Y-118692710D01*
X107210327Y-118587808D01*
X106866799Y-118445162D01*
X106494833Y-118444838D01*
X106151057Y-118586883D01*
X105887808Y-118849673D01*
X105745162Y-119193201D01*
X105744838Y-119565167D01*
X105886883Y-119908943D01*
X105920000Y-119942118D01*
X105920000Y-158435198D01*
X96922599Y-167432599D01*
X96757852Y-167679161D01*
X96700000Y-167970000D01*
X96700000Y-172468000D01*
X93218000Y-172468000D01*
X92975414Y-172516254D01*
X92927160Y-172525852D01*
X92680599Y-172690599D01*
X91554320Y-173816878D01*
X91508833Y-173816838D01*
X91165057Y-173958883D01*
X90901808Y-174221673D01*
X90759162Y-174565201D01*
X90758838Y-174937167D01*
X90900883Y-175280943D01*
X91163673Y-175544192D01*
X91507201Y-175686838D01*
X91879167Y-175687162D01*
X92222943Y-175545117D01*
X92486192Y-175282327D01*
X92628838Y-174938799D01*
X92628879Y-174891923D01*
X93532802Y-173988000D01*
X96700000Y-173988000D01*
X96700000Y-174465453D01*
X96676485Y-174475169D01*
X96286539Y-174864436D01*
X96190024Y-175096870D01*
X96094831Y-174866485D01*
X95705564Y-174476539D01*
X95196702Y-174265241D01*
X94645715Y-174264760D01*
X94136485Y-174475169D01*
X93746539Y-174864436D01*
X93535241Y-175373298D01*
X93534760Y-175924285D01*
X93565136Y-175997800D01*
X93243400Y-175997800D01*
X92971695Y-176051846D01*
X92741354Y-176205754D01*
X92587446Y-176436095D01*
X92533400Y-176707800D01*
X92533400Y-188290200D01*
X92587446Y-188561905D01*
X92741354Y-188792246D01*
X92971695Y-188946154D01*
X93243400Y-189000200D01*
X93522560Y-189000200D01*
X93522560Y-190100000D01*
X93566838Y-190335317D01*
X93705910Y-190551441D01*
X93918110Y-190696431D01*
X94170000Y-190747440D01*
X95670000Y-190747440D01*
X95905317Y-190703162D01*
X96121441Y-190564090D01*
X96266431Y-190351890D01*
X96306355Y-190154738D01*
X96674436Y-190523461D01*
X97183298Y-190734759D01*
X97712419Y-190735221D01*
X99030599Y-192053401D01*
X99277160Y-192218148D01*
X99568000Y-192276000D01*
X106934000Y-192276000D01*
X107224839Y-192218148D01*
X107471401Y-192053401D01*
X109503401Y-190021401D01*
X109668148Y-189774839D01*
X109726000Y-189484000D01*
X109726000Y-183533547D01*
X109730000Y-183531894D01*
X109730000Y-184150000D01*
X109787852Y-184440839D01*
X109952599Y-184687401D01*
X119067619Y-193802421D01*
X118966655Y-194310000D01*
X119080729Y-194883489D01*
X119405585Y-195369670D01*
X119427780Y-195384500D01*
X119274302Y-195448073D01*
X119095673Y-195626701D01*
X118999000Y-195860090D01*
X118999000Y-196564250D01*
X119157750Y-196723000D01*
X120523000Y-196723000D01*
X120523000Y-196703000D01*
X120777000Y-196703000D01*
X120777000Y-196723000D01*
X120797000Y-196723000D01*
X120797000Y-196977000D01*
X120777000Y-196977000D01*
X120777000Y-196997000D01*
X120523000Y-196997000D01*
X120523000Y-196977000D01*
X119157750Y-196977000D01*
X118999000Y-197135750D01*
X118999000Y-197290000D01*
X88582682Y-197290000D01*
X88353816Y-196139411D01*
X88247801Y-195883470D01*
X87272325Y-194423564D01*
X87076436Y-194227676D01*
X87076435Y-194227675D01*
X85616530Y-193252198D01*
X85466603Y-193190097D01*
X85360589Y-193146184D01*
X84210000Y-192917318D01*
X84210000Y-183529352D01*
X85030653Y-184351438D01*
X86549889Y-184982280D01*
X88194894Y-184983716D01*
X88752332Y-184753387D01*
X88615808Y-184889673D01*
X88473162Y-185233201D01*
X88472838Y-185605167D01*
X88614883Y-185948943D01*
X88877673Y-186212192D01*
X89221201Y-186354838D01*
X89593167Y-186355162D01*
X89936943Y-186213117D01*
X90200192Y-185950327D01*
X90342838Y-185606799D01*
X90343162Y-185234833D01*
X90201117Y-184891057D01*
X89938327Y-184627808D01*
X89594799Y-184485162D01*
X89401893Y-184484994D01*
X89715229Y-184355526D01*
X90879438Y-183193347D01*
X91510280Y-181674111D01*
X91511716Y-180029106D01*
X90883526Y-178508771D01*
X89721347Y-177344562D01*
X88202111Y-176713720D01*
X86557106Y-176712284D01*
X85036771Y-177340474D01*
X84210000Y-178165803D01*
X84210000Y-162999167D01*
X95076838Y-162999167D01*
X95218883Y-163342943D01*
X95481673Y-163606192D01*
X95825201Y-163748838D01*
X96197167Y-163749162D01*
X96540943Y-163607117D01*
X96804192Y-163344327D01*
X96946838Y-163000799D01*
X96946879Y-162953923D01*
X98945901Y-160954901D01*
X99245167Y-160955162D01*
X99588943Y-160813117D01*
X99852192Y-160550327D01*
X99994838Y-160206799D01*
X99995162Y-159834833D01*
X99853117Y-159491057D01*
X99590327Y-159227808D01*
X99246799Y-159085162D01*
X98874833Y-159084838D01*
X98531057Y-159226883D01*
X98287638Y-159469878D01*
X98268599Y-159482599D01*
X95872320Y-161878878D01*
X95826833Y-161878838D01*
X95483057Y-162020883D01*
X95219808Y-162283673D01*
X95077162Y-162627201D01*
X95076838Y-162999167D01*
X84210000Y-162999167D01*
X84210000Y-157665167D01*
X90250838Y-157665167D01*
X90392883Y-158008943D01*
X90655673Y-158272192D01*
X90999201Y-158414838D01*
X91371167Y-158415162D01*
X91714943Y-158273117D01*
X91978192Y-158010327D01*
X92120838Y-157666799D01*
X92120879Y-157619923D01*
X100723680Y-149017122D01*
X100769167Y-149017162D01*
X101112943Y-148875117D01*
X101376192Y-148612327D01*
X101518838Y-148268799D01*
X101519162Y-147896833D01*
X101377117Y-147553057D01*
X101114327Y-147289808D01*
X100770799Y-147147162D01*
X100398833Y-147146838D01*
X100055057Y-147288883D01*
X99791808Y-147551673D01*
X99649162Y-147895201D01*
X99649121Y-147942077D01*
X91046320Y-156544878D01*
X91000833Y-156544838D01*
X90657057Y-156686883D01*
X90393808Y-156949673D01*
X90251162Y-157293201D01*
X90250838Y-157665167D01*
X84210000Y-157665167D01*
X84210000Y-150178670D01*
X84296883Y-150388943D01*
X84559673Y-150652192D01*
X84903201Y-150794838D01*
X85275167Y-150795162D01*
X85618943Y-150653117D01*
X85724954Y-150547290D01*
X85829673Y-150652192D01*
X86173201Y-150794838D01*
X86545167Y-150795162D01*
X86888943Y-150653117D01*
X86994954Y-150547290D01*
X87099673Y-150652192D01*
X87443201Y-150794838D01*
X87815167Y-150795162D01*
X88158943Y-150653117D01*
X88422192Y-150390327D01*
X88564838Y-150046799D01*
X88565162Y-149674833D01*
X88423117Y-149331057D01*
X88390000Y-149297882D01*
X88390000Y-145344802D01*
X90902599Y-147857401D01*
X91149160Y-148022148D01*
X91197414Y-148031746D01*
X91440000Y-148080000D01*
X97227537Y-148080000D01*
X97259673Y-148112192D01*
X97603201Y-148254838D01*
X97975167Y-148255162D01*
X98318943Y-148113117D01*
X98582192Y-147850327D01*
X98724838Y-147506799D01*
X98725162Y-147134833D01*
X98583117Y-146791057D01*
X98320327Y-146527808D01*
X97976799Y-146385162D01*
X97604833Y-146384838D01*
X97261057Y-146526883D01*
X97227882Y-146560000D01*
X91754802Y-146560000D01*
X91624084Y-146429282D01*
X91694000Y-146443440D01*
X93726000Y-146443440D01*
X93961317Y-146399162D01*
X94177441Y-146260090D01*
X94322431Y-146047890D01*
X94373440Y-145796000D01*
X94373440Y-143764000D01*
X94329162Y-143528683D01*
X94190090Y-143312559D01*
X94041163Y-143210802D01*
X94267670Y-142871810D01*
X94393345Y-142240000D01*
X94267670Y-141608190D01*
X93909778Y-141072567D01*
X93756276Y-140970000D01*
X93909778Y-140867433D01*
X94267670Y-140331810D01*
X94393345Y-139700000D01*
X94267670Y-139068190D01*
X93909778Y-138532567D01*
X93756276Y-138430000D01*
X93909778Y-138327433D01*
X94181022Y-137921488D01*
X94211673Y-137952192D01*
X94555201Y-138094838D01*
X94927167Y-138095162D01*
X95270943Y-137953117D01*
X95304118Y-137920000D01*
X96465537Y-137920000D01*
X96497673Y-137952192D01*
X96841201Y-138094838D01*
X97213167Y-138095162D01*
X97556943Y-137953117D01*
X97820192Y-137690327D01*
X97962838Y-137346799D01*
X97963162Y-136974833D01*
X97821117Y-136631057D01*
X97558327Y-136367808D01*
X97214799Y-136225162D01*
X96842833Y-136224838D01*
X96499057Y-136366883D01*
X96465882Y-136400000D01*
X95304463Y-136400000D01*
X95272327Y-136367808D01*
X94928799Y-136225162D01*
X94556833Y-136224838D01*
X94213057Y-136366883D01*
X94181162Y-136398722D01*
X93909778Y-135992567D01*
X93756276Y-135890000D01*
X93909778Y-135787433D01*
X94212982Y-135333657D01*
X94270839Y-135322148D01*
X94517401Y-135157401D01*
X100587341Y-129087461D01*
X100815673Y-129316192D01*
X101159201Y-129458838D01*
X101531167Y-129459162D01*
X101874943Y-129317117D01*
X102138192Y-129054327D01*
X102280838Y-128710799D01*
X102280879Y-128663923D01*
X103263680Y-127681122D01*
X103309167Y-127681162D01*
X103652943Y-127539117D01*
X103916192Y-127276327D01*
X104058838Y-126932799D01*
X104059162Y-126560833D01*
X103917117Y-126217057D01*
X103687631Y-125987171D01*
X104677401Y-124997401D01*
X104842148Y-124750839D01*
X104900000Y-124460000D01*
X104900000Y-106680000D01*
X111346655Y-106680000D01*
X111472330Y-107311810D01*
X111830222Y-107847433D01*
X111983724Y-107950000D01*
X111830222Y-108052567D01*
X111472330Y-108588190D01*
X111346655Y-109220000D01*
X111472330Y-109851810D01*
X111830222Y-110387433D01*
X111983724Y-110490000D01*
X111830222Y-110592567D01*
X111472330Y-111128190D01*
X111346655Y-111760000D01*
X111472330Y-112391810D01*
X111830222Y-112927433D01*
X111983724Y-113030000D01*
X111830222Y-113132567D01*
X111472330Y-113668190D01*
X111346655Y-114300000D01*
X111472330Y-114931810D01*
X111830222Y-115467433D01*
X111983724Y-115570000D01*
X111830222Y-115672567D01*
X111472330Y-116208190D01*
X111346655Y-116840000D01*
X111472330Y-117471810D01*
X111830222Y-118007433D01*
X111983724Y-118110000D01*
X111830222Y-118212567D01*
X111472330Y-118748190D01*
X111346655Y-119380000D01*
X111472330Y-120011810D01*
X111830222Y-120547433D01*
X111983724Y-120650000D01*
X111830222Y-120752567D01*
X111472330Y-121288190D01*
X111346655Y-121920000D01*
X111472330Y-122551810D01*
X111830222Y-123087433D01*
X111983724Y-123190000D01*
X111830222Y-123292567D01*
X111472330Y-123828190D01*
X111346655Y-124460000D01*
X111472330Y-125091810D01*
X111830222Y-125627433D01*
X111983724Y-125730000D01*
X111830222Y-125832567D01*
X111472330Y-126368190D01*
X111346655Y-127000000D01*
X111472330Y-127631810D01*
X111830222Y-128167433D01*
X111993354Y-128276435D01*
X111623615Y-128675182D01*
X111424025Y-129157056D01*
X111543164Y-129413000D01*
X112903000Y-129413000D01*
X112903000Y-129393000D01*
X113157000Y-129393000D01*
X113157000Y-129413000D01*
X114516836Y-129413000D01*
X114635975Y-129157056D01*
X114436385Y-128675182D01*
X114066646Y-128276435D01*
X114229778Y-128167433D01*
X114587670Y-127631810D01*
X114713345Y-127000000D01*
X114587670Y-126368190D01*
X114229778Y-125832567D01*
X114076276Y-125730000D01*
X114229778Y-125627433D01*
X114587670Y-125091810D01*
X114713345Y-124460000D01*
X114587670Y-123828190D01*
X114229778Y-123292567D01*
X114076276Y-123190000D01*
X114229778Y-123087433D01*
X114587670Y-122551810D01*
X114713345Y-121920000D01*
X114587670Y-121288190D01*
X114229778Y-120752567D01*
X114076276Y-120650000D01*
X114229778Y-120547433D01*
X114587670Y-120011810D01*
X114713345Y-119380000D01*
X114587670Y-118748190D01*
X114229778Y-118212567D01*
X114076276Y-118110000D01*
X114229778Y-118007433D01*
X114587670Y-117471810D01*
X114713345Y-116840000D01*
X114587670Y-116208190D01*
X114229778Y-115672567D01*
X114076276Y-115570000D01*
X114229778Y-115467433D01*
X114587670Y-114931810D01*
X114713345Y-114300000D01*
X114587670Y-113668190D01*
X114229778Y-113132567D01*
X114076276Y-113030000D01*
X114229778Y-112927433D01*
X114587670Y-112391810D01*
X114713345Y-111760000D01*
X114587670Y-111128190D01*
X114229778Y-110592567D01*
X114076276Y-110490000D01*
X114229778Y-110387433D01*
X114587670Y-109851810D01*
X114713345Y-109220000D01*
X114587670Y-108588190D01*
X114229778Y-108052567D01*
X114076276Y-107950000D01*
X114229778Y-107847433D01*
X114587670Y-107311810D01*
X114713345Y-106680000D01*
X114587670Y-106048190D01*
X114229778Y-105512567D01*
X113694155Y-105154675D01*
X113062345Y-105029000D01*
X112997655Y-105029000D01*
X112365845Y-105154675D01*
X111830222Y-105512567D01*
X111472330Y-106048190D01*
X111346655Y-106680000D01*
X104900000Y-106680000D01*
X104900000Y-100644802D01*
X116107401Y-89437401D01*
X116272148Y-89190839D01*
X116330000Y-88900000D01*
X116330000Y-60252463D01*
X116362192Y-60220327D01*
X116504838Y-59876799D01*
X116505162Y-59504833D01*
X116363117Y-59161057D01*
X116330000Y-59127882D01*
X116330000Y-34290000D01*
X116272148Y-33999161D01*
X116272148Y-33999160D01*
X116107401Y-33752599D01*
X108487401Y-26132599D01*
X108240839Y-25967852D01*
X107950000Y-25910000D01*
X93128947Y-25910000D01*
X93132153Y-25906800D01*
X105333800Y-25906800D01*
X105605505Y-25852754D01*
X105835846Y-25698846D01*
X105989754Y-25468505D01*
X106043800Y-25196800D01*
X106043800Y-14808200D01*
X105989754Y-14536495D01*
X105835846Y-14306154D01*
X105605505Y-14152246D01*
X105333800Y-14098200D01*
X93136613Y-14098200D01*
X92785564Y-13746539D01*
X92276702Y-13535241D01*
X91725715Y-13534760D01*
X91216485Y-13745169D01*
X90826539Y-14134436D01*
X90615241Y-14643298D01*
X90614938Y-14990260D01*
X89632599Y-15972599D01*
X89467852Y-16219161D01*
X89410000Y-16510000D01*
X89410000Y-18170000D01*
X89467852Y-18460839D01*
X89632599Y-18707401D01*
X90624998Y-19699800D01*
X90615241Y-19723298D01*
X90614760Y-20274285D01*
X90777954Y-20669244D01*
X88616599Y-22830599D01*
X88451852Y-23077161D01*
X88394000Y-23368000D01*
X88394000Y-28194000D01*
X88451852Y-28484839D01*
X88616599Y-28731401D01*
X90648599Y-30763401D01*
X90895161Y-30928148D01*
X91186000Y-30986000D01*
X100783537Y-30986000D01*
X100815673Y-31018192D01*
X101159201Y-31160838D01*
X101531167Y-31161162D01*
X101874943Y-31019117D01*
X102138192Y-30756327D01*
X102280838Y-30412799D01*
X102281162Y-30040833D01*
X102251894Y-29970000D01*
X107635198Y-29970000D01*
X112270000Y-34604802D01*
X112270000Y-34995198D01*
X111027401Y-33752599D01*
X110780839Y-33587852D01*
X110490000Y-33530000D01*
X105724802Y-33530000D01*
X104900000Y-32705198D01*
X104900000Y-32312463D01*
X104932192Y-32280327D01*
X105074838Y-31936799D01*
X105075162Y-31564833D01*
X104933117Y-31221057D01*
X104670327Y-30957808D01*
X104326799Y-30815162D01*
X103954833Y-30814838D01*
X103611057Y-30956883D01*
X103347808Y-31219673D01*
X103205162Y-31563201D01*
X103204838Y-31935167D01*
X103346883Y-32278943D01*
X103380000Y-32312118D01*
X103380000Y-33020000D01*
X103437852Y-33310839D01*
X103602599Y-33557401D01*
X104872599Y-34827401D01*
X105119160Y-34992148D01*
X105410000Y-35050000D01*
X110175198Y-35050000D01*
X111000000Y-35874802D01*
X111000000Y-60159367D01*
X110676799Y-60025162D01*
X110304833Y-60024838D01*
X109980000Y-60159056D01*
X109980000Y-56950463D01*
X110012192Y-56918327D01*
X110154838Y-56574799D01*
X110155162Y-56202833D01*
X110013117Y-55859057D01*
X109750327Y-55595808D01*
X109406799Y-55453162D01*
X109034833Y-55452838D01*
X108710000Y-55587056D01*
X108710000Y-43434000D01*
X108652148Y-43143161D01*
X108487401Y-42896599D01*
X107453401Y-41862599D01*
X107206839Y-41697852D01*
X106916000Y-41640000D01*
X106264547Y-41640000D01*
X106254831Y-41616485D01*
X105865564Y-41226539D01*
X105356702Y-41015241D01*
X104805715Y-41014760D01*
X104296485Y-41225169D01*
X103906539Y-41614436D01*
X103810024Y-41846870D01*
X103714831Y-41616485D01*
X103325564Y-41226539D01*
X102816702Y-41015241D01*
X102265715Y-41014760D01*
X101756485Y-41225169D01*
X101366539Y-41614436D01*
X101270024Y-41846870D01*
X101174831Y-41616485D01*
X100785564Y-41226539D01*
X100276702Y-41015241D01*
X99725715Y-41014760D01*
X99216485Y-41225169D01*
X98826539Y-41614436D01*
X98730024Y-41846870D01*
X98634831Y-41616485D01*
X98245564Y-41226539D01*
X97736702Y-41015241D01*
X97185715Y-41014760D01*
X96676485Y-41225169D01*
X96286539Y-41614436D01*
X96190024Y-41846870D01*
X96094831Y-41616485D01*
X95705564Y-41226539D01*
X95196702Y-41015241D01*
X94645715Y-41014760D01*
X94136485Y-41225169D01*
X93746539Y-41614436D01*
X93735924Y-41640000D01*
X93236000Y-41640000D01*
X92945161Y-41697852D01*
X92698599Y-41862599D01*
X91410599Y-43150599D01*
X91245852Y-43397161D01*
X91188000Y-43688000D01*
X91188000Y-55571537D01*
X91155808Y-55603673D01*
X91013162Y-55947201D01*
X91012838Y-56319167D01*
X91154883Y-56662943D01*
X91417673Y-56926192D01*
X91761201Y-57068838D01*
X92133167Y-57069162D01*
X92476943Y-56927117D01*
X92740192Y-56664327D01*
X92882838Y-56320799D01*
X92883162Y-55948833D01*
X92741117Y-55605057D01*
X92708000Y-55571882D01*
X92708000Y-55493928D01*
X92741354Y-55543846D01*
X92971695Y-55697754D01*
X93243400Y-55751800D01*
X93522560Y-55751800D01*
X93522560Y-56850000D01*
X93566838Y-57085317D01*
X93705910Y-57301441D01*
X93918110Y-57446431D01*
X94170000Y-57497440D01*
X95670000Y-57497440D01*
X95905317Y-57453162D01*
X96121441Y-57314090D01*
X96266431Y-57101890D01*
X96306355Y-56904738D01*
X96674436Y-57273461D01*
X97183298Y-57484759D01*
X97734285Y-57485240D01*
X98243515Y-57274831D01*
X98633461Y-56885564D01*
X98729976Y-56653130D01*
X98825169Y-56883515D01*
X98919344Y-56977854D01*
X98237198Y-57660000D01*
X92510463Y-57660000D01*
X92478327Y-57627808D01*
X92134799Y-57485162D01*
X91762833Y-57484838D01*
X91419057Y-57626883D01*
X91155808Y-57889673D01*
X91013162Y-58233201D01*
X91012838Y-58605167D01*
X91042106Y-58676000D01*
X85652463Y-58676000D01*
X85620327Y-58643808D01*
X85276799Y-58501162D01*
X84904833Y-58500838D01*
X84561057Y-58642883D01*
X84297808Y-58905673D01*
X84210000Y-59117137D01*
X84210000Y-37733352D01*
X85030653Y-38555438D01*
X86549889Y-39186280D01*
X88194894Y-39187716D01*
X89715229Y-38559526D01*
X90879438Y-37397347D01*
X91510280Y-35878111D01*
X91511716Y-34233106D01*
X90883526Y-32712771D01*
X89721347Y-31548562D01*
X88202111Y-30917720D01*
X86557106Y-30916284D01*
X85036771Y-31544474D01*
X84210000Y-32369803D01*
X84210000Y-12082682D01*
X85360589Y-11853816D01*
X85466603Y-11809903D01*
X85616530Y-11747802D01*
X87076435Y-10772325D01*
X87085757Y-10763003D01*
X87272325Y-10576436D01*
X88247801Y-9116530D01*
X88353816Y-8860589D01*
X88582682Y-7710000D01*
X115474729Y-7710000D01*
X114606562Y-8576653D01*
X114606562Y-8576653D01*
G37*
X114606562Y-8576653D02*
X113975720Y-10095889D01*
X113974284Y-11740894D01*
X114602474Y-13261229D01*
X115764653Y-14425438D01*
X117283889Y-15056280D01*
X118928894Y-15057716D01*
X120449229Y-14429526D01*
X121290000Y-13590221D01*
X121290000Y-108537673D01*
X121180327Y-108427808D01*
X120836799Y-108285162D01*
X120464833Y-108284838D01*
X120121057Y-108426883D01*
X119857808Y-108689673D01*
X119715162Y-109033201D01*
X119714838Y-109405167D01*
X119820310Y-109660430D01*
X119566799Y-109555162D01*
X119194833Y-109554838D01*
X118851057Y-109696883D01*
X118587808Y-109959673D01*
X118445162Y-110303201D01*
X118444838Y-110675167D01*
X118586883Y-111018943D01*
X118620000Y-111052118D01*
X118620000Y-112229367D01*
X118296799Y-112095162D01*
X117924833Y-112094838D01*
X117581057Y-112236883D01*
X117317808Y-112499673D01*
X117175162Y-112843201D01*
X117174838Y-113215167D01*
X117316883Y-113558943D01*
X117350000Y-113592118D01*
X117350000Y-114769367D01*
X117026799Y-114635162D01*
X116654833Y-114634838D01*
X116311057Y-114776883D01*
X116047808Y-115039673D01*
X115905162Y-115383201D01*
X115904838Y-115755167D01*
X116046883Y-116098943D01*
X116080000Y-116132118D01*
X116080000Y-164785198D01*
X111250000Y-169615198D01*
X111250000Y-160020000D01*
X111192148Y-159729161D01*
X111192148Y-159729160D01*
X111027401Y-159482599D01*
X108710000Y-157165198D01*
X108710000Y-129922944D01*
X111424025Y-129922944D01*
X111623615Y-130404818D01*
X112061621Y-130877188D01*
X112647054Y-131145983D01*
X112903000Y-131027367D01*
X112903000Y-129667000D01*
X113157000Y-129667000D01*
X113157000Y-131027367D01*
X113412946Y-131145983D01*
X113998379Y-130877188D01*
X114436385Y-130404818D01*
X114635975Y-129922944D01*
X114516836Y-129667000D01*
X113157000Y-129667000D01*
X112903000Y-129667000D01*
X111543164Y-129667000D01*
X111424025Y-129922944D01*
X108710000Y-129922944D01*
X108710000Y-119942463D01*
X108742192Y-119910327D01*
X108884838Y-119566799D01*
X108885162Y-119194833D01*
X108743117Y-118851057D01*
X108480327Y-118587808D01*
X108136799Y-118445162D01*
X107764833Y-118444838D01*
X107421057Y-118586883D01*
X107315046Y-118692710D01*
X107210327Y-118587808D01*
X106866799Y-118445162D01*
X106494833Y-118444838D01*
X106151057Y-118586883D01*
X105887808Y-118849673D01*
X105745162Y-119193201D01*
X105744838Y-119565167D01*
X105886883Y-119908943D01*
X105920000Y-119942118D01*
X105920000Y-158435198D01*
X96922599Y-167432599D01*
X96757852Y-167679161D01*
X96700000Y-167970000D01*
X96700000Y-172468000D01*
X93218000Y-172468000D01*
X92975414Y-172516254D01*
X92927160Y-172525852D01*
X92680599Y-172690599D01*
X91554320Y-173816878D01*
X91508833Y-173816838D01*
X91165057Y-173958883D01*
X90901808Y-174221673D01*
X90759162Y-174565201D01*
X90758838Y-174937167D01*
X90900883Y-175280943D01*
X91163673Y-175544192D01*
X91507201Y-175686838D01*
X91879167Y-175687162D01*
X92222943Y-175545117D01*
X92486192Y-175282327D01*
X92628838Y-174938799D01*
X92628879Y-174891923D01*
X93532802Y-173988000D01*
X96700000Y-173988000D01*
X96700000Y-174465453D01*
X96676485Y-174475169D01*
X96286539Y-174864436D01*
X96190024Y-175096870D01*
X96094831Y-174866485D01*
X95705564Y-174476539D01*
X95196702Y-174265241D01*
X94645715Y-174264760D01*
X94136485Y-174475169D01*
X93746539Y-174864436D01*
X93535241Y-175373298D01*
X93534760Y-175924285D01*
X93565136Y-175997800D01*
X93243400Y-175997800D01*
X92971695Y-176051846D01*
X92741354Y-176205754D01*
X92587446Y-176436095D01*
X92533400Y-176707800D01*
X92533400Y-188290200D01*
X92587446Y-188561905D01*
X92741354Y-188792246D01*
X92971695Y-188946154D01*
X93243400Y-189000200D01*
X93522560Y-189000200D01*
X93522560Y-190100000D01*
X93566838Y-190335317D01*
X93705910Y-190551441D01*
X93918110Y-190696431D01*
X94170000Y-190747440D01*
X95670000Y-190747440D01*
X95905317Y-190703162D01*
X96121441Y-190564090D01*
X96266431Y-190351890D01*
X96306355Y-190154738D01*
X96674436Y-190523461D01*
X97183298Y-190734759D01*
X97712419Y-190735221D01*
X99030599Y-192053401D01*
X99277160Y-192218148D01*
X99568000Y-192276000D01*
X106934000Y-192276000D01*
X107224839Y-192218148D01*
X107471401Y-192053401D01*
X109503401Y-190021401D01*
X109668148Y-189774839D01*
X109726000Y-189484000D01*
X109726000Y-183533547D01*
X109730000Y-183531894D01*
X109730000Y-184150000D01*
X109787852Y-184440839D01*
X109952599Y-184687401D01*
X119067619Y-193802421D01*
X118966655Y-194310000D01*
X119080729Y-194883489D01*
X119405585Y-195369670D01*
X119427780Y-195384500D01*
X119274302Y-195448073D01*
X119095673Y-195626701D01*
X118999000Y-195860090D01*
X118999000Y-196564250D01*
X119157750Y-196723000D01*
X120523000Y-196723000D01*
X120523000Y-196703000D01*
X120777000Y-196703000D01*
X120777000Y-196723000D01*
X120797000Y-196723000D01*
X120797000Y-196977000D01*
X120777000Y-196977000D01*
X120777000Y-196997000D01*
X120523000Y-196997000D01*
X120523000Y-196977000D01*
X119157750Y-196977000D01*
X118999000Y-197135750D01*
X118999000Y-197290000D01*
X88582682Y-197290000D01*
X88353816Y-196139411D01*
X88247801Y-195883470D01*
X87272325Y-194423564D01*
X87076436Y-194227676D01*
X87076435Y-194227675D01*
X85616530Y-193252198D01*
X85466603Y-193190097D01*
X85360589Y-193146184D01*
X84210000Y-192917318D01*
X84210000Y-183529352D01*
X85030653Y-184351438D01*
X86549889Y-184982280D01*
X88194894Y-184983716D01*
X88752332Y-184753387D01*
X88615808Y-184889673D01*
X88473162Y-185233201D01*
X88472838Y-185605167D01*
X88614883Y-185948943D01*
X88877673Y-186212192D01*
X89221201Y-186354838D01*
X89593167Y-186355162D01*
X89936943Y-186213117D01*
X90200192Y-185950327D01*
X90342838Y-185606799D01*
X90343162Y-185234833D01*
X90201117Y-184891057D01*
X89938327Y-184627808D01*
X89594799Y-184485162D01*
X89401893Y-184484994D01*
X89715229Y-184355526D01*
X90879438Y-183193347D01*
X91510280Y-181674111D01*
X91511716Y-180029106D01*
X90883526Y-178508771D01*
X89721347Y-177344562D01*
X88202111Y-176713720D01*
X86557106Y-176712284D01*
X85036771Y-177340474D01*
X84210000Y-178165803D01*
X84210000Y-162999167D01*
X95076838Y-162999167D01*
X95218883Y-163342943D01*
X95481673Y-163606192D01*
X95825201Y-163748838D01*
X96197167Y-163749162D01*
X96540943Y-163607117D01*
X96804192Y-163344327D01*
X96946838Y-163000799D01*
X96946879Y-162953923D01*
X98945901Y-160954901D01*
X99245167Y-160955162D01*
X99588943Y-160813117D01*
X99852192Y-160550327D01*
X99994838Y-160206799D01*
X99995162Y-159834833D01*
X99853117Y-159491057D01*
X99590327Y-159227808D01*
X99246799Y-159085162D01*
X98874833Y-159084838D01*
X98531057Y-159226883D01*
X98287638Y-159469878D01*
X98268599Y-159482599D01*
X95872320Y-161878878D01*
X95826833Y-161878838D01*
X95483057Y-162020883D01*
X95219808Y-162283673D01*
X95077162Y-162627201D01*
X95076838Y-162999167D01*
X84210000Y-162999167D01*
X84210000Y-157665167D01*
X90250838Y-157665167D01*
X90392883Y-158008943D01*
X90655673Y-158272192D01*
X90999201Y-158414838D01*
X91371167Y-158415162D01*
X91714943Y-158273117D01*
X91978192Y-158010327D01*
X92120838Y-157666799D01*
X92120879Y-157619923D01*
X100723680Y-149017122D01*
X100769167Y-149017162D01*
X101112943Y-148875117D01*
X101376192Y-148612327D01*
X101518838Y-148268799D01*
X101519162Y-147896833D01*
X101377117Y-147553057D01*
X101114327Y-147289808D01*
X100770799Y-147147162D01*
X100398833Y-147146838D01*
X100055057Y-147288883D01*
X99791808Y-147551673D01*
X99649162Y-147895201D01*
X99649121Y-147942077D01*
X91046320Y-156544878D01*
X91000833Y-156544838D01*
X90657057Y-156686883D01*
X90393808Y-156949673D01*
X90251162Y-157293201D01*
X90250838Y-157665167D01*
X84210000Y-157665167D01*
X84210000Y-150178670D01*
X84296883Y-150388943D01*
X84559673Y-150652192D01*
X84903201Y-150794838D01*
X85275167Y-150795162D01*
X85618943Y-150653117D01*
X85724954Y-150547290D01*
X85829673Y-150652192D01*
X86173201Y-150794838D01*
X86545167Y-150795162D01*
X86888943Y-150653117D01*
X86994954Y-150547290D01*
X87099673Y-150652192D01*
X87443201Y-150794838D01*
X87815167Y-150795162D01*
X88158943Y-150653117D01*
X88422192Y-150390327D01*
X88564838Y-150046799D01*
X88565162Y-149674833D01*
X88423117Y-149331057D01*
X88390000Y-149297882D01*
X88390000Y-145344802D01*
X90902599Y-147857401D01*
X91149160Y-148022148D01*
X91197414Y-148031746D01*
X91440000Y-148080000D01*
X97227537Y-148080000D01*
X97259673Y-148112192D01*
X97603201Y-148254838D01*
X97975167Y-148255162D01*
X98318943Y-148113117D01*
X98582192Y-147850327D01*
X98724838Y-147506799D01*
X98725162Y-147134833D01*
X98583117Y-146791057D01*
X98320327Y-146527808D01*
X97976799Y-146385162D01*
X97604833Y-146384838D01*
X97261057Y-146526883D01*
X97227882Y-146560000D01*
X91754802Y-146560000D01*
X91624084Y-146429282D01*
X91694000Y-146443440D01*
X93726000Y-146443440D01*
X93961317Y-146399162D01*
X94177441Y-146260090D01*
X94322431Y-146047890D01*
X94373440Y-145796000D01*
X94373440Y-143764000D01*
X94329162Y-143528683D01*
X94190090Y-143312559D01*
X94041163Y-143210802D01*
X94267670Y-142871810D01*
X94393345Y-142240000D01*
X94267670Y-141608190D01*
X93909778Y-141072567D01*
X93756276Y-140970000D01*
X93909778Y-140867433D01*
X94267670Y-140331810D01*
X94393345Y-139700000D01*
X94267670Y-139068190D01*
X93909778Y-138532567D01*
X93756276Y-138430000D01*
X93909778Y-138327433D01*
X94181022Y-137921488D01*
X94211673Y-137952192D01*
X94555201Y-138094838D01*
X94927167Y-138095162D01*
X95270943Y-137953117D01*
X95304118Y-137920000D01*
X96465537Y-137920000D01*
X96497673Y-137952192D01*
X96841201Y-138094838D01*
X97213167Y-138095162D01*
X97556943Y-137953117D01*
X97820192Y-137690327D01*
X97962838Y-137346799D01*
X97963162Y-136974833D01*
X97821117Y-136631057D01*
X97558327Y-136367808D01*
X97214799Y-136225162D01*
X96842833Y-136224838D01*
X96499057Y-136366883D01*
X96465882Y-136400000D01*
X95304463Y-136400000D01*
X95272327Y-136367808D01*
X94928799Y-136225162D01*
X94556833Y-136224838D01*
X94213057Y-136366883D01*
X94181162Y-136398722D01*
X93909778Y-135992567D01*
X93756276Y-135890000D01*
X93909778Y-135787433D01*
X94212982Y-135333657D01*
X94270839Y-135322148D01*
X94517401Y-135157401D01*
X100587341Y-129087461D01*
X100815673Y-129316192D01*
X101159201Y-129458838D01*
X101531167Y-129459162D01*
X101874943Y-129317117D01*
X102138192Y-129054327D01*
X102280838Y-128710799D01*
X102280879Y-128663923D01*
X103263680Y-127681122D01*
X103309167Y-127681162D01*
X103652943Y-127539117D01*
X103916192Y-127276327D01*
X104058838Y-126932799D01*
X104059162Y-126560833D01*
X103917117Y-126217057D01*
X103687631Y-125987171D01*
X104677401Y-124997401D01*
X104842148Y-124750839D01*
X104900000Y-124460000D01*
X104900000Y-106680000D01*
X111346655Y-106680000D01*
X111472330Y-107311810D01*
X111830222Y-107847433D01*
X111983724Y-107950000D01*
X111830222Y-108052567D01*
X111472330Y-108588190D01*
X111346655Y-109220000D01*
X111472330Y-109851810D01*
X111830222Y-110387433D01*
X111983724Y-110490000D01*
X111830222Y-110592567D01*
X111472330Y-111128190D01*
X111346655Y-111760000D01*
X111472330Y-112391810D01*
X111830222Y-112927433D01*
X111983724Y-113030000D01*
X111830222Y-113132567D01*
X111472330Y-113668190D01*
X111346655Y-114300000D01*
X111472330Y-114931810D01*
X111830222Y-115467433D01*
X111983724Y-115570000D01*
X111830222Y-115672567D01*
X111472330Y-116208190D01*
X111346655Y-116840000D01*
X111472330Y-117471810D01*
X111830222Y-118007433D01*
X111983724Y-118110000D01*
X111830222Y-118212567D01*
X111472330Y-118748190D01*
X111346655Y-119380000D01*
X111472330Y-120011810D01*
X111830222Y-120547433D01*
X111983724Y-120650000D01*
X111830222Y-120752567D01*
X111472330Y-121288190D01*
X111346655Y-121920000D01*
X111472330Y-122551810D01*
X111830222Y-123087433D01*
X111983724Y-123190000D01*
X111830222Y-123292567D01*
X111472330Y-123828190D01*
X111346655Y-124460000D01*
X111472330Y-125091810D01*
X111830222Y-125627433D01*
X111983724Y-125730000D01*
X111830222Y-125832567D01*
X111472330Y-126368190D01*
X111346655Y-127000000D01*
X111472330Y-127631810D01*
X111830222Y-128167433D01*
X111993354Y-128276435D01*
X111623615Y-128675182D01*
X111424025Y-129157056D01*
X111543164Y-129413000D01*
X112903000Y-129413000D01*
X112903000Y-129393000D01*
X113157000Y-129393000D01*
X113157000Y-129413000D01*
X114516836Y-129413000D01*
X114635975Y-129157056D01*
X114436385Y-128675182D01*
X114066646Y-128276435D01*
X114229778Y-128167433D01*
X114587670Y-127631810D01*
X114713345Y-127000000D01*
X114587670Y-126368190D01*
X114229778Y-125832567D01*
X114076276Y-125730000D01*
X114229778Y-125627433D01*
X114587670Y-125091810D01*
X114713345Y-124460000D01*
X114587670Y-123828190D01*
X114229778Y-123292567D01*
X114076276Y-123190000D01*
X114229778Y-123087433D01*
X114587670Y-122551810D01*
X114713345Y-121920000D01*
X114587670Y-121288190D01*
X114229778Y-120752567D01*
X114076276Y-120650000D01*
X114229778Y-120547433D01*
X114587670Y-120011810D01*
X114713345Y-119380000D01*
X114587670Y-118748190D01*
X114229778Y-118212567D01*
X114076276Y-118110000D01*
X114229778Y-118007433D01*
X114587670Y-117471810D01*
X114713345Y-116840000D01*
X114587670Y-116208190D01*
X114229778Y-115672567D01*
X114076276Y-115570000D01*
X114229778Y-115467433D01*
X114587670Y-114931810D01*
X114713345Y-114300000D01*
X114587670Y-113668190D01*
X114229778Y-113132567D01*
X114076276Y-113030000D01*
X114229778Y-112927433D01*
X114587670Y-112391810D01*
X114713345Y-111760000D01*
X114587670Y-111128190D01*
X114229778Y-110592567D01*
X114076276Y-110490000D01*
X114229778Y-110387433D01*
X114587670Y-109851810D01*
X114713345Y-109220000D01*
X114587670Y-108588190D01*
X114229778Y-108052567D01*
X114076276Y-107950000D01*
X114229778Y-107847433D01*
X114587670Y-107311810D01*
X114713345Y-106680000D01*
X114587670Y-106048190D01*
X114229778Y-105512567D01*
X113694155Y-105154675D01*
X113062345Y-105029000D01*
X112997655Y-105029000D01*
X112365845Y-105154675D01*
X111830222Y-105512567D01*
X111472330Y-106048190D01*
X111346655Y-106680000D01*
X104900000Y-106680000D01*
X104900000Y-100644802D01*
X116107401Y-89437401D01*
X116272148Y-89190839D01*
X116330000Y-88900000D01*
X116330000Y-60252463D01*
X116362192Y-60220327D01*
X116504838Y-59876799D01*
X116505162Y-59504833D01*
X116363117Y-59161057D01*
X116330000Y-59127882D01*
X116330000Y-34290000D01*
X116272148Y-33999161D01*
X116272148Y-33999160D01*
X116107401Y-33752599D01*
X108487401Y-26132599D01*
X108240839Y-25967852D01*
X107950000Y-25910000D01*
X93128947Y-25910000D01*
X93132153Y-25906800D01*
X105333800Y-25906800D01*
X105605505Y-25852754D01*
X105835846Y-25698846D01*
X105989754Y-25468505D01*
X106043800Y-25196800D01*
X106043800Y-14808200D01*
X105989754Y-14536495D01*
X105835846Y-14306154D01*
X105605505Y-14152246D01*
X105333800Y-14098200D01*
X93136613Y-14098200D01*
X92785564Y-13746539D01*
X92276702Y-13535241D01*
X91725715Y-13534760D01*
X91216485Y-13745169D01*
X90826539Y-14134436D01*
X90615241Y-14643298D01*
X90614938Y-14990260D01*
X89632599Y-15972599D01*
X89467852Y-16219161D01*
X89410000Y-16510000D01*
X89410000Y-18170000D01*
X89467852Y-18460839D01*
X89632599Y-18707401D01*
X90624998Y-19699800D01*
X90615241Y-19723298D01*
X90614760Y-20274285D01*
X90777954Y-20669244D01*
X88616599Y-22830599D01*
X88451852Y-23077161D01*
X88394000Y-23368000D01*
X88394000Y-28194000D01*
X88451852Y-28484839D01*
X88616599Y-28731401D01*
X90648599Y-30763401D01*
X90895161Y-30928148D01*
X91186000Y-30986000D01*
X100783537Y-30986000D01*
X100815673Y-31018192D01*
X101159201Y-31160838D01*
X101531167Y-31161162D01*
X101874943Y-31019117D01*
X102138192Y-30756327D01*
X102280838Y-30412799D01*
X102281162Y-30040833D01*
X102251894Y-29970000D01*
X107635198Y-29970000D01*
X112270000Y-34604802D01*
X112270000Y-34995198D01*
X111027401Y-33752599D01*
X110780839Y-33587852D01*
X110490000Y-33530000D01*
X105724802Y-33530000D01*
X104900000Y-32705198D01*
X104900000Y-32312463D01*
X104932192Y-32280327D01*
X105074838Y-31936799D01*
X105075162Y-31564833D01*
X104933117Y-31221057D01*
X104670327Y-30957808D01*
X104326799Y-30815162D01*
X103954833Y-30814838D01*
X103611057Y-30956883D01*
X103347808Y-31219673D01*
X103205162Y-31563201D01*
X103204838Y-31935167D01*
X103346883Y-32278943D01*
X103380000Y-32312118D01*
X103380000Y-33020000D01*
X103437852Y-33310839D01*
X103602599Y-33557401D01*
X104872599Y-34827401D01*
X105119160Y-34992148D01*
X105410000Y-35050000D01*
X110175198Y-35050000D01*
X111000000Y-35874802D01*
X111000000Y-60159367D01*
X110676799Y-60025162D01*
X110304833Y-60024838D01*
X109980000Y-60159056D01*
X109980000Y-56950463D01*
X110012192Y-56918327D01*
X110154838Y-56574799D01*
X110155162Y-56202833D01*
X110013117Y-55859057D01*
X109750327Y-55595808D01*
X109406799Y-55453162D01*
X109034833Y-55452838D01*
X108710000Y-55587056D01*
X108710000Y-43434000D01*
X108652148Y-43143161D01*
X108487401Y-42896599D01*
X107453401Y-41862599D01*
X107206839Y-41697852D01*
X106916000Y-41640000D01*
X106264547Y-41640000D01*
X106254831Y-41616485D01*
X105865564Y-41226539D01*
X105356702Y-41015241D01*
X104805715Y-41014760D01*
X104296485Y-41225169D01*
X103906539Y-41614436D01*
X103810024Y-41846870D01*
X103714831Y-41616485D01*
X103325564Y-41226539D01*
X102816702Y-41015241D01*
X102265715Y-41014760D01*
X101756485Y-41225169D01*
X101366539Y-41614436D01*
X101270024Y-41846870D01*
X101174831Y-41616485D01*
X100785564Y-41226539D01*
X100276702Y-41015241D01*
X99725715Y-41014760D01*
X99216485Y-41225169D01*
X98826539Y-41614436D01*
X98730024Y-41846870D01*
X98634831Y-41616485D01*
X98245564Y-41226539D01*
X97736702Y-41015241D01*
X97185715Y-41014760D01*
X96676485Y-41225169D01*
X96286539Y-41614436D01*
X96190024Y-41846870D01*
X96094831Y-41616485D01*
X95705564Y-41226539D01*
X95196702Y-41015241D01*
X94645715Y-41014760D01*
X94136485Y-41225169D01*
X93746539Y-41614436D01*
X93735924Y-41640000D01*
X93236000Y-41640000D01*
X92945161Y-41697852D01*
X92698599Y-41862599D01*
X91410599Y-43150599D01*
X91245852Y-43397161D01*
X91188000Y-43688000D01*
X91188000Y-55571537D01*
X91155808Y-55603673D01*
X91013162Y-55947201D01*
X91012838Y-56319167D01*
X91154883Y-56662943D01*
X91417673Y-56926192D01*
X91761201Y-57068838D01*
X92133167Y-57069162D01*
X92476943Y-56927117D01*
X92740192Y-56664327D01*
X92882838Y-56320799D01*
X92883162Y-55948833D01*
X92741117Y-55605057D01*
X92708000Y-55571882D01*
X92708000Y-55493928D01*
X92741354Y-55543846D01*
X92971695Y-55697754D01*
X93243400Y-55751800D01*
X93522560Y-55751800D01*
X93522560Y-56850000D01*
X93566838Y-57085317D01*
X93705910Y-57301441D01*
X93918110Y-57446431D01*
X94170000Y-57497440D01*
X95670000Y-57497440D01*
X95905317Y-57453162D01*
X96121441Y-57314090D01*
X96266431Y-57101890D01*
X96306355Y-56904738D01*
X96674436Y-57273461D01*
X97183298Y-57484759D01*
X97734285Y-57485240D01*
X98243515Y-57274831D01*
X98633461Y-56885564D01*
X98729976Y-56653130D01*
X98825169Y-56883515D01*
X98919344Y-56977854D01*
X98237198Y-57660000D01*
X92510463Y-57660000D01*
X92478327Y-57627808D01*
X92134799Y-57485162D01*
X91762833Y-57484838D01*
X91419057Y-57626883D01*
X91155808Y-57889673D01*
X91013162Y-58233201D01*
X91012838Y-58605167D01*
X91042106Y-58676000D01*
X85652463Y-58676000D01*
X85620327Y-58643808D01*
X85276799Y-58501162D01*
X84904833Y-58500838D01*
X84561057Y-58642883D01*
X84297808Y-58905673D01*
X84210000Y-59117137D01*
X84210000Y-37733352D01*
X85030653Y-38555438D01*
X86549889Y-39186280D01*
X88194894Y-39187716D01*
X89715229Y-38559526D01*
X90879438Y-37397347D01*
X91510280Y-35878111D01*
X91511716Y-34233106D01*
X90883526Y-32712771D01*
X89721347Y-31548562D01*
X88202111Y-30917720D01*
X86557106Y-30916284D01*
X85036771Y-31544474D01*
X84210000Y-32369803D01*
X84210000Y-12082682D01*
X85360589Y-11853816D01*
X85466603Y-11809903D01*
X85616530Y-11747802D01*
X87076435Y-10772325D01*
X87085757Y-10763003D01*
X87272325Y-10576436D01*
X88247801Y-9116530D01*
X88353816Y-8860589D01*
X88582682Y-7710000D01*
X115474729Y-7710000D01*
X114606562Y-8576653D01*
G36*
X107190000Y-70065367D02*
X106866799Y-69931162D01*
X106494833Y-69930838D01*
X106151057Y-70072883D01*
X105887808Y-70335673D01*
X105745162Y-70679201D01*
X105744838Y-71051167D01*
X105886883Y-71394943D01*
X105920000Y-71428118D01*
X105920000Y-77678100D01*
X105835846Y-77552154D01*
X105605505Y-77398246D01*
X105333800Y-77344200D01*
X93132620Y-77344200D01*
X92785564Y-76996539D01*
X92760000Y-76985924D01*
X92760000Y-62712624D01*
X92882838Y-62416799D01*
X92883162Y-62044833D01*
X92741117Y-61701057D01*
X92478327Y-61437808D01*
X92134799Y-61295162D01*
X91762833Y-61294838D01*
X91419057Y-61436883D01*
X91155808Y-61699673D01*
X91013162Y-62043201D01*
X91012838Y-62415167D01*
X91154883Y-62758943D01*
X91240000Y-62844209D01*
X91240000Y-76985453D01*
X91216485Y-76995169D01*
X90826539Y-77384436D01*
X90615241Y-77893298D01*
X90614942Y-78236256D01*
X89632599Y-79218599D01*
X89467852Y-79465161D01*
X89410000Y-79756000D01*
X89410000Y-81420000D01*
X89467852Y-81710839D01*
X89632599Y-81957401D01*
X90624998Y-82949800D01*
X90615241Y-82973298D01*
X90614942Y-83316256D01*
X89378599Y-84552599D01*
X89213852Y-84799161D01*
X89156000Y-85090000D01*
X89156000Y-88392000D01*
X89213852Y-88682839D01*
X89378599Y-88929401D01*
X92172599Y-91723401D01*
X92419161Y-91888148D01*
X92710000Y-91946000D01*
X92909537Y-91946000D01*
X92941673Y-91978192D01*
X93285201Y-92120838D01*
X93657167Y-92121162D01*
X94000943Y-91979117D01*
X94264192Y-91716327D01*
X94406838Y-91372799D01*
X94407162Y-91000833D01*
X94265117Y-90657057D01*
X94002327Y-90393808D01*
X93658799Y-90251162D01*
X93286833Y-90250838D01*
X92977467Y-90378665D01*
X92302418Y-89703616D01*
X92783515Y-89504831D01*
X93136160Y-89152800D01*
X105333800Y-89152800D01*
X105357016Y-89148182D01*
X94712599Y-99792599D01*
X94547852Y-100039161D01*
X94490000Y-100330000D01*
X94490000Y-115255198D01*
X93975008Y-115770190D01*
X93909778Y-115672567D01*
X93756276Y-115570000D01*
X93909778Y-115467433D01*
X94267670Y-114931810D01*
X94393345Y-114300000D01*
X94267670Y-113668190D01*
X93909778Y-113132567D01*
X93756276Y-113030000D01*
X93909778Y-112927433D01*
X94267670Y-112391810D01*
X94393345Y-111760000D01*
X94267670Y-111128190D01*
X93909778Y-110592567D01*
X93756276Y-110490000D01*
X93909778Y-110387433D01*
X94267670Y-109851810D01*
X94393345Y-109220000D01*
X94267670Y-108588190D01*
X93909778Y-108052567D01*
X93756276Y-107950000D01*
X93909778Y-107847433D01*
X94267670Y-107311810D01*
X94393345Y-106680000D01*
X94267670Y-106048190D01*
X93909778Y-105512567D01*
X93374155Y-105154675D01*
X92742345Y-105029000D01*
X92677655Y-105029000D01*
X92045845Y-105154675D01*
X91510222Y-105512567D01*
X91152330Y-106048190D01*
X91026655Y-106680000D01*
X91152330Y-107311810D01*
X91510222Y-107847433D01*
X91663724Y-107950000D01*
X91510222Y-108052567D01*
X91152330Y-108588190D01*
X91026655Y-109220000D01*
X91152330Y-109851810D01*
X91510222Y-110387433D01*
X91663724Y-110490000D01*
X91510222Y-110592567D01*
X91152330Y-111128190D01*
X91026655Y-111760000D01*
X91127619Y-112267579D01*
X88362599Y-115032599D01*
X88197852Y-115279161D01*
X88140000Y-115570000D01*
X88140000Y-124929367D01*
X87816799Y-124795162D01*
X87444833Y-124794838D01*
X87101057Y-124936883D01*
X86995046Y-125042710D01*
X86890327Y-124937808D01*
X86546799Y-124795162D01*
X86174833Y-124794838D01*
X85831057Y-124936883D01*
X85725046Y-125042710D01*
X85620327Y-124937808D01*
X85276799Y-124795162D01*
X84904833Y-124794838D01*
X84561057Y-124936883D01*
X84297808Y-125199673D01*
X84210000Y-125411137D01*
X84210000Y-95943167D01*
X93044838Y-95943167D01*
X93186883Y-96286943D01*
X93449673Y-96550192D01*
X93793201Y-96692838D01*
X94165167Y-96693162D01*
X94508943Y-96551117D01*
X94772192Y-96288327D01*
X94914838Y-95944799D01*
X94914879Y-95897923D01*
X97729140Y-93083662D01*
X97857201Y-93136838D01*
X98229167Y-93137162D01*
X98572943Y-92995117D01*
X98836192Y-92732327D01*
X98978838Y-92388799D01*
X98979162Y-92016833D01*
X98837117Y-91673057D01*
X98574327Y-91409808D01*
X98230799Y-91267162D01*
X97858833Y-91266838D01*
X97515057Y-91408883D01*
X97468415Y-91455444D01*
X97293414Y-91490254D01*
X97245160Y-91499852D01*
X96998599Y-91664599D01*
X93840320Y-94822878D01*
X93794833Y-94822838D01*
X93451057Y-94964883D01*
X93187808Y-95227673D01*
X93045162Y-95571201D01*
X93044838Y-95943167D01*
X84210000Y-95943167D01*
X84210000Y-59754670D01*
X84296883Y-59964943D01*
X84559673Y-60228192D01*
X84903201Y-60370838D01*
X85275167Y-60371162D01*
X85618943Y-60229117D01*
X85652118Y-60196000D01*
X99568000Y-60196000D01*
X99858839Y-60138148D01*
X100105401Y-59973401D01*
X102593755Y-57485047D01*
X102814285Y-57485240D01*
X103323515Y-57274831D01*
X103713461Y-56885564D01*
X103809976Y-56653130D01*
X103905169Y-56883515D01*
X104294436Y-57273461D01*
X104803298Y-57484759D01*
X105354285Y-57485240D01*
X105863515Y-57274831D01*
X106253461Y-56885564D01*
X106464759Y-56376702D01*
X106465240Y-55825715D01*
X106434699Y-55751800D01*
X106730800Y-55751800D01*
X107002505Y-55697754D01*
X107190000Y-55572475D01*
X107190000Y-70065367D01*
X107190000Y-70065367D01*
G37*
X107190000Y-70065367D02*
X106866799Y-69931162D01*
X106494833Y-69930838D01*
X106151057Y-70072883D01*
X105887808Y-70335673D01*
X105745162Y-70679201D01*
X105744838Y-71051167D01*
X105886883Y-71394943D01*
X105920000Y-71428118D01*
X105920000Y-77678100D01*
X105835846Y-77552154D01*
X105605505Y-77398246D01*
X105333800Y-77344200D01*
X93132620Y-77344200D01*
X92785564Y-76996539D01*
X92760000Y-76985924D01*
X92760000Y-62712624D01*
X92882838Y-62416799D01*
X92883162Y-62044833D01*
X92741117Y-61701057D01*
X92478327Y-61437808D01*
X92134799Y-61295162D01*
X91762833Y-61294838D01*
X91419057Y-61436883D01*
X91155808Y-61699673D01*
X91013162Y-62043201D01*
X91012838Y-62415167D01*
X91154883Y-62758943D01*
X91240000Y-62844209D01*
X91240000Y-76985453D01*
X91216485Y-76995169D01*
X90826539Y-77384436D01*
X90615241Y-77893298D01*
X90614942Y-78236256D01*
X89632599Y-79218599D01*
X89467852Y-79465161D01*
X89410000Y-79756000D01*
X89410000Y-81420000D01*
X89467852Y-81710839D01*
X89632599Y-81957401D01*
X90624998Y-82949800D01*
X90615241Y-82973298D01*
X90614942Y-83316256D01*
X89378599Y-84552599D01*
X89213852Y-84799161D01*
X89156000Y-85090000D01*
X89156000Y-88392000D01*
X89213852Y-88682839D01*
X89378599Y-88929401D01*
X92172599Y-91723401D01*
X92419161Y-91888148D01*
X92710000Y-91946000D01*
X92909537Y-91946000D01*
X92941673Y-91978192D01*
X93285201Y-92120838D01*
X93657167Y-92121162D01*
X94000943Y-91979117D01*
X94264192Y-91716327D01*
X94406838Y-91372799D01*
X94407162Y-91000833D01*
X94265117Y-90657057D01*
X94002327Y-90393808D01*
X93658799Y-90251162D01*
X93286833Y-90250838D01*
X92977467Y-90378665D01*
X92302418Y-89703616D01*
X92783515Y-89504831D01*
X93136160Y-89152800D01*
X105333800Y-89152800D01*
X105357016Y-89148182D01*
X94712599Y-99792599D01*
X94547852Y-100039161D01*
X94490000Y-100330000D01*
X94490000Y-115255198D01*
X93975008Y-115770190D01*
X93909778Y-115672567D01*
X93756276Y-115570000D01*
X93909778Y-115467433D01*
X94267670Y-114931810D01*
X94393345Y-114300000D01*
X94267670Y-113668190D01*
X93909778Y-113132567D01*
X93756276Y-113030000D01*
X93909778Y-112927433D01*
X94267670Y-112391810D01*
X94393345Y-111760000D01*
X94267670Y-111128190D01*
X93909778Y-110592567D01*
X93756276Y-110490000D01*
X93909778Y-110387433D01*
X94267670Y-109851810D01*
X94393345Y-109220000D01*
X94267670Y-108588190D01*
X93909778Y-108052567D01*
X93756276Y-107950000D01*
X93909778Y-107847433D01*
X94267670Y-107311810D01*
X94393345Y-106680000D01*
X94267670Y-106048190D01*
X93909778Y-105512567D01*
X93374155Y-105154675D01*
X92742345Y-105029000D01*
X92677655Y-105029000D01*
X92045845Y-105154675D01*
X91510222Y-105512567D01*
X91152330Y-106048190D01*
X91026655Y-106680000D01*
X91152330Y-107311810D01*
X91510222Y-107847433D01*
X91663724Y-107950000D01*
X91510222Y-108052567D01*
X91152330Y-108588190D01*
X91026655Y-109220000D01*
X91152330Y-109851810D01*
X91510222Y-110387433D01*
X91663724Y-110490000D01*
X91510222Y-110592567D01*
X91152330Y-111128190D01*
X91026655Y-111760000D01*
X91127619Y-112267579D01*
X88362599Y-115032599D01*
X88197852Y-115279161D01*
X88140000Y-115570000D01*
X88140000Y-124929367D01*
X87816799Y-124795162D01*
X87444833Y-124794838D01*
X87101057Y-124936883D01*
X86995046Y-125042710D01*
X86890327Y-124937808D01*
X86546799Y-124795162D01*
X86174833Y-124794838D01*
X85831057Y-124936883D01*
X85725046Y-125042710D01*
X85620327Y-124937808D01*
X85276799Y-124795162D01*
X84904833Y-124794838D01*
X84561057Y-124936883D01*
X84297808Y-125199673D01*
X84210000Y-125411137D01*
X84210000Y-95943167D01*
X93044838Y-95943167D01*
X93186883Y-96286943D01*
X93449673Y-96550192D01*
X93793201Y-96692838D01*
X94165167Y-96693162D01*
X94508943Y-96551117D01*
X94772192Y-96288327D01*
X94914838Y-95944799D01*
X94914879Y-95897923D01*
X97729140Y-93083662D01*
X97857201Y-93136838D01*
X98229167Y-93137162D01*
X98572943Y-92995117D01*
X98836192Y-92732327D01*
X98978838Y-92388799D01*
X98979162Y-92016833D01*
X98837117Y-91673057D01*
X98574327Y-91409808D01*
X98230799Y-91267162D01*
X97858833Y-91266838D01*
X97515057Y-91408883D01*
X97468415Y-91455444D01*
X97293414Y-91490254D01*
X97245160Y-91499852D01*
X96998599Y-91664599D01*
X93840320Y-94822878D01*
X93794833Y-94822838D01*
X93451057Y-94964883D01*
X93187808Y-95227673D01*
X93045162Y-95571201D01*
X93044838Y-95943167D01*
X84210000Y-95943167D01*
X84210000Y-59754670D01*
X84296883Y-59964943D01*
X84559673Y-60228192D01*
X84903201Y-60370838D01*
X85275167Y-60371162D01*
X85618943Y-60229117D01*
X85652118Y-60196000D01*
X99568000Y-60196000D01*
X99858839Y-60138148D01*
X100105401Y-59973401D01*
X102593755Y-57485047D01*
X102814285Y-57485240D01*
X103323515Y-57274831D01*
X103713461Y-56885564D01*
X103809976Y-56653130D01*
X103905169Y-56883515D01*
X104294436Y-57273461D01*
X104803298Y-57484759D01*
X105354285Y-57485240D01*
X105863515Y-57274831D01*
X106253461Y-56885564D01*
X106464759Y-56376702D01*
X106465240Y-55825715D01*
X106434699Y-55751800D01*
X106730800Y-55751800D01*
X107002505Y-55697754D01*
X107190000Y-55572475D01*
X107190000Y-70065367D01*
M02*
