G04 #@! TF.FileFunction,Legend,Top*
%FSLAX46Y46*%
G04 Gerber Fmt 4.6, Leading zero omitted, Abs format (unit mm)*
G04 Created by KiCad (PCBNEW 4.0.4+e1-6308~48~ubuntu14.04.1-stable) date Sun Sep 25 16:17:57 2016*
%MOMM*%
%LPD*%
G01*
G04 APERTURE LIST*
%ADD10C,0.100000*%
%ADD11C,0.150000*%
G04 APERTURE END LIST*
D10*
D11*
X115000000Y-37250000D02*
G75*
G03X115000000Y-37250000I-1000000J0D01*
G01*
X107250000Y-30250000D02*
X120750000Y-30250000D01*
X120750000Y-30250000D02*
X120750000Y-44250000D01*
X120750000Y-44250000D02*
X107250000Y-44250000D01*
X107250000Y-44250000D02*
X107250000Y-30250000D01*
X115000000Y-71250000D02*
G75*
G03X115000000Y-71250000I-1000000J0D01*
G01*
X120700000Y-77500000D02*
X120700000Y-65000000D01*
X107300000Y-77500000D02*
X107300000Y-65000000D01*
X107300000Y-65000000D02*
X120700000Y-65000000D01*
X107300000Y-77500000D02*
X120700000Y-77500000D01*
X115000000Y-8000000D02*
G75*
G03X115000000Y-8000000I-1000000J0D01*
G01*
X120700000Y-14250000D02*
X120700000Y-1750000D01*
X107300000Y-14250000D02*
X107300000Y-1750000D01*
X107300000Y-1750000D02*
X120700000Y-1750000D01*
X107300000Y-14250000D02*
X120700000Y-14250000D01*
X115000000Y-170500000D02*
G75*
G03X115000000Y-170500000I-1000000J0D01*
G01*
X107250000Y-163500000D02*
X120750000Y-163500000D01*
X120750000Y-163500000D02*
X120750000Y-177500000D01*
X120750000Y-177500000D02*
X107250000Y-177500000D01*
X107250000Y-177500000D02*
X107250000Y-163500000D01*
X132750000Y-4000000D02*
G75*
G03X132750000Y-4000000I-3750000J0D01*
G01*
X107750000Y-19000000D02*
G75*
G03X107750000Y-19000000I-3750000J0D01*
G01*
X132750000Y-180000000D02*
G75*
G03X132750000Y-180000000I-3750000J0D01*
G01*
X108981905Y-25598381D02*
X108981905Y-24598381D01*
X109362858Y-24598381D01*
X109458096Y-24646000D01*
X109505715Y-24693619D01*
X109553334Y-24788857D01*
X109553334Y-24931714D01*
X109505715Y-25026952D01*
X109458096Y-25074571D01*
X109362858Y-25122190D01*
X108981905Y-25122190D01*
X109886667Y-24598381D02*
X110505715Y-24598381D01*
X110172381Y-24979333D01*
X110315239Y-24979333D01*
X110410477Y-25026952D01*
X110458096Y-25074571D01*
X110505715Y-25169810D01*
X110505715Y-25407905D01*
X110458096Y-25503143D01*
X110410477Y-25550762D01*
X110315239Y-25598381D01*
X110029524Y-25598381D01*
X109934286Y-25550762D01*
X109886667Y-25503143D01*
X118802239Y-26256571D02*
X118945096Y-26304190D01*
X118992715Y-26351810D01*
X119040334Y-26447048D01*
X119040334Y-26589905D01*
X118992715Y-26685143D01*
X118945096Y-26732762D01*
X118849858Y-26780381D01*
X118468905Y-26780381D01*
X118468905Y-25780381D01*
X118802239Y-25780381D01*
X118897477Y-25828000D01*
X118945096Y-25875619D01*
X118992715Y-25970857D01*
X118992715Y-26066095D01*
X118945096Y-26161333D01*
X118897477Y-26208952D01*
X118802239Y-26256571D01*
X118468905Y-26256571D01*
X119659381Y-25780381D02*
X119754620Y-25780381D01*
X119849858Y-25828000D01*
X119897477Y-25875619D01*
X119945096Y-25970857D01*
X119992715Y-26161333D01*
X119992715Y-26399429D01*
X119945096Y-26589905D01*
X119897477Y-26685143D01*
X119849858Y-26732762D01*
X119754620Y-26780381D01*
X119659381Y-26780381D01*
X119564143Y-26732762D01*
X119516524Y-26685143D01*
X119468905Y-26589905D01*
X119421286Y-26399429D01*
X119421286Y-26161333D01*
X119468905Y-25970857D01*
X119516524Y-25875619D01*
X119564143Y-25828000D01*
X119659381Y-25780381D01*
X115754286Y-26780381D02*
X115754286Y-25780381D01*
X116325715Y-26780381D01*
X116325715Y-25780381D01*
X117373334Y-26685143D02*
X117325715Y-26732762D01*
X117182858Y-26780381D01*
X117087620Y-26780381D01*
X116944762Y-26732762D01*
X116849524Y-26637524D01*
X116801905Y-26542286D01*
X116754286Y-26351810D01*
X116754286Y-26208952D01*
X116801905Y-26018476D01*
X116849524Y-25923238D01*
X116944762Y-25828000D01*
X117087620Y-25780381D01*
X117182858Y-25780381D01*
X117325715Y-25828000D01*
X117373334Y-25875619D01*
X113214286Y-26780381D02*
X113214286Y-25780381D01*
X113785715Y-26780381D01*
X113785715Y-25780381D01*
X114833334Y-26685143D02*
X114785715Y-26732762D01*
X114642858Y-26780381D01*
X114547620Y-26780381D01*
X114404762Y-26732762D01*
X114309524Y-26637524D01*
X114261905Y-26542286D01*
X114214286Y-26351810D01*
X114214286Y-26208952D01*
X114261905Y-26018476D01*
X114309524Y-25923238D01*
X114404762Y-25828000D01*
X114547620Y-25780381D01*
X114642858Y-25780381D01*
X114785715Y-25828000D01*
X114833334Y-25875619D01*
X108332714Y-26494667D02*
X108808905Y-26494667D01*
X108237476Y-26780381D02*
X108570809Y-25780381D01*
X108904143Y-26780381D01*
X109427952Y-25780381D02*
X109523191Y-25780381D01*
X109618429Y-25828000D01*
X109666048Y-25875619D01*
X109713667Y-25970857D01*
X109761286Y-26161333D01*
X109761286Y-26399429D01*
X109713667Y-26589905D01*
X109666048Y-26685143D01*
X109618429Y-26732762D01*
X109523191Y-26780381D01*
X109427952Y-26780381D01*
X109332714Y-26732762D01*
X109285095Y-26685143D01*
X109237476Y-26589905D01*
X109189857Y-26399429D01*
X109189857Y-26161333D01*
X109237476Y-25970857D01*
X109285095Y-25875619D01*
X109332714Y-25828000D01*
X109427952Y-25780381D01*
X111293334Y-26685143D02*
X111245715Y-26732762D01*
X111102858Y-26780381D01*
X111007620Y-26780381D01*
X110864762Y-26732762D01*
X110769524Y-26637524D01*
X110721905Y-26542286D01*
X110674286Y-26351810D01*
X110674286Y-26208952D01*
X110721905Y-26018476D01*
X110769524Y-25923238D01*
X110864762Y-25828000D01*
X111007620Y-25780381D01*
X111102858Y-25780381D01*
X111245715Y-25828000D01*
X111293334Y-25875619D01*
X111912381Y-25780381D02*
X112007620Y-25780381D01*
X112102858Y-25828000D01*
X112150477Y-25875619D01*
X112198096Y-25970857D01*
X112245715Y-26161333D01*
X112245715Y-26399429D01*
X112198096Y-26589905D01*
X112150477Y-26685143D01*
X112102858Y-26732762D01*
X112007620Y-26780381D01*
X111912381Y-26780381D01*
X111817143Y-26732762D01*
X111769524Y-26685143D01*
X111721905Y-26589905D01*
X111674286Y-26399429D01*
X111674286Y-26161333D01*
X111721905Y-25970857D01*
X111769524Y-25875619D01*
X111817143Y-25828000D01*
X111912381Y-25780381D01*
X117419810Y-45712667D02*
X117896001Y-45712667D01*
X117324572Y-45998381D02*
X117657905Y-44998381D01*
X117991239Y-45998381D01*
X118324572Y-45998381D02*
X118324572Y-45331714D01*
X118324572Y-44998381D02*
X118276953Y-45046000D01*
X118324572Y-45093619D01*
X118372191Y-45046000D01*
X118324572Y-44998381D01*
X118324572Y-45093619D01*
X115427429Y-45903143D02*
X115379810Y-45950762D01*
X115236953Y-45998381D01*
X115141715Y-45998381D01*
X114998857Y-45950762D01*
X114903619Y-45855524D01*
X114856000Y-45760286D01*
X114808381Y-45569810D01*
X114808381Y-45426952D01*
X114856000Y-45236476D01*
X114903619Y-45141238D01*
X114998857Y-45046000D01*
X115141715Y-44998381D01*
X115236953Y-44998381D01*
X115379810Y-45046000D01*
X115427429Y-45093619D01*
X115856000Y-45998381D02*
X115856000Y-45331714D01*
X115856000Y-44998381D02*
X115808381Y-45046000D01*
X115856000Y-45093619D01*
X115903619Y-45046000D01*
X115856000Y-44998381D01*
X115856000Y-45093619D01*
X112530286Y-46204762D02*
X112673143Y-46252381D01*
X112911239Y-46252381D01*
X113006477Y-46204762D01*
X113054096Y-46157143D01*
X113101715Y-46061905D01*
X113101715Y-45966667D01*
X113054096Y-45871429D01*
X113006477Y-45823810D01*
X112911239Y-45776190D01*
X112720762Y-45728571D01*
X112625524Y-45680952D01*
X112577905Y-45633333D01*
X112530286Y-45538095D01*
X112530286Y-45442857D01*
X112577905Y-45347619D01*
X112625524Y-45300000D01*
X112720762Y-45252381D01*
X112958858Y-45252381D01*
X113101715Y-45300000D01*
X109990286Y-46204762D02*
X110133143Y-46252381D01*
X110371239Y-46252381D01*
X110466477Y-46204762D01*
X110514096Y-46157143D01*
X110561715Y-46061905D01*
X110561715Y-45966667D01*
X110514096Y-45871429D01*
X110466477Y-45823810D01*
X110371239Y-45776190D01*
X110180762Y-45728571D01*
X110085524Y-45680952D01*
X110037905Y-45633333D01*
X109990286Y-45538095D01*
X109990286Y-45442857D01*
X110037905Y-45347619D01*
X110085524Y-45300000D01*
X110180762Y-45252381D01*
X110418858Y-45252381D01*
X110561715Y-45300000D01*
X107061334Y-46490571D02*
X107204191Y-46538190D01*
X107251810Y-46585810D01*
X107299429Y-46681048D01*
X107299429Y-46823905D01*
X107251810Y-46919143D01*
X107204191Y-46966762D01*
X107108953Y-47014381D01*
X106728000Y-47014381D01*
X106728000Y-46014381D01*
X107061334Y-46014381D01*
X107156572Y-46062000D01*
X107204191Y-46109619D01*
X107251810Y-46204857D01*
X107251810Y-46300095D01*
X107204191Y-46395333D01*
X107156572Y-46442952D01*
X107061334Y-46490571D01*
X106728000Y-46490571D01*
X107728000Y-47014381D02*
X107728000Y-46347714D01*
X107728000Y-46014381D02*
X107680381Y-46062000D01*
X107728000Y-46109619D01*
X107775619Y-46062000D01*
X107728000Y-46014381D01*
X107728000Y-46109619D01*
X121173905Y-66492381D02*
X121173905Y-65492381D01*
X121554858Y-65492381D01*
X121650096Y-65540000D01*
X121697715Y-65587619D01*
X121745334Y-65682857D01*
X121745334Y-65825714D01*
X121697715Y-65920952D01*
X121650096Y-65968571D01*
X121554858Y-66016190D01*
X121173905Y-66016190D01*
X122602477Y-65492381D02*
X122412000Y-65492381D01*
X122316762Y-65540000D01*
X122269143Y-65587619D01*
X122173905Y-65730476D01*
X122126286Y-65920952D01*
X122126286Y-66301905D01*
X122173905Y-66397143D01*
X122221524Y-66444762D01*
X122316762Y-66492381D01*
X122507239Y-66492381D01*
X122602477Y-66444762D01*
X122650096Y-66397143D01*
X122697715Y-66301905D01*
X122697715Y-66063810D01*
X122650096Y-65968571D01*
X122602477Y-65920952D01*
X122507239Y-65873333D01*
X122316762Y-65873333D01*
X122221524Y-65920952D01*
X122173905Y-65968571D01*
X122126286Y-66063810D01*
X123183667Y-74028095D02*
X123183667Y-73551904D01*
X123469381Y-74123333D02*
X122469381Y-73790000D01*
X123469381Y-73456666D01*
X123374143Y-70940476D02*
X123421762Y-70988095D01*
X123469381Y-71130952D01*
X123469381Y-71226190D01*
X123421762Y-71369048D01*
X123326524Y-71464286D01*
X123231286Y-71511905D01*
X123040810Y-71559524D01*
X122897952Y-71559524D01*
X122707476Y-71511905D01*
X122612238Y-71464286D01*
X122517000Y-71369048D01*
X122469381Y-71226190D01*
X122469381Y-71130952D01*
X122517000Y-70988095D01*
X122564619Y-70940476D01*
X122945571Y-68638571D02*
X122993190Y-68495714D01*
X123040810Y-68448095D01*
X123136048Y-68400476D01*
X123278905Y-68400476D01*
X123374143Y-68448095D01*
X123421762Y-68495714D01*
X123469381Y-68590952D01*
X123469381Y-68971905D01*
X122469381Y-68971905D01*
X122469381Y-68638571D01*
X122517000Y-68543333D01*
X122564619Y-68495714D01*
X122659857Y-68448095D01*
X122755095Y-68448095D01*
X122850333Y-68495714D01*
X122897952Y-68543333D01*
X122945571Y-68638571D01*
X122945571Y-68971905D01*
X105895762Y-74075714D02*
X105943381Y-73932857D01*
X105943381Y-73694761D01*
X105895762Y-73599523D01*
X105848143Y-73551904D01*
X105752905Y-73504285D01*
X105657667Y-73504285D01*
X105562429Y-73551904D01*
X105514810Y-73599523D01*
X105467190Y-73694761D01*
X105419571Y-73885238D01*
X105371952Y-73980476D01*
X105324333Y-74028095D01*
X105229095Y-74075714D01*
X105133857Y-74075714D01*
X105038619Y-74028095D01*
X104991000Y-73980476D01*
X104943381Y-73885238D01*
X104943381Y-73647142D01*
X104991000Y-73504285D01*
X105895762Y-68995714D02*
X105943381Y-68852857D01*
X105943381Y-68614761D01*
X105895762Y-68519523D01*
X105848143Y-68471904D01*
X105752905Y-68424285D01*
X105657667Y-68424285D01*
X105562429Y-68471904D01*
X105514810Y-68519523D01*
X105467190Y-68614761D01*
X105419571Y-68805238D01*
X105371952Y-68900476D01*
X105324333Y-68948095D01*
X105229095Y-68995714D01*
X105133857Y-68995714D01*
X105038619Y-68948095D01*
X104991000Y-68900476D01*
X104943381Y-68805238D01*
X104943381Y-68567142D01*
X104991000Y-68424285D01*
X120666667Y-21444762D02*
X120809524Y-21492381D01*
X121047620Y-21492381D01*
X121142858Y-21444762D01*
X121190477Y-21397143D01*
X121238096Y-21301905D01*
X121238096Y-21206667D01*
X121190477Y-21111429D01*
X121142858Y-21063810D01*
X121047620Y-21016190D01*
X120857143Y-20968571D01*
X120761905Y-20920952D01*
X120714286Y-20873333D01*
X120666667Y-20778095D01*
X120666667Y-20682857D01*
X120714286Y-20587619D01*
X120761905Y-20540000D01*
X120857143Y-20492381D01*
X121095239Y-20492381D01*
X121238096Y-20540000D01*
X121571429Y-20492381D02*
X121809524Y-21492381D01*
X122000001Y-20778095D01*
X122190477Y-21492381D01*
X122428572Y-20492381D01*
X123333334Y-21492381D02*
X122761905Y-21492381D01*
X123047619Y-21492381D02*
X123047619Y-20492381D01*
X122952381Y-20635238D01*
X122857143Y-20730476D01*
X122761905Y-20778095D01*
X116395905Y-1294381D02*
X116395905Y-294381D01*
X116776858Y-294381D01*
X116872096Y-342000D01*
X116919715Y-389619D01*
X116967334Y-484857D01*
X116967334Y-627714D01*
X116919715Y-722952D01*
X116872096Y-770571D01*
X116776858Y-818190D01*
X116395905Y-818190D01*
X117872096Y-294381D02*
X117395905Y-294381D01*
X117348286Y-770571D01*
X117395905Y-722952D01*
X117491143Y-675333D01*
X117729239Y-675333D01*
X117824477Y-722952D01*
X117872096Y-770571D01*
X117919715Y-865810D01*
X117919715Y-1103905D01*
X117872096Y-1199143D01*
X117824477Y-1246762D01*
X117729239Y-1294381D01*
X117491143Y-1294381D01*
X117395905Y-1246762D01*
X117348286Y-1199143D01*
X123183667Y-10778095D02*
X123183667Y-10301904D01*
X123469381Y-10873333D02*
X122469381Y-10540000D01*
X123469381Y-10206666D01*
X123374143Y-7690476D02*
X123421762Y-7738095D01*
X123469381Y-7880952D01*
X123469381Y-7976190D01*
X123421762Y-8119048D01*
X123326524Y-8214286D01*
X123231286Y-8261905D01*
X123040810Y-8309524D01*
X122897952Y-8309524D01*
X122707476Y-8261905D01*
X122612238Y-8214286D01*
X122517000Y-8119048D01*
X122469381Y-7976190D01*
X122469381Y-7880952D01*
X122517000Y-7738095D01*
X122564619Y-7690476D01*
X122945571Y-5388571D02*
X122993190Y-5245714D01*
X123040810Y-5198095D01*
X123136048Y-5150476D01*
X123278905Y-5150476D01*
X123374143Y-5198095D01*
X123421762Y-5245714D01*
X123469381Y-5340952D01*
X123469381Y-5721905D01*
X122469381Y-5721905D01*
X122469381Y-5388571D01*
X122517000Y-5293333D01*
X122564619Y-5245714D01*
X122659857Y-5198095D01*
X122755095Y-5198095D01*
X122850333Y-5245714D01*
X122897952Y-5293333D01*
X122945571Y-5388571D01*
X122945571Y-5721905D01*
X105895762Y-10825714D02*
X105943381Y-10682857D01*
X105943381Y-10444761D01*
X105895762Y-10349523D01*
X105848143Y-10301904D01*
X105752905Y-10254285D01*
X105657667Y-10254285D01*
X105562429Y-10301904D01*
X105514810Y-10349523D01*
X105467190Y-10444761D01*
X105419571Y-10635238D01*
X105371952Y-10730476D01*
X105324333Y-10778095D01*
X105229095Y-10825714D01*
X105133857Y-10825714D01*
X105038619Y-10778095D01*
X104991000Y-10730476D01*
X104943381Y-10635238D01*
X104943381Y-10397142D01*
X104991000Y-10254285D01*
X105895762Y-5745714D02*
X105943381Y-5602857D01*
X105943381Y-5364761D01*
X105895762Y-5269523D01*
X105848143Y-5221904D01*
X105752905Y-5174285D01*
X105657667Y-5174285D01*
X105562429Y-5221904D01*
X105514810Y-5269523D01*
X105467190Y-5364761D01*
X105419571Y-5555238D01*
X105371952Y-5650476D01*
X105324333Y-5698095D01*
X105229095Y-5745714D01*
X105133857Y-5745714D01*
X105038619Y-5698095D01*
X104991000Y-5650476D01*
X104943381Y-5555238D01*
X104943381Y-5317142D01*
X104991000Y-5174285D01*
X124904381Y-175744095D02*
X123904381Y-175744095D01*
X123904381Y-175363142D01*
X123952000Y-175267904D01*
X123999619Y-175220285D01*
X124094857Y-175172666D01*
X124237714Y-175172666D01*
X124332952Y-175220285D01*
X124380571Y-175267904D01*
X124428190Y-175363142D01*
X124428190Y-175744095D01*
X124237714Y-174315523D02*
X124904381Y-174315523D01*
X123856762Y-174553619D02*
X124571048Y-174791714D01*
X124571048Y-174172666D01*
X118802239Y-159506571D02*
X118945096Y-159554190D01*
X118992715Y-159601810D01*
X119040334Y-159697048D01*
X119040334Y-159839905D01*
X118992715Y-159935143D01*
X118945096Y-159982762D01*
X118849858Y-160030381D01*
X118468905Y-160030381D01*
X118468905Y-159030381D01*
X118802239Y-159030381D01*
X118897477Y-159078000D01*
X118945096Y-159125619D01*
X118992715Y-159220857D01*
X118992715Y-159316095D01*
X118945096Y-159411333D01*
X118897477Y-159458952D01*
X118802239Y-159506571D01*
X118468905Y-159506571D01*
X119659381Y-159030381D02*
X119754620Y-159030381D01*
X119849858Y-159078000D01*
X119897477Y-159125619D01*
X119945096Y-159220857D01*
X119992715Y-159411333D01*
X119992715Y-159649429D01*
X119945096Y-159839905D01*
X119897477Y-159935143D01*
X119849858Y-159982762D01*
X119754620Y-160030381D01*
X119659381Y-160030381D01*
X119564143Y-159982762D01*
X119516524Y-159935143D01*
X119468905Y-159839905D01*
X119421286Y-159649429D01*
X119421286Y-159411333D01*
X119468905Y-159220857D01*
X119516524Y-159125619D01*
X119564143Y-159078000D01*
X119659381Y-159030381D01*
X115754286Y-160030381D02*
X115754286Y-159030381D01*
X116325715Y-160030381D01*
X116325715Y-159030381D01*
X117373334Y-159935143D02*
X117325715Y-159982762D01*
X117182858Y-160030381D01*
X117087620Y-160030381D01*
X116944762Y-159982762D01*
X116849524Y-159887524D01*
X116801905Y-159792286D01*
X116754286Y-159601810D01*
X116754286Y-159458952D01*
X116801905Y-159268476D01*
X116849524Y-159173238D01*
X116944762Y-159078000D01*
X117087620Y-159030381D01*
X117182858Y-159030381D01*
X117325715Y-159078000D01*
X117373334Y-159125619D01*
X113214286Y-160030381D02*
X113214286Y-159030381D01*
X113785715Y-160030381D01*
X113785715Y-159030381D01*
X114833334Y-159935143D02*
X114785715Y-159982762D01*
X114642858Y-160030381D01*
X114547620Y-160030381D01*
X114404762Y-159982762D01*
X114309524Y-159887524D01*
X114261905Y-159792286D01*
X114214286Y-159601810D01*
X114214286Y-159458952D01*
X114261905Y-159268476D01*
X114309524Y-159173238D01*
X114404762Y-159078000D01*
X114547620Y-159030381D01*
X114642858Y-159030381D01*
X114785715Y-159078000D01*
X114833334Y-159125619D01*
X108332714Y-159744667D02*
X108808905Y-159744667D01*
X108237476Y-160030381D02*
X108570809Y-159030381D01*
X108904143Y-160030381D01*
X109427952Y-159030381D02*
X109523191Y-159030381D01*
X109618429Y-159078000D01*
X109666048Y-159125619D01*
X109713667Y-159220857D01*
X109761286Y-159411333D01*
X109761286Y-159649429D01*
X109713667Y-159839905D01*
X109666048Y-159935143D01*
X109618429Y-159982762D01*
X109523191Y-160030381D01*
X109427952Y-160030381D01*
X109332714Y-159982762D01*
X109285095Y-159935143D01*
X109237476Y-159839905D01*
X109189857Y-159649429D01*
X109189857Y-159411333D01*
X109237476Y-159220857D01*
X109285095Y-159125619D01*
X109332714Y-159078000D01*
X109427952Y-159030381D01*
X111293334Y-159935143D02*
X111245715Y-159982762D01*
X111102858Y-160030381D01*
X111007620Y-160030381D01*
X110864762Y-159982762D01*
X110769524Y-159887524D01*
X110721905Y-159792286D01*
X110674286Y-159601810D01*
X110674286Y-159458952D01*
X110721905Y-159268476D01*
X110769524Y-159173238D01*
X110864762Y-159078000D01*
X111007620Y-159030381D01*
X111102858Y-159030381D01*
X111245715Y-159078000D01*
X111293334Y-159125619D01*
X111912381Y-159030381D02*
X112007620Y-159030381D01*
X112102858Y-159078000D01*
X112150477Y-159125619D01*
X112198096Y-159220857D01*
X112245715Y-159411333D01*
X112245715Y-159649429D01*
X112198096Y-159839905D01*
X112150477Y-159935143D01*
X112102858Y-159982762D01*
X112007620Y-160030381D01*
X111912381Y-160030381D01*
X111817143Y-159982762D01*
X111769524Y-159935143D01*
X111721905Y-159839905D01*
X111674286Y-159649429D01*
X111674286Y-159411333D01*
X111721905Y-159220857D01*
X111769524Y-159125619D01*
X111817143Y-159078000D01*
X111912381Y-159030381D01*
X118689810Y-178554667D02*
X119166001Y-178554667D01*
X118594572Y-178840381D02*
X118927905Y-177840381D01*
X119261239Y-178840381D01*
X119594572Y-178840381D02*
X119594572Y-178173714D01*
X119594572Y-177840381D02*
X119546953Y-177888000D01*
X119594572Y-177935619D01*
X119642191Y-177888000D01*
X119594572Y-177840381D01*
X119594572Y-177935619D01*
X116443429Y-178745143D02*
X116395810Y-178792762D01*
X116252953Y-178840381D01*
X116157715Y-178840381D01*
X116014857Y-178792762D01*
X115919619Y-178697524D01*
X115872000Y-178602286D01*
X115824381Y-178411810D01*
X115824381Y-178268952D01*
X115872000Y-178078476D01*
X115919619Y-177983238D01*
X116014857Y-177888000D01*
X116157715Y-177840381D01*
X116252953Y-177840381D01*
X116395810Y-177888000D01*
X116443429Y-177935619D01*
X116872000Y-178840381D02*
X116872000Y-178173714D01*
X116872000Y-177840381D02*
X116824381Y-177888000D01*
X116872000Y-177935619D01*
X116919619Y-177888000D01*
X116872000Y-177840381D01*
X116872000Y-177935619D01*
X113800286Y-178792762D02*
X113943143Y-178840381D01*
X114181239Y-178840381D01*
X114276477Y-178792762D01*
X114324096Y-178745143D01*
X114371715Y-178649905D01*
X114371715Y-178554667D01*
X114324096Y-178459429D01*
X114276477Y-178411810D01*
X114181239Y-178364190D01*
X113990762Y-178316571D01*
X113895524Y-178268952D01*
X113847905Y-178221333D01*
X113800286Y-178126095D01*
X113800286Y-178030857D01*
X113847905Y-177935619D01*
X113895524Y-177888000D01*
X113990762Y-177840381D01*
X114228858Y-177840381D01*
X114371715Y-177888000D01*
X111260286Y-178792762D02*
X111403143Y-178840381D01*
X111641239Y-178840381D01*
X111736477Y-178792762D01*
X111784096Y-178745143D01*
X111831715Y-178649905D01*
X111831715Y-178554667D01*
X111784096Y-178459429D01*
X111736477Y-178411810D01*
X111641239Y-178364190D01*
X111450762Y-178316571D01*
X111355524Y-178268952D01*
X111307905Y-178221333D01*
X111260286Y-178126095D01*
X111260286Y-178030857D01*
X111307905Y-177935619D01*
X111355524Y-177888000D01*
X111450762Y-177840381D01*
X111688858Y-177840381D01*
X111831715Y-177888000D01*
X108839334Y-178316571D02*
X108982191Y-178364190D01*
X109029810Y-178411810D01*
X109077429Y-178507048D01*
X109077429Y-178649905D01*
X109029810Y-178745143D01*
X108982191Y-178792762D01*
X108886953Y-178840381D01*
X108506000Y-178840381D01*
X108506000Y-177840381D01*
X108839334Y-177840381D01*
X108934572Y-177888000D01*
X108982191Y-177935619D01*
X109029810Y-178030857D01*
X109029810Y-178126095D01*
X108982191Y-178221333D01*
X108934572Y-178268952D01*
X108839334Y-178316571D01*
X108506000Y-178316571D01*
X109506000Y-178840381D02*
X109506000Y-178173714D01*
X109506000Y-177840381D02*
X109458381Y-177888000D01*
X109506000Y-177935619D01*
X109553619Y-177888000D01*
X109506000Y-177840381D01*
X109506000Y-177935619D01*
M02*
