G04 #@! TF.FileFunction,Soldermask,Bot*
%FSLAX46Y46*%
G04 Gerber Fmt 4.6, Leading zero omitted, Abs format (unit mm)*
G04 Created by KiCad (PCBNEW 4.0.4+e1-6308~48~ubuntu14.04.1-stable) date Sun Sep 25 16:17:57 2016*
%MOMM*%
%LPD*%
G01*
G04 APERTURE LIST*
%ADD10C,0.100000*%
%ADD11C,0.150000*%
%ADD12C,1.900000*%
%ADD13R,1.900000X1.900000*%
%ADD14C,4.400000*%
%ADD15O,2.432000X2.432000*%
%ADD16R,2.432000X2.432000*%
%ADD17R,2.400000X2.200000*%
%ADD18R,2.200000X2.400000*%
%ADD19R,4.780000X1.290000*%
%ADD20C,7.400000*%
G04 APERTURE END LIST*
D10*
D11*
X117515000Y-5668000D02*
X117515000Y-6684000D01*
X117261000Y-6176000D02*
X116626000Y-5668000D01*
X116626000Y-5668000D02*
X116626000Y-6684000D01*
X116626000Y-6684000D02*
X117261000Y-6176000D01*
D10*
X119380000Y-7426000D02*
X114380000Y-7426000D01*
X119380000Y-4926000D02*
X114380000Y-4926000D01*
D11*
X117515000Y-9478000D02*
X117515000Y-10494000D01*
X117261000Y-9986000D02*
X116626000Y-9478000D01*
X116626000Y-9478000D02*
X116626000Y-10494000D01*
X116626000Y-10494000D02*
X117261000Y-9986000D01*
D10*
X119380000Y-11236000D02*
X114380000Y-11236000D01*
X119380000Y-8736000D02*
X114380000Y-8736000D01*
D11*
X109260000Y-7319000D02*
X110276000Y-7319000D01*
X109768000Y-7573000D02*
X109260000Y-8208000D01*
X109260000Y-8208000D02*
X110276000Y-8208000D01*
X110276000Y-8208000D02*
X109768000Y-7573000D01*
D10*
X111018000Y-5454000D02*
X111018000Y-10454000D01*
X108518000Y-5454000D02*
X108518000Y-10454000D01*
D11*
X117007000Y-68914000D02*
X117007000Y-69930000D01*
X116753000Y-69422000D02*
X116118000Y-68914000D01*
X116118000Y-68914000D02*
X116118000Y-69930000D01*
X116118000Y-69930000D02*
X116753000Y-69422000D01*
D10*
X118872000Y-70672000D02*
X113872000Y-70672000D01*
X118872000Y-68172000D02*
X113872000Y-68172000D01*
D11*
X117007000Y-72470000D02*
X117007000Y-73486000D01*
X116753000Y-72978000D02*
X116118000Y-72470000D01*
X116118000Y-72470000D02*
X116118000Y-73486000D01*
X116118000Y-73486000D02*
X116753000Y-72978000D01*
D10*
X118872000Y-74228000D02*
X113872000Y-74228000D01*
X118872000Y-71728000D02*
X113872000Y-71728000D01*
D11*
X109514000Y-70565000D02*
X110530000Y-70565000D01*
X110022000Y-70819000D02*
X109514000Y-71454000D01*
X109514000Y-71454000D02*
X110530000Y-71454000D01*
X110530000Y-71454000D02*
X110022000Y-70819000D01*
D10*
X111272000Y-68700000D02*
X111272000Y-73700000D01*
X108772000Y-68700000D02*
X108772000Y-73700000D01*
D11*
X105196000Y-31449000D02*
X106212000Y-31449000D01*
X105704000Y-31703000D02*
X105196000Y-32338000D01*
X105196000Y-32338000D02*
X106212000Y-32338000D01*
X106212000Y-32338000D02*
X105704000Y-31703000D01*
D10*
X106954000Y-29584000D02*
X106954000Y-34584000D01*
X104454000Y-29584000D02*
X104454000Y-34584000D01*
D11*
X121706000Y-31195000D02*
X122722000Y-31195000D01*
X122214000Y-31449000D02*
X121706000Y-32084000D01*
X121706000Y-32084000D02*
X122722000Y-32084000D01*
X122722000Y-32084000D02*
X122214000Y-31449000D01*
D10*
X123464000Y-29330000D02*
X123464000Y-34330000D01*
X120964000Y-29330000D02*
X120964000Y-34330000D01*
D11*
X105196000Y-167085000D02*
X106212000Y-167085000D01*
X105704000Y-167339000D02*
X105196000Y-167974000D01*
X105196000Y-167974000D02*
X106212000Y-167974000D01*
X106212000Y-167974000D02*
X105704000Y-167339000D01*
D10*
X106954000Y-165220000D02*
X106954000Y-170220000D01*
X104454000Y-165220000D02*
X104454000Y-170220000D01*
D11*
X121706000Y-168609000D02*
X122722000Y-168609000D01*
X122214000Y-168863000D02*
X121706000Y-169498000D01*
X121706000Y-169498000D02*
X122722000Y-169498000D01*
X122722000Y-169498000D02*
X122214000Y-168863000D01*
D10*
X123464000Y-166744000D02*
X123464000Y-171744000D01*
X120964000Y-166744000D02*
X120964000Y-171744000D01*
D11*
X122722000Y-177245000D02*
X121706000Y-177245000D01*
X122214000Y-176991000D02*
X122722000Y-176356000D01*
X122722000Y-176356000D02*
X121706000Y-176356000D01*
X121706000Y-176356000D02*
X122214000Y-176991000D01*
D10*
X120964000Y-179110000D02*
X120964000Y-174110000D01*
X123464000Y-179110000D02*
X123464000Y-174110000D01*
D11*
X112181000Y-182706000D02*
X112181000Y-181690000D01*
X112435000Y-182198000D02*
X113070000Y-182706000D01*
X113070000Y-182706000D02*
X113070000Y-181690000D01*
X113070000Y-181690000D02*
X112435000Y-182198000D01*
D10*
X110316000Y-180948000D02*
X115316000Y-180948000D01*
X110316000Y-183448000D02*
X115316000Y-183448000D01*
D11*
X106212000Y-177245000D02*
X105196000Y-177245000D01*
X105704000Y-176991000D02*
X106212000Y-176356000D01*
X106212000Y-176356000D02*
X105196000Y-176356000D01*
X105196000Y-176356000D02*
X105704000Y-176991000D01*
D10*
X104454000Y-179110000D02*
X104454000Y-174110000D01*
X106954000Y-179110000D02*
X106954000Y-174110000D01*
D11*
X122722000Y-42879000D02*
X121706000Y-42879000D01*
X122214000Y-42625000D02*
X122722000Y-41990000D01*
X122722000Y-41990000D02*
X121706000Y-41990000D01*
X121706000Y-41990000D02*
X122214000Y-42625000D01*
D10*
X120964000Y-44744000D02*
X120964000Y-39744000D01*
X123464000Y-44744000D02*
X123464000Y-39744000D01*
D11*
X112181000Y-49610000D02*
X112181000Y-48594000D01*
X112435000Y-49102000D02*
X113070000Y-49610000D01*
X113070000Y-49610000D02*
X113070000Y-48594000D01*
X113070000Y-48594000D02*
X112435000Y-49102000D01*
D10*
X110316000Y-47852000D02*
X115316000Y-47852000D01*
X110316000Y-50352000D02*
X115316000Y-50352000D01*
D11*
X106212000Y-43133000D02*
X105196000Y-43133000D01*
X105704000Y-42879000D02*
X106212000Y-42244000D01*
X106212000Y-42244000D02*
X105196000Y-42244000D01*
X105196000Y-42244000D02*
X105704000Y-42879000D01*
D10*
X104454000Y-44998000D02*
X104454000Y-39998000D01*
X106954000Y-44998000D02*
X106954000Y-39998000D01*
D11*
X116245000Y-18114000D02*
X116245000Y-19130000D01*
X115991000Y-18622000D02*
X115356000Y-18114000D01*
X115356000Y-18114000D02*
X115356000Y-19130000D01*
X115356000Y-19130000D02*
X115991000Y-18622000D01*
D10*
X118110000Y-19872000D02*
X113110000Y-19872000D01*
X118110000Y-17372000D02*
X113110000Y-17372000D01*
D12*
X108920000Y-27860000D03*
X111460000Y-27860000D03*
X114000000Y-27860000D03*
X116540000Y-27860000D03*
X119080000Y-27860000D03*
D13*
X108920000Y-46640000D03*
D12*
X111460000Y-46640000D03*
X119080000Y-46640000D03*
X116540000Y-46640000D03*
X114000000Y-46640000D03*
D14*
X114000000Y-65550000D03*
D12*
X107000000Y-73790000D03*
X121500000Y-68710000D03*
X121500000Y-71250000D03*
X121500000Y-73790000D03*
X107000000Y-68710000D03*
D14*
X114000000Y-76950000D03*
D15*
X122660000Y-108540000D03*
X122660000Y-106000000D03*
X122660000Y-103460000D03*
X122660000Y-100920000D03*
X122660000Y-98380000D03*
X122660000Y-95840000D03*
X122660000Y-93300000D03*
X122660000Y-90760000D03*
X122660000Y-88220000D03*
X122660000Y-85680000D03*
X102340000Y-85680000D03*
X102340000Y-88220000D03*
X102340000Y-90760000D03*
X102340000Y-93300000D03*
X102340000Y-95840000D03*
X102340000Y-98380000D03*
X102340000Y-100920000D03*
X102340000Y-103460000D03*
X102340000Y-106000000D03*
X102340000Y-108540000D03*
X102340000Y-111080000D03*
X102340000Y-113620000D03*
X102340000Y-116160000D03*
X102340000Y-118700000D03*
D16*
X102340000Y-123780000D03*
D15*
X102340000Y-121240000D03*
D17*
X114680000Y-6176000D03*
D18*
X119080000Y-6176000D03*
D17*
X114680000Y-9986000D03*
D18*
X119080000Y-9986000D03*
X109768000Y-10154000D03*
D17*
X109768000Y-5754000D03*
X114172000Y-69422000D03*
D18*
X118572000Y-69422000D03*
D17*
X114172000Y-72978000D03*
D18*
X118572000Y-72978000D03*
X110022000Y-73400000D03*
D17*
X110022000Y-69000000D03*
D18*
X105704000Y-34284000D03*
D17*
X105704000Y-29884000D03*
D18*
X122214000Y-34030000D03*
D17*
X122214000Y-29630000D03*
D18*
X105704000Y-169920000D03*
D17*
X105704000Y-165520000D03*
D18*
X122214000Y-171444000D03*
D17*
X122214000Y-167044000D03*
D19*
X123040000Y-137570000D03*
X123040000Y-140110000D03*
X123040000Y-142650000D03*
X123040000Y-145190000D03*
X123040000Y-147730000D03*
X123040000Y-150270000D03*
X123040000Y-152810000D03*
X123040000Y-155350000D03*
X123040000Y-157890000D03*
X123040000Y-160430000D03*
X129960000Y-160430000D03*
X129960000Y-157890000D03*
X129960000Y-155350000D03*
X129960000Y-152810000D03*
X129960000Y-137570000D03*
X129960000Y-140110000D03*
X129960000Y-142650000D03*
X129960000Y-145190000D03*
X129960000Y-147730000D03*
X129960000Y-150270000D03*
D14*
X114000000Y-2300000D03*
D12*
X107000000Y-10540000D03*
X121500000Y-5460000D03*
X121500000Y-8000000D03*
X121500000Y-10540000D03*
X107000000Y-5460000D03*
D14*
X114000000Y-13700000D03*
D12*
X108920000Y-161110000D03*
X111460000Y-161110000D03*
X114000000Y-161110000D03*
X116540000Y-161110000D03*
X119080000Y-161110000D03*
D13*
X108920000Y-179890000D03*
D12*
X111460000Y-179890000D03*
X119080000Y-179890000D03*
X116540000Y-179890000D03*
X114000000Y-179890000D03*
D18*
X122214000Y-174410000D03*
D17*
X122214000Y-178810000D03*
X115016000Y-182198000D03*
D18*
X110616000Y-182198000D03*
X105704000Y-174410000D03*
D17*
X105704000Y-178810000D03*
D18*
X122214000Y-40044000D03*
D17*
X122214000Y-44444000D03*
X115016000Y-49102000D03*
D18*
X110616000Y-49102000D03*
X105704000Y-40298000D03*
D17*
X105704000Y-44698000D03*
X113410000Y-18622000D03*
D18*
X117810000Y-18622000D03*
D20*
X129000000Y-4000000D03*
X104000000Y-19000000D03*
X129000000Y-180000000D03*
M02*
