M48
;DRILL file {KiCad 4.0.4+e1-6308~48~ubuntu14.04.1-stable} date Sun Sep 25 16:18:01 2016
;FORMAT={-:-/ absolute / inch / decimal}
FMAT,2
INCH,TZ
T1C0.016
T2C0.039
T3C0.040
T4C0.110
T5C0.146
%
G90
G05
M72
T1
X4.0316Y-1.0031
X4.0316Y-2.9731
X4.0616Y-1.0431
X4.0616Y-2.8531
X4.1016Y-4.4731
X4.1016Y-5.5231
X4.1316Y-4.3731
X4.1316Y-5.5631
X4.1316Y-6.4531
X4.1416Y-6.7731
X4.1616Y-1.3498
X4.1616Y-1.8931
X4.1616Y-4.2731
X4.1616Y-6.1131
X4.1616Y-6.6898
X4.1716Y-6.2731
X4.1716Y-6.4431
X4.1916Y-4.1731
X4.1916Y-6.0131
X4.2016Y-6.3931
X4.2216Y-4.0731
X4.2216Y-5.9131
X4.2416Y-6.4131
X4.2516Y-1.0031
X4.2516Y-3.9731
X4.2516Y-5.8131
X4.2616Y-1.0431
X4.2816Y-3.1431
X4.2816Y-3.8731
X4.2816Y-5.7131
X4.3116Y-3.7731
X4.3116Y-5.6131
X4.3116Y-6.2331
X4.3316Y-2.8898
X4.3316Y-3.5731
X4.3416Y-6.2731
X4.3616Y-3.4731
X4.3716Y-6.2131
X4.4116Y-6.1831
X4.4416Y-5.8131
X4.4416Y-6.3831
X4.4816Y-3.6731
X4.4816Y-5.6731
X4.495Y-2.7331
X4.495Y-2.8731
X4.5116Y-3.3731
X4.5116Y-5.7631
X4.5282Y-1.9331
X4.5416Y-3.4731
X4.5416Y-5.8631
X4.5716Y-3.5731
X4.5716Y-5.9631
X4.6016Y-3.6731
X4.6016Y-6.0631
X4.6316Y-3.7731
X4.6316Y-5.4131
X4.6416Y-0.7331
X4.6616Y-3.8731
X4.6616Y-6.1631
X4.6916Y-3.9731
X4.6916Y-4.1731
X4.6916Y-5.4631
X4.7216Y-4.0731
X4.7216Y-4.2731
X4.7216Y-6.2431
X4.7316Y-0.6131
X4.7616Y-3.9731
X4.7816Y-6.7031
X4.8116Y-1.5765
X4.8116Y-3.1631
X4.8116Y-6.8665
X4.8441Y-5.4161
X4.8441Y-5.5161
X4.8441Y-5.6161
X4.8441Y-5.7161
X4.8441Y-5.8161
X4.8441Y-5.9161
X4.8441Y-6.0161
X4.8441Y-6.1161
X4.8441Y-6.2161
X4.8441Y-6.3161
X4.8716Y-0.3131
X4.9116Y-1.1731
X4.9416Y-1.9531
X4.9516Y-6.3931
X4.9616Y-6.1931
X4.9716Y-0.5631
X4.9716Y-0.6131
X4.9716Y-2.6531
X4.9816Y-6.4131
X5.0016Y-1.9231
X5.0016Y-2.8031
X5.0316Y-0.7231
X5.0316Y-1.0331
X5.0316Y-1.8931
X5.0984Y-5.3543
X5.1116Y-5.4631
X5.1116Y-5.5631
X5.1116Y-5.6731
X5.1116Y-5.7631
X5.1116Y-5.8631
X5.1116Y-5.9631
X5.1116Y-6.0731
X5.1116Y-6.1631
X5.1116Y-6.2631
T2
X4.2126Y-0.215
X4.2126Y-0.415
X4.2126Y-2.7051
X4.2126Y-2.9051
X4.2882Y-1.0969
X4.2882Y-1.8362
X4.2882Y-6.3429
X4.2882Y-7.0823
X4.3882Y-1.0969
X4.3882Y-1.8362
X4.3882Y-6.3429
X4.3882Y-7.0823
X4.4882Y-1.0969
X4.4882Y-1.8362
X4.4882Y-6.3429
X4.4882Y-7.0823
X4.5882Y-1.0969
X4.5882Y-1.8362
X4.5882Y-6.3429
X4.5882Y-7.0823
X4.6882Y-1.0969
X4.6882Y-1.8362
X4.6882Y-6.3429
X4.6882Y-7.0823
X4.7835Y-0.215
X4.7835Y-0.315
X4.7835Y-0.415
X4.7835Y-2.7051
X4.7835Y-2.8051
X4.7835Y-2.9051
T3
X4.0291Y-3.3732
X4.0291Y-3.4732
X4.0291Y-3.5732
X4.0291Y-3.6732
X4.0291Y-3.7732
X4.0291Y-3.8732
X4.0291Y-3.9732
X4.0291Y-4.0732
X4.0291Y-4.1732
X4.0291Y-4.2732
X4.0291Y-4.3732
X4.0291Y-4.4732
X4.0291Y-4.5732
X4.0291Y-4.6732
X4.0291Y-4.7732
X4.0291Y-4.8732
X4.8291Y-3.3732
X4.8291Y-3.4732
X4.8291Y-3.5732
X4.8291Y-3.6732
X4.8291Y-3.7732
X4.8291Y-3.8732
X4.8291Y-3.9732
X4.8291Y-4.0732
X4.8291Y-4.1732
X4.8291Y-4.2732
T4
X4.4882Y-0.0906
X4.4882Y-0.5394
X4.4882Y-2.5807
X4.4882Y-3.0295
T5
X4.0945Y-0.748
X5.0787Y-0.1575
X5.0787Y-7.0866
T0
M30
