G04 #@! TF.FileFunction,Copper,L2,Bot,Signal*
%FSLAX46Y46*%
G04 Gerber Fmt 4.6, Leading zero omitted, Abs format (unit mm)*
G04 Created by KiCad (PCBNEW 4.0.4+e1-6308~48~ubuntu14.04.1-stable) date Sun Sep 25 16:17:57 2016*
%MOMM*%
%LPD*%
G01*
G04 APERTURE LIST*
%ADD10C,0.100000*%
%ADD11C,1.500000*%
%ADD12R,1.500000X1.500000*%
%ADD13C,4.000000*%
%ADD14O,2.032000X2.032000*%
%ADD15R,2.032000X2.032000*%
%ADD16R,2.000000X1.800000*%
%ADD17R,1.800000X2.000000*%
%ADD18R,4.380000X0.890000*%
%ADD19C,7.000000*%
%ADD20C,0.600000*%
%ADD21C,0.250000*%
%ADD22C,0.254000*%
G04 APERTURE END LIST*
D10*
D11*
X108920000Y-27860000D03*
X111460000Y-27860000D03*
X114000000Y-27860000D03*
X116540000Y-27860000D03*
X119080000Y-27860000D03*
D12*
X108920000Y-46640000D03*
D11*
X111460000Y-46640000D03*
X119080000Y-46640000D03*
X116540000Y-46640000D03*
X114000000Y-46640000D03*
D13*
X114000000Y-65550000D03*
D11*
X107000000Y-73790000D03*
X121500000Y-68710000D03*
X121500000Y-71250000D03*
X121500000Y-73790000D03*
X107000000Y-68710000D03*
D13*
X114000000Y-76950000D03*
D14*
X122660000Y-108540000D03*
X122660000Y-106000000D03*
X122660000Y-103460000D03*
X122660000Y-100920000D03*
X122660000Y-98380000D03*
X122660000Y-95840000D03*
X122660000Y-93300000D03*
X122660000Y-90760000D03*
X122660000Y-88220000D03*
X122660000Y-85680000D03*
X102340000Y-85680000D03*
X102340000Y-88220000D03*
X102340000Y-90760000D03*
X102340000Y-93300000D03*
X102340000Y-95840000D03*
X102340000Y-98380000D03*
X102340000Y-100920000D03*
X102340000Y-103460000D03*
X102340000Y-106000000D03*
X102340000Y-108540000D03*
X102340000Y-111080000D03*
X102340000Y-113620000D03*
X102340000Y-116160000D03*
X102340000Y-118700000D03*
D15*
X102340000Y-123780000D03*
D14*
X102340000Y-121240000D03*
D16*
X114680000Y-6176000D03*
D17*
X119080000Y-6176000D03*
D16*
X114680000Y-9986000D03*
D17*
X119080000Y-9986000D03*
X109768000Y-10154000D03*
D16*
X109768000Y-5754000D03*
X114172000Y-69422000D03*
D17*
X118572000Y-69422000D03*
D16*
X114172000Y-72978000D03*
D17*
X118572000Y-72978000D03*
X110022000Y-73400000D03*
D16*
X110022000Y-69000000D03*
D17*
X105704000Y-34284000D03*
D16*
X105704000Y-29884000D03*
D17*
X122214000Y-34030000D03*
D16*
X122214000Y-29630000D03*
D17*
X105704000Y-169920000D03*
D16*
X105704000Y-165520000D03*
D17*
X122214000Y-171444000D03*
D16*
X122214000Y-167044000D03*
D18*
X123040000Y-137570000D03*
X123040000Y-140110000D03*
X123040000Y-142650000D03*
X123040000Y-145190000D03*
X123040000Y-147730000D03*
X123040000Y-150270000D03*
X123040000Y-152810000D03*
X123040000Y-155350000D03*
X123040000Y-157890000D03*
X123040000Y-160430000D03*
X129960000Y-160430000D03*
X129960000Y-157890000D03*
X129960000Y-155350000D03*
X129960000Y-152810000D03*
X129960000Y-137570000D03*
X129960000Y-140110000D03*
X129960000Y-142650000D03*
X129960000Y-145190000D03*
X129960000Y-147730000D03*
X129960000Y-150270000D03*
D13*
X114000000Y-2300000D03*
D11*
X107000000Y-10540000D03*
X121500000Y-5460000D03*
X121500000Y-8000000D03*
X121500000Y-10540000D03*
X107000000Y-5460000D03*
D13*
X114000000Y-13700000D03*
D11*
X108920000Y-161110000D03*
X111460000Y-161110000D03*
X114000000Y-161110000D03*
X116540000Y-161110000D03*
X119080000Y-161110000D03*
D12*
X108920000Y-179890000D03*
D11*
X111460000Y-179890000D03*
X119080000Y-179890000D03*
X116540000Y-179890000D03*
X114000000Y-179890000D03*
D17*
X122214000Y-174410000D03*
D16*
X122214000Y-178810000D03*
X115016000Y-182198000D03*
D17*
X110616000Y-182198000D03*
X105704000Y-174410000D03*
D16*
X105704000Y-178810000D03*
D17*
X122214000Y-40044000D03*
D16*
X122214000Y-44444000D03*
X115016000Y-49102000D03*
D17*
X110616000Y-49102000D03*
X105704000Y-40298000D03*
D16*
X105704000Y-44698000D03*
X113410000Y-18622000D03*
D17*
X117810000Y-18622000D03*
D19*
X129000000Y-4000000D03*
X104000000Y-19000000D03*
X129000000Y-180000000D03*
D20*
X127802000Y-18368000D03*
X126278000Y-14304000D03*
X123738000Y-7954000D03*
X127802000Y-26242000D03*
X127802000Y-48086000D03*
X119928000Y-103458000D03*
X117896000Y-18622000D03*
X127040000Y-48848000D03*
X127040000Y-71200000D03*
X122214000Y-80344000D03*
X108752000Y-79836000D03*
X119166000Y-100918000D03*
X126024000Y-157306000D03*
X112054000Y-157052000D03*
X120944000Y-100918000D03*
X125770000Y-162386000D03*
X126532000Y-162894000D03*
X118404000Y-156544000D03*
X129834000Y-156544000D03*
X118404000Y-98378000D03*
X116880000Y-154004000D03*
X129834000Y-154258000D03*
X116880000Y-93298000D03*
X116118000Y-151464000D03*
X129834000Y-151464000D03*
X116118000Y-90758000D03*
X115356000Y-148924000D03*
X129834000Y-148924000D03*
X115356000Y-88218000D03*
X114594000Y-146384000D03*
X129834000Y-146384000D03*
X114594000Y-85678000D03*
X113832000Y-144098000D03*
X129834000Y-144098000D03*
X113832000Y-93298000D03*
X129500000Y-136000000D03*
X105704000Y-34284000D03*
X124754000Y-29798000D03*
X105704000Y-169920000D03*
X109514000Y-158322000D03*
X105958000Y-159338000D03*
X105958000Y-163656000D03*
X123040000Y-142650000D03*
X109514000Y-142574000D03*
X109514000Y-95838000D03*
X121452000Y-170260000D03*
X107736000Y-162894000D03*
X123040000Y-145190000D03*
X108752000Y-145114000D03*
X108752000Y-98378000D03*
X122214000Y-40044000D03*
X105704000Y-48086000D03*
X112816000Y-147654000D03*
X122214000Y-174410000D03*
X112816000Y-162132000D03*
X123040000Y-147730000D03*
X107990000Y-100918000D03*
X107990000Y-147654000D03*
X104942000Y-163910000D03*
X105196000Y-172038000D03*
X123040000Y-150270000D03*
X107228000Y-150194000D03*
X107228000Y-103458000D03*
X108244000Y-26496000D03*
X103164000Y-26496000D03*
X110022000Y-73400000D03*
X103164000Y-72470000D03*
X123040000Y-152810000D03*
X106466000Y-105998000D03*
X106466000Y-152734000D03*
X102402000Y-25480000D03*
X107990000Y-25480000D03*
X114172000Y-72978000D03*
X102402000Y-75518000D03*
X123040000Y-155350000D03*
X105704000Y-108538000D03*
X105704000Y-155274000D03*
X120182000Y-15574000D03*
X126278000Y-15574000D03*
X114172000Y-69422000D03*
X126278000Y-67390000D03*
X123040000Y-157890000D03*
X110784000Y-88218000D03*
X111038000Y-157814000D03*
X115016000Y-49102000D03*
X125516000Y-49610000D03*
X123040000Y-160430000D03*
X110022000Y-90758000D03*
X110276000Y-159338000D03*
X119928000Y-158576000D03*
X129834000Y-159084000D03*
X119928000Y-108538000D03*
X106720000Y-162386000D03*
X123040000Y-137570000D03*
X117642000Y-95838000D03*
X117642000Y-137494000D03*
X123040000Y-140110000D03*
X104180000Y-113618000D03*
X104180000Y-140288000D03*
X119166000Y-138764000D03*
X129834000Y-138764000D03*
X119166000Y-105998000D03*
X104942000Y-141304000D03*
X129834000Y-141304000D03*
X104942000Y-111078000D03*
D21*
X127802000Y-15828000D02*
X127802000Y-17352000D01*
X123738000Y-11764000D02*
X126278000Y-14304000D01*
X126278000Y-14304000D02*
X127802000Y-15828000D01*
X123738000Y-7954000D02*
X123738000Y-11764000D01*
X119928000Y-84916000D02*
X119928000Y-83646000D01*
X127802000Y-24718000D02*
X127802000Y-18368000D01*
X127802000Y-18368000D02*
X127802000Y-17352000D01*
X127802000Y-17352000D02*
X127802000Y-17098000D01*
X127802000Y-75772000D02*
X127802000Y-48086000D01*
X127802000Y-48086000D02*
X127802000Y-26242000D01*
X127802000Y-26242000D02*
X127802000Y-24718000D01*
X119928000Y-83646000D02*
X127802000Y-75772000D01*
X119928000Y-103458000D02*
X119928000Y-96346000D01*
X119928000Y-96346000D02*
X119928000Y-91774000D01*
X119928000Y-91774000D02*
X119928000Y-86186000D01*
X119928000Y-86186000D02*
X119928000Y-84916000D01*
X119928000Y-84916000D02*
X119928000Y-84662000D01*
X117896000Y-18622000D02*
X117810000Y-18622000D01*
X127040000Y-48848000D02*
X127040000Y-49610000D01*
X107000000Y-73790000D02*
X107000000Y-76814000D01*
X108752000Y-78566000D02*
X108752000Y-79836000D01*
X107000000Y-76814000D02*
X108752000Y-78566000D01*
X123738000Y-78820000D02*
X122214000Y-80344000D01*
X122214000Y-80344000D02*
X119166000Y-83392000D01*
X119166000Y-84916000D02*
X119166000Y-84662000D01*
X119166000Y-100918000D02*
X119166000Y-84916000D01*
X123738000Y-78820000D02*
X127040000Y-75518000D01*
X127040000Y-75518000D02*
X127040000Y-71200000D01*
X127040000Y-71200000D02*
X127040000Y-49610000D01*
X127040000Y-49610000D02*
X127040000Y-49356000D01*
X119166000Y-83392000D02*
X119166000Y-84662000D01*
X111460000Y-161110000D02*
X111460000Y-160186000D01*
X126024000Y-157306000D02*
X125770000Y-157560000D01*
X112054000Y-159592000D02*
X112054000Y-157052000D01*
X111460000Y-160186000D02*
X112054000Y-159592000D01*
X120944000Y-100918000D02*
X120944000Y-131398000D01*
X125770000Y-136224000D02*
X120944000Y-131398000D01*
X125770000Y-162386000D02*
X125770000Y-157560000D01*
X125770000Y-157560000D02*
X125770000Y-136224000D01*
X105704000Y-44698000D02*
X105704000Y-45292000D01*
X105704000Y-45292000D02*
X107052000Y-46640000D01*
X107052000Y-46640000D02*
X108920000Y-46640000D01*
X129960000Y-157890000D02*
X127726000Y-157890000D01*
X126532000Y-159084000D02*
X127726000Y-157890000D01*
X126532000Y-160100000D02*
X126532000Y-159084000D01*
X126532000Y-162894000D02*
X126532000Y-160100000D01*
X129960000Y-157890000D02*
X129960000Y-156670000D01*
X129960000Y-156670000D02*
X129834000Y-156544000D01*
X118404000Y-154766000D02*
X118404000Y-156544000D01*
X118404000Y-144098000D02*
X118404000Y-154766000D01*
X118404000Y-139018000D02*
X118404000Y-144098000D01*
X118404000Y-126064000D02*
X118404000Y-139018000D01*
X118404000Y-113618000D02*
X118404000Y-126064000D01*
X118404000Y-98378000D02*
X118404000Y-113618000D01*
X110616000Y-49102000D02*
X110616000Y-47484000D01*
X110616000Y-47484000D02*
X111460000Y-46640000D01*
X129960000Y-155350000D02*
X129960000Y-154384000D01*
X129960000Y-154384000D02*
X129834000Y-154258000D01*
X116880000Y-148162000D02*
X116880000Y-154004000D01*
X116880000Y-136986000D02*
X116880000Y-148162000D01*
X116880000Y-93298000D02*
X116880000Y-136986000D01*
X119080000Y-46640000D02*
X120358000Y-46640000D01*
X120358000Y-46640000D02*
X122214000Y-44784000D01*
X122214000Y-44784000D02*
X122214000Y-44444000D01*
X129960000Y-152810000D02*
X129960000Y-151590000D01*
X129960000Y-151590000D02*
X129834000Y-151464000D01*
X116118000Y-90758000D02*
X116118000Y-151464000D01*
X116118000Y-151464000D02*
X116118000Y-152734000D01*
X105704000Y-178810000D02*
X105704000Y-179150000D01*
X105704000Y-179150000D02*
X106444000Y-179890000D01*
X106444000Y-179890000D02*
X108920000Y-179890000D01*
X129960000Y-150270000D02*
X129960000Y-149050000D01*
X129960000Y-149050000D02*
X129834000Y-148924000D01*
X115356000Y-88218000D02*
X115356000Y-148924000D01*
X110616000Y-182198000D02*
X110616000Y-180734000D01*
X110616000Y-180734000D02*
X111460000Y-179890000D01*
X129960000Y-147730000D02*
X129960000Y-146510000D01*
X129960000Y-146510000D02*
X129834000Y-146384000D01*
X114594000Y-85678000D02*
X114594000Y-146384000D01*
X119080000Y-179890000D02*
X121430000Y-179890000D01*
X121430000Y-179890000D02*
X122214000Y-179106000D01*
X122214000Y-179106000D02*
X122214000Y-178810000D01*
X129960000Y-145190000D02*
X129960000Y-144224000D01*
X129960000Y-144224000D02*
X129834000Y-144098000D01*
X113832000Y-93298000D02*
X113832000Y-144098000D01*
X129960000Y-137570000D02*
X129960000Y-136460000D01*
X129960000Y-136460000D02*
X129500000Y-136000000D01*
X109514000Y-91266000D02*
X109260000Y-91012000D01*
X109260000Y-91012000D02*
X109260000Y-86440000D01*
X109260000Y-86440000D02*
X119166000Y-76534000D01*
X119166000Y-76534000D02*
X122722000Y-76534000D01*
X122722000Y-76534000D02*
X124754000Y-74502000D01*
X124754000Y-74502000D02*
X124754000Y-52404000D01*
X109514000Y-95838000D02*
X109514000Y-91266000D01*
X124754000Y-29798000D02*
X124754000Y-52404000D01*
X109514000Y-142574000D02*
X109514000Y-158322000D01*
X105958000Y-163656000D02*
X105958000Y-159338000D01*
X109514000Y-95842000D02*
X109514000Y-142320000D01*
X109514000Y-142574000D02*
X109514000Y-142320000D01*
X109514000Y-95838000D02*
X109514000Y-95842000D01*
X109516000Y-95840000D02*
X109514000Y-95842000D01*
X108752000Y-98378000D02*
X108752000Y-85932000D01*
X123992000Y-35808000D02*
X122214000Y-34030000D01*
X123992000Y-73994000D02*
X123992000Y-35808000D01*
X122214000Y-75772000D02*
X123992000Y-73994000D01*
X118912000Y-75772000D02*
X122214000Y-75772000D01*
X108752000Y-85932000D02*
X118912000Y-75772000D01*
X122214000Y-171444000D02*
X122214000Y-171022000D01*
X122214000Y-171022000D02*
X121452000Y-170260000D01*
X107736000Y-162894000D02*
X107482000Y-162640000D01*
X107482000Y-162640000D02*
X107482000Y-160608000D01*
X107482000Y-160608000D02*
X108752000Y-159338000D01*
X108752000Y-159338000D02*
X108752000Y-145114000D01*
X108752000Y-98636000D02*
X108752000Y-145114000D01*
X108752000Y-98378000D02*
X108752000Y-98636000D01*
X105704000Y-48086000D02*
X105704000Y-50880000D01*
X107990000Y-79074000D02*
X105704000Y-76788000D01*
X105704000Y-76788000D02*
X105704000Y-50880000D01*
X107990000Y-79074000D02*
X107990000Y-100918000D01*
X112816000Y-147654000D02*
X112816000Y-162132000D01*
X107990000Y-100918000D02*
X107990000Y-101176000D01*
X107990000Y-101176000D02*
X107990000Y-147654000D01*
X107228000Y-103458000D02*
X107228000Y-79328000D01*
X103926000Y-42076000D02*
X105704000Y-40298000D01*
X103926000Y-76026000D02*
X103926000Y-42076000D01*
X107228000Y-79328000D02*
X103926000Y-76026000D01*
X104942000Y-157306000D02*
X104942000Y-157052000D01*
X104942000Y-163910000D02*
X104942000Y-157306000D01*
X105704000Y-174410000D02*
X105704000Y-172546000D01*
X105704000Y-172546000D02*
X105196000Y-172038000D01*
X107228000Y-154766000D02*
X107228000Y-154258000D01*
X104942000Y-157052000D02*
X107228000Y-154766000D01*
X107228000Y-154512000D02*
X107228000Y-154258000D01*
X107228000Y-154258000D02*
X107228000Y-150194000D01*
X107228000Y-103462000D02*
X107228000Y-150194000D01*
X107228000Y-103458000D02*
X107228000Y-103462000D01*
X107226000Y-103460000D02*
X107228000Y-103462000D01*
X113410000Y-21330000D02*
X113410000Y-18622000D01*
X108244000Y-26496000D02*
X113410000Y-21330000D01*
X106466000Y-105998000D02*
X106466000Y-79582000D01*
X103164000Y-76280000D02*
X103164000Y-72470000D01*
X103164000Y-72470000D02*
X103164000Y-26496000D01*
X106466000Y-79582000D02*
X103164000Y-76280000D01*
X106466000Y-105998000D02*
X106466000Y-106256000D01*
X106466000Y-106256000D02*
X106466000Y-152734000D01*
X109768000Y-10154000D02*
X109768000Y-23956000D01*
X108244000Y-25480000D02*
X107990000Y-25480000D01*
X109768000Y-23956000D02*
X108244000Y-25480000D01*
X105704000Y-108538000D02*
X105704000Y-79836000D01*
X102402000Y-76534000D02*
X102402000Y-75518000D01*
X102402000Y-75518000D02*
X102402000Y-25480000D01*
X105704000Y-79836000D02*
X102402000Y-76534000D01*
X105704000Y-108538000D02*
X105704000Y-108796000D01*
X105704000Y-108796000D02*
X105704000Y-155020000D01*
X105704000Y-155274000D02*
X105704000Y-155020000D01*
X114680000Y-9986000D02*
X114680000Y-10072000D01*
X114680000Y-10072000D02*
X120182000Y-15574000D01*
X126278000Y-67390000D02*
X126278000Y-17352000D01*
X126278000Y-15574000D02*
X126278000Y-17352000D01*
X110784000Y-88218000D02*
X110784000Y-87202000D01*
X126278000Y-75010000D02*
X126278000Y-67390000D01*
X123230000Y-78058000D02*
X126278000Y-75010000D01*
X119928000Y-78058000D02*
X123230000Y-78058000D01*
X110784000Y-87202000D02*
X119928000Y-78058000D01*
X110784000Y-88218000D02*
X111038000Y-88472000D01*
X111038000Y-88472000D02*
X111038000Y-153750000D01*
X111038000Y-157814000D02*
X111038000Y-153750000D01*
X125516000Y-16844000D02*
X125516000Y-15066000D01*
X125516000Y-49102000D02*
X125516000Y-24718000D01*
X125516000Y-49610000D02*
X125516000Y-49102000D01*
X125516000Y-24718000D02*
X125516000Y-16844000D01*
X116712000Y-4144000D02*
X114680000Y-6176000D01*
X122214000Y-4144000D02*
X116712000Y-4144000D01*
X122976000Y-4906000D02*
X122214000Y-4144000D01*
X122976000Y-12526000D02*
X122976000Y-4906000D01*
X125516000Y-15066000D02*
X122976000Y-12526000D01*
X110022000Y-90758000D02*
X110022000Y-86948000D01*
X125516000Y-74756000D02*
X125516000Y-49610000D01*
X122976000Y-77296000D02*
X125516000Y-74756000D01*
X119674000Y-77296000D02*
X122976000Y-77296000D01*
X110022000Y-86948000D02*
X119674000Y-77296000D01*
X115016000Y-182198000D02*
X121960000Y-182198000D01*
X123738000Y-161128000D02*
X123040000Y-160430000D01*
X123738000Y-180420000D02*
X123738000Y-161128000D01*
X121960000Y-182198000D02*
X123738000Y-180420000D01*
X110022000Y-90758000D02*
X110276000Y-91012000D01*
X110276000Y-91012000D02*
X110276000Y-154258000D01*
X110276000Y-159338000D02*
X110276000Y-154258000D01*
X129960000Y-160430000D02*
X129960000Y-159210000D01*
X119928000Y-158576000D02*
X119928000Y-156798000D01*
X129960000Y-159210000D02*
X129834000Y-159084000D01*
X119928000Y-109300000D02*
X119928000Y-108538000D01*
X119928000Y-157052000D02*
X119928000Y-156798000D01*
X119928000Y-156798000D02*
X119928000Y-109300000D01*
X119080000Y-6176000D02*
X119080000Y-6008000D01*
X119080000Y-6008000D02*
X119628000Y-5460000D01*
X119628000Y-5460000D02*
X121500000Y-5460000D01*
X121500000Y-10540000D02*
X119634000Y-10540000D01*
X119634000Y-10540000D02*
X119080000Y-9986000D01*
X107000000Y-5460000D02*
X109474000Y-5460000D01*
X109474000Y-5460000D02*
X109768000Y-5754000D01*
X118572000Y-69422000D02*
X118658000Y-69422000D01*
X118658000Y-69422000D02*
X119370000Y-68710000D01*
X119370000Y-68710000D02*
X121500000Y-68710000D01*
X118572000Y-72978000D02*
X118572000Y-73146000D01*
X118572000Y-73146000D02*
X119216000Y-73790000D01*
X119216000Y-73790000D02*
X121500000Y-73790000D01*
X110022000Y-69000000D02*
X107290000Y-69000000D01*
X107290000Y-69000000D02*
X107000000Y-68710000D01*
X108920000Y-27860000D02*
X107642000Y-27860000D01*
X107642000Y-27860000D02*
X105704000Y-29798000D01*
X105704000Y-29798000D02*
X105704000Y-29884000D01*
X119080000Y-27860000D02*
X120530000Y-27860000D01*
X120530000Y-27860000D02*
X122214000Y-29544000D01*
X122214000Y-29544000D02*
X122214000Y-29630000D01*
X105704000Y-165520000D02*
X105704000Y-165180000D01*
X105704000Y-165180000D02*
X106720000Y-164164000D01*
X106720000Y-164164000D02*
X106720000Y-162386000D01*
X122214000Y-167044000D02*
X122214000Y-163402000D01*
X120610000Y-162640000D02*
X119080000Y-161110000D01*
X121452000Y-162640000D02*
X120610000Y-162640000D01*
X122214000Y-163402000D02*
X121452000Y-162640000D01*
X117642000Y-95838000D02*
X117642000Y-137494000D01*
X104180000Y-113618000D02*
X104180000Y-115396000D01*
X104180000Y-115396000D02*
X104180000Y-140288000D01*
X102340000Y-113620000D02*
X102404000Y-113620000D01*
X129960000Y-140110000D02*
X129960000Y-138890000D01*
X129960000Y-138890000D02*
X129834000Y-138764000D01*
X119166000Y-105998000D02*
X119166000Y-138764000D01*
X129960000Y-142650000D02*
X129960000Y-141430000D01*
X129960000Y-141430000D02*
X129834000Y-141304000D01*
X104942000Y-113618000D02*
X104942000Y-141304000D01*
X104942000Y-111078000D02*
X104942000Y-113618000D01*
X102340000Y-111080000D02*
X102404000Y-111080000D01*
D22*
G36*
X125496562Y-1654653D02*
X124865720Y-3173889D01*
X124864284Y-4818894D01*
X125492474Y-6339229D01*
X126654653Y-7503438D01*
X128173889Y-8134280D01*
X129818894Y-8135716D01*
X131339229Y-7507526D01*
X132290000Y-6558413D01*
X132290000Y-136495671D01*
X132276310Y-136490000D01*
X130245750Y-136490000D01*
X130087000Y-136648750D01*
X130087000Y-137443000D01*
X130107000Y-137443000D01*
X130107000Y-137697000D01*
X130087000Y-137697000D01*
X130087000Y-137717000D01*
X129833000Y-137717000D01*
X129833000Y-137697000D01*
X127293750Y-137697000D01*
X127135000Y-137855750D01*
X127135000Y-138141309D01*
X127231673Y-138374698D01*
X127410301Y-138553327D01*
X127643690Y-138650000D01*
X128899099Y-138650000D01*
X128898838Y-138949167D01*
X128927097Y-139017560D01*
X127770000Y-139017560D01*
X127534683Y-139061838D01*
X127318559Y-139200910D01*
X127173569Y-139413110D01*
X127122560Y-139665000D01*
X127122560Y-140555000D01*
X127166838Y-140790317D01*
X127305910Y-141006441D01*
X127518110Y-141151431D01*
X127770000Y-141202440D01*
X128899088Y-141202440D01*
X128898838Y-141489167D01*
X128927097Y-141557560D01*
X127770000Y-141557560D01*
X127534683Y-141601838D01*
X127318559Y-141740910D01*
X127173569Y-141953110D01*
X127122560Y-142205000D01*
X127122560Y-143095000D01*
X127166838Y-143330317D01*
X127305910Y-143546441D01*
X127518110Y-143691431D01*
X127770000Y-143742440D01*
X128969238Y-143742440D01*
X128899162Y-143911201D01*
X128899000Y-144097560D01*
X127770000Y-144097560D01*
X127534683Y-144141838D01*
X127318559Y-144280910D01*
X127173569Y-144493110D01*
X127122560Y-144745000D01*
X127122560Y-145635000D01*
X127166838Y-145870317D01*
X127305910Y-146086441D01*
X127518110Y-146231431D01*
X127770000Y-146282440D01*
X128899088Y-146282440D01*
X128898838Y-146569167D01*
X128927097Y-146637560D01*
X127770000Y-146637560D01*
X127534683Y-146681838D01*
X127318559Y-146820910D01*
X127173569Y-147033110D01*
X127122560Y-147285000D01*
X127122560Y-148175000D01*
X127166838Y-148410317D01*
X127305910Y-148626441D01*
X127518110Y-148771431D01*
X127770000Y-148822440D01*
X128899088Y-148822440D01*
X128898838Y-149109167D01*
X128927097Y-149177560D01*
X127770000Y-149177560D01*
X127534683Y-149221838D01*
X127318559Y-149360910D01*
X127173569Y-149573110D01*
X127122560Y-149825000D01*
X127122560Y-150715000D01*
X127166838Y-150950317D01*
X127305910Y-151166441D01*
X127518110Y-151311431D01*
X127770000Y-151362440D01*
X128899088Y-151362440D01*
X128898838Y-151649167D01*
X128927097Y-151717560D01*
X127770000Y-151717560D01*
X127534683Y-151761838D01*
X127318559Y-151900910D01*
X127173569Y-152113110D01*
X127122560Y-152365000D01*
X127122560Y-153255000D01*
X127166838Y-153490317D01*
X127305910Y-153706441D01*
X127518110Y-153851431D01*
X127770000Y-153902440D01*
X128969238Y-153902440D01*
X128899162Y-154071201D01*
X128899000Y-154257560D01*
X127770000Y-154257560D01*
X127534683Y-154301838D01*
X127318559Y-154440910D01*
X127173569Y-154653110D01*
X127122560Y-154905000D01*
X127122560Y-155795000D01*
X127166838Y-156030317D01*
X127305910Y-156246441D01*
X127518110Y-156391431D01*
X127770000Y-156442440D01*
X128899088Y-156442440D01*
X128898838Y-156729167D01*
X128927097Y-156797560D01*
X127770000Y-156797560D01*
X127534683Y-156841838D01*
X127318559Y-156980910D01*
X127173569Y-157193110D01*
X127129254Y-157411944D01*
X126895241Y-157645957D01*
X126958838Y-157492799D01*
X126959162Y-157120833D01*
X126817117Y-156777057D01*
X126554327Y-156513808D01*
X126530000Y-156503706D01*
X126530000Y-136998691D01*
X127135000Y-136998691D01*
X127135000Y-137284250D01*
X127293750Y-137443000D01*
X129833000Y-137443000D01*
X129833000Y-136648750D01*
X129674250Y-136490000D01*
X127643690Y-136490000D01*
X127410301Y-136586673D01*
X127231673Y-136765302D01*
X127135000Y-136998691D01*
X126530000Y-136998691D01*
X126530000Y-136224000D01*
X126472148Y-135933161D01*
X126307401Y-135686599D01*
X121704000Y-131083198D01*
X121704000Y-109870320D01*
X121995845Y-110065325D01*
X122627655Y-110191000D01*
X122692345Y-110191000D01*
X123324155Y-110065325D01*
X123859778Y-109707433D01*
X124217670Y-109171810D01*
X124343345Y-108540000D01*
X124217670Y-107908190D01*
X123859778Y-107372567D01*
X123706276Y-107270000D01*
X123859778Y-107167433D01*
X124217670Y-106631810D01*
X124343345Y-106000000D01*
X124217670Y-105368190D01*
X123859778Y-104832567D01*
X123706276Y-104730000D01*
X123859778Y-104627433D01*
X124217670Y-104091810D01*
X124343345Y-103460000D01*
X124217670Y-102828190D01*
X123859778Y-102292567D01*
X123706276Y-102190000D01*
X123859778Y-102087433D01*
X124217670Y-101551810D01*
X124343345Y-100920000D01*
X124217670Y-100288190D01*
X123859778Y-99752567D01*
X123706276Y-99650000D01*
X123859778Y-99547433D01*
X124217670Y-99011810D01*
X124343345Y-98380000D01*
X124217670Y-97748190D01*
X123859778Y-97212567D01*
X123706276Y-97110000D01*
X123859778Y-97007433D01*
X124217670Y-96471810D01*
X124343345Y-95840000D01*
X124217670Y-95208190D01*
X123859778Y-94672567D01*
X123706276Y-94570000D01*
X123859778Y-94467433D01*
X124217670Y-93931810D01*
X124343345Y-93300000D01*
X124217670Y-92668190D01*
X123859778Y-92132567D01*
X123706276Y-92030000D01*
X123859778Y-91927433D01*
X124217670Y-91391810D01*
X124343345Y-90760000D01*
X124217670Y-90128190D01*
X123859778Y-89592567D01*
X123706276Y-89490000D01*
X123859778Y-89387433D01*
X124217670Y-88851810D01*
X124343345Y-88220000D01*
X124217670Y-87588190D01*
X123859778Y-87052567D01*
X123706276Y-86950000D01*
X123859778Y-86847433D01*
X124217670Y-86311810D01*
X124343345Y-85680000D01*
X124217670Y-85048190D01*
X123859778Y-84512567D01*
X123324155Y-84154675D01*
X122692345Y-84029000D01*
X122627655Y-84029000D01*
X121995845Y-84154675D01*
X121460222Y-84512567D01*
X121102330Y-85048190D01*
X120976655Y-85680000D01*
X121102330Y-86311810D01*
X121460222Y-86847433D01*
X121613724Y-86950000D01*
X121460222Y-87052567D01*
X121102330Y-87588190D01*
X120976655Y-88220000D01*
X121102330Y-88851810D01*
X121460222Y-89387433D01*
X121613724Y-89490000D01*
X121460222Y-89592567D01*
X121102330Y-90128190D01*
X120976655Y-90760000D01*
X121102330Y-91391810D01*
X121460222Y-91927433D01*
X121613724Y-92030000D01*
X121460222Y-92132567D01*
X121102330Y-92668190D01*
X120976655Y-93300000D01*
X121102330Y-93931810D01*
X121460222Y-94467433D01*
X121613724Y-94570000D01*
X121460222Y-94672567D01*
X121102330Y-95208190D01*
X120976655Y-95840000D01*
X121102330Y-96471810D01*
X121460222Y-97007433D01*
X121613724Y-97110000D01*
X121460222Y-97212567D01*
X121102330Y-97748190D01*
X120976655Y-98380000D01*
X121102330Y-99011810D01*
X121460222Y-99547433D01*
X121613724Y-99650000D01*
X121460222Y-99752567D01*
X121268060Y-100040158D01*
X121130799Y-99983162D01*
X120758833Y-99982838D01*
X120688000Y-100012106D01*
X120688000Y-83960802D01*
X128339401Y-76309401D01*
X128504148Y-76062839D01*
X128562000Y-75772000D01*
X128562000Y-48648463D01*
X128594192Y-48616327D01*
X128736838Y-48272799D01*
X128737162Y-47900833D01*
X128595117Y-47557057D01*
X128562000Y-47523882D01*
X128562000Y-26804463D01*
X128594192Y-26772327D01*
X128736838Y-26428799D01*
X128737162Y-26056833D01*
X128595117Y-25713057D01*
X128562000Y-25679882D01*
X128562000Y-18930463D01*
X128594192Y-18898327D01*
X128736838Y-18554799D01*
X128737162Y-18182833D01*
X128595117Y-17839057D01*
X128562000Y-17805882D01*
X128562000Y-15828000D01*
X128504148Y-15537161D01*
X128504148Y-15537160D01*
X128339401Y-15290599D01*
X127213122Y-14164320D01*
X127213162Y-14118833D01*
X127071117Y-13775057D01*
X126808327Y-13511808D01*
X126464799Y-13369162D01*
X126417923Y-13369121D01*
X124498000Y-11449198D01*
X124498000Y-8516463D01*
X124530192Y-8484327D01*
X124672838Y-8140799D01*
X124673162Y-7768833D01*
X124531117Y-7425057D01*
X124268327Y-7161808D01*
X123924799Y-7019162D01*
X123736000Y-7018998D01*
X123736000Y-4906000D01*
X123678148Y-4615161D01*
X123513401Y-4368599D01*
X122751401Y-3606599D01*
X122504839Y-3441852D01*
X122214000Y-3384000D01*
X116712000Y-3384000D01*
X116421161Y-3441852D01*
X116362808Y-3480842D01*
X116634542Y-2826433D01*
X116635457Y-1778166D01*
X116235147Y-809342D01*
X116135978Y-710000D01*
X126442865Y-710000D01*
X125496562Y-1654653D01*
X125496562Y-1654653D01*
G37*
X125496562Y-1654653D02*
X124865720Y-3173889D01*
X124864284Y-4818894D01*
X125492474Y-6339229D01*
X126654653Y-7503438D01*
X128173889Y-8134280D01*
X129818894Y-8135716D01*
X131339229Y-7507526D01*
X132290000Y-6558413D01*
X132290000Y-136495671D01*
X132276310Y-136490000D01*
X130245750Y-136490000D01*
X130087000Y-136648750D01*
X130087000Y-137443000D01*
X130107000Y-137443000D01*
X130107000Y-137697000D01*
X130087000Y-137697000D01*
X130087000Y-137717000D01*
X129833000Y-137717000D01*
X129833000Y-137697000D01*
X127293750Y-137697000D01*
X127135000Y-137855750D01*
X127135000Y-138141309D01*
X127231673Y-138374698D01*
X127410301Y-138553327D01*
X127643690Y-138650000D01*
X128899099Y-138650000D01*
X128898838Y-138949167D01*
X128927097Y-139017560D01*
X127770000Y-139017560D01*
X127534683Y-139061838D01*
X127318559Y-139200910D01*
X127173569Y-139413110D01*
X127122560Y-139665000D01*
X127122560Y-140555000D01*
X127166838Y-140790317D01*
X127305910Y-141006441D01*
X127518110Y-141151431D01*
X127770000Y-141202440D01*
X128899088Y-141202440D01*
X128898838Y-141489167D01*
X128927097Y-141557560D01*
X127770000Y-141557560D01*
X127534683Y-141601838D01*
X127318559Y-141740910D01*
X127173569Y-141953110D01*
X127122560Y-142205000D01*
X127122560Y-143095000D01*
X127166838Y-143330317D01*
X127305910Y-143546441D01*
X127518110Y-143691431D01*
X127770000Y-143742440D01*
X128969238Y-143742440D01*
X128899162Y-143911201D01*
X128899000Y-144097560D01*
X127770000Y-144097560D01*
X127534683Y-144141838D01*
X127318559Y-144280910D01*
X127173569Y-144493110D01*
X127122560Y-144745000D01*
X127122560Y-145635000D01*
X127166838Y-145870317D01*
X127305910Y-146086441D01*
X127518110Y-146231431D01*
X127770000Y-146282440D01*
X128899088Y-146282440D01*
X128898838Y-146569167D01*
X128927097Y-146637560D01*
X127770000Y-146637560D01*
X127534683Y-146681838D01*
X127318559Y-146820910D01*
X127173569Y-147033110D01*
X127122560Y-147285000D01*
X127122560Y-148175000D01*
X127166838Y-148410317D01*
X127305910Y-148626441D01*
X127518110Y-148771431D01*
X127770000Y-148822440D01*
X128899088Y-148822440D01*
X128898838Y-149109167D01*
X128927097Y-149177560D01*
X127770000Y-149177560D01*
X127534683Y-149221838D01*
X127318559Y-149360910D01*
X127173569Y-149573110D01*
X127122560Y-149825000D01*
X127122560Y-150715000D01*
X127166838Y-150950317D01*
X127305910Y-151166441D01*
X127518110Y-151311431D01*
X127770000Y-151362440D01*
X128899088Y-151362440D01*
X128898838Y-151649167D01*
X128927097Y-151717560D01*
X127770000Y-151717560D01*
X127534683Y-151761838D01*
X127318559Y-151900910D01*
X127173569Y-152113110D01*
X127122560Y-152365000D01*
X127122560Y-153255000D01*
X127166838Y-153490317D01*
X127305910Y-153706441D01*
X127518110Y-153851431D01*
X127770000Y-153902440D01*
X128969238Y-153902440D01*
X128899162Y-154071201D01*
X128899000Y-154257560D01*
X127770000Y-154257560D01*
X127534683Y-154301838D01*
X127318559Y-154440910D01*
X127173569Y-154653110D01*
X127122560Y-154905000D01*
X127122560Y-155795000D01*
X127166838Y-156030317D01*
X127305910Y-156246441D01*
X127518110Y-156391431D01*
X127770000Y-156442440D01*
X128899088Y-156442440D01*
X128898838Y-156729167D01*
X128927097Y-156797560D01*
X127770000Y-156797560D01*
X127534683Y-156841838D01*
X127318559Y-156980910D01*
X127173569Y-157193110D01*
X127129254Y-157411944D01*
X126895241Y-157645957D01*
X126958838Y-157492799D01*
X126959162Y-157120833D01*
X126817117Y-156777057D01*
X126554327Y-156513808D01*
X126530000Y-156503706D01*
X126530000Y-136998691D01*
X127135000Y-136998691D01*
X127135000Y-137284250D01*
X127293750Y-137443000D01*
X129833000Y-137443000D01*
X129833000Y-136648750D01*
X129674250Y-136490000D01*
X127643690Y-136490000D01*
X127410301Y-136586673D01*
X127231673Y-136765302D01*
X127135000Y-136998691D01*
X126530000Y-136998691D01*
X126530000Y-136224000D01*
X126472148Y-135933161D01*
X126307401Y-135686599D01*
X121704000Y-131083198D01*
X121704000Y-109870320D01*
X121995845Y-110065325D01*
X122627655Y-110191000D01*
X122692345Y-110191000D01*
X123324155Y-110065325D01*
X123859778Y-109707433D01*
X124217670Y-109171810D01*
X124343345Y-108540000D01*
X124217670Y-107908190D01*
X123859778Y-107372567D01*
X123706276Y-107270000D01*
X123859778Y-107167433D01*
X124217670Y-106631810D01*
X124343345Y-106000000D01*
X124217670Y-105368190D01*
X123859778Y-104832567D01*
X123706276Y-104730000D01*
X123859778Y-104627433D01*
X124217670Y-104091810D01*
X124343345Y-103460000D01*
X124217670Y-102828190D01*
X123859778Y-102292567D01*
X123706276Y-102190000D01*
X123859778Y-102087433D01*
X124217670Y-101551810D01*
X124343345Y-100920000D01*
X124217670Y-100288190D01*
X123859778Y-99752567D01*
X123706276Y-99650000D01*
X123859778Y-99547433D01*
X124217670Y-99011810D01*
X124343345Y-98380000D01*
X124217670Y-97748190D01*
X123859778Y-97212567D01*
X123706276Y-97110000D01*
X123859778Y-97007433D01*
X124217670Y-96471810D01*
X124343345Y-95840000D01*
X124217670Y-95208190D01*
X123859778Y-94672567D01*
X123706276Y-94570000D01*
X123859778Y-94467433D01*
X124217670Y-93931810D01*
X124343345Y-93300000D01*
X124217670Y-92668190D01*
X123859778Y-92132567D01*
X123706276Y-92030000D01*
X123859778Y-91927433D01*
X124217670Y-91391810D01*
X124343345Y-90760000D01*
X124217670Y-90128190D01*
X123859778Y-89592567D01*
X123706276Y-89490000D01*
X123859778Y-89387433D01*
X124217670Y-88851810D01*
X124343345Y-88220000D01*
X124217670Y-87588190D01*
X123859778Y-87052567D01*
X123706276Y-86950000D01*
X123859778Y-86847433D01*
X124217670Y-86311810D01*
X124343345Y-85680000D01*
X124217670Y-85048190D01*
X123859778Y-84512567D01*
X123324155Y-84154675D01*
X122692345Y-84029000D01*
X122627655Y-84029000D01*
X121995845Y-84154675D01*
X121460222Y-84512567D01*
X121102330Y-85048190D01*
X120976655Y-85680000D01*
X121102330Y-86311810D01*
X121460222Y-86847433D01*
X121613724Y-86950000D01*
X121460222Y-87052567D01*
X121102330Y-87588190D01*
X120976655Y-88220000D01*
X121102330Y-88851810D01*
X121460222Y-89387433D01*
X121613724Y-89490000D01*
X121460222Y-89592567D01*
X121102330Y-90128190D01*
X120976655Y-90760000D01*
X121102330Y-91391810D01*
X121460222Y-91927433D01*
X121613724Y-92030000D01*
X121460222Y-92132567D01*
X121102330Y-92668190D01*
X120976655Y-93300000D01*
X121102330Y-93931810D01*
X121460222Y-94467433D01*
X121613724Y-94570000D01*
X121460222Y-94672567D01*
X121102330Y-95208190D01*
X120976655Y-95840000D01*
X121102330Y-96471810D01*
X121460222Y-97007433D01*
X121613724Y-97110000D01*
X121460222Y-97212567D01*
X121102330Y-97748190D01*
X120976655Y-98380000D01*
X121102330Y-99011810D01*
X121460222Y-99547433D01*
X121613724Y-99650000D01*
X121460222Y-99752567D01*
X121268060Y-100040158D01*
X121130799Y-99983162D01*
X120758833Y-99982838D01*
X120688000Y-100012106D01*
X120688000Y-83960802D01*
X128339401Y-76309401D01*
X128504148Y-76062839D01*
X128562000Y-75772000D01*
X128562000Y-48648463D01*
X128594192Y-48616327D01*
X128736838Y-48272799D01*
X128737162Y-47900833D01*
X128595117Y-47557057D01*
X128562000Y-47523882D01*
X128562000Y-26804463D01*
X128594192Y-26772327D01*
X128736838Y-26428799D01*
X128737162Y-26056833D01*
X128595117Y-25713057D01*
X128562000Y-25679882D01*
X128562000Y-18930463D01*
X128594192Y-18898327D01*
X128736838Y-18554799D01*
X128737162Y-18182833D01*
X128595117Y-17839057D01*
X128562000Y-17805882D01*
X128562000Y-15828000D01*
X128504148Y-15537161D01*
X128504148Y-15537160D01*
X128339401Y-15290599D01*
X127213122Y-14164320D01*
X127213162Y-14118833D01*
X127071117Y-13775057D01*
X126808327Y-13511808D01*
X126464799Y-13369162D01*
X126417923Y-13369121D01*
X124498000Y-11449198D01*
X124498000Y-8516463D01*
X124530192Y-8484327D01*
X124672838Y-8140799D01*
X124673162Y-7768833D01*
X124531117Y-7425057D01*
X124268327Y-7161808D01*
X123924799Y-7019162D01*
X123736000Y-7018998D01*
X123736000Y-4906000D01*
X123678148Y-4615161D01*
X123513401Y-4368599D01*
X122751401Y-3606599D01*
X122504839Y-3441852D01*
X122214000Y-3384000D01*
X116712000Y-3384000D01*
X116421161Y-3441852D01*
X116362808Y-3480842D01*
X116634542Y-2826433D01*
X116635457Y-1778166D01*
X116235147Y-809342D01*
X116135978Y-710000D01*
X126442865Y-710000D01*
X125496562Y-1654653D01*
G36*
X102467000Y-116033000D02*
X102487000Y-116033000D01*
X102487000Y-116287000D01*
X102467000Y-116287000D01*
X102467000Y-116307000D01*
X102213000Y-116307000D01*
X102213000Y-116287000D01*
X102193000Y-116287000D01*
X102193000Y-116033000D01*
X102213000Y-116033000D01*
X102213000Y-116013000D01*
X102467000Y-116013000D01*
X102467000Y-116033000D01*
X102467000Y-116033000D01*
G37*
X102467000Y-116033000D02*
X102487000Y-116033000D01*
X102487000Y-116287000D01*
X102467000Y-116287000D01*
X102467000Y-116307000D01*
X102213000Y-116307000D01*
X102213000Y-116287000D01*
X102193000Y-116287000D01*
X102193000Y-116033000D01*
X102213000Y-116033000D01*
X102213000Y-116013000D01*
X102467000Y-116013000D01*
X102467000Y-116033000D01*
G36*
X111767458Y-805443D02*
X111365458Y-1773567D01*
X111364543Y-2821834D01*
X111764853Y-3790658D01*
X112505443Y-4532542D01*
X113217437Y-4828188D01*
X113083569Y-5024110D01*
X113032560Y-5276000D01*
X113032560Y-7076000D01*
X113076838Y-7311317D01*
X113215910Y-7527441D01*
X113428110Y-7672431D01*
X113680000Y-7723440D01*
X115680000Y-7723440D01*
X115915317Y-7679162D01*
X116131441Y-7540090D01*
X116276431Y-7327890D01*
X116327440Y-7076000D01*
X116327440Y-5603362D01*
X117026802Y-4904000D01*
X117597310Y-4904000D01*
X117583569Y-4924110D01*
X117532560Y-5176000D01*
X117532560Y-7176000D01*
X117576838Y-7411317D01*
X117715910Y-7627441D01*
X117928110Y-7772431D01*
X118180000Y-7823440D01*
X119980000Y-7823440D01*
X120115176Y-7798005D01*
X120114760Y-8274285D01*
X120156048Y-8374211D01*
X119980000Y-8338560D01*
X118180000Y-8338560D01*
X117944683Y-8382838D01*
X117728559Y-8521910D01*
X117583569Y-8734110D01*
X117532560Y-8986000D01*
X117532560Y-10986000D01*
X117576838Y-11221317D01*
X117715910Y-11437441D01*
X117928110Y-11582431D01*
X118180000Y-11633440D01*
X119980000Y-11633440D01*
X120215317Y-11589162D01*
X120431441Y-11450090D01*
X120439601Y-11438147D01*
X120714436Y-11713461D01*
X121223298Y-11924759D01*
X121774285Y-11925240D01*
X122216000Y-11742728D01*
X122216000Y-12526000D01*
X122273852Y-12816839D01*
X122438599Y-13063401D01*
X124756000Y-15380802D01*
X124756000Y-28863001D01*
X124568833Y-28862838D01*
X124225057Y-29004883D01*
X123961808Y-29267673D01*
X123861440Y-29509385D01*
X123861440Y-28730000D01*
X123817162Y-28494683D01*
X123678090Y-28278559D01*
X123465890Y-28133569D01*
X123214000Y-28082560D01*
X121827362Y-28082560D01*
X121067401Y-27322599D01*
X120820839Y-27157852D01*
X120530000Y-27100000D01*
X120264547Y-27100000D01*
X120254831Y-27076485D01*
X119865564Y-26686539D01*
X119356702Y-26475241D01*
X118805715Y-26474760D01*
X118296485Y-26685169D01*
X117906539Y-27074436D01*
X117810024Y-27306870D01*
X117714831Y-27076485D01*
X117325564Y-26686539D01*
X116816702Y-26475241D01*
X116265715Y-26474760D01*
X115756485Y-26685169D01*
X115366539Y-27074436D01*
X115270024Y-27306870D01*
X115174831Y-27076485D01*
X114785564Y-26686539D01*
X114276702Y-26475241D01*
X113725715Y-26474760D01*
X113216485Y-26685169D01*
X112826539Y-27074436D01*
X112730024Y-27306870D01*
X112634831Y-27076485D01*
X112245564Y-26686539D01*
X111736702Y-26475241D01*
X111185715Y-26474760D01*
X110676485Y-26685169D01*
X110286539Y-27074436D01*
X110190024Y-27306870D01*
X110094831Y-27076485D01*
X109705564Y-26686539D01*
X109297646Y-26517156D01*
X113947401Y-21867401D01*
X114112148Y-21620840D01*
X114170000Y-21330000D01*
X114170000Y-20169440D01*
X114410000Y-20169440D01*
X114645317Y-20125162D01*
X114861441Y-19986090D01*
X115006431Y-19773890D01*
X115057440Y-19522000D01*
X115057440Y-17722000D01*
X115038624Y-17622000D01*
X116262560Y-17622000D01*
X116262560Y-19622000D01*
X116306838Y-19857317D01*
X116445910Y-20073441D01*
X116658110Y-20218431D01*
X116910000Y-20269440D01*
X118710000Y-20269440D01*
X118945317Y-20225162D01*
X119161441Y-20086090D01*
X119306431Y-19873890D01*
X119357440Y-19622000D01*
X119357440Y-17622000D01*
X119313162Y-17386683D01*
X119174090Y-17170559D01*
X118961890Y-17025569D01*
X118710000Y-16974560D01*
X116910000Y-16974560D01*
X116674683Y-17018838D01*
X116458559Y-17157910D01*
X116313569Y-17370110D01*
X116262560Y-17622000D01*
X115038624Y-17622000D01*
X115013162Y-17486683D01*
X114874090Y-17270559D01*
X114661890Y-17125569D01*
X114410000Y-17074560D01*
X112410000Y-17074560D01*
X112174683Y-17118838D01*
X111958559Y-17257910D01*
X111813569Y-17470110D01*
X111762560Y-17722000D01*
X111762560Y-19522000D01*
X111806838Y-19757317D01*
X111945910Y-19973441D01*
X112158110Y-20118431D01*
X112410000Y-20169440D01*
X112650000Y-20169440D01*
X112650000Y-21015198D01*
X110528000Y-23137198D01*
X110528000Y-14221834D01*
X111364543Y-14221834D01*
X111764853Y-15190658D01*
X112505443Y-15932542D01*
X113473567Y-16334542D01*
X114521834Y-16335457D01*
X115490658Y-15935147D01*
X116232542Y-15194557D01*
X116634542Y-14226433D01*
X116635457Y-13178166D01*
X116582008Y-13048810D01*
X119246878Y-15713680D01*
X119246838Y-15759167D01*
X119388883Y-16102943D01*
X119651673Y-16366192D01*
X119995201Y-16508838D01*
X120367167Y-16509162D01*
X120710943Y-16367117D01*
X120974192Y-16104327D01*
X121116838Y-15760799D01*
X121117162Y-15388833D01*
X120975117Y-15045057D01*
X120712327Y-14781808D01*
X120368799Y-14639162D01*
X120321923Y-14639121D01*
X116327440Y-10644638D01*
X116327440Y-9086000D01*
X116283162Y-8850683D01*
X116144090Y-8634559D01*
X115931890Y-8489569D01*
X115680000Y-8438560D01*
X113680000Y-8438560D01*
X113444683Y-8482838D01*
X113228559Y-8621910D01*
X113083569Y-8834110D01*
X113032560Y-9086000D01*
X113032560Y-10886000D01*
X113076838Y-11121317D01*
X113132272Y-11207464D01*
X112509342Y-11464853D01*
X111767458Y-12205443D01*
X111365458Y-13173567D01*
X111364543Y-14221834D01*
X110528000Y-14221834D01*
X110528000Y-11801440D01*
X110668000Y-11801440D01*
X110903317Y-11757162D01*
X111119441Y-11618090D01*
X111264431Y-11405890D01*
X111315440Y-11154000D01*
X111315440Y-9154000D01*
X111271162Y-8918683D01*
X111132090Y-8702559D01*
X110919890Y-8557569D01*
X110668000Y-8506560D01*
X108868000Y-8506560D01*
X108632683Y-8550838D01*
X108416559Y-8689910D01*
X108271569Y-8902110D01*
X108220560Y-9154000D01*
X108220560Y-9867158D01*
X108174831Y-9756485D01*
X107785564Y-9366539D01*
X107276702Y-9155241D01*
X106725715Y-9154760D01*
X106216485Y-9365169D01*
X105826539Y-9754436D01*
X105615241Y-10263298D01*
X105614760Y-10814285D01*
X105825169Y-11323515D01*
X106214436Y-11713461D01*
X106723298Y-11924759D01*
X107274285Y-11925240D01*
X107783515Y-11714831D01*
X108173461Y-11325564D01*
X108228088Y-11194008D01*
X108264838Y-11389317D01*
X108403910Y-11605441D01*
X108616110Y-11750431D01*
X108868000Y-11801440D01*
X109008000Y-11801440D01*
X109008000Y-23641198D01*
X108104099Y-24545099D01*
X107804833Y-24544838D01*
X107461057Y-24686883D01*
X107197808Y-24949673D01*
X107055162Y-25293201D01*
X107054838Y-25665167D01*
X107196883Y-26008943D01*
X107364230Y-26176583D01*
X107309162Y-26309201D01*
X107308838Y-26681167D01*
X107450883Y-27024943D01*
X107545059Y-27119283D01*
X107351161Y-27157852D01*
X107104599Y-27322599D01*
X106090638Y-28336560D01*
X104704000Y-28336560D01*
X104468683Y-28380838D01*
X104252559Y-28519910D01*
X104107569Y-28732110D01*
X104056560Y-28984000D01*
X104056560Y-30784000D01*
X104100838Y-31019317D01*
X104239910Y-31235441D01*
X104452110Y-31380431D01*
X104704000Y-31431440D01*
X106470000Y-31431440D01*
X106470000Y-32636560D01*
X104804000Y-32636560D01*
X104568683Y-32680838D01*
X104352559Y-32819910D01*
X104207569Y-33032110D01*
X104156560Y-33284000D01*
X104156560Y-35284000D01*
X104200838Y-35519317D01*
X104339910Y-35735441D01*
X104552110Y-35880431D01*
X104804000Y-35931440D01*
X106470000Y-35931440D01*
X106470000Y-38650560D01*
X104804000Y-38650560D01*
X104568683Y-38694838D01*
X104352559Y-38833910D01*
X104207569Y-39046110D01*
X104156560Y-39298000D01*
X104156560Y-40770638D01*
X103924000Y-41003198D01*
X103924000Y-27058463D01*
X103956192Y-27026327D01*
X104098838Y-26682799D01*
X104099162Y-26310833D01*
X103957117Y-25967057D01*
X103694327Y-25703808D01*
X103350799Y-25561162D01*
X103336930Y-25561150D01*
X103337162Y-25294833D01*
X103195117Y-24951057D01*
X102932327Y-24687808D01*
X102588799Y-24545162D01*
X102216833Y-24544838D01*
X101873057Y-24686883D01*
X101609808Y-24949673D01*
X101467162Y-25293201D01*
X101466838Y-25665167D01*
X101608883Y-26008943D01*
X101642000Y-26042118D01*
X101642000Y-74955537D01*
X101609808Y-74987673D01*
X101467162Y-75331201D01*
X101466838Y-75703167D01*
X101608883Y-76046943D01*
X101642000Y-76080118D01*
X101642000Y-76534000D01*
X101699852Y-76824839D01*
X101864599Y-77071401D01*
X104944000Y-80150802D01*
X104944000Y-107975537D01*
X104911808Y-108007673D01*
X104769162Y-108351201D01*
X104768838Y-108723167D01*
X104910883Y-109066943D01*
X104944000Y-109100118D01*
X104944000Y-110143001D01*
X104756833Y-110142838D01*
X104413057Y-110284883D01*
X104149808Y-110547673D01*
X104007162Y-110891201D01*
X104007069Y-110998174D01*
X103897670Y-110448190D01*
X103539778Y-109912567D01*
X103386276Y-109810000D01*
X103539778Y-109707433D01*
X103897670Y-109171810D01*
X104023345Y-108540000D01*
X103897670Y-107908190D01*
X103539778Y-107372567D01*
X103386276Y-107270000D01*
X103539778Y-107167433D01*
X103897670Y-106631810D01*
X104023345Y-106000000D01*
X103897670Y-105368190D01*
X103539778Y-104832567D01*
X103386276Y-104730000D01*
X103539778Y-104627433D01*
X103897670Y-104091810D01*
X104023345Y-103460000D01*
X103897670Y-102828190D01*
X103539778Y-102292567D01*
X103386276Y-102190000D01*
X103539778Y-102087433D01*
X103897670Y-101551810D01*
X104023345Y-100920000D01*
X103897670Y-100288190D01*
X103539778Y-99752567D01*
X103386276Y-99650000D01*
X103539778Y-99547433D01*
X103897670Y-99011810D01*
X104023345Y-98380000D01*
X103897670Y-97748190D01*
X103539778Y-97212567D01*
X103386276Y-97110000D01*
X103539778Y-97007433D01*
X103897670Y-96471810D01*
X104023345Y-95840000D01*
X103897670Y-95208190D01*
X103539778Y-94672567D01*
X103386276Y-94570000D01*
X103539778Y-94467433D01*
X103897670Y-93931810D01*
X104023345Y-93300000D01*
X103897670Y-92668190D01*
X103539778Y-92132567D01*
X103386276Y-92030000D01*
X103539778Y-91927433D01*
X103897670Y-91391810D01*
X104023345Y-90760000D01*
X103897670Y-90128190D01*
X103539778Y-89592567D01*
X103386276Y-89490000D01*
X103539778Y-89387433D01*
X103897670Y-88851810D01*
X104023345Y-88220000D01*
X103897670Y-87588190D01*
X103539778Y-87052567D01*
X103376646Y-86943565D01*
X103746385Y-86544818D01*
X103945975Y-86062944D01*
X103826836Y-85807000D01*
X102467000Y-85807000D01*
X102467000Y-85827000D01*
X102213000Y-85827000D01*
X102213000Y-85807000D01*
X102193000Y-85807000D01*
X102193000Y-85553000D01*
X102213000Y-85553000D01*
X102213000Y-84192633D01*
X102467000Y-84192633D01*
X102467000Y-85553000D01*
X103826836Y-85553000D01*
X103945975Y-85297056D01*
X103746385Y-84815182D01*
X103308379Y-84342812D01*
X102722946Y-84074017D01*
X102467000Y-84192633D01*
X102213000Y-84192633D01*
X101957054Y-84074017D01*
X101371621Y-84342812D01*
X100933615Y-84815182D01*
X100734025Y-85297056D01*
X100853163Y-85552998D01*
X100710000Y-85552998D01*
X100710000Y-21557135D01*
X101654653Y-22503438D01*
X103173889Y-23134280D01*
X104818894Y-23135716D01*
X106339229Y-22507526D01*
X107503438Y-21345347D01*
X108134280Y-19826111D01*
X108135716Y-18181106D01*
X107507526Y-16660771D01*
X106345347Y-15496562D01*
X104826111Y-14865720D01*
X103181106Y-14864284D01*
X101660771Y-15492474D01*
X100710000Y-16441587D01*
X100710000Y-5734285D01*
X105614760Y-5734285D01*
X105825169Y-6243515D01*
X106214436Y-6633461D01*
X106723298Y-6844759D01*
X107274285Y-6845240D01*
X107783515Y-6634831D01*
X108120560Y-6298373D01*
X108120560Y-6654000D01*
X108164838Y-6889317D01*
X108303910Y-7105441D01*
X108516110Y-7250431D01*
X108768000Y-7301440D01*
X110768000Y-7301440D01*
X111003317Y-7257162D01*
X111219441Y-7118090D01*
X111364431Y-6905890D01*
X111415440Y-6654000D01*
X111415440Y-4854000D01*
X111371162Y-4618683D01*
X111232090Y-4402559D01*
X111019890Y-4257569D01*
X110768000Y-4206560D01*
X108768000Y-4206560D01*
X108532683Y-4250838D01*
X108316559Y-4389910D01*
X108171569Y-4602110D01*
X108159598Y-4661225D01*
X107785564Y-4286539D01*
X107276702Y-4075241D01*
X106725715Y-4074760D01*
X106216485Y-4285169D01*
X105826539Y-4674436D01*
X105615241Y-5183298D01*
X105614760Y-5734285D01*
X100710000Y-5734285D01*
X100710000Y-710000D01*
X111863068Y-710000D01*
X111767458Y-805443D01*
X111767458Y-805443D01*
G37*
X111767458Y-805443D02*
X111365458Y-1773567D01*
X111364543Y-2821834D01*
X111764853Y-3790658D01*
X112505443Y-4532542D01*
X113217437Y-4828188D01*
X113083569Y-5024110D01*
X113032560Y-5276000D01*
X113032560Y-7076000D01*
X113076838Y-7311317D01*
X113215910Y-7527441D01*
X113428110Y-7672431D01*
X113680000Y-7723440D01*
X115680000Y-7723440D01*
X115915317Y-7679162D01*
X116131441Y-7540090D01*
X116276431Y-7327890D01*
X116327440Y-7076000D01*
X116327440Y-5603362D01*
X117026802Y-4904000D01*
X117597310Y-4904000D01*
X117583569Y-4924110D01*
X117532560Y-5176000D01*
X117532560Y-7176000D01*
X117576838Y-7411317D01*
X117715910Y-7627441D01*
X117928110Y-7772431D01*
X118180000Y-7823440D01*
X119980000Y-7823440D01*
X120115176Y-7798005D01*
X120114760Y-8274285D01*
X120156048Y-8374211D01*
X119980000Y-8338560D01*
X118180000Y-8338560D01*
X117944683Y-8382838D01*
X117728559Y-8521910D01*
X117583569Y-8734110D01*
X117532560Y-8986000D01*
X117532560Y-10986000D01*
X117576838Y-11221317D01*
X117715910Y-11437441D01*
X117928110Y-11582431D01*
X118180000Y-11633440D01*
X119980000Y-11633440D01*
X120215317Y-11589162D01*
X120431441Y-11450090D01*
X120439601Y-11438147D01*
X120714436Y-11713461D01*
X121223298Y-11924759D01*
X121774285Y-11925240D01*
X122216000Y-11742728D01*
X122216000Y-12526000D01*
X122273852Y-12816839D01*
X122438599Y-13063401D01*
X124756000Y-15380802D01*
X124756000Y-28863001D01*
X124568833Y-28862838D01*
X124225057Y-29004883D01*
X123961808Y-29267673D01*
X123861440Y-29509385D01*
X123861440Y-28730000D01*
X123817162Y-28494683D01*
X123678090Y-28278559D01*
X123465890Y-28133569D01*
X123214000Y-28082560D01*
X121827362Y-28082560D01*
X121067401Y-27322599D01*
X120820839Y-27157852D01*
X120530000Y-27100000D01*
X120264547Y-27100000D01*
X120254831Y-27076485D01*
X119865564Y-26686539D01*
X119356702Y-26475241D01*
X118805715Y-26474760D01*
X118296485Y-26685169D01*
X117906539Y-27074436D01*
X117810024Y-27306870D01*
X117714831Y-27076485D01*
X117325564Y-26686539D01*
X116816702Y-26475241D01*
X116265715Y-26474760D01*
X115756485Y-26685169D01*
X115366539Y-27074436D01*
X115270024Y-27306870D01*
X115174831Y-27076485D01*
X114785564Y-26686539D01*
X114276702Y-26475241D01*
X113725715Y-26474760D01*
X113216485Y-26685169D01*
X112826539Y-27074436D01*
X112730024Y-27306870D01*
X112634831Y-27076485D01*
X112245564Y-26686539D01*
X111736702Y-26475241D01*
X111185715Y-26474760D01*
X110676485Y-26685169D01*
X110286539Y-27074436D01*
X110190024Y-27306870D01*
X110094831Y-27076485D01*
X109705564Y-26686539D01*
X109297646Y-26517156D01*
X113947401Y-21867401D01*
X114112148Y-21620840D01*
X114170000Y-21330000D01*
X114170000Y-20169440D01*
X114410000Y-20169440D01*
X114645317Y-20125162D01*
X114861441Y-19986090D01*
X115006431Y-19773890D01*
X115057440Y-19522000D01*
X115057440Y-17722000D01*
X115038624Y-17622000D01*
X116262560Y-17622000D01*
X116262560Y-19622000D01*
X116306838Y-19857317D01*
X116445910Y-20073441D01*
X116658110Y-20218431D01*
X116910000Y-20269440D01*
X118710000Y-20269440D01*
X118945317Y-20225162D01*
X119161441Y-20086090D01*
X119306431Y-19873890D01*
X119357440Y-19622000D01*
X119357440Y-17622000D01*
X119313162Y-17386683D01*
X119174090Y-17170559D01*
X118961890Y-17025569D01*
X118710000Y-16974560D01*
X116910000Y-16974560D01*
X116674683Y-17018838D01*
X116458559Y-17157910D01*
X116313569Y-17370110D01*
X116262560Y-17622000D01*
X115038624Y-17622000D01*
X115013162Y-17486683D01*
X114874090Y-17270559D01*
X114661890Y-17125569D01*
X114410000Y-17074560D01*
X112410000Y-17074560D01*
X112174683Y-17118838D01*
X111958559Y-17257910D01*
X111813569Y-17470110D01*
X111762560Y-17722000D01*
X111762560Y-19522000D01*
X111806838Y-19757317D01*
X111945910Y-19973441D01*
X112158110Y-20118431D01*
X112410000Y-20169440D01*
X112650000Y-20169440D01*
X112650000Y-21015198D01*
X110528000Y-23137198D01*
X110528000Y-14221834D01*
X111364543Y-14221834D01*
X111764853Y-15190658D01*
X112505443Y-15932542D01*
X113473567Y-16334542D01*
X114521834Y-16335457D01*
X115490658Y-15935147D01*
X116232542Y-15194557D01*
X116634542Y-14226433D01*
X116635457Y-13178166D01*
X116582008Y-13048810D01*
X119246878Y-15713680D01*
X119246838Y-15759167D01*
X119388883Y-16102943D01*
X119651673Y-16366192D01*
X119995201Y-16508838D01*
X120367167Y-16509162D01*
X120710943Y-16367117D01*
X120974192Y-16104327D01*
X121116838Y-15760799D01*
X121117162Y-15388833D01*
X120975117Y-15045057D01*
X120712327Y-14781808D01*
X120368799Y-14639162D01*
X120321923Y-14639121D01*
X116327440Y-10644638D01*
X116327440Y-9086000D01*
X116283162Y-8850683D01*
X116144090Y-8634559D01*
X115931890Y-8489569D01*
X115680000Y-8438560D01*
X113680000Y-8438560D01*
X113444683Y-8482838D01*
X113228559Y-8621910D01*
X113083569Y-8834110D01*
X113032560Y-9086000D01*
X113032560Y-10886000D01*
X113076838Y-11121317D01*
X113132272Y-11207464D01*
X112509342Y-11464853D01*
X111767458Y-12205443D01*
X111365458Y-13173567D01*
X111364543Y-14221834D01*
X110528000Y-14221834D01*
X110528000Y-11801440D01*
X110668000Y-11801440D01*
X110903317Y-11757162D01*
X111119441Y-11618090D01*
X111264431Y-11405890D01*
X111315440Y-11154000D01*
X111315440Y-9154000D01*
X111271162Y-8918683D01*
X111132090Y-8702559D01*
X110919890Y-8557569D01*
X110668000Y-8506560D01*
X108868000Y-8506560D01*
X108632683Y-8550838D01*
X108416559Y-8689910D01*
X108271569Y-8902110D01*
X108220560Y-9154000D01*
X108220560Y-9867158D01*
X108174831Y-9756485D01*
X107785564Y-9366539D01*
X107276702Y-9155241D01*
X106725715Y-9154760D01*
X106216485Y-9365169D01*
X105826539Y-9754436D01*
X105615241Y-10263298D01*
X105614760Y-10814285D01*
X105825169Y-11323515D01*
X106214436Y-11713461D01*
X106723298Y-11924759D01*
X107274285Y-11925240D01*
X107783515Y-11714831D01*
X108173461Y-11325564D01*
X108228088Y-11194008D01*
X108264838Y-11389317D01*
X108403910Y-11605441D01*
X108616110Y-11750431D01*
X108868000Y-11801440D01*
X109008000Y-11801440D01*
X109008000Y-23641198D01*
X108104099Y-24545099D01*
X107804833Y-24544838D01*
X107461057Y-24686883D01*
X107197808Y-24949673D01*
X107055162Y-25293201D01*
X107054838Y-25665167D01*
X107196883Y-26008943D01*
X107364230Y-26176583D01*
X107309162Y-26309201D01*
X107308838Y-26681167D01*
X107450883Y-27024943D01*
X107545059Y-27119283D01*
X107351161Y-27157852D01*
X107104599Y-27322599D01*
X106090638Y-28336560D01*
X104704000Y-28336560D01*
X104468683Y-28380838D01*
X104252559Y-28519910D01*
X104107569Y-28732110D01*
X104056560Y-28984000D01*
X104056560Y-30784000D01*
X104100838Y-31019317D01*
X104239910Y-31235441D01*
X104452110Y-31380431D01*
X104704000Y-31431440D01*
X106470000Y-31431440D01*
X106470000Y-32636560D01*
X104804000Y-32636560D01*
X104568683Y-32680838D01*
X104352559Y-32819910D01*
X104207569Y-33032110D01*
X104156560Y-33284000D01*
X104156560Y-35284000D01*
X104200838Y-35519317D01*
X104339910Y-35735441D01*
X104552110Y-35880431D01*
X104804000Y-35931440D01*
X106470000Y-35931440D01*
X106470000Y-38650560D01*
X104804000Y-38650560D01*
X104568683Y-38694838D01*
X104352559Y-38833910D01*
X104207569Y-39046110D01*
X104156560Y-39298000D01*
X104156560Y-40770638D01*
X103924000Y-41003198D01*
X103924000Y-27058463D01*
X103956192Y-27026327D01*
X104098838Y-26682799D01*
X104099162Y-26310833D01*
X103957117Y-25967057D01*
X103694327Y-25703808D01*
X103350799Y-25561162D01*
X103336930Y-25561150D01*
X103337162Y-25294833D01*
X103195117Y-24951057D01*
X102932327Y-24687808D01*
X102588799Y-24545162D01*
X102216833Y-24544838D01*
X101873057Y-24686883D01*
X101609808Y-24949673D01*
X101467162Y-25293201D01*
X101466838Y-25665167D01*
X101608883Y-26008943D01*
X101642000Y-26042118D01*
X101642000Y-74955537D01*
X101609808Y-74987673D01*
X101467162Y-75331201D01*
X101466838Y-75703167D01*
X101608883Y-76046943D01*
X101642000Y-76080118D01*
X101642000Y-76534000D01*
X101699852Y-76824839D01*
X101864599Y-77071401D01*
X104944000Y-80150802D01*
X104944000Y-107975537D01*
X104911808Y-108007673D01*
X104769162Y-108351201D01*
X104768838Y-108723167D01*
X104910883Y-109066943D01*
X104944000Y-109100118D01*
X104944000Y-110143001D01*
X104756833Y-110142838D01*
X104413057Y-110284883D01*
X104149808Y-110547673D01*
X104007162Y-110891201D01*
X104007069Y-110998174D01*
X103897670Y-110448190D01*
X103539778Y-109912567D01*
X103386276Y-109810000D01*
X103539778Y-109707433D01*
X103897670Y-109171810D01*
X104023345Y-108540000D01*
X103897670Y-107908190D01*
X103539778Y-107372567D01*
X103386276Y-107270000D01*
X103539778Y-107167433D01*
X103897670Y-106631810D01*
X104023345Y-106000000D01*
X103897670Y-105368190D01*
X103539778Y-104832567D01*
X103386276Y-104730000D01*
X103539778Y-104627433D01*
X103897670Y-104091810D01*
X104023345Y-103460000D01*
X103897670Y-102828190D01*
X103539778Y-102292567D01*
X103386276Y-102190000D01*
X103539778Y-102087433D01*
X103897670Y-101551810D01*
X104023345Y-100920000D01*
X103897670Y-100288190D01*
X103539778Y-99752567D01*
X103386276Y-99650000D01*
X103539778Y-99547433D01*
X103897670Y-99011810D01*
X104023345Y-98380000D01*
X103897670Y-97748190D01*
X103539778Y-97212567D01*
X103386276Y-97110000D01*
X103539778Y-97007433D01*
X103897670Y-96471810D01*
X104023345Y-95840000D01*
X103897670Y-95208190D01*
X103539778Y-94672567D01*
X103386276Y-94570000D01*
X103539778Y-94467433D01*
X103897670Y-93931810D01*
X104023345Y-93300000D01*
X103897670Y-92668190D01*
X103539778Y-92132567D01*
X103386276Y-92030000D01*
X103539778Y-91927433D01*
X103897670Y-91391810D01*
X104023345Y-90760000D01*
X103897670Y-90128190D01*
X103539778Y-89592567D01*
X103386276Y-89490000D01*
X103539778Y-89387433D01*
X103897670Y-88851810D01*
X104023345Y-88220000D01*
X103897670Y-87588190D01*
X103539778Y-87052567D01*
X103376646Y-86943565D01*
X103746385Y-86544818D01*
X103945975Y-86062944D01*
X103826836Y-85807000D01*
X102467000Y-85807000D01*
X102467000Y-85827000D01*
X102213000Y-85827000D01*
X102213000Y-85807000D01*
X102193000Y-85807000D01*
X102193000Y-85553000D01*
X102213000Y-85553000D01*
X102213000Y-84192633D01*
X102467000Y-84192633D01*
X102467000Y-85553000D01*
X103826836Y-85553000D01*
X103945975Y-85297056D01*
X103746385Y-84815182D01*
X103308379Y-84342812D01*
X102722946Y-84074017D01*
X102467000Y-84192633D01*
X102213000Y-84192633D01*
X101957054Y-84074017D01*
X101371621Y-84342812D01*
X100933615Y-84815182D01*
X100734025Y-85297056D01*
X100853163Y-85552998D01*
X100710000Y-85552998D01*
X100710000Y-21557135D01*
X101654653Y-22503438D01*
X103173889Y-23134280D01*
X104818894Y-23135716D01*
X106339229Y-22507526D01*
X107503438Y-21345347D01*
X108134280Y-19826111D01*
X108135716Y-18181106D01*
X107507526Y-16660771D01*
X106345347Y-15496562D01*
X104826111Y-14865720D01*
X103181106Y-14864284D01*
X101660771Y-15492474D01*
X100710000Y-16441587D01*
X100710000Y-5734285D01*
X105614760Y-5734285D01*
X105825169Y-6243515D01*
X106214436Y-6633461D01*
X106723298Y-6844759D01*
X107274285Y-6845240D01*
X107783515Y-6634831D01*
X108120560Y-6298373D01*
X108120560Y-6654000D01*
X108164838Y-6889317D01*
X108303910Y-7105441D01*
X108516110Y-7250431D01*
X108768000Y-7301440D01*
X110768000Y-7301440D01*
X111003317Y-7257162D01*
X111219441Y-7118090D01*
X111364431Y-6905890D01*
X111415440Y-6654000D01*
X111415440Y-4854000D01*
X111371162Y-4618683D01*
X111232090Y-4402559D01*
X111019890Y-4257569D01*
X110768000Y-4206560D01*
X108768000Y-4206560D01*
X108532683Y-4250838D01*
X108316559Y-4389910D01*
X108171569Y-4602110D01*
X108159598Y-4661225D01*
X107785564Y-4286539D01*
X107276702Y-4075241D01*
X106725715Y-4074760D01*
X106216485Y-4285169D01*
X105826539Y-4674436D01*
X105615241Y-5183298D01*
X105614760Y-5734285D01*
X100710000Y-5734285D01*
X100710000Y-710000D01*
X111863068Y-710000D01*
X111767458Y-805443D01*
M02*
