G04 #@! TF.FileFunction,Soldermask,Top*
%FSLAX46Y46*%
G04 Gerber Fmt 4.6, Leading zero omitted, Abs format (unit mm)*
G04 Created by KiCad (PCBNEW 4.0.4+e1-6308~48~ubuntu14.04.1-stable) date Sun Sep 25 16:17:57 2016*
%MOMM*%
%LPD*%
G01*
G04 APERTURE LIST*
%ADD10C,0.100000*%
%ADD11C,1.900000*%
%ADD12R,1.900000X1.900000*%
%ADD13C,4.400000*%
%ADD14O,2.432000X2.432000*%
%ADD15R,2.432000X2.432000*%
%ADD16R,1.550000X1.150000*%
%ADD17R,1.350000X1.800000*%
%ADD18C,7.400000*%
G04 APERTURE END LIST*
D10*
D11*
X108920000Y-27860000D03*
X111460000Y-27860000D03*
X114000000Y-27860000D03*
X116540000Y-27860000D03*
X119080000Y-27860000D03*
D12*
X108920000Y-46640000D03*
D11*
X111460000Y-46640000D03*
X119080000Y-46640000D03*
X116540000Y-46640000D03*
X114000000Y-46640000D03*
D13*
X114000000Y-65550000D03*
D11*
X107000000Y-73790000D03*
X121500000Y-68710000D03*
X121500000Y-71250000D03*
X121500000Y-73790000D03*
X107000000Y-68710000D03*
D13*
X114000000Y-76950000D03*
D14*
X122660000Y-108540000D03*
X122660000Y-106000000D03*
X122660000Y-103460000D03*
X122660000Y-100920000D03*
X122660000Y-98380000D03*
X122660000Y-95840000D03*
X122660000Y-93300000D03*
X122660000Y-90760000D03*
X122660000Y-88220000D03*
X122660000Y-85680000D03*
X102340000Y-85680000D03*
X102340000Y-88220000D03*
X102340000Y-90760000D03*
X102340000Y-93300000D03*
X102340000Y-95840000D03*
X102340000Y-98380000D03*
X102340000Y-100920000D03*
X102340000Y-103460000D03*
X102340000Y-106000000D03*
X102340000Y-108540000D03*
X102340000Y-111080000D03*
X102340000Y-113620000D03*
X102340000Y-116160000D03*
X102340000Y-118700000D03*
D15*
X102340000Y-123780000D03*
D14*
X102340000Y-121240000D03*
D16*
X123575000Y-20025000D03*
X120425000Y-20025000D03*
X123575000Y-16975000D03*
D17*
X119925000Y-18500000D03*
X124075000Y-18500000D03*
D16*
X120425000Y-16975000D03*
D13*
X114000000Y-2300000D03*
D11*
X107000000Y-10540000D03*
X121500000Y-5460000D03*
X121500000Y-8000000D03*
X121500000Y-10540000D03*
X107000000Y-5460000D03*
D13*
X114000000Y-13700000D03*
D11*
X108920000Y-161110000D03*
X111460000Y-161110000D03*
X114000000Y-161110000D03*
X116540000Y-161110000D03*
X119080000Y-161110000D03*
D12*
X108920000Y-179890000D03*
D11*
X111460000Y-179890000D03*
X119080000Y-179890000D03*
X116540000Y-179890000D03*
X114000000Y-179890000D03*
D18*
X129000000Y-4000000D03*
X104000000Y-19000000D03*
X129000000Y-180000000D03*
M02*
